G75*
%MOIN*%
%OFA0B0*%
%FSLAX25Y25*%
%IPPOS*%
%LPD*%
%AMOC8*
5,1,8,0,0,1.08239X$1,22.5*
%
%ADD10OC8,0.05600*%
%ADD11C,0.05600*%
%ADD12C,0.07874*%
%ADD13R,0.07800X0.02200*%
%ADD14R,0.09000X0.09000*%
%ADD15R,0.04331X0.03937*%
%ADD16R,0.03937X0.04331*%
%ADD17R,0.09055X0.09843*%
%ADD18R,0.13780X0.07874*%
%ADD19R,0.06600X0.01400*%
%ADD20R,0.09685X0.09094*%
%ADD21C,0.03000*%
%ADD22R,0.12800X0.03000*%
%ADD23R,0.16400X0.04300*%
%ADD24R,0.06693X0.09843*%
%ADD25R,0.11417X0.21260*%
%ADD26R,0.07087X0.06299*%
%ADD27R,0.16000X0.04300*%
%ADD28C,0.01600*%
%ADD29C,0.04356*%
%ADD30C,0.02400*%
%ADD31C,0.05000*%
D10*
X0017272Y0047323D03*
X0017272Y0057323D03*
X0027272Y0057323D03*
X0027272Y0047323D03*
X0027272Y0067323D03*
X0017272Y0067323D03*
X0017272Y0077323D03*
X0017272Y0087323D03*
X0027272Y0087323D03*
X0027272Y0077323D03*
X0027272Y0097323D03*
X0017272Y0097323D03*
X0017272Y0107323D03*
X0017272Y0117323D03*
X0027272Y0117323D03*
X0027272Y0107323D03*
X0031957Y0172008D03*
X0031957Y0182008D03*
X0021957Y0182008D03*
X0041957Y0182008D03*
X0041957Y0172008D03*
X0051957Y0172008D03*
X0051957Y0182008D03*
X0061957Y0182008D03*
X0061957Y0172008D03*
X0071957Y0172008D03*
X0081957Y0172008D03*
X0081957Y0182008D03*
X0071957Y0182008D03*
X0091957Y0182008D03*
X0091957Y0172008D03*
X0101957Y0172008D03*
X0101957Y0182008D03*
X0111957Y0182008D03*
X0111957Y0172008D03*
X0121957Y0172008D03*
X0121957Y0182008D03*
X0131957Y0182008D03*
X0131957Y0172008D03*
X0141957Y0172008D03*
X0141957Y0182008D03*
X0151957Y0182008D03*
X0151957Y0172008D03*
X0161957Y0172008D03*
X0171957Y0172008D03*
X0171957Y0182008D03*
X0161957Y0182008D03*
X0181957Y0182008D03*
X0181957Y0172008D03*
X0191957Y0172008D03*
X0191957Y0182008D03*
X0201957Y0182008D03*
X0201957Y0172008D03*
X0211957Y0172008D03*
X0211957Y0182008D03*
D11*
X0021957Y0172008D03*
D12*
X0188930Y0028485D03*
X0208930Y0028485D03*
X0228930Y0028485D03*
D13*
X0221343Y0115768D03*
X0221343Y0120768D03*
X0221343Y0125768D03*
X0221343Y0130768D03*
X0201943Y0130768D03*
X0201943Y0125768D03*
X0201943Y0120768D03*
X0201943Y0115768D03*
D14*
X0211643Y0123268D03*
D15*
X0214989Y0107914D03*
X0208296Y0107914D03*
X0231918Y0110276D03*
X0238611Y0110276D03*
X0242351Y0119922D03*
X0242351Y0126615D03*
X0231918Y0126418D03*
X0231918Y0119725D03*
X0231918Y0133308D03*
X0231918Y0140000D03*
X0122666Y0149646D03*
X0122666Y0156339D03*
X0122666Y0128189D03*
X0122666Y0121497D03*
X0102981Y0069725D03*
X0096288Y0069725D03*
X0109280Y0057520D03*
X0109280Y0050827D03*
D16*
X0109280Y0044725D03*
X0109280Y0038032D03*
X0145501Y0065788D03*
X0145501Y0072481D03*
X0097666Y0079961D03*
X0097666Y0086654D03*
X0029950Y0130158D03*
X0029950Y0136851D03*
X0019713Y0136851D03*
X0019713Y0130158D03*
X0052981Y0153189D03*
X0052981Y0159882D03*
X0068335Y0159882D03*
X0068335Y0153189D03*
X0106918Y0194134D03*
X0106918Y0200827D03*
X0116957Y0200827D03*
X0116957Y0194134D03*
X0126997Y0194134D03*
X0126997Y0200827D03*
X0132312Y0156339D03*
X0132312Y0149646D03*
X0141957Y0149646D03*
X0141957Y0156339D03*
D17*
X0189989Y0108111D03*
X0189989Y0091182D03*
D18*
X0170698Y0120906D03*
X0170698Y0156339D03*
D19*
X0132585Y0087737D03*
X0132585Y0085178D03*
X0132585Y0082619D03*
X0132585Y0080060D03*
X0132585Y0077500D03*
X0132585Y0074941D03*
X0132585Y0072382D03*
X0132585Y0069823D03*
X0110385Y0069823D03*
X0110385Y0072382D03*
X0110385Y0074941D03*
X0110385Y0077501D03*
X0110385Y0080060D03*
X0110385Y0082619D03*
X0110385Y0085178D03*
X0110385Y0087737D03*
D20*
X0121485Y0078780D03*
D21*
X0121485Y0077180D03*
X0118385Y0077180D03*
X0118385Y0080380D03*
X0121485Y0080380D03*
X0124585Y0080380D03*
X0124585Y0077180D03*
D22*
X0152930Y0097875D03*
X0171930Y0097875D03*
D23*
X0077249Y0125040D03*
X0045249Y0125040D03*
D24*
X0098257Y0057520D03*
X0098257Y0041772D03*
D25*
X0084280Y0069725D03*
X0045304Y0069725D03*
D26*
X0100619Y0145512D03*
X0100619Y0156536D03*
D27*
X0167059Y0063819D03*
X0191659Y0063819D03*
X0211154Y0063819D03*
X0235754Y0063819D03*
D28*
X0009164Y0018029D02*
X0009351Y0204889D01*
X0247787Y0205079D01*
X0247787Y0018029D01*
X0009164Y0018029D01*
X0009165Y0019623D02*
X0247787Y0019623D01*
X0247787Y0021221D02*
X0009167Y0021221D01*
X0009169Y0022820D02*
X0208023Y0022820D01*
X0208451Y0022820D02*
X0209410Y0022820D01*
X0209410Y0022752D02*
X0210274Y0022889D01*
X0211133Y0023168D01*
X0211937Y0023578D01*
X0212668Y0024109D01*
X0213306Y0024747D01*
X0213837Y0025478D01*
X0214247Y0026282D01*
X0214526Y0027141D01*
X0214663Y0028005D01*
X0209410Y0028005D01*
X0209410Y0028964D01*
X0214663Y0028964D01*
X0214526Y0029828D01*
X0214247Y0030687D01*
X0213837Y0031492D01*
X0213306Y0032222D01*
X0212668Y0032861D01*
X0211937Y0033391D01*
X0211133Y0033801D01*
X0210274Y0034080D01*
X0209410Y0034217D01*
X0209410Y0028964D01*
X0208451Y0028964D01*
X0208451Y0028005D01*
X0209410Y0028005D01*
X0209410Y0022752D01*
X0209838Y0022820D02*
X0247787Y0022820D01*
X0247787Y0024418D02*
X0232694Y0024418D01*
X0232067Y0023791D02*
X0233624Y0025348D01*
X0234467Y0027383D01*
X0234467Y0029586D01*
X0233624Y0031621D01*
X0232067Y0033179D01*
X0230032Y0034022D01*
X0229192Y0034022D01*
X0215254Y0047960D01*
X0215254Y0060069D01*
X0219816Y0060069D01*
X0220754Y0061007D01*
X0220754Y0066632D01*
X0219816Y0067569D01*
X0213852Y0067569D01*
X0213852Y0088644D01*
X0231916Y0106708D01*
X0234746Y0106708D01*
X0235123Y0107085D01*
X0235340Y0106867D01*
X0235751Y0106630D01*
X0236209Y0106508D01*
X0238427Y0106508D01*
X0238427Y0110092D01*
X0238795Y0110092D01*
X0238795Y0106508D01*
X0241013Y0106508D01*
X0241471Y0106630D01*
X0241882Y0106867D01*
X0242217Y0107202D01*
X0242454Y0107613D01*
X0242576Y0108071D01*
X0242576Y0110092D01*
X0238795Y0110092D01*
X0238795Y0110460D01*
X0242576Y0110460D01*
X0242576Y0112482D01*
X0242454Y0112939D01*
X0242217Y0113350D01*
X0241882Y0113685D01*
X0241471Y0113922D01*
X0241013Y0114045D01*
X0238795Y0114045D01*
X0238795Y0110460D01*
X0238427Y0110460D01*
X0238427Y0114045D01*
X0236209Y0114045D01*
X0235751Y0113922D01*
X0235340Y0113685D01*
X0235123Y0113468D01*
X0234746Y0113845D01*
X0234718Y0113845D01*
X0234718Y0116156D01*
X0234746Y0116156D01*
X0235515Y0116925D01*
X0238951Y0116925D01*
X0239523Y0116353D01*
X0245179Y0116353D01*
X0246117Y0117291D01*
X0246117Y0122553D01*
X0245401Y0123268D01*
X0246117Y0123983D01*
X0246117Y0129246D01*
X0245179Y0130183D01*
X0245151Y0130183D01*
X0245151Y0136080D01*
X0245554Y0136482D01*
X0246129Y0137871D01*
X0246129Y0139374D01*
X0245554Y0140763D01*
X0244491Y0141825D01*
X0243103Y0142400D01*
X0241600Y0142400D01*
X0240211Y0141825D01*
X0239148Y0140763D01*
X0238573Y0139374D01*
X0238573Y0137871D01*
X0239148Y0136482D01*
X0239551Y0136080D01*
X0239551Y0130183D01*
X0239523Y0130183D01*
X0238586Y0129246D01*
X0238586Y0123983D01*
X0239301Y0123268D01*
X0238586Y0122553D01*
X0238586Y0122525D01*
X0235515Y0122525D01*
X0234968Y0123071D01*
X0235683Y0123787D01*
X0235683Y0129049D01*
X0234870Y0129863D01*
X0235683Y0130676D01*
X0235683Y0135939D01*
X0235088Y0136534D01*
X0235189Y0136592D01*
X0235524Y0136927D01*
X0235761Y0137337D01*
X0235883Y0137795D01*
X0235883Y0139816D01*
X0232102Y0139816D01*
X0232102Y0140185D01*
X0231734Y0140185D01*
X0231734Y0143769D01*
X0229516Y0143769D01*
X0229058Y0143646D01*
X0228648Y0143409D01*
X0228312Y0143074D01*
X0228075Y0142664D01*
X0227953Y0142206D01*
X0227953Y0140185D01*
X0231734Y0140185D01*
X0231734Y0139816D01*
X0227953Y0139816D01*
X0227953Y0137795D01*
X0228075Y0137337D01*
X0228312Y0136927D01*
X0228648Y0136592D01*
X0228748Y0136534D01*
X0228153Y0135939D01*
X0228153Y0130676D01*
X0228966Y0129863D01*
X0228322Y0129218D01*
X0227818Y0129218D01*
X0226789Y0128792D01*
X0226565Y0128568D01*
X0226405Y0128568D01*
X0226843Y0129005D01*
X0226843Y0132531D01*
X0225905Y0133468D01*
X0224285Y0133468D01*
X0224285Y0136080D01*
X0224688Y0136482D01*
X0225263Y0137871D01*
X0225263Y0139374D01*
X0224688Y0140763D01*
X0223625Y0141825D01*
X0222237Y0142400D01*
X0220734Y0142400D01*
X0219345Y0141825D01*
X0218282Y0140763D01*
X0217707Y0139374D01*
X0217707Y0137871D01*
X0218282Y0136482D01*
X0218685Y0136080D01*
X0218685Y0133468D01*
X0216780Y0133468D01*
X0215843Y0132531D01*
X0215843Y0129368D01*
X0207443Y0129368D01*
X0207443Y0132531D01*
X0206505Y0133468D01*
X0204797Y0133468D01*
X0204797Y0136080D01*
X0205200Y0136482D01*
X0205775Y0137871D01*
X0205775Y0139374D01*
X0205200Y0140763D01*
X0204137Y0141825D01*
X0202748Y0142400D01*
X0201245Y0142400D01*
X0199857Y0141825D01*
X0198794Y0140763D01*
X0198219Y0139374D01*
X0198219Y0137871D01*
X0198794Y0136482D01*
X0199197Y0136080D01*
X0199197Y0133468D01*
X0197380Y0133468D01*
X0196443Y0132531D01*
X0196443Y0129005D01*
X0197180Y0128268D01*
X0196443Y0127531D01*
X0196443Y0124005D01*
X0197065Y0123383D01*
X0196937Y0123309D01*
X0196602Y0122973D01*
X0196365Y0122563D01*
X0196243Y0122105D01*
X0196243Y0120768D01*
X0196243Y0119431D01*
X0196365Y0118973D01*
X0196594Y0118577D01*
X0192588Y0118584D01*
X0192363Y0119128D01*
X0191575Y0119916D01*
X0188211Y0123280D01*
X0187182Y0123706D01*
X0179187Y0123706D01*
X0179187Y0125506D01*
X0178250Y0126443D01*
X0163145Y0126443D01*
X0162208Y0125506D01*
X0162208Y0116306D01*
X0163145Y0115369D01*
X0178250Y0115369D01*
X0179187Y0116306D01*
X0179187Y0118106D01*
X0185465Y0118106D01*
X0187189Y0116382D01*
X0187189Y0115788D01*
X0187188Y0115236D01*
X0187189Y0115233D01*
X0187189Y0114632D01*
X0184799Y0114632D01*
X0183861Y0113695D01*
X0183861Y0102527D01*
X0184799Y0101589D01*
X0195179Y0101589D01*
X0196117Y0102527D01*
X0196117Y0112978D01*
X0199143Y0112973D01*
X0199143Y0109644D01*
X0199569Y0108615D01*
X0200356Y0107828D01*
X0202644Y0105540D01*
X0203673Y0105114D01*
X0204699Y0105114D01*
X0205468Y0104345D01*
X0211124Y0104345D01*
X0211643Y0104864D01*
X0212161Y0104345D01*
X0217817Y0104345D01*
X0218586Y0105114D01*
X0219877Y0105114D01*
X0220906Y0105540D01*
X0221693Y0106328D01*
X0223071Y0107705D01*
X0223859Y0108493D01*
X0224285Y0109522D01*
X0224285Y0113068D01*
X0225905Y0113068D01*
X0226843Y0114005D01*
X0226843Y0117247D01*
X0227621Y0116925D01*
X0228322Y0116925D01*
X0229090Y0116156D01*
X0229118Y0116156D01*
X0229118Y0113845D01*
X0229090Y0113845D01*
X0228153Y0112907D01*
X0228153Y0110864D01*
X0209466Y0092177D01*
X0208678Y0091390D01*
X0208252Y0090361D01*
X0208252Y0067569D01*
X0202491Y0067569D01*
X0201554Y0066632D01*
X0201554Y0061007D01*
X0202491Y0060069D01*
X0207054Y0060069D01*
X0207054Y0045446D01*
X0207678Y0043939D01*
X0223393Y0028223D01*
X0223393Y0027383D01*
X0224236Y0025348D01*
X0225794Y0023791D01*
X0227829Y0022948D01*
X0230032Y0022948D01*
X0232067Y0023791D01*
X0233901Y0026017D02*
X0247787Y0026017D01*
X0247787Y0027615D02*
X0234467Y0027615D01*
X0234467Y0029214D02*
X0247787Y0029214D01*
X0247787Y0030812D02*
X0233959Y0030812D01*
X0232835Y0032411D02*
X0247787Y0032411D01*
X0247787Y0034009D02*
X0230061Y0034009D01*
X0227605Y0035608D02*
X0247787Y0035608D01*
X0247787Y0037207D02*
X0226007Y0037207D01*
X0224408Y0038805D02*
X0247787Y0038805D01*
X0247787Y0040404D02*
X0222810Y0040404D01*
X0221211Y0042002D02*
X0247787Y0042002D01*
X0247787Y0043601D02*
X0219613Y0043601D01*
X0218014Y0045199D02*
X0247787Y0045199D01*
X0247787Y0046798D02*
X0216416Y0046798D01*
X0215254Y0048396D02*
X0247787Y0048396D01*
X0247787Y0049995D02*
X0215254Y0049995D01*
X0215254Y0051593D02*
X0247787Y0051593D01*
X0247787Y0053192D02*
X0215254Y0053192D01*
X0215254Y0054790D02*
X0247787Y0054790D01*
X0247787Y0056389D02*
X0215254Y0056389D01*
X0215254Y0057987D02*
X0247787Y0057987D01*
X0247787Y0059586D02*
X0215254Y0059586D01*
X0220754Y0061184D02*
X0226020Y0061184D01*
X0226076Y0060975D02*
X0226313Y0060564D01*
X0226648Y0060229D01*
X0227059Y0059992D01*
X0227517Y0059869D01*
X0235479Y0059869D01*
X0235479Y0063544D01*
X0236029Y0063544D01*
X0236029Y0064094D01*
X0245554Y0064094D01*
X0245554Y0066206D01*
X0245431Y0066664D01*
X0245194Y0067075D01*
X0244859Y0067410D01*
X0244448Y0067647D01*
X0243991Y0067769D01*
X0236029Y0067769D01*
X0236029Y0064094D01*
X0235479Y0064094D01*
X0235478Y0064094D02*
X0235478Y0063544D01*
X0225954Y0063544D01*
X0225954Y0061432D01*
X0226076Y0060975D01*
X0225954Y0062783D02*
X0220754Y0062783D01*
X0220754Y0064381D02*
X0225954Y0064381D01*
X0225954Y0064094D02*
X0235478Y0064094D01*
X0235479Y0064094D02*
X0235479Y0067769D01*
X0227517Y0067769D01*
X0227059Y0067647D01*
X0226648Y0067410D01*
X0226313Y0067075D01*
X0226076Y0066664D01*
X0225954Y0066206D01*
X0225954Y0064094D01*
X0225954Y0065980D02*
X0220754Y0065980D01*
X0226940Y0067578D02*
X0213852Y0067578D01*
X0213852Y0069177D02*
X0247787Y0069177D01*
X0247787Y0070775D02*
X0213852Y0070775D01*
X0213852Y0072374D02*
X0247787Y0072374D01*
X0247787Y0073972D02*
X0213852Y0073972D01*
X0213852Y0075571D02*
X0247787Y0075571D01*
X0247787Y0077169D02*
X0213852Y0077169D01*
X0213852Y0078768D02*
X0247787Y0078768D01*
X0247787Y0080366D02*
X0213852Y0080366D01*
X0213852Y0081965D02*
X0247787Y0081965D01*
X0247787Y0083563D02*
X0213852Y0083563D01*
X0213852Y0085162D02*
X0247787Y0085162D01*
X0247787Y0086760D02*
X0213852Y0086760D01*
X0213852Y0088359D02*
X0247787Y0088359D01*
X0247787Y0089957D02*
X0215166Y0089957D01*
X0216764Y0091556D02*
X0247787Y0091556D01*
X0247787Y0093154D02*
X0218363Y0093154D01*
X0219961Y0094753D02*
X0247787Y0094753D01*
X0247787Y0096351D02*
X0221560Y0096351D01*
X0223158Y0097950D02*
X0247787Y0097950D01*
X0247787Y0099548D02*
X0224757Y0099548D01*
X0226355Y0101147D02*
X0247787Y0101147D01*
X0247787Y0102745D02*
X0227954Y0102745D01*
X0229552Y0104344D02*
X0247787Y0104344D01*
X0247787Y0105942D02*
X0231151Y0105942D01*
X0226428Y0109140D02*
X0224126Y0109140D01*
X0224285Y0110738D02*
X0228027Y0110738D01*
X0228153Y0112337D02*
X0224285Y0112337D01*
X0226772Y0113935D02*
X0229118Y0113935D01*
X0229118Y0115534D02*
X0226843Y0115534D01*
X0226843Y0117132D02*
X0227121Y0117132D01*
X0221485Y0115394D02*
X0221343Y0115537D01*
X0221343Y0115768D01*
X0223071Y0107705D02*
X0223071Y0107705D01*
X0222907Y0107541D02*
X0224830Y0107541D01*
X0223231Y0105942D02*
X0221308Y0105942D01*
X0221633Y0104344D02*
X0196117Y0104344D01*
X0196117Y0105942D02*
X0202242Y0105942D01*
X0200643Y0107541D02*
X0196117Y0107541D01*
X0196117Y0109140D02*
X0199352Y0109140D01*
X0199143Y0110738D02*
X0196117Y0110738D01*
X0196117Y0112337D02*
X0199143Y0112337D01*
X0196505Y0118731D02*
X0192527Y0118731D01*
X0191162Y0120329D02*
X0196243Y0120329D01*
X0196243Y0120768D02*
X0201942Y0120768D01*
X0201942Y0120768D01*
X0196243Y0120768D01*
X0196243Y0121928D02*
X0189563Y0121928D01*
X0187616Y0123526D02*
X0196922Y0123526D01*
X0196443Y0125125D02*
X0179187Y0125125D01*
X0179187Y0117132D02*
X0186439Y0117132D01*
X0187189Y0115534D02*
X0178415Y0115534D01*
X0184102Y0113935D02*
X0047704Y0113935D01*
X0047704Y0112337D02*
X0183861Y0112337D01*
X0183861Y0110738D02*
X0047704Y0110738D01*
X0047704Y0109140D02*
X0183861Y0109140D01*
X0183861Y0107541D02*
X0047704Y0107541D01*
X0047704Y0105942D02*
X0183861Y0105942D01*
X0183861Y0104344D02*
X0047704Y0104344D01*
X0047704Y0102745D02*
X0183861Y0102745D01*
X0179770Y0100480D02*
X0180007Y0100069D01*
X0180130Y0099611D01*
X0180130Y0097875D01*
X0171930Y0097875D01*
X0171930Y0097875D01*
X0171930Y0101174D01*
X0178567Y0101174D01*
X0179025Y0101052D01*
X0179435Y0100815D01*
X0179770Y0100480D01*
X0180130Y0099548D02*
X0216837Y0099548D01*
X0215238Y0097950D02*
X0180130Y0097950D01*
X0180130Y0097874D02*
X0171930Y0097874D01*
X0171930Y0094575D01*
X0178567Y0094575D01*
X0179025Y0094697D01*
X0179435Y0094934D01*
X0179770Y0095269D01*
X0180007Y0095680D01*
X0180130Y0096138D01*
X0180130Y0097874D01*
X0180130Y0096351D02*
X0183665Y0096351D01*
X0183661Y0096340D02*
X0183661Y0091982D01*
X0189189Y0091982D01*
X0189189Y0097903D01*
X0185224Y0097903D01*
X0184767Y0097780D01*
X0184356Y0097543D01*
X0184021Y0097208D01*
X0183784Y0096798D01*
X0183661Y0096340D01*
X0183661Y0094753D02*
X0179121Y0094753D01*
X0183661Y0093154D02*
X0155303Y0093154D01*
X0155294Y0091556D02*
X0189189Y0091556D01*
X0189189Y0091982D02*
X0189189Y0090382D01*
X0183661Y0090382D01*
X0183661Y0086023D01*
X0183784Y0085566D01*
X0184021Y0085155D01*
X0184356Y0084820D01*
X0184767Y0084583D01*
X0185224Y0084460D01*
X0189189Y0084460D01*
X0189189Y0090382D01*
X0190789Y0090382D01*
X0190789Y0091982D01*
X0189189Y0091982D01*
X0189189Y0093154D02*
X0190789Y0093154D01*
X0190789Y0091982D02*
X0190789Y0097903D01*
X0194754Y0097903D01*
X0195211Y0097780D01*
X0195622Y0097543D01*
X0195957Y0097208D01*
X0196194Y0096798D01*
X0196317Y0096340D01*
X0196317Y0091982D01*
X0190789Y0091982D01*
X0190789Y0091556D02*
X0208844Y0091556D01*
X0208252Y0089957D02*
X0196317Y0089957D01*
X0196317Y0090382D02*
X0196317Y0086023D01*
X0196194Y0085566D01*
X0195957Y0085155D01*
X0195622Y0084820D01*
X0195211Y0084583D01*
X0194754Y0084460D01*
X0190789Y0084460D01*
X0190789Y0090382D01*
X0196317Y0090382D01*
X0196317Y0088359D02*
X0208252Y0088359D01*
X0208252Y0086760D02*
X0196317Y0086760D01*
X0195961Y0085162D02*
X0208252Y0085162D01*
X0208252Y0083563D02*
X0155248Y0083563D01*
X0155239Y0081965D02*
X0208252Y0081965D01*
X0208252Y0080366D02*
X0155230Y0080366D01*
X0155221Y0078768D02*
X0208252Y0078768D01*
X0208252Y0077169D02*
X0155212Y0077169D01*
X0155203Y0075571D02*
X0208252Y0075571D01*
X0208252Y0073972D02*
X0155194Y0073972D01*
X0155185Y0072374D02*
X0208252Y0072374D01*
X0208252Y0070775D02*
X0155184Y0070775D01*
X0155184Y0072277D02*
X0155312Y0094775D01*
X0159993Y0094775D01*
X0160930Y0095712D01*
X0160930Y0100037D01*
X0159993Y0100974D01*
X0145867Y0100974D01*
X0144930Y0100037D01*
X0144930Y0095712D01*
X0145867Y0094775D01*
X0150512Y0094775D01*
X0150398Y0074684D01*
X0149069Y0074684D01*
X0149069Y0075309D01*
X0148132Y0076246D01*
X0142870Y0076246D01*
X0141932Y0075309D01*
X0141932Y0074782D01*
X0137485Y0074782D01*
X0137485Y0089099D01*
X0136548Y0090037D01*
X0128622Y0090037D01*
X0127685Y0089099D01*
X0127685Y0084515D01*
X0127433Y0084768D01*
X0127022Y0085005D01*
X0126565Y0085127D01*
X0122285Y0085127D01*
X0122285Y0083586D01*
X0121810Y0083680D01*
X0121485Y0083680D01*
X0121160Y0083680D01*
X0120685Y0083586D01*
X0120685Y0085127D01*
X0116406Y0085127D01*
X0115948Y0085005D01*
X0115537Y0084768D01*
X0115485Y0084715D01*
X0115485Y0085178D01*
X0115485Y0086115D01*
X0115362Y0086572D01*
X0115285Y0086706D01*
X0115285Y0089099D01*
X0114348Y0090037D01*
X0111104Y0090037D01*
X0110862Y0090137D01*
X0108011Y0090137D01*
X0095876Y0102271D01*
X0094994Y0102637D01*
X0047704Y0102637D01*
X0047704Y0121290D01*
X0054112Y0121290D01*
X0055049Y0122227D01*
X0055049Y0127853D01*
X0054112Y0128790D01*
X0036386Y0128790D01*
X0035449Y0127853D01*
X0035449Y0127440D01*
X0033518Y0127440D01*
X0033518Y0132986D01*
X0033141Y0133363D01*
X0033358Y0133580D01*
X0033595Y0133991D01*
X0033718Y0134449D01*
X0033718Y0136667D01*
X0030134Y0136667D01*
X0030134Y0137035D01*
X0033718Y0137035D01*
X0033718Y0139253D01*
X0033595Y0139711D01*
X0033358Y0140121D01*
X0033023Y0140457D01*
X0032613Y0140694D01*
X0032155Y0140816D01*
X0030134Y0140816D01*
X0030134Y0137035D01*
X0029765Y0137035D01*
X0029765Y0136667D01*
X0026181Y0136667D01*
X0026181Y0134449D01*
X0026304Y0133991D01*
X0026541Y0133580D01*
X0026758Y0133363D01*
X0026381Y0132986D01*
X0026381Y0127440D01*
X0023405Y0127440D01*
X0023282Y0127563D01*
X0023282Y0132986D01*
X0022905Y0133363D01*
X0023122Y0133580D01*
X0023359Y0133991D01*
X0023482Y0134449D01*
X0023482Y0136667D01*
X0019898Y0136667D01*
X0019898Y0137035D01*
X0023482Y0137035D01*
X0023482Y0139253D01*
X0023359Y0139711D01*
X0023122Y0140121D01*
X0022787Y0140457D01*
X0022377Y0140694D01*
X0021919Y0140816D01*
X0019898Y0140816D01*
X0019898Y0137035D01*
X0019529Y0137035D01*
X0019529Y0136667D01*
X0015945Y0136667D01*
X0015945Y0134449D01*
X0016068Y0133991D01*
X0016305Y0133580D01*
X0016522Y0133363D01*
X0016145Y0132986D01*
X0016145Y0127330D01*
X0017082Y0126393D01*
X0017903Y0126393D01*
X0018072Y0125984D01*
X0020377Y0123680D01*
X0021052Y0123005D01*
X0021934Y0122640D01*
X0024991Y0122640D01*
X0024991Y0121264D01*
X0022872Y0119146D01*
X0022872Y0115501D01*
X0025450Y0112923D01*
X0029095Y0112923D01*
X0031672Y0115501D01*
X0031672Y0119146D01*
X0029791Y0121028D01*
X0029791Y0122640D01*
X0035449Y0122640D01*
X0035449Y0122227D01*
X0036386Y0121290D01*
X0042904Y0121290D01*
X0042904Y0081955D01*
X0038933Y0081955D01*
X0037995Y0081018D01*
X0037995Y0058432D01*
X0038933Y0057495D01*
X0051675Y0057495D01*
X0052613Y0058432D01*
X0052613Y0081018D01*
X0051675Y0081955D01*
X0047704Y0081955D01*
X0047704Y0097837D01*
X0093522Y0097837D01*
X0105285Y0086074D01*
X0105285Y0085178D01*
X0110385Y0085178D01*
X0110385Y0085178D01*
X0115485Y0085178D01*
X0110385Y0085178D01*
X0110385Y0085178D01*
X0105285Y0085178D01*
X0105285Y0084241D01*
X0105377Y0083898D01*
X0105285Y0083556D01*
X0105285Y0082619D01*
X0110385Y0082619D01*
X0110385Y0085119D01*
X0110385Y0085178D01*
X0110385Y0082619D01*
X0110385Y0082619D01*
X0110385Y0082619D01*
X0105285Y0082619D01*
X0105285Y0082460D01*
X0101235Y0082460D01*
X0101235Y0082789D01*
X0100858Y0083166D01*
X0101075Y0083383D01*
X0101312Y0083794D01*
X0101435Y0084252D01*
X0101435Y0086470D01*
X0097850Y0086470D01*
X0097850Y0086838D01*
X0097482Y0086838D01*
X0097482Y0086470D01*
X0093898Y0086470D01*
X0093898Y0084252D01*
X0094020Y0083794D01*
X0094257Y0083383D01*
X0094475Y0083166D01*
X0094098Y0082789D01*
X0094098Y0077133D01*
X0095035Y0076196D01*
X0096920Y0076196D01*
X0094929Y0074204D01*
X0094254Y0073529D01*
X0094156Y0073293D01*
X0093460Y0073293D01*
X0092523Y0072356D01*
X0092523Y0072125D01*
X0091589Y0072125D01*
X0091589Y0081018D01*
X0090652Y0081955D01*
X0077909Y0081955D01*
X0076972Y0081018D01*
X0076972Y0058432D01*
X0077909Y0057495D01*
X0090652Y0057495D01*
X0091589Y0058432D01*
X0091589Y0067325D01*
X0092523Y0067325D01*
X0092523Y0067094D01*
X0093460Y0066156D01*
X0093945Y0066156D01*
X0094254Y0065413D01*
X0095625Y0064041D01*
X0094247Y0064041D01*
X0093310Y0063104D01*
X0093310Y0051936D01*
X0094247Y0050999D01*
X0102266Y0050999D01*
X0103203Y0051936D01*
X0103203Y0055120D01*
X0105515Y0055120D01*
X0105515Y0054889D01*
X0106230Y0054174D01*
X0105515Y0053459D01*
X0105515Y0048196D01*
X0105935Y0047776D01*
X0105712Y0047553D01*
X0105712Y0041897D01*
X0106089Y0041520D01*
X0105871Y0041303D01*
X0105634Y0040892D01*
X0105512Y0040434D01*
X0105512Y0038216D01*
X0109096Y0038216D01*
X0109096Y0037848D01*
X0105512Y0037848D01*
X0105512Y0035630D01*
X0105634Y0035172D01*
X0105871Y0034761D01*
X0106207Y0034426D01*
X0106617Y0034189D01*
X0107075Y0034067D01*
X0109096Y0034067D01*
X0109096Y0037848D01*
X0109465Y0037848D01*
X0109465Y0038216D01*
X0113049Y0038216D01*
X0113049Y0040434D01*
X0112926Y0040892D01*
X0112689Y0041303D01*
X0112472Y0041520D01*
X0112849Y0041897D01*
X0112849Y0047553D01*
X0112626Y0047776D01*
X0113046Y0048196D01*
X0113046Y0053459D01*
X0112330Y0054174D01*
X0113046Y0054889D01*
X0113046Y0060151D01*
X0112108Y0061089D01*
X0106452Y0061089D01*
X0105515Y0060151D01*
X0105515Y0059920D01*
X0103203Y0059920D01*
X0103203Y0063104D01*
X0102266Y0064041D01*
X0100657Y0064041D01*
X0100657Y0065281D01*
X0100294Y0066156D01*
X0105809Y0066156D01*
X0106746Y0067094D01*
X0106746Y0067423D01*
X0110862Y0067423D01*
X0111104Y0067523D01*
X0114348Y0067523D01*
X0115285Y0068461D01*
X0115285Y0073045D01*
X0115537Y0072792D01*
X0115948Y0072555D01*
X0116406Y0072433D01*
X0120685Y0072433D01*
X0120685Y0073975D01*
X0121160Y0073880D01*
X0121485Y0073880D01*
X0121485Y0076041D01*
X0121485Y0076041D01*
X0121485Y0076041D01*
X0121485Y0073880D01*
X0121810Y0073880D01*
X0122285Y0073975D01*
X0122285Y0072433D01*
X0126565Y0072433D01*
X0127022Y0072555D01*
X0127433Y0072792D01*
X0127685Y0073045D01*
X0127685Y0068461D01*
X0128622Y0067523D01*
X0131866Y0067523D01*
X0132108Y0067423D01*
X0137317Y0067423D01*
X0138199Y0067789D01*
X0138874Y0068464D01*
X0139239Y0069346D01*
X0139239Y0069982D01*
X0141932Y0069982D01*
X0141932Y0069653D01*
X0142309Y0069276D01*
X0142092Y0069058D01*
X0141855Y0068648D01*
X0141732Y0068190D01*
X0141732Y0065972D01*
X0145316Y0065972D01*
X0145316Y0065604D01*
X0141732Y0065604D01*
X0141732Y0063386D01*
X0141855Y0062928D01*
X0142092Y0062517D01*
X0142427Y0062182D01*
X0142838Y0061945D01*
X0143295Y0061823D01*
X0145317Y0061823D01*
X0145317Y0065604D01*
X0145685Y0065604D01*
X0145685Y0065972D01*
X0149269Y0065972D01*
X0149269Y0068190D01*
X0149147Y0068648D01*
X0148910Y0069058D01*
X0148692Y0069276D01*
X0149069Y0069653D01*
X0149069Y0069884D01*
X0150384Y0069884D01*
X0150384Y0059282D01*
X0149581Y0058479D01*
X0149006Y0057091D01*
X0149006Y0055588D01*
X0149581Y0054199D01*
X0150644Y0053136D01*
X0152033Y0052561D01*
X0153536Y0052561D01*
X0154924Y0053136D01*
X0155987Y0054199D01*
X0156562Y0055588D01*
X0156562Y0057091D01*
X0155987Y0058479D01*
X0155184Y0059282D01*
X0155184Y0072277D01*
X0152784Y0072284D02*
X0145501Y0072284D01*
X0145501Y0072481D01*
X0145501Y0072382D01*
X0136839Y0072382D01*
X0136839Y0069823D01*
X0132585Y0069823D01*
X0132585Y0072382D02*
X0136839Y0072382D01*
X0139169Y0069177D02*
X0142210Y0069177D01*
X0141732Y0067578D02*
X0137691Y0067578D01*
X0141732Y0065980D02*
X0100367Y0065980D01*
X0100657Y0064381D02*
X0141732Y0064381D01*
X0141939Y0062783D02*
X0103203Y0062783D01*
X0103203Y0061184D02*
X0150384Y0061184D01*
X0150384Y0059586D02*
X0113046Y0059586D01*
X0113046Y0057987D02*
X0149378Y0057987D01*
X0149006Y0056389D02*
X0113046Y0056389D01*
X0112947Y0054790D02*
X0149337Y0054790D01*
X0150589Y0053192D02*
X0113046Y0053192D01*
X0113046Y0051593D02*
X0185102Y0051593D01*
X0185102Y0049995D02*
X0113046Y0049995D01*
X0113046Y0048396D02*
X0185102Y0048396D01*
X0185102Y0046798D02*
X0112849Y0046798D01*
X0112849Y0045199D02*
X0185102Y0045199D01*
X0185102Y0043601D02*
X0112849Y0043601D01*
X0112849Y0042002D02*
X0185102Y0042002D01*
X0185102Y0040404D02*
X0113049Y0040404D01*
X0113049Y0038805D02*
X0185102Y0038805D01*
X0185102Y0037207D02*
X0113049Y0037207D01*
X0113049Y0037848D02*
X0109465Y0037848D01*
X0109465Y0034067D01*
X0111486Y0034067D01*
X0111944Y0034189D01*
X0112354Y0034426D01*
X0112689Y0034761D01*
X0112926Y0035172D01*
X0113049Y0035630D01*
X0113049Y0037848D01*
X0113043Y0035608D02*
X0185102Y0035608D01*
X0185102Y0034009D02*
X0009180Y0034009D01*
X0009178Y0032411D02*
X0185026Y0032411D01*
X0185102Y0032486D02*
X0184236Y0031621D01*
X0183393Y0029586D01*
X0183393Y0027383D01*
X0184236Y0025348D01*
X0185794Y0023791D01*
X0187829Y0022948D01*
X0190032Y0022948D01*
X0192067Y0023791D01*
X0193624Y0025348D01*
X0194467Y0027383D01*
X0194467Y0029586D01*
X0193624Y0031621D01*
X0193302Y0031944D01*
X0193302Y0060069D01*
X0200322Y0060069D01*
X0201259Y0061007D01*
X0201259Y0066632D01*
X0200322Y0067569D01*
X0182996Y0067569D01*
X0182059Y0066632D01*
X0182059Y0061007D01*
X0182996Y0060069D01*
X0185102Y0060069D01*
X0185102Y0032486D01*
X0183901Y0030812D02*
X0009177Y0030812D01*
X0009175Y0029214D02*
X0183393Y0029214D01*
X0183393Y0027615D02*
X0009173Y0027615D01*
X0009172Y0026017D02*
X0183959Y0026017D01*
X0185166Y0024418D02*
X0009170Y0024418D01*
X0009181Y0035608D02*
X0093608Y0035608D01*
X0093470Y0035746D02*
X0093805Y0035411D01*
X0094215Y0035174D01*
X0094673Y0035051D01*
X0097457Y0035051D01*
X0097457Y0040972D01*
X0099057Y0040972D01*
X0099057Y0042572D01*
X0103403Y0042572D01*
X0103403Y0046930D01*
X0103280Y0047388D01*
X0103044Y0047799D01*
X0102708Y0048134D01*
X0102298Y0048371D01*
X0101840Y0048493D01*
X0099057Y0048493D01*
X0099057Y0042572D01*
X0097457Y0042572D01*
X0097457Y0048493D01*
X0094673Y0048493D01*
X0094215Y0048371D01*
X0093805Y0048134D01*
X0093470Y0047799D01*
X0093233Y0047388D01*
X0093110Y0046930D01*
X0093110Y0042572D01*
X0097457Y0042572D01*
X0097457Y0040972D01*
X0093110Y0040972D01*
X0093110Y0036614D01*
X0093233Y0036156D01*
X0093470Y0035746D01*
X0093110Y0037207D02*
X0009183Y0037207D01*
X0009185Y0038805D02*
X0093110Y0038805D01*
X0093110Y0040404D02*
X0009186Y0040404D01*
X0009188Y0042002D02*
X0097457Y0042002D01*
X0097457Y0040404D02*
X0099057Y0040404D01*
X0099057Y0040972D02*
X0099057Y0035051D01*
X0101840Y0035051D01*
X0102298Y0035174D01*
X0102708Y0035411D01*
X0103044Y0035746D01*
X0103280Y0036156D01*
X0103403Y0036614D01*
X0103403Y0040972D01*
X0099057Y0040972D01*
X0099057Y0042002D02*
X0105712Y0042002D01*
X0105712Y0043601D02*
X0103403Y0043601D01*
X0103403Y0045199D02*
X0105712Y0045199D01*
X0105712Y0046798D02*
X0103403Y0046798D01*
X0102203Y0048396D02*
X0105515Y0048396D01*
X0105515Y0049995D02*
X0031107Y0049995D01*
X0031872Y0049229D02*
X0029178Y0051923D01*
X0027372Y0051923D01*
X0027372Y0047423D01*
X0027172Y0047423D01*
X0027172Y0047223D01*
X0022672Y0047223D01*
X0022672Y0045418D01*
X0025367Y0042723D01*
X0027172Y0042723D01*
X0027172Y0047223D01*
X0027372Y0047223D01*
X0027372Y0042723D01*
X0029178Y0042723D01*
X0031872Y0045418D01*
X0031872Y0047223D01*
X0027373Y0047223D01*
X0027373Y0047423D01*
X0031872Y0047423D01*
X0031872Y0049229D01*
X0031872Y0048396D02*
X0094310Y0048396D01*
X0093110Y0046798D02*
X0031872Y0046798D01*
X0031654Y0045199D02*
X0093110Y0045199D01*
X0093110Y0043601D02*
X0030055Y0043601D01*
X0027372Y0043601D02*
X0027172Y0043601D01*
X0027172Y0045199D02*
X0027372Y0045199D01*
X0027372Y0046798D02*
X0027172Y0046798D01*
X0027172Y0047423D02*
X0022672Y0047423D01*
X0022672Y0049229D01*
X0025367Y0051923D01*
X0027172Y0051923D01*
X0027172Y0047423D01*
X0027172Y0048396D02*
X0027372Y0048396D01*
X0027372Y0049995D02*
X0027172Y0049995D01*
X0027172Y0051593D02*
X0027372Y0051593D01*
X0027372Y0052723D02*
X0029178Y0052723D01*
X0031872Y0055418D01*
X0031872Y0057223D01*
X0027373Y0057223D01*
X0027373Y0057423D01*
X0031872Y0057423D01*
X0031872Y0059229D01*
X0029178Y0061923D01*
X0027372Y0061923D01*
X0027372Y0057423D01*
X0027172Y0057423D01*
X0027172Y0057223D01*
X0022672Y0057223D01*
X0022672Y0055418D01*
X0025367Y0052723D01*
X0027172Y0052723D01*
X0027172Y0057223D01*
X0027372Y0057223D01*
X0027372Y0052723D01*
X0027372Y0053192D02*
X0027172Y0053192D01*
X0027172Y0054790D02*
X0027372Y0054790D01*
X0027372Y0056389D02*
X0027172Y0056389D01*
X0027172Y0057423D02*
X0022672Y0057423D01*
X0022672Y0059229D01*
X0025367Y0061923D01*
X0027172Y0061923D01*
X0027172Y0057423D01*
X0027172Y0057987D02*
X0027372Y0057987D01*
X0027372Y0059586D02*
X0027172Y0059586D01*
X0027172Y0061184D02*
X0027372Y0061184D01*
X0029095Y0062923D02*
X0025450Y0062923D01*
X0022872Y0065501D01*
X0022872Y0069146D01*
X0025450Y0071723D01*
X0029095Y0071723D01*
X0031672Y0069146D01*
X0031672Y0065501D01*
X0029095Y0062923D01*
X0029917Y0061184D02*
X0037995Y0061184D01*
X0037995Y0059586D02*
X0031515Y0059586D01*
X0031872Y0057987D02*
X0038440Y0057987D01*
X0037995Y0062783D02*
X0009209Y0062783D01*
X0009210Y0064381D02*
X0013992Y0064381D01*
X0012872Y0065501D02*
X0015450Y0062923D01*
X0019095Y0062923D01*
X0021672Y0065501D01*
X0021672Y0069146D01*
X0019095Y0071723D01*
X0015450Y0071723D01*
X0012872Y0069146D01*
X0012872Y0065501D01*
X0012872Y0065980D02*
X0009212Y0065980D01*
X0009213Y0067578D02*
X0012872Y0067578D01*
X0012903Y0069177D02*
X0009215Y0069177D01*
X0009217Y0070775D02*
X0014502Y0070775D01*
X0015450Y0072923D02*
X0019095Y0072923D01*
X0021672Y0075501D01*
X0021672Y0079146D01*
X0019095Y0081723D01*
X0015450Y0081723D01*
X0012872Y0079146D01*
X0012872Y0075501D01*
X0015450Y0072923D01*
X0014401Y0073972D02*
X0009220Y0073972D01*
X0009218Y0072374D02*
X0037995Y0072374D01*
X0037995Y0073972D02*
X0030144Y0073972D01*
X0029095Y0072923D02*
X0031672Y0075501D01*
X0031672Y0079146D01*
X0029095Y0081723D01*
X0025450Y0081723D01*
X0022872Y0079146D01*
X0022872Y0075501D01*
X0025450Y0072923D01*
X0029095Y0072923D01*
X0030043Y0070775D02*
X0037995Y0070775D01*
X0037995Y0069177D02*
X0031642Y0069177D01*
X0031672Y0067578D02*
X0037995Y0067578D01*
X0037995Y0065980D02*
X0031672Y0065980D01*
X0030553Y0064381D02*
X0037995Y0064381D01*
X0045304Y0069725D02*
X0045304Y0100237D01*
X0094517Y0100237D01*
X0107017Y0087737D01*
X0110385Y0087737D01*
X0110385Y0085178D02*
X0110385Y0085178D01*
X0110385Y0085162D02*
X0110385Y0085162D01*
X0110385Y0083563D02*
X0110385Y0083563D01*
X0110385Y0080060D02*
X0098946Y0080060D01*
X0097666Y0079961D01*
X0101179Y0083563D02*
X0105287Y0083563D01*
X0105285Y0085162D02*
X0101435Y0085162D01*
X0101435Y0086838D02*
X0097850Y0086838D01*
X0097850Y0090619D01*
X0099872Y0090619D01*
X0100329Y0090497D01*
X0100740Y0090260D01*
X0101075Y0089925D01*
X0101312Y0089514D01*
X0101435Y0089056D01*
X0101435Y0086838D01*
X0101435Y0088359D02*
X0103000Y0088359D01*
X0101402Y0089957D02*
X0101042Y0089957D01*
X0099803Y0091556D02*
X0047704Y0091556D01*
X0047704Y0093154D02*
X0098205Y0093154D01*
X0096606Y0094753D02*
X0047704Y0094753D01*
X0047704Y0096351D02*
X0095008Y0096351D01*
X0098599Y0099548D02*
X0144930Y0099548D01*
X0144930Y0097950D02*
X0100197Y0097950D01*
X0101796Y0096351D02*
X0144930Y0096351D01*
X0150512Y0094753D02*
X0103394Y0094753D01*
X0104993Y0093154D02*
X0150503Y0093154D01*
X0150494Y0091556D02*
X0106591Y0091556D01*
X0104599Y0086760D02*
X0097850Y0086760D01*
X0097482Y0086760D02*
X0047704Y0086760D01*
X0047704Y0085162D02*
X0093898Y0085162D01*
X0094153Y0083563D02*
X0047704Y0083563D01*
X0047704Y0081965D02*
X0094098Y0081965D01*
X0094098Y0080366D02*
X0091589Y0080366D01*
X0091589Y0078768D02*
X0094098Y0078768D01*
X0094098Y0077169D02*
X0091589Y0077169D01*
X0091589Y0075571D02*
X0096295Y0075571D01*
X0094697Y0073972D02*
X0091589Y0073972D01*
X0091589Y0072374D02*
X0092540Y0072374D01*
X0096288Y0072170D02*
X0096288Y0069725D01*
X0096288Y0066772D01*
X0098257Y0064804D01*
X0098257Y0057520D01*
X0109280Y0057520D01*
X0105614Y0054790D02*
X0103203Y0054790D01*
X0103203Y0053192D02*
X0105515Y0053192D01*
X0105515Y0051593D02*
X0102860Y0051593D01*
X0099057Y0048396D02*
X0097457Y0048396D01*
X0097457Y0046798D02*
X0099057Y0046798D01*
X0099057Y0045199D02*
X0097457Y0045199D01*
X0097457Y0043601D02*
X0099057Y0043601D01*
X0099057Y0038805D02*
X0097457Y0038805D01*
X0097457Y0037207D02*
X0099057Y0037207D01*
X0099057Y0035608D02*
X0097457Y0035608D01*
X0102906Y0035608D02*
X0105518Y0035608D01*
X0105512Y0037207D02*
X0103403Y0037207D01*
X0103403Y0038805D02*
X0105512Y0038805D01*
X0105512Y0040404D02*
X0103403Y0040404D01*
X0109096Y0037207D02*
X0109465Y0037207D01*
X0109465Y0035608D02*
X0109096Y0035608D01*
X0109280Y0044725D02*
X0109280Y0050827D01*
X0093653Y0051593D02*
X0029508Y0051593D01*
X0029646Y0053192D02*
X0093310Y0053192D01*
X0093310Y0054790D02*
X0031245Y0054790D01*
X0031872Y0056389D02*
X0093310Y0056389D01*
X0093310Y0057987D02*
X0091144Y0057987D01*
X0091589Y0059586D02*
X0093310Y0059586D01*
X0093310Y0061184D02*
X0091589Y0061184D01*
X0091589Y0062783D02*
X0093310Y0062783D01*
X0091589Y0064381D02*
X0095285Y0064381D01*
X0094019Y0065980D02*
X0091589Y0065980D01*
X0096288Y0069725D02*
X0084280Y0069725D01*
X0076972Y0069177D02*
X0052613Y0069177D01*
X0052613Y0070775D02*
X0076972Y0070775D01*
X0076972Y0072374D02*
X0052613Y0072374D01*
X0052613Y0073972D02*
X0076972Y0073972D01*
X0076972Y0075571D02*
X0052613Y0075571D01*
X0052613Y0077169D02*
X0076972Y0077169D01*
X0076972Y0078768D02*
X0052613Y0078768D01*
X0052613Y0080366D02*
X0076972Y0080366D01*
X0076972Y0067578D02*
X0052613Y0067578D01*
X0052613Y0065980D02*
X0076972Y0065980D01*
X0076972Y0064381D02*
X0052613Y0064381D01*
X0052613Y0062783D02*
X0076972Y0062783D01*
X0076972Y0061184D02*
X0052613Y0061184D01*
X0052613Y0059586D02*
X0076972Y0059586D01*
X0077417Y0057987D02*
X0052168Y0057987D01*
X0037995Y0075571D02*
X0031672Y0075571D01*
X0031672Y0077169D02*
X0037995Y0077169D01*
X0037995Y0078768D02*
X0031672Y0078768D01*
X0030452Y0080366D02*
X0037995Y0080366D01*
X0042904Y0081965D02*
X0009228Y0081965D01*
X0009230Y0083563D02*
X0014810Y0083563D01*
X0015450Y0082923D02*
X0012872Y0085501D01*
X0012872Y0089146D01*
X0015450Y0091723D01*
X0019095Y0091723D01*
X0021672Y0089146D01*
X0021672Y0085501D01*
X0019095Y0082923D01*
X0015450Y0082923D01*
X0014093Y0080366D02*
X0009226Y0080366D01*
X0009225Y0078768D02*
X0012872Y0078768D01*
X0012872Y0077169D02*
X0009223Y0077169D01*
X0009222Y0075571D02*
X0012872Y0075571D01*
X0020144Y0073972D02*
X0024401Y0073972D01*
X0022872Y0075571D02*
X0021672Y0075571D01*
X0021672Y0077169D02*
X0022872Y0077169D01*
X0022872Y0078768D02*
X0021672Y0078768D01*
X0020452Y0080366D02*
X0024093Y0080366D01*
X0025450Y0082923D02*
X0029095Y0082923D01*
X0031672Y0085501D01*
X0031672Y0089146D01*
X0029095Y0091723D01*
X0025450Y0091723D01*
X0022872Y0089146D01*
X0022872Y0085501D01*
X0025450Y0082923D01*
X0024810Y0083563D02*
X0019735Y0083563D01*
X0021333Y0085162D02*
X0023211Y0085162D01*
X0022872Y0086760D02*
X0021672Y0086760D01*
X0021672Y0088359D02*
X0022872Y0088359D01*
X0023684Y0089957D02*
X0020861Y0089957D01*
X0019262Y0091556D02*
X0025282Y0091556D01*
X0025450Y0092923D02*
X0029095Y0092923D01*
X0031672Y0095501D01*
X0031672Y0099146D01*
X0029095Y0101723D01*
X0025450Y0101723D01*
X0022872Y0099146D01*
X0022872Y0095501D01*
X0025450Y0092923D01*
X0025219Y0093154D02*
X0019326Y0093154D01*
X0019095Y0092923D02*
X0021672Y0095501D01*
X0021672Y0099146D01*
X0019095Y0101723D01*
X0015450Y0101723D01*
X0012872Y0099146D01*
X0012872Y0095501D01*
X0015450Y0092923D01*
X0019095Y0092923D01*
X0020925Y0094753D02*
X0023620Y0094753D01*
X0022872Y0096351D02*
X0021672Y0096351D01*
X0021672Y0097950D02*
X0022872Y0097950D01*
X0023275Y0099548D02*
X0021270Y0099548D01*
X0019671Y0101147D02*
X0024874Y0101147D01*
X0025450Y0102923D02*
X0029095Y0102923D01*
X0031672Y0105501D01*
X0031672Y0109146D01*
X0029095Y0111723D01*
X0025450Y0111723D01*
X0022872Y0109146D01*
X0022872Y0105501D01*
X0025450Y0102923D01*
X0024029Y0104344D02*
X0020516Y0104344D01*
X0021672Y0105501D02*
X0019095Y0102923D01*
X0015450Y0102923D01*
X0012872Y0105501D01*
X0012872Y0109146D01*
X0015450Y0111723D01*
X0019095Y0111723D01*
X0021672Y0109146D01*
X0021672Y0105501D01*
X0021672Y0105942D02*
X0022872Y0105942D01*
X0022872Y0107541D02*
X0021672Y0107541D01*
X0021672Y0109140D02*
X0022872Y0109140D01*
X0024465Y0110738D02*
X0020080Y0110738D01*
X0019095Y0112923D02*
X0015450Y0112923D01*
X0012872Y0115501D01*
X0012872Y0119146D01*
X0015450Y0121723D01*
X0019095Y0121723D01*
X0021672Y0119146D01*
X0021672Y0115501D01*
X0019095Y0112923D01*
X0020107Y0113935D02*
X0024438Y0113935D01*
X0022872Y0115534D02*
X0021672Y0115534D01*
X0021672Y0117132D02*
X0022872Y0117132D01*
X0022872Y0118731D02*
X0021672Y0118731D01*
X0020489Y0120329D02*
X0024056Y0120329D01*
X0024991Y0121928D02*
X0009268Y0121928D01*
X0009270Y0123526D02*
X0020531Y0123526D01*
X0018932Y0125125D02*
X0009271Y0125125D01*
X0009273Y0126723D02*
X0016752Y0126723D01*
X0016145Y0128322D02*
X0009274Y0128322D01*
X0009276Y0129920D02*
X0016145Y0129920D01*
X0016145Y0131519D02*
X0009278Y0131519D01*
X0009279Y0133117D02*
X0016276Y0133117D01*
X0015945Y0134716D02*
X0009281Y0134716D01*
X0009282Y0136314D02*
X0015945Y0136314D01*
X0015945Y0137035D02*
X0019529Y0137035D01*
X0019529Y0140816D01*
X0017508Y0140816D01*
X0017050Y0140694D01*
X0016640Y0140457D01*
X0016305Y0140121D01*
X0016068Y0139711D01*
X0015945Y0139253D01*
X0015945Y0137035D01*
X0015945Y0137913D02*
X0009284Y0137913D01*
X0009286Y0139511D02*
X0016014Y0139511D01*
X0019529Y0139511D02*
X0019898Y0139511D01*
X0019898Y0137913D02*
X0019529Y0137913D01*
X0023482Y0137913D02*
X0026181Y0137913D01*
X0026181Y0137035D02*
X0026181Y0139253D01*
X0026304Y0139711D01*
X0026541Y0140121D01*
X0026876Y0140457D01*
X0027286Y0140694D01*
X0027744Y0140816D01*
X0029765Y0140816D01*
X0029765Y0137035D01*
X0026181Y0137035D01*
X0026181Y0136314D02*
X0023482Y0136314D01*
X0023482Y0134716D02*
X0026181Y0134716D01*
X0026512Y0133117D02*
X0023151Y0133117D01*
X0023282Y0131519D02*
X0026381Y0131519D01*
X0026381Y0129920D02*
X0023282Y0129920D01*
X0023282Y0128322D02*
X0026381Y0128322D01*
X0027391Y0125040D02*
X0022411Y0125040D01*
X0020107Y0127344D01*
X0020107Y0130158D01*
X0019713Y0130158D01*
X0027391Y0125040D02*
X0029950Y0125040D01*
X0029950Y0130158D01*
X0033518Y0129920D02*
X0118901Y0129920D01*
X0118901Y0130821D02*
X0118901Y0125558D01*
X0119496Y0124963D01*
X0119396Y0124905D01*
X0119060Y0124570D01*
X0118823Y0124160D01*
X0118701Y0123702D01*
X0118701Y0121681D01*
X0122482Y0121681D01*
X0122482Y0121312D01*
X0122850Y0121312D01*
X0122850Y0117728D01*
X0125068Y0117728D01*
X0125526Y0117851D01*
X0125937Y0118088D01*
X0126272Y0118423D01*
X0126509Y0118833D01*
X0126631Y0119291D01*
X0126631Y0121312D01*
X0122850Y0121312D01*
X0122850Y0121681D01*
X0126631Y0121681D01*
X0126631Y0123702D01*
X0126509Y0124160D01*
X0126272Y0124570D01*
X0125937Y0124905D01*
X0125837Y0124963D01*
X0126431Y0125558D01*
X0126431Y0130821D01*
X0125494Y0131758D01*
X0125486Y0131758D01*
X0125486Y0136296D01*
X0125869Y0136679D01*
X0126444Y0138068D01*
X0126444Y0139571D01*
X0125869Y0140959D01*
X0125466Y0141362D01*
X0125466Y0146078D01*
X0125494Y0146078D01*
X0126431Y0147015D01*
X0126431Y0152277D01*
X0125716Y0152993D01*
X0126263Y0153539D01*
X0128743Y0153539D01*
X0128743Y0153511D01*
X0129120Y0153134D01*
X0128903Y0152917D01*
X0128666Y0152506D01*
X0128543Y0152048D01*
X0128543Y0149830D01*
X0132127Y0149830D01*
X0132127Y0149462D01*
X0128543Y0149462D01*
X0128543Y0147244D01*
X0128666Y0146786D01*
X0128903Y0146376D01*
X0129238Y0146040D01*
X0129649Y0145803D01*
X0130106Y0145681D01*
X0132128Y0145681D01*
X0132128Y0149462D01*
X0132496Y0149462D01*
X0132496Y0149830D01*
X0136080Y0149830D01*
X0136080Y0152048D01*
X0135958Y0152506D01*
X0135721Y0152917D01*
X0135503Y0153134D01*
X0135880Y0153511D01*
X0135880Y0153539D01*
X0138389Y0153539D01*
X0138389Y0153511D01*
X0138766Y0153134D01*
X0138549Y0152917D01*
X0138312Y0152506D01*
X0138189Y0152048D01*
X0138189Y0149830D01*
X0141773Y0149830D01*
X0141773Y0149462D01*
X0138189Y0149462D01*
X0138189Y0147244D01*
X0138312Y0146786D01*
X0138549Y0146376D01*
X0138884Y0146040D01*
X0139294Y0145803D01*
X0139752Y0145681D01*
X0141773Y0145681D01*
X0141773Y0149462D01*
X0142142Y0149462D01*
X0142142Y0149830D01*
X0145726Y0149830D01*
X0145726Y0152048D01*
X0145603Y0152506D01*
X0145366Y0152917D01*
X0145149Y0153134D01*
X0145526Y0153511D01*
X0145526Y0153539D01*
X0162208Y0153539D01*
X0162208Y0151739D01*
X0163145Y0150802D01*
X0178250Y0150802D01*
X0179187Y0151739D01*
X0179187Y0160939D01*
X0178250Y0161876D01*
X0163145Y0161876D01*
X0162208Y0160939D01*
X0162208Y0159139D01*
X0145526Y0159139D01*
X0145526Y0159167D01*
X0144589Y0160104D01*
X0139326Y0160104D01*
X0138389Y0159167D01*
X0138389Y0159139D01*
X0135880Y0159139D01*
X0135880Y0159167D01*
X0134943Y0160104D01*
X0129681Y0160104D01*
X0128743Y0159167D01*
X0128743Y0159139D01*
X0126263Y0159139D01*
X0125494Y0159908D01*
X0119838Y0159908D01*
X0119266Y0159336D01*
X0105762Y0159336D01*
X0105762Y0160348D01*
X0104825Y0161286D01*
X0096413Y0161286D01*
X0095476Y0160348D01*
X0095476Y0159336D01*
X0083527Y0159336D01*
X0082497Y0158910D01*
X0081710Y0158122D01*
X0079577Y0155989D01*
X0071904Y0155989D01*
X0071904Y0156018D01*
X0071527Y0156394D01*
X0071744Y0156612D01*
X0071981Y0157022D01*
X0072104Y0157480D01*
X0072104Y0159698D01*
X0068520Y0159698D01*
X0068520Y0160067D01*
X0068151Y0160067D01*
X0068151Y0163848D01*
X0066130Y0163848D01*
X0065672Y0163725D01*
X0065262Y0163488D01*
X0064927Y0163153D01*
X0064690Y0162743D01*
X0064567Y0162285D01*
X0064567Y0160067D01*
X0068151Y0160067D01*
X0068151Y0159698D01*
X0064567Y0159698D01*
X0064567Y0157480D01*
X0064690Y0157022D01*
X0064927Y0156612D01*
X0065144Y0156394D01*
X0064767Y0156018D01*
X0064767Y0155989D01*
X0056550Y0155989D01*
X0056550Y0156018D01*
X0056173Y0156394D01*
X0056390Y0156612D01*
X0056627Y0157022D01*
X0056750Y0157480D01*
X0056750Y0159698D01*
X0053165Y0159698D01*
X0053165Y0160067D01*
X0052797Y0160067D01*
X0052797Y0163848D01*
X0050776Y0163848D01*
X0050318Y0163725D01*
X0049907Y0163488D01*
X0049572Y0163153D01*
X0049335Y0162743D01*
X0049213Y0162285D01*
X0049213Y0160067D01*
X0052797Y0160067D01*
X0052797Y0159698D01*
X0049213Y0159698D01*
X0049213Y0157480D01*
X0049335Y0157022D01*
X0049572Y0156612D01*
X0049790Y0156394D01*
X0049413Y0156018D01*
X0049413Y0155989D01*
X0024718Y0155989D01*
X0017395Y0163312D01*
X0017395Y0178287D01*
X0018317Y0179208D01*
X0018535Y0179208D01*
X0020135Y0177608D01*
X0023780Y0177608D01*
X0025380Y0179208D01*
X0028535Y0179208D01*
X0030135Y0177608D01*
X0033780Y0177608D01*
X0036357Y0180186D01*
X0036357Y0183831D01*
X0033780Y0186408D01*
X0030135Y0186408D01*
X0028535Y0184808D01*
X0025380Y0184808D01*
X0023780Y0186408D01*
X0020135Y0186408D01*
X0018535Y0184808D01*
X0016600Y0184808D01*
X0015571Y0184382D01*
X0014783Y0183594D01*
X0012222Y0181033D01*
X0011795Y0180004D01*
X0011795Y0161595D01*
X0012222Y0160566D01*
X0021972Y0150816D01*
X0023001Y0150389D01*
X0049413Y0150389D01*
X0049413Y0150361D01*
X0050350Y0149424D01*
X0055612Y0149424D01*
X0056550Y0150361D01*
X0056550Y0150389D01*
X0064767Y0150389D01*
X0064767Y0150361D01*
X0065704Y0149424D01*
X0070967Y0149424D01*
X0071904Y0150361D01*
X0071904Y0150389D01*
X0081294Y0150389D01*
X0082323Y0150816D01*
X0083111Y0151603D01*
X0083111Y0151603D01*
X0085243Y0153736D01*
X0095476Y0153736D01*
X0095476Y0152724D01*
X0096413Y0151786D01*
X0104825Y0151786D01*
X0105762Y0152724D01*
X0105762Y0153736D01*
X0118901Y0153736D01*
X0118901Y0153708D01*
X0119616Y0152993D01*
X0118901Y0152277D01*
X0118901Y0147015D01*
X0119838Y0146078D01*
X0119866Y0146078D01*
X0119866Y0141362D01*
X0119463Y0140959D01*
X0118888Y0139571D01*
X0118888Y0138068D01*
X0119463Y0136679D01*
X0119886Y0136257D01*
X0119886Y0131758D01*
X0119838Y0131758D01*
X0118901Y0130821D01*
X0119599Y0131519D02*
X0033518Y0131519D01*
X0033387Y0133117D02*
X0119886Y0133117D01*
X0119886Y0134716D02*
X0033718Y0134716D01*
X0033718Y0136314D02*
X0119828Y0136314D01*
X0118952Y0137913D02*
X0033718Y0137913D01*
X0033649Y0139511D02*
X0118888Y0139511D01*
X0119614Y0141110D02*
X0105455Y0141110D01*
X0105603Y0141257D02*
X0105840Y0141668D01*
X0105962Y0142126D01*
X0105962Y0144737D01*
X0101394Y0144737D01*
X0101394Y0140563D01*
X0104399Y0140563D01*
X0104857Y0140685D01*
X0105267Y0140922D01*
X0105603Y0141257D01*
X0105962Y0142708D02*
X0119866Y0142708D01*
X0119866Y0144307D02*
X0105962Y0144307D01*
X0105962Y0146287D02*
X0105962Y0148899D01*
X0105840Y0149357D01*
X0105603Y0149767D01*
X0105267Y0150102D01*
X0104857Y0150339D01*
X0104399Y0150462D01*
X0101394Y0150462D01*
X0101394Y0146287D01*
X0105962Y0146287D01*
X0105962Y0147504D02*
X0118901Y0147504D01*
X0118901Y0149102D02*
X0105908Y0149102D01*
X0105338Y0152299D02*
X0118923Y0152299D01*
X0118901Y0150701D02*
X0082046Y0150701D01*
X0083807Y0152299D02*
X0095900Y0152299D01*
X0096381Y0150339D02*
X0095970Y0150102D01*
X0095635Y0149767D01*
X0095398Y0149357D01*
X0095276Y0148899D01*
X0095276Y0146287D01*
X0099844Y0146287D01*
X0099844Y0144737D01*
X0101394Y0144737D01*
X0101394Y0146287D01*
X0099844Y0146287D01*
X0099844Y0150462D01*
X0096839Y0150462D01*
X0096381Y0150339D01*
X0095330Y0149102D02*
X0009295Y0149102D01*
X0009294Y0147504D02*
X0095276Y0147504D01*
X0095276Y0144737D02*
X0095276Y0142126D01*
X0095398Y0141668D01*
X0095635Y0141257D01*
X0095970Y0140922D01*
X0096381Y0140685D01*
X0096839Y0140563D01*
X0099844Y0140563D01*
X0099844Y0144737D01*
X0095276Y0144737D01*
X0095276Y0144307D02*
X0009290Y0144307D01*
X0009292Y0145905D02*
X0099844Y0145905D01*
X0101394Y0145905D02*
X0119866Y0145905D01*
X0125466Y0145905D02*
X0129472Y0145905D01*
X0128543Y0147504D02*
X0126431Y0147504D01*
X0126431Y0149102D02*
X0128543Y0149102D01*
X0128543Y0150701D02*
X0126431Y0150701D01*
X0126410Y0152299D02*
X0128611Y0152299D01*
X0132128Y0149102D02*
X0132496Y0149102D01*
X0132496Y0149462D02*
X0132496Y0145681D01*
X0134517Y0145681D01*
X0134975Y0145803D01*
X0135386Y0146040D01*
X0135721Y0146376D01*
X0135958Y0146786D01*
X0136080Y0147244D01*
X0136080Y0149462D01*
X0132496Y0149462D01*
X0132496Y0147504D02*
X0132128Y0147504D01*
X0132128Y0145905D02*
X0132496Y0145905D01*
X0135151Y0145905D02*
X0139118Y0145905D01*
X0138189Y0147504D02*
X0136080Y0147504D01*
X0136080Y0149102D02*
X0138189Y0149102D01*
X0138189Y0150701D02*
X0136080Y0150701D01*
X0136013Y0152299D02*
X0138256Y0152299D01*
X0141773Y0149102D02*
X0142142Y0149102D01*
X0142142Y0149462D02*
X0142142Y0145681D01*
X0144163Y0145681D01*
X0144621Y0145803D01*
X0145031Y0146040D01*
X0145366Y0146376D01*
X0145603Y0146786D01*
X0145726Y0147244D01*
X0145726Y0149462D01*
X0142142Y0149462D01*
X0142142Y0147504D02*
X0141773Y0147504D01*
X0141773Y0145905D02*
X0142142Y0145905D01*
X0144797Y0145905D02*
X0247787Y0145905D01*
X0247787Y0144307D02*
X0125466Y0144307D01*
X0125466Y0142708D02*
X0228101Y0142708D01*
X0227953Y0141110D02*
X0224341Y0141110D01*
X0225206Y0139511D02*
X0227953Y0139511D01*
X0227953Y0137913D02*
X0225263Y0137913D01*
X0224520Y0136314D02*
X0228528Y0136314D01*
X0228153Y0134716D02*
X0224285Y0134716D01*
X0226256Y0133117D02*
X0228153Y0133117D01*
X0228153Y0131519D02*
X0226843Y0131519D01*
X0226843Y0129920D02*
X0228909Y0129920D01*
X0234927Y0129920D02*
X0239260Y0129920D01*
X0239551Y0131519D02*
X0235683Y0131519D01*
X0235683Y0133117D02*
X0239551Y0133117D01*
X0239551Y0134716D02*
X0235683Y0134716D01*
X0235308Y0136314D02*
X0239317Y0136314D01*
X0238573Y0137913D02*
X0235883Y0137913D01*
X0235883Y0139511D02*
X0238630Y0139511D01*
X0239496Y0141110D02*
X0235883Y0141110D01*
X0235883Y0140185D02*
X0235883Y0142206D01*
X0235761Y0142664D01*
X0235524Y0143074D01*
X0235189Y0143409D01*
X0234778Y0143646D01*
X0234320Y0143769D01*
X0232102Y0143769D01*
X0232102Y0140185D01*
X0235883Y0140185D01*
X0235735Y0142708D02*
X0247787Y0142708D01*
X0247787Y0141110D02*
X0245207Y0141110D01*
X0246072Y0139511D02*
X0247787Y0139511D01*
X0247787Y0137913D02*
X0246129Y0137913D01*
X0245386Y0136314D02*
X0247787Y0136314D01*
X0247787Y0134716D02*
X0245151Y0134716D01*
X0245151Y0133117D02*
X0247787Y0133117D01*
X0247787Y0131519D02*
X0245151Y0131519D01*
X0245442Y0129920D02*
X0247787Y0129920D01*
X0247787Y0128322D02*
X0246117Y0128322D01*
X0246117Y0126723D02*
X0247787Y0126723D01*
X0247787Y0125125D02*
X0246117Y0125125D01*
X0245659Y0123526D02*
X0247787Y0123526D01*
X0247787Y0121928D02*
X0246117Y0121928D01*
X0246117Y0120329D02*
X0247787Y0120329D01*
X0247787Y0118731D02*
X0246117Y0118731D01*
X0245958Y0117132D02*
X0247787Y0117132D01*
X0247787Y0115534D02*
X0234718Y0115534D01*
X0234718Y0113935D02*
X0235800Y0113935D01*
X0238427Y0113935D02*
X0238795Y0113935D01*
X0238795Y0112337D02*
X0238427Y0112337D01*
X0238427Y0110738D02*
X0238795Y0110738D01*
X0238795Y0109140D02*
X0238427Y0109140D01*
X0238427Y0107541D02*
X0238795Y0107541D01*
X0242412Y0107541D02*
X0247787Y0107541D01*
X0247787Y0109140D02*
X0242576Y0109140D01*
X0242576Y0110738D02*
X0247787Y0110738D01*
X0247787Y0112337D02*
X0242576Y0112337D01*
X0241422Y0113935D02*
X0247787Y0113935D01*
X0239043Y0123526D02*
X0235423Y0123526D01*
X0235683Y0125125D02*
X0238586Y0125125D01*
X0238586Y0126723D02*
X0235683Y0126723D01*
X0235683Y0128322D02*
X0238586Y0128322D01*
X0232102Y0141110D02*
X0231734Y0141110D01*
X0231734Y0142708D02*
X0232102Y0142708D01*
X0218629Y0141110D02*
X0204852Y0141110D01*
X0205718Y0139511D02*
X0217764Y0139511D01*
X0217707Y0137913D02*
X0205775Y0137913D01*
X0205031Y0136314D02*
X0218451Y0136314D01*
X0218685Y0134716D02*
X0204797Y0134716D01*
X0206856Y0133117D02*
X0216429Y0133117D01*
X0215843Y0131519D02*
X0207443Y0131519D01*
X0207443Y0129920D02*
X0215843Y0129920D01*
X0221343Y0130768D02*
X0221343Y0131590D01*
X0221485Y0131733D01*
X0201997Y0131536D02*
X0201943Y0131482D01*
X0201943Y0130768D01*
X0199197Y0134716D02*
X0125486Y0134716D01*
X0125504Y0136314D02*
X0198962Y0136314D01*
X0198219Y0137913D02*
X0126380Y0137913D01*
X0126444Y0139511D02*
X0198276Y0139511D01*
X0199141Y0141110D02*
X0125719Y0141110D01*
X0125486Y0133117D02*
X0197029Y0133117D01*
X0196443Y0131519D02*
X0125734Y0131519D01*
X0126431Y0129920D02*
X0196443Y0129920D01*
X0197126Y0128322D02*
X0126431Y0128322D01*
X0126431Y0126723D02*
X0196443Y0126723D01*
X0179187Y0152299D02*
X0247787Y0152299D01*
X0247787Y0150701D02*
X0145726Y0150701D01*
X0145726Y0149102D02*
X0247787Y0149102D01*
X0247787Y0147504D02*
X0145726Y0147504D01*
X0145659Y0152299D02*
X0162208Y0152299D01*
X0162208Y0160292D02*
X0105762Y0160292D01*
X0103780Y0167608D02*
X0100135Y0167608D01*
X0097557Y0170186D01*
X0097557Y0173831D01*
X0100135Y0176408D01*
X0103780Y0176408D01*
X0106357Y0173831D01*
X0106357Y0170186D01*
X0103780Y0167608D01*
X0104456Y0168284D02*
X0109459Y0168284D01*
X0110135Y0167608D02*
X0113780Y0167608D01*
X0116357Y0170186D01*
X0116357Y0173831D01*
X0113780Y0176408D01*
X0110952Y0176408D01*
X0109318Y0178042D01*
X0109318Y0178142D01*
X0110052Y0177408D01*
X0111857Y0177408D01*
X0111857Y0181908D01*
X0112057Y0181908D01*
X0112057Y0177408D01*
X0113863Y0177408D01*
X0114602Y0178147D01*
X0114602Y0176487D01*
X0114967Y0175605D01*
X0115642Y0174929D01*
X0117557Y0173014D01*
X0117557Y0170186D01*
X0120135Y0167608D01*
X0123780Y0167608D01*
X0126357Y0170186D01*
X0126357Y0173831D01*
X0123780Y0176408D01*
X0120952Y0176408D01*
X0119402Y0177958D01*
X0119402Y0178342D01*
X0120135Y0177608D01*
X0123780Y0177608D01*
X0124639Y0178467D01*
X0124639Y0176450D01*
X0125004Y0175567D01*
X0127557Y0173014D01*
X0127557Y0170186D01*
X0130135Y0167608D01*
X0133780Y0167608D01*
X0136357Y0170186D01*
X0136357Y0173831D01*
X0133780Y0176408D01*
X0130952Y0176408D01*
X0129439Y0177921D01*
X0129439Y0178304D01*
X0130135Y0177608D01*
X0133780Y0177608D01*
X0136357Y0180186D01*
X0136357Y0183831D01*
X0133780Y0186408D01*
X0130135Y0186408D01*
X0129439Y0185712D01*
X0129439Y0190369D01*
X0129628Y0190369D01*
X0130565Y0191306D01*
X0130565Y0196962D01*
X0130188Y0197339D01*
X0130406Y0197557D01*
X0130643Y0197967D01*
X0130765Y0198425D01*
X0130765Y0200643D01*
X0127181Y0200643D01*
X0127181Y0201012D01*
X0126813Y0201012D01*
X0126813Y0204793D01*
X0124791Y0204793D01*
X0124334Y0204670D01*
X0123923Y0204433D01*
X0123588Y0204098D01*
X0123351Y0203687D01*
X0123228Y0203230D01*
X0123228Y0201012D01*
X0126813Y0201012D01*
X0126813Y0200643D01*
X0123228Y0200643D01*
X0123228Y0198425D01*
X0123351Y0197967D01*
X0123588Y0197557D01*
X0123805Y0197339D01*
X0123428Y0196962D01*
X0123428Y0191306D01*
X0124366Y0190369D01*
X0124639Y0190369D01*
X0124639Y0185549D01*
X0123780Y0186408D01*
X0120135Y0186408D01*
X0119402Y0185675D01*
X0119402Y0190369D01*
X0119589Y0190369D01*
X0120526Y0191306D01*
X0120526Y0196962D01*
X0120149Y0197339D01*
X0120366Y0197557D01*
X0120603Y0197967D01*
X0120726Y0198425D01*
X0120726Y0200643D01*
X0117142Y0200643D01*
X0117142Y0201012D01*
X0116773Y0201012D01*
X0116773Y0204793D01*
X0114752Y0204793D01*
X0114294Y0204670D01*
X0113884Y0204433D01*
X0113549Y0204098D01*
X0113312Y0203687D01*
X0113189Y0203230D01*
X0113189Y0201012D01*
X0116773Y0201012D01*
X0116773Y0200643D01*
X0113189Y0200643D01*
X0113189Y0198425D01*
X0113312Y0197967D01*
X0113549Y0197557D01*
X0113766Y0197339D01*
X0113389Y0196962D01*
X0113389Y0191306D01*
X0114326Y0190369D01*
X0114602Y0190369D01*
X0114602Y0185869D01*
X0113863Y0186608D01*
X0112057Y0186608D01*
X0112057Y0182108D01*
X0111857Y0182108D01*
X0111857Y0186608D01*
X0110052Y0186608D01*
X0109318Y0185874D01*
X0109318Y0190369D01*
X0109549Y0190369D01*
X0110487Y0191306D01*
X0110487Y0196962D01*
X0110110Y0197339D01*
X0110327Y0197557D01*
X0110564Y0197967D01*
X0110687Y0198425D01*
X0110687Y0200643D01*
X0107102Y0200643D01*
X0107102Y0201012D01*
X0106734Y0201012D01*
X0106734Y0204793D01*
X0104713Y0204793D01*
X0104255Y0204670D01*
X0103844Y0204433D01*
X0103509Y0204098D01*
X0103272Y0203687D01*
X0103150Y0203230D01*
X0103150Y0201012D01*
X0106734Y0201012D01*
X0106734Y0200643D01*
X0103150Y0200643D01*
X0103150Y0198425D01*
X0103272Y0197967D01*
X0103509Y0197557D01*
X0103727Y0197339D01*
X0103350Y0196962D01*
X0103350Y0191306D01*
X0104287Y0190369D01*
X0104518Y0190369D01*
X0104518Y0185670D01*
X0103780Y0186408D01*
X0100135Y0186408D01*
X0097557Y0183831D01*
X0097557Y0180186D01*
X0100135Y0177608D01*
X0103780Y0177608D01*
X0104518Y0178346D01*
X0104518Y0176570D01*
X0104883Y0175688D01*
X0105559Y0175013D01*
X0107557Y0173014D01*
X0107557Y0170186D01*
X0110135Y0167608D01*
X0107860Y0169883D02*
X0106055Y0169883D01*
X0106357Y0171481D02*
X0107557Y0171481D01*
X0107492Y0173080D02*
X0106357Y0173080D01*
X0105893Y0174678D02*
X0105510Y0174678D01*
X0104640Y0176277D02*
X0103911Y0176277D01*
X0104047Y0177876D02*
X0104518Y0177876D01*
X0106918Y0177048D02*
X0106918Y0194134D01*
X0103350Y0193861D02*
X0009340Y0193861D01*
X0009342Y0195459D02*
X0103350Y0195459D01*
X0103445Y0197058D02*
X0009343Y0197058D01*
X0009345Y0198656D02*
X0103150Y0198656D01*
X0103150Y0200255D02*
X0009346Y0200255D01*
X0009348Y0201853D02*
X0103150Y0201853D01*
X0103209Y0203452D02*
X0009350Y0203452D01*
X0009338Y0192262D02*
X0103350Y0192262D01*
X0103992Y0190664D02*
X0009337Y0190664D01*
X0009335Y0189065D02*
X0104518Y0189065D01*
X0104518Y0187467D02*
X0009334Y0187467D01*
X0009332Y0185868D02*
X0019595Y0185868D01*
X0015458Y0184270D02*
X0009330Y0184270D01*
X0009329Y0182671D02*
X0013860Y0182671D01*
X0012261Y0181073D02*
X0009327Y0181073D01*
X0009326Y0179474D02*
X0011795Y0179474D01*
X0011795Y0177876D02*
X0009324Y0177876D01*
X0009322Y0176277D02*
X0011795Y0176277D01*
X0011795Y0174678D02*
X0009321Y0174678D01*
X0009319Y0173080D02*
X0011795Y0173080D01*
X0011795Y0171481D02*
X0009318Y0171481D01*
X0009316Y0169883D02*
X0011795Y0169883D01*
X0011795Y0168284D02*
X0009314Y0168284D01*
X0009313Y0166686D02*
X0011795Y0166686D01*
X0011795Y0165087D02*
X0009311Y0165087D01*
X0009310Y0163489D02*
X0011795Y0163489D01*
X0011795Y0161890D02*
X0009308Y0161890D01*
X0009306Y0160292D02*
X0012496Y0160292D01*
X0014094Y0158693D02*
X0009305Y0158693D01*
X0009303Y0157095D02*
X0015693Y0157095D01*
X0017291Y0155496D02*
X0009302Y0155496D01*
X0009300Y0153898D02*
X0018890Y0153898D01*
X0020488Y0152299D02*
X0009298Y0152299D01*
X0009297Y0150701D02*
X0022249Y0150701D01*
X0023612Y0157095D02*
X0049316Y0157095D01*
X0049213Y0158693D02*
X0022014Y0158693D01*
X0020415Y0160292D02*
X0049213Y0160292D01*
X0049213Y0161890D02*
X0018817Y0161890D01*
X0017395Y0163489D02*
X0049909Y0163489D01*
X0052797Y0163489D02*
X0053165Y0163489D01*
X0053165Y0163848D02*
X0053165Y0160067D01*
X0056750Y0160067D01*
X0056750Y0162285D01*
X0056627Y0162743D01*
X0056390Y0163153D01*
X0056055Y0163488D01*
X0055644Y0163725D01*
X0055187Y0163848D01*
X0053165Y0163848D01*
X0053165Y0161890D02*
X0052797Y0161890D01*
X0052797Y0160292D02*
X0053165Y0160292D01*
X0056750Y0160292D02*
X0064567Y0160292D01*
X0064567Y0161890D02*
X0056750Y0161890D01*
X0056053Y0163489D02*
X0065263Y0163489D01*
X0068151Y0163489D02*
X0068520Y0163489D01*
X0068520Y0163848D02*
X0068520Y0160067D01*
X0072104Y0160067D01*
X0072104Y0162285D01*
X0071981Y0162743D01*
X0071744Y0163153D01*
X0071409Y0163488D01*
X0070999Y0163725D01*
X0070541Y0163848D01*
X0068520Y0163848D01*
X0068520Y0161890D02*
X0068151Y0161890D01*
X0068151Y0160292D02*
X0068520Y0160292D01*
X0064567Y0158693D02*
X0056750Y0158693D01*
X0056646Y0157095D02*
X0064670Y0157095D01*
X0072001Y0157095D02*
X0080683Y0157095D01*
X0081710Y0158122D02*
X0081710Y0158122D01*
X0082281Y0158693D02*
X0072104Y0158693D01*
X0072104Y0160292D02*
X0095476Y0160292D01*
X0093780Y0167608D02*
X0090135Y0167608D01*
X0087557Y0170186D01*
X0087557Y0173831D01*
X0090135Y0176408D01*
X0093780Y0176408D01*
X0096357Y0173831D01*
X0096357Y0170186D01*
X0093780Y0167608D01*
X0094456Y0168284D02*
X0099459Y0168284D01*
X0097860Y0169883D02*
X0096055Y0169883D01*
X0096357Y0171481D02*
X0097557Y0171481D01*
X0097557Y0173080D02*
X0096357Y0173080D01*
X0095510Y0174678D02*
X0098405Y0174678D01*
X0100004Y0176277D02*
X0093911Y0176277D01*
X0093780Y0177608D02*
X0096357Y0180186D01*
X0096357Y0183831D01*
X0093780Y0186408D01*
X0090135Y0186408D01*
X0087557Y0183831D01*
X0087557Y0180186D01*
X0090135Y0177608D01*
X0093780Y0177608D01*
X0094047Y0177876D02*
X0099868Y0177876D01*
X0098269Y0179474D02*
X0095646Y0179474D01*
X0096357Y0181073D02*
X0097557Y0181073D01*
X0097557Y0182671D02*
X0096357Y0182671D01*
X0095919Y0184270D02*
X0097996Y0184270D01*
X0099595Y0185868D02*
X0094320Y0185868D01*
X0089595Y0185868D02*
X0084603Y0185868D01*
X0083863Y0186608D02*
X0082057Y0186608D01*
X0082057Y0182108D01*
X0081857Y0182108D01*
X0081857Y0181908D01*
X0077357Y0181908D01*
X0077357Y0180103D01*
X0080052Y0177408D01*
X0081857Y0177408D01*
X0081857Y0181908D01*
X0082057Y0181908D01*
X0082057Y0177408D01*
X0083863Y0177408D01*
X0086557Y0180103D01*
X0086557Y0181908D01*
X0082058Y0181908D01*
X0082058Y0182108D01*
X0086557Y0182108D01*
X0086557Y0183914D01*
X0083863Y0186608D01*
X0082057Y0185868D02*
X0081857Y0185868D01*
X0081857Y0186608D02*
X0080052Y0186608D01*
X0077357Y0183914D01*
X0077357Y0182108D01*
X0081857Y0182108D01*
X0081857Y0186608D01*
X0081857Y0184270D02*
X0082057Y0184270D01*
X0082057Y0182671D02*
X0081857Y0182671D01*
X0081857Y0181073D02*
X0082057Y0181073D01*
X0082057Y0179474D02*
X0081857Y0179474D01*
X0081857Y0177876D02*
X0082057Y0177876D01*
X0083780Y0176408D02*
X0080135Y0176408D01*
X0077557Y0173831D01*
X0077557Y0170186D01*
X0080135Y0167608D01*
X0083780Y0167608D01*
X0086357Y0170186D01*
X0086357Y0173831D01*
X0083780Y0176408D01*
X0083911Y0176277D02*
X0090004Y0176277D01*
X0089868Y0177876D02*
X0084330Y0177876D01*
X0085929Y0179474D02*
X0088269Y0179474D01*
X0087557Y0181073D02*
X0086557Y0181073D01*
X0086557Y0182671D02*
X0087557Y0182671D01*
X0087996Y0184270D02*
X0086202Y0184270D01*
X0079312Y0185868D02*
X0074320Y0185868D01*
X0073780Y0186408D02*
X0070135Y0186408D01*
X0067557Y0183831D01*
X0067557Y0180186D01*
X0070135Y0177608D01*
X0073780Y0177608D01*
X0076357Y0180186D01*
X0076357Y0183831D01*
X0073780Y0186408D01*
X0075919Y0184270D02*
X0077713Y0184270D01*
X0077357Y0182671D02*
X0076357Y0182671D01*
X0076357Y0181073D02*
X0077357Y0181073D01*
X0077986Y0179474D02*
X0075646Y0179474D01*
X0074047Y0177876D02*
X0079585Y0177876D01*
X0080004Y0176277D02*
X0073911Y0176277D01*
X0073780Y0176408D02*
X0070135Y0176408D01*
X0067557Y0173831D01*
X0067557Y0170186D01*
X0070135Y0167608D01*
X0073780Y0167608D01*
X0076357Y0170186D01*
X0076357Y0173831D01*
X0073780Y0176408D01*
X0075510Y0174678D02*
X0078405Y0174678D01*
X0077557Y0173080D02*
X0076357Y0173080D01*
X0076357Y0171481D02*
X0077557Y0171481D01*
X0077860Y0169883D02*
X0076055Y0169883D01*
X0074456Y0168284D02*
X0079459Y0168284D01*
X0084456Y0168284D02*
X0089459Y0168284D01*
X0087860Y0169883D02*
X0086055Y0169883D01*
X0086357Y0171481D02*
X0087557Y0171481D01*
X0087557Y0173080D02*
X0086357Y0173080D01*
X0085510Y0174678D02*
X0088405Y0174678D01*
X0104320Y0185868D02*
X0104518Y0185868D01*
X0109318Y0187467D02*
X0114602Y0187467D01*
X0114602Y0189065D02*
X0109318Y0189065D01*
X0109844Y0190664D02*
X0114032Y0190664D01*
X0113389Y0192262D02*
X0110487Y0192262D01*
X0110487Y0193861D02*
X0113389Y0193861D01*
X0113389Y0195459D02*
X0110487Y0195459D01*
X0110391Y0197058D02*
X0113484Y0197058D01*
X0113189Y0198656D02*
X0110687Y0198656D01*
X0110687Y0200255D02*
X0113189Y0200255D01*
X0113189Y0201853D02*
X0110687Y0201853D01*
X0110687Y0201012D02*
X0110687Y0203230D01*
X0110564Y0203687D01*
X0110327Y0204098D01*
X0109992Y0204433D01*
X0109581Y0204670D01*
X0109124Y0204793D01*
X0107102Y0204793D01*
X0107102Y0201012D01*
X0110687Y0201012D01*
X0110627Y0203452D02*
X0113248Y0203452D01*
X0116773Y0203452D02*
X0117142Y0203452D01*
X0117142Y0204793D02*
X0117142Y0201012D01*
X0120726Y0201012D01*
X0120726Y0203230D01*
X0120603Y0203687D01*
X0120366Y0204098D01*
X0120031Y0204433D01*
X0119621Y0204670D01*
X0119163Y0204793D01*
X0117142Y0204793D01*
X0117142Y0201853D02*
X0116773Y0201853D01*
X0120726Y0201853D02*
X0123228Y0201853D01*
X0123228Y0200255D02*
X0120726Y0200255D01*
X0120726Y0198656D02*
X0123228Y0198656D01*
X0123524Y0197058D02*
X0120431Y0197058D01*
X0120526Y0195459D02*
X0123428Y0195459D01*
X0123428Y0193861D02*
X0120526Y0193861D01*
X0120526Y0192262D02*
X0123428Y0192262D01*
X0124071Y0190664D02*
X0119883Y0190664D01*
X0119402Y0189065D02*
X0124639Y0189065D01*
X0124639Y0187467D02*
X0119402Y0187467D01*
X0119402Y0185868D02*
X0119595Y0185868D01*
X0124320Y0185868D02*
X0124639Y0185868D01*
X0129439Y0185868D02*
X0129595Y0185868D01*
X0129439Y0187467D02*
X0247787Y0187467D01*
X0247787Y0189065D02*
X0129439Y0189065D01*
X0129923Y0190664D02*
X0247787Y0190664D01*
X0247787Y0192262D02*
X0130565Y0192262D01*
X0130565Y0193861D02*
X0247787Y0193861D01*
X0247787Y0195459D02*
X0130565Y0195459D01*
X0130470Y0197058D02*
X0247787Y0197058D01*
X0247787Y0198656D02*
X0130765Y0198656D01*
X0130765Y0200255D02*
X0247787Y0200255D01*
X0247787Y0201853D02*
X0130765Y0201853D01*
X0130765Y0201012D02*
X0130765Y0203230D01*
X0130643Y0203687D01*
X0130406Y0204098D01*
X0130071Y0204433D01*
X0129660Y0204670D01*
X0129202Y0204793D01*
X0127181Y0204793D01*
X0127181Y0201012D01*
X0130765Y0201012D01*
X0130706Y0203452D02*
X0247787Y0203452D01*
X0247787Y0205050D02*
X0212024Y0205050D01*
X0213780Y0186408D02*
X0210135Y0186408D01*
X0207557Y0183831D01*
X0207557Y0180186D01*
X0210135Y0177608D01*
X0213780Y0177608D01*
X0216357Y0180186D01*
X0216357Y0183831D01*
X0213780Y0186408D01*
X0214320Y0185868D02*
X0247787Y0185868D01*
X0247787Y0184270D02*
X0215919Y0184270D01*
X0216357Y0182671D02*
X0247787Y0182671D01*
X0247787Y0181073D02*
X0216357Y0181073D01*
X0215646Y0179474D02*
X0247787Y0179474D01*
X0247787Y0177876D02*
X0214047Y0177876D01*
X0213863Y0176608D02*
X0212057Y0176608D01*
X0212057Y0172108D01*
X0211857Y0172108D01*
X0211857Y0171908D01*
X0207357Y0171908D01*
X0207357Y0170103D01*
X0210052Y0167408D01*
X0211857Y0167408D01*
X0211857Y0171908D01*
X0212057Y0171908D01*
X0212057Y0167408D01*
X0213863Y0167408D01*
X0216557Y0170103D01*
X0216557Y0171908D01*
X0212058Y0171908D01*
X0212058Y0172108D01*
X0216557Y0172108D01*
X0216557Y0173914D01*
X0213863Y0176608D01*
X0214194Y0176277D02*
X0247787Y0176277D01*
X0247787Y0174678D02*
X0215793Y0174678D01*
X0216557Y0173080D02*
X0247787Y0173080D01*
X0247787Y0171481D02*
X0216557Y0171481D01*
X0216337Y0169883D02*
X0247787Y0169883D01*
X0247787Y0168284D02*
X0214739Y0168284D01*
X0212057Y0168284D02*
X0211857Y0168284D01*
X0211857Y0169883D02*
X0212057Y0169883D01*
X0212057Y0171481D02*
X0211857Y0171481D01*
X0211857Y0172108D02*
X0207357Y0172108D01*
X0207357Y0173914D01*
X0210052Y0176608D01*
X0211857Y0176608D01*
X0211857Y0172108D01*
X0211857Y0173080D02*
X0212057Y0173080D01*
X0212057Y0174678D02*
X0211857Y0174678D01*
X0211857Y0176277D02*
X0212057Y0176277D01*
X0209721Y0176277D02*
X0203911Y0176277D01*
X0203780Y0176408D02*
X0200135Y0176408D01*
X0197557Y0173831D01*
X0197557Y0170186D01*
X0200135Y0167608D01*
X0203780Y0167608D01*
X0206357Y0170186D01*
X0206357Y0173831D01*
X0203780Y0176408D01*
X0203780Y0177608D02*
X0206357Y0180186D01*
X0206357Y0183831D01*
X0203780Y0186408D01*
X0200135Y0186408D01*
X0197557Y0183831D01*
X0197557Y0180186D01*
X0200135Y0177608D01*
X0203780Y0177608D01*
X0204047Y0177876D02*
X0209868Y0177876D01*
X0208269Y0179474D02*
X0205646Y0179474D01*
X0206357Y0181073D02*
X0207557Y0181073D01*
X0207557Y0182671D02*
X0206357Y0182671D01*
X0205919Y0184270D02*
X0207996Y0184270D01*
X0209595Y0185868D02*
X0204320Y0185868D01*
X0199595Y0185868D02*
X0194320Y0185868D01*
X0193780Y0186408D02*
X0190135Y0186408D01*
X0187557Y0183831D01*
X0187557Y0180186D01*
X0190135Y0177608D01*
X0193780Y0177608D01*
X0196357Y0180186D01*
X0196357Y0183831D01*
X0193780Y0186408D01*
X0195919Y0184270D02*
X0197996Y0184270D01*
X0197557Y0182671D02*
X0196357Y0182671D01*
X0196357Y0181073D02*
X0197557Y0181073D01*
X0198269Y0179474D02*
X0195646Y0179474D01*
X0194047Y0177876D02*
X0199868Y0177876D01*
X0200004Y0176277D02*
X0193911Y0176277D01*
X0193780Y0176408D02*
X0190135Y0176408D01*
X0187557Y0173831D01*
X0187557Y0170186D01*
X0190135Y0167608D01*
X0193780Y0167608D01*
X0196357Y0170186D01*
X0196357Y0173831D01*
X0193780Y0176408D01*
X0195510Y0174678D02*
X0198405Y0174678D01*
X0197557Y0173080D02*
X0196357Y0173080D01*
X0196357Y0171481D02*
X0197557Y0171481D01*
X0197860Y0169883D02*
X0196055Y0169883D01*
X0194456Y0168284D02*
X0199459Y0168284D01*
X0204456Y0168284D02*
X0209176Y0168284D01*
X0207578Y0169883D02*
X0206055Y0169883D01*
X0206357Y0171481D02*
X0207357Y0171481D01*
X0207357Y0173080D02*
X0206357Y0173080D01*
X0205510Y0174678D02*
X0208122Y0174678D01*
X0190004Y0176277D02*
X0183911Y0176277D01*
X0183780Y0176408D02*
X0180135Y0176408D01*
X0177557Y0173831D01*
X0177557Y0170186D01*
X0180135Y0167608D01*
X0183780Y0167608D01*
X0186357Y0170186D01*
X0186357Y0173831D01*
X0183780Y0176408D01*
X0183863Y0177408D02*
X0186557Y0180103D01*
X0186557Y0181908D01*
X0182058Y0181908D01*
X0182058Y0182108D01*
X0186557Y0182108D01*
X0186557Y0183914D01*
X0183863Y0186608D01*
X0182057Y0186608D01*
X0182057Y0182108D01*
X0181857Y0182108D01*
X0181857Y0181908D01*
X0177357Y0181908D01*
X0177357Y0180103D01*
X0180052Y0177408D01*
X0181857Y0177408D01*
X0181857Y0181908D01*
X0182057Y0181908D01*
X0182057Y0177408D01*
X0183863Y0177408D01*
X0184330Y0177876D02*
X0189868Y0177876D01*
X0188269Y0179474D02*
X0185929Y0179474D01*
X0186557Y0181073D02*
X0187557Y0181073D01*
X0187557Y0182671D02*
X0186557Y0182671D01*
X0186202Y0184270D02*
X0187996Y0184270D01*
X0189595Y0185868D02*
X0184603Y0185868D01*
X0182057Y0185868D02*
X0181857Y0185868D01*
X0181857Y0186608D02*
X0180052Y0186608D01*
X0177357Y0183914D01*
X0177357Y0182108D01*
X0181857Y0182108D01*
X0181857Y0186608D01*
X0181857Y0184270D02*
X0182057Y0184270D01*
X0182057Y0182671D02*
X0181857Y0182671D01*
X0181857Y0181073D02*
X0182057Y0181073D01*
X0182057Y0179474D02*
X0181857Y0179474D01*
X0181857Y0177876D02*
X0182057Y0177876D01*
X0179585Y0177876D02*
X0174047Y0177876D01*
X0173780Y0177608D02*
X0176357Y0180186D01*
X0176357Y0183831D01*
X0173780Y0186408D01*
X0170135Y0186408D01*
X0167557Y0183831D01*
X0167557Y0180186D01*
X0170135Y0177608D01*
X0173780Y0177608D01*
X0173780Y0176408D02*
X0170135Y0176408D01*
X0167557Y0173831D01*
X0167557Y0170186D01*
X0170135Y0167608D01*
X0173780Y0167608D01*
X0176357Y0170186D01*
X0176357Y0173831D01*
X0173780Y0176408D01*
X0173911Y0176277D02*
X0180004Y0176277D01*
X0178405Y0174678D02*
X0175510Y0174678D01*
X0176357Y0173080D02*
X0177557Y0173080D01*
X0177557Y0171481D02*
X0176357Y0171481D01*
X0176055Y0169883D02*
X0177860Y0169883D01*
X0179459Y0168284D02*
X0174456Y0168284D01*
X0169459Y0168284D02*
X0164456Y0168284D01*
X0163780Y0167608D02*
X0166357Y0170186D01*
X0166357Y0173831D01*
X0163780Y0176408D01*
X0160135Y0176408D01*
X0157557Y0173831D01*
X0157557Y0170186D01*
X0160135Y0167608D01*
X0163780Y0167608D01*
X0166055Y0169883D02*
X0167860Y0169883D01*
X0167557Y0171481D02*
X0166357Y0171481D01*
X0166357Y0173080D02*
X0167557Y0173080D01*
X0168405Y0174678D02*
X0165510Y0174678D01*
X0163911Y0176277D02*
X0170004Y0176277D01*
X0169868Y0177876D02*
X0164330Y0177876D01*
X0163863Y0177408D02*
X0166557Y0180103D01*
X0166557Y0181908D01*
X0162058Y0181908D01*
X0162058Y0182108D01*
X0166557Y0182108D01*
X0166557Y0183914D01*
X0163863Y0186608D01*
X0162057Y0186608D01*
X0162057Y0182108D01*
X0161857Y0182108D01*
X0161857Y0181908D01*
X0157357Y0181908D01*
X0157357Y0180103D01*
X0160052Y0177408D01*
X0161857Y0177408D01*
X0161857Y0181908D01*
X0162057Y0181908D01*
X0162057Y0177408D01*
X0163863Y0177408D01*
X0162057Y0177876D02*
X0161857Y0177876D01*
X0161857Y0179474D02*
X0162057Y0179474D01*
X0162057Y0181073D02*
X0161857Y0181073D01*
X0161857Y0182108D02*
X0157357Y0182108D01*
X0157357Y0183914D01*
X0160052Y0186608D01*
X0161857Y0186608D01*
X0161857Y0182108D01*
X0161857Y0182671D02*
X0162057Y0182671D01*
X0162057Y0184270D02*
X0161857Y0184270D01*
X0161857Y0185868D02*
X0162057Y0185868D01*
X0164603Y0185868D02*
X0169595Y0185868D01*
X0167996Y0184270D02*
X0166202Y0184270D01*
X0166557Y0182671D02*
X0167557Y0182671D01*
X0167557Y0181073D02*
X0166557Y0181073D01*
X0165929Y0179474D02*
X0168269Y0179474D01*
X0175646Y0179474D02*
X0177986Y0179474D01*
X0177357Y0181073D02*
X0176357Y0181073D01*
X0176357Y0182671D02*
X0177357Y0182671D01*
X0177713Y0184270D02*
X0175919Y0184270D01*
X0174320Y0185868D02*
X0179312Y0185868D01*
X0185510Y0174678D02*
X0188405Y0174678D01*
X0187557Y0173080D02*
X0186357Y0173080D01*
X0186357Y0171481D02*
X0187557Y0171481D01*
X0187860Y0169883D02*
X0186055Y0169883D01*
X0184456Y0168284D02*
X0189459Y0168284D01*
X0179187Y0160292D02*
X0247787Y0160292D01*
X0247787Y0161890D02*
X0072104Y0161890D01*
X0071408Y0163489D02*
X0247787Y0163489D01*
X0247787Y0165087D02*
X0017395Y0165087D01*
X0017395Y0166686D02*
X0247787Y0166686D01*
X0247787Y0158693D02*
X0179187Y0158693D01*
X0179187Y0157095D02*
X0247787Y0157095D01*
X0247787Y0155496D02*
X0179187Y0155496D01*
X0179187Y0153898D02*
X0247787Y0153898D01*
X0220034Y0102745D02*
X0196117Y0102745D01*
X0196313Y0096351D02*
X0213640Y0096351D01*
X0212041Y0094753D02*
X0196317Y0094753D01*
X0196317Y0093154D02*
X0210443Y0093154D01*
X0218435Y0101147D02*
X0178670Y0101147D01*
X0171930Y0101147D02*
X0171930Y0101147D01*
X0171930Y0101174D02*
X0165293Y0101174D01*
X0164835Y0101052D01*
X0164425Y0100815D01*
X0164090Y0100480D01*
X0163853Y0100069D01*
X0163730Y0099611D01*
X0163730Y0097875D01*
X0171930Y0097875D01*
X0171930Y0101174D01*
X0171930Y0099548D02*
X0171930Y0099548D01*
X0171930Y0097950D02*
X0171930Y0097950D01*
X0171930Y0097875D02*
X0171930Y0097874D01*
X0171930Y0097874D01*
X0171930Y0094575D01*
X0165293Y0094575D01*
X0164835Y0094697D01*
X0164425Y0094934D01*
X0164090Y0095269D01*
X0163853Y0095680D01*
X0163730Y0096138D01*
X0163730Y0097874D01*
X0171930Y0097874D01*
X0171930Y0097875D01*
X0171930Y0096351D02*
X0171930Y0096351D01*
X0171930Y0094753D02*
X0171930Y0094753D01*
X0164739Y0094753D02*
X0155312Y0094753D01*
X0152930Y0097875D02*
X0152784Y0072284D01*
X0152784Y0056339D01*
X0156562Y0056389D02*
X0185102Y0056389D01*
X0185102Y0057987D02*
X0156191Y0057987D01*
X0155184Y0059586D02*
X0185102Y0059586D01*
X0182059Y0061184D02*
X0176793Y0061184D01*
X0176736Y0060975D02*
X0176859Y0061432D01*
X0176859Y0063544D01*
X0167334Y0063544D01*
X0167334Y0059869D01*
X0175296Y0059869D01*
X0175754Y0059992D01*
X0176164Y0060229D01*
X0176499Y0060564D01*
X0176736Y0060975D01*
X0176859Y0062783D02*
X0182059Y0062783D01*
X0182059Y0064381D02*
X0176859Y0064381D01*
X0176859Y0064094D02*
X0176859Y0066206D01*
X0176736Y0066664D01*
X0176499Y0067075D01*
X0176164Y0067410D01*
X0175754Y0067647D01*
X0175296Y0067769D01*
X0167334Y0067769D01*
X0167334Y0064094D01*
X0176859Y0064094D01*
X0176859Y0065980D02*
X0182059Y0065980D01*
X0175872Y0067578D02*
X0208252Y0067578D01*
X0208252Y0069177D02*
X0155184Y0069177D01*
X0155184Y0067578D02*
X0158246Y0067578D01*
X0158364Y0067647D02*
X0157954Y0067410D01*
X0157619Y0067075D01*
X0157382Y0066664D01*
X0157259Y0066206D01*
X0157259Y0064094D01*
X0166784Y0064094D01*
X0166784Y0063544D01*
X0167334Y0063544D01*
X0167334Y0064094D01*
X0166784Y0064094D01*
X0166784Y0067769D01*
X0158822Y0067769D01*
X0158364Y0067647D01*
X0157259Y0065980D02*
X0155184Y0065980D01*
X0155184Y0064381D02*
X0157259Y0064381D01*
X0157259Y0063544D02*
X0157259Y0061432D01*
X0157382Y0060975D01*
X0157619Y0060564D01*
X0157954Y0060229D01*
X0158364Y0059992D01*
X0158822Y0059869D01*
X0166784Y0059869D01*
X0166784Y0063544D01*
X0157259Y0063544D01*
X0157259Y0062783D02*
X0155184Y0062783D01*
X0155184Y0061184D02*
X0157326Y0061184D01*
X0156232Y0054790D02*
X0185102Y0054790D01*
X0185102Y0053192D02*
X0154980Y0053192D01*
X0148575Y0062182D02*
X0148910Y0062517D01*
X0149147Y0062928D01*
X0149269Y0063386D01*
X0149269Y0065604D01*
X0145685Y0065604D01*
X0145685Y0061823D01*
X0147706Y0061823D01*
X0148164Y0061945D01*
X0148575Y0062182D01*
X0149063Y0062783D02*
X0150384Y0062783D01*
X0150384Y0064381D02*
X0149269Y0064381D01*
X0149269Y0065980D02*
X0150384Y0065980D01*
X0150384Y0067578D02*
X0149269Y0067578D01*
X0148791Y0069177D02*
X0150384Y0069177D01*
X0145501Y0072481D02*
X0145304Y0072284D01*
X0142194Y0075571D02*
X0137485Y0075571D01*
X0137485Y0077169D02*
X0150412Y0077169D01*
X0150403Y0075571D02*
X0148807Y0075571D01*
X0150421Y0078768D02*
X0137485Y0078768D01*
X0137485Y0080366D02*
X0150430Y0080366D01*
X0150439Y0081965D02*
X0137485Y0081965D01*
X0137485Y0083563D02*
X0150448Y0083563D01*
X0150458Y0085162D02*
X0137485Y0085162D01*
X0137485Y0086760D02*
X0150467Y0086760D01*
X0150476Y0088359D02*
X0137485Y0088359D01*
X0136627Y0089957D02*
X0150485Y0089957D01*
X0155285Y0089957D02*
X0183661Y0089957D01*
X0183661Y0088359D02*
X0155276Y0088359D01*
X0155267Y0086760D02*
X0183661Y0086760D01*
X0184017Y0085162D02*
X0155258Y0085162D01*
X0160930Y0096351D02*
X0163730Y0096351D01*
X0163730Y0097950D02*
X0160930Y0097950D01*
X0160930Y0099548D02*
X0163730Y0099548D01*
X0165190Y0101147D02*
X0097000Y0101147D01*
X0097482Y0090619D02*
X0095461Y0090619D01*
X0095003Y0090497D01*
X0094592Y0090260D01*
X0094257Y0089925D01*
X0094020Y0089514D01*
X0093898Y0089056D01*
X0093898Y0086838D01*
X0097482Y0086838D01*
X0097482Y0090619D01*
X0097482Y0089957D02*
X0097850Y0089957D01*
X0097850Y0088359D02*
X0097482Y0088359D01*
X0094290Y0089957D02*
X0047704Y0089957D01*
X0047704Y0088359D02*
X0093898Y0088359D01*
X0099060Y0074941D02*
X0096288Y0072170D01*
X0099060Y0074941D02*
X0106721Y0074941D01*
X0106721Y0072382D01*
X0110385Y0072382D01*
X0110385Y0069823D02*
X0102981Y0069823D01*
X0102981Y0069725D01*
X0106721Y0074941D02*
X0110385Y0074941D01*
X0115285Y0072374D02*
X0127685Y0072374D01*
X0127685Y0070775D02*
X0115285Y0070775D01*
X0115285Y0069177D02*
X0127685Y0069177D01*
X0128567Y0067578D02*
X0114403Y0067578D01*
X0120685Y0073972D02*
X0120696Y0073972D01*
X0121485Y0073972D02*
X0121485Y0073972D01*
X0122274Y0073972D02*
X0122285Y0073972D01*
X0121485Y0075571D02*
X0121485Y0075571D01*
X0118385Y0078319D02*
X0118385Y0078319D01*
X0118385Y0079241D01*
X0118385Y0079241D01*
X0118385Y0078319D01*
X0118385Y0078768D02*
X0118385Y0078768D01*
X0121485Y0081519D02*
X0121485Y0081519D01*
X0121485Y0081519D01*
X0121485Y0083680D01*
X0121485Y0081519D01*
X0121485Y0081965D02*
X0121485Y0081965D01*
X0121485Y0083563D02*
X0121485Y0083563D01*
X0124585Y0079241D02*
X0124585Y0078319D01*
X0124585Y0078319D01*
X0124585Y0079241D01*
X0124585Y0079241D01*
X0124585Y0078768D02*
X0124585Y0078768D01*
X0127685Y0085162D02*
X0115485Y0085162D01*
X0115285Y0086760D02*
X0127685Y0086760D01*
X0127685Y0088359D02*
X0115285Y0088359D01*
X0114427Y0089957D02*
X0128543Y0089957D01*
X0145317Y0064381D02*
X0145685Y0064381D01*
X0145685Y0062783D02*
X0145317Y0062783D01*
X0166784Y0062783D02*
X0167334Y0062783D01*
X0167334Y0064381D02*
X0166784Y0064381D01*
X0166784Y0065980D02*
X0167334Y0065980D01*
X0167334Y0067578D02*
X0166784Y0067578D01*
X0166784Y0061184D02*
X0167334Y0061184D01*
X0189202Y0062835D02*
X0189202Y0063623D01*
X0190776Y0063623D01*
X0193302Y0059586D02*
X0207054Y0059586D01*
X0207054Y0057987D02*
X0193302Y0057987D01*
X0193302Y0056389D02*
X0207054Y0056389D01*
X0207054Y0054790D02*
X0193302Y0054790D01*
X0193302Y0053192D02*
X0207054Y0053192D01*
X0207054Y0051593D02*
X0193302Y0051593D01*
X0193302Y0049995D02*
X0207054Y0049995D01*
X0207054Y0048396D02*
X0193302Y0048396D01*
X0193302Y0046798D02*
X0207054Y0046798D01*
X0207156Y0045199D02*
X0193302Y0045199D01*
X0193302Y0043601D02*
X0208016Y0043601D01*
X0209615Y0042002D02*
X0193302Y0042002D01*
X0193302Y0040404D02*
X0211213Y0040404D01*
X0212812Y0038805D02*
X0193302Y0038805D01*
X0193302Y0037207D02*
X0214410Y0037207D01*
X0216009Y0035608D02*
X0193302Y0035608D01*
X0193302Y0034009D02*
X0207368Y0034009D01*
X0207587Y0034080D02*
X0206728Y0033801D01*
X0205923Y0033391D01*
X0205193Y0032861D01*
X0204554Y0032222D01*
X0204024Y0031492D01*
X0203614Y0030687D01*
X0203335Y0029828D01*
X0203198Y0028964D01*
X0208451Y0028964D01*
X0208451Y0034217D01*
X0207587Y0034080D01*
X0208451Y0034009D02*
X0209410Y0034009D01*
X0210492Y0034009D02*
X0217607Y0034009D01*
X0219206Y0032411D02*
X0213117Y0032411D01*
X0214183Y0030812D02*
X0220804Y0030812D01*
X0222403Y0029214D02*
X0214623Y0029214D01*
X0214601Y0027615D02*
X0223393Y0027615D01*
X0223959Y0026017D02*
X0214112Y0026017D01*
X0212977Y0024418D02*
X0225166Y0024418D01*
X0209410Y0024418D02*
X0208451Y0024418D01*
X0208451Y0026017D02*
X0209410Y0026017D01*
X0209410Y0027615D02*
X0208451Y0027615D01*
X0208451Y0028005D02*
X0208451Y0022752D01*
X0207587Y0022889D01*
X0206728Y0023168D01*
X0205923Y0023578D01*
X0205193Y0024109D01*
X0204554Y0024747D01*
X0204024Y0025478D01*
X0203614Y0026282D01*
X0203335Y0027141D01*
X0203198Y0028005D01*
X0208451Y0028005D01*
X0208451Y0029214D02*
X0209410Y0029214D01*
X0209410Y0030812D02*
X0208451Y0030812D01*
X0208451Y0032411D02*
X0209410Y0032411D01*
X0204743Y0032411D02*
X0193302Y0032411D01*
X0193959Y0030812D02*
X0203678Y0030812D01*
X0203237Y0029214D02*
X0194467Y0029214D01*
X0194467Y0027615D02*
X0203259Y0027615D01*
X0203749Y0026017D02*
X0193901Y0026017D01*
X0192694Y0024418D02*
X0204883Y0024418D01*
X0236029Y0059869D02*
X0243991Y0059869D01*
X0244448Y0059992D01*
X0244859Y0060229D01*
X0245194Y0060564D01*
X0245431Y0060975D01*
X0245554Y0061432D01*
X0245554Y0063544D01*
X0236029Y0063544D01*
X0236029Y0059869D01*
X0236029Y0061184D02*
X0235479Y0061184D01*
X0235479Y0062783D02*
X0236029Y0062783D01*
X0236029Y0064381D02*
X0235479Y0064381D01*
X0235479Y0065980D02*
X0236029Y0065980D01*
X0236029Y0067578D02*
X0235479Y0067578D01*
X0244567Y0067578D02*
X0247787Y0067578D01*
X0247787Y0065980D02*
X0245554Y0065980D01*
X0245554Y0064381D02*
X0247787Y0064381D01*
X0247787Y0062783D02*
X0245554Y0062783D01*
X0245487Y0061184D02*
X0247787Y0061184D01*
X0201554Y0061184D02*
X0201259Y0061184D01*
X0201259Y0062783D02*
X0201554Y0062783D01*
X0201554Y0064381D02*
X0201259Y0064381D01*
X0201259Y0065980D02*
X0201554Y0065980D01*
X0190789Y0085162D02*
X0189189Y0085162D01*
X0189189Y0086760D02*
X0190789Y0086760D01*
X0190789Y0088359D02*
X0189189Y0088359D01*
X0189189Y0089957D02*
X0190789Y0089957D01*
X0190789Y0094753D02*
X0189189Y0094753D01*
X0189189Y0096351D02*
X0190789Y0096351D01*
X0162981Y0115534D02*
X0047704Y0115534D01*
X0047704Y0117132D02*
X0162208Y0117132D01*
X0162208Y0118731D02*
X0126450Y0118731D01*
X0126631Y0120329D02*
X0162208Y0120329D01*
X0162208Y0121928D02*
X0126631Y0121928D01*
X0126631Y0123526D02*
X0162208Y0123526D01*
X0162208Y0125125D02*
X0125998Y0125125D01*
X0122482Y0121312D02*
X0118701Y0121312D01*
X0118701Y0119291D01*
X0118823Y0118833D01*
X0119060Y0118423D01*
X0119396Y0118088D01*
X0119806Y0117851D01*
X0120264Y0117728D01*
X0122482Y0117728D01*
X0122482Y0121312D01*
X0122482Y0120329D02*
X0122850Y0120329D01*
X0122850Y0118731D02*
X0122482Y0118731D01*
X0118883Y0118731D02*
X0047704Y0118731D01*
X0047704Y0120329D02*
X0118701Y0120329D01*
X0118701Y0121928D02*
X0086972Y0121928D01*
X0086889Y0121785D02*
X0087126Y0122195D01*
X0087249Y0122653D01*
X0087249Y0124765D01*
X0077524Y0124765D01*
X0077524Y0125315D01*
X0087249Y0125315D01*
X0087249Y0127427D01*
X0087126Y0127885D01*
X0086889Y0128295D01*
X0086554Y0128630D01*
X0086144Y0128867D01*
X0085686Y0128990D01*
X0077524Y0128990D01*
X0077524Y0125315D01*
X0076974Y0125315D01*
X0076974Y0128990D01*
X0068812Y0128990D01*
X0068354Y0128867D01*
X0067944Y0128630D01*
X0067608Y0128295D01*
X0067371Y0127885D01*
X0067249Y0127427D01*
X0067249Y0125315D01*
X0076974Y0125315D01*
X0076974Y0124765D01*
X0077524Y0124765D01*
X0077524Y0121090D01*
X0085686Y0121090D01*
X0086144Y0121213D01*
X0086554Y0121449D01*
X0086889Y0121785D01*
X0087249Y0123526D02*
X0118701Y0123526D01*
X0119334Y0125125D02*
X0077524Y0125125D01*
X0076974Y0125125D02*
X0055049Y0125125D01*
X0055049Y0126723D02*
X0067249Y0126723D01*
X0067635Y0128322D02*
X0054580Y0128322D01*
X0055049Y0123526D02*
X0067249Y0123526D01*
X0067249Y0122653D02*
X0067371Y0122195D01*
X0067608Y0121785D01*
X0067944Y0121449D01*
X0068354Y0121213D01*
X0068812Y0121090D01*
X0076974Y0121090D01*
X0076974Y0124765D01*
X0067249Y0124765D01*
X0067249Y0122653D01*
X0067526Y0121928D02*
X0054749Y0121928D01*
X0045304Y0125040D02*
X0045249Y0125040D01*
X0029950Y0125040D01*
X0027391Y0125040D02*
X0027391Y0117441D01*
X0027272Y0117323D01*
X0030107Y0113935D02*
X0042904Y0113935D01*
X0042904Y0112337D02*
X0009258Y0112337D01*
X0009260Y0113935D02*
X0014438Y0113935D01*
X0012872Y0115534D02*
X0009262Y0115534D01*
X0009263Y0117132D02*
X0012872Y0117132D01*
X0012872Y0118731D02*
X0009265Y0118731D01*
X0009266Y0120329D02*
X0014056Y0120329D01*
X0014465Y0110738D02*
X0009257Y0110738D01*
X0009255Y0109140D02*
X0012872Y0109140D01*
X0012872Y0107541D02*
X0009254Y0107541D01*
X0009252Y0105942D02*
X0012872Y0105942D01*
X0014029Y0104344D02*
X0009250Y0104344D01*
X0009249Y0102745D02*
X0042904Y0102745D01*
X0042904Y0101147D02*
X0029671Y0101147D01*
X0031270Y0099548D02*
X0042904Y0099548D01*
X0042904Y0097950D02*
X0031672Y0097950D01*
X0031672Y0096351D02*
X0042904Y0096351D01*
X0042904Y0094753D02*
X0030925Y0094753D01*
X0029326Y0093154D02*
X0042904Y0093154D01*
X0042904Y0091556D02*
X0029262Y0091556D01*
X0030861Y0089957D02*
X0042904Y0089957D01*
X0042904Y0088359D02*
X0031672Y0088359D01*
X0031672Y0086760D02*
X0042904Y0086760D01*
X0042904Y0085162D02*
X0031333Y0085162D01*
X0029735Y0083563D02*
X0042904Y0083563D01*
X0027272Y0077402D02*
X0027272Y0077323D01*
X0024502Y0070775D02*
X0020043Y0070775D01*
X0021642Y0069177D02*
X0022903Y0069177D01*
X0022872Y0067578D02*
X0021672Y0067578D01*
X0021672Y0065980D02*
X0022872Y0065980D01*
X0023992Y0064381D02*
X0020553Y0064381D01*
X0019178Y0061923D02*
X0017372Y0061923D01*
X0017372Y0057423D01*
X0017172Y0057423D01*
X0017172Y0057223D01*
X0012672Y0057223D01*
X0012672Y0055418D01*
X0015367Y0052723D01*
X0017172Y0052723D01*
X0017172Y0057223D01*
X0017372Y0057223D01*
X0017372Y0052723D01*
X0019178Y0052723D01*
X0021872Y0055418D01*
X0021872Y0057223D01*
X0017373Y0057223D01*
X0017373Y0057423D01*
X0021872Y0057423D01*
X0021872Y0059229D01*
X0019178Y0061923D01*
X0019917Y0061184D02*
X0024628Y0061184D01*
X0023029Y0059586D02*
X0021515Y0059586D01*
X0021872Y0057987D02*
X0022672Y0057987D01*
X0022672Y0056389D02*
X0021872Y0056389D01*
X0021245Y0054790D02*
X0023300Y0054790D01*
X0024899Y0053192D02*
X0019646Y0053192D01*
X0019178Y0051923D02*
X0017372Y0051923D01*
X0017372Y0047423D01*
X0017172Y0047423D01*
X0017172Y0047223D01*
X0012672Y0047223D01*
X0012672Y0045418D01*
X0015367Y0042723D01*
X0017172Y0042723D01*
X0017172Y0047223D01*
X0017372Y0047223D01*
X0017372Y0042723D01*
X0019178Y0042723D01*
X0021872Y0045418D01*
X0021872Y0047223D01*
X0017373Y0047223D01*
X0017373Y0047423D01*
X0021872Y0047423D01*
X0021872Y0049229D01*
X0019178Y0051923D01*
X0019508Y0051593D02*
X0025037Y0051593D01*
X0023438Y0049995D02*
X0021107Y0049995D01*
X0021872Y0048396D02*
X0022672Y0048396D01*
X0022672Y0046798D02*
X0021872Y0046798D01*
X0021654Y0045199D02*
X0022891Y0045199D01*
X0024490Y0043601D02*
X0020055Y0043601D01*
X0017372Y0043601D02*
X0017172Y0043601D01*
X0017172Y0045199D02*
X0017372Y0045199D01*
X0017372Y0046798D02*
X0017172Y0046798D01*
X0017172Y0047423D02*
X0012672Y0047423D01*
X0012672Y0049229D01*
X0015367Y0051923D01*
X0017172Y0051923D01*
X0017172Y0047423D01*
X0017172Y0048396D02*
X0017372Y0048396D01*
X0017372Y0049995D02*
X0017172Y0049995D01*
X0017172Y0051593D02*
X0017372Y0051593D01*
X0017372Y0053192D02*
X0017172Y0053192D01*
X0017172Y0054790D02*
X0017372Y0054790D01*
X0017372Y0056389D02*
X0017172Y0056389D01*
X0017172Y0057423D02*
X0012672Y0057423D01*
X0012672Y0059229D01*
X0015367Y0061923D01*
X0017172Y0061923D01*
X0017172Y0057423D01*
X0017172Y0057987D02*
X0017372Y0057987D01*
X0017372Y0059586D02*
X0017172Y0059586D01*
X0017172Y0061184D02*
X0017372Y0061184D01*
X0014628Y0061184D02*
X0009207Y0061184D01*
X0009205Y0059586D02*
X0013029Y0059586D01*
X0012672Y0057987D02*
X0009204Y0057987D01*
X0009202Y0056389D02*
X0012672Y0056389D01*
X0013300Y0054790D02*
X0009201Y0054790D01*
X0009199Y0053192D02*
X0014899Y0053192D01*
X0015037Y0051593D02*
X0009197Y0051593D01*
X0009196Y0049995D02*
X0013438Y0049995D01*
X0012672Y0048396D02*
X0009194Y0048396D01*
X0009193Y0046798D02*
X0012672Y0046798D01*
X0012891Y0045199D02*
X0009191Y0045199D01*
X0009189Y0043601D02*
X0014490Y0043601D01*
X0013211Y0085162D02*
X0009231Y0085162D01*
X0009233Y0086760D02*
X0012872Y0086760D01*
X0012872Y0088359D02*
X0009234Y0088359D01*
X0009236Y0089957D02*
X0013684Y0089957D01*
X0015282Y0091556D02*
X0009238Y0091556D01*
X0009239Y0093154D02*
X0015219Y0093154D01*
X0013620Y0094753D02*
X0009241Y0094753D01*
X0009242Y0096351D02*
X0012872Y0096351D01*
X0012872Y0097950D02*
X0009244Y0097950D01*
X0009246Y0099548D02*
X0013275Y0099548D01*
X0014874Y0101147D02*
X0009247Y0101147D01*
X0030516Y0104344D02*
X0042904Y0104344D01*
X0042904Y0105942D02*
X0031672Y0105942D01*
X0031672Y0107541D02*
X0042904Y0107541D01*
X0042904Y0109140D02*
X0031672Y0109140D01*
X0030080Y0110738D02*
X0042904Y0110738D01*
X0042904Y0115534D02*
X0031672Y0115534D01*
X0031672Y0117132D02*
X0042904Y0117132D01*
X0042904Y0118731D02*
X0031672Y0118731D01*
X0030489Y0120329D02*
X0042904Y0120329D01*
X0045304Y0125040D02*
X0045304Y0100237D01*
X0035748Y0121928D02*
X0029791Y0121928D01*
X0033518Y0128322D02*
X0035918Y0128322D01*
X0030134Y0137913D02*
X0029765Y0137913D01*
X0029765Y0139511D02*
X0030134Y0139511D01*
X0026250Y0139511D02*
X0023413Y0139511D01*
X0009287Y0141110D02*
X0095783Y0141110D01*
X0095276Y0142708D02*
X0009289Y0142708D01*
X0017395Y0168284D02*
X0019459Y0168284D01*
X0019465Y0168278D02*
X0021082Y0167608D01*
X0022833Y0167608D01*
X0024450Y0168278D01*
X0025688Y0169516D01*
X0026357Y0171133D01*
X0026357Y0172884D01*
X0025688Y0174501D01*
X0024450Y0175738D01*
X0022833Y0176408D01*
X0021082Y0176408D01*
X0019465Y0175738D01*
X0018227Y0174501D01*
X0017557Y0172884D01*
X0017557Y0171133D01*
X0018227Y0169516D01*
X0019465Y0168278D01*
X0018075Y0169883D02*
X0017395Y0169883D01*
X0017395Y0171481D02*
X0017557Y0171481D01*
X0017639Y0173080D02*
X0017395Y0173080D01*
X0017395Y0174678D02*
X0018405Y0174678D01*
X0017395Y0176277D02*
X0020765Y0176277D01*
X0019868Y0177876D02*
X0017395Y0177876D01*
X0023150Y0176277D02*
X0030004Y0176277D01*
X0030135Y0176408D02*
X0027557Y0173831D01*
X0027557Y0170186D01*
X0030135Y0167608D01*
X0033780Y0167608D01*
X0036357Y0170186D01*
X0036357Y0173831D01*
X0033780Y0176408D01*
X0030135Y0176408D01*
X0029868Y0177876D02*
X0024047Y0177876D01*
X0025510Y0174678D02*
X0028405Y0174678D01*
X0027557Y0173080D02*
X0026276Y0173080D01*
X0026357Y0171481D02*
X0027557Y0171481D01*
X0027860Y0169883D02*
X0025840Y0169883D01*
X0024456Y0168284D02*
X0029459Y0168284D01*
X0034456Y0168284D02*
X0039459Y0168284D01*
X0040135Y0167608D02*
X0043780Y0167608D01*
X0046357Y0170186D01*
X0046357Y0173831D01*
X0043780Y0176408D01*
X0040135Y0176408D01*
X0037557Y0173831D01*
X0037557Y0170186D01*
X0040135Y0167608D01*
X0037860Y0169883D02*
X0036055Y0169883D01*
X0036357Y0171481D02*
X0037557Y0171481D01*
X0037557Y0173080D02*
X0036357Y0173080D01*
X0035510Y0174678D02*
X0038405Y0174678D01*
X0040004Y0176277D02*
X0033911Y0176277D01*
X0034047Y0177876D02*
X0039585Y0177876D01*
X0040052Y0177408D02*
X0041857Y0177408D01*
X0041857Y0181908D01*
X0037357Y0181908D01*
X0037357Y0180103D01*
X0040052Y0177408D01*
X0041857Y0177876D02*
X0042057Y0177876D01*
X0042057Y0177408D02*
X0043863Y0177408D01*
X0046557Y0180103D01*
X0046557Y0181908D01*
X0042058Y0181908D01*
X0042058Y0182108D01*
X0046557Y0182108D01*
X0046557Y0183914D01*
X0043863Y0186608D01*
X0042057Y0186608D01*
X0042057Y0182108D01*
X0041857Y0182108D01*
X0041857Y0181908D01*
X0042057Y0181908D01*
X0042057Y0177408D01*
X0042057Y0179474D02*
X0041857Y0179474D01*
X0041857Y0181073D02*
X0042057Y0181073D01*
X0041857Y0182108D02*
X0037357Y0182108D01*
X0037357Y0183914D01*
X0040052Y0186608D01*
X0041857Y0186608D01*
X0041857Y0182108D01*
X0041857Y0182671D02*
X0042057Y0182671D01*
X0042057Y0184270D02*
X0041857Y0184270D01*
X0041857Y0185868D02*
X0042057Y0185868D01*
X0044603Y0185868D02*
X0049595Y0185868D01*
X0050135Y0186408D02*
X0047557Y0183831D01*
X0047557Y0180186D01*
X0050135Y0177608D01*
X0053780Y0177608D01*
X0056357Y0180186D01*
X0056357Y0183831D01*
X0053780Y0186408D01*
X0050135Y0186408D01*
X0047996Y0184270D02*
X0046202Y0184270D01*
X0046557Y0182671D02*
X0047557Y0182671D01*
X0047557Y0181073D02*
X0046557Y0181073D01*
X0045929Y0179474D02*
X0048269Y0179474D01*
X0049868Y0177876D02*
X0044330Y0177876D01*
X0043911Y0176277D02*
X0050004Y0176277D01*
X0050135Y0176408D02*
X0047557Y0173831D01*
X0047557Y0170186D01*
X0050135Y0167608D01*
X0053780Y0167608D01*
X0056357Y0170186D01*
X0056357Y0173831D01*
X0053780Y0176408D01*
X0050135Y0176408D01*
X0048405Y0174678D02*
X0045510Y0174678D01*
X0046357Y0173080D02*
X0047557Y0173080D01*
X0047557Y0171481D02*
X0046357Y0171481D01*
X0046055Y0169883D02*
X0047860Y0169883D01*
X0049459Y0168284D02*
X0044456Y0168284D01*
X0054456Y0168284D02*
X0059176Y0168284D01*
X0060052Y0167408D02*
X0057357Y0170103D01*
X0057357Y0171908D01*
X0061857Y0171908D01*
X0061857Y0172108D01*
X0057357Y0172108D01*
X0057357Y0173914D01*
X0060052Y0176608D01*
X0061857Y0176608D01*
X0061857Y0172108D01*
X0062057Y0172108D01*
X0062057Y0176608D01*
X0063863Y0176608D01*
X0066557Y0173914D01*
X0066557Y0172108D01*
X0062058Y0172108D01*
X0062058Y0171908D01*
X0066557Y0171908D01*
X0066557Y0170103D01*
X0063863Y0167408D01*
X0062057Y0167408D01*
X0062057Y0171908D01*
X0061857Y0171908D01*
X0061857Y0167408D01*
X0060052Y0167408D01*
X0061857Y0168284D02*
X0062057Y0168284D01*
X0062057Y0169883D02*
X0061857Y0169883D01*
X0061857Y0171481D02*
X0062057Y0171481D01*
X0062057Y0173080D02*
X0061857Y0173080D01*
X0061857Y0174678D02*
X0062057Y0174678D01*
X0062057Y0176277D02*
X0061857Y0176277D01*
X0059721Y0176277D02*
X0053911Y0176277D01*
X0054047Y0177876D02*
X0059868Y0177876D01*
X0060135Y0177608D02*
X0063780Y0177608D01*
X0066357Y0180186D01*
X0066357Y0183831D01*
X0063780Y0186408D01*
X0060135Y0186408D01*
X0057557Y0183831D01*
X0057557Y0180186D01*
X0060135Y0177608D01*
X0058269Y0179474D02*
X0055646Y0179474D01*
X0056357Y0181073D02*
X0057557Y0181073D01*
X0057557Y0182671D02*
X0056357Y0182671D01*
X0055919Y0184270D02*
X0057996Y0184270D01*
X0059595Y0185868D02*
X0054320Y0185868D01*
X0064320Y0185868D02*
X0069595Y0185868D01*
X0067996Y0184270D02*
X0065919Y0184270D01*
X0066357Y0182671D02*
X0067557Y0182671D01*
X0067557Y0181073D02*
X0066357Y0181073D01*
X0065646Y0179474D02*
X0068269Y0179474D01*
X0069868Y0177876D02*
X0064047Y0177876D01*
X0064194Y0176277D02*
X0070004Y0176277D01*
X0068405Y0174678D02*
X0065793Y0174678D01*
X0066557Y0173080D02*
X0067557Y0173080D01*
X0067557Y0171481D02*
X0066557Y0171481D01*
X0066337Y0169883D02*
X0067860Y0169883D01*
X0069459Y0168284D02*
X0064739Y0168284D01*
X0057578Y0169883D02*
X0056055Y0169883D01*
X0056357Y0171481D02*
X0057357Y0171481D01*
X0057357Y0173080D02*
X0056357Y0173080D01*
X0055510Y0174678D02*
X0058122Y0174678D01*
X0039312Y0185868D02*
X0034320Y0185868D01*
X0035919Y0184270D02*
X0037713Y0184270D01*
X0037357Y0182671D02*
X0036357Y0182671D01*
X0036357Y0181073D02*
X0037357Y0181073D01*
X0037986Y0179474D02*
X0035646Y0179474D01*
X0029595Y0185868D02*
X0024320Y0185868D01*
X0076974Y0128322D02*
X0077524Y0128322D01*
X0077524Y0126723D02*
X0076974Y0126723D01*
X0076974Y0123526D02*
X0077524Y0123526D01*
X0077524Y0121928D02*
X0076974Y0121928D01*
X0087249Y0126723D02*
X0118901Y0126723D01*
X0118901Y0128322D02*
X0086863Y0128322D01*
X0099844Y0141110D02*
X0101394Y0141110D01*
X0101394Y0142708D02*
X0099844Y0142708D01*
X0099844Y0144307D02*
X0101394Y0144307D01*
X0101394Y0147504D02*
X0099844Y0147504D01*
X0099844Y0149102D02*
X0101394Y0149102D01*
X0114456Y0168284D02*
X0119459Y0168284D01*
X0117860Y0169883D02*
X0116055Y0169883D01*
X0116357Y0171481D02*
X0117557Y0171481D01*
X0117492Y0173080D02*
X0116357Y0173080D01*
X0115893Y0174678D02*
X0115510Y0174678D01*
X0114689Y0176277D02*
X0113911Y0176277D01*
X0114330Y0177876D02*
X0114602Y0177876D01*
X0112057Y0177876D02*
X0111857Y0177876D01*
X0111857Y0179474D02*
X0112057Y0179474D01*
X0112057Y0181073D02*
X0111857Y0181073D01*
X0111857Y0182671D02*
X0112057Y0182671D01*
X0112057Y0184270D02*
X0111857Y0184270D01*
X0111857Y0185868D02*
X0112057Y0185868D01*
X0109585Y0177876D02*
X0109484Y0177876D01*
X0106918Y0177048D02*
X0111957Y0172008D01*
X0117002Y0176964D02*
X0117002Y0194090D01*
X0116957Y0194134D01*
X0120666Y0203452D02*
X0123288Y0203452D01*
X0126813Y0203452D02*
X0127181Y0203452D01*
X0127181Y0201853D02*
X0126813Y0201853D01*
X0126997Y0194134D02*
X0127039Y0194092D01*
X0127039Y0176927D01*
X0131957Y0172008D01*
X0135510Y0174678D02*
X0138122Y0174678D01*
X0137357Y0173914D02*
X0137357Y0172108D01*
X0141857Y0172108D01*
X0141857Y0171908D01*
X0137357Y0171908D01*
X0137357Y0170103D01*
X0140052Y0167408D01*
X0141857Y0167408D01*
X0141857Y0171908D01*
X0142057Y0171908D01*
X0142057Y0167408D01*
X0143863Y0167408D01*
X0146557Y0170103D01*
X0146557Y0171908D01*
X0142058Y0171908D01*
X0142058Y0172108D01*
X0146557Y0172108D01*
X0146557Y0173914D01*
X0143863Y0176608D01*
X0142057Y0176608D01*
X0142057Y0172108D01*
X0141857Y0172108D01*
X0141857Y0176608D01*
X0140052Y0176608D01*
X0137357Y0173914D01*
X0137357Y0173080D02*
X0136357Y0173080D01*
X0136357Y0171481D02*
X0137357Y0171481D01*
X0137578Y0169883D02*
X0136055Y0169883D01*
X0134456Y0168284D02*
X0139176Y0168284D01*
X0141857Y0168284D02*
X0142057Y0168284D01*
X0142057Y0169883D02*
X0141857Y0169883D01*
X0141857Y0171481D02*
X0142057Y0171481D01*
X0142057Y0173080D02*
X0141857Y0173080D01*
X0141857Y0174678D02*
X0142057Y0174678D01*
X0142057Y0176277D02*
X0141857Y0176277D01*
X0139721Y0176277D02*
X0133911Y0176277D01*
X0134047Y0177876D02*
X0139868Y0177876D01*
X0140135Y0177608D02*
X0143780Y0177608D01*
X0146357Y0180186D01*
X0146357Y0183831D01*
X0143780Y0186408D01*
X0140135Y0186408D01*
X0137557Y0183831D01*
X0137557Y0180186D01*
X0140135Y0177608D01*
X0138269Y0179474D02*
X0135646Y0179474D01*
X0136357Y0181073D02*
X0137557Y0181073D01*
X0137557Y0182671D02*
X0136357Y0182671D01*
X0135919Y0184270D02*
X0137996Y0184270D01*
X0139595Y0185868D02*
X0134320Y0185868D01*
X0129868Y0177876D02*
X0129484Y0177876D01*
X0125893Y0174678D02*
X0125510Y0174678D01*
X0124710Y0176277D02*
X0123911Y0176277D01*
X0124047Y0177876D02*
X0124639Y0177876D01*
X0119868Y0177876D02*
X0119484Y0177876D01*
X0117002Y0176964D02*
X0121957Y0172008D01*
X0126357Y0171481D02*
X0127557Y0171481D01*
X0127492Y0173080D02*
X0126357Y0173080D01*
X0126055Y0169883D02*
X0127860Y0169883D01*
X0129459Y0168284D02*
X0124456Y0168284D01*
X0144739Y0168284D02*
X0149459Y0168284D01*
X0150135Y0167608D02*
X0153780Y0167608D01*
X0156357Y0170186D01*
X0156357Y0173831D01*
X0153780Y0176408D01*
X0150135Y0176408D01*
X0147557Y0173831D01*
X0147557Y0170186D01*
X0150135Y0167608D01*
X0147860Y0169883D02*
X0146337Y0169883D01*
X0146557Y0171481D02*
X0147557Y0171481D01*
X0147557Y0173080D02*
X0146557Y0173080D01*
X0145793Y0174678D02*
X0148405Y0174678D01*
X0150004Y0176277D02*
X0144194Y0176277D01*
X0144047Y0177876D02*
X0149868Y0177876D01*
X0150135Y0177608D02*
X0153780Y0177608D01*
X0156357Y0180186D01*
X0156357Y0183831D01*
X0153780Y0186408D01*
X0150135Y0186408D01*
X0147557Y0183831D01*
X0147557Y0180186D01*
X0150135Y0177608D01*
X0148269Y0179474D02*
X0145646Y0179474D01*
X0146357Y0181073D02*
X0147557Y0181073D01*
X0147557Y0182671D02*
X0146357Y0182671D01*
X0145919Y0184270D02*
X0147996Y0184270D01*
X0149595Y0185868D02*
X0144320Y0185868D01*
X0154320Y0185868D02*
X0159312Y0185868D01*
X0157713Y0184270D02*
X0155919Y0184270D01*
X0156357Y0182671D02*
X0157357Y0182671D01*
X0157357Y0181073D02*
X0156357Y0181073D01*
X0155646Y0179474D02*
X0157986Y0179474D01*
X0159585Y0177876D02*
X0154047Y0177876D01*
X0153911Y0176277D02*
X0160004Y0176277D01*
X0158405Y0174678D02*
X0155510Y0174678D01*
X0156357Y0173080D02*
X0157557Y0173080D01*
X0157557Y0171481D02*
X0156357Y0171481D01*
X0156055Y0169883D02*
X0157860Y0169883D01*
X0159459Y0168284D02*
X0154456Y0168284D01*
X0107102Y0201853D02*
X0106734Y0201853D01*
X0106734Y0203452D02*
X0107102Y0203452D01*
D29*
X0122666Y0161654D03*
X0122666Y0138819D03*
X0122666Y0113229D03*
X0122666Y0097875D03*
X0152784Y0056339D03*
X0152784Y0044134D03*
X0152784Y0023465D03*
X0116957Y0023465D03*
X0116957Y0043937D03*
X0027391Y0023465D03*
X0027391Y0146300D03*
X0027391Y0161654D03*
X0027391Y0197481D03*
X0201997Y0138623D03*
X0221485Y0138623D03*
X0242351Y0138623D03*
X0242351Y0161654D03*
X0221485Y0161654D03*
X0221485Y0197481D03*
X0242351Y0197481D03*
X0242351Y0087441D03*
X0221485Y0087441D03*
X0242351Y0023465D03*
D30*
X0211154Y0063819D02*
X0211052Y0063921D01*
X0211052Y0089804D01*
X0231524Y0110276D01*
X0231918Y0110276D01*
X0231918Y0119725D01*
X0242154Y0119725D01*
X0242351Y0119922D01*
X0242351Y0126615D02*
X0242351Y0138623D01*
X0231918Y0133308D02*
X0231918Y0126418D01*
X0228375Y0126418D01*
X0227725Y0125768D01*
X0221343Y0125768D01*
X0221343Y0120768D02*
X0227135Y0120768D01*
X0228178Y0119725D01*
X0231918Y0119725D01*
X0221485Y0115394D02*
X0221485Y0110079D01*
X0219320Y0107914D01*
X0214989Y0107914D01*
X0208296Y0107914D02*
X0204230Y0107914D01*
X0201943Y0110201D01*
X0201943Y0115768D01*
X0189989Y0115788D01*
X0189989Y0117542D01*
X0186625Y0120906D01*
X0170698Y0120906D01*
X0189989Y0115788D02*
X0189989Y0108111D01*
X0187036Y0105945D01*
X0201997Y0131536D02*
X0201997Y0138623D01*
X0221485Y0138623D02*
X0221485Y0131733D01*
X0170698Y0156339D02*
X0141957Y0156339D01*
X0132312Y0156339D01*
X0122666Y0156339D01*
X0122469Y0156536D01*
X0100619Y0156536D01*
X0084083Y0156536D01*
X0080737Y0153189D01*
X0068335Y0153189D01*
X0052981Y0153189D01*
X0023558Y0153189D01*
X0014595Y0162152D01*
X0014595Y0179447D01*
X0017157Y0182008D01*
X0021957Y0182008D01*
X0031957Y0182008D01*
X0122076Y0156536D02*
X0122272Y0156339D01*
X0122666Y0156339D01*
X0122666Y0149646D02*
X0122666Y0138819D01*
X0122686Y0138800D01*
X0122686Y0130768D01*
X0122666Y0128189D01*
X0191170Y0064410D02*
X0191170Y0064016D01*
X0190776Y0063623D01*
X0191170Y0064410D02*
X0191659Y0063921D01*
X0191659Y0063819D01*
D31*
X0189202Y0062835D02*
X0189202Y0028756D01*
X0188930Y0028485D01*
X0211154Y0046262D02*
X0228930Y0028485D01*
X0211154Y0046262D02*
X0211154Y0063819D01*
M02*
