G75*
%MOIN*%
%OFA0B0*%
%FSLAX25Y25*%
%IPPOS*%
%LPD*%
%AMOC8*
5,1,8,0,0,1.08239X$1,22.5*
%
%ADD10OC8,0.06400*%
%ADD11C,0.06400*%
%ADD12C,0.08674*%
%ADD13R,0.07887X0.07099*%
%ADD14R,0.04737X0.05131*%
%ADD15C,0.03800*%
%ADD16C,0.05156*%
D10*
X0017272Y0047323D03*
X0017272Y0057323D03*
X0027272Y0057323D03*
X0027272Y0047323D03*
X0027272Y0067323D03*
X0017272Y0067323D03*
X0017272Y0077323D03*
X0017272Y0087323D03*
X0027272Y0087323D03*
X0027272Y0077323D03*
X0027272Y0097323D03*
X0017272Y0097323D03*
X0017272Y0107323D03*
X0017272Y0117323D03*
X0027272Y0117323D03*
X0027272Y0107323D03*
X0031957Y0172008D03*
X0031957Y0182008D03*
X0021957Y0182008D03*
X0041957Y0182008D03*
X0041957Y0172008D03*
X0051957Y0172008D03*
X0051957Y0182008D03*
X0061957Y0182008D03*
X0061957Y0172008D03*
X0071957Y0172008D03*
X0081957Y0172008D03*
X0081957Y0182008D03*
X0071957Y0182008D03*
X0091957Y0182008D03*
X0091957Y0172008D03*
X0101957Y0172008D03*
X0101957Y0182008D03*
X0111957Y0182008D03*
X0111957Y0172008D03*
X0121957Y0172008D03*
X0121957Y0182008D03*
X0131957Y0182008D03*
X0131957Y0172008D03*
X0141957Y0172008D03*
X0141957Y0182008D03*
X0151957Y0182008D03*
X0151957Y0172008D03*
X0161957Y0172008D03*
X0171957Y0172008D03*
X0171957Y0182008D03*
X0161957Y0182008D03*
X0181957Y0182008D03*
X0181957Y0172008D03*
X0191957Y0172008D03*
X0191957Y0182008D03*
X0201957Y0182008D03*
X0201957Y0172008D03*
X0211957Y0172008D03*
X0211957Y0182008D03*
D11*
X0021957Y0172008D03*
D12*
X0188930Y0028485D03*
X0208930Y0028485D03*
X0228930Y0028485D03*
D13*
X0139989Y0033898D03*
X0139989Y0044922D03*
X0128769Y0045315D03*
X0128769Y0056339D03*
D14*
X0104162Y0047284D03*
X0104162Y0040591D03*
X0093926Y0043150D03*
X0093926Y0049843D03*
D15*
X0118385Y0077180D03*
X0121485Y0077180D03*
X0124585Y0077180D03*
X0124585Y0080380D03*
X0121485Y0080380D03*
X0118385Y0080380D03*
D16*
X0027391Y0023465D03*
X0116957Y0023465D03*
X0116957Y0043937D03*
X0152784Y0044134D03*
X0152784Y0056339D03*
X0152784Y0023465D03*
X0221485Y0087441D03*
X0242351Y0087441D03*
X0242351Y0138623D03*
X0221485Y0138623D03*
X0201997Y0138623D03*
X0221485Y0161654D03*
X0242351Y0161654D03*
X0242351Y0197481D03*
X0221485Y0197481D03*
X0122666Y0161654D03*
X0122666Y0138819D03*
X0122666Y0113229D03*
X0122666Y0097875D03*
X0027391Y0146300D03*
X0027391Y0161654D03*
X0027391Y0197481D03*
X0242351Y0023465D03*
M02*
