G75*
%MOIN*%
%OFA0B0*%
%FSLAX25Y25*%
%IPPOS*%
%LPD*%
%AMOC8*
5,1,8,0,0,1.08239X$1,22.5*
%
%ADD10OC8,0.05600*%
%ADD11C,0.05600*%
%ADD12C,0.07874*%
%ADD13R,0.07087X0.06299*%
%ADD14R,0.03937X0.04331*%
%ADD15C,0.03000*%
%ADD16C,0.01600*%
%ADD17C,0.04356*%
%ADD18C,0.05000*%
%ADD19C,0.03200*%
%ADD20C,0.02400*%
D10*
X0017272Y0047323D03*
X0017272Y0057323D03*
X0027272Y0057323D03*
X0027272Y0047323D03*
X0027272Y0067323D03*
X0017272Y0067323D03*
X0017272Y0077323D03*
X0017272Y0087323D03*
X0027272Y0087323D03*
X0027272Y0077323D03*
X0027272Y0097323D03*
X0017272Y0097323D03*
X0017272Y0107323D03*
X0017272Y0117323D03*
X0027272Y0117323D03*
X0027272Y0107323D03*
X0031957Y0172008D03*
X0031957Y0182008D03*
X0021957Y0182008D03*
X0041957Y0182008D03*
X0041957Y0172008D03*
X0051957Y0172008D03*
X0051957Y0182008D03*
X0061957Y0182008D03*
X0061957Y0172008D03*
X0071957Y0172008D03*
X0081957Y0172008D03*
X0081957Y0182008D03*
X0071957Y0182008D03*
X0091957Y0182008D03*
X0091957Y0172008D03*
X0101957Y0172008D03*
X0101957Y0182008D03*
X0111957Y0182008D03*
X0111957Y0172008D03*
X0121957Y0172008D03*
X0121957Y0182008D03*
X0131957Y0182008D03*
X0131957Y0172008D03*
X0141957Y0172008D03*
X0141957Y0182008D03*
X0151957Y0182008D03*
X0151957Y0172008D03*
X0161957Y0172008D03*
X0171957Y0172008D03*
X0171957Y0182008D03*
X0161957Y0182008D03*
X0181957Y0182008D03*
X0181957Y0172008D03*
X0191957Y0172008D03*
X0191957Y0182008D03*
X0201957Y0182008D03*
X0201957Y0172008D03*
X0211957Y0172008D03*
X0211957Y0182008D03*
D11*
X0021957Y0172008D03*
D12*
X0188930Y0028485D03*
X0208930Y0028485D03*
X0228930Y0028485D03*
D13*
X0139989Y0033898D03*
X0139989Y0044922D03*
X0128769Y0045315D03*
X0128769Y0056339D03*
D14*
X0104162Y0047284D03*
X0104162Y0040591D03*
X0093926Y0043150D03*
X0093926Y0049843D03*
D15*
X0118385Y0077180D03*
X0121485Y0077180D03*
X0124585Y0077180D03*
X0124585Y0080380D03*
X0121485Y0080380D03*
X0118385Y0080380D03*
D16*
X0009164Y0018029D02*
X0009351Y0204889D01*
X0247787Y0205079D01*
X0247787Y0018029D01*
X0009164Y0018029D01*
X0009165Y0019623D02*
X0247787Y0019623D01*
X0247787Y0021221D02*
X0009167Y0021221D01*
X0009169Y0022820D02*
X0208023Y0022820D01*
X0208451Y0022820D02*
X0209410Y0022820D01*
X0209410Y0022752D02*
X0210274Y0022889D01*
X0211133Y0023168D01*
X0211937Y0023578D01*
X0212668Y0024109D01*
X0213306Y0024747D01*
X0213837Y0025478D01*
X0214247Y0026282D01*
X0214526Y0027141D01*
X0214663Y0028005D01*
X0209410Y0028005D01*
X0209410Y0028964D01*
X0214663Y0028964D01*
X0214526Y0029828D01*
X0214247Y0030687D01*
X0213837Y0031492D01*
X0213306Y0032222D01*
X0212668Y0032861D01*
X0211937Y0033391D01*
X0211133Y0033801D01*
X0210274Y0034080D01*
X0209410Y0034217D01*
X0209410Y0028964D01*
X0208451Y0028964D01*
X0208451Y0028005D01*
X0209410Y0028005D01*
X0209410Y0022752D01*
X0209838Y0022820D02*
X0247787Y0022820D01*
X0247787Y0024418D02*
X0232694Y0024418D01*
X0232067Y0023791D02*
X0233624Y0025348D01*
X0234467Y0027383D01*
X0234467Y0029586D01*
X0233624Y0031621D01*
X0232067Y0033179D01*
X0230032Y0034022D01*
X0229192Y0034022D01*
X0213241Y0049972D01*
X0211734Y0050597D01*
X0177514Y0050597D01*
X0168296Y0059815D01*
X0166789Y0060439D01*
X0133624Y0060439D01*
X0132975Y0061089D01*
X0124562Y0061089D01*
X0123913Y0060439D01*
X0077120Y0060439D01*
X0047992Y0089567D01*
X0046839Y0090720D01*
X0045332Y0091345D01*
X0031451Y0091345D01*
X0031451Y0095280D01*
X0031672Y0095501D01*
X0031672Y0099146D01*
X0029095Y0101723D01*
X0025450Y0101723D01*
X0025150Y0101423D01*
X0019395Y0101423D01*
X0019095Y0101723D01*
X0015450Y0101723D01*
X0012872Y0099146D01*
X0012872Y0095501D01*
X0013172Y0095201D01*
X0013172Y0089446D01*
X0012872Y0089146D01*
X0012872Y0085501D01*
X0015450Y0082923D01*
X0019095Y0082923D01*
X0019395Y0083223D01*
X0025150Y0083223D01*
X0025450Y0082923D01*
X0029095Y0082923D01*
X0029316Y0083145D01*
X0042818Y0083145D01*
X0073100Y0052863D01*
X0074606Y0052239D01*
X0090357Y0052239D01*
X0090357Y0047015D01*
X0090734Y0046638D01*
X0090517Y0046421D01*
X0090280Y0046010D01*
X0090157Y0045552D01*
X0090157Y0043334D01*
X0093742Y0043334D01*
X0093742Y0042966D01*
X0094110Y0042966D01*
X0094110Y0039185D01*
X0096131Y0039185D01*
X0096589Y0039307D01*
X0097000Y0039544D01*
X0097335Y0039880D01*
X0097572Y0040290D01*
X0097694Y0040748D01*
X0097694Y0042966D01*
X0094110Y0042966D01*
X0094110Y0043334D01*
X0097694Y0043334D01*
X0097694Y0045552D01*
X0097572Y0046010D01*
X0097335Y0046421D01*
X0097118Y0046638D01*
X0097494Y0047015D01*
X0097494Y0052239D01*
X0123913Y0052239D01*
X0124562Y0051589D01*
X0132975Y0051589D01*
X0133624Y0052239D01*
X0164275Y0052239D01*
X0172340Y0044174D01*
X0173493Y0043021D01*
X0175000Y0042397D01*
X0209220Y0042397D01*
X0223393Y0028223D01*
X0223393Y0027383D01*
X0224236Y0025348D01*
X0225794Y0023791D01*
X0227829Y0022948D01*
X0230032Y0022948D01*
X0232067Y0023791D01*
X0233901Y0026017D02*
X0247787Y0026017D01*
X0247787Y0027615D02*
X0234467Y0027615D01*
X0234467Y0029214D02*
X0247787Y0029214D01*
X0247787Y0030812D02*
X0233959Y0030812D01*
X0232835Y0032411D02*
X0247787Y0032411D01*
X0247787Y0034009D02*
X0230061Y0034009D01*
X0227605Y0035608D02*
X0247787Y0035608D01*
X0247787Y0037207D02*
X0226007Y0037207D01*
X0224408Y0038805D02*
X0247787Y0038805D01*
X0247787Y0040404D02*
X0222810Y0040404D01*
X0221211Y0042002D02*
X0247787Y0042002D01*
X0247787Y0043601D02*
X0219613Y0043601D01*
X0218014Y0045199D02*
X0247787Y0045199D01*
X0247787Y0046798D02*
X0216416Y0046798D01*
X0214817Y0048396D02*
X0247787Y0048396D01*
X0247787Y0049995D02*
X0213187Y0049995D01*
X0209615Y0042002D02*
X0145332Y0042002D01*
X0145332Y0041535D02*
X0145332Y0044147D01*
X0140764Y0044147D01*
X0140764Y0045697D01*
X0139214Y0045697D01*
X0139214Y0049871D01*
X0136209Y0049871D01*
X0135751Y0049749D01*
X0135340Y0049512D01*
X0135005Y0049177D01*
X0134768Y0048766D01*
X0134646Y0048308D01*
X0134646Y0045697D01*
X0139214Y0045697D01*
X0139214Y0044147D01*
X0134646Y0044147D01*
X0134646Y0041535D01*
X0134768Y0041077D01*
X0135005Y0040667D01*
X0135340Y0040332D01*
X0135751Y0040095D01*
X0136209Y0039972D01*
X0139214Y0039972D01*
X0139214Y0044147D01*
X0140764Y0044147D01*
X0140764Y0039972D01*
X0143769Y0039972D01*
X0144227Y0040095D01*
X0144638Y0040332D01*
X0144973Y0040667D01*
X0145210Y0041077D01*
X0145332Y0041535D01*
X0144709Y0040404D02*
X0211213Y0040404D01*
X0212812Y0038805D02*
X0107731Y0038805D01*
X0107731Y0037998D02*
X0107731Y0043419D01*
X0107354Y0043796D01*
X0107571Y0044013D01*
X0107808Y0044424D01*
X0107931Y0044882D01*
X0107931Y0047100D01*
X0104347Y0047100D01*
X0104347Y0047468D01*
X0107931Y0047468D01*
X0107931Y0049686D01*
X0107808Y0050144D01*
X0107571Y0050555D01*
X0107236Y0050890D01*
X0106825Y0051127D01*
X0106368Y0051249D01*
X0104346Y0051249D01*
X0104346Y0047468D01*
X0103978Y0047468D01*
X0103978Y0047100D01*
X0100394Y0047100D01*
X0100394Y0044882D01*
X0100516Y0044424D01*
X0100753Y0044013D01*
X0100971Y0043796D01*
X0100594Y0043419D01*
X0100594Y0037998D01*
X0076923Y0037998D01*
X0045236Y0069685D01*
X0044083Y0070838D01*
X0042576Y0071463D01*
X0031491Y0071463D01*
X0031491Y0075319D01*
X0031672Y0075501D01*
X0031672Y0079146D01*
X0029095Y0081723D01*
X0025450Y0081723D01*
X0025150Y0081423D01*
X0019395Y0081423D01*
X0019095Y0081723D01*
X0015450Y0081723D01*
X0012872Y0079146D01*
X0012872Y0075501D01*
X0013172Y0075201D01*
X0013172Y0069446D01*
X0012872Y0069146D01*
X0012872Y0065501D01*
X0015450Y0062923D01*
X0019095Y0062923D01*
X0019395Y0063223D01*
X0025150Y0063223D01*
X0025450Y0062923D01*
X0029095Y0062923D01*
X0029434Y0063263D01*
X0040062Y0063263D01*
X0072903Y0030422D01*
X0074410Y0029798D01*
X0135133Y0029798D01*
X0135783Y0029149D01*
X0144195Y0029149D01*
X0144845Y0029798D01*
X0181819Y0029798D01*
X0183393Y0028223D01*
X0183393Y0027383D01*
X0184236Y0025348D01*
X0185794Y0023791D01*
X0187829Y0022948D01*
X0190032Y0022948D01*
X0192067Y0023791D01*
X0193624Y0025348D01*
X0194467Y0027383D01*
X0194467Y0029586D01*
X0193624Y0031621D01*
X0192067Y0033179D01*
X0190032Y0034022D01*
X0189192Y0034022D01*
X0185839Y0037374D01*
X0184332Y0037998D01*
X0144845Y0037998D01*
X0144195Y0038648D01*
X0135783Y0038648D01*
X0135133Y0037998D01*
X0107731Y0037998D01*
X0107731Y0040404D02*
X0124848Y0040404D01*
X0124988Y0040366D02*
X0127994Y0040366D01*
X0127994Y0044541D01*
X0129543Y0044541D01*
X0129543Y0040366D01*
X0132549Y0040366D01*
X0133007Y0040489D01*
X0133417Y0040725D01*
X0133752Y0041061D01*
X0133989Y0041471D01*
X0134112Y0041929D01*
X0134112Y0044541D01*
X0129543Y0044541D01*
X0129543Y0046090D01*
X0127994Y0046090D01*
X0127994Y0044541D01*
X0123425Y0044541D01*
X0123425Y0041929D01*
X0123548Y0041471D01*
X0123785Y0041061D01*
X0124120Y0040725D01*
X0124530Y0040489D01*
X0124988Y0040366D01*
X0123425Y0042002D02*
X0107731Y0042002D01*
X0107549Y0043601D02*
X0123425Y0043601D01*
X0123425Y0046090D02*
X0127994Y0046090D01*
X0127994Y0050265D01*
X0124988Y0050265D01*
X0124530Y0050142D01*
X0124120Y0049905D01*
X0123785Y0049570D01*
X0123548Y0049160D01*
X0123425Y0048702D01*
X0123425Y0046090D01*
X0123425Y0046798D02*
X0107931Y0046798D01*
X0107931Y0048396D02*
X0123425Y0048396D01*
X0124274Y0049995D02*
X0107848Y0049995D01*
X0104346Y0049995D02*
X0103978Y0049995D01*
X0103978Y0051249D02*
X0101957Y0051249D01*
X0101499Y0051127D01*
X0101088Y0050890D01*
X0100753Y0050555D01*
X0100516Y0050144D01*
X0100394Y0049686D01*
X0100394Y0047468D01*
X0103978Y0047468D01*
X0103978Y0051249D01*
X0103978Y0048396D02*
X0104346Y0048396D01*
X0100394Y0048396D02*
X0097494Y0048396D01*
X0097494Y0049995D02*
X0100476Y0049995D01*
X0100394Y0046798D02*
X0097277Y0046798D01*
X0097694Y0045199D02*
X0100394Y0045199D01*
X0100775Y0043601D02*
X0097694Y0043601D01*
X0097694Y0042002D02*
X0100594Y0042002D01*
X0100594Y0040404D02*
X0097602Y0040404D01*
X0094110Y0040404D02*
X0093742Y0040404D01*
X0093742Y0039185D02*
X0093742Y0042966D01*
X0090157Y0042966D01*
X0090157Y0040748D01*
X0090280Y0040290D01*
X0090517Y0039880D01*
X0090852Y0039544D01*
X0091263Y0039307D01*
X0091720Y0039185D01*
X0093742Y0039185D01*
X0093742Y0042002D02*
X0094110Y0042002D01*
X0090157Y0042002D02*
X0072920Y0042002D01*
X0074518Y0040404D02*
X0090250Y0040404D01*
X0090157Y0043601D02*
X0071321Y0043601D01*
X0069723Y0045199D02*
X0090157Y0045199D01*
X0090575Y0046798D02*
X0068124Y0046798D01*
X0066525Y0048396D02*
X0090357Y0048396D01*
X0090357Y0049995D02*
X0064927Y0049995D01*
X0063328Y0051593D02*
X0090357Y0051593D01*
X0097494Y0051593D02*
X0124559Y0051593D01*
X0127994Y0049995D02*
X0129543Y0049995D01*
X0129543Y0050265D02*
X0129543Y0046090D01*
X0134112Y0046090D01*
X0134112Y0048702D01*
X0133989Y0049160D01*
X0133752Y0049570D01*
X0133417Y0049905D01*
X0133007Y0050142D01*
X0132549Y0050265D01*
X0129543Y0050265D01*
X0129543Y0048396D02*
X0127994Y0048396D01*
X0127994Y0046798D02*
X0129543Y0046798D01*
X0129543Y0045199D02*
X0139214Y0045199D01*
X0140764Y0045199D02*
X0171315Y0045199D01*
X0172913Y0043601D02*
X0145332Y0043601D01*
X0145332Y0045697D02*
X0145332Y0048308D01*
X0145210Y0048766D01*
X0144973Y0049177D01*
X0144638Y0049512D01*
X0144227Y0049749D01*
X0143769Y0049871D01*
X0140764Y0049871D01*
X0140764Y0045697D01*
X0145332Y0045697D01*
X0145332Y0046798D02*
X0169716Y0046798D01*
X0168118Y0048396D02*
X0145309Y0048396D01*
X0140764Y0048396D02*
X0139214Y0048396D01*
X0139214Y0046798D02*
X0140764Y0046798D01*
X0140764Y0043601D02*
X0139214Y0043601D01*
X0139214Y0042002D02*
X0140764Y0042002D01*
X0140764Y0040404D02*
X0139214Y0040404D01*
X0135269Y0040404D02*
X0132689Y0040404D01*
X0134112Y0042002D02*
X0134646Y0042002D01*
X0134646Y0043601D02*
X0134112Y0043601D01*
X0134112Y0046798D02*
X0134646Y0046798D01*
X0134669Y0048396D02*
X0134112Y0048396D01*
X0133263Y0049995D02*
X0166519Y0049995D01*
X0164921Y0051593D02*
X0132978Y0051593D01*
X0127994Y0045199D02*
X0107931Y0045199D01*
X0100594Y0038805D02*
X0076117Y0038805D01*
X0070914Y0032411D02*
X0009178Y0032411D01*
X0009180Y0034009D02*
X0069316Y0034009D01*
X0067717Y0035608D02*
X0009181Y0035608D01*
X0009183Y0037207D02*
X0066119Y0037207D01*
X0064520Y0038805D02*
X0009185Y0038805D01*
X0009186Y0040404D02*
X0062922Y0040404D01*
X0061323Y0042002D02*
X0009188Y0042002D01*
X0009189Y0043601D02*
X0014490Y0043601D01*
X0015367Y0042723D02*
X0012672Y0045418D01*
X0012672Y0047223D01*
X0017172Y0047223D01*
X0017172Y0047423D01*
X0012672Y0047423D01*
X0012672Y0049229D01*
X0015367Y0051923D01*
X0017172Y0051923D01*
X0017172Y0047423D01*
X0017372Y0047423D01*
X0017372Y0051923D01*
X0019178Y0051923D01*
X0021872Y0049229D01*
X0021872Y0047423D01*
X0017373Y0047423D01*
X0017373Y0047223D01*
X0021872Y0047223D01*
X0021872Y0045418D01*
X0019178Y0042723D01*
X0017372Y0042723D01*
X0017372Y0047223D01*
X0017172Y0047223D01*
X0017172Y0042723D01*
X0015367Y0042723D01*
X0017172Y0043601D02*
X0017372Y0043601D01*
X0017372Y0045199D02*
X0017172Y0045199D01*
X0017172Y0046798D02*
X0017372Y0046798D01*
X0017372Y0048396D02*
X0017172Y0048396D01*
X0017172Y0049995D02*
X0017372Y0049995D01*
X0017372Y0051593D02*
X0017172Y0051593D01*
X0017172Y0052723D02*
X0017172Y0057223D01*
X0012672Y0057223D01*
X0012672Y0055418D01*
X0015367Y0052723D01*
X0017172Y0052723D01*
X0017372Y0052723D02*
X0019178Y0052723D01*
X0021872Y0055418D01*
X0021872Y0057223D01*
X0017373Y0057223D01*
X0017373Y0057423D01*
X0021872Y0057423D01*
X0021872Y0059229D01*
X0019178Y0061923D01*
X0017372Y0061923D01*
X0017372Y0057423D01*
X0017172Y0057423D01*
X0017172Y0057223D01*
X0017372Y0057223D01*
X0017372Y0052723D01*
X0017372Y0053192D02*
X0017172Y0053192D01*
X0017172Y0054790D02*
X0017372Y0054790D01*
X0017372Y0056389D02*
X0017172Y0056389D01*
X0017172Y0057423D02*
X0012672Y0057423D01*
X0012672Y0059229D01*
X0015367Y0061923D01*
X0017172Y0061923D01*
X0017172Y0057423D01*
X0017172Y0057987D02*
X0017372Y0057987D01*
X0017372Y0059586D02*
X0017172Y0059586D01*
X0017172Y0061184D02*
X0017372Y0061184D01*
X0019917Y0061184D02*
X0024628Y0061184D01*
X0025367Y0061923D02*
X0022672Y0059229D01*
X0022672Y0057423D01*
X0027172Y0057423D01*
X0027172Y0057223D01*
X0022672Y0057223D01*
X0022672Y0055418D01*
X0025367Y0052723D01*
X0027172Y0052723D01*
X0027172Y0057223D01*
X0027372Y0057223D01*
X0027372Y0052723D01*
X0029178Y0052723D01*
X0031872Y0055418D01*
X0031872Y0057223D01*
X0027373Y0057223D01*
X0027373Y0057423D01*
X0031872Y0057423D01*
X0031872Y0059229D01*
X0029178Y0061923D01*
X0027372Y0061923D01*
X0027372Y0057423D01*
X0027172Y0057423D01*
X0027172Y0061923D01*
X0025367Y0061923D01*
X0027172Y0061184D02*
X0027372Y0061184D01*
X0027372Y0059586D02*
X0027172Y0059586D01*
X0027172Y0057987D02*
X0027372Y0057987D01*
X0027372Y0056389D02*
X0027172Y0056389D01*
X0027172Y0054790D02*
X0027372Y0054790D01*
X0027372Y0053192D02*
X0027172Y0053192D01*
X0027172Y0051923D02*
X0025367Y0051923D01*
X0022672Y0049229D01*
X0022672Y0047423D01*
X0027172Y0047423D01*
X0027172Y0047223D01*
X0022672Y0047223D01*
X0022672Y0045418D01*
X0025367Y0042723D01*
X0027172Y0042723D01*
X0027172Y0047223D01*
X0027372Y0047223D01*
X0027372Y0042723D01*
X0029178Y0042723D01*
X0031872Y0045418D01*
X0031872Y0047223D01*
X0027373Y0047223D01*
X0027373Y0047423D01*
X0031872Y0047423D01*
X0031872Y0049229D01*
X0029178Y0051923D01*
X0027372Y0051923D01*
X0027372Y0047423D01*
X0027172Y0047423D01*
X0027172Y0051923D01*
X0027172Y0051593D02*
X0027372Y0051593D01*
X0027372Y0049995D02*
X0027172Y0049995D01*
X0027172Y0048396D02*
X0027372Y0048396D01*
X0027372Y0046798D02*
X0027172Y0046798D01*
X0027172Y0045199D02*
X0027372Y0045199D01*
X0027372Y0043601D02*
X0027172Y0043601D01*
X0024490Y0043601D02*
X0020055Y0043601D01*
X0021654Y0045199D02*
X0022891Y0045199D01*
X0022672Y0046798D02*
X0021872Y0046798D01*
X0021872Y0048396D02*
X0022672Y0048396D01*
X0023438Y0049995D02*
X0021107Y0049995D01*
X0019508Y0051593D02*
X0025037Y0051593D01*
X0024899Y0053192D02*
X0019646Y0053192D01*
X0021245Y0054790D02*
X0023300Y0054790D01*
X0022672Y0056389D02*
X0021872Y0056389D01*
X0021872Y0057987D02*
X0022672Y0057987D01*
X0023029Y0059586D02*
X0021515Y0059586D01*
X0014628Y0061184D02*
X0009207Y0061184D01*
X0009205Y0059586D02*
X0013029Y0059586D01*
X0012672Y0057987D02*
X0009204Y0057987D01*
X0009202Y0056389D02*
X0012672Y0056389D01*
X0013300Y0054790D02*
X0009201Y0054790D01*
X0009199Y0053192D02*
X0014899Y0053192D01*
X0015037Y0051593D02*
X0009197Y0051593D01*
X0009196Y0049995D02*
X0013438Y0049995D01*
X0012672Y0048396D02*
X0009194Y0048396D01*
X0009193Y0046798D02*
X0012672Y0046798D01*
X0012891Y0045199D02*
X0009191Y0045199D01*
X0009177Y0030812D02*
X0072513Y0030812D01*
X0059724Y0043601D02*
X0030055Y0043601D01*
X0031654Y0045199D02*
X0058126Y0045199D01*
X0056527Y0046798D02*
X0031872Y0046798D01*
X0031872Y0048396D02*
X0054929Y0048396D01*
X0053330Y0049995D02*
X0031107Y0049995D01*
X0029508Y0051593D02*
X0051732Y0051593D01*
X0050133Y0053192D02*
X0029646Y0053192D01*
X0031245Y0054790D02*
X0048535Y0054790D01*
X0046936Y0056389D02*
X0031872Y0056389D01*
X0031872Y0057987D02*
X0045338Y0057987D01*
X0043739Y0059586D02*
X0031515Y0059586D01*
X0029917Y0061184D02*
X0042141Y0061184D01*
X0040542Y0062783D02*
X0009209Y0062783D01*
X0009210Y0064381D02*
X0013992Y0064381D01*
X0012872Y0065980D02*
X0009212Y0065980D01*
X0009213Y0067578D02*
X0012872Y0067578D01*
X0012903Y0069177D02*
X0009215Y0069177D01*
X0009217Y0070775D02*
X0013172Y0070775D01*
X0013172Y0072374D02*
X0009218Y0072374D01*
X0009220Y0073972D02*
X0013172Y0073972D01*
X0012872Y0075571D02*
X0009222Y0075571D01*
X0009223Y0077169D02*
X0012872Y0077169D01*
X0012872Y0078768D02*
X0009225Y0078768D01*
X0009226Y0080366D02*
X0014093Y0080366D01*
X0014810Y0083563D02*
X0009230Y0083563D01*
X0009228Y0081965D02*
X0043998Y0081965D01*
X0045597Y0080366D02*
X0030452Y0080366D01*
X0031672Y0078768D02*
X0047195Y0078768D01*
X0048794Y0077169D02*
X0031672Y0077169D01*
X0031672Y0075571D02*
X0050392Y0075571D01*
X0051991Y0073972D02*
X0031491Y0073972D01*
X0031491Y0072374D02*
X0053589Y0072374D01*
X0055188Y0070775D02*
X0044146Y0070775D01*
X0045745Y0069177D02*
X0056786Y0069177D01*
X0058385Y0067578D02*
X0047343Y0067578D01*
X0048942Y0065980D02*
X0059983Y0065980D01*
X0061582Y0064381D02*
X0050540Y0064381D01*
X0052139Y0062783D02*
X0063180Y0062783D01*
X0064779Y0061184D02*
X0053737Y0061184D01*
X0055336Y0059586D02*
X0066377Y0059586D01*
X0067976Y0057987D02*
X0056934Y0057987D01*
X0058533Y0056389D02*
X0069574Y0056389D01*
X0071173Y0054790D02*
X0060131Y0054790D01*
X0061730Y0053192D02*
X0072771Y0053192D01*
X0076375Y0061184D02*
X0247787Y0061184D01*
X0247787Y0059586D02*
X0168525Y0059586D01*
X0170123Y0057987D02*
X0247787Y0057987D01*
X0247787Y0056389D02*
X0171722Y0056389D01*
X0173320Y0054790D02*
X0247787Y0054790D01*
X0247787Y0053192D02*
X0174919Y0053192D01*
X0176517Y0051593D02*
X0247787Y0051593D01*
X0247787Y0062783D02*
X0074777Y0062783D01*
X0073178Y0064381D02*
X0247787Y0064381D01*
X0247787Y0065980D02*
X0071580Y0065980D01*
X0069981Y0067578D02*
X0247787Y0067578D01*
X0247787Y0069177D02*
X0068383Y0069177D01*
X0066784Y0070775D02*
X0247787Y0070775D01*
X0247787Y0072374D02*
X0065186Y0072374D01*
X0063587Y0073972D02*
X0117596Y0073972D01*
X0117422Y0074007D02*
X0118060Y0073880D01*
X0118385Y0073880D01*
X0118385Y0076041D01*
X0118385Y0076041D01*
X0118385Y0073880D01*
X0118710Y0073880D01*
X0119348Y0074007D01*
X0119935Y0074250D01*
X0120522Y0074007D01*
X0121160Y0073880D01*
X0121485Y0073880D01*
X0121485Y0076041D01*
X0121485Y0076041D01*
X0121485Y0076041D01*
X0121485Y0073880D01*
X0121810Y0073880D01*
X0122448Y0074007D01*
X0123035Y0074250D01*
X0123622Y0074007D01*
X0124260Y0073880D01*
X0124585Y0073880D01*
X0124585Y0076041D01*
X0124585Y0073880D01*
X0124910Y0073880D01*
X0125548Y0074007D01*
X0126148Y0074256D01*
X0126689Y0074617D01*
X0127148Y0075076D01*
X0127509Y0075617D01*
X0127758Y0076217D01*
X0127885Y0076855D01*
X0127885Y0077180D01*
X0125412Y0077180D01*
X0125413Y0077180D01*
X0127885Y0077180D01*
X0127885Y0077505D01*
X0127758Y0078143D01*
X0127509Y0078743D01*
X0127485Y0078780D01*
X0127509Y0078817D01*
X0127758Y0079417D01*
X0127885Y0080055D01*
X0127885Y0080380D01*
X0125413Y0080380D01*
X0125412Y0080380D01*
X0127885Y0080380D01*
X0127885Y0080705D01*
X0127758Y0081343D01*
X0127509Y0081943D01*
X0127148Y0082484D01*
X0126689Y0082943D01*
X0126148Y0083304D01*
X0125548Y0083553D01*
X0124910Y0083680D01*
X0124585Y0083680D01*
X0124260Y0083680D01*
X0123622Y0083553D01*
X0123035Y0083310D01*
X0122448Y0083553D01*
X0121810Y0083680D01*
X0121485Y0083680D01*
X0121160Y0083680D01*
X0120522Y0083553D01*
X0119935Y0083310D01*
X0119348Y0083553D01*
X0118710Y0083680D01*
X0118385Y0083680D01*
X0118060Y0083680D01*
X0117422Y0083553D01*
X0116822Y0083304D01*
X0116281Y0082943D01*
X0115822Y0082484D01*
X0115461Y0081943D01*
X0115212Y0081343D01*
X0115085Y0080705D01*
X0115085Y0080380D01*
X0115085Y0080055D01*
X0115212Y0079417D01*
X0115461Y0078817D01*
X0115485Y0078780D01*
X0115461Y0078743D01*
X0115212Y0078143D01*
X0115085Y0077505D01*
X0115085Y0077180D01*
X0115085Y0076855D01*
X0115212Y0076217D01*
X0115461Y0075617D01*
X0115822Y0075076D01*
X0116281Y0074617D01*
X0116822Y0074256D01*
X0117422Y0074007D01*
X0118385Y0073972D02*
X0118385Y0073972D01*
X0119174Y0073972D02*
X0120696Y0073972D01*
X0121485Y0073972D02*
X0121485Y0073972D01*
X0122274Y0073972D02*
X0123796Y0073972D01*
X0124585Y0073972D02*
X0124585Y0073972D01*
X0125374Y0073972D02*
X0247787Y0073972D01*
X0247787Y0075571D02*
X0127479Y0075571D01*
X0127885Y0077169D02*
X0247787Y0077169D01*
X0247787Y0078768D02*
X0127493Y0078768D01*
X0127885Y0080366D02*
X0247787Y0080366D01*
X0247787Y0081965D02*
X0127495Y0081965D01*
X0125497Y0083563D02*
X0247787Y0083563D01*
X0247787Y0085162D02*
X0052398Y0085162D01*
X0053996Y0083563D02*
X0117473Y0083563D01*
X0118385Y0083563D02*
X0118385Y0083563D01*
X0118385Y0083680D02*
X0118385Y0081519D01*
X0118385Y0081519D01*
X0118385Y0083680D01*
X0119297Y0083563D02*
X0120573Y0083563D01*
X0121485Y0083563D02*
X0121485Y0083563D01*
X0121485Y0083680D02*
X0121485Y0081519D01*
X0121485Y0081519D01*
X0121485Y0081519D01*
X0121485Y0083680D01*
X0122397Y0083563D02*
X0123673Y0083563D01*
X0124585Y0083563D02*
X0124585Y0083563D01*
X0124585Y0083680D02*
X0124585Y0081519D01*
X0124585Y0081519D01*
X0124585Y0083680D01*
X0124585Y0081965D02*
X0124585Y0081965D01*
X0123758Y0080380D02*
X0122312Y0080380D01*
X0122313Y0080380D01*
X0123757Y0080380D01*
X0123758Y0080380D01*
X0124585Y0079241D02*
X0124585Y0078319D01*
X0124585Y0078319D01*
X0124585Y0079241D01*
X0124585Y0079241D01*
X0124585Y0078768D02*
X0124585Y0078768D01*
X0123758Y0077180D02*
X0122312Y0077180D01*
X0122313Y0077180D01*
X0123757Y0077180D01*
X0123758Y0077180D01*
X0124585Y0076041D02*
X0124585Y0076041D01*
X0124585Y0075571D02*
X0124585Y0075571D01*
X0121485Y0075571D02*
X0121485Y0075571D01*
X0120657Y0077180D02*
X0120658Y0077180D01*
X0119212Y0077180D01*
X0119213Y0077180D01*
X0120657Y0077180D01*
X0121485Y0078319D02*
X0121485Y0078319D01*
X0121485Y0078319D01*
X0121485Y0079241D01*
X0121485Y0079241D01*
X0121485Y0079241D01*
X0121485Y0078319D01*
X0121485Y0078768D02*
X0121485Y0078768D01*
X0120658Y0080380D02*
X0119212Y0080380D01*
X0119213Y0080380D01*
X0120657Y0080380D01*
X0120658Y0080380D01*
X0121485Y0081965D02*
X0121485Y0081965D01*
X0118385Y0081965D02*
X0118385Y0081965D01*
X0117558Y0080380D02*
X0117557Y0080380D01*
X0115085Y0080380D01*
X0117558Y0080380D01*
X0118385Y0079241D02*
X0118385Y0079241D01*
X0118385Y0078319D01*
X0118385Y0078319D01*
X0118385Y0079241D01*
X0118385Y0078768D02*
X0118385Y0078768D01*
X0117558Y0077180D02*
X0115085Y0077180D01*
X0117557Y0077180D01*
X0117558Y0077180D01*
X0118385Y0075571D02*
X0118385Y0075571D01*
X0115491Y0075571D02*
X0061989Y0075571D01*
X0060390Y0077169D02*
X0115085Y0077169D01*
X0115477Y0078768D02*
X0058792Y0078768D01*
X0057193Y0080366D02*
X0115085Y0080366D01*
X0115475Y0081965D02*
X0055595Y0081965D01*
X0050799Y0086760D02*
X0247787Y0086760D01*
X0247787Y0088359D02*
X0049201Y0088359D01*
X0047602Y0089957D02*
X0247787Y0089957D01*
X0247787Y0091556D02*
X0031451Y0091556D01*
X0031451Y0093154D02*
X0247787Y0093154D01*
X0247787Y0094753D02*
X0031451Y0094753D01*
X0031672Y0096351D02*
X0247787Y0096351D01*
X0247787Y0097950D02*
X0031672Y0097950D01*
X0031270Y0099548D02*
X0247787Y0099548D01*
X0247787Y0101147D02*
X0029671Y0101147D01*
X0029095Y0102923D02*
X0031672Y0105501D01*
X0031672Y0109146D01*
X0031372Y0109446D01*
X0031372Y0115201D01*
X0031672Y0115501D01*
X0031672Y0119146D01*
X0029095Y0121723D01*
X0025450Y0121723D01*
X0025150Y0121423D01*
X0019395Y0121423D01*
X0019095Y0121723D01*
X0015450Y0121723D01*
X0012872Y0119146D01*
X0012872Y0115501D01*
X0013054Y0115319D01*
X0013054Y0109328D01*
X0012872Y0109146D01*
X0012872Y0105501D01*
X0015450Y0102923D01*
X0019095Y0102923D01*
X0019395Y0103223D01*
X0025150Y0103223D01*
X0025450Y0102923D01*
X0029095Y0102923D01*
X0030516Y0104344D02*
X0247787Y0104344D01*
X0247787Y0105942D02*
X0031672Y0105942D01*
X0031672Y0107541D02*
X0247787Y0107541D01*
X0247787Y0109140D02*
X0031672Y0109140D01*
X0031372Y0110738D02*
X0247787Y0110738D01*
X0247787Y0112337D02*
X0031372Y0112337D01*
X0031372Y0113935D02*
X0247787Y0113935D01*
X0247787Y0115534D02*
X0031672Y0115534D01*
X0031672Y0117132D02*
X0247787Y0117132D01*
X0247787Y0118731D02*
X0031672Y0118731D01*
X0030489Y0120329D02*
X0247787Y0120329D01*
X0247787Y0121928D02*
X0009268Y0121928D01*
X0009270Y0123526D02*
X0247787Y0123526D01*
X0247787Y0125125D02*
X0009271Y0125125D01*
X0009273Y0126723D02*
X0247787Y0126723D01*
X0247787Y0128322D02*
X0009274Y0128322D01*
X0009276Y0129920D02*
X0247787Y0129920D01*
X0247787Y0131519D02*
X0009278Y0131519D01*
X0009279Y0133117D02*
X0247787Y0133117D01*
X0247787Y0134716D02*
X0009281Y0134716D01*
X0009282Y0136314D02*
X0119828Y0136314D01*
X0119463Y0136679D02*
X0120526Y0135617D01*
X0121915Y0135041D01*
X0123418Y0135041D01*
X0124806Y0135617D01*
X0125012Y0135823D01*
X0199454Y0135823D01*
X0199857Y0135420D01*
X0201245Y0134845D01*
X0202748Y0134845D01*
X0204137Y0135420D01*
X0205200Y0136482D01*
X0205775Y0137871D01*
X0205775Y0139374D01*
X0205200Y0140763D01*
X0204137Y0141825D01*
X0202748Y0142400D01*
X0201245Y0142400D01*
X0199857Y0141825D01*
X0199454Y0141423D01*
X0125406Y0141423D01*
X0124806Y0142022D01*
X0123418Y0142597D01*
X0121915Y0142597D01*
X0120526Y0142022D01*
X0119463Y0140959D01*
X0118888Y0139571D01*
X0118888Y0138068D01*
X0119463Y0136679D01*
X0118952Y0137913D02*
X0009284Y0137913D01*
X0009286Y0139511D02*
X0118888Y0139511D01*
X0119614Y0141110D02*
X0009287Y0141110D01*
X0009289Y0142708D02*
X0218685Y0142708D01*
X0218685Y0144101D02*
X0218685Y0141165D01*
X0218282Y0140763D01*
X0217707Y0139374D01*
X0217707Y0137871D01*
X0218282Y0136482D01*
X0219345Y0135420D01*
X0220734Y0134845D01*
X0222237Y0134845D01*
X0223625Y0135420D01*
X0224688Y0136482D01*
X0225263Y0137871D01*
X0225263Y0139374D01*
X0224688Y0140763D01*
X0224285Y0141165D01*
X0224285Y0142384D01*
X0225401Y0143500D01*
X0238632Y0143500D01*
X0239551Y0142581D01*
X0239551Y0141165D01*
X0239148Y0140763D01*
X0238573Y0139374D01*
X0238573Y0137871D01*
X0239148Y0136482D01*
X0240211Y0135420D01*
X0241600Y0134845D01*
X0243103Y0134845D01*
X0244491Y0135420D01*
X0245554Y0136482D01*
X0246129Y0137871D01*
X0246129Y0139374D01*
X0245554Y0140763D01*
X0245151Y0141165D01*
X0245151Y0144298D01*
X0244725Y0145327D01*
X0242166Y0147886D01*
X0241378Y0148673D01*
X0240349Y0149100D01*
X0223684Y0149100D01*
X0222655Y0148673D01*
X0219899Y0145918D01*
X0219111Y0145130D01*
X0218685Y0144101D01*
X0218770Y0144307D02*
X0009290Y0144307D01*
X0009292Y0145905D02*
X0219887Y0145905D01*
X0221485Y0147504D02*
X0009294Y0147504D01*
X0009295Y0149102D02*
X0247787Y0149102D01*
X0247787Y0147504D02*
X0242548Y0147504D01*
X0244146Y0145905D02*
X0247787Y0145905D01*
X0247787Y0144307D02*
X0245147Y0144307D01*
X0245151Y0142708D02*
X0247787Y0142708D01*
X0247787Y0141110D02*
X0245207Y0141110D01*
X0246072Y0139511D02*
X0247787Y0139511D01*
X0247787Y0137913D02*
X0246129Y0137913D01*
X0245386Y0136314D02*
X0247787Y0136314D01*
X0239317Y0136314D02*
X0224520Y0136314D01*
X0225263Y0137913D02*
X0238573Y0137913D01*
X0238630Y0139511D02*
X0225206Y0139511D01*
X0224341Y0141110D02*
X0239496Y0141110D01*
X0239424Y0142708D02*
X0224609Y0142708D01*
X0218629Y0141110D02*
X0204852Y0141110D01*
X0205718Y0139511D02*
X0217764Y0139511D01*
X0217707Y0137913D02*
X0205775Y0137913D01*
X0205031Y0136314D02*
X0218451Y0136314D01*
X0247787Y0150701D02*
X0009297Y0150701D01*
X0009298Y0152299D02*
X0247787Y0152299D01*
X0247787Y0153898D02*
X0009300Y0153898D01*
X0009302Y0155496D02*
X0247787Y0155496D01*
X0247787Y0157095D02*
X0009303Y0157095D01*
X0009305Y0158693D02*
X0247787Y0158693D01*
X0247787Y0160292D02*
X0009306Y0160292D01*
X0009308Y0161890D02*
X0247787Y0161890D01*
X0247787Y0163489D02*
X0009310Y0163489D01*
X0009311Y0165087D02*
X0247787Y0165087D01*
X0247787Y0166686D02*
X0009313Y0166686D01*
X0009314Y0168284D02*
X0019459Y0168284D01*
X0019465Y0168278D02*
X0021082Y0167608D01*
X0022833Y0167608D01*
X0024450Y0168278D01*
X0025688Y0169516D01*
X0026357Y0171133D01*
X0026357Y0172884D01*
X0025688Y0174501D01*
X0024450Y0175738D01*
X0022833Y0176408D01*
X0021082Y0176408D01*
X0019465Y0175738D01*
X0018227Y0174501D01*
X0017557Y0172884D01*
X0017557Y0171133D01*
X0018227Y0169516D01*
X0019465Y0168278D01*
X0018075Y0169883D02*
X0009316Y0169883D01*
X0009318Y0171481D02*
X0017557Y0171481D01*
X0017639Y0173080D02*
X0009319Y0173080D01*
X0009321Y0174678D02*
X0018405Y0174678D01*
X0020765Y0176277D02*
X0009322Y0176277D01*
X0009324Y0177876D02*
X0019868Y0177876D01*
X0020135Y0177608D02*
X0023780Y0177608D01*
X0026357Y0180186D01*
X0026357Y0183831D01*
X0023780Y0186408D01*
X0020135Y0186408D01*
X0017557Y0183831D01*
X0017557Y0180186D01*
X0020135Y0177608D01*
X0018269Y0179474D02*
X0009326Y0179474D01*
X0009327Y0181073D02*
X0017557Y0181073D01*
X0017557Y0182671D02*
X0009329Y0182671D01*
X0009330Y0184270D02*
X0017996Y0184270D01*
X0019595Y0185868D02*
X0009332Y0185868D01*
X0009334Y0187467D02*
X0247787Y0187467D01*
X0247787Y0189065D02*
X0009335Y0189065D01*
X0009337Y0190664D02*
X0247787Y0190664D01*
X0247787Y0192262D02*
X0009338Y0192262D01*
X0009340Y0193861D02*
X0247787Y0193861D01*
X0247787Y0195459D02*
X0009342Y0195459D01*
X0009343Y0197058D02*
X0247787Y0197058D01*
X0247787Y0198656D02*
X0009345Y0198656D01*
X0009346Y0200255D02*
X0247787Y0200255D01*
X0247787Y0201853D02*
X0009348Y0201853D01*
X0009350Y0203452D02*
X0247787Y0203452D01*
X0247787Y0205050D02*
X0212024Y0205050D01*
X0213780Y0186408D02*
X0210135Y0186408D01*
X0207557Y0183831D01*
X0207557Y0180186D01*
X0210135Y0177608D01*
X0213780Y0177608D01*
X0216357Y0180186D01*
X0216357Y0183831D01*
X0213780Y0186408D01*
X0214320Y0185868D02*
X0247787Y0185868D01*
X0247787Y0184270D02*
X0215919Y0184270D01*
X0216357Y0182671D02*
X0247787Y0182671D01*
X0247787Y0181073D02*
X0216357Y0181073D01*
X0215646Y0179474D02*
X0247787Y0179474D01*
X0247787Y0177876D02*
X0214047Y0177876D01*
X0213863Y0176608D02*
X0212057Y0176608D01*
X0212057Y0172108D01*
X0211857Y0172108D01*
X0211857Y0171908D01*
X0207357Y0171908D01*
X0207357Y0170103D01*
X0210052Y0167408D01*
X0211857Y0167408D01*
X0211857Y0171908D01*
X0212057Y0171908D01*
X0212057Y0167408D01*
X0213863Y0167408D01*
X0216557Y0170103D01*
X0216557Y0171908D01*
X0212058Y0171908D01*
X0212058Y0172108D01*
X0216557Y0172108D01*
X0216557Y0173914D01*
X0213863Y0176608D01*
X0214194Y0176277D02*
X0247787Y0176277D01*
X0247787Y0174678D02*
X0215793Y0174678D01*
X0216557Y0173080D02*
X0247787Y0173080D01*
X0247787Y0171481D02*
X0216557Y0171481D01*
X0216337Y0169883D02*
X0247787Y0169883D01*
X0247787Y0168284D02*
X0214739Y0168284D01*
X0212057Y0168284D02*
X0211857Y0168284D01*
X0211857Y0169883D02*
X0212057Y0169883D01*
X0212057Y0171481D02*
X0211857Y0171481D01*
X0211857Y0172108D02*
X0207357Y0172108D01*
X0207357Y0173914D01*
X0210052Y0176608D01*
X0211857Y0176608D01*
X0211857Y0172108D01*
X0211857Y0173080D02*
X0212057Y0173080D01*
X0212057Y0174678D02*
X0211857Y0174678D01*
X0211857Y0176277D02*
X0212057Y0176277D01*
X0209721Y0176277D02*
X0203911Y0176277D01*
X0203780Y0176408D02*
X0200135Y0176408D01*
X0197557Y0173831D01*
X0197557Y0170186D01*
X0200135Y0167608D01*
X0203780Y0167608D01*
X0206357Y0170186D01*
X0206357Y0173831D01*
X0203780Y0176408D01*
X0203780Y0177608D02*
X0206357Y0180186D01*
X0206357Y0183831D01*
X0203780Y0186408D01*
X0200135Y0186408D01*
X0197557Y0183831D01*
X0197557Y0180186D01*
X0200135Y0177608D01*
X0203780Y0177608D01*
X0204047Y0177876D02*
X0209868Y0177876D01*
X0208269Y0179474D02*
X0205646Y0179474D01*
X0206357Y0181073D02*
X0207557Y0181073D01*
X0207557Y0182671D02*
X0206357Y0182671D01*
X0205919Y0184270D02*
X0207996Y0184270D01*
X0209595Y0185868D02*
X0204320Y0185868D01*
X0199595Y0185868D02*
X0194320Y0185868D01*
X0193780Y0186408D02*
X0190135Y0186408D01*
X0187557Y0183831D01*
X0187557Y0180186D01*
X0190135Y0177608D01*
X0193780Y0177608D01*
X0196357Y0180186D01*
X0196357Y0183831D01*
X0193780Y0186408D01*
X0195919Y0184270D02*
X0197996Y0184270D01*
X0197557Y0182671D02*
X0196357Y0182671D01*
X0196357Y0181073D02*
X0197557Y0181073D01*
X0198269Y0179474D02*
X0195646Y0179474D01*
X0194047Y0177876D02*
X0199868Y0177876D01*
X0200004Y0176277D02*
X0193911Y0176277D01*
X0193780Y0176408D02*
X0190135Y0176408D01*
X0187557Y0173831D01*
X0187557Y0170186D01*
X0190135Y0167608D01*
X0193780Y0167608D01*
X0196357Y0170186D01*
X0196357Y0173831D01*
X0193780Y0176408D01*
X0195510Y0174678D02*
X0198405Y0174678D01*
X0197557Y0173080D02*
X0196357Y0173080D01*
X0196357Y0171481D02*
X0197557Y0171481D01*
X0197860Y0169883D02*
X0196055Y0169883D01*
X0194456Y0168284D02*
X0199459Y0168284D01*
X0204456Y0168284D02*
X0209176Y0168284D01*
X0207578Y0169883D02*
X0206055Y0169883D01*
X0206357Y0171481D02*
X0207357Y0171481D01*
X0207357Y0173080D02*
X0206357Y0173080D01*
X0205510Y0174678D02*
X0208122Y0174678D01*
X0190004Y0176277D02*
X0183911Y0176277D01*
X0183780Y0176408D02*
X0180135Y0176408D01*
X0177557Y0173831D01*
X0177557Y0170186D01*
X0180135Y0167608D01*
X0183780Y0167608D01*
X0186357Y0170186D01*
X0186357Y0173831D01*
X0183780Y0176408D01*
X0183863Y0177408D02*
X0186557Y0180103D01*
X0186557Y0181908D01*
X0182058Y0181908D01*
X0182058Y0182108D01*
X0186557Y0182108D01*
X0186557Y0183914D01*
X0183863Y0186608D01*
X0182057Y0186608D01*
X0182057Y0182108D01*
X0181857Y0182108D01*
X0181857Y0181908D01*
X0177357Y0181908D01*
X0177357Y0180103D01*
X0180052Y0177408D01*
X0181857Y0177408D01*
X0181857Y0181908D01*
X0182057Y0181908D01*
X0182057Y0177408D01*
X0183863Y0177408D01*
X0184330Y0177876D02*
X0189868Y0177876D01*
X0188269Y0179474D02*
X0185929Y0179474D01*
X0186557Y0181073D02*
X0187557Y0181073D01*
X0187557Y0182671D02*
X0186557Y0182671D01*
X0186202Y0184270D02*
X0187996Y0184270D01*
X0189595Y0185868D02*
X0184603Y0185868D01*
X0182057Y0185868D02*
X0181857Y0185868D01*
X0181857Y0186608D02*
X0180052Y0186608D01*
X0177357Y0183914D01*
X0177357Y0182108D01*
X0181857Y0182108D01*
X0181857Y0186608D01*
X0181857Y0184270D02*
X0182057Y0184270D01*
X0182057Y0182671D02*
X0181857Y0182671D01*
X0181857Y0181073D02*
X0182057Y0181073D01*
X0182057Y0179474D02*
X0181857Y0179474D01*
X0181857Y0177876D02*
X0182057Y0177876D01*
X0179585Y0177876D02*
X0174047Y0177876D01*
X0173780Y0177608D02*
X0176357Y0180186D01*
X0176357Y0183831D01*
X0173780Y0186408D01*
X0170135Y0186408D01*
X0167557Y0183831D01*
X0167557Y0180186D01*
X0170135Y0177608D01*
X0173780Y0177608D01*
X0173780Y0176408D02*
X0170135Y0176408D01*
X0167557Y0173831D01*
X0167557Y0170186D01*
X0170135Y0167608D01*
X0173780Y0167608D01*
X0176357Y0170186D01*
X0176357Y0173831D01*
X0173780Y0176408D01*
X0173911Y0176277D02*
X0180004Y0176277D01*
X0178405Y0174678D02*
X0175510Y0174678D01*
X0176357Y0173080D02*
X0177557Y0173080D01*
X0177557Y0171481D02*
X0176357Y0171481D01*
X0176055Y0169883D02*
X0177860Y0169883D01*
X0179459Y0168284D02*
X0174456Y0168284D01*
X0169459Y0168284D02*
X0164456Y0168284D01*
X0163780Y0167608D02*
X0166357Y0170186D01*
X0166357Y0173831D01*
X0163780Y0176408D01*
X0160135Y0176408D01*
X0157557Y0173831D01*
X0157557Y0170186D01*
X0160135Y0167608D01*
X0163780Y0167608D01*
X0166055Y0169883D02*
X0167860Y0169883D01*
X0167557Y0171481D02*
X0166357Y0171481D01*
X0166357Y0173080D02*
X0167557Y0173080D01*
X0168405Y0174678D02*
X0165510Y0174678D01*
X0163911Y0176277D02*
X0170004Y0176277D01*
X0169868Y0177876D02*
X0164330Y0177876D01*
X0163863Y0177408D02*
X0166557Y0180103D01*
X0166557Y0181908D01*
X0162058Y0181908D01*
X0162058Y0182108D01*
X0166557Y0182108D01*
X0166557Y0183914D01*
X0163863Y0186608D01*
X0162057Y0186608D01*
X0162057Y0182108D01*
X0161857Y0182108D01*
X0161857Y0181908D01*
X0157357Y0181908D01*
X0157357Y0180103D01*
X0160052Y0177408D01*
X0161857Y0177408D01*
X0161857Y0181908D01*
X0162057Y0181908D01*
X0162057Y0177408D01*
X0163863Y0177408D01*
X0162057Y0177876D02*
X0161857Y0177876D01*
X0161857Y0179474D02*
X0162057Y0179474D01*
X0162057Y0181073D02*
X0161857Y0181073D01*
X0161857Y0182108D02*
X0157357Y0182108D01*
X0157357Y0183914D01*
X0160052Y0186608D01*
X0161857Y0186608D01*
X0161857Y0182108D01*
X0161857Y0182671D02*
X0162057Y0182671D01*
X0162057Y0184270D02*
X0161857Y0184270D01*
X0161857Y0185868D02*
X0162057Y0185868D01*
X0164603Y0185868D02*
X0169595Y0185868D01*
X0167996Y0184270D02*
X0166202Y0184270D01*
X0166557Y0182671D02*
X0167557Y0182671D01*
X0167557Y0181073D02*
X0166557Y0181073D01*
X0165929Y0179474D02*
X0168269Y0179474D01*
X0175646Y0179474D02*
X0177986Y0179474D01*
X0177357Y0181073D02*
X0176357Y0181073D01*
X0176357Y0182671D02*
X0177357Y0182671D01*
X0177713Y0184270D02*
X0175919Y0184270D01*
X0174320Y0185868D02*
X0179312Y0185868D01*
X0185510Y0174678D02*
X0188405Y0174678D01*
X0187557Y0173080D02*
X0186357Y0173080D01*
X0186357Y0171481D02*
X0187557Y0171481D01*
X0187860Y0169883D02*
X0186055Y0169883D01*
X0184456Y0168284D02*
X0189459Y0168284D01*
X0159459Y0168284D02*
X0154456Y0168284D01*
X0153780Y0167608D02*
X0156357Y0170186D01*
X0156357Y0173831D01*
X0153780Y0176408D01*
X0150135Y0176408D01*
X0147557Y0173831D01*
X0147557Y0170186D01*
X0150135Y0167608D01*
X0153780Y0167608D01*
X0156055Y0169883D02*
X0157860Y0169883D01*
X0157557Y0171481D02*
X0156357Y0171481D01*
X0156357Y0173080D02*
X0157557Y0173080D01*
X0158405Y0174678D02*
X0155510Y0174678D01*
X0153911Y0176277D02*
X0160004Y0176277D01*
X0159585Y0177876D02*
X0154047Y0177876D01*
X0153780Y0177608D02*
X0156357Y0180186D01*
X0156357Y0183831D01*
X0153780Y0186408D01*
X0150135Y0186408D01*
X0147557Y0183831D01*
X0147557Y0180186D01*
X0150135Y0177608D01*
X0153780Y0177608D01*
X0155646Y0179474D02*
X0157986Y0179474D01*
X0157357Y0181073D02*
X0156357Y0181073D01*
X0156357Y0182671D02*
X0157357Y0182671D01*
X0157713Y0184270D02*
X0155919Y0184270D01*
X0154320Y0185868D02*
X0159312Y0185868D01*
X0149595Y0185868D02*
X0144320Y0185868D01*
X0143780Y0186408D02*
X0146357Y0183831D01*
X0146357Y0180186D01*
X0143780Y0177608D01*
X0140135Y0177608D01*
X0137557Y0180186D01*
X0137557Y0183831D01*
X0140135Y0186408D01*
X0143780Y0186408D01*
X0145919Y0184270D02*
X0147996Y0184270D01*
X0147557Y0182671D02*
X0146357Y0182671D01*
X0146357Y0181073D02*
X0147557Y0181073D01*
X0148269Y0179474D02*
X0145646Y0179474D01*
X0144047Y0177876D02*
X0149868Y0177876D01*
X0150004Y0176277D02*
X0144194Y0176277D01*
X0143863Y0176608D02*
X0146557Y0173914D01*
X0146557Y0172108D01*
X0142058Y0172108D01*
X0142058Y0171908D01*
X0146557Y0171908D01*
X0146557Y0170103D01*
X0143863Y0167408D01*
X0142057Y0167408D01*
X0142057Y0171908D01*
X0141857Y0171908D01*
X0137357Y0171908D01*
X0137357Y0170103D01*
X0140052Y0167408D01*
X0141857Y0167408D01*
X0141857Y0171908D01*
X0141857Y0172108D01*
X0137357Y0172108D01*
X0137357Y0173914D01*
X0140052Y0176608D01*
X0141857Y0176608D01*
X0141857Y0172108D01*
X0142057Y0172108D01*
X0142057Y0176608D01*
X0143863Y0176608D01*
X0142057Y0176277D02*
X0141857Y0176277D01*
X0141857Y0174678D02*
X0142057Y0174678D01*
X0142057Y0173080D02*
X0141857Y0173080D01*
X0141857Y0171481D02*
X0142057Y0171481D01*
X0142057Y0169883D02*
X0141857Y0169883D01*
X0141857Y0168284D02*
X0142057Y0168284D01*
X0144739Y0168284D02*
X0149459Y0168284D01*
X0147860Y0169883D02*
X0146337Y0169883D01*
X0146557Y0171481D02*
X0147557Y0171481D01*
X0147557Y0173080D02*
X0146557Y0173080D01*
X0145793Y0174678D02*
X0148405Y0174678D01*
X0139721Y0176277D02*
X0133911Y0176277D01*
X0133780Y0176408D02*
X0130135Y0176408D01*
X0127557Y0173831D01*
X0127557Y0170186D01*
X0130135Y0167608D01*
X0133780Y0167608D01*
X0136357Y0170186D01*
X0136357Y0173831D01*
X0133780Y0176408D01*
X0133780Y0177608D02*
X0136357Y0180186D01*
X0136357Y0183831D01*
X0133780Y0186408D01*
X0130135Y0186408D01*
X0127557Y0183831D01*
X0127557Y0180186D01*
X0130135Y0177608D01*
X0133780Y0177608D01*
X0134047Y0177876D02*
X0139868Y0177876D01*
X0138269Y0179474D02*
X0135646Y0179474D01*
X0136357Y0181073D02*
X0137557Y0181073D01*
X0137557Y0182671D02*
X0136357Y0182671D01*
X0135919Y0184270D02*
X0137996Y0184270D01*
X0139595Y0185868D02*
X0134320Y0185868D01*
X0129595Y0185868D02*
X0124320Y0185868D01*
X0123780Y0186408D02*
X0120135Y0186408D01*
X0117557Y0183831D01*
X0117557Y0180186D01*
X0120135Y0177608D01*
X0123780Y0177608D01*
X0126357Y0180186D01*
X0126357Y0183831D01*
X0123780Y0186408D01*
X0125919Y0184270D02*
X0127996Y0184270D01*
X0127557Y0182671D02*
X0126357Y0182671D01*
X0126357Y0181073D02*
X0127557Y0181073D01*
X0128269Y0179474D02*
X0125646Y0179474D01*
X0124047Y0177876D02*
X0129868Y0177876D01*
X0130004Y0176277D02*
X0123911Y0176277D01*
X0123780Y0176408D02*
X0120135Y0176408D01*
X0117557Y0173831D01*
X0117557Y0170186D01*
X0120135Y0167608D01*
X0123780Y0167608D01*
X0126357Y0170186D01*
X0126357Y0173831D01*
X0123780Y0176408D01*
X0125510Y0174678D02*
X0128405Y0174678D01*
X0127557Y0173080D02*
X0126357Y0173080D01*
X0126357Y0171481D02*
X0127557Y0171481D01*
X0127860Y0169883D02*
X0126055Y0169883D01*
X0124456Y0168284D02*
X0129459Y0168284D01*
X0134456Y0168284D02*
X0139176Y0168284D01*
X0137578Y0169883D02*
X0136055Y0169883D01*
X0136357Y0171481D02*
X0137357Y0171481D01*
X0137357Y0173080D02*
X0136357Y0173080D01*
X0135510Y0174678D02*
X0138122Y0174678D01*
X0120004Y0176277D02*
X0113911Y0176277D01*
X0113780Y0176408D02*
X0110135Y0176408D01*
X0107557Y0173831D01*
X0107557Y0170186D01*
X0110135Y0167608D01*
X0113780Y0167608D01*
X0116357Y0170186D01*
X0116357Y0173831D01*
X0113780Y0176408D01*
X0113863Y0177408D02*
X0116557Y0180103D01*
X0116557Y0181908D01*
X0112058Y0181908D01*
X0112058Y0182108D01*
X0116557Y0182108D01*
X0116557Y0183914D01*
X0113863Y0186608D01*
X0112057Y0186608D01*
X0112057Y0182108D01*
X0111857Y0182108D01*
X0111857Y0181908D01*
X0107357Y0181908D01*
X0107357Y0180103D01*
X0110052Y0177408D01*
X0111857Y0177408D01*
X0111857Y0181908D01*
X0112057Y0181908D01*
X0112057Y0177408D01*
X0113863Y0177408D01*
X0114330Y0177876D02*
X0119868Y0177876D01*
X0118269Y0179474D02*
X0115929Y0179474D01*
X0116557Y0181073D02*
X0117557Y0181073D01*
X0117557Y0182671D02*
X0116557Y0182671D01*
X0116202Y0184270D02*
X0117996Y0184270D01*
X0119595Y0185868D02*
X0114603Y0185868D01*
X0112057Y0185868D02*
X0111857Y0185868D01*
X0111857Y0186608D02*
X0110052Y0186608D01*
X0107357Y0183914D01*
X0107357Y0182108D01*
X0111857Y0182108D01*
X0111857Y0186608D01*
X0111857Y0184270D02*
X0112057Y0184270D01*
X0112057Y0182671D02*
X0111857Y0182671D01*
X0111857Y0181073D02*
X0112057Y0181073D01*
X0112057Y0179474D02*
X0111857Y0179474D01*
X0111857Y0177876D02*
X0112057Y0177876D01*
X0109585Y0177876D02*
X0104047Y0177876D01*
X0103780Y0177608D02*
X0106357Y0180186D01*
X0106357Y0183831D01*
X0103780Y0186408D01*
X0100135Y0186408D01*
X0097557Y0183831D01*
X0097557Y0180186D01*
X0100135Y0177608D01*
X0103780Y0177608D01*
X0103780Y0176408D02*
X0100135Y0176408D01*
X0097557Y0173831D01*
X0097557Y0170186D01*
X0100135Y0167608D01*
X0103780Y0167608D01*
X0106357Y0170186D01*
X0106357Y0173831D01*
X0103780Y0176408D01*
X0103911Y0176277D02*
X0110004Y0176277D01*
X0108405Y0174678D02*
X0105510Y0174678D01*
X0106357Y0173080D02*
X0107557Y0173080D01*
X0107557Y0171481D02*
X0106357Y0171481D01*
X0106055Y0169883D02*
X0107860Y0169883D01*
X0109459Y0168284D02*
X0104456Y0168284D01*
X0099459Y0168284D02*
X0094456Y0168284D01*
X0093780Y0167608D02*
X0096357Y0170186D01*
X0096357Y0173831D01*
X0093780Y0176408D01*
X0090135Y0176408D01*
X0087557Y0173831D01*
X0087557Y0170186D01*
X0090135Y0167608D01*
X0093780Y0167608D01*
X0096055Y0169883D02*
X0097860Y0169883D01*
X0097557Y0171481D02*
X0096357Y0171481D01*
X0096357Y0173080D02*
X0097557Y0173080D01*
X0098405Y0174678D02*
X0095510Y0174678D01*
X0093911Y0176277D02*
X0100004Y0176277D01*
X0099868Y0177876D02*
X0094047Y0177876D01*
X0093780Y0177608D02*
X0096357Y0180186D01*
X0096357Y0183831D01*
X0093780Y0186408D01*
X0090135Y0186408D01*
X0087557Y0183831D01*
X0087557Y0180186D01*
X0090135Y0177608D01*
X0093780Y0177608D01*
X0095646Y0179474D02*
X0098269Y0179474D01*
X0097557Y0181073D02*
X0096357Y0181073D01*
X0096357Y0182671D02*
X0097557Y0182671D01*
X0097996Y0184270D02*
X0095919Y0184270D01*
X0094320Y0185868D02*
X0099595Y0185868D01*
X0104320Y0185868D02*
X0109312Y0185868D01*
X0107713Y0184270D02*
X0105919Y0184270D01*
X0106357Y0182671D02*
X0107357Y0182671D01*
X0107357Y0181073D02*
X0106357Y0181073D01*
X0105646Y0179474D02*
X0107986Y0179474D01*
X0115510Y0174678D02*
X0118405Y0174678D01*
X0117557Y0173080D02*
X0116357Y0173080D01*
X0116357Y0171481D02*
X0117557Y0171481D01*
X0117860Y0169883D02*
X0116055Y0169883D01*
X0114456Y0168284D02*
X0119459Y0168284D01*
X0090004Y0176277D02*
X0083911Y0176277D01*
X0083780Y0176408D02*
X0080135Y0176408D01*
X0077557Y0173831D01*
X0077557Y0170186D01*
X0080135Y0167608D01*
X0083780Y0167608D01*
X0086357Y0170186D01*
X0086357Y0173831D01*
X0083780Y0176408D01*
X0083863Y0177408D02*
X0086557Y0180103D01*
X0086557Y0181908D01*
X0082058Y0181908D01*
X0082058Y0182108D01*
X0086557Y0182108D01*
X0086557Y0183914D01*
X0083863Y0186608D01*
X0082057Y0186608D01*
X0082057Y0182108D01*
X0081857Y0182108D01*
X0081857Y0181908D01*
X0077357Y0181908D01*
X0077357Y0180103D01*
X0080052Y0177408D01*
X0081857Y0177408D01*
X0081857Y0181908D01*
X0082057Y0181908D01*
X0082057Y0177408D01*
X0083863Y0177408D01*
X0084330Y0177876D02*
X0089868Y0177876D01*
X0088269Y0179474D02*
X0085929Y0179474D01*
X0086557Y0181073D02*
X0087557Y0181073D01*
X0087557Y0182671D02*
X0086557Y0182671D01*
X0086202Y0184270D02*
X0087996Y0184270D01*
X0089595Y0185868D02*
X0084603Y0185868D01*
X0082057Y0185868D02*
X0081857Y0185868D01*
X0081857Y0186608D02*
X0080052Y0186608D01*
X0077357Y0183914D01*
X0077357Y0182108D01*
X0081857Y0182108D01*
X0081857Y0186608D01*
X0081857Y0184270D02*
X0082057Y0184270D01*
X0082057Y0182671D02*
X0081857Y0182671D01*
X0081857Y0181073D02*
X0082057Y0181073D01*
X0082057Y0179474D02*
X0081857Y0179474D01*
X0081857Y0177876D02*
X0082057Y0177876D01*
X0079585Y0177876D02*
X0074047Y0177876D01*
X0073780Y0177608D02*
X0076357Y0180186D01*
X0076357Y0183831D01*
X0073780Y0186408D01*
X0070135Y0186408D01*
X0067557Y0183831D01*
X0067557Y0180186D01*
X0070135Y0177608D01*
X0073780Y0177608D01*
X0073780Y0176408D02*
X0070135Y0176408D01*
X0067557Y0173831D01*
X0067557Y0170186D01*
X0070135Y0167608D01*
X0073780Y0167608D01*
X0076357Y0170186D01*
X0076357Y0173831D01*
X0073780Y0176408D01*
X0073911Y0176277D02*
X0080004Y0176277D01*
X0078405Y0174678D02*
X0075510Y0174678D01*
X0076357Y0173080D02*
X0077557Y0173080D01*
X0077557Y0171481D02*
X0076357Y0171481D01*
X0076055Y0169883D02*
X0077860Y0169883D01*
X0079459Y0168284D02*
X0074456Y0168284D01*
X0069459Y0168284D02*
X0064739Y0168284D01*
X0063863Y0167408D02*
X0066557Y0170103D01*
X0066557Y0171908D01*
X0062058Y0171908D01*
X0062058Y0172108D01*
X0066557Y0172108D01*
X0066557Y0173914D01*
X0063863Y0176608D01*
X0062057Y0176608D01*
X0062057Y0172108D01*
X0061857Y0172108D01*
X0061857Y0171908D01*
X0057357Y0171908D01*
X0057357Y0170103D01*
X0060052Y0167408D01*
X0061857Y0167408D01*
X0061857Y0171908D01*
X0062057Y0171908D01*
X0062057Y0167408D01*
X0063863Y0167408D01*
X0062057Y0168284D02*
X0061857Y0168284D01*
X0061857Y0169883D02*
X0062057Y0169883D01*
X0062057Y0171481D02*
X0061857Y0171481D01*
X0061857Y0172108D02*
X0057357Y0172108D01*
X0057357Y0173914D01*
X0060052Y0176608D01*
X0061857Y0176608D01*
X0061857Y0172108D01*
X0061857Y0173080D02*
X0062057Y0173080D01*
X0062057Y0174678D02*
X0061857Y0174678D01*
X0061857Y0176277D02*
X0062057Y0176277D01*
X0064194Y0176277D02*
X0070004Y0176277D01*
X0069868Y0177876D02*
X0064047Y0177876D01*
X0063780Y0177608D02*
X0066357Y0180186D01*
X0066357Y0183831D01*
X0063780Y0186408D01*
X0060135Y0186408D01*
X0057557Y0183831D01*
X0057557Y0180186D01*
X0060135Y0177608D01*
X0063780Y0177608D01*
X0065646Y0179474D02*
X0068269Y0179474D01*
X0067557Y0181073D02*
X0066357Y0181073D01*
X0066357Y0182671D02*
X0067557Y0182671D01*
X0067996Y0184270D02*
X0065919Y0184270D01*
X0064320Y0185868D02*
X0069595Y0185868D01*
X0074320Y0185868D02*
X0079312Y0185868D01*
X0077713Y0184270D02*
X0075919Y0184270D01*
X0076357Y0182671D02*
X0077357Y0182671D01*
X0077357Y0181073D02*
X0076357Y0181073D01*
X0075646Y0179474D02*
X0077986Y0179474D01*
X0085510Y0174678D02*
X0088405Y0174678D01*
X0087557Y0173080D02*
X0086357Y0173080D01*
X0086357Y0171481D02*
X0087557Y0171481D01*
X0087860Y0169883D02*
X0086055Y0169883D01*
X0084456Y0168284D02*
X0089459Y0168284D01*
X0067860Y0169883D02*
X0066337Y0169883D01*
X0066557Y0171481D02*
X0067557Y0171481D01*
X0067557Y0173080D02*
X0066557Y0173080D01*
X0065793Y0174678D02*
X0068405Y0174678D01*
X0059721Y0176277D02*
X0053911Y0176277D01*
X0053780Y0176408D02*
X0050135Y0176408D01*
X0047557Y0173831D01*
X0047557Y0170186D01*
X0050135Y0167608D01*
X0053780Y0167608D01*
X0056357Y0170186D01*
X0056357Y0173831D01*
X0053780Y0176408D01*
X0053780Y0177608D02*
X0056357Y0180186D01*
X0056357Y0183831D01*
X0053780Y0186408D01*
X0050135Y0186408D01*
X0047557Y0183831D01*
X0047557Y0180186D01*
X0050135Y0177608D01*
X0053780Y0177608D01*
X0054047Y0177876D02*
X0059868Y0177876D01*
X0058269Y0179474D02*
X0055646Y0179474D01*
X0056357Y0181073D02*
X0057557Y0181073D01*
X0057557Y0182671D02*
X0056357Y0182671D01*
X0055919Y0184270D02*
X0057996Y0184270D01*
X0059595Y0185868D02*
X0054320Y0185868D01*
X0049595Y0185868D02*
X0044603Y0185868D01*
X0043863Y0186608D02*
X0042057Y0186608D01*
X0042057Y0182108D01*
X0041857Y0182108D01*
X0041857Y0181908D01*
X0037357Y0181908D01*
X0037357Y0180103D01*
X0040052Y0177408D01*
X0041857Y0177408D01*
X0041857Y0181908D01*
X0042057Y0181908D01*
X0042057Y0177408D01*
X0043863Y0177408D01*
X0046557Y0180103D01*
X0046557Y0181908D01*
X0042058Y0181908D01*
X0042058Y0182108D01*
X0046557Y0182108D01*
X0046557Y0183914D01*
X0043863Y0186608D01*
X0042057Y0185868D02*
X0041857Y0185868D01*
X0041857Y0186608D02*
X0040052Y0186608D01*
X0037357Y0183914D01*
X0037357Y0182108D01*
X0041857Y0182108D01*
X0041857Y0186608D01*
X0041857Y0184270D02*
X0042057Y0184270D01*
X0042057Y0182671D02*
X0041857Y0182671D01*
X0041857Y0181073D02*
X0042057Y0181073D01*
X0042057Y0179474D02*
X0041857Y0179474D01*
X0041857Y0177876D02*
X0042057Y0177876D01*
X0043780Y0176408D02*
X0040135Y0176408D01*
X0037557Y0173831D01*
X0037557Y0170186D01*
X0040135Y0167608D01*
X0043780Y0167608D01*
X0046357Y0170186D01*
X0046357Y0173831D01*
X0043780Y0176408D01*
X0043911Y0176277D02*
X0050004Y0176277D01*
X0049868Y0177876D02*
X0044330Y0177876D01*
X0045929Y0179474D02*
X0048269Y0179474D01*
X0047557Y0181073D02*
X0046557Y0181073D01*
X0046557Y0182671D02*
X0047557Y0182671D01*
X0047996Y0184270D02*
X0046202Y0184270D01*
X0039312Y0185868D02*
X0034320Y0185868D01*
X0033780Y0186408D02*
X0030135Y0186408D01*
X0027557Y0183831D01*
X0027557Y0180186D01*
X0030135Y0177608D01*
X0033780Y0177608D01*
X0036357Y0180186D01*
X0036357Y0183831D01*
X0033780Y0186408D01*
X0035919Y0184270D02*
X0037713Y0184270D01*
X0037357Y0182671D02*
X0036357Y0182671D01*
X0036357Y0181073D02*
X0037357Y0181073D01*
X0037986Y0179474D02*
X0035646Y0179474D01*
X0034047Y0177876D02*
X0039585Y0177876D01*
X0040004Y0176277D02*
X0033911Y0176277D01*
X0033780Y0176408D02*
X0030135Y0176408D01*
X0027557Y0173831D01*
X0027557Y0170186D01*
X0030135Y0167608D01*
X0033780Y0167608D01*
X0036357Y0170186D01*
X0036357Y0173831D01*
X0033780Y0176408D01*
X0035510Y0174678D02*
X0038405Y0174678D01*
X0037557Y0173080D02*
X0036357Y0173080D01*
X0036357Y0171481D02*
X0037557Y0171481D01*
X0037860Y0169883D02*
X0036055Y0169883D01*
X0034456Y0168284D02*
X0039459Y0168284D01*
X0044456Y0168284D02*
X0049459Y0168284D01*
X0047860Y0169883D02*
X0046055Y0169883D01*
X0046357Y0171481D02*
X0047557Y0171481D01*
X0047557Y0173080D02*
X0046357Y0173080D01*
X0045510Y0174678D02*
X0048405Y0174678D01*
X0055510Y0174678D02*
X0058122Y0174678D01*
X0057357Y0173080D02*
X0056357Y0173080D01*
X0056357Y0171481D02*
X0057357Y0171481D01*
X0057578Y0169883D02*
X0056055Y0169883D01*
X0054456Y0168284D02*
X0059176Y0168284D01*
X0029459Y0168284D02*
X0024456Y0168284D01*
X0025840Y0169883D02*
X0027860Y0169883D01*
X0027557Y0171481D02*
X0026357Y0171481D01*
X0026276Y0173080D02*
X0027557Y0173080D01*
X0028405Y0174678D02*
X0025510Y0174678D01*
X0023150Y0176277D02*
X0030004Y0176277D01*
X0029868Y0177876D02*
X0024047Y0177876D01*
X0025646Y0179474D02*
X0028269Y0179474D01*
X0027557Y0181073D02*
X0026357Y0181073D01*
X0026357Y0182671D02*
X0027557Y0182671D01*
X0027996Y0184270D02*
X0025919Y0184270D01*
X0024320Y0185868D02*
X0029595Y0185868D01*
X0014056Y0120329D02*
X0009266Y0120329D01*
X0009265Y0118731D02*
X0012872Y0118731D01*
X0012872Y0117132D02*
X0009263Y0117132D01*
X0009262Y0115534D02*
X0012872Y0115534D01*
X0013054Y0113935D02*
X0009260Y0113935D01*
X0009258Y0112337D02*
X0013054Y0112337D01*
X0013054Y0110738D02*
X0009257Y0110738D01*
X0009255Y0109140D02*
X0012872Y0109140D01*
X0012872Y0107541D02*
X0009254Y0107541D01*
X0009252Y0105942D02*
X0012872Y0105942D01*
X0014029Y0104344D02*
X0009250Y0104344D01*
X0009249Y0102745D02*
X0247787Y0102745D01*
X0214410Y0037207D02*
X0186007Y0037207D01*
X0187605Y0035608D02*
X0216009Y0035608D01*
X0217607Y0034009D02*
X0210492Y0034009D01*
X0209410Y0034009D02*
X0208451Y0034009D01*
X0208451Y0034217D02*
X0207587Y0034080D01*
X0206728Y0033801D01*
X0205923Y0033391D01*
X0205193Y0032861D01*
X0204554Y0032222D01*
X0204024Y0031492D01*
X0203614Y0030687D01*
X0203335Y0029828D01*
X0203198Y0028964D01*
X0208451Y0028964D01*
X0208451Y0034217D01*
X0207368Y0034009D02*
X0190061Y0034009D01*
X0192835Y0032411D02*
X0204743Y0032411D01*
X0203678Y0030812D02*
X0193959Y0030812D01*
X0194467Y0029214D02*
X0203237Y0029214D01*
X0203198Y0028005D02*
X0203335Y0027141D01*
X0203614Y0026282D01*
X0204024Y0025478D01*
X0204554Y0024747D01*
X0205193Y0024109D01*
X0205923Y0023578D01*
X0206728Y0023168D01*
X0207587Y0022889D01*
X0208451Y0022752D01*
X0208451Y0028005D01*
X0203198Y0028005D01*
X0203259Y0027615D02*
X0194467Y0027615D01*
X0193901Y0026017D02*
X0203749Y0026017D01*
X0204883Y0024418D02*
X0192694Y0024418D01*
X0185166Y0024418D02*
X0009170Y0024418D01*
X0009172Y0026017D02*
X0183959Y0026017D01*
X0183393Y0027615D02*
X0009173Y0027615D01*
X0009175Y0029214D02*
X0135717Y0029214D01*
X0144260Y0029214D02*
X0182403Y0029214D01*
X0208451Y0029214D02*
X0209410Y0029214D01*
X0209410Y0030812D02*
X0208451Y0030812D01*
X0208451Y0032411D02*
X0209410Y0032411D01*
X0213117Y0032411D02*
X0219206Y0032411D01*
X0220804Y0030812D02*
X0214183Y0030812D01*
X0214623Y0029214D02*
X0222403Y0029214D01*
X0223393Y0027615D02*
X0214601Y0027615D01*
X0214112Y0026017D02*
X0223959Y0026017D01*
X0225166Y0024418D02*
X0212977Y0024418D01*
X0209410Y0024418D02*
X0208451Y0024418D01*
X0208451Y0026017D02*
X0209410Y0026017D01*
X0209410Y0027615D02*
X0208451Y0027615D01*
X0129543Y0040404D02*
X0127994Y0040404D01*
X0127994Y0042002D02*
X0129543Y0042002D01*
X0129543Y0043601D02*
X0127994Y0043601D01*
X0027272Y0066969D02*
X0027272Y0067323D01*
X0027272Y0077323D02*
X0027391Y0077323D01*
X0013211Y0085162D02*
X0009231Y0085162D01*
X0009233Y0086760D02*
X0012872Y0086760D01*
X0012872Y0088359D02*
X0009234Y0088359D01*
X0009236Y0089957D02*
X0013172Y0089957D01*
X0013172Y0091556D02*
X0009238Y0091556D01*
X0009239Y0093154D02*
X0013172Y0093154D01*
X0013172Y0094753D02*
X0009241Y0094753D01*
X0009242Y0096351D02*
X0012872Y0096351D01*
X0012872Y0097950D02*
X0009244Y0097950D01*
X0009246Y0099548D02*
X0013275Y0099548D01*
X0014874Y0101147D02*
X0009247Y0101147D01*
X0017272Y0117323D02*
X0027272Y0117323D01*
D17*
X0027391Y0146300D03*
X0027391Y0161654D03*
X0027391Y0197481D03*
X0122666Y0161654D03*
X0122666Y0138819D03*
X0122666Y0113229D03*
X0122666Y0097875D03*
X0152784Y0056339D03*
X0152784Y0044134D03*
X0152784Y0023465D03*
X0116957Y0023465D03*
X0116957Y0043937D03*
X0027391Y0023465D03*
X0201997Y0138623D03*
X0221485Y0138623D03*
X0242351Y0138623D03*
X0242351Y0161654D03*
X0221485Y0161654D03*
X0221485Y0197481D03*
X0242351Y0197481D03*
X0242351Y0087441D03*
X0221485Y0087441D03*
X0242351Y0023465D03*
D18*
X0228930Y0028485D02*
X0210919Y0046497D01*
X0175816Y0046497D01*
X0165973Y0056339D01*
X0152784Y0056339D01*
X0128769Y0056339D01*
X0093926Y0056339D01*
X0075422Y0056339D01*
X0044517Y0087245D01*
X0027351Y0087245D01*
X0027272Y0087323D01*
X0017272Y0087323D01*
X0017272Y0097323D01*
X0027272Y0097323D01*
X0027351Y0097166D02*
X0027351Y0087166D01*
X0027391Y0077323D02*
X0027391Y0067363D01*
X0027312Y0067363D02*
X0027272Y0067323D01*
X0017272Y0067323D01*
X0017272Y0077323D01*
X0027272Y0077323D01*
X0027312Y0067363D02*
X0041761Y0067363D01*
X0075225Y0033898D01*
X0104162Y0033898D01*
X0139989Y0033898D01*
X0183517Y0033898D01*
X0188930Y0028485D01*
X0027272Y0107323D02*
X0017272Y0107323D01*
X0017154Y0107914D02*
X0017154Y0117323D01*
X0027272Y0117323D01*
X0027272Y0107323D01*
X0017272Y0097323D02*
X0017154Y0097323D01*
D19*
X0093926Y0056339D02*
X0093926Y0049843D01*
X0104162Y0040591D02*
X0104162Y0033898D01*
D20*
X0122863Y0138623D02*
X0122666Y0138819D01*
X0122863Y0138623D02*
X0201997Y0138623D01*
X0221485Y0138623D02*
X0221485Y0143544D01*
X0224241Y0146300D01*
X0239792Y0146300D01*
X0242351Y0143741D01*
X0242351Y0138623D01*
M02*
