%
M48
M72
T01C0.01000
T02C0.02756
T03C0.03600
T04C0.05118
%
T01
X118385Y77180
X121485Y77180
X124585Y77180
X124585Y80380
X121485Y80380
X118385Y80380
T02
X27391Y23465
X116957Y23465
X116957Y43937
X152784Y44134
X152784Y56339
X152784Y23465
X221485Y87441
X242351Y87441
X242351Y138623
X221485Y138623
X201997Y138623
X221485Y161654
X242351Y161654
X242351Y197481
X221485Y197481
X122666Y161654
X122666Y138819
X122666Y113229
X122666Y97875
X27391Y146300
X27391Y161654
X27391Y197481
X242351Y23465
T03
X211957Y172008
X201957Y172008
X191957Y172008
X181957Y172008
X171957Y172008
X161957Y172008
X151957Y172008
X141957Y172008
X131957Y172008
X121957Y172008
X111957Y172008
X101957Y172008
X91957Y172008
X81957Y172008
X71957Y172008
X61957Y172008
X51957Y172008
X41957Y172008
X31957Y172008
X21957Y172008
X21957Y182008
X31957Y182008
X41957Y182008
X51957Y182008
X61957Y182008
X71957Y182008
X81957Y182008
X91957Y182008
X101957Y182008
X111957Y182008
X121957Y182008
X131957Y182008
X141957Y182008
X151957Y182008
X161957Y182008
X171957Y182008
X181957Y182008
X191957Y182008
X201957Y182008
X211957Y182008
X27272Y117323
X17272Y117323
X17272Y107323
X27272Y107323
X27272Y97323
X17272Y97323
X17272Y87323
X17272Y77323
X27272Y77323
X27272Y87323
X27272Y67323
X17272Y67323
X17272Y57323
X17272Y47323
X27272Y47323
X27272Y57323
T04
X188930Y28485
X208930Y28485
X228930Y28485
M30
