G75*
%MOIN*%
%OFA0B0*%
%FSLAX25Y25*%
%IPPOS*%
%LPD*%
%AMOC8*
5,1,8,0,0,1.08239X$1,22.5*
%
%ADD10C,0.00600*%
%ADD11C,0.00500*%
%ADD12C,0.00800*%
%ADD13C,0.00400*%
%ADD14C,0.00300*%
%ADD15R,0.02165X0.01969*%
%ADD16R,0.01378X0.01969*%
D10*
X0012772Y0042323D02*
X0031772Y0042323D01*
X0031870Y0042325D01*
X0031968Y0042331D01*
X0032066Y0042340D01*
X0032163Y0042354D01*
X0032260Y0042371D01*
X0032356Y0042392D01*
X0032451Y0042417D01*
X0032545Y0042445D01*
X0032637Y0042478D01*
X0032729Y0042513D01*
X0032819Y0042553D01*
X0032907Y0042595D01*
X0032994Y0042642D01*
X0033078Y0042691D01*
X0033161Y0042744D01*
X0033241Y0042800D01*
X0033320Y0042860D01*
X0033396Y0042922D01*
X0033469Y0042987D01*
X0033540Y0043055D01*
X0033608Y0043126D01*
X0033673Y0043199D01*
X0033735Y0043275D01*
X0033795Y0043354D01*
X0033851Y0043434D01*
X0033904Y0043517D01*
X0033953Y0043601D01*
X0034000Y0043688D01*
X0034042Y0043776D01*
X0034082Y0043866D01*
X0034117Y0043958D01*
X0034150Y0044050D01*
X0034178Y0044144D01*
X0034203Y0044239D01*
X0034224Y0044335D01*
X0034241Y0044432D01*
X0034255Y0044529D01*
X0034264Y0044627D01*
X0034270Y0044725D01*
X0034272Y0044823D01*
X0034272Y0119823D01*
X0034270Y0119921D01*
X0034264Y0120019D01*
X0034255Y0120117D01*
X0034241Y0120214D01*
X0034224Y0120311D01*
X0034203Y0120407D01*
X0034178Y0120502D01*
X0034150Y0120596D01*
X0034117Y0120688D01*
X0034082Y0120780D01*
X0034042Y0120870D01*
X0034000Y0120958D01*
X0033953Y0121045D01*
X0033904Y0121129D01*
X0033851Y0121212D01*
X0033795Y0121292D01*
X0033735Y0121371D01*
X0033673Y0121447D01*
X0033608Y0121520D01*
X0033540Y0121591D01*
X0033469Y0121659D01*
X0033396Y0121724D01*
X0033320Y0121786D01*
X0033241Y0121846D01*
X0033161Y0121902D01*
X0033078Y0121955D01*
X0032994Y0122004D01*
X0032907Y0122051D01*
X0032819Y0122093D01*
X0032729Y0122133D01*
X0032637Y0122168D01*
X0032545Y0122201D01*
X0032451Y0122229D01*
X0032356Y0122254D01*
X0032260Y0122275D01*
X0032163Y0122292D01*
X0032066Y0122306D01*
X0031968Y0122315D01*
X0031870Y0122321D01*
X0031772Y0122323D01*
X0012772Y0122323D01*
X0012674Y0122321D01*
X0012576Y0122315D01*
X0012478Y0122306D01*
X0012381Y0122292D01*
X0012284Y0122275D01*
X0012188Y0122254D01*
X0012093Y0122229D01*
X0011999Y0122201D01*
X0011907Y0122168D01*
X0011815Y0122133D01*
X0011725Y0122093D01*
X0011637Y0122051D01*
X0011550Y0122004D01*
X0011466Y0121955D01*
X0011383Y0121902D01*
X0011303Y0121846D01*
X0011224Y0121786D01*
X0011148Y0121724D01*
X0011075Y0121659D01*
X0011004Y0121591D01*
X0010936Y0121520D01*
X0010871Y0121447D01*
X0010809Y0121371D01*
X0010749Y0121292D01*
X0010693Y0121212D01*
X0010640Y0121129D01*
X0010591Y0121045D01*
X0010544Y0120958D01*
X0010502Y0120870D01*
X0010462Y0120780D01*
X0010427Y0120688D01*
X0010394Y0120596D01*
X0010366Y0120502D01*
X0010341Y0120407D01*
X0010320Y0120311D01*
X0010303Y0120214D01*
X0010289Y0120117D01*
X0010280Y0120019D01*
X0010274Y0119921D01*
X0010272Y0119823D01*
X0010272Y0044823D01*
X0010274Y0044725D01*
X0010280Y0044627D01*
X0010289Y0044529D01*
X0010303Y0044432D01*
X0010320Y0044335D01*
X0010341Y0044239D01*
X0010366Y0044144D01*
X0010394Y0044050D01*
X0010427Y0043958D01*
X0010462Y0043866D01*
X0010502Y0043776D01*
X0010544Y0043688D01*
X0010591Y0043601D01*
X0010640Y0043517D01*
X0010693Y0043434D01*
X0010749Y0043354D01*
X0010809Y0043275D01*
X0010871Y0043199D01*
X0010936Y0043126D01*
X0011004Y0043055D01*
X0011075Y0042987D01*
X0011148Y0042922D01*
X0011224Y0042860D01*
X0011303Y0042800D01*
X0011383Y0042744D01*
X0011466Y0042691D01*
X0011550Y0042642D01*
X0011637Y0042595D01*
X0011725Y0042553D01*
X0011815Y0042513D01*
X0011907Y0042478D01*
X0011999Y0042445D01*
X0012093Y0042417D01*
X0012188Y0042392D01*
X0012284Y0042371D01*
X0012381Y0042354D01*
X0012478Y0042340D01*
X0012576Y0042331D01*
X0012674Y0042325D01*
X0012772Y0042323D01*
X0040549Y0104340D02*
X0081949Y0104340D01*
X0081949Y0121540D01*
X0081949Y0128540D02*
X0081949Y0145740D01*
X0040549Y0145740D01*
X0040549Y0128540D01*
X0034149Y0125040D02*
X0031149Y0125040D01*
X0032649Y0126540D02*
X0032649Y0123540D01*
X0040549Y0121540D02*
X0040549Y0114740D01*
X0050949Y0104340D01*
X0040549Y0104340D02*
X0040549Y0114740D01*
X0040549Y0135340D02*
X0050949Y0145740D01*
X0108485Y0088380D02*
X0108485Y0087180D01*
X0112685Y0087180D01*
X0112685Y0088380D01*
X0108485Y0088380D01*
X0112685Y0088780D02*
X0112685Y0068780D01*
X0122685Y0068780D01*
X0130285Y0068780D01*
X0130285Y0088780D01*
X0112685Y0088780D01*
X0112685Y0085780D02*
X0108485Y0085780D01*
X0108485Y0084580D01*
X0112685Y0084580D01*
X0112685Y0085780D01*
X0112685Y0083180D02*
X0108485Y0083180D01*
X0108485Y0081980D01*
X0112685Y0081980D01*
X0112685Y0083180D01*
X0112685Y0080680D02*
X0108485Y0080680D01*
X0108485Y0079480D01*
X0112685Y0079480D01*
X0112685Y0080680D01*
X0112685Y0078080D02*
X0108485Y0078080D01*
X0108485Y0076880D01*
X0112685Y0076880D01*
X0112685Y0078080D01*
X0112685Y0075580D02*
X0108485Y0075580D01*
X0108485Y0074380D01*
X0112685Y0074380D01*
X0112685Y0075580D01*
X0112685Y0072980D02*
X0108485Y0072980D01*
X0108485Y0071780D01*
X0112685Y0071780D01*
X0112685Y0072980D01*
X0112685Y0070380D02*
X0108485Y0070380D01*
X0108485Y0069180D01*
X0112685Y0069180D01*
X0112685Y0070380D01*
X0120285Y0068680D02*
X0120284Y0068749D01*
X0120287Y0068817D01*
X0120294Y0068885D01*
X0120305Y0068953D01*
X0120320Y0069020D01*
X0120338Y0069086D01*
X0120360Y0069151D01*
X0120386Y0069215D01*
X0120416Y0069277D01*
X0120448Y0069337D01*
X0120485Y0069395D01*
X0120524Y0069451D01*
X0120567Y0069505D01*
X0120613Y0069556D01*
X0120661Y0069604D01*
X0120713Y0069650D01*
X0120766Y0069692D01*
X0120823Y0069732D01*
X0120881Y0069768D01*
X0120941Y0069801D01*
X0121003Y0069830D01*
X0121067Y0069856D01*
X0121132Y0069878D01*
X0121198Y0069896D01*
X0121265Y0069911D01*
X0121332Y0069921D01*
X0121401Y0069928D01*
X0121469Y0069931D01*
X0121538Y0069930D01*
X0121606Y0069925D01*
X0121674Y0069916D01*
X0121742Y0069903D01*
X0121808Y0069887D01*
X0121874Y0069866D01*
X0121938Y0069842D01*
X0122001Y0069815D01*
X0122062Y0069783D01*
X0122121Y0069749D01*
X0122178Y0069711D01*
X0122233Y0069670D01*
X0122285Y0069625D01*
X0122335Y0069578D01*
X0122382Y0069528D01*
X0122426Y0069476D01*
X0122467Y0069421D01*
X0122505Y0069364D01*
X0122540Y0069304D01*
X0122571Y0069243D01*
X0122598Y0069180D01*
X0122622Y0069116D01*
X0122642Y0069050D01*
X0122659Y0068984D01*
X0122671Y0068916D01*
X0122680Y0068848D01*
X0122685Y0068780D01*
X0130285Y0069180D02*
X0134485Y0069180D01*
X0134485Y0070380D01*
X0130285Y0070380D01*
X0130285Y0069180D01*
X0130285Y0071780D02*
X0134485Y0071780D01*
X0134485Y0072980D01*
X0130285Y0072980D01*
X0130285Y0071780D01*
X0130285Y0074380D02*
X0134485Y0074380D01*
X0134485Y0075580D01*
X0130285Y0075580D01*
X0130285Y0074380D01*
X0130285Y0076880D02*
X0134485Y0076880D01*
X0134485Y0078080D01*
X0130285Y0078080D01*
X0130285Y0076880D01*
X0130285Y0079480D02*
X0134485Y0079480D01*
X0134485Y0080680D01*
X0130285Y0080680D01*
X0130285Y0079480D01*
X0130285Y0081980D02*
X0134485Y0081980D01*
X0134485Y0083180D01*
X0130285Y0083180D01*
X0130285Y0081980D01*
X0130285Y0084580D02*
X0134485Y0084580D01*
X0134485Y0085780D01*
X0130285Y0085780D01*
X0130285Y0084580D01*
X0130285Y0087180D02*
X0134485Y0087180D01*
X0134485Y0088380D01*
X0130285Y0088380D01*
X0130285Y0087180D01*
X0140530Y0097875D02*
X0143530Y0097875D01*
X0142030Y0099375D02*
X0142030Y0096375D01*
X0149430Y0095075D02*
X0149430Y0091375D01*
X0155930Y0084875D01*
X0149430Y0084875D02*
X0175430Y0084875D01*
X0175430Y0095075D01*
X0175430Y0100675D02*
X0175430Y0110875D01*
X0149430Y0110875D01*
X0149430Y0100675D01*
X0149430Y0104375D02*
X0155930Y0110875D01*
X0149430Y0091375D02*
X0149430Y0084875D01*
X0162659Y0080519D02*
X0162659Y0067319D01*
X0162659Y0072219D02*
X0170959Y0080519D01*
X0162659Y0080519D02*
X0196059Y0080519D01*
X0196059Y0067319D01*
X0198754Y0065319D02*
X0198754Y0062319D01*
X0200254Y0063819D02*
X0197254Y0063819D01*
X0196059Y0060319D02*
X0196059Y0047119D01*
X0162659Y0047119D01*
X0162659Y0055419D01*
X0170959Y0047119D01*
X0162659Y0055419D02*
X0162659Y0060319D01*
X0156159Y0063819D02*
X0153159Y0063819D01*
X0154659Y0065319D02*
X0154659Y0062319D01*
X0182902Y0091182D02*
X0184753Y0091182D01*
X0182902Y0091182D02*
X0182902Y0108111D01*
X0184753Y0108111D01*
X0195225Y0108111D02*
X0197076Y0108111D01*
X0197076Y0091182D01*
X0195225Y0091182D01*
X0206754Y0080519D02*
X0206754Y0067319D01*
X0206754Y0072219D02*
X0215054Y0080519D01*
X0206754Y0080519D02*
X0240154Y0080519D01*
X0240154Y0067319D01*
X0240154Y0060319D02*
X0240154Y0047119D01*
X0206754Y0047119D01*
X0206754Y0055419D01*
X0215054Y0047119D01*
X0206754Y0055419D02*
X0206754Y0060319D01*
X0206243Y0113468D02*
X0210443Y0113468D01*
X0212843Y0113468D01*
X0217043Y0113468D01*
X0212843Y0113468D02*
X0212841Y0113537D01*
X0212835Y0113605D01*
X0212825Y0113673D01*
X0212812Y0113740D01*
X0212794Y0113806D01*
X0212773Y0113871D01*
X0212748Y0113935D01*
X0212720Y0113997D01*
X0212688Y0114058D01*
X0212653Y0114117D01*
X0212614Y0114173D01*
X0212572Y0114228D01*
X0212527Y0114279D01*
X0212479Y0114329D01*
X0212429Y0114375D01*
X0212376Y0114418D01*
X0212320Y0114459D01*
X0212263Y0114496D01*
X0212203Y0114529D01*
X0212141Y0114560D01*
X0212078Y0114586D01*
X0212014Y0114609D01*
X0211948Y0114629D01*
X0211881Y0114644D01*
X0211814Y0114656D01*
X0211746Y0114664D01*
X0211677Y0114668D01*
X0211609Y0114668D01*
X0211540Y0114664D01*
X0211472Y0114656D01*
X0211405Y0114644D01*
X0211338Y0114629D01*
X0211272Y0114609D01*
X0211208Y0114586D01*
X0211145Y0114560D01*
X0211083Y0114529D01*
X0211023Y0114496D01*
X0210966Y0114459D01*
X0210910Y0114418D01*
X0210857Y0114375D01*
X0210807Y0114329D01*
X0210759Y0114279D01*
X0210714Y0114228D01*
X0210672Y0114173D01*
X0210633Y0114117D01*
X0210598Y0114058D01*
X0210566Y0113997D01*
X0210538Y0113935D01*
X0210513Y0113871D01*
X0210492Y0113806D01*
X0210474Y0113740D01*
X0210461Y0113673D01*
X0210451Y0113605D01*
X0210445Y0113537D01*
X0210443Y0113468D01*
X0206243Y0133068D02*
X0217043Y0133068D01*
X0103375Y0058111D02*
X0103375Y0041182D01*
X0102312Y0041182D01*
X0094202Y0041182D02*
X0093139Y0041182D01*
X0093139Y0058111D01*
X0094202Y0058111D01*
X0102312Y0058111D02*
X0103375Y0058111D01*
D11*
X0005520Y0041865D02*
X0004019Y0043367D01*
X0008522Y0043367D01*
X0008522Y0044868D02*
X0008522Y0041865D01*
X0007772Y0046469D02*
X0006271Y0046469D01*
X0006271Y0048721D01*
X0007021Y0049472D01*
X0007772Y0049472D01*
X0008522Y0048721D01*
X0008522Y0047220D01*
X0007772Y0046469D01*
X0006271Y0046469D02*
X0004769Y0047971D01*
X0004019Y0049472D01*
X0041170Y0046103D02*
X0088414Y0046103D01*
X0040522Y0089512D02*
X0039772Y0088762D01*
X0040522Y0089512D02*
X0040522Y0091013D01*
X0039772Y0091764D01*
X0039021Y0091764D01*
X0038271Y0091013D01*
X0038271Y0089512D01*
X0037520Y0088762D01*
X0036769Y0088762D01*
X0036019Y0089512D01*
X0036019Y0091013D01*
X0036769Y0091764D01*
X0036019Y0093365D02*
X0039021Y0093365D01*
X0040522Y0094867D01*
X0039021Y0096368D01*
X0036019Y0096368D01*
X0036769Y0097969D02*
X0036019Y0098720D01*
X0036019Y0100221D01*
X0036769Y0100972D01*
X0037520Y0100972D01*
X0038271Y0100221D01*
X0039021Y0100972D01*
X0039772Y0100972D01*
X0040522Y0100221D01*
X0040522Y0098720D01*
X0039772Y0097969D01*
X0038271Y0099471D02*
X0038271Y0100221D01*
X0041170Y0093347D02*
X0088414Y0093347D01*
X0040522Y0114469D02*
X0040522Y0117472D01*
X0040522Y0115971D02*
X0036019Y0115971D01*
X0037520Y0114469D01*
X0151013Y0118937D02*
X0151013Y0158308D01*
X0162036Y0158308D01*
X0179359Y0158308D02*
X0190383Y0158308D01*
X0190383Y0122087D01*
X0187233Y0118937D01*
X0179359Y0118937D01*
X0162036Y0118937D02*
X0151013Y0118937D01*
D12*
X0149367Y0118346D02*
X0148133Y0119581D01*
X0145664Y0119581D01*
X0144430Y0118346D01*
X0144430Y0113409D01*
X0145664Y0112175D01*
X0148133Y0112175D01*
X0149367Y0113409D01*
X0151980Y0112175D02*
X0156918Y0112175D01*
X0154449Y0112175D02*
X0154449Y0119581D01*
X0151980Y0117112D01*
X0159531Y0119581D02*
X0164468Y0119581D01*
X0164468Y0118346D01*
X0159531Y0113409D01*
X0159531Y0112175D01*
X0161493Y0089526D02*
X0160259Y0088291D01*
X0160259Y0083354D01*
X0161493Y0082119D01*
X0163962Y0082119D01*
X0165197Y0083354D01*
X0167809Y0083354D02*
X0169044Y0082119D01*
X0171513Y0082119D01*
X0172747Y0083354D01*
X0172747Y0085823D01*
X0171513Y0087057D01*
X0170278Y0087057D01*
X0167809Y0085823D01*
X0167809Y0089526D01*
X0172747Y0089526D01*
X0165197Y0088291D02*
X0163962Y0089526D01*
X0161493Y0089526D01*
X0204354Y0088291D02*
X0204354Y0083354D01*
X0205588Y0082119D01*
X0208057Y0082119D01*
X0209291Y0083354D01*
X0211904Y0082119D02*
X0216842Y0087057D01*
X0216842Y0088291D01*
X0215607Y0089526D01*
X0213138Y0089526D01*
X0211904Y0088291D01*
X0209291Y0088291D02*
X0208057Y0089526D01*
X0205588Y0089526D01*
X0204354Y0088291D01*
X0211904Y0082119D02*
X0216842Y0082119D01*
X0219454Y0083354D02*
X0220689Y0082119D01*
X0223158Y0082119D01*
X0224392Y0083354D01*
X0224392Y0085823D01*
X0223158Y0087057D01*
X0221923Y0087057D01*
X0219454Y0085823D01*
X0219454Y0089526D01*
X0224392Y0089526D01*
X0224843Y0097962D02*
X0224843Y0104134D01*
X0223608Y0105368D01*
X0221139Y0105368D01*
X0219905Y0104134D01*
X0219905Y0097962D01*
X0217292Y0100431D02*
X0214823Y0097962D01*
X0214823Y0105368D01*
X0212355Y0105368D02*
X0217292Y0105368D01*
X0238930Y0044528D02*
X0178930Y0044528D01*
X0178930Y0043347D01*
X0238930Y0043347D01*
X0238930Y0044528D01*
X0238930Y0043347D02*
X0238930Y0041682D01*
X0238930Y0040898D01*
X0178930Y0040898D01*
X0178930Y0043347D01*
X0178930Y0040898D02*
X0178930Y0038221D01*
X0178930Y0036282D01*
X0178930Y0020547D01*
X0178930Y0018645D01*
X0178930Y0012638D01*
X0238930Y0012638D01*
X0238930Y0018645D01*
X0238930Y0020547D01*
X0238930Y0036282D01*
X0238930Y0038221D01*
X0178930Y0038221D01*
X0181391Y0028485D02*
X0181393Y0028670D01*
X0181400Y0028855D01*
X0181411Y0029040D01*
X0181427Y0029224D01*
X0181448Y0029408D01*
X0181473Y0029591D01*
X0181502Y0029774D01*
X0181536Y0029956D01*
X0181574Y0030137D01*
X0181617Y0030317D01*
X0181664Y0030496D01*
X0181716Y0030673D01*
X0181772Y0030850D01*
X0181832Y0031025D01*
X0181896Y0031198D01*
X0181965Y0031370D01*
X0182038Y0031540D01*
X0182115Y0031708D01*
X0182196Y0031875D01*
X0182281Y0032039D01*
X0182370Y0032201D01*
X0182464Y0032361D01*
X0182561Y0032518D01*
X0182662Y0032673D01*
X0182766Y0032826D01*
X0182875Y0032976D01*
X0182987Y0033123D01*
X0183102Y0033268D01*
X0183221Y0033409D01*
X0183344Y0033548D01*
X0183470Y0033683D01*
X0183599Y0033816D01*
X0183732Y0033945D01*
X0183867Y0034071D01*
X0184006Y0034194D01*
X0184147Y0034313D01*
X0184292Y0034428D01*
X0184439Y0034540D01*
X0184589Y0034649D01*
X0184742Y0034753D01*
X0184897Y0034854D01*
X0185054Y0034951D01*
X0185214Y0035045D01*
X0185376Y0035134D01*
X0185540Y0035219D01*
X0185707Y0035300D01*
X0185875Y0035377D01*
X0186045Y0035450D01*
X0186217Y0035519D01*
X0186390Y0035583D01*
X0186565Y0035643D01*
X0186742Y0035699D01*
X0186919Y0035751D01*
X0187098Y0035798D01*
X0187278Y0035841D01*
X0187459Y0035879D01*
X0187641Y0035913D01*
X0187824Y0035942D01*
X0188007Y0035967D01*
X0188191Y0035988D01*
X0188375Y0036004D01*
X0188560Y0036015D01*
X0188745Y0036022D01*
X0188930Y0036024D01*
X0189115Y0036022D01*
X0189300Y0036015D01*
X0189485Y0036004D01*
X0189669Y0035988D01*
X0189853Y0035967D01*
X0190036Y0035942D01*
X0190219Y0035913D01*
X0190401Y0035879D01*
X0190582Y0035841D01*
X0190762Y0035798D01*
X0190941Y0035751D01*
X0191118Y0035699D01*
X0191295Y0035643D01*
X0191470Y0035583D01*
X0191643Y0035519D01*
X0191815Y0035450D01*
X0191985Y0035377D01*
X0192153Y0035300D01*
X0192320Y0035219D01*
X0192484Y0035134D01*
X0192646Y0035045D01*
X0192806Y0034951D01*
X0192963Y0034854D01*
X0193118Y0034753D01*
X0193271Y0034649D01*
X0193421Y0034540D01*
X0193568Y0034428D01*
X0193713Y0034313D01*
X0193854Y0034194D01*
X0193993Y0034071D01*
X0194128Y0033945D01*
X0194261Y0033816D01*
X0194390Y0033683D01*
X0194516Y0033548D01*
X0194639Y0033409D01*
X0194758Y0033268D01*
X0194873Y0033123D01*
X0194985Y0032976D01*
X0195094Y0032826D01*
X0195198Y0032673D01*
X0195299Y0032518D01*
X0195396Y0032361D01*
X0195490Y0032201D01*
X0195579Y0032039D01*
X0195664Y0031875D01*
X0195745Y0031708D01*
X0195822Y0031540D01*
X0195895Y0031370D01*
X0195964Y0031198D01*
X0196028Y0031025D01*
X0196088Y0030850D01*
X0196144Y0030673D01*
X0196196Y0030496D01*
X0196243Y0030317D01*
X0196286Y0030137D01*
X0196324Y0029956D01*
X0196358Y0029774D01*
X0196387Y0029591D01*
X0196412Y0029408D01*
X0196433Y0029224D01*
X0196449Y0029040D01*
X0196460Y0028855D01*
X0196467Y0028670D01*
X0196469Y0028485D01*
X0196467Y0028300D01*
X0196460Y0028115D01*
X0196449Y0027930D01*
X0196433Y0027746D01*
X0196412Y0027562D01*
X0196387Y0027379D01*
X0196358Y0027196D01*
X0196324Y0027014D01*
X0196286Y0026833D01*
X0196243Y0026653D01*
X0196196Y0026474D01*
X0196144Y0026297D01*
X0196088Y0026120D01*
X0196028Y0025945D01*
X0195964Y0025772D01*
X0195895Y0025600D01*
X0195822Y0025430D01*
X0195745Y0025262D01*
X0195664Y0025095D01*
X0195579Y0024931D01*
X0195490Y0024769D01*
X0195396Y0024609D01*
X0195299Y0024452D01*
X0195198Y0024297D01*
X0195094Y0024144D01*
X0194985Y0023994D01*
X0194873Y0023847D01*
X0194758Y0023702D01*
X0194639Y0023561D01*
X0194516Y0023422D01*
X0194390Y0023287D01*
X0194261Y0023154D01*
X0194128Y0023025D01*
X0193993Y0022899D01*
X0193854Y0022776D01*
X0193713Y0022657D01*
X0193568Y0022542D01*
X0193421Y0022430D01*
X0193271Y0022321D01*
X0193118Y0022217D01*
X0192963Y0022116D01*
X0192806Y0022019D01*
X0192646Y0021925D01*
X0192484Y0021836D01*
X0192320Y0021751D01*
X0192153Y0021670D01*
X0191985Y0021593D01*
X0191815Y0021520D01*
X0191643Y0021451D01*
X0191470Y0021387D01*
X0191295Y0021327D01*
X0191118Y0021271D01*
X0190941Y0021219D01*
X0190762Y0021172D01*
X0190582Y0021129D01*
X0190401Y0021091D01*
X0190219Y0021057D01*
X0190036Y0021028D01*
X0189853Y0021003D01*
X0189669Y0020982D01*
X0189485Y0020966D01*
X0189300Y0020955D01*
X0189115Y0020948D01*
X0188930Y0020946D01*
X0188745Y0020948D01*
X0188560Y0020955D01*
X0188375Y0020966D01*
X0188191Y0020982D01*
X0188007Y0021003D01*
X0187824Y0021028D01*
X0187641Y0021057D01*
X0187459Y0021091D01*
X0187278Y0021129D01*
X0187098Y0021172D01*
X0186919Y0021219D01*
X0186742Y0021271D01*
X0186565Y0021327D01*
X0186390Y0021387D01*
X0186217Y0021451D01*
X0186045Y0021520D01*
X0185875Y0021593D01*
X0185707Y0021670D01*
X0185540Y0021751D01*
X0185376Y0021836D01*
X0185214Y0021925D01*
X0185054Y0022019D01*
X0184897Y0022116D01*
X0184742Y0022217D01*
X0184589Y0022321D01*
X0184439Y0022430D01*
X0184292Y0022542D01*
X0184147Y0022657D01*
X0184006Y0022776D01*
X0183867Y0022899D01*
X0183732Y0023025D01*
X0183599Y0023154D01*
X0183470Y0023287D01*
X0183344Y0023422D01*
X0183221Y0023561D01*
X0183102Y0023702D01*
X0182987Y0023847D01*
X0182875Y0023994D01*
X0182766Y0024144D01*
X0182662Y0024297D01*
X0182561Y0024452D01*
X0182464Y0024609D01*
X0182370Y0024769D01*
X0182281Y0024931D01*
X0182196Y0025095D01*
X0182115Y0025262D01*
X0182038Y0025430D01*
X0181965Y0025600D01*
X0181896Y0025772D01*
X0181832Y0025945D01*
X0181772Y0026120D01*
X0181716Y0026297D01*
X0181664Y0026474D01*
X0181617Y0026653D01*
X0181574Y0026833D01*
X0181536Y0027014D01*
X0181502Y0027196D01*
X0181473Y0027379D01*
X0181448Y0027562D01*
X0181427Y0027746D01*
X0181411Y0027930D01*
X0181400Y0028115D01*
X0181393Y0028300D01*
X0181391Y0028485D01*
X0178930Y0018645D02*
X0238930Y0018645D01*
X0221391Y0028485D02*
X0221393Y0028670D01*
X0221400Y0028855D01*
X0221411Y0029040D01*
X0221427Y0029224D01*
X0221448Y0029408D01*
X0221473Y0029591D01*
X0221502Y0029774D01*
X0221536Y0029956D01*
X0221574Y0030137D01*
X0221617Y0030317D01*
X0221664Y0030496D01*
X0221716Y0030673D01*
X0221772Y0030850D01*
X0221832Y0031025D01*
X0221896Y0031198D01*
X0221965Y0031370D01*
X0222038Y0031540D01*
X0222115Y0031708D01*
X0222196Y0031875D01*
X0222281Y0032039D01*
X0222370Y0032201D01*
X0222464Y0032361D01*
X0222561Y0032518D01*
X0222662Y0032673D01*
X0222766Y0032826D01*
X0222875Y0032976D01*
X0222987Y0033123D01*
X0223102Y0033268D01*
X0223221Y0033409D01*
X0223344Y0033548D01*
X0223470Y0033683D01*
X0223599Y0033816D01*
X0223732Y0033945D01*
X0223867Y0034071D01*
X0224006Y0034194D01*
X0224147Y0034313D01*
X0224292Y0034428D01*
X0224439Y0034540D01*
X0224589Y0034649D01*
X0224742Y0034753D01*
X0224897Y0034854D01*
X0225054Y0034951D01*
X0225214Y0035045D01*
X0225376Y0035134D01*
X0225540Y0035219D01*
X0225707Y0035300D01*
X0225875Y0035377D01*
X0226045Y0035450D01*
X0226217Y0035519D01*
X0226390Y0035583D01*
X0226565Y0035643D01*
X0226742Y0035699D01*
X0226919Y0035751D01*
X0227098Y0035798D01*
X0227278Y0035841D01*
X0227459Y0035879D01*
X0227641Y0035913D01*
X0227824Y0035942D01*
X0228007Y0035967D01*
X0228191Y0035988D01*
X0228375Y0036004D01*
X0228560Y0036015D01*
X0228745Y0036022D01*
X0228930Y0036024D01*
X0229115Y0036022D01*
X0229300Y0036015D01*
X0229485Y0036004D01*
X0229669Y0035988D01*
X0229853Y0035967D01*
X0230036Y0035942D01*
X0230219Y0035913D01*
X0230401Y0035879D01*
X0230582Y0035841D01*
X0230762Y0035798D01*
X0230941Y0035751D01*
X0231118Y0035699D01*
X0231295Y0035643D01*
X0231470Y0035583D01*
X0231643Y0035519D01*
X0231815Y0035450D01*
X0231985Y0035377D01*
X0232153Y0035300D01*
X0232320Y0035219D01*
X0232484Y0035134D01*
X0232646Y0035045D01*
X0232806Y0034951D01*
X0232963Y0034854D01*
X0233118Y0034753D01*
X0233271Y0034649D01*
X0233421Y0034540D01*
X0233568Y0034428D01*
X0233713Y0034313D01*
X0233854Y0034194D01*
X0233993Y0034071D01*
X0234128Y0033945D01*
X0234261Y0033816D01*
X0234390Y0033683D01*
X0234516Y0033548D01*
X0234639Y0033409D01*
X0234758Y0033268D01*
X0234873Y0033123D01*
X0234985Y0032976D01*
X0235094Y0032826D01*
X0235198Y0032673D01*
X0235299Y0032518D01*
X0235396Y0032361D01*
X0235490Y0032201D01*
X0235579Y0032039D01*
X0235664Y0031875D01*
X0235745Y0031708D01*
X0235822Y0031540D01*
X0235895Y0031370D01*
X0235964Y0031198D01*
X0236028Y0031025D01*
X0236088Y0030850D01*
X0236144Y0030673D01*
X0236196Y0030496D01*
X0236243Y0030317D01*
X0236286Y0030137D01*
X0236324Y0029956D01*
X0236358Y0029774D01*
X0236387Y0029591D01*
X0236412Y0029408D01*
X0236433Y0029224D01*
X0236449Y0029040D01*
X0236460Y0028855D01*
X0236467Y0028670D01*
X0236469Y0028485D01*
X0236467Y0028300D01*
X0236460Y0028115D01*
X0236449Y0027930D01*
X0236433Y0027746D01*
X0236412Y0027562D01*
X0236387Y0027379D01*
X0236358Y0027196D01*
X0236324Y0027014D01*
X0236286Y0026833D01*
X0236243Y0026653D01*
X0236196Y0026474D01*
X0236144Y0026297D01*
X0236088Y0026120D01*
X0236028Y0025945D01*
X0235964Y0025772D01*
X0235895Y0025600D01*
X0235822Y0025430D01*
X0235745Y0025262D01*
X0235664Y0025095D01*
X0235579Y0024931D01*
X0235490Y0024769D01*
X0235396Y0024609D01*
X0235299Y0024452D01*
X0235198Y0024297D01*
X0235094Y0024144D01*
X0234985Y0023994D01*
X0234873Y0023847D01*
X0234758Y0023702D01*
X0234639Y0023561D01*
X0234516Y0023422D01*
X0234390Y0023287D01*
X0234261Y0023154D01*
X0234128Y0023025D01*
X0233993Y0022899D01*
X0233854Y0022776D01*
X0233713Y0022657D01*
X0233568Y0022542D01*
X0233421Y0022430D01*
X0233271Y0022321D01*
X0233118Y0022217D01*
X0232963Y0022116D01*
X0232806Y0022019D01*
X0232646Y0021925D01*
X0232484Y0021836D01*
X0232320Y0021751D01*
X0232153Y0021670D01*
X0231985Y0021593D01*
X0231815Y0021520D01*
X0231643Y0021451D01*
X0231470Y0021387D01*
X0231295Y0021327D01*
X0231118Y0021271D01*
X0230941Y0021219D01*
X0230762Y0021172D01*
X0230582Y0021129D01*
X0230401Y0021091D01*
X0230219Y0021057D01*
X0230036Y0021028D01*
X0229853Y0021003D01*
X0229669Y0020982D01*
X0229485Y0020966D01*
X0229300Y0020955D01*
X0229115Y0020948D01*
X0228930Y0020946D01*
X0228745Y0020948D01*
X0228560Y0020955D01*
X0228375Y0020966D01*
X0228191Y0020982D01*
X0228007Y0021003D01*
X0227824Y0021028D01*
X0227641Y0021057D01*
X0227459Y0021091D01*
X0227278Y0021129D01*
X0227098Y0021172D01*
X0226919Y0021219D01*
X0226742Y0021271D01*
X0226565Y0021327D01*
X0226390Y0021387D01*
X0226217Y0021451D01*
X0226045Y0021520D01*
X0225875Y0021593D01*
X0225707Y0021670D01*
X0225540Y0021751D01*
X0225376Y0021836D01*
X0225214Y0021925D01*
X0225054Y0022019D01*
X0224897Y0022116D01*
X0224742Y0022217D01*
X0224589Y0022321D01*
X0224439Y0022430D01*
X0224292Y0022542D01*
X0224147Y0022657D01*
X0224006Y0022776D01*
X0223867Y0022899D01*
X0223732Y0023025D01*
X0223599Y0023154D01*
X0223470Y0023287D01*
X0223344Y0023422D01*
X0223221Y0023561D01*
X0223102Y0023702D01*
X0222987Y0023847D01*
X0222875Y0023994D01*
X0222766Y0024144D01*
X0222662Y0024297D01*
X0222561Y0024452D01*
X0222464Y0024609D01*
X0222370Y0024769D01*
X0222281Y0024931D01*
X0222196Y0025095D01*
X0222115Y0025262D01*
X0222038Y0025430D01*
X0221965Y0025600D01*
X0221896Y0025772D01*
X0221832Y0025945D01*
X0221772Y0026120D01*
X0221716Y0026297D01*
X0221664Y0026474D01*
X0221617Y0026653D01*
X0221574Y0026833D01*
X0221536Y0027014D01*
X0221502Y0027196D01*
X0221473Y0027379D01*
X0221448Y0027562D01*
X0221427Y0027746D01*
X0221411Y0027930D01*
X0221400Y0028115D01*
X0221393Y0028300D01*
X0221391Y0028485D01*
X0201391Y0028485D02*
X0201393Y0028670D01*
X0201400Y0028855D01*
X0201411Y0029040D01*
X0201427Y0029224D01*
X0201448Y0029408D01*
X0201473Y0029591D01*
X0201502Y0029774D01*
X0201536Y0029956D01*
X0201574Y0030137D01*
X0201617Y0030317D01*
X0201664Y0030496D01*
X0201716Y0030673D01*
X0201772Y0030850D01*
X0201832Y0031025D01*
X0201896Y0031198D01*
X0201965Y0031370D01*
X0202038Y0031540D01*
X0202115Y0031708D01*
X0202196Y0031875D01*
X0202281Y0032039D01*
X0202370Y0032201D01*
X0202464Y0032361D01*
X0202561Y0032518D01*
X0202662Y0032673D01*
X0202766Y0032826D01*
X0202875Y0032976D01*
X0202987Y0033123D01*
X0203102Y0033268D01*
X0203221Y0033409D01*
X0203344Y0033548D01*
X0203470Y0033683D01*
X0203599Y0033816D01*
X0203732Y0033945D01*
X0203867Y0034071D01*
X0204006Y0034194D01*
X0204147Y0034313D01*
X0204292Y0034428D01*
X0204439Y0034540D01*
X0204589Y0034649D01*
X0204742Y0034753D01*
X0204897Y0034854D01*
X0205054Y0034951D01*
X0205214Y0035045D01*
X0205376Y0035134D01*
X0205540Y0035219D01*
X0205707Y0035300D01*
X0205875Y0035377D01*
X0206045Y0035450D01*
X0206217Y0035519D01*
X0206390Y0035583D01*
X0206565Y0035643D01*
X0206742Y0035699D01*
X0206919Y0035751D01*
X0207098Y0035798D01*
X0207278Y0035841D01*
X0207459Y0035879D01*
X0207641Y0035913D01*
X0207824Y0035942D01*
X0208007Y0035967D01*
X0208191Y0035988D01*
X0208375Y0036004D01*
X0208560Y0036015D01*
X0208745Y0036022D01*
X0208930Y0036024D01*
X0209115Y0036022D01*
X0209300Y0036015D01*
X0209485Y0036004D01*
X0209669Y0035988D01*
X0209853Y0035967D01*
X0210036Y0035942D01*
X0210219Y0035913D01*
X0210401Y0035879D01*
X0210582Y0035841D01*
X0210762Y0035798D01*
X0210941Y0035751D01*
X0211118Y0035699D01*
X0211295Y0035643D01*
X0211470Y0035583D01*
X0211643Y0035519D01*
X0211815Y0035450D01*
X0211985Y0035377D01*
X0212153Y0035300D01*
X0212320Y0035219D01*
X0212484Y0035134D01*
X0212646Y0035045D01*
X0212806Y0034951D01*
X0212963Y0034854D01*
X0213118Y0034753D01*
X0213271Y0034649D01*
X0213421Y0034540D01*
X0213568Y0034428D01*
X0213713Y0034313D01*
X0213854Y0034194D01*
X0213993Y0034071D01*
X0214128Y0033945D01*
X0214261Y0033816D01*
X0214390Y0033683D01*
X0214516Y0033548D01*
X0214639Y0033409D01*
X0214758Y0033268D01*
X0214873Y0033123D01*
X0214985Y0032976D01*
X0215094Y0032826D01*
X0215198Y0032673D01*
X0215299Y0032518D01*
X0215396Y0032361D01*
X0215490Y0032201D01*
X0215579Y0032039D01*
X0215664Y0031875D01*
X0215745Y0031708D01*
X0215822Y0031540D01*
X0215895Y0031370D01*
X0215964Y0031198D01*
X0216028Y0031025D01*
X0216088Y0030850D01*
X0216144Y0030673D01*
X0216196Y0030496D01*
X0216243Y0030317D01*
X0216286Y0030137D01*
X0216324Y0029956D01*
X0216358Y0029774D01*
X0216387Y0029591D01*
X0216412Y0029408D01*
X0216433Y0029224D01*
X0216449Y0029040D01*
X0216460Y0028855D01*
X0216467Y0028670D01*
X0216469Y0028485D01*
X0216467Y0028300D01*
X0216460Y0028115D01*
X0216449Y0027930D01*
X0216433Y0027746D01*
X0216412Y0027562D01*
X0216387Y0027379D01*
X0216358Y0027196D01*
X0216324Y0027014D01*
X0216286Y0026833D01*
X0216243Y0026653D01*
X0216196Y0026474D01*
X0216144Y0026297D01*
X0216088Y0026120D01*
X0216028Y0025945D01*
X0215964Y0025772D01*
X0215895Y0025600D01*
X0215822Y0025430D01*
X0215745Y0025262D01*
X0215664Y0025095D01*
X0215579Y0024931D01*
X0215490Y0024769D01*
X0215396Y0024609D01*
X0215299Y0024452D01*
X0215198Y0024297D01*
X0215094Y0024144D01*
X0214985Y0023994D01*
X0214873Y0023847D01*
X0214758Y0023702D01*
X0214639Y0023561D01*
X0214516Y0023422D01*
X0214390Y0023287D01*
X0214261Y0023154D01*
X0214128Y0023025D01*
X0213993Y0022899D01*
X0213854Y0022776D01*
X0213713Y0022657D01*
X0213568Y0022542D01*
X0213421Y0022430D01*
X0213271Y0022321D01*
X0213118Y0022217D01*
X0212963Y0022116D01*
X0212806Y0022019D01*
X0212646Y0021925D01*
X0212484Y0021836D01*
X0212320Y0021751D01*
X0212153Y0021670D01*
X0211985Y0021593D01*
X0211815Y0021520D01*
X0211643Y0021451D01*
X0211470Y0021387D01*
X0211295Y0021327D01*
X0211118Y0021271D01*
X0210941Y0021219D01*
X0210762Y0021172D01*
X0210582Y0021129D01*
X0210401Y0021091D01*
X0210219Y0021057D01*
X0210036Y0021028D01*
X0209853Y0021003D01*
X0209669Y0020982D01*
X0209485Y0020966D01*
X0209300Y0020955D01*
X0209115Y0020948D01*
X0208930Y0020946D01*
X0208745Y0020948D01*
X0208560Y0020955D01*
X0208375Y0020966D01*
X0208191Y0020982D01*
X0208007Y0021003D01*
X0207824Y0021028D01*
X0207641Y0021057D01*
X0207459Y0021091D01*
X0207278Y0021129D01*
X0207098Y0021172D01*
X0206919Y0021219D01*
X0206742Y0021271D01*
X0206565Y0021327D01*
X0206390Y0021387D01*
X0206217Y0021451D01*
X0206045Y0021520D01*
X0205875Y0021593D01*
X0205707Y0021670D01*
X0205540Y0021751D01*
X0205376Y0021836D01*
X0205214Y0021925D01*
X0205054Y0022019D01*
X0204897Y0022116D01*
X0204742Y0022217D01*
X0204589Y0022321D01*
X0204439Y0022430D01*
X0204292Y0022542D01*
X0204147Y0022657D01*
X0204006Y0022776D01*
X0203867Y0022899D01*
X0203732Y0023025D01*
X0203599Y0023154D01*
X0203470Y0023287D01*
X0203344Y0023422D01*
X0203221Y0023561D01*
X0203102Y0023702D01*
X0202987Y0023847D01*
X0202875Y0023994D01*
X0202766Y0024144D01*
X0202662Y0024297D01*
X0202561Y0024452D01*
X0202464Y0024609D01*
X0202370Y0024769D01*
X0202281Y0024931D01*
X0202196Y0025095D01*
X0202115Y0025262D01*
X0202038Y0025430D01*
X0201965Y0025600D01*
X0201896Y0025772D01*
X0201832Y0025945D01*
X0201772Y0026120D01*
X0201716Y0026297D01*
X0201664Y0026474D01*
X0201617Y0026653D01*
X0201574Y0026833D01*
X0201536Y0027014D01*
X0201502Y0027196D01*
X0201473Y0027379D01*
X0201448Y0027562D01*
X0201427Y0027746D01*
X0201411Y0027930D01*
X0201400Y0028115D01*
X0201393Y0028300D01*
X0201391Y0028485D01*
X0238930Y0038221D02*
X0238930Y0040052D01*
X0238930Y0040898D01*
X0238930Y0041682D02*
X0239437Y0041682D01*
X0240139Y0042272D01*
X0241174Y0042272D01*
X0241174Y0039461D01*
X0240139Y0039461D01*
X0239437Y0040052D01*
X0238930Y0040052D01*
X0062287Y0148574D02*
X0061053Y0147340D01*
X0058584Y0147340D01*
X0057350Y0148574D01*
X0057350Y0149809D01*
X0058584Y0151043D01*
X0061053Y0151043D01*
X0062287Y0149809D01*
X0062287Y0148574D01*
X0061053Y0151043D02*
X0062287Y0152277D01*
X0062287Y0153512D01*
X0061053Y0154746D01*
X0058584Y0154746D01*
X0057350Y0153512D01*
X0057350Y0152277D01*
X0058584Y0151043D01*
X0054737Y0147340D02*
X0049799Y0147340D01*
X0052268Y0147340D02*
X0052268Y0154746D01*
X0049799Y0152277D01*
X0047186Y0153512D02*
X0045952Y0154746D01*
X0043483Y0154746D01*
X0042249Y0153512D01*
X0042249Y0148574D01*
X0043483Y0147340D01*
X0045952Y0147340D01*
X0047186Y0148574D01*
D13*
X0046445Y0154236D02*
X0049514Y0154236D01*
X0050281Y0155003D01*
X0050281Y0156538D01*
X0049514Y0157305D01*
X0050281Y0158840D02*
X0047212Y0161909D01*
X0046445Y0161909D01*
X0045677Y0161142D01*
X0045677Y0159607D01*
X0046445Y0158840D01*
X0046445Y0157305D02*
X0045677Y0156538D01*
X0045677Y0155003D01*
X0046445Y0154236D01*
X0050281Y0158840D02*
X0050281Y0161909D01*
X0049514Y0163444D02*
X0050281Y0164211D01*
X0050281Y0165746D01*
X0049514Y0166513D01*
X0048746Y0166513D01*
X0047979Y0165746D01*
X0047979Y0164978D01*
X0047979Y0165746D02*
X0047212Y0166513D01*
X0046445Y0166513D01*
X0045677Y0165746D01*
X0045677Y0164211D01*
X0046445Y0163444D01*
X0061032Y0165746D02*
X0063333Y0163444D01*
X0063333Y0166513D01*
X0061032Y0165746D02*
X0065635Y0165746D01*
X0065635Y0161909D02*
X0065635Y0158840D01*
X0062566Y0161909D01*
X0061799Y0161909D01*
X0061032Y0161142D01*
X0061032Y0159607D01*
X0061799Y0158840D01*
X0061799Y0157305D02*
X0061032Y0156538D01*
X0061032Y0155003D01*
X0061799Y0154236D01*
X0064868Y0154236D01*
X0065635Y0155003D01*
X0065635Y0156538D01*
X0064868Y0157305D01*
X0027250Y0142714D02*
X0022646Y0142714D01*
X0024948Y0140412D01*
X0024948Y0143482D01*
X0027250Y0138878D02*
X0027250Y0135808D01*
X0027250Y0137343D02*
X0022646Y0137343D01*
X0024180Y0135808D01*
X0023413Y0134274D02*
X0022646Y0133506D01*
X0022646Y0131972D01*
X0023413Y0131204D01*
X0026482Y0131204D01*
X0027250Y0131972D01*
X0027250Y0133506D01*
X0026482Y0134274D01*
X0017013Y0133506D02*
X0017013Y0131972D01*
X0016246Y0131204D01*
X0013177Y0131204D01*
X0012409Y0131972D01*
X0012409Y0133506D01*
X0013177Y0134274D01*
X0013944Y0135808D02*
X0012409Y0137343D01*
X0017013Y0137343D01*
X0017013Y0135808D02*
X0017013Y0138878D01*
X0016246Y0140412D02*
X0017013Y0141180D01*
X0017013Y0142714D01*
X0016246Y0143482D01*
X0014711Y0143482D01*
X0013944Y0142714D01*
X0013944Y0141947D01*
X0014711Y0140412D01*
X0012409Y0140412D01*
X0012409Y0143482D01*
X0016246Y0134274D02*
X0017013Y0133506D01*
X0080627Y0101497D02*
X0080627Y0096893D01*
X0083696Y0096893D01*
X0085231Y0096893D02*
X0088300Y0099963D01*
X0088300Y0100730D01*
X0087533Y0101497D01*
X0085998Y0101497D01*
X0085231Y0100730D01*
X0085231Y0096893D02*
X0088300Y0096893D01*
X0091130Y0093285D02*
X0090362Y0092517D01*
X0090362Y0090983D01*
X0091130Y0090215D01*
X0091130Y0093285D02*
X0091897Y0093285D01*
X0094966Y0090215D01*
X0094966Y0093285D01*
X0094966Y0088681D02*
X0094966Y0085612D01*
X0094966Y0087146D02*
X0090362Y0087146D01*
X0091897Y0085612D01*
X0091130Y0084077D02*
X0090362Y0083310D01*
X0090362Y0081775D01*
X0091130Y0081008D01*
X0094199Y0081008D01*
X0094966Y0081775D01*
X0094966Y0083310D01*
X0094199Y0084077D01*
X0094661Y0067029D02*
X0094661Y0062425D01*
X0093127Y0062425D02*
X0096196Y0062425D01*
X0097731Y0063192D02*
X0098498Y0062425D01*
X0100033Y0062425D01*
X0100800Y0063192D01*
X0100800Y0063960D01*
X0100033Y0064727D01*
X0099265Y0064727D01*
X0100033Y0064727D02*
X0100800Y0065494D01*
X0100800Y0066262D01*
X0100033Y0067029D01*
X0098498Y0067029D01*
X0097731Y0066262D01*
X0094661Y0067029D02*
X0093127Y0065494D01*
X0091592Y0066262D02*
X0090825Y0067029D01*
X0089290Y0067029D01*
X0088523Y0066262D01*
X0088523Y0063192D01*
X0089290Y0062425D01*
X0090825Y0062425D01*
X0091592Y0063192D01*
X0105146Y0055812D02*
X0105146Y0054277D01*
X0105913Y0053510D01*
X0105913Y0051975D02*
X0105146Y0051208D01*
X0105146Y0048906D01*
X0109750Y0048906D01*
X0109750Y0051208D01*
X0108982Y0051975D01*
X0105913Y0051975D01*
X0109750Y0053510D02*
X0106680Y0056579D01*
X0105913Y0056579D01*
X0105146Y0055812D01*
X0109750Y0056579D02*
X0109750Y0053510D01*
X0111976Y0055339D02*
X0112744Y0053804D01*
X0114278Y0052270D01*
X0114278Y0054572D01*
X0115046Y0055339D01*
X0115813Y0055339D01*
X0116580Y0054572D01*
X0116580Y0053037D01*
X0115813Y0052270D01*
X0114278Y0052270D01*
X0114278Y0050735D02*
X0112744Y0050735D01*
X0111976Y0049968D01*
X0111976Y0047666D01*
X0116580Y0047666D01*
X0115046Y0047666D02*
X0115046Y0049968D01*
X0114278Y0050735D01*
X0115046Y0049200D02*
X0116580Y0050735D01*
X0115813Y0042544D02*
X0115046Y0042544D01*
X0114278Y0041776D01*
X0114278Y0039474D01*
X0115813Y0039474D01*
X0116580Y0040242D01*
X0116580Y0041776D01*
X0115813Y0042544D01*
X0112744Y0041009D02*
X0114278Y0039474D01*
X0112744Y0041009D02*
X0111976Y0042544D01*
X0116580Y0037940D02*
X0116580Y0034871D01*
X0116580Y0036405D02*
X0111976Y0036405D01*
X0113511Y0034871D01*
X0112744Y0033336D02*
X0111976Y0032569D01*
X0111976Y0031034D01*
X0112744Y0030267D01*
X0115813Y0030267D01*
X0116580Y0031034D01*
X0116580Y0032569D01*
X0115813Y0033336D01*
X0148197Y0058790D02*
X0148964Y0058023D01*
X0152033Y0058023D01*
X0152801Y0058790D01*
X0152801Y0060325D01*
X0152033Y0061092D01*
X0152801Y0062626D02*
X0152801Y0065696D01*
X0152801Y0067230D02*
X0152801Y0070300D01*
X0152801Y0068765D02*
X0148197Y0068765D01*
X0149732Y0067230D01*
X0148197Y0064161D02*
X0152801Y0064161D01*
X0149732Y0062626D02*
X0148197Y0064161D01*
X0148964Y0061092D02*
X0148197Y0060325D01*
X0148197Y0058790D01*
X0198846Y0098906D02*
X0198846Y0101208D01*
X0199614Y0101975D01*
X0202683Y0101975D01*
X0203450Y0101208D01*
X0203450Y0098906D01*
X0198846Y0098906D01*
X0201298Y0100614D02*
X0200531Y0101381D01*
X0200531Y0104450D01*
X0201298Y0105218D01*
X0202833Y0105218D01*
X0203600Y0104450D01*
X0203450Y0105045D02*
X0198846Y0105045D01*
X0200381Y0103510D01*
X0201298Y0100614D02*
X0202833Y0100614D01*
X0203600Y0101381D01*
X0205135Y0100614D02*
X0208204Y0100614D01*
X0206669Y0100614D02*
X0206669Y0105218D01*
X0205135Y0103683D01*
X0203450Y0103510D02*
X0203450Y0106579D01*
X0209739Y0104450D02*
X0209739Y0101381D01*
X0212808Y0104450D01*
X0212808Y0101381D01*
X0212041Y0100614D01*
X0210506Y0100614D01*
X0209739Y0101381D01*
X0209739Y0104450D02*
X0210506Y0105218D01*
X0212041Y0105218D01*
X0212808Y0104450D01*
X0224614Y0120771D02*
X0224614Y0123073D01*
X0225382Y0123841D01*
X0226916Y0123841D01*
X0227683Y0123073D01*
X0227683Y0120771D01*
X0227683Y0122306D02*
X0229218Y0123841D01*
X0229218Y0125375D02*
X0226149Y0128445D01*
X0225382Y0128445D01*
X0224614Y0127677D01*
X0224614Y0126143D01*
X0225382Y0125375D01*
X0229218Y0125375D02*
X0229218Y0128445D01*
X0235047Y0127107D02*
X0239651Y0127107D01*
X0239651Y0128641D02*
X0239651Y0125572D01*
X0239651Y0124037D02*
X0238117Y0122503D01*
X0238117Y0123270D02*
X0238117Y0120968D01*
X0239651Y0120968D02*
X0235047Y0120968D01*
X0235047Y0123270D01*
X0235815Y0124037D01*
X0237349Y0124037D01*
X0238117Y0123270D01*
X0236582Y0125572D02*
X0235047Y0127107D01*
X0229218Y0120771D02*
X0224614Y0120771D01*
X0232965Y0116813D02*
X0232965Y0113743D01*
X0233732Y0112976D01*
X0235267Y0112976D01*
X0236034Y0113743D01*
X0237568Y0113743D02*
X0237568Y0112976D01*
X0237568Y0113743D02*
X0240638Y0116813D01*
X0240638Y0117580D01*
X0237568Y0117580D01*
X0236034Y0116813D02*
X0235267Y0117580D01*
X0233732Y0117580D01*
X0232965Y0116813D01*
X0229218Y0134354D02*
X0224614Y0134354D01*
X0224614Y0136656D01*
X0225382Y0137423D01*
X0226916Y0137423D01*
X0227683Y0136656D01*
X0227683Y0134354D01*
X0227683Y0135889D02*
X0229218Y0137423D01*
X0228451Y0138958D02*
X0229218Y0139725D01*
X0229218Y0141260D01*
X0228451Y0142027D01*
X0227683Y0142027D01*
X0226916Y0141260D01*
X0226916Y0140493D01*
X0226916Y0141260D02*
X0226149Y0142027D01*
X0225382Y0142027D01*
X0224614Y0141260D01*
X0224614Y0139725D01*
X0225382Y0138958D01*
X0146105Y0111825D02*
X0146105Y0108756D01*
X0146105Y0110290D02*
X0141501Y0110290D01*
X0143036Y0108756D01*
X0146105Y0107221D02*
X0146105Y0104152D01*
X0141501Y0104152D01*
X0129966Y0118335D02*
X0125362Y0118335D01*
X0125362Y0120637D01*
X0126130Y0121404D01*
X0127664Y0121404D01*
X0128432Y0120637D01*
X0128432Y0118335D01*
X0128432Y0119870D02*
X0129966Y0121404D01*
X0129199Y0122939D02*
X0129966Y0123706D01*
X0129966Y0125241D01*
X0129199Y0126008D01*
X0127664Y0126008D01*
X0126897Y0125241D01*
X0126897Y0124474D01*
X0127664Y0122939D01*
X0125362Y0122939D01*
X0125362Y0126008D01*
X0109652Y0142412D02*
X0106582Y0142412D01*
X0105815Y0143180D01*
X0105815Y0144714D01*
X0106582Y0145482D01*
X0106582Y0147016D02*
X0105815Y0147784D01*
X0105815Y0149318D01*
X0106582Y0150086D01*
X0107350Y0150086D01*
X0110419Y0147016D01*
X0110419Y0150086D01*
X0110419Y0151620D02*
X0107350Y0154689D01*
X0106582Y0154689D01*
X0105815Y0153922D01*
X0105815Y0152387D01*
X0106582Y0151620D01*
X0110419Y0151620D02*
X0110419Y0154689D01*
X0109652Y0145482D02*
X0110419Y0144714D01*
X0110419Y0143180D01*
X0109652Y0142412D01*
X0125362Y0146485D02*
X0125362Y0148787D01*
X0126130Y0149554D01*
X0127664Y0149554D01*
X0128432Y0148787D01*
X0128432Y0146485D01*
X0129966Y0146485D02*
X0125362Y0146485D01*
X0128432Y0148019D02*
X0129966Y0149554D01*
X0128845Y0150693D02*
X0129612Y0151460D01*
X0129612Y0152995D01*
X0128845Y0153762D01*
X0129966Y0153391D02*
X0125362Y0153391D01*
X0127664Y0151089D01*
X0127664Y0154158D01*
X0128077Y0155297D02*
X0127310Y0156064D01*
X0127310Y0157598D01*
X0128077Y0158366D01*
X0128845Y0158366D01*
X0129612Y0157598D01*
X0129612Y0156064D01*
X0128845Y0155297D01*
X0128077Y0155297D01*
X0127310Y0156064D02*
X0126543Y0155297D01*
X0125775Y0155297D01*
X0125008Y0156064D01*
X0125008Y0157598D01*
X0125775Y0158366D01*
X0126543Y0158366D01*
X0127310Y0157598D01*
X0125775Y0153762D02*
X0125008Y0152995D01*
X0125008Y0151460D01*
X0125775Y0150693D01*
X0128845Y0150693D01*
X0134654Y0151460D02*
X0135421Y0150693D01*
X0138490Y0150693D01*
X0139257Y0151460D01*
X0139257Y0152995D01*
X0138490Y0153762D01*
X0138490Y0155297D02*
X0139257Y0156064D01*
X0139257Y0157598D01*
X0138490Y0158366D01*
X0135421Y0158366D01*
X0134654Y0157598D01*
X0134654Y0156064D01*
X0135421Y0155297D01*
X0136188Y0155297D01*
X0136956Y0156064D01*
X0136956Y0158366D01*
X0135421Y0153762D02*
X0134654Y0152995D01*
X0134654Y0151460D01*
X0133530Y0186369D02*
X0130460Y0186369D01*
X0129693Y0187136D01*
X0129693Y0188671D01*
X0130460Y0189438D01*
X0130460Y0190973D02*
X0129693Y0191740D01*
X0129693Y0193275D01*
X0130460Y0194042D01*
X0131228Y0194042D01*
X0134297Y0190973D01*
X0134297Y0194042D01*
X0134297Y0195577D02*
X0134297Y0198646D01*
X0134297Y0197111D02*
X0129693Y0197111D01*
X0131228Y0195577D01*
X0133530Y0189438D02*
X0134297Y0188671D01*
X0134297Y0187136D01*
X0133530Y0186369D01*
X0124257Y0187136D02*
X0123490Y0186369D01*
X0120421Y0186369D01*
X0119654Y0187136D01*
X0119654Y0188671D01*
X0120421Y0189438D01*
X0120421Y0190973D02*
X0119654Y0191740D01*
X0119654Y0193275D01*
X0120421Y0194042D01*
X0121188Y0194042D01*
X0124257Y0190973D01*
X0124257Y0194042D01*
X0123490Y0195577D02*
X0120421Y0198646D01*
X0123490Y0198646D01*
X0124257Y0197879D01*
X0124257Y0196344D01*
X0123490Y0195577D01*
X0120421Y0195577D01*
X0119654Y0196344D01*
X0119654Y0197879D01*
X0120421Y0198646D01*
X0114218Y0197879D02*
X0114218Y0196344D01*
X0113451Y0195577D01*
X0114218Y0194042D02*
X0114218Y0190973D01*
X0114218Y0192508D02*
X0109614Y0192508D01*
X0111149Y0190973D01*
X0110382Y0189438D02*
X0109614Y0188671D01*
X0109614Y0187136D01*
X0110382Y0186369D01*
X0113451Y0186369D01*
X0114218Y0187136D01*
X0114218Y0188671D01*
X0113451Y0189438D01*
X0111149Y0195577D02*
X0110382Y0195577D01*
X0109614Y0196344D01*
X0109614Y0197879D01*
X0110382Y0198646D01*
X0113451Y0198646D01*
X0114218Y0197879D01*
X0111916Y0198646D02*
X0111916Y0196344D01*
X0111149Y0195577D01*
X0123490Y0189438D02*
X0124257Y0188671D01*
X0124257Y0187136D01*
X0228545Y0010887D02*
X0231614Y0006283D01*
X0233148Y0006283D02*
X0236218Y0006283D01*
X0234683Y0006283D02*
X0234683Y0010887D01*
X0233148Y0009352D01*
X0231614Y0010887D02*
X0228545Y0006283D01*
D14*
X0135735Y0064810D02*
X0132599Y0067946D01*
X0132599Y0066378D02*
X0135735Y0066378D01*
X0135735Y0067946D02*
X0132599Y0064810D01*
X0134167Y0064810D02*
X0134167Y0067946D01*
X0132635Y0076426D02*
X0132635Y0080346D01*
X0131851Y0081130D01*
X0130283Y0081130D01*
X0129499Y0080346D01*
X0129499Y0076426D01*
X0128031Y0077210D02*
X0127247Y0076426D01*
X0125679Y0076426D01*
X0124895Y0077210D01*
X0124895Y0077994D01*
X0128031Y0081130D01*
X0124895Y0081130D01*
X0221357Y0109998D02*
X0224493Y0113134D01*
X0224493Y0111566D02*
X0221357Y0111566D01*
X0221357Y0113134D02*
X0224493Y0109998D01*
X0222925Y0109998D02*
X0222925Y0113134D01*
D15*
X0195993Y0105158D03*
X0183985Y0105158D03*
D16*
X0102686Y0055158D03*
X0093828Y0055158D03*
M02*
