G75*
%MOIN*%
%OFA0B0*%
%FSLAX25Y25*%
%IPPOS*%
%LPD*%
%AMOC8*
5,1,8,0,0,1.08239X$1,22.5*
%
%ADD10OC8,0.05600*%
%ADD11C,0.05600*%
%ADD12R,0.03937X0.04331*%
%ADD13OC8,0.06000*%
%ADD14C,0.01600*%
D10*
X0017272Y0038454D03*
X0017272Y0048454D03*
X0017272Y0058454D03*
X0017272Y0068454D03*
X0017272Y0078454D03*
X0017272Y0088454D03*
X0017272Y0098454D03*
X0017272Y0108454D03*
X0027272Y0108454D03*
X0027272Y0098454D03*
X0027272Y0088454D03*
X0027272Y0078454D03*
X0027272Y0068454D03*
X0027272Y0058454D03*
X0027272Y0048454D03*
X0027272Y0038454D03*
X0031957Y0163139D03*
X0031957Y0173139D03*
X0021957Y0173139D03*
X0041957Y0173139D03*
X0041957Y0163139D03*
X0051957Y0163139D03*
X0051957Y0173139D03*
X0061957Y0173139D03*
X0061957Y0163139D03*
X0071957Y0163139D03*
X0071957Y0173139D03*
X0081957Y0173139D03*
X0081957Y0163139D03*
X0091957Y0163139D03*
X0091957Y0173139D03*
X0101957Y0173139D03*
X0101957Y0163139D03*
X0111957Y0163139D03*
X0111957Y0173139D03*
X0121957Y0173139D03*
X0121957Y0163139D03*
X0131957Y0163139D03*
X0131957Y0173139D03*
X0141957Y0173139D03*
X0141957Y0163139D03*
X0151957Y0163139D03*
X0151957Y0173139D03*
X0161957Y0173139D03*
X0161957Y0163139D03*
X0171957Y0163139D03*
X0171957Y0173139D03*
X0181957Y0173139D03*
X0181957Y0163139D03*
X0191957Y0163139D03*
X0191957Y0173139D03*
X0201957Y0173139D03*
X0201957Y0163139D03*
X0211957Y0163139D03*
X0211957Y0173139D03*
D11*
X0021957Y0163139D03*
D12*
X0112036Y0153572D03*
X0112036Y0146879D03*
X0121879Y0146879D03*
X0121879Y0153572D03*
X0132115Y0153572D03*
X0132115Y0146879D03*
D13*
X0116367Y0232233D03*
X0116367Y0242233D03*
X0106367Y0242233D03*
X0106367Y0232233D03*
X0096367Y0232233D03*
X0096367Y0242233D03*
X0086367Y0242233D03*
X0086367Y0232233D03*
X0076367Y0232233D03*
X0076367Y0242233D03*
X0066367Y0242233D03*
X0066367Y0232233D03*
X0189083Y0232233D03*
X0189083Y0242233D03*
X0199083Y0242233D03*
X0199083Y0232233D03*
X0209083Y0232233D03*
X0209083Y0242233D03*
X0219083Y0242233D03*
X0219083Y0232233D03*
X0229083Y0232233D03*
X0229083Y0242233D03*
D14*
X0009352Y0275350D02*
X0009162Y0009159D01*
X0247787Y0009159D01*
X0247787Y0275540D01*
X0009352Y0275350D01*
X0009352Y0274507D02*
X0247787Y0274507D01*
X0247787Y0272909D02*
X0009351Y0272909D01*
X0009350Y0271310D02*
X0247787Y0271310D01*
X0247787Y0269712D02*
X0009348Y0269712D01*
X0009347Y0268113D02*
X0247787Y0268113D01*
X0247787Y0266515D02*
X0009346Y0266515D01*
X0009345Y0264916D02*
X0247787Y0264916D01*
X0247787Y0263318D02*
X0009344Y0263318D01*
X0009343Y0261719D02*
X0247787Y0261719D01*
X0247787Y0260121D02*
X0009342Y0260121D01*
X0009340Y0258522D02*
X0247787Y0258522D01*
X0247787Y0256924D02*
X0125749Y0256924D01*
X0125618Y0257055D02*
X0124736Y0257421D01*
X0106026Y0257421D01*
X0105144Y0257055D01*
X0104469Y0256380D01*
X0095007Y0246919D01*
X0094922Y0246833D01*
X0094462Y0246833D01*
X0091767Y0244138D01*
X0091767Y0240328D01*
X0094462Y0237633D01*
X0098272Y0237633D01*
X0100967Y0240328D01*
X0100967Y0244138D01*
X0099991Y0245114D01*
X0107498Y0252621D01*
X0123264Y0252621D01*
X0132231Y0243653D01*
X0132231Y0195862D01*
X0125637Y0189268D01*
X0124962Y0188593D01*
X0124597Y0187710D01*
X0124597Y0176722D01*
X0123780Y0177539D01*
X0120135Y0177539D01*
X0119402Y0176805D01*
X0119402Y0190023D01*
X0131112Y0201734D01*
X0131787Y0202409D01*
X0132153Y0203291D01*
X0132153Y0242829D01*
X0131787Y0243711D01*
X0131112Y0244386D01*
X0124714Y0250784D01*
X0124039Y0251459D01*
X0123157Y0251824D01*
X0110463Y0251824D01*
X0109581Y0251459D01*
X0108906Y0250784D01*
X0108906Y0250784D01*
X0104955Y0246833D01*
X0104462Y0246833D01*
X0101767Y0244138D01*
X0101767Y0240328D01*
X0104462Y0237633D01*
X0108272Y0237633D01*
X0110967Y0240328D01*
X0110967Y0244138D01*
X0110008Y0245098D01*
X0111934Y0247024D01*
X0121686Y0247024D01*
X0127353Y0241357D01*
X0127353Y0204763D01*
X0115642Y0193052D01*
X0114967Y0192377D01*
X0114602Y0191495D01*
X0114602Y0177000D01*
X0113863Y0177739D01*
X0112057Y0177739D01*
X0112057Y0173239D01*
X0111857Y0173239D01*
X0111857Y0177739D01*
X0110052Y0177739D01*
X0109318Y0177005D01*
X0109318Y0190373D01*
X0126669Y0207724D01*
X0127035Y0208606D01*
X0127035Y0237710D01*
X0126669Y0238593D01*
X0120994Y0244268D01*
X0120727Y0244378D01*
X0118272Y0246833D01*
X0114462Y0246833D01*
X0111767Y0244138D01*
X0111767Y0240328D01*
X0114462Y0237633D01*
X0118272Y0237633D01*
X0119556Y0238917D01*
X0122235Y0236239D01*
X0122235Y0210078D01*
X0104883Y0192726D01*
X0104518Y0191844D01*
X0104518Y0176800D01*
X0104357Y0176961D01*
X0104357Y0200767D01*
X0118402Y0214811D01*
X0118767Y0215693D01*
X0118767Y0228128D01*
X0120967Y0230328D01*
X0120967Y0234138D01*
X0118272Y0236833D01*
X0114462Y0236833D01*
X0111767Y0234138D01*
X0111767Y0230328D01*
X0113967Y0228128D01*
X0113967Y0217164D01*
X0100598Y0203795D01*
X0099923Y0203120D01*
X0099557Y0202238D01*
X0099557Y0176961D01*
X0097557Y0174961D01*
X0097557Y0171316D01*
X0100135Y0168739D01*
X0103780Y0168739D01*
X0104518Y0169477D01*
X0104518Y0167701D01*
X0104883Y0166818D01*
X0107557Y0164144D01*
X0107557Y0161316D01*
X0109557Y0159316D01*
X0109557Y0157337D01*
X0109405Y0157337D01*
X0108468Y0156400D01*
X0108468Y0150744D01*
X0108845Y0150367D01*
X0108627Y0150149D01*
X0108390Y0149739D01*
X0108268Y0149281D01*
X0108268Y0147063D01*
X0111852Y0147063D01*
X0111852Y0146694D01*
X0112220Y0146694D01*
X0112220Y0142913D01*
X0114242Y0142913D01*
X0114699Y0143036D01*
X0115110Y0143273D01*
X0115445Y0143608D01*
X0115682Y0144019D01*
X0115805Y0144476D01*
X0115805Y0146694D01*
X0112221Y0146694D01*
X0112221Y0147063D01*
X0115805Y0147063D01*
X0115805Y0149281D01*
X0115682Y0149739D01*
X0115445Y0150149D01*
X0115228Y0150367D01*
X0115605Y0150744D01*
X0115605Y0156400D01*
X0114667Y0157337D01*
X0114357Y0157337D01*
X0114357Y0159316D01*
X0116357Y0161316D01*
X0116357Y0164961D01*
X0113780Y0167539D01*
X0110952Y0167539D01*
X0109318Y0169172D01*
X0109318Y0169273D01*
X0110052Y0168539D01*
X0111857Y0168539D01*
X0111857Y0173038D01*
X0112057Y0173038D01*
X0112057Y0168539D01*
X0113863Y0168539D01*
X0114602Y0169277D01*
X0114602Y0167617D01*
X0114967Y0166735D01*
X0115642Y0166060D01*
X0115642Y0166060D01*
X0117557Y0164144D01*
X0117557Y0161316D01*
X0119557Y0159316D01*
X0119557Y0157337D01*
X0119247Y0157337D01*
X0118310Y0156400D01*
X0118310Y0150744D01*
X0118687Y0150367D01*
X0118470Y0150149D01*
X0118233Y0149739D01*
X0118110Y0149281D01*
X0118110Y0147063D01*
X0121694Y0147063D01*
X0121694Y0146694D01*
X0122063Y0146694D01*
X0122063Y0142913D01*
X0124084Y0142913D01*
X0124542Y0143036D01*
X0124952Y0143273D01*
X0125288Y0143608D01*
X0125525Y0144019D01*
X0125647Y0144476D01*
X0125647Y0146694D01*
X0122063Y0146694D01*
X0122063Y0147063D01*
X0125647Y0147063D01*
X0125647Y0149281D01*
X0125525Y0149739D01*
X0125288Y0150149D01*
X0125070Y0150367D01*
X0125447Y0150744D01*
X0125447Y0156400D01*
X0124510Y0157337D01*
X0124357Y0157337D01*
X0124357Y0159316D01*
X0126357Y0161316D01*
X0126357Y0164961D01*
X0123780Y0167539D01*
X0120952Y0167539D01*
X0119402Y0169088D01*
X0119402Y0169472D01*
X0120135Y0168739D01*
X0123780Y0168739D01*
X0124597Y0169555D01*
X0124597Y0167622D01*
X0124962Y0166740D01*
X0125637Y0166065D01*
X0125637Y0166065D01*
X0127557Y0164144D01*
X0127557Y0161316D01*
X0129557Y0159316D01*
X0129557Y0157337D01*
X0129484Y0157337D01*
X0128546Y0156400D01*
X0128546Y0150744D01*
X0128923Y0150367D01*
X0128706Y0150149D01*
X0128469Y0149739D01*
X0128346Y0149281D01*
X0128346Y0147063D01*
X0131931Y0147063D01*
X0131931Y0146694D01*
X0132299Y0146694D01*
X0132299Y0142913D01*
X0134320Y0142913D01*
X0134778Y0143036D01*
X0135189Y0143273D01*
X0135524Y0143608D01*
X0135761Y0144019D01*
X0135883Y0144476D01*
X0135883Y0146694D01*
X0132299Y0146694D01*
X0132299Y0147063D01*
X0135883Y0147063D01*
X0135883Y0149281D01*
X0135761Y0149739D01*
X0135524Y0150149D01*
X0135307Y0150367D01*
X0135683Y0150744D01*
X0135683Y0156400D01*
X0134746Y0157337D01*
X0134357Y0157337D01*
X0134357Y0159316D01*
X0136357Y0161316D01*
X0136357Y0164961D01*
X0133780Y0167539D01*
X0130952Y0167539D01*
X0129397Y0169093D01*
X0129397Y0169477D01*
X0130135Y0168739D01*
X0133780Y0168739D01*
X0136357Y0171316D01*
X0136357Y0174961D01*
X0133780Y0177539D01*
X0130135Y0177539D01*
X0129397Y0176800D01*
X0129397Y0186239D01*
X0136666Y0193508D01*
X0137031Y0194390D01*
X0137031Y0194935D01*
X0137031Y0244391D01*
X0137031Y0245125D01*
X0136666Y0246007D01*
X0126293Y0256380D01*
X0125618Y0257055D01*
X0127348Y0255325D02*
X0247787Y0255325D01*
X0247787Y0253727D02*
X0128946Y0253727D01*
X0130545Y0252128D02*
X0247787Y0252128D01*
X0247787Y0250530D02*
X0132143Y0250530D01*
X0133742Y0248931D02*
X0247787Y0248931D01*
X0247787Y0247333D02*
X0135340Y0247333D01*
X0136779Y0245734D02*
X0186079Y0245734D01*
X0187178Y0246833D02*
X0184483Y0244138D01*
X0184483Y0240328D01*
X0187178Y0237633D01*
X0190989Y0237633D01*
X0193683Y0240328D01*
X0193683Y0244138D01*
X0190989Y0246833D01*
X0187178Y0246833D01*
X0184483Y0244136D02*
X0137031Y0244136D01*
X0137031Y0242537D02*
X0184483Y0242537D01*
X0184483Y0240939D02*
X0137031Y0240939D01*
X0137031Y0239340D02*
X0185471Y0239340D01*
X0187069Y0237742D02*
X0137031Y0237742D01*
X0137031Y0236143D02*
X0186488Y0236143D01*
X0187178Y0236833D02*
X0184483Y0234138D01*
X0184483Y0230328D01*
X0187178Y0227633D01*
X0190989Y0227633D01*
X0193683Y0230328D01*
X0193683Y0234138D01*
X0190989Y0236833D01*
X0187178Y0236833D01*
X0184890Y0234545D02*
X0137031Y0234545D01*
X0137031Y0232946D02*
X0184483Y0232946D01*
X0184483Y0231348D02*
X0137031Y0231348D01*
X0137031Y0229749D02*
X0185062Y0229749D01*
X0186661Y0228151D02*
X0137031Y0228151D01*
X0137031Y0226552D02*
X0247787Y0226552D01*
X0247787Y0224954D02*
X0137031Y0224954D01*
X0137031Y0223355D02*
X0247787Y0223355D01*
X0247787Y0221757D02*
X0137031Y0221757D01*
X0137031Y0220158D02*
X0247787Y0220158D01*
X0247787Y0218560D02*
X0137031Y0218560D01*
X0137031Y0216961D02*
X0247787Y0216961D01*
X0247787Y0215363D02*
X0137031Y0215363D01*
X0137031Y0213764D02*
X0247787Y0213764D01*
X0247787Y0212166D02*
X0137031Y0212166D01*
X0137031Y0210567D02*
X0247787Y0210567D01*
X0247787Y0208969D02*
X0137031Y0208969D01*
X0137031Y0207370D02*
X0247787Y0207370D01*
X0247787Y0205771D02*
X0137031Y0205771D01*
X0137031Y0204173D02*
X0247787Y0204173D01*
X0247787Y0202574D02*
X0137031Y0202574D01*
X0137031Y0200976D02*
X0247787Y0200976D01*
X0247787Y0199377D02*
X0137031Y0199377D01*
X0137031Y0197779D02*
X0247787Y0197779D01*
X0247787Y0196180D02*
X0137031Y0196180D01*
X0137031Y0194582D02*
X0247787Y0194582D01*
X0247787Y0192983D02*
X0136141Y0192983D01*
X0134543Y0191385D02*
X0247787Y0191385D01*
X0247787Y0189786D02*
X0132944Y0189786D01*
X0131346Y0188188D02*
X0247787Y0188188D01*
X0247787Y0186589D02*
X0129747Y0186589D01*
X0129397Y0184991D02*
X0247787Y0184991D01*
X0247787Y0183392D02*
X0129397Y0183392D01*
X0129397Y0181794D02*
X0247787Y0181794D01*
X0247787Y0180195D02*
X0129397Y0180195D01*
X0129397Y0178597D02*
X0247787Y0178597D01*
X0247787Y0176998D02*
X0214320Y0176998D01*
X0213780Y0177539D02*
X0210135Y0177539D01*
X0207557Y0174961D01*
X0207557Y0171316D01*
X0210135Y0168739D01*
X0213780Y0168739D01*
X0216357Y0171316D01*
X0216357Y0174961D01*
X0213780Y0177539D01*
X0215919Y0175400D02*
X0247787Y0175400D01*
X0247787Y0173801D02*
X0216357Y0173801D01*
X0216357Y0172203D02*
X0247787Y0172203D01*
X0247787Y0170604D02*
X0215646Y0170604D01*
X0214047Y0169006D02*
X0247787Y0169006D01*
X0247787Y0167407D02*
X0214194Y0167407D01*
X0213863Y0167739D02*
X0212057Y0167739D01*
X0212057Y0163239D01*
X0211857Y0163239D01*
X0211857Y0163039D01*
X0207357Y0163039D01*
X0207357Y0161233D01*
X0210052Y0158539D01*
X0211857Y0158539D01*
X0211857Y0163038D01*
X0212057Y0163038D01*
X0212057Y0158539D01*
X0213863Y0158539D01*
X0216557Y0161233D01*
X0216557Y0163039D01*
X0212058Y0163039D01*
X0212058Y0163239D01*
X0216557Y0163239D01*
X0216557Y0165044D01*
X0213863Y0167739D01*
X0212057Y0167407D02*
X0211857Y0167407D01*
X0211857Y0167739D02*
X0210052Y0167739D01*
X0207357Y0165044D01*
X0207357Y0163239D01*
X0211857Y0163239D01*
X0211857Y0167739D01*
X0211857Y0165809D02*
X0212057Y0165809D01*
X0212057Y0164210D02*
X0211857Y0164210D01*
X0211857Y0162612D02*
X0212057Y0162612D01*
X0212057Y0161013D02*
X0211857Y0161013D01*
X0211857Y0159415D02*
X0212057Y0159415D01*
X0214739Y0159415D02*
X0247787Y0159415D01*
X0247787Y0161013D02*
X0216337Y0161013D01*
X0216557Y0162612D02*
X0247787Y0162612D01*
X0247787Y0164210D02*
X0216557Y0164210D01*
X0215793Y0165809D02*
X0247787Y0165809D01*
X0247787Y0157816D02*
X0134357Y0157816D01*
X0134456Y0159415D02*
X0139176Y0159415D01*
X0140052Y0158539D02*
X0141857Y0158539D01*
X0141857Y0163038D01*
X0142057Y0163038D01*
X0142057Y0158539D01*
X0143863Y0158539D01*
X0146557Y0161233D01*
X0146557Y0163039D01*
X0142058Y0163039D01*
X0142058Y0163239D01*
X0146557Y0163239D01*
X0146557Y0165044D01*
X0143863Y0167739D01*
X0142057Y0167739D01*
X0142057Y0163239D01*
X0141857Y0163239D01*
X0141857Y0163039D01*
X0137357Y0163039D01*
X0137357Y0161233D01*
X0140052Y0158539D01*
X0141857Y0159415D02*
X0142057Y0159415D01*
X0142057Y0161013D02*
X0141857Y0161013D01*
X0141857Y0162612D02*
X0142057Y0162612D01*
X0141857Y0163239D02*
X0137357Y0163239D01*
X0137357Y0165044D01*
X0140052Y0167739D01*
X0141857Y0167739D01*
X0141857Y0163239D01*
X0141857Y0164210D02*
X0142057Y0164210D01*
X0142057Y0165809D02*
X0141857Y0165809D01*
X0141857Y0167407D02*
X0142057Y0167407D01*
X0144194Y0167407D02*
X0150004Y0167407D01*
X0150135Y0167539D02*
X0147557Y0164961D01*
X0147557Y0161316D01*
X0150135Y0158739D01*
X0153780Y0158739D01*
X0156357Y0161316D01*
X0156357Y0164961D01*
X0153780Y0167539D01*
X0150135Y0167539D01*
X0150135Y0168739D02*
X0153780Y0168739D01*
X0156357Y0171316D01*
X0156357Y0174961D01*
X0153780Y0177539D01*
X0150135Y0177539D01*
X0147557Y0174961D01*
X0147557Y0171316D01*
X0150135Y0168739D01*
X0149868Y0169006D02*
X0144047Y0169006D01*
X0143780Y0168739D02*
X0146357Y0171316D01*
X0146357Y0174961D01*
X0143780Y0177539D01*
X0140135Y0177539D01*
X0137557Y0174961D01*
X0137557Y0171316D01*
X0140135Y0168739D01*
X0143780Y0168739D01*
X0145646Y0170604D02*
X0148269Y0170604D01*
X0147557Y0172203D02*
X0146357Y0172203D01*
X0146357Y0173801D02*
X0147557Y0173801D01*
X0147996Y0175400D02*
X0145919Y0175400D01*
X0144320Y0176998D02*
X0149595Y0176998D01*
X0154320Y0176998D02*
X0159312Y0176998D01*
X0160052Y0177739D02*
X0157357Y0175044D01*
X0157357Y0173239D01*
X0161857Y0173239D01*
X0161857Y0173039D01*
X0157357Y0173039D01*
X0157357Y0171233D01*
X0160052Y0168539D01*
X0161857Y0168539D01*
X0161857Y0173038D01*
X0162057Y0173038D01*
X0162057Y0168539D01*
X0163863Y0168539D01*
X0166557Y0171233D01*
X0166557Y0173039D01*
X0162058Y0173039D01*
X0162058Y0173239D01*
X0166557Y0173239D01*
X0166557Y0175044D01*
X0163863Y0177739D01*
X0162057Y0177739D01*
X0162057Y0173239D01*
X0161857Y0173239D01*
X0161857Y0177739D01*
X0160052Y0177739D01*
X0161857Y0176998D02*
X0162057Y0176998D01*
X0162057Y0175400D02*
X0161857Y0175400D01*
X0161857Y0173801D02*
X0162057Y0173801D01*
X0162057Y0172203D02*
X0161857Y0172203D01*
X0161857Y0170604D02*
X0162057Y0170604D01*
X0162057Y0169006D02*
X0161857Y0169006D01*
X0160135Y0167539D02*
X0157557Y0164961D01*
X0157557Y0161316D01*
X0160135Y0158739D01*
X0163780Y0158739D01*
X0166357Y0161316D01*
X0166357Y0164961D01*
X0163780Y0167539D01*
X0160135Y0167539D01*
X0160004Y0167407D02*
X0153911Y0167407D01*
X0154047Y0169006D02*
X0159585Y0169006D01*
X0157986Y0170604D02*
X0155646Y0170604D01*
X0156357Y0172203D02*
X0157357Y0172203D01*
X0157357Y0173801D02*
X0156357Y0173801D01*
X0155919Y0175400D02*
X0157713Y0175400D01*
X0164330Y0169006D02*
X0169868Y0169006D01*
X0170135Y0168739D02*
X0173780Y0168739D01*
X0176357Y0171316D01*
X0176357Y0174961D01*
X0173780Y0177539D01*
X0170135Y0177539D01*
X0167557Y0174961D01*
X0167557Y0171316D01*
X0170135Y0168739D01*
X0170135Y0167539D02*
X0167557Y0164961D01*
X0167557Y0161316D01*
X0170135Y0158739D01*
X0173780Y0158739D01*
X0176357Y0161316D01*
X0176357Y0164961D01*
X0173780Y0167539D01*
X0170135Y0167539D01*
X0170004Y0167407D02*
X0163911Y0167407D01*
X0165510Y0165809D02*
X0168405Y0165809D01*
X0167557Y0164210D02*
X0166357Y0164210D01*
X0166357Y0162612D02*
X0167557Y0162612D01*
X0167860Y0161013D02*
X0166055Y0161013D01*
X0164456Y0159415D02*
X0169459Y0159415D01*
X0174456Y0159415D02*
X0179459Y0159415D01*
X0180135Y0158739D02*
X0177557Y0161316D01*
X0177557Y0164961D01*
X0180135Y0167539D01*
X0183780Y0167539D01*
X0186357Y0164961D01*
X0186357Y0161316D01*
X0183780Y0158739D01*
X0180135Y0158739D01*
X0177860Y0161013D02*
X0176055Y0161013D01*
X0176357Y0162612D02*
X0177557Y0162612D01*
X0177557Y0164210D02*
X0176357Y0164210D01*
X0175510Y0165809D02*
X0178405Y0165809D01*
X0180004Y0167407D02*
X0173911Y0167407D01*
X0174047Y0169006D02*
X0179585Y0169006D01*
X0180052Y0168539D02*
X0177357Y0171233D01*
X0177357Y0173039D01*
X0181857Y0173039D01*
X0181857Y0173239D01*
X0177357Y0173239D01*
X0177357Y0175044D01*
X0180052Y0177739D01*
X0181857Y0177739D01*
X0181857Y0173239D01*
X0182057Y0173239D01*
X0182057Y0177739D01*
X0183863Y0177739D01*
X0186557Y0175044D01*
X0186557Y0173239D01*
X0182058Y0173239D01*
X0182058Y0173039D01*
X0186557Y0173039D01*
X0186557Y0171233D01*
X0183863Y0168539D01*
X0182057Y0168539D01*
X0182057Y0173038D01*
X0181857Y0173038D01*
X0181857Y0168539D01*
X0180052Y0168539D01*
X0181857Y0169006D02*
X0182057Y0169006D01*
X0182057Y0170604D02*
X0181857Y0170604D01*
X0181857Y0172203D02*
X0182057Y0172203D01*
X0182057Y0173801D02*
X0181857Y0173801D01*
X0181857Y0175400D02*
X0182057Y0175400D01*
X0182057Y0176998D02*
X0181857Y0176998D01*
X0179312Y0176998D02*
X0174320Y0176998D01*
X0175919Y0175400D02*
X0177713Y0175400D01*
X0177357Y0173801D02*
X0176357Y0173801D01*
X0176357Y0172203D02*
X0177357Y0172203D01*
X0177986Y0170604D02*
X0175646Y0170604D01*
X0169595Y0176998D02*
X0164603Y0176998D01*
X0166202Y0175400D02*
X0167996Y0175400D01*
X0167557Y0173801D02*
X0166557Y0173801D01*
X0166557Y0172203D02*
X0167557Y0172203D01*
X0168269Y0170604D02*
X0165929Y0170604D01*
X0158405Y0165809D02*
X0155510Y0165809D01*
X0156357Y0164210D02*
X0157557Y0164210D01*
X0157557Y0162612D02*
X0156357Y0162612D01*
X0156055Y0161013D02*
X0157860Y0161013D01*
X0159459Y0159415D02*
X0154456Y0159415D01*
X0149459Y0159415D02*
X0144739Y0159415D01*
X0146337Y0161013D02*
X0147860Y0161013D01*
X0147557Y0162612D02*
X0146557Y0162612D01*
X0146557Y0164210D02*
X0147557Y0164210D01*
X0148405Y0165809D02*
X0145793Y0165809D01*
X0139721Y0167407D02*
X0133911Y0167407D01*
X0134047Y0169006D02*
X0139868Y0169006D01*
X0138269Y0170604D02*
X0135646Y0170604D01*
X0136357Y0172203D02*
X0137557Y0172203D01*
X0137557Y0173801D02*
X0136357Y0173801D01*
X0135919Y0175400D02*
X0137996Y0175400D01*
X0139595Y0176998D02*
X0134320Y0176998D01*
X0129595Y0176998D02*
X0129397Y0176998D01*
X0124597Y0176998D02*
X0124320Y0176998D01*
X0124597Y0178597D02*
X0119402Y0178597D01*
X0119402Y0180195D02*
X0124597Y0180195D01*
X0124597Y0181794D02*
X0119402Y0181794D01*
X0119402Y0183392D02*
X0124597Y0183392D01*
X0124597Y0184991D02*
X0119402Y0184991D01*
X0119402Y0186589D02*
X0124597Y0186589D01*
X0124795Y0188188D02*
X0119402Y0188188D01*
X0119402Y0189786D02*
X0126156Y0189786D01*
X0127755Y0191385D02*
X0120763Y0191385D01*
X0122362Y0192983D02*
X0129353Y0192983D01*
X0130952Y0194582D02*
X0123960Y0194582D01*
X0125559Y0196180D02*
X0132231Y0196180D01*
X0132231Y0197779D02*
X0127157Y0197779D01*
X0128756Y0199377D02*
X0132231Y0199377D01*
X0132231Y0200976D02*
X0130354Y0200976D01*
X0131856Y0202574D02*
X0132231Y0202574D01*
X0132231Y0204173D02*
X0132153Y0204173D01*
X0132153Y0205771D02*
X0132231Y0205771D01*
X0132231Y0207370D02*
X0132153Y0207370D01*
X0132153Y0208969D02*
X0132231Y0208969D01*
X0132231Y0210567D02*
X0132153Y0210567D01*
X0132153Y0212166D02*
X0132231Y0212166D01*
X0132231Y0213764D02*
X0132153Y0213764D01*
X0132153Y0215363D02*
X0132231Y0215363D01*
X0132231Y0216961D02*
X0132153Y0216961D01*
X0132153Y0218560D02*
X0132231Y0218560D01*
X0132231Y0220158D02*
X0132153Y0220158D01*
X0132153Y0221757D02*
X0132231Y0221757D01*
X0132231Y0223355D02*
X0132153Y0223355D01*
X0132153Y0224954D02*
X0132231Y0224954D01*
X0132231Y0226552D02*
X0132153Y0226552D01*
X0132153Y0228151D02*
X0132231Y0228151D01*
X0132231Y0229749D02*
X0132153Y0229749D01*
X0132153Y0231348D02*
X0132231Y0231348D01*
X0132231Y0232946D02*
X0132153Y0232946D01*
X0132153Y0234545D02*
X0132231Y0234545D01*
X0132231Y0236143D02*
X0132153Y0236143D01*
X0132153Y0237742D02*
X0132231Y0237742D01*
X0132231Y0239340D02*
X0132153Y0239340D01*
X0132153Y0240939D02*
X0132231Y0240939D01*
X0132231Y0242537D02*
X0132153Y0242537D01*
X0131749Y0244136D02*
X0131362Y0244136D01*
X0130151Y0245734D02*
X0129764Y0245734D01*
X0128552Y0247333D02*
X0128165Y0247333D01*
X0126954Y0248931D02*
X0126567Y0248931D01*
X0125355Y0250530D02*
X0124968Y0250530D01*
X0123757Y0252128D02*
X0107005Y0252128D01*
X0105407Y0250530D02*
X0108652Y0250530D01*
X0107053Y0248931D02*
X0103808Y0248931D01*
X0102210Y0247333D02*
X0105455Y0247333D01*
X0103363Y0245734D02*
X0100611Y0245734D01*
X0100967Y0244136D02*
X0101767Y0244136D01*
X0101767Y0242537D02*
X0100967Y0242537D01*
X0100967Y0240939D02*
X0101767Y0240939D01*
X0102754Y0239340D02*
X0099979Y0239340D01*
X0098381Y0237742D02*
X0104353Y0237742D01*
X0104462Y0236833D02*
X0101767Y0234138D01*
X0101767Y0230328D01*
X0104462Y0227633D01*
X0108272Y0227633D01*
X0110967Y0230328D01*
X0110967Y0234138D01*
X0108272Y0236833D01*
X0104462Y0236833D01*
X0103772Y0236143D02*
X0098962Y0236143D01*
X0098272Y0236833D02*
X0094462Y0236833D01*
X0091767Y0234138D01*
X0091767Y0230328D01*
X0094462Y0227633D01*
X0098272Y0227633D01*
X0100967Y0230328D01*
X0100967Y0234138D01*
X0098272Y0236833D01*
X0100561Y0234545D02*
X0102173Y0234545D01*
X0101767Y0232946D02*
X0100967Y0232946D01*
X0100967Y0231348D02*
X0101767Y0231348D01*
X0102345Y0229749D02*
X0100388Y0229749D01*
X0098790Y0228151D02*
X0103944Y0228151D01*
X0108790Y0228151D02*
X0113944Y0228151D01*
X0113967Y0226552D02*
X0009318Y0226552D01*
X0009316Y0224954D02*
X0113967Y0224954D01*
X0113967Y0223355D02*
X0009315Y0223355D01*
X0009314Y0221757D02*
X0113967Y0221757D01*
X0113967Y0220158D02*
X0009313Y0220158D01*
X0009312Y0218560D02*
X0113967Y0218560D01*
X0113764Y0216961D02*
X0009311Y0216961D01*
X0009310Y0215363D02*
X0112165Y0215363D01*
X0110567Y0213764D02*
X0009309Y0213764D01*
X0009307Y0212166D02*
X0108968Y0212166D01*
X0107370Y0210567D02*
X0009306Y0210567D01*
X0009305Y0208969D02*
X0105771Y0208969D01*
X0104173Y0207370D02*
X0009304Y0207370D01*
X0009303Y0205771D02*
X0102574Y0205771D01*
X0100976Y0204173D02*
X0009302Y0204173D01*
X0009301Y0202574D02*
X0099697Y0202574D01*
X0099557Y0200976D02*
X0009299Y0200976D01*
X0009298Y0199377D02*
X0099557Y0199377D01*
X0099557Y0197779D02*
X0009297Y0197779D01*
X0009296Y0196180D02*
X0099557Y0196180D01*
X0099557Y0194582D02*
X0009295Y0194582D01*
X0009294Y0192983D02*
X0099557Y0192983D01*
X0099557Y0191385D02*
X0009293Y0191385D01*
X0009291Y0189786D02*
X0099557Y0189786D01*
X0099557Y0188188D02*
X0009290Y0188188D01*
X0009289Y0186589D02*
X0099557Y0186589D01*
X0099557Y0184991D02*
X0009288Y0184991D01*
X0009287Y0183392D02*
X0099557Y0183392D01*
X0099557Y0181794D02*
X0009286Y0181794D01*
X0009285Y0180195D02*
X0099557Y0180195D01*
X0099557Y0178597D02*
X0009283Y0178597D01*
X0009282Y0176998D02*
X0019595Y0176998D01*
X0020135Y0177539D02*
X0017557Y0174961D01*
X0017557Y0171316D01*
X0020135Y0168739D01*
X0023780Y0168739D01*
X0026357Y0171316D01*
X0026357Y0174961D01*
X0023780Y0177539D01*
X0020135Y0177539D01*
X0017996Y0175400D02*
X0009281Y0175400D01*
X0009280Y0173801D02*
X0017557Y0173801D01*
X0017557Y0172203D02*
X0009279Y0172203D01*
X0009278Y0170604D02*
X0018269Y0170604D01*
X0019868Y0169006D02*
X0009277Y0169006D01*
X0009275Y0167407D02*
X0020765Y0167407D01*
X0021082Y0167539D02*
X0019465Y0166869D01*
X0018227Y0165631D01*
X0017557Y0164014D01*
X0017557Y0162263D01*
X0018227Y0160646D01*
X0019465Y0159408D01*
X0021082Y0158739D01*
X0022833Y0158739D01*
X0024450Y0159408D01*
X0025688Y0160646D01*
X0026357Y0162263D01*
X0026357Y0164014D01*
X0025688Y0165631D01*
X0024450Y0166869D01*
X0022833Y0167539D01*
X0021082Y0167539D01*
X0023150Y0167407D02*
X0030004Y0167407D01*
X0030135Y0167539D02*
X0027557Y0164961D01*
X0027557Y0161316D01*
X0030135Y0158739D01*
X0033780Y0158739D01*
X0036357Y0161316D01*
X0036357Y0164961D01*
X0033780Y0167539D01*
X0030135Y0167539D01*
X0030135Y0168739D02*
X0033780Y0168739D01*
X0036357Y0171316D01*
X0036357Y0174961D01*
X0033780Y0177539D01*
X0030135Y0177539D01*
X0027557Y0174961D01*
X0027557Y0171316D01*
X0030135Y0168739D01*
X0029868Y0169006D02*
X0024047Y0169006D01*
X0025646Y0170604D02*
X0028269Y0170604D01*
X0027557Y0172203D02*
X0026357Y0172203D01*
X0026357Y0173801D02*
X0027557Y0173801D01*
X0027996Y0175400D02*
X0025919Y0175400D01*
X0024320Y0176998D02*
X0029595Y0176998D01*
X0034320Y0176998D02*
X0039312Y0176998D01*
X0040052Y0177739D02*
X0037357Y0175044D01*
X0037357Y0173239D01*
X0041857Y0173239D01*
X0041857Y0173039D01*
X0037357Y0173039D01*
X0037357Y0171233D01*
X0040052Y0168539D01*
X0041857Y0168539D01*
X0041857Y0173038D01*
X0042057Y0173038D01*
X0042057Y0168539D01*
X0043863Y0168539D01*
X0046557Y0171233D01*
X0046557Y0173039D01*
X0042058Y0173039D01*
X0042058Y0173239D01*
X0046557Y0173239D01*
X0046557Y0175044D01*
X0043863Y0177739D01*
X0042057Y0177739D01*
X0042057Y0173239D01*
X0041857Y0173239D01*
X0041857Y0177739D01*
X0040052Y0177739D01*
X0041857Y0176998D02*
X0042057Y0176998D01*
X0042057Y0175400D02*
X0041857Y0175400D01*
X0041857Y0173801D02*
X0042057Y0173801D01*
X0042057Y0172203D02*
X0041857Y0172203D01*
X0041857Y0170604D02*
X0042057Y0170604D01*
X0042057Y0169006D02*
X0041857Y0169006D01*
X0040135Y0167539D02*
X0037557Y0164961D01*
X0037557Y0161316D01*
X0040135Y0158739D01*
X0043780Y0158739D01*
X0046357Y0161316D01*
X0046357Y0164961D01*
X0043780Y0167539D01*
X0040135Y0167539D01*
X0040004Y0167407D02*
X0033911Y0167407D01*
X0034047Y0169006D02*
X0039585Y0169006D01*
X0037986Y0170604D02*
X0035646Y0170604D01*
X0036357Y0172203D02*
X0037357Y0172203D01*
X0037357Y0173801D02*
X0036357Y0173801D01*
X0035919Y0175400D02*
X0037713Y0175400D01*
X0044603Y0176998D02*
X0049595Y0176998D01*
X0050135Y0177539D02*
X0047557Y0174961D01*
X0047557Y0171316D01*
X0050135Y0168739D01*
X0053780Y0168739D01*
X0056357Y0171316D01*
X0056357Y0174961D01*
X0053780Y0177539D01*
X0050135Y0177539D01*
X0047996Y0175400D02*
X0046202Y0175400D01*
X0046557Y0173801D02*
X0047557Y0173801D01*
X0047557Y0172203D02*
X0046557Y0172203D01*
X0045929Y0170604D02*
X0048269Y0170604D01*
X0049868Y0169006D02*
X0044330Y0169006D01*
X0043911Y0167407D02*
X0050004Y0167407D01*
X0050135Y0167539D02*
X0047557Y0164961D01*
X0047557Y0161316D01*
X0050135Y0158739D01*
X0053780Y0158739D01*
X0056357Y0161316D01*
X0056357Y0164961D01*
X0053780Y0167539D01*
X0050135Y0167539D01*
X0048405Y0165809D02*
X0045510Y0165809D01*
X0046357Y0164210D02*
X0047557Y0164210D01*
X0047557Y0162612D02*
X0046357Y0162612D01*
X0046055Y0161013D02*
X0047860Y0161013D01*
X0049459Y0159415D02*
X0044456Y0159415D01*
X0039459Y0159415D02*
X0034456Y0159415D01*
X0036055Y0161013D02*
X0037860Y0161013D01*
X0037557Y0162612D02*
X0036357Y0162612D01*
X0036357Y0164210D02*
X0037557Y0164210D01*
X0038405Y0165809D02*
X0035510Y0165809D01*
X0028405Y0165809D02*
X0025510Y0165809D01*
X0026276Y0164210D02*
X0027557Y0164210D01*
X0027557Y0162612D02*
X0026357Y0162612D01*
X0025840Y0161013D02*
X0027860Y0161013D01*
X0029459Y0159415D02*
X0024456Y0159415D01*
X0019459Y0159415D02*
X0009270Y0159415D01*
X0009271Y0161013D02*
X0018075Y0161013D01*
X0017557Y0162612D02*
X0009272Y0162612D01*
X0009273Y0164210D02*
X0017639Y0164210D01*
X0018405Y0165809D02*
X0009274Y0165809D01*
X0009269Y0157816D02*
X0109557Y0157816D01*
X0109459Y0159415D02*
X0104456Y0159415D01*
X0103780Y0158739D02*
X0106357Y0161316D01*
X0106357Y0164961D01*
X0103780Y0167539D01*
X0100135Y0167539D01*
X0097557Y0164961D01*
X0097557Y0161316D01*
X0100135Y0158739D01*
X0103780Y0158739D01*
X0106055Y0161013D02*
X0107860Y0161013D01*
X0107557Y0162612D02*
X0106357Y0162612D01*
X0106357Y0164210D02*
X0107492Y0164210D01*
X0105893Y0165809D02*
X0105510Y0165809D01*
X0104640Y0167407D02*
X0103911Y0167407D01*
X0104047Y0169006D02*
X0104518Y0169006D01*
X0106918Y0168178D02*
X0106918Y0191367D01*
X0124635Y0209083D01*
X0124635Y0237233D01*
X0119635Y0242233D01*
X0116367Y0242233D01*
X0119371Y0245734D02*
X0122976Y0245734D01*
X0124574Y0244136D02*
X0121126Y0244136D01*
X0122725Y0242537D02*
X0126173Y0242537D01*
X0127353Y0240939D02*
X0124323Y0240939D01*
X0125922Y0239340D02*
X0127353Y0239340D01*
X0127353Y0237742D02*
X0127022Y0237742D01*
X0127035Y0236143D02*
X0127353Y0236143D01*
X0127353Y0234545D02*
X0127035Y0234545D01*
X0127035Y0232946D02*
X0127353Y0232946D01*
X0127353Y0231348D02*
X0127035Y0231348D01*
X0127035Y0229749D02*
X0127353Y0229749D01*
X0127353Y0228151D02*
X0127035Y0228151D01*
X0127035Y0226552D02*
X0127353Y0226552D01*
X0127353Y0224954D02*
X0127035Y0224954D01*
X0127035Y0223355D02*
X0127353Y0223355D01*
X0127353Y0221757D02*
X0127035Y0221757D01*
X0127035Y0220158D02*
X0127353Y0220158D01*
X0127353Y0218560D02*
X0127035Y0218560D01*
X0127035Y0216961D02*
X0127353Y0216961D01*
X0127353Y0215363D02*
X0127035Y0215363D01*
X0127035Y0213764D02*
X0127353Y0213764D01*
X0127353Y0212166D02*
X0127035Y0212166D01*
X0127035Y0210567D02*
X0127353Y0210567D01*
X0127353Y0208969D02*
X0127035Y0208969D01*
X0127353Y0207370D02*
X0126315Y0207370D01*
X0127353Y0205771D02*
X0124717Y0205771D01*
X0123118Y0204173D02*
X0126763Y0204173D01*
X0125165Y0202574D02*
X0121520Y0202574D01*
X0119921Y0200976D02*
X0123566Y0200976D01*
X0121968Y0199377D02*
X0118323Y0199377D01*
X0116724Y0197779D02*
X0120369Y0197779D01*
X0118771Y0196180D02*
X0115126Y0196180D01*
X0113527Y0194582D02*
X0117172Y0194582D01*
X0115574Y0192983D02*
X0111929Y0192983D01*
X0110330Y0191385D02*
X0114602Y0191385D01*
X0114602Y0189786D02*
X0109318Y0189786D01*
X0109318Y0188188D02*
X0114602Y0188188D01*
X0114602Y0186589D02*
X0109318Y0186589D01*
X0109318Y0184991D02*
X0114602Y0184991D01*
X0114602Y0183392D02*
X0109318Y0183392D01*
X0109318Y0181794D02*
X0114602Y0181794D01*
X0114602Y0180195D02*
X0109318Y0180195D01*
X0109318Y0178597D02*
X0114602Y0178597D01*
X0112057Y0176998D02*
X0111857Y0176998D01*
X0111857Y0175400D02*
X0112057Y0175400D01*
X0112057Y0173801D02*
X0111857Y0173801D01*
X0111857Y0172203D02*
X0112057Y0172203D01*
X0112057Y0170604D02*
X0111857Y0170604D01*
X0111857Y0169006D02*
X0112057Y0169006D01*
X0114330Y0169006D02*
X0114602Y0169006D01*
X0114689Y0167407D02*
X0113911Y0167407D01*
X0115510Y0165809D02*
X0115893Y0165809D01*
X0116357Y0164210D02*
X0117492Y0164210D01*
X0117557Y0162612D02*
X0116357Y0162612D01*
X0116055Y0161013D02*
X0117860Y0161013D01*
X0119459Y0159415D02*
X0114456Y0159415D01*
X0114357Y0157816D02*
X0119557Y0157816D01*
X0118310Y0156218D02*
X0115605Y0156218D01*
X0115605Y0154619D02*
X0118310Y0154619D01*
X0118310Y0153021D02*
X0115605Y0153021D01*
X0115605Y0151422D02*
X0118310Y0151422D01*
X0118282Y0149824D02*
X0115633Y0149824D01*
X0115805Y0148225D02*
X0118110Y0148225D01*
X0118110Y0146694D02*
X0118110Y0144476D01*
X0118233Y0144019D01*
X0118470Y0143608D01*
X0118805Y0143273D01*
X0119215Y0143036D01*
X0119673Y0142913D01*
X0121694Y0142913D01*
X0121694Y0146694D01*
X0118110Y0146694D01*
X0118110Y0146627D02*
X0115805Y0146627D01*
X0115805Y0145028D02*
X0118110Y0145028D01*
X0118648Y0143430D02*
X0115266Y0143430D01*
X0112220Y0143430D02*
X0111852Y0143430D01*
X0111852Y0142913D02*
X0111852Y0146694D01*
X0108268Y0146694D01*
X0108268Y0144476D01*
X0108390Y0144019D01*
X0108627Y0143608D01*
X0108962Y0143273D01*
X0109373Y0143036D01*
X0109831Y0142913D01*
X0111852Y0142913D01*
X0111852Y0145028D02*
X0112220Y0145028D01*
X0112220Y0146627D02*
X0111852Y0146627D01*
X0108268Y0146627D02*
X0009261Y0146627D01*
X0009262Y0148225D02*
X0108268Y0148225D01*
X0108439Y0149824D02*
X0009263Y0149824D01*
X0009264Y0151422D02*
X0108468Y0151422D01*
X0108468Y0153021D02*
X0009265Y0153021D01*
X0009266Y0154619D02*
X0108468Y0154619D01*
X0108468Y0156218D02*
X0009267Y0156218D01*
X0009259Y0145028D02*
X0108268Y0145028D01*
X0108806Y0143430D02*
X0009258Y0143430D01*
X0009257Y0141831D02*
X0247787Y0141831D01*
X0247787Y0140233D02*
X0009256Y0140233D01*
X0009255Y0138634D02*
X0247787Y0138634D01*
X0247787Y0137035D02*
X0009254Y0137035D01*
X0009253Y0135437D02*
X0247787Y0135437D01*
X0247787Y0133838D02*
X0009251Y0133838D01*
X0009250Y0132240D02*
X0247787Y0132240D01*
X0247787Y0130641D02*
X0009249Y0130641D01*
X0009248Y0129043D02*
X0247787Y0129043D01*
X0247787Y0127444D02*
X0009247Y0127444D01*
X0009246Y0125846D02*
X0247787Y0125846D01*
X0247787Y0124247D02*
X0009245Y0124247D01*
X0009243Y0122649D02*
X0247787Y0122649D01*
X0247787Y0121050D02*
X0009242Y0121050D01*
X0009241Y0119452D02*
X0247787Y0119452D01*
X0247787Y0117853D02*
X0009240Y0117853D01*
X0009239Y0116255D02*
X0247787Y0116255D01*
X0247787Y0114656D02*
X0009238Y0114656D01*
X0009237Y0113058D02*
X0247787Y0113058D01*
X0247787Y0111459D02*
X0030489Y0111459D01*
X0031672Y0110276D02*
X0029095Y0112854D01*
X0025450Y0112854D01*
X0022872Y0110276D01*
X0022872Y0106631D01*
X0025450Y0104054D01*
X0029095Y0104054D01*
X0031672Y0106631D01*
X0031672Y0110276D01*
X0031672Y0109861D02*
X0247787Y0109861D01*
X0247787Y0108262D02*
X0031672Y0108262D01*
X0031672Y0106664D02*
X0247787Y0106664D01*
X0247787Y0105065D02*
X0030107Y0105065D01*
X0029095Y0102854D02*
X0025450Y0102854D01*
X0022872Y0100276D01*
X0022872Y0096631D01*
X0025450Y0094054D01*
X0029095Y0094054D01*
X0031672Y0096631D01*
X0031672Y0100276D01*
X0029095Y0102854D01*
X0030080Y0101868D02*
X0247787Y0101868D01*
X0247787Y0100270D02*
X0031672Y0100270D01*
X0031672Y0098671D02*
X0247787Y0098671D01*
X0247787Y0097073D02*
X0031672Y0097073D01*
X0030516Y0095474D02*
X0247787Y0095474D01*
X0247787Y0093876D02*
X0009223Y0093876D01*
X0009224Y0095474D02*
X0014029Y0095474D01*
X0012872Y0096631D02*
X0015450Y0094054D01*
X0019095Y0094054D01*
X0021672Y0096631D01*
X0021672Y0100276D01*
X0019095Y0102854D01*
X0015450Y0102854D01*
X0012872Y0100276D01*
X0012872Y0096631D01*
X0012872Y0097073D02*
X0009225Y0097073D01*
X0009226Y0098671D02*
X0012872Y0098671D01*
X0012872Y0100270D02*
X0009227Y0100270D01*
X0009229Y0101868D02*
X0014465Y0101868D01*
X0015450Y0104054D02*
X0012872Y0106631D01*
X0012872Y0110276D01*
X0015450Y0112854D01*
X0019095Y0112854D01*
X0021672Y0110276D01*
X0021672Y0106631D01*
X0019095Y0104054D01*
X0015450Y0104054D01*
X0014438Y0105065D02*
X0009231Y0105065D01*
X0009230Y0103467D02*
X0247787Y0103467D01*
X0247787Y0092277D02*
X0029671Y0092277D01*
X0029095Y0092854D02*
X0025450Y0092854D01*
X0022872Y0090276D01*
X0022872Y0086631D01*
X0025450Y0084054D01*
X0029095Y0084054D01*
X0031672Y0086631D01*
X0031672Y0090276D01*
X0029095Y0092854D01*
X0031270Y0090679D02*
X0247787Y0090679D01*
X0247787Y0089080D02*
X0031672Y0089080D01*
X0031672Y0087482D02*
X0247787Y0087482D01*
X0247787Y0085883D02*
X0030925Y0085883D01*
X0029326Y0084285D02*
X0247787Y0084285D01*
X0247787Y0082686D02*
X0029262Y0082686D01*
X0029095Y0082854D02*
X0025450Y0082854D01*
X0022872Y0080276D01*
X0022872Y0076631D01*
X0025450Y0074054D01*
X0029095Y0074054D01*
X0031672Y0076631D01*
X0031672Y0080276D01*
X0029095Y0082854D01*
X0030861Y0081088D02*
X0247787Y0081088D01*
X0247787Y0079489D02*
X0031672Y0079489D01*
X0031672Y0077891D02*
X0247787Y0077891D01*
X0247787Y0076292D02*
X0031333Y0076292D01*
X0029735Y0074694D02*
X0247787Y0074694D01*
X0247787Y0073095D02*
X0009208Y0073095D01*
X0009207Y0071497D02*
X0014093Y0071497D01*
X0012872Y0070276D02*
X0012872Y0066631D01*
X0015450Y0064054D01*
X0019095Y0064054D01*
X0021672Y0066631D01*
X0021672Y0070276D01*
X0019095Y0072854D01*
X0015450Y0072854D01*
X0012872Y0070276D01*
X0012872Y0069898D02*
X0009206Y0069898D01*
X0009205Y0068300D02*
X0012872Y0068300D01*
X0012872Y0066701D02*
X0009204Y0066701D01*
X0009202Y0065102D02*
X0014401Y0065102D01*
X0015450Y0062854D02*
X0012872Y0060276D01*
X0012872Y0056631D01*
X0015450Y0054054D01*
X0019095Y0054054D01*
X0021672Y0056631D01*
X0021672Y0060276D01*
X0019095Y0062854D01*
X0015450Y0062854D01*
X0014502Y0061905D02*
X0009200Y0061905D01*
X0009199Y0060307D02*
X0012903Y0060307D01*
X0012872Y0058708D02*
X0009198Y0058708D01*
X0009197Y0057110D02*
X0012872Y0057110D01*
X0013992Y0055511D02*
X0009196Y0055511D01*
X0009194Y0053913D02*
X0247787Y0053913D01*
X0247787Y0055511D02*
X0030553Y0055511D01*
X0031672Y0056631D02*
X0029095Y0054054D01*
X0025450Y0054054D01*
X0022872Y0056631D01*
X0022872Y0060276D01*
X0025450Y0062854D01*
X0029095Y0062854D01*
X0031672Y0060276D01*
X0031672Y0056631D01*
X0031672Y0057110D02*
X0247787Y0057110D01*
X0247787Y0058708D02*
X0031672Y0058708D01*
X0031642Y0060307D02*
X0247787Y0060307D01*
X0247787Y0061905D02*
X0030043Y0061905D01*
X0029095Y0064054D02*
X0031672Y0066631D01*
X0031672Y0070276D01*
X0029095Y0072854D01*
X0025450Y0072854D01*
X0022872Y0070276D01*
X0022872Y0066631D01*
X0025450Y0064054D01*
X0029095Y0064054D01*
X0030144Y0065102D02*
X0247787Y0065102D01*
X0247787Y0063504D02*
X0009201Y0063504D01*
X0009193Y0052314D02*
X0014628Y0052314D01*
X0015367Y0053054D02*
X0012672Y0050359D01*
X0012672Y0048554D01*
X0017172Y0048554D01*
X0017172Y0053054D01*
X0015367Y0053054D01*
X0017172Y0052314D02*
X0017372Y0052314D01*
X0017372Y0053054D02*
X0017372Y0048554D01*
X0017172Y0048554D01*
X0017172Y0048354D01*
X0012672Y0048354D01*
X0012672Y0046548D01*
X0015367Y0043854D01*
X0017172Y0043854D01*
X0017172Y0048353D01*
X0017372Y0048353D01*
X0017372Y0043854D01*
X0019178Y0043854D01*
X0021872Y0046548D01*
X0021872Y0048354D01*
X0017373Y0048354D01*
X0017373Y0048554D01*
X0021872Y0048554D01*
X0021872Y0050359D01*
X0019178Y0053054D01*
X0017372Y0053054D01*
X0017372Y0050716D02*
X0017172Y0050716D01*
X0017172Y0049117D02*
X0017372Y0049117D01*
X0017372Y0047519D02*
X0017172Y0047519D01*
X0017172Y0045920D02*
X0017372Y0045920D01*
X0017372Y0044322D02*
X0017172Y0044322D01*
X0017172Y0043054D02*
X0015367Y0043054D01*
X0012672Y0040359D01*
X0012672Y0038554D01*
X0017172Y0038554D01*
X0017172Y0043054D01*
X0017372Y0043054D02*
X0017372Y0038554D01*
X0017172Y0038554D01*
X0017172Y0038354D01*
X0012672Y0038354D01*
X0012672Y0036548D01*
X0015367Y0033854D01*
X0017172Y0033854D01*
X0017172Y0038353D01*
X0017372Y0038353D01*
X0017372Y0033854D01*
X0019178Y0033854D01*
X0021872Y0036548D01*
X0021872Y0038354D01*
X0017373Y0038354D01*
X0017373Y0038554D01*
X0021872Y0038554D01*
X0021872Y0040359D01*
X0019178Y0043054D01*
X0017372Y0043054D01*
X0017372Y0042723D02*
X0017172Y0042723D01*
X0017172Y0041125D02*
X0017372Y0041125D01*
X0017372Y0039526D02*
X0017172Y0039526D01*
X0017172Y0037928D02*
X0017372Y0037928D01*
X0017372Y0036329D02*
X0017172Y0036329D01*
X0017172Y0034731D02*
X0017372Y0034731D01*
X0020055Y0034731D02*
X0024490Y0034731D01*
X0025367Y0033854D02*
X0022672Y0036548D01*
X0022672Y0038354D01*
X0027172Y0038354D01*
X0027172Y0038554D01*
X0027172Y0043054D01*
X0025367Y0043054D01*
X0022672Y0040359D01*
X0022672Y0038554D01*
X0027172Y0038554D01*
X0027372Y0038554D01*
X0027372Y0043054D01*
X0029178Y0043054D01*
X0031872Y0040359D01*
X0031872Y0038554D01*
X0027373Y0038554D01*
X0027373Y0038354D01*
X0031872Y0038354D01*
X0031872Y0036548D01*
X0029178Y0033854D01*
X0027372Y0033854D01*
X0027372Y0038353D01*
X0027172Y0038353D01*
X0027172Y0033854D01*
X0025367Y0033854D01*
X0027172Y0034731D02*
X0027372Y0034731D01*
X0027372Y0036329D02*
X0027172Y0036329D01*
X0027172Y0037928D02*
X0027372Y0037928D01*
X0027372Y0039526D02*
X0027172Y0039526D01*
X0027172Y0041125D02*
X0027372Y0041125D01*
X0027372Y0042723D02*
X0027172Y0042723D01*
X0027172Y0043854D02*
X0025367Y0043854D01*
X0022672Y0046548D01*
X0022672Y0048354D01*
X0027172Y0048354D01*
X0027172Y0048554D01*
X0027172Y0053054D01*
X0025367Y0053054D01*
X0022672Y0050359D01*
X0022672Y0048554D01*
X0027172Y0048554D01*
X0027372Y0048554D01*
X0027372Y0053054D01*
X0029178Y0053054D01*
X0031872Y0050359D01*
X0031872Y0048554D01*
X0027373Y0048554D01*
X0027373Y0048354D01*
X0031872Y0048354D01*
X0031872Y0046548D01*
X0029178Y0043854D01*
X0027372Y0043854D01*
X0027372Y0048353D01*
X0027172Y0048353D01*
X0027172Y0043854D01*
X0027172Y0044322D02*
X0027372Y0044322D01*
X0027372Y0045920D02*
X0027172Y0045920D01*
X0027172Y0047519D02*
X0027372Y0047519D01*
X0027372Y0049117D02*
X0027172Y0049117D01*
X0027172Y0050716D02*
X0027372Y0050716D01*
X0027372Y0052314D02*
X0027172Y0052314D01*
X0024628Y0052314D02*
X0019917Y0052314D01*
X0021515Y0050716D02*
X0023029Y0050716D01*
X0022672Y0049117D02*
X0021872Y0049117D01*
X0021872Y0047519D02*
X0022672Y0047519D01*
X0023300Y0045920D02*
X0021245Y0045920D01*
X0019646Y0044322D02*
X0024899Y0044322D01*
X0025037Y0042723D02*
X0019508Y0042723D01*
X0021107Y0041125D02*
X0023438Y0041125D01*
X0022672Y0039526D02*
X0021872Y0039526D01*
X0021872Y0037928D02*
X0022672Y0037928D01*
X0022891Y0036329D02*
X0021654Y0036329D01*
X0014490Y0034731D02*
X0009181Y0034731D01*
X0009182Y0036329D02*
X0012891Y0036329D01*
X0012672Y0037928D02*
X0009183Y0037928D01*
X0009184Y0039526D02*
X0012672Y0039526D01*
X0013438Y0041125D02*
X0009185Y0041125D01*
X0009186Y0042723D02*
X0015037Y0042723D01*
X0014899Y0044322D02*
X0009188Y0044322D01*
X0009189Y0045920D02*
X0013300Y0045920D01*
X0012672Y0047519D02*
X0009190Y0047519D01*
X0009191Y0049117D02*
X0012672Y0049117D01*
X0013029Y0050716D02*
X0009192Y0050716D01*
X0020553Y0055511D02*
X0023992Y0055511D01*
X0022872Y0057110D02*
X0021672Y0057110D01*
X0021672Y0058708D02*
X0022872Y0058708D01*
X0022903Y0060307D02*
X0021642Y0060307D01*
X0020043Y0061905D02*
X0024502Y0061905D01*
X0024401Y0065102D02*
X0020144Y0065102D01*
X0021672Y0066701D02*
X0022872Y0066701D01*
X0022872Y0068300D02*
X0021672Y0068300D01*
X0021672Y0069898D02*
X0022872Y0069898D01*
X0024093Y0071497D02*
X0020452Y0071497D01*
X0019095Y0074054D02*
X0015450Y0074054D01*
X0012872Y0076631D01*
X0012872Y0080276D01*
X0015450Y0082854D01*
X0019095Y0082854D01*
X0021672Y0080276D01*
X0021672Y0076631D01*
X0019095Y0074054D01*
X0019735Y0074694D02*
X0024810Y0074694D01*
X0023211Y0076292D02*
X0021333Y0076292D01*
X0021672Y0077891D02*
X0022872Y0077891D01*
X0022872Y0079489D02*
X0021672Y0079489D01*
X0020861Y0081088D02*
X0023684Y0081088D01*
X0025282Y0082686D02*
X0019262Y0082686D01*
X0019095Y0084054D02*
X0021672Y0086631D01*
X0021672Y0090276D01*
X0019095Y0092854D01*
X0015450Y0092854D01*
X0012872Y0090276D01*
X0012872Y0086631D01*
X0015450Y0084054D01*
X0019095Y0084054D01*
X0019326Y0084285D02*
X0025219Y0084285D01*
X0023620Y0085883D02*
X0020925Y0085883D01*
X0021672Y0087482D02*
X0022872Y0087482D01*
X0022872Y0089080D02*
X0021672Y0089080D01*
X0021270Y0090679D02*
X0023275Y0090679D01*
X0024874Y0092277D02*
X0019671Y0092277D01*
X0020516Y0095474D02*
X0024029Y0095474D01*
X0022872Y0097073D02*
X0021672Y0097073D01*
X0021672Y0098671D02*
X0022872Y0098671D01*
X0022872Y0100270D02*
X0021672Y0100270D01*
X0020080Y0101868D02*
X0024465Y0101868D01*
X0024438Y0105065D02*
X0020107Y0105065D01*
X0021672Y0106664D02*
X0022872Y0106664D01*
X0022872Y0108262D02*
X0021672Y0108262D01*
X0021672Y0109861D02*
X0022872Y0109861D01*
X0024056Y0111459D02*
X0020489Y0111459D01*
X0014056Y0111459D02*
X0009235Y0111459D01*
X0009234Y0109861D02*
X0012872Y0109861D01*
X0012872Y0108262D02*
X0009233Y0108262D01*
X0009232Y0106664D02*
X0012872Y0106664D01*
X0014874Y0092277D02*
X0009222Y0092277D01*
X0009221Y0090679D02*
X0013275Y0090679D01*
X0012872Y0089080D02*
X0009220Y0089080D01*
X0009218Y0087482D02*
X0012872Y0087482D01*
X0013620Y0085883D02*
X0009217Y0085883D01*
X0009216Y0084285D02*
X0015219Y0084285D01*
X0015282Y0082686D02*
X0009215Y0082686D01*
X0009214Y0081088D02*
X0013684Y0081088D01*
X0012872Y0079489D02*
X0009213Y0079489D01*
X0009212Y0077891D02*
X0012872Y0077891D01*
X0013211Y0076292D02*
X0009210Y0076292D01*
X0009209Y0074694D02*
X0014810Y0074694D01*
X0030452Y0071497D02*
X0247787Y0071497D01*
X0247787Y0069898D02*
X0031672Y0069898D01*
X0031672Y0068300D02*
X0247787Y0068300D01*
X0247787Y0066701D02*
X0031672Y0066701D01*
X0029917Y0052314D02*
X0247787Y0052314D01*
X0247787Y0050716D02*
X0031515Y0050716D01*
X0031872Y0049117D02*
X0247787Y0049117D01*
X0247787Y0047519D02*
X0031872Y0047519D01*
X0031245Y0045920D02*
X0247787Y0045920D01*
X0247787Y0044322D02*
X0029646Y0044322D01*
X0029508Y0042723D02*
X0247787Y0042723D01*
X0247787Y0041125D02*
X0031107Y0041125D01*
X0031872Y0039526D02*
X0247787Y0039526D01*
X0247787Y0037928D02*
X0031872Y0037928D01*
X0031654Y0036329D02*
X0247787Y0036329D01*
X0247787Y0034731D02*
X0030055Y0034731D01*
X0009180Y0033132D02*
X0247787Y0033132D01*
X0247787Y0031534D02*
X0009178Y0031534D01*
X0009177Y0029935D02*
X0247787Y0029935D01*
X0247787Y0028337D02*
X0009176Y0028337D01*
X0009175Y0026738D02*
X0247787Y0026738D01*
X0247787Y0025140D02*
X0009174Y0025140D01*
X0009173Y0023541D02*
X0247787Y0023541D01*
X0247787Y0021943D02*
X0009172Y0021943D01*
X0009170Y0020344D02*
X0247787Y0020344D01*
X0247787Y0018746D02*
X0009169Y0018746D01*
X0009168Y0017147D02*
X0247787Y0017147D01*
X0247787Y0015549D02*
X0009167Y0015549D01*
X0009166Y0013950D02*
X0247787Y0013950D01*
X0247787Y0012352D02*
X0009165Y0012352D01*
X0009164Y0010753D02*
X0247787Y0010753D01*
X0247787Y0143430D02*
X0135345Y0143430D01*
X0135883Y0145028D02*
X0247787Y0145028D01*
X0247787Y0146627D02*
X0135883Y0146627D01*
X0135883Y0148225D02*
X0247787Y0148225D01*
X0247787Y0149824D02*
X0135712Y0149824D01*
X0135683Y0151422D02*
X0247787Y0151422D01*
X0247787Y0153021D02*
X0135683Y0153021D01*
X0135683Y0154619D02*
X0247787Y0154619D01*
X0247787Y0156218D02*
X0135683Y0156218D01*
X0132115Y0153572D02*
X0131957Y0153729D01*
X0131957Y0163139D01*
X0126997Y0168099D01*
X0126997Y0187233D01*
X0134631Y0194868D01*
X0134631Y0243914D01*
X0134631Y0244648D01*
X0124258Y0255021D01*
X0106504Y0255021D01*
X0096367Y0244884D01*
X0096367Y0242233D01*
X0093363Y0245734D02*
X0089371Y0245734D01*
X0088272Y0246833D02*
X0084462Y0246833D01*
X0081767Y0244138D01*
X0081767Y0240328D01*
X0084462Y0237633D01*
X0088272Y0237633D01*
X0090967Y0240328D01*
X0090967Y0244138D01*
X0088272Y0246833D01*
X0090967Y0244136D02*
X0091767Y0244136D01*
X0091767Y0242537D02*
X0090967Y0242537D01*
X0090967Y0240939D02*
X0091767Y0240939D01*
X0092754Y0239340D02*
X0089979Y0239340D01*
X0088381Y0237742D02*
X0094353Y0237742D01*
X0093772Y0236143D02*
X0088962Y0236143D01*
X0088272Y0236833D02*
X0084462Y0236833D01*
X0081767Y0234138D01*
X0081767Y0230328D01*
X0084462Y0227633D01*
X0088272Y0227633D01*
X0090967Y0230328D01*
X0090967Y0234138D01*
X0088272Y0236833D01*
X0090561Y0234545D02*
X0092173Y0234545D01*
X0091767Y0232946D02*
X0090967Y0232946D01*
X0090967Y0231348D02*
X0091767Y0231348D01*
X0092345Y0229749D02*
X0090388Y0229749D01*
X0088790Y0228151D02*
X0093944Y0228151D01*
X0083944Y0228151D02*
X0078790Y0228151D01*
X0078272Y0227633D02*
X0080967Y0230328D01*
X0080967Y0234138D01*
X0078272Y0236833D01*
X0074462Y0236833D01*
X0071767Y0234138D01*
X0071767Y0230328D01*
X0074462Y0227633D01*
X0078272Y0227633D01*
X0080388Y0229749D02*
X0082345Y0229749D01*
X0081767Y0231348D02*
X0080967Y0231348D01*
X0080967Y0232946D02*
X0081767Y0232946D01*
X0082173Y0234545D02*
X0080561Y0234545D01*
X0078962Y0236143D02*
X0083772Y0236143D01*
X0084353Y0237742D02*
X0078381Y0237742D01*
X0078272Y0237633D02*
X0080967Y0240328D01*
X0080967Y0244138D01*
X0078272Y0246833D01*
X0074462Y0246833D01*
X0071767Y0244138D01*
X0071767Y0240328D01*
X0074462Y0237633D01*
X0078272Y0237633D01*
X0079979Y0239340D02*
X0082754Y0239340D01*
X0081767Y0240939D02*
X0080967Y0240939D01*
X0080967Y0242537D02*
X0081767Y0242537D01*
X0081767Y0244136D02*
X0080967Y0244136D01*
X0079371Y0245734D02*
X0083363Y0245734D01*
X0073363Y0245734D02*
X0069371Y0245734D01*
X0068272Y0246833D02*
X0064462Y0246833D01*
X0061767Y0244138D01*
X0061767Y0240328D01*
X0064462Y0237633D01*
X0068272Y0237633D01*
X0070967Y0240328D01*
X0070967Y0244138D01*
X0068272Y0246833D01*
X0070967Y0244136D02*
X0071767Y0244136D01*
X0071767Y0242537D02*
X0070967Y0242537D01*
X0070967Y0240939D02*
X0071767Y0240939D01*
X0072754Y0239340D02*
X0069979Y0239340D01*
X0068381Y0237742D02*
X0074353Y0237742D01*
X0073772Y0236143D02*
X0068962Y0236143D01*
X0068272Y0236833D02*
X0064462Y0236833D01*
X0061767Y0234138D01*
X0061767Y0230328D01*
X0064462Y0227633D01*
X0068272Y0227633D01*
X0070967Y0230328D01*
X0070967Y0234138D01*
X0068272Y0236833D01*
X0070561Y0234545D02*
X0072173Y0234545D01*
X0071767Y0232946D02*
X0070967Y0232946D01*
X0070967Y0231348D02*
X0071767Y0231348D01*
X0072345Y0229749D02*
X0070388Y0229749D01*
X0068790Y0228151D02*
X0073944Y0228151D01*
X0064353Y0237742D02*
X0009326Y0237742D01*
X0009327Y0239340D02*
X0062754Y0239340D01*
X0061767Y0240939D02*
X0009328Y0240939D01*
X0009329Y0242537D02*
X0061767Y0242537D01*
X0061767Y0244136D02*
X0009330Y0244136D01*
X0009331Y0245734D02*
X0063363Y0245734D01*
X0063772Y0236143D02*
X0009324Y0236143D01*
X0009323Y0234545D02*
X0062173Y0234545D01*
X0061767Y0232946D02*
X0009322Y0232946D01*
X0009321Y0231348D02*
X0061767Y0231348D01*
X0062345Y0229749D02*
X0009320Y0229749D01*
X0009319Y0228151D02*
X0063944Y0228151D01*
X0095422Y0247333D02*
X0009332Y0247333D01*
X0009334Y0248931D02*
X0097020Y0248931D01*
X0098619Y0250530D02*
X0009335Y0250530D01*
X0009336Y0252128D02*
X0100217Y0252128D01*
X0101816Y0253727D02*
X0009337Y0253727D01*
X0009338Y0255325D02*
X0103414Y0255325D01*
X0105013Y0256924D02*
X0009339Y0256924D01*
X0060135Y0177539D02*
X0057557Y0174961D01*
X0057557Y0171316D01*
X0060135Y0168739D01*
X0063780Y0168739D01*
X0066357Y0171316D01*
X0066357Y0174961D01*
X0063780Y0177539D01*
X0060135Y0177539D01*
X0059595Y0176998D02*
X0054320Y0176998D01*
X0055919Y0175400D02*
X0057996Y0175400D01*
X0057557Y0173801D02*
X0056357Y0173801D01*
X0056357Y0172203D02*
X0057557Y0172203D01*
X0058269Y0170604D02*
X0055646Y0170604D01*
X0054047Y0169006D02*
X0059868Y0169006D01*
X0060052Y0167739D02*
X0057357Y0165044D01*
X0057357Y0163239D01*
X0061857Y0163239D01*
X0061857Y0163039D01*
X0057357Y0163039D01*
X0057357Y0161233D01*
X0060052Y0158539D01*
X0061857Y0158539D01*
X0061857Y0163038D01*
X0062057Y0163038D01*
X0062057Y0158539D01*
X0063863Y0158539D01*
X0066557Y0161233D01*
X0066557Y0163039D01*
X0062058Y0163039D01*
X0062058Y0163239D01*
X0066557Y0163239D01*
X0066557Y0165044D01*
X0063863Y0167739D01*
X0062057Y0167739D01*
X0062057Y0163239D01*
X0061857Y0163239D01*
X0061857Y0167739D01*
X0060052Y0167739D01*
X0059721Y0167407D02*
X0053911Y0167407D01*
X0055510Y0165809D02*
X0058122Y0165809D01*
X0057357Y0164210D02*
X0056357Y0164210D01*
X0056357Y0162612D02*
X0057357Y0162612D01*
X0057578Y0161013D02*
X0056055Y0161013D01*
X0054456Y0159415D02*
X0059176Y0159415D01*
X0061857Y0159415D02*
X0062057Y0159415D01*
X0062057Y0161013D02*
X0061857Y0161013D01*
X0061857Y0162612D02*
X0062057Y0162612D01*
X0062057Y0164210D02*
X0061857Y0164210D01*
X0061857Y0165809D02*
X0062057Y0165809D01*
X0062057Y0167407D02*
X0061857Y0167407D01*
X0064194Y0167407D02*
X0070004Y0167407D01*
X0070135Y0167539D02*
X0067557Y0164961D01*
X0067557Y0161316D01*
X0070135Y0158739D01*
X0073780Y0158739D01*
X0076357Y0161316D01*
X0076357Y0164961D01*
X0073780Y0167539D01*
X0070135Y0167539D01*
X0070135Y0168739D02*
X0073780Y0168739D01*
X0076357Y0171316D01*
X0076357Y0174961D01*
X0073780Y0177539D01*
X0070135Y0177539D01*
X0067557Y0174961D01*
X0067557Y0171316D01*
X0070135Y0168739D01*
X0069868Y0169006D02*
X0064047Y0169006D01*
X0065646Y0170604D02*
X0068269Y0170604D01*
X0067557Y0172203D02*
X0066357Y0172203D01*
X0066357Y0173801D02*
X0067557Y0173801D01*
X0067996Y0175400D02*
X0065919Y0175400D01*
X0064320Y0176998D02*
X0069595Y0176998D01*
X0074320Y0176998D02*
X0079312Y0176998D01*
X0080052Y0177739D02*
X0077357Y0175044D01*
X0077357Y0173239D01*
X0081857Y0173239D01*
X0081857Y0173039D01*
X0077357Y0173039D01*
X0077357Y0171233D01*
X0080052Y0168539D01*
X0081857Y0168539D01*
X0081857Y0173038D01*
X0082057Y0173038D01*
X0082057Y0168539D01*
X0083863Y0168539D01*
X0086557Y0171233D01*
X0086557Y0173039D01*
X0082058Y0173039D01*
X0082058Y0173239D01*
X0086557Y0173239D01*
X0086557Y0175044D01*
X0083863Y0177739D01*
X0082057Y0177739D01*
X0082057Y0173239D01*
X0081857Y0173239D01*
X0081857Y0177739D01*
X0080052Y0177739D01*
X0081857Y0176998D02*
X0082057Y0176998D01*
X0082057Y0175400D02*
X0081857Y0175400D01*
X0081857Y0173801D02*
X0082057Y0173801D01*
X0082057Y0172203D02*
X0081857Y0172203D01*
X0081857Y0170604D02*
X0082057Y0170604D01*
X0082057Y0169006D02*
X0081857Y0169006D01*
X0080135Y0167539D02*
X0077557Y0164961D01*
X0077557Y0161316D01*
X0080135Y0158739D01*
X0083780Y0158739D01*
X0086357Y0161316D01*
X0086357Y0164961D01*
X0083780Y0167539D01*
X0080135Y0167539D01*
X0080004Y0167407D02*
X0073911Y0167407D01*
X0074047Y0169006D02*
X0079585Y0169006D01*
X0077986Y0170604D02*
X0075646Y0170604D01*
X0076357Y0172203D02*
X0077357Y0172203D01*
X0077357Y0173801D02*
X0076357Y0173801D01*
X0075919Y0175400D02*
X0077713Y0175400D01*
X0084603Y0176998D02*
X0089595Y0176998D01*
X0090135Y0177539D02*
X0087557Y0174961D01*
X0087557Y0171316D01*
X0090135Y0168739D01*
X0093780Y0168739D01*
X0096357Y0171316D01*
X0096357Y0174961D01*
X0093780Y0177539D01*
X0090135Y0177539D01*
X0087996Y0175400D02*
X0086202Y0175400D01*
X0086557Y0173801D02*
X0087557Y0173801D01*
X0087557Y0172203D02*
X0086557Y0172203D01*
X0085929Y0170604D02*
X0088269Y0170604D01*
X0089868Y0169006D02*
X0084330Y0169006D01*
X0083911Y0167407D02*
X0090004Y0167407D01*
X0090135Y0167539D02*
X0087557Y0164961D01*
X0087557Y0161316D01*
X0090135Y0158739D01*
X0093780Y0158739D01*
X0096357Y0161316D01*
X0096357Y0164961D01*
X0093780Y0167539D01*
X0090135Y0167539D01*
X0088405Y0165809D02*
X0085510Y0165809D01*
X0086357Y0164210D02*
X0087557Y0164210D01*
X0087557Y0162612D02*
X0086357Y0162612D01*
X0086055Y0161013D02*
X0087860Y0161013D01*
X0089459Y0159415D02*
X0084456Y0159415D01*
X0079459Y0159415D02*
X0074456Y0159415D01*
X0076055Y0161013D02*
X0077860Y0161013D01*
X0077557Y0162612D02*
X0076357Y0162612D01*
X0076357Y0164210D02*
X0077557Y0164210D01*
X0078405Y0165809D02*
X0075510Y0165809D01*
X0068405Y0165809D02*
X0065793Y0165809D01*
X0066557Y0164210D02*
X0067557Y0164210D01*
X0067557Y0162612D02*
X0066557Y0162612D01*
X0066337Y0161013D02*
X0067860Y0161013D01*
X0069459Y0159415D02*
X0064739Y0159415D01*
X0094456Y0159415D02*
X0099459Y0159415D01*
X0097860Y0161013D02*
X0096055Y0161013D01*
X0096357Y0162612D02*
X0097557Y0162612D01*
X0097557Y0164210D02*
X0096357Y0164210D01*
X0095510Y0165809D02*
X0098405Y0165809D01*
X0100004Y0167407D02*
X0093911Y0167407D01*
X0094047Y0169006D02*
X0099868Y0169006D01*
X0098269Y0170604D02*
X0095646Y0170604D01*
X0096357Y0172203D02*
X0097557Y0172203D01*
X0097557Y0173801D02*
X0096357Y0173801D01*
X0095919Y0175400D02*
X0097996Y0175400D01*
X0099557Y0176998D02*
X0094320Y0176998D01*
X0101957Y0173139D02*
X0101957Y0201761D01*
X0116367Y0216170D01*
X0116367Y0232233D01*
X0118962Y0236143D02*
X0122235Y0236143D01*
X0122235Y0234545D02*
X0120561Y0234545D01*
X0120967Y0232946D02*
X0122235Y0232946D01*
X0122235Y0231348D02*
X0120967Y0231348D01*
X0120388Y0229749D02*
X0122235Y0229749D01*
X0122235Y0228151D02*
X0118790Y0228151D01*
X0118767Y0226552D02*
X0122235Y0226552D01*
X0122235Y0224954D02*
X0118767Y0224954D01*
X0118767Y0223355D02*
X0122235Y0223355D01*
X0122235Y0221757D02*
X0118767Y0221757D01*
X0118767Y0220158D02*
X0122235Y0220158D01*
X0122235Y0218560D02*
X0118767Y0218560D01*
X0118767Y0216961D02*
X0122235Y0216961D01*
X0122235Y0215363D02*
X0118630Y0215363D01*
X0117355Y0213764D02*
X0122235Y0213764D01*
X0122235Y0212166D02*
X0115756Y0212166D01*
X0114158Y0210567D02*
X0122235Y0210567D01*
X0121126Y0208969D02*
X0112559Y0208969D01*
X0110961Y0207370D02*
X0119527Y0207370D01*
X0117929Y0205771D02*
X0109362Y0205771D01*
X0107764Y0204173D02*
X0116330Y0204173D01*
X0114732Y0202574D02*
X0106165Y0202574D01*
X0104567Y0200976D02*
X0113133Y0200976D01*
X0111535Y0199377D02*
X0104357Y0199377D01*
X0104357Y0197779D02*
X0109936Y0197779D01*
X0108337Y0196180D02*
X0104357Y0196180D01*
X0104357Y0194582D02*
X0106739Y0194582D01*
X0105140Y0192983D02*
X0104357Y0192983D01*
X0104357Y0191385D02*
X0104518Y0191385D01*
X0104518Y0189786D02*
X0104357Y0189786D01*
X0104357Y0188188D02*
X0104518Y0188188D01*
X0104518Y0186589D02*
X0104357Y0186589D01*
X0104357Y0184991D02*
X0104518Y0184991D01*
X0104518Y0183392D02*
X0104357Y0183392D01*
X0104357Y0181794D02*
X0104518Y0181794D01*
X0104518Y0180195D02*
X0104357Y0180195D01*
X0104357Y0178597D02*
X0104518Y0178597D01*
X0104518Y0176998D02*
X0104357Y0176998D01*
X0109484Y0169006D02*
X0109585Y0169006D01*
X0106918Y0168178D02*
X0111957Y0163139D01*
X0111957Y0153650D01*
X0112036Y0153572D01*
X0121879Y0153572D02*
X0121957Y0153650D01*
X0121957Y0163139D01*
X0117002Y0168094D01*
X0117002Y0191018D01*
X0129753Y0203769D01*
X0129753Y0242351D01*
X0122680Y0249424D01*
X0110940Y0249424D01*
X0106367Y0244851D01*
X0106367Y0242233D01*
X0109979Y0239340D02*
X0112754Y0239340D01*
X0111767Y0240939D02*
X0110967Y0240939D01*
X0110967Y0242537D02*
X0111767Y0242537D01*
X0111767Y0244136D02*
X0110967Y0244136D01*
X0110645Y0245734D02*
X0113363Y0245734D01*
X0114353Y0237742D02*
X0108381Y0237742D01*
X0108962Y0236143D02*
X0113772Y0236143D01*
X0112173Y0234545D02*
X0110561Y0234545D01*
X0110967Y0232946D02*
X0111767Y0232946D01*
X0111767Y0231348D02*
X0110967Y0231348D01*
X0110388Y0229749D02*
X0112345Y0229749D01*
X0118381Y0237742D02*
X0120732Y0237742D01*
X0119595Y0176998D02*
X0119402Y0176998D01*
X0119484Y0169006D02*
X0119868Y0169006D01*
X0124047Y0169006D02*
X0124597Y0169006D01*
X0124686Y0167407D02*
X0123911Y0167407D01*
X0125510Y0165809D02*
X0125893Y0165809D01*
X0126357Y0164210D02*
X0127492Y0164210D01*
X0127557Y0162612D02*
X0126357Y0162612D01*
X0126055Y0161013D02*
X0127860Y0161013D01*
X0129459Y0159415D02*
X0124456Y0159415D01*
X0124357Y0157816D02*
X0129557Y0157816D01*
X0128546Y0156218D02*
X0125447Y0156218D01*
X0125447Y0154619D02*
X0128546Y0154619D01*
X0128546Y0153021D02*
X0125447Y0153021D01*
X0125447Y0151422D02*
X0128546Y0151422D01*
X0128518Y0149824D02*
X0125476Y0149824D01*
X0125647Y0148225D02*
X0128346Y0148225D01*
X0128346Y0146694D02*
X0128346Y0144476D01*
X0128469Y0144019D01*
X0128706Y0143608D01*
X0129041Y0143273D01*
X0129452Y0143036D01*
X0129909Y0142913D01*
X0131931Y0142913D01*
X0131931Y0146694D01*
X0128346Y0146694D01*
X0128346Y0146627D02*
X0125647Y0146627D01*
X0125647Y0145028D02*
X0128346Y0145028D01*
X0128885Y0143430D02*
X0125109Y0143430D01*
X0122063Y0143430D02*
X0121694Y0143430D01*
X0121694Y0145028D02*
X0122063Y0145028D01*
X0122063Y0146627D02*
X0121694Y0146627D01*
X0131931Y0146627D02*
X0132299Y0146627D01*
X0132299Y0145028D02*
X0131931Y0145028D01*
X0131931Y0143430D02*
X0132299Y0143430D01*
X0136055Y0161013D02*
X0137578Y0161013D01*
X0137357Y0162612D02*
X0136357Y0162612D01*
X0136357Y0164210D02*
X0137357Y0164210D01*
X0138122Y0165809D02*
X0135510Y0165809D01*
X0129868Y0169006D02*
X0129484Y0169006D01*
X0183911Y0167407D02*
X0190004Y0167407D01*
X0190135Y0167539D02*
X0187557Y0164961D01*
X0187557Y0161316D01*
X0190135Y0158739D01*
X0193780Y0158739D01*
X0196357Y0161316D01*
X0196357Y0164961D01*
X0193780Y0167539D01*
X0190135Y0167539D01*
X0190135Y0168739D02*
X0193780Y0168739D01*
X0196357Y0171316D01*
X0196357Y0174961D01*
X0193780Y0177539D01*
X0190135Y0177539D01*
X0187557Y0174961D01*
X0187557Y0171316D01*
X0190135Y0168739D01*
X0189868Y0169006D02*
X0184330Y0169006D01*
X0185929Y0170604D02*
X0188269Y0170604D01*
X0187557Y0172203D02*
X0186557Y0172203D01*
X0186557Y0173801D02*
X0187557Y0173801D01*
X0187996Y0175400D02*
X0186202Y0175400D01*
X0184603Y0176998D02*
X0189595Y0176998D01*
X0194320Y0176998D02*
X0199595Y0176998D01*
X0200135Y0177539D02*
X0197557Y0174961D01*
X0197557Y0171316D01*
X0200135Y0168739D01*
X0203780Y0168739D01*
X0206357Y0171316D01*
X0206357Y0174961D01*
X0203780Y0177539D01*
X0200135Y0177539D01*
X0197996Y0175400D02*
X0195919Y0175400D01*
X0196357Y0173801D02*
X0197557Y0173801D01*
X0197557Y0172203D02*
X0196357Y0172203D01*
X0195646Y0170604D02*
X0198269Y0170604D01*
X0199868Y0169006D02*
X0194047Y0169006D01*
X0193911Y0167407D02*
X0200004Y0167407D01*
X0200135Y0167539D02*
X0197557Y0164961D01*
X0197557Y0161316D01*
X0200135Y0158739D01*
X0203780Y0158739D01*
X0206357Y0161316D01*
X0206357Y0164961D01*
X0203780Y0167539D01*
X0200135Y0167539D01*
X0198405Y0165809D02*
X0195510Y0165809D01*
X0196357Y0164210D02*
X0197557Y0164210D01*
X0197557Y0162612D02*
X0196357Y0162612D01*
X0196055Y0161013D02*
X0197860Y0161013D01*
X0199459Y0159415D02*
X0194456Y0159415D01*
X0189459Y0159415D02*
X0184456Y0159415D01*
X0186055Y0161013D02*
X0187860Y0161013D01*
X0187557Y0162612D02*
X0186357Y0162612D01*
X0186357Y0164210D02*
X0187557Y0164210D01*
X0188405Y0165809D02*
X0185510Y0165809D01*
X0203911Y0167407D02*
X0209721Y0167407D01*
X0209868Y0169006D02*
X0204047Y0169006D01*
X0205646Y0170604D02*
X0208269Y0170604D01*
X0207557Y0172203D02*
X0206357Y0172203D01*
X0206357Y0173801D02*
X0207557Y0173801D01*
X0207996Y0175400D02*
X0205919Y0175400D01*
X0204320Y0176998D02*
X0209595Y0176998D01*
X0208122Y0165809D02*
X0205510Y0165809D01*
X0206357Y0164210D02*
X0207357Y0164210D01*
X0207357Y0162612D02*
X0206357Y0162612D01*
X0206055Y0161013D02*
X0207578Y0161013D01*
X0209176Y0159415D02*
X0204456Y0159415D01*
X0207178Y0227633D02*
X0210989Y0227633D01*
X0213683Y0230328D01*
X0213683Y0234138D01*
X0210989Y0236833D01*
X0207178Y0236833D01*
X0204483Y0234138D01*
X0204483Y0230328D01*
X0207178Y0227633D01*
X0206661Y0228151D02*
X0201506Y0228151D01*
X0200989Y0227633D02*
X0203683Y0230328D01*
X0203683Y0234138D01*
X0200989Y0236833D01*
X0197178Y0236833D01*
X0194483Y0234138D01*
X0194483Y0230328D01*
X0197178Y0227633D01*
X0200989Y0227633D01*
X0203105Y0229749D02*
X0205062Y0229749D01*
X0204483Y0231348D02*
X0203683Y0231348D01*
X0203683Y0232946D02*
X0204483Y0232946D01*
X0204890Y0234545D02*
X0203277Y0234545D01*
X0201679Y0236143D02*
X0206488Y0236143D01*
X0207178Y0237633D02*
X0210989Y0237633D01*
X0213683Y0240328D01*
X0213683Y0244138D01*
X0210989Y0246833D01*
X0207178Y0246833D01*
X0204483Y0244138D01*
X0204483Y0240328D01*
X0207178Y0237633D01*
X0207069Y0237742D02*
X0201097Y0237742D01*
X0200989Y0237633D02*
X0203683Y0240328D01*
X0203683Y0244138D01*
X0200989Y0246833D01*
X0197178Y0246833D01*
X0194483Y0244138D01*
X0194483Y0240328D01*
X0197178Y0237633D01*
X0200989Y0237633D01*
X0202696Y0239340D02*
X0205471Y0239340D01*
X0204483Y0240939D02*
X0203683Y0240939D01*
X0203683Y0242537D02*
X0204483Y0242537D01*
X0204483Y0244136D02*
X0203683Y0244136D01*
X0202088Y0245734D02*
X0206079Y0245734D01*
X0212088Y0245734D02*
X0216079Y0245734D01*
X0217178Y0246833D02*
X0214483Y0244138D01*
X0214483Y0240328D01*
X0217178Y0237633D01*
X0220989Y0237633D01*
X0223683Y0240328D01*
X0223683Y0244138D01*
X0220989Y0246833D01*
X0217178Y0246833D01*
X0214483Y0244136D02*
X0213683Y0244136D01*
X0213683Y0242537D02*
X0214483Y0242537D01*
X0214483Y0240939D02*
X0213683Y0240939D01*
X0212696Y0239340D02*
X0215471Y0239340D01*
X0217069Y0237742D02*
X0211097Y0237742D01*
X0211679Y0236143D02*
X0216488Y0236143D01*
X0217178Y0236833D02*
X0214483Y0234138D01*
X0214483Y0230328D01*
X0217178Y0227633D01*
X0220989Y0227633D01*
X0223683Y0230328D01*
X0223683Y0234138D01*
X0220989Y0236833D01*
X0217178Y0236833D01*
X0214890Y0234545D02*
X0213277Y0234545D01*
X0213683Y0232946D02*
X0214483Y0232946D01*
X0214483Y0231348D02*
X0213683Y0231348D01*
X0213105Y0229749D02*
X0215062Y0229749D01*
X0216661Y0228151D02*
X0211506Y0228151D01*
X0221506Y0228151D02*
X0226378Y0228151D01*
X0227095Y0227433D02*
X0228883Y0227433D01*
X0228883Y0232033D01*
X0224283Y0232033D01*
X0224283Y0230245D01*
X0227095Y0227433D01*
X0228883Y0228151D02*
X0229283Y0228151D01*
X0229283Y0227433D02*
X0231072Y0227433D01*
X0233883Y0230245D01*
X0233883Y0232033D01*
X0229284Y0232033D01*
X0229284Y0232433D01*
X0233883Y0232433D01*
X0233883Y0234221D01*
X0231072Y0237033D01*
X0229283Y0237033D01*
X0229283Y0232433D01*
X0228883Y0232433D01*
X0228883Y0232033D01*
X0229283Y0232033D01*
X0229283Y0227433D01*
X0229283Y0229749D02*
X0228883Y0229749D01*
X0228883Y0231348D02*
X0229283Y0231348D01*
X0228883Y0232433D02*
X0224283Y0232433D01*
X0224283Y0234221D01*
X0227095Y0237033D01*
X0228883Y0237033D01*
X0228883Y0232433D01*
X0228883Y0232946D02*
X0229283Y0232946D01*
X0229283Y0234545D02*
X0228883Y0234545D01*
X0228883Y0236143D02*
X0229283Y0236143D01*
X0229283Y0237433D02*
X0231072Y0237433D01*
X0233883Y0240245D01*
X0233883Y0242033D01*
X0229284Y0242033D01*
X0229284Y0242433D01*
X0233883Y0242433D01*
X0233883Y0244221D01*
X0231072Y0247033D01*
X0229283Y0247033D01*
X0229283Y0242433D01*
X0228883Y0242433D01*
X0228883Y0242033D01*
X0224283Y0242033D01*
X0224283Y0240245D01*
X0227095Y0237433D01*
X0228883Y0237433D01*
X0228883Y0242033D01*
X0229283Y0242033D01*
X0229283Y0237433D01*
X0229283Y0237742D02*
X0228883Y0237742D01*
X0228883Y0239340D02*
X0229283Y0239340D01*
X0229283Y0240939D02*
X0228883Y0240939D01*
X0228883Y0242433D02*
X0224283Y0242433D01*
X0224283Y0244221D01*
X0227095Y0247033D01*
X0228883Y0247033D01*
X0228883Y0242433D01*
X0228883Y0242537D02*
X0229283Y0242537D01*
X0229283Y0244136D02*
X0228883Y0244136D01*
X0228883Y0245734D02*
X0229283Y0245734D01*
X0232370Y0245734D02*
X0247787Y0245734D01*
X0247787Y0244136D02*
X0233883Y0244136D01*
X0233883Y0242537D02*
X0247787Y0242537D01*
X0247787Y0240939D02*
X0233883Y0240939D01*
X0232979Y0239340D02*
X0247787Y0239340D01*
X0247787Y0237742D02*
X0231380Y0237742D01*
X0231962Y0236143D02*
X0247787Y0236143D01*
X0247787Y0234545D02*
X0233560Y0234545D01*
X0233883Y0232946D02*
X0247787Y0232946D01*
X0247787Y0231348D02*
X0233883Y0231348D01*
X0233388Y0229749D02*
X0247787Y0229749D01*
X0247787Y0228151D02*
X0231789Y0228151D01*
X0224779Y0229749D02*
X0223105Y0229749D01*
X0223683Y0231348D02*
X0224283Y0231348D01*
X0224283Y0232946D02*
X0223683Y0232946D01*
X0223277Y0234545D02*
X0224607Y0234545D01*
X0226205Y0236143D02*
X0221679Y0236143D01*
X0221097Y0237742D02*
X0226787Y0237742D01*
X0225188Y0239340D02*
X0222696Y0239340D01*
X0223683Y0240939D02*
X0224283Y0240939D01*
X0224283Y0242537D02*
X0223683Y0242537D01*
X0223683Y0244136D02*
X0224283Y0244136D01*
X0225796Y0245734D02*
X0222088Y0245734D01*
X0196079Y0245734D02*
X0192088Y0245734D01*
X0193683Y0244136D02*
X0194483Y0244136D01*
X0194483Y0242537D02*
X0193683Y0242537D01*
X0193683Y0240939D02*
X0194483Y0240939D01*
X0195471Y0239340D02*
X0192696Y0239340D01*
X0191097Y0237742D02*
X0197069Y0237742D01*
X0196488Y0236143D02*
X0191679Y0236143D01*
X0193277Y0234545D02*
X0194890Y0234545D01*
X0194483Y0232946D02*
X0193683Y0232946D01*
X0193683Y0231348D02*
X0194483Y0231348D01*
X0195062Y0229749D02*
X0193105Y0229749D01*
X0191506Y0228151D02*
X0196661Y0228151D01*
M02*
