%
M48
M72
T01C0.03600
T02C0.04000
%
T01
X17272Y38454
X17272Y48454
X17272Y58454
X17272Y68454
X17272Y78454
X17272Y88454
X17272Y98454
X17272Y108454
X27272Y108454
X27272Y98454
X27272Y88454
X27272Y78454
X27272Y68454
X27272Y58454
X27272Y48454
X27272Y38454
X31957Y163139
X31957Y173139
X21957Y173139
X21957Y163139
X41957Y163139
X41957Y173139
X51957Y173139
X51957Y163139
X61957Y163139
X61957Y173139
X71957Y173139
X71957Y163139
X81957Y163139
X81957Y173139
X91957Y173139
X91957Y163139
X101957Y163139
X101957Y173139
X111957Y173139
X111957Y163139
X121957Y163139
X121957Y173139
X131957Y173139
X131957Y163139
X141957Y163139
X141957Y173139
X151957Y173139
X151957Y163139
X161957Y163139
X161957Y173139
X171957Y173139
X171957Y163139
X181957Y163139
X181957Y173139
X191957Y173139
X191957Y163139
X201957Y163139
X201957Y173139
X211957Y173139
X211957Y163139
T02
X209083Y232233
X209083Y242233
X199083Y242233
X199083Y232233
X189083Y232233
X189083Y242233
X219083Y242233
X219083Y232233
X229083Y232233
X229083Y242233
X116367Y242233
X116367Y232233
X106367Y232233
X106367Y242233
X96367Y242233
X96367Y232233
X86367Y232233
X86367Y242233
X76367Y242233
X76367Y232233
X66367Y232233
X66367Y242233
M30
