G75*
%MOIN*%
%OFA0B0*%
%FSLAX25Y25*%
%IPPOS*%
%LPD*%
%AMOC8*
5,1,8,0,0,1.08239X$1,22.5*
%
%ADD10OC8,0.05600*%
%ADD11C,0.05600*%
%ADD12OC8,0.06000*%
%ADD13C,0.01600*%
%ADD14C,0.05000*%
%ADD15C,0.04000*%
D10*
X0017272Y0038454D03*
X0017272Y0048454D03*
X0017272Y0058454D03*
X0017272Y0068454D03*
X0017272Y0078454D03*
X0017272Y0088454D03*
X0017272Y0098454D03*
X0017272Y0108454D03*
X0027272Y0108454D03*
X0027272Y0098454D03*
X0027272Y0088454D03*
X0027272Y0078454D03*
X0027272Y0068454D03*
X0027272Y0058454D03*
X0027272Y0048454D03*
X0027272Y0038454D03*
X0031957Y0163139D03*
X0031957Y0173139D03*
X0021957Y0173139D03*
X0041957Y0173139D03*
X0041957Y0163139D03*
X0051957Y0163139D03*
X0051957Y0173139D03*
X0061957Y0173139D03*
X0061957Y0163139D03*
X0071957Y0163139D03*
X0071957Y0173139D03*
X0081957Y0173139D03*
X0081957Y0163139D03*
X0091957Y0163139D03*
X0091957Y0173139D03*
X0101957Y0173139D03*
X0101957Y0163139D03*
X0111957Y0163139D03*
X0111957Y0173139D03*
X0121957Y0173139D03*
X0121957Y0163139D03*
X0131957Y0163139D03*
X0131957Y0173139D03*
X0141957Y0173139D03*
X0141957Y0163139D03*
X0151957Y0163139D03*
X0151957Y0173139D03*
X0161957Y0173139D03*
X0161957Y0163139D03*
X0171957Y0163139D03*
X0171957Y0173139D03*
X0181957Y0173139D03*
X0181957Y0163139D03*
X0191957Y0163139D03*
X0191957Y0173139D03*
X0201957Y0173139D03*
X0201957Y0163139D03*
X0211957Y0163139D03*
X0211957Y0173139D03*
D11*
X0021957Y0163139D03*
D12*
X0066367Y0232233D03*
X0066367Y0242233D03*
X0076367Y0242233D03*
X0076367Y0232233D03*
X0086367Y0232233D03*
X0086367Y0242233D03*
X0096367Y0242233D03*
X0096367Y0232233D03*
X0106367Y0232233D03*
X0106367Y0242233D03*
X0116367Y0242233D03*
X0116367Y0232233D03*
X0189083Y0232233D03*
X0189083Y0242233D03*
X0199083Y0242233D03*
X0199083Y0232233D03*
X0209083Y0232233D03*
X0209083Y0242233D03*
X0219083Y0242233D03*
X0219083Y0232233D03*
X0229083Y0232233D03*
X0229083Y0242233D03*
D13*
X0009352Y0275350D02*
X0009162Y0009159D01*
X0247787Y0009159D01*
X0247787Y0275540D01*
X0009352Y0275350D01*
X0009352Y0274507D02*
X0247787Y0274507D01*
X0247787Y0272909D02*
X0009351Y0272909D01*
X0009350Y0271310D02*
X0041466Y0271310D01*
X0041573Y0271418D02*
X0019635Y0249479D01*
X0018482Y0248326D01*
X0017857Y0246819D01*
X0017857Y0175261D01*
X0017557Y0174961D01*
X0017557Y0171316D01*
X0020135Y0168739D01*
X0023780Y0168739D01*
X0024080Y0169039D01*
X0029835Y0169039D01*
X0030135Y0168739D01*
X0033780Y0168739D01*
X0036357Y0171316D01*
X0036357Y0174961D01*
X0033780Y0177539D01*
X0030135Y0177539D01*
X0029835Y0177239D01*
X0026057Y0177239D01*
X0026057Y0244305D01*
X0045594Y0263842D01*
X0168953Y0263842D01*
X0184983Y0247811D01*
X0184983Y0244638D01*
X0184483Y0244138D01*
X0184483Y0240328D01*
X0184983Y0239828D01*
X0184983Y0234638D01*
X0184483Y0234138D01*
X0184483Y0230328D01*
X0187178Y0227633D01*
X0190989Y0227633D01*
X0193683Y0230328D01*
X0193683Y0234138D01*
X0193183Y0234638D01*
X0193183Y0239828D01*
X0193683Y0240328D01*
X0193683Y0244138D01*
X0193183Y0244638D01*
X0193183Y0250325D01*
X0192559Y0251832D01*
X0172974Y0271418D01*
X0171467Y0272042D01*
X0043080Y0272042D01*
X0041573Y0271418D01*
X0039868Y0269712D02*
X0009348Y0269712D01*
X0009347Y0268113D02*
X0038269Y0268113D01*
X0036671Y0266515D02*
X0009346Y0266515D01*
X0009345Y0264916D02*
X0035072Y0264916D01*
X0033474Y0263318D02*
X0009344Y0263318D01*
X0009343Y0261719D02*
X0031875Y0261719D01*
X0030277Y0260121D02*
X0009342Y0260121D01*
X0009340Y0258522D02*
X0028678Y0258522D01*
X0027079Y0256924D02*
X0009339Y0256924D01*
X0009338Y0255325D02*
X0025481Y0255325D01*
X0023882Y0253727D02*
X0009337Y0253727D01*
X0009336Y0252128D02*
X0022284Y0252128D01*
X0020685Y0250530D02*
X0009335Y0250530D01*
X0009334Y0248931D02*
X0019087Y0248931D01*
X0019635Y0249479D02*
X0019635Y0249479D01*
X0018070Y0247333D02*
X0009332Y0247333D01*
X0009331Y0245734D02*
X0017857Y0245734D01*
X0017857Y0244136D02*
X0009330Y0244136D01*
X0009329Y0242537D02*
X0017857Y0242537D01*
X0017857Y0240939D02*
X0009328Y0240939D01*
X0009327Y0239340D02*
X0017857Y0239340D01*
X0017857Y0237742D02*
X0009326Y0237742D01*
X0009324Y0236143D02*
X0017857Y0236143D01*
X0017857Y0234545D02*
X0009323Y0234545D01*
X0009322Y0232946D02*
X0017857Y0232946D01*
X0017857Y0231348D02*
X0009321Y0231348D01*
X0009320Y0229749D02*
X0017857Y0229749D01*
X0017857Y0228151D02*
X0009319Y0228151D01*
X0009318Y0226552D02*
X0017857Y0226552D01*
X0017857Y0224954D02*
X0009316Y0224954D01*
X0009315Y0223355D02*
X0017857Y0223355D01*
X0017857Y0221757D02*
X0009314Y0221757D01*
X0009313Y0220158D02*
X0017857Y0220158D01*
X0017857Y0218560D02*
X0009312Y0218560D01*
X0009311Y0216961D02*
X0017857Y0216961D01*
X0017857Y0215363D02*
X0009310Y0215363D01*
X0009309Y0213764D02*
X0017857Y0213764D01*
X0017857Y0212166D02*
X0009307Y0212166D01*
X0009306Y0210567D02*
X0017857Y0210567D01*
X0017857Y0208969D02*
X0009305Y0208969D01*
X0009304Y0207370D02*
X0017857Y0207370D01*
X0017857Y0205771D02*
X0009303Y0205771D01*
X0009302Y0204173D02*
X0017857Y0204173D01*
X0017857Y0202574D02*
X0009301Y0202574D01*
X0009299Y0200976D02*
X0017857Y0200976D01*
X0017857Y0199377D02*
X0009298Y0199377D01*
X0009297Y0197779D02*
X0017857Y0197779D01*
X0017857Y0196180D02*
X0009296Y0196180D01*
X0009295Y0194582D02*
X0017857Y0194582D01*
X0017857Y0192983D02*
X0009294Y0192983D01*
X0009293Y0191385D02*
X0017857Y0191385D01*
X0017857Y0189786D02*
X0009291Y0189786D01*
X0009290Y0188188D02*
X0017857Y0188188D01*
X0017857Y0186589D02*
X0009289Y0186589D01*
X0009288Y0184991D02*
X0017857Y0184991D01*
X0017857Y0183392D02*
X0009287Y0183392D01*
X0009286Y0181794D02*
X0017857Y0181794D01*
X0017857Y0180195D02*
X0009285Y0180195D01*
X0009283Y0178597D02*
X0017857Y0178597D01*
X0017857Y0176998D02*
X0009282Y0176998D01*
X0009281Y0175400D02*
X0017857Y0175400D01*
X0017557Y0173801D02*
X0009280Y0173801D01*
X0009279Y0172203D02*
X0017557Y0172203D01*
X0018269Y0170604D02*
X0009278Y0170604D01*
X0009277Y0169006D02*
X0019868Y0169006D01*
X0020765Y0167407D02*
X0009275Y0167407D01*
X0009274Y0165809D02*
X0018405Y0165809D01*
X0018227Y0165631D02*
X0017557Y0164014D01*
X0017557Y0162263D01*
X0018227Y0160646D01*
X0019465Y0159408D01*
X0021082Y0158739D01*
X0022833Y0158739D01*
X0024450Y0159408D01*
X0025688Y0160646D01*
X0026357Y0162263D01*
X0026357Y0164014D01*
X0025688Y0165631D01*
X0024450Y0166869D01*
X0022833Y0167539D01*
X0021082Y0167539D01*
X0019465Y0166869D01*
X0018227Y0165631D01*
X0017639Y0164210D02*
X0009273Y0164210D01*
X0009272Y0162612D02*
X0017557Y0162612D01*
X0018075Y0161013D02*
X0009271Y0161013D01*
X0009270Y0159415D02*
X0019459Y0159415D01*
X0024456Y0159415D02*
X0029459Y0159415D01*
X0030135Y0158739D02*
X0033780Y0158739D01*
X0036357Y0161316D01*
X0036357Y0164961D01*
X0033780Y0167539D01*
X0030135Y0167539D01*
X0027557Y0164961D01*
X0027557Y0161316D01*
X0030135Y0158739D01*
X0027860Y0161013D02*
X0025840Y0161013D01*
X0026357Y0162612D02*
X0027557Y0162612D01*
X0027557Y0164210D02*
X0026276Y0164210D01*
X0025510Y0165809D02*
X0028405Y0165809D01*
X0030004Y0167407D02*
X0023150Y0167407D01*
X0024047Y0169006D02*
X0029868Y0169006D01*
X0034047Y0169006D02*
X0039585Y0169006D01*
X0040052Y0168539D02*
X0041857Y0168539D01*
X0041857Y0173038D01*
X0042057Y0173038D01*
X0042057Y0168539D01*
X0043863Y0168539D01*
X0046557Y0171233D01*
X0046557Y0173039D01*
X0042058Y0173039D01*
X0042058Y0173239D01*
X0046557Y0173239D01*
X0046557Y0175044D01*
X0043863Y0177739D01*
X0042057Y0177739D01*
X0042057Y0173239D01*
X0041857Y0173239D01*
X0041857Y0173039D01*
X0037357Y0173039D01*
X0037357Y0171233D01*
X0040052Y0168539D01*
X0040135Y0167539D02*
X0037557Y0164961D01*
X0037557Y0161316D01*
X0040135Y0158739D01*
X0043780Y0158739D01*
X0046357Y0161316D01*
X0046357Y0164961D01*
X0043780Y0167539D01*
X0040135Y0167539D01*
X0040004Y0167407D02*
X0033911Y0167407D01*
X0035510Y0165809D02*
X0038405Y0165809D01*
X0037557Y0164210D02*
X0036357Y0164210D01*
X0036357Y0162612D02*
X0037557Y0162612D01*
X0037860Y0161013D02*
X0036055Y0161013D01*
X0034456Y0159415D02*
X0039459Y0159415D01*
X0044456Y0159415D02*
X0049459Y0159415D01*
X0050135Y0158739D02*
X0053780Y0158739D01*
X0056357Y0161316D01*
X0056357Y0164184D01*
X0058278Y0166104D01*
X0058953Y0166779D01*
X0059318Y0167661D01*
X0059318Y0169555D01*
X0060135Y0168739D01*
X0063780Y0168739D01*
X0064557Y0169516D01*
X0064557Y0167661D01*
X0064923Y0166779D01*
X0065598Y0166104D01*
X0067557Y0164144D01*
X0067557Y0161316D01*
X0070135Y0158739D01*
X0073780Y0158739D01*
X0076357Y0161316D01*
X0076357Y0164961D01*
X0073780Y0167539D01*
X0070952Y0167539D01*
X0069357Y0169133D01*
X0069357Y0169516D01*
X0070135Y0168739D01*
X0073780Y0168739D01*
X0074597Y0169555D01*
X0074597Y0167661D01*
X0074962Y0166779D01*
X0075637Y0166104D01*
X0075637Y0166104D01*
X0077557Y0164184D01*
X0077557Y0161316D01*
X0080135Y0158739D01*
X0083780Y0158739D01*
X0086357Y0161316D01*
X0086357Y0164961D01*
X0083780Y0167539D01*
X0080991Y0167539D01*
X0079397Y0169133D01*
X0079397Y0169194D01*
X0080052Y0168539D01*
X0081857Y0168539D01*
X0081857Y0173038D01*
X0082057Y0173038D01*
X0082057Y0168539D01*
X0083863Y0168539D01*
X0084636Y0169312D01*
X0084636Y0167661D01*
X0085002Y0166779D01*
X0085677Y0166104D01*
X0087557Y0164223D01*
X0087557Y0161316D01*
X0090135Y0158739D01*
X0093780Y0158739D01*
X0096357Y0161316D01*
X0096357Y0164961D01*
X0093780Y0167539D01*
X0091030Y0167539D01*
X0089436Y0169133D01*
X0089436Y0169437D01*
X0090135Y0168739D01*
X0093780Y0168739D01*
X0096357Y0171316D01*
X0096357Y0174961D01*
X0093780Y0177539D01*
X0090135Y0177539D01*
X0089436Y0176840D01*
X0089436Y0208773D01*
X0089071Y0209656D01*
X0069683Y0229044D01*
X0070967Y0230328D01*
X0070967Y0234138D01*
X0068272Y0236833D01*
X0064462Y0236833D01*
X0061767Y0234138D01*
X0061767Y0230328D01*
X0064222Y0227873D01*
X0064332Y0227606D01*
X0065007Y0226931D01*
X0084636Y0207302D01*
X0084636Y0176965D01*
X0083863Y0177739D01*
X0082057Y0177739D01*
X0082057Y0173239D01*
X0081857Y0173239D01*
X0081857Y0177739D01*
X0080052Y0177739D01*
X0079397Y0177083D01*
X0079397Y0211136D01*
X0079031Y0212018D01*
X0060499Y0230550D01*
X0060499Y0238798D01*
X0061534Y0239833D01*
X0062262Y0239833D01*
X0064462Y0237633D01*
X0068272Y0237633D01*
X0070967Y0240328D01*
X0070967Y0244138D01*
X0068272Y0246833D01*
X0064462Y0246833D01*
X0062262Y0244633D01*
X0060063Y0244633D01*
X0059181Y0244268D01*
X0056740Y0241827D01*
X0056065Y0241152D01*
X0055699Y0240270D01*
X0055699Y0229079D01*
X0056065Y0228196D01*
X0056740Y0227521D01*
X0074597Y0209664D01*
X0074597Y0176722D01*
X0073780Y0177539D01*
X0070135Y0177539D01*
X0069357Y0176761D01*
X0069357Y0213498D01*
X0068992Y0214380D01*
X0055381Y0227991D01*
X0055381Y0241796D01*
X0061213Y0247628D01*
X0067578Y0247628D01*
X0071767Y0243439D01*
X0071767Y0240328D01*
X0074462Y0237633D01*
X0078272Y0237633D01*
X0080967Y0240328D01*
X0080967Y0244138D01*
X0078272Y0246833D01*
X0075161Y0246833D01*
X0070606Y0251388D01*
X0069931Y0252063D01*
X0069049Y0252428D01*
X0059742Y0252428D01*
X0058860Y0252063D01*
X0058185Y0251388D01*
X0050946Y0244150D01*
X0050581Y0243268D01*
X0050581Y0226519D01*
X0050946Y0225637D01*
X0051622Y0224962D01*
X0064557Y0212026D01*
X0064557Y0176761D01*
X0063780Y0177539D01*
X0060135Y0177539D01*
X0059318Y0176722D01*
X0059318Y0215860D01*
X0058953Y0216742D01*
X0050263Y0225432D01*
X0050263Y0244926D01*
X0058084Y0252746D01*
X0072459Y0252746D01*
X0081767Y0243439D01*
X0081767Y0240328D01*
X0084462Y0237633D01*
X0088272Y0237633D01*
X0090967Y0240328D01*
X0090967Y0244138D01*
X0088272Y0246833D01*
X0085161Y0246833D01*
X0074813Y0257181D01*
X0073931Y0257546D01*
X0056612Y0257546D01*
X0055730Y0257181D01*
X0055055Y0256506D01*
X0045828Y0247279D01*
X0045463Y0246397D01*
X0045463Y0223960D01*
X0045828Y0223078D01*
X0046503Y0222403D01*
X0054518Y0214389D01*
X0054518Y0176800D01*
X0053780Y0177539D01*
X0050135Y0177539D01*
X0047557Y0174961D01*
X0047557Y0171316D01*
X0050135Y0168739D01*
X0053780Y0168739D01*
X0054518Y0169477D01*
X0054518Y0169133D01*
X0052924Y0167539D01*
X0050135Y0167539D01*
X0047557Y0164961D01*
X0047557Y0161316D01*
X0050135Y0158739D01*
X0047860Y0161013D02*
X0046055Y0161013D01*
X0046357Y0162612D02*
X0047557Y0162612D01*
X0047557Y0164210D02*
X0046357Y0164210D01*
X0045510Y0165809D02*
X0048405Y0165809D01*
X0050004Y0167407D02*
X0043911Y0167407D01*
X0044330Y0169006D02*
X0049868Y0169006D01*
X0048269Y0170604D02*
X0045929Y0170604D01*
X0046557Y0172203D02*
X0047557Y0172203D01*
X0047557Y0173801D02*
X0046557Y0173801D01*
X0046202Y0175400D02*
X0047996Y0175400D01*
X0049595Y0176998D02*
X0044603Y0176998D01*
X0042057Y0176998D02*
X0041857Y0176998D01*
X0041857Y0177739D02*
X0040052Y0177739D01*
X0037357Y0175044D01*
X0037357Y0173239D01*
X0041857Y0173239D01*
X0041857Y0177739D01*
X0041857Y0175400D02*
X0042057Y0175400D01*
X0042057Y0173801D02*
X0041857Y0173801D01*
X0041857Y0172203D02*
X0042057Y0172203D01*
X0042057Y0170604D02*
X0041857Y0170604D01*
X0041857Y0169006D02*
X0042057Y0169006D01*
X0037986Y0170604D02*
X0035646Y0170604D01*
X0036357Y0172203D02*
X0037357Y0172203D01*
X0037357Y0173801D02*
X0036357Y0173801D01*
X0035919Y0175400D02*
X0037713Y0175400D01*
X0039312Y0176998D02*
X0034320Y0176998D01*
X0026057Y0178597D02*
X0054518Y0178597D01*
X0054518Y0180195D02*
X0026057Y0180195D01*
X0026057Y0181794D02*
X0054518Y0181794D01*
X0054518Y0183392D02*
X0026057Y0183392D01*
X0026057Y0184991D02*
X0054518Y0184991D01*
X0054518Y0186589D02*
X0026057Y0186589D01*
X0026057Y0188188D02*
X0054518Y0188188D01*
X0054518Y0189786D02*
X0026057Y0189786D01*
X0026057Y0191385D02*
X0054518Y0191385D01*
X0054518Y0192983D02*
X0026057Y0192983D01*
X0026057Y0194582D02*
X0054518Y0194582D01*
X0054518Y0196180D02*
X0026057Y0196180D01*
X0026057Y0197779D02*
X0054518Y0197779D01*
X0054518Y0199377D02*
X0026057Y0199377D01*
X0026057Y0200976D02*
X0054518Y0200976D01*
X0054518Y0202574D02*
X0026057Y0202574D01*
X0026057Y0204173D02*
X0054518Y0204173D01*
X0054518Y0205771D02*
X0026057Y0205771D01*
X0026057Y0207370D02*
X0054518Y0207370D01*
X0054518Y0208969D02*
X0026057Y0208969D01*
X0026057Y0210567D02*
X0054518Y0210567D01*
X0054518Y0212166D02*
X0026057Y0212166D01*
X0026057Y0213764D02*
X0054518Y0213764D01*
X0053544Y0215363D02*
X0026057Y0215363D01*
X0026057Y0216961D02*
X0051946Y0216961D01*
X0050347Y0218560D02*
X0026057Y0218560D01*
X0026057Y0220158D02*
X0048749Y0220158D01*
X0047150Y0221757D02*
X0026057Y0221757D01*
X0026057Y0223355D02*
X0045714Y0223355D01*
X0045463Y0224954D02*
X0026057Y0224954D01*
X0026057Y0226552D02*
X0045463Y0226552D01*
X0045463Y0228151D02*
X0026057Y0228151D01*
X0026057Y0229749D02*
X0045463Y0229749D01*
X0045463Y0231348D02*
X0026057Y0231348D01*
X0026057Y0232946D02*
X0045463Y0232946D01*
X0045463Y0234545D02*
X0026057Y0234545D01*
X0026057Y0236143D02*
X0045463Y0236143D01*
X0045463Y0237742D02*
X0026057Y0237742D01*
X0026057Y0239340D02*
X0045463Y0239340D01*
X0045463Y0240939D02*
X0026057Y0240939D01*
X0026057Y0242537D02*
X0045463Y0242537D01*
X0045463Y0244136D02*
X0026057Y0244136D01*
X0027486Y0245734D02*
X0045463Y0245734D01*
X0045882Y0247333D02*
X0029085Y0247333D01*
X0030683Y0248931D02*
X0047481Y0248931D01*
X0049079Y0250530D02*
X0032282Y0250530D01*
X0033880Y0252128D02*
X0050678Y0252128D01*
X0052276Y0253727D02*
X0035479Y0253727D01*
X0037077Y0255325D02*
X0053875Y0255325D01*
X0055473Y0256924D02*
X0038676Y0256924D01*
X0040274Y0258522D02*
X0174272Y0258522D01*
X0175871Y0256924D02*
X0075070Y0256924D01*
X0076669Y0255325D02*
X0177469Y0255325D01*
X0179068Y0253727D02*
X0078267Y0253727D01*
X0079866Y0252128D02*
X0180666Y0252128D01*
X0182265Y0250530D02*
X0081464Y0250530D01*
X0083063Y0248931D02*
X0183863Y0248931D01*
X0184983Y0247333D02*
X0084661Y0247333D01*
X0081070Y0244136D02*
X0080967Y0244136D01*
X0080967Y0242537D02*
X0081767Y0242537D01*
X0081767Y0240939D02*
X0080967Y0240939D01*
X0079979Y0239340D02*
X0082754Y0239340D01*
X0084353Y0237742D02*
X0078381Y0237742D01*
X0078272Y0236833D02*
X0074462Y0236833D01*
X0071767Y0234138D01*
X0071767Y0230328D01*
X0074055Y0228040D01*
X0074332Y0227370D01*
X0127557Y0174144D01*
X0127557Y0171316D01*
X0130135Y0168739D01*
X0133780Y0168739D01*
X0136357Y0171316D01*
X0136357Y0174961D01*
X0133780Y0177539D01*
X0130952Y0177539D01*
X0079565Y0228925D01*
X0080967Y0230328D01*
X0080967Y0234138D01*
X0078272Y0236833D01*
X0078962Y0236143D02*
X0083772Y0236143D01*
X0084462Y0236833D02*
X0081767Y0234138D01*
X0081767Y0230328D01*
X0084055Y0228040D01*
X0084332Y0227370D01*
X0137557Y0174144D01*
X0137557Y0171316D01*
X0140135Y0168739D01*
X0143780Y0168739D01*
X0146357Y0171316D01*
X0146357Y0174961D01*
X0143780Y0177539D01*
X0140952Y0177539D01*
X0089565Y0228925D01*
X0090967Y0230328D01*
X0090967Y0234138D01*
X0088272Y0236833D01*
X0084462Y0236833D01*
X0082173Y0234545D02*
X0080561Y0234545D01*
X0080967Y0232946D02*
X0081767Y0232946D01*
X0081767Y0231348D02*
X0080967Y0231348D01*
X0080388Y0229749D02*
X0082345Y0229749D01*
X0083944Y0228151D02*
X0080340Y0228151D01*
X0081938Y0226552D02*
X0085150Y0226552D01*
X0086748Y0224954D02*
X0083537Y0224954D01*
X0085135Y0223355D02*
X0088347Y0223355D01*
X0089945Y0221757D02*
X0086734Y0221757D01*
X0088332Y0220158D02*
X0091544Y0220158D01*
X0093142Y0218560D02*
X0089931Y0218560D01*
X0091529Y0216961D02*
X0094741Y0216961D01*
X0096339Y0215363D02*
X0093128Y0215363D01*
X0094726Y0213764D02*
X0097938Y0213764D01*
X0099536Y0212166D02*
X0096325Y0212166D01*
X0097923Y0210567D02*
X0101135Y0210567D01*
X0102733Y0208969D02*
X0099522Y0208969D01*
X0101120Y0207370D02*
X0104332Y0207370D01*
X0105930Y0205771D02*
X0102719Y0205771D01*
X0104317Y0204173D02*
X0107529Y0204173D01*
X0109127Y0202574D02*
X0105916Y0202574D01*
X0107514Y0200976D02*
X0110726Y0200976D01*
X0112325Y0199377D02*
X0109113Y0199377D01*
X0110711Y0197779D02*
X0113923Y0197779D01*
X0115522Y0196180D02*
X0112310Y0196180D01*
X0113908Y0194582D02*
X0117120Y0194582D01*
X0118719Y0192983D02*
X0115507Y0192983D01*
X0117105Y0191385D02*
X0120317Y0191385D01*
X0121916Y0189786D02*
X0118704Y0189786D01*
X0120302Y0188188D02*
X0123514Y0188188D01*
X0125113Y0186589D02*
X0121901Y0186589D01*
X0123499Y0184991D02*
X0126711Y0184991D01*
X0128310Y0183392D02*
X0125098Y0183392D01*
X0126696Y0181794D02*
X0129908Y0181794D01*
X0131507Y0180195D02*
X0128295Y0180195D01*
X0129893Y0178597D02*
X0133105Y0178597D01*
X0134320Y0176998D02*
X0134704Y0176998D01*
X0135919Y0175400D02*
X0136302Y0175400D01*
X0136357Y0173801D02*
X0137557Y0173801D01*
X0137557Y0172203D02*
X0136357Y0172203D01*
X0135646Y0170604D02*
X0138269Y0170604D01*
X0139868Y0169006D02*
X0134047Y0169006D01*
X0133780Y0167539D02*
X0130135Y0167539D01*
X0127557Y0164961D01*
X0127557Y0161316D01*
X0130135Y0158739D01*
X0133780Y0158739D01*
X0136357Y0161316D01*
X0136357Y0164961D01*
X0133780Y0167539D01*
X0133911Y0167407D02*
X0139721Y0167407D01*
X0140052Y0167739D02*
X0137357Y0165044D01*
X0137357Y0163239D01*
X0141857Y0163239D01*
X0141857Y0163039D01*
X0137357Y0163039D01*
X0137357Y0161233D01*
X0140052Y0158539D01*
X0141857Y0158539D01*
X0141857Y0163038D01*
X0142057Y0163038D01*
X0142057Y0158539D01*
X0143863Y0158539D01*
X0146557Y0161233D01*
X0146557Y0163039D01*
X0142058Y0163039D01*
X0142058Y0163239D01*
X0146557Y0163239D01*
X0146557Y0165044D01*
X0143863Y0167739D01*
X0142057Y0167739D01*
X0142057Y0163239D01*
X0141857Y0163239D01*
X0141857Y0167739D01*
X0140052Y0167739D01*
X0141857Y0167407D02*
X0142057Y0167407D01*
X0142057Y0165809D02*
X0141857Y0165809D01*
X0141857Y0164210D02*
X0142057Y0164210D01*
X0142057Y0162612D02*
X0141857Y0162612D01*
X0141857Y0161013D02*
X0142057Y0161013D01*
X0142057Y0159415D02*
X0141857Y0159415D01*
X0139176Y0159415D02*
X0134456Y0159415D01*
X0136055Y0161013D02*
X0137578Y0161013D01*
X0137357Y0162612D02*
X0136357Y0162612D01*
X0136357Y0164210D02*
X0137357Y0164210D01*
X0138122Y0165809D02*
X0135510Y0165809D01*
X0130004Y0167407D02*
X0123911Y0167407D01*
X0123780Y0167539D02*
X0120135Y0167539D01*
X0117557Y0164961D01*
X0117557Y0161316D01*
X0120135Y0158739D01*
X0123780Y0158739D01*
X0126357Y0161316D01*
X0126357Y0164961D01*
X0123780Y0167539D01*
X0123780Y0168739D02*
X0126357Y0171316D01*
X0126357Y0174961D01*
X0123780Y0177539D01*
X0120135Y0177539D01*
X0117557Y0174961D01*
X0117557Y0171316D01*
X0120135Y0168739D01*
X0123780Y0168739D01*
X0124047Y0169006D02*
X0129868Y0169006D01*
X0128269Y0170604D02*
X0125646Y0170604D01*
X0126357Y0172203D02*
X0127557Y0172203D01*
X0127557Y0173801D02*
X0126357Y0173801D01*
X0126302Y0175400D02*
X0125919Y0175400D01*
X0124704Y0176998D02*
X0124320Y0176998D01*
X0123105Y0178597D02*
X0089436Y0178597D01*
X0089436Y0180195D02*
X0121507Y0180195D01*
X0119908Y0181794D02*
X0089436Y0181794D01*
X0089436Y0183392D02*
X0118310Y0183392D01*
X0116711Y0184991D02*
X0089436Y0184991D01*
X0089436Y0186589D02*
X0115113Y0186589D01*
X0113514Y0188188D02*
X0089436Y0188188D01*
X0089436Y0189786D02*
X0111916Y0189786D01*
X0110317Y0191385D02*
X0089436Y0191385D01*
X0089436Y0192983D02*
X0108719Y0192983D01*
X0107120Y0194582D02*
X0089436Y0194582D01*
X0089436Y0196180D02*
X0105522Y0196180D01*
X0103923Y0197779D02*
X0089436Y0197779D01*
X0089436Y0199377D02*
X0102325Y0199377D01*
X0100726Y0200976D02*
X0089436Y0200976D01*
X0089436Y0202574D02*
X0099127Y0202574D01*
X0097529Y0204173D02*
X0089436Y0204173D01*
X0089436Y0205771D02*
X0095930Y0205771D01*
X0094332Y0207370D02*
X0089436Y0207370D01*
X0089355Y0208969D02*
X0092733Y0208969D01*
X0091135Y0210567D02*
X0088159Y0210567D01*
X0089536Y0212166D02*
X0086561Y0212166D01*
X0087938Y0213764D02*
X0084962Y0213764D01*
X0086339Y0215363D02*
X0083364Y0215363D01*
X0084741Y0216961D02*
X0081765Y0216961D01*
X0083142Y0218560D02*
X0080167Y0218560D01*
X0081544Y0220158D02*
X0078568Y0220158D01*
X0079945Y0221757D02*
X0076970Y0221757D01*
X0078347Y0223355D02*
X0075371Y0223355D01*
X0076748Y0224954D02*
X0073773Y0224954D01*
X0075150Y0226552D02*
X0072174Y0226552D01*
X0070576Y0228151D02*
X0073944Y0228151D01*
X0072345Y0229749D02*
X0070388Y0229749D01*
X0070967Y0231348D02*
X0071767Y0231348D01*
X0071767Y0232946D02*
X0070967Y0232946D01*
X0070561Y0234545D02*
X0072173Y0234545D01*
X0073772Y0236143D02*
X0068962Y0236143D01*
X0068381Y0237742D02*
X0074353Y0237742D01*
X0072754Y0239340D02*
X0069979Y0239340D01*
X0070967Y0240939D02*
X0071767Y0240939D01*
X0071767Y0242537D02*
X0070967Y0242537D01*
X0070967Y0244136D02*
X0071070Y0244136D01*
X0069472Y0245734D02*
X0069371Y0245734D01*
X0067873Y0247333D02*
X0060918Y0247333D01*
X0059319Y0245734D02*
X0063363Y0245734D01*
X0060540Y0242233D02*
X0058099Y0239792D01*
X0058099Y0229556D01*
X0076997Y0210658D01*
X0076997Y0168139D01*
X0081957Y0163178D01*
X0081957Y0163139D01*
X0077557Y0162612D02*
X0076357Y0162612D01*
X0076357Y0164210D02*
X0077531Y0164210D01*
X0075933Y0165809D02*
X0075510Y0165809D01*
X0074702Y0167407D02*
X0073911Y0167407D01*
X0074047Y0169006D02*
X0074597Y0169006D01*
X0079524Y0169006D02*
X0079585Y0169006D01*
X0081857Y0169006D02*
X0082057Y0169006D01*
X0082057Y0170604D02*
X0081857Y0170604D01*
X0081857Y0172203D02*
X0082057Y0172203D01*
X0082057Y0173801D02*
X0081857Y0173801D01*
X0081857Y0175400D02*
X0082057Y0175400D01*
X0082057Y0176998D02*
X0081857Y0176998D01*
X0084603Y0176998D02*
X0084636Y0176998D01*
X0084636Y0178597D02*
X0079397Y0178597D01*
X0079397Y0180195D02*
X0084636Y0180195D01*
X0084636Y0181794D02*
X0079397Y0181794D01*
X0079397Y0183392D02*
X0084636Y0183392D01*
X0084636Y0184991D02*
X0079397Y0184991D01*
X0079397Y0186589D02*
X0084636Y0186589D01*
X0084636Y0188188D02*
X0079397Y0188188D01*
X0079397Y0189786D02*
X0084636Y0189786D01*
X0084636Y0191385D02*
X0079397Y0191385D01*
X0079397Y0192983D02*
X0084636Y0192983D01*
X0084636Y0194582D02*
X0079397Y0194582D01*
X0079397Y0196180D02*
X0084636Y0196180D01*
X0084636Y0197779D02*
X0079397Y0197779D01*
X0079397Y0199377D02*
X0084636Y0199377D01*
X0084636Y0200976D02*
X0079397Y0200976D01*
X0079397Y0202574D02*
X0084636Y0202574D01*
X0084636Y0204173D02*
X0079397Y0204173D01*
X0079397Y0205771D02*
X0084636Y0205771D01*
X0084568Y0207370D02*
X0079397Y0207370D01*
X0079397Y0208969D02*
X0082970Y0208969D01*
X0081371Y0210567D02*
X0079397Y0210567D01*
X0079773Y0212166D02*
X0078884Y0212166D01*
X0078174Y0213764D02*
X0077285Y0213764D01*
X0076576Y0215363D02*
X0075687Y0215363D01*
X0074977Y0216961D02*
X0074088Y0216961D01*
X0073379Y0218560D02*
X0072490Y0218560D01*
X0071780Y0220158D02*
X0070891Y0220158D01*
X0070182Y0221757D02*
X0069293Y0221757D01*
X0068583Y0223355D02*
X0067694Y0223355D01*
X0066985Y0224954D02*
X0066096Y0224954D01*
X0065386Y0226552D02*
X0064497Y0226552D01*
X0063944Y0228151D02*
X0062899Y0228151D01*
X0062345Y0229749D02*
X0061300Y0229749D01*
X0061767Y0231348D02*
X0060499Y0231348D01*
X0060499Y0232946D02*
X0061767Y0232946D01*
X0062173Y0234545D02*
X0060499Y0234545D01*
X0060499Y0236143D02*
X0063772Y0236143D01*
X0064353Y0237742D02*
X0060499Y0237742D01*
X0061041Y0239340D02*
X0062754Y0239340D01*
X0060540Y0242233D02*
X0066367Y0242233D01*
X0059049Y0244136D02*
X0057721Y0244136D01*
X0057450Y0242537D02*
X0056122Y0242537D01*
X0055976Y0240939D02*
X0055381Y0240939D01*
X0055381Y0239340D02*
X0055699Y0239340D01*
X0055699Y0237742D02*
X0055381Y0237742D01*
X0055381Y0236143D02*
X0055699Y0236143D01*
X0055699Y0234545D02*
X0055381Y0234545D01*
X0055381Y0232946D02*
X0055699Y0232946D01*
X0055699Y0231348D02*
X0055381Y0231348D01*
X0055381Y0229749D02*
X0055699Y0229749D01*
X0055381Y0228151D02*
X0056110Y0228151D01*
X0056740Y0227521D02*
X0056740Y0227521D01*
X0056820Y0226552D02*
X0057709Y0226552D01*
X0058418Y0224954D02*
X0059307Y0224954D01*
X0060017Y0223355D02*
X0060906Y0223355D01*
X0061615Y0221757D02*
X0062504Y0221757D01*
X0063214Y0220158D02*
X0064103Y0220158D01*
X0064812Y0218560D02*
X0065701Y0218560D01*
X0066411Y0216961D02*
X0067300Y0216961D01*
X0068009Y0215363D02*
X0068898Y0215363D01*
X0069247Y0213764D02*
X0070497Y0213764D01*
X0069357Y0212166D02*
X0072095Y0212166D01*
X0073694Y0210567D02*
X0069357Y0210567D01*
X0069357Y0208969D02*
X0074597Y0208969D01*
X0074597Y0207370D02*
X0069357Y0207370D01*
X0069357Y0205771D02*
X0074597Y0205771D01*
X0074597Y0204173D02*
X0069357Y0204173D01*
X0069357Y0202574D02*
X0074597Y0202574D01*
X0074597Y0200976D02*
X0069357Y0200976D01*
X0069357Y0199377D02*
X0074597Y0199377D01*
X0074597Y0197779D02*
X0069357Y0197779D01*
X0069357Y0196180D02*
X0074597Y0196180D01*
X0074597Y0194582D02*
X0069357Y0194582D01*
X0069357Y0192983D02*
X0074597Y0192983D01*
X0074597Y0191385D02*
X0069357Y0191385D01*
X0069357Y0189786D02*
X0074597Y0189786D01*
X0074597Y0188188D02*
X0069357Y0188188D01*
X0069357Y0186589D02*
X0074597Y0186589D01*
X0074597Y0184991D02*
X0069357Y0184991D01*
X0069357Y0183392D02*
X0074597Y0183392D01*
X0074597Y0181794D02*
X0069357Y0181794D01*
X0069357Y0180195D02*
X0074597Y0180195D01*
X0074597Y0178597D02*
X0069357Y0178597D01*
X0069357Y0176998D02*
X0069595Y0176998D01*
X0074320Y0176998D02*
X0074597Y0176998D01*
X0069868Y0169006D02*
X0069484Y0169006D01*
X0066957Y0168139D02*
X0066957Y0213020D01*
X0052981Y0226997D01*
X0052981Y0242790D01*
X0060219Y0250028D01*
X0068572Y0250028D01*
X0076367Y0242233D01*
X0079371Y0245734D02*
X0079472Y0245734D01*
X0077873Y0247333D02*
X0074661Y0247333D01*
X0073063Y0248931D02*
X0076275Y0248931D01*
X0074676Y0250530D02*
X0071464Y0250530D01*
X0070606Y0251388D02*
X0070606Y0251388D01*
X0069773Y0252128D02*
X0073078Y0252128D01*
X0073454Y0255146D02*
X0086367Y0242233D01*
X0089371Y0245734D02*
X0093363Y0245734D01*
X0094462Y0246833D02*
X0091767Y0244138D01*
X0091767Y0240328D01*
X0094462Y0237633D01*
X0098272Y0237633D01*
X0100967Y0240328D01*
X0100967Y0244138D01*
X0098272Y0246833D01*
X0094462Y0246833D01*
X0091767Y0244136D02*
X0090967Y0244136D01*
X0090967Y0242537D02*
X0091767Y0242537D01*
X0091767Y0240939D02*
X0090967Y0240939D01*
X0089979Y0239340D02*
X0092754Y0239340D01*
X0094353Y0237742D02*
X0088381Y0237742D01*
X0088962Y0236143D02*
X0093772Y0236143D01*
X0094462Y0236833D02*
X0091767Y0234138D01*
X0091767Y0230328D01*
X0093967Y0228128D01*
X0093967Y0226638D01*
X0094332Y0225755D01*
X0125159Y0194929D01*
X0125834Y0194254D01*
X0126716Y0193888D01*
X0154349Y0193888D01*
X0169557Y0178680D01*
X0169557Y0176961D01*
X0167557Y0174961D01*
X0167557Y0171316D01*
X0170135Y0168739D01*
X0173780Y0168739D01*
X0176357Y0171316D01*
X0176357Y0174961D01*
X0174357Y0176961D01*
X0174357Y0180151D01*
X0173992Y0181034D01*
X0157378Y0197648D01*
X0156703Y0198323D01*
X0155821Y0198688D01*
X0128188Y0198688D01*
X0098767Y0228109D01*
X0098767Y0228128D01*
X0100967Y0230328D01*
X0100967Y0234138D01*
X0098272Y0236833D01*
X0094462Y0236833D01*
X0092173Y0234545D02*
X0090561Y0234545D01*
X0090967Y0232946D02*
X0091767Y0232946D01*
X0091767Y0231348D02*
X0090967Y0231348D01*
X0090388Y0229749D02*
X0092345Y0229749D01*
X0093944Y0228151D02*
X0090340Y0228151D01*
X0091938Y0226552D02*
X0094002Y0226552D01*
X0093537Y0224954D02*
X0095134Y0224954D01*
X0095135Y0223355D02*
X0096733Y0223355D01*
X0096734Y0221757D02*
X0098331Y0221757D01*
X0098332Y0220158D02*
X0099930Y0220158D01*
X0099931Y0218560D02*
X0101528Y0218560D01*
X0101529Y0216961D02*
X0103127Y0216961D01*
X0103128Y0215363D02*
X0104725Y0215363D01*
X0104726Y0213764D02*
X0106324Y0213764D01*
X0106325Y0212166D02*
X0107922Y0212166D01*
X0107923Y0210567D02*
X0109521Y0210567D01*
X0109522Y0208969D02*
X0111119Y0208969D01*
X0111120Y0207370D02*
X0112718Y0207370D01*
X0112719Y0205771D02*
X0114316Y0205771D01*
X0114317Y0204173D02*
X0115915Y0204173D01*
X0115916Y0202574D02*
X0117513Y0202574D01*
X0117514Y0200976D02*
X0119112Y0200976D01*
X0119113Y0199377D02*
X0120710Y0199377D01*
X0120711Y0197779D02*
X0122309Y0197779D01*
X0122310Y0196180D02*
X0123907Y0196180D01*
X0123908Y0194582D02*
X0125506Y0194582D01*
X0125507Y0192983D02*
X0155254Y0192983D01*
X0156852Y0191385D02*
X0127105Y0191385D01*
X0128704Y0189786D02*
X0158451Y0189786D01*
X0160050Y0188188D02*
X0130302Y0188188D01*
X0131901Y0186589D02*
X0161648Y0186589D01*
X0163247Y0184991D02*
X0133499Y0184991D01*
X0135098Y0183392D02*
X0164845Y0183392D01*
X0166444Y0181794D02*
X0136696Y0181794D01*
X0138295Y0180195D02*
X0168042Y0180195D01*
X0169557Y0178597D02*
X0139893Y0178597D01*
X0144320Y0176998D02*
X0149595Y0176998D01*
X0150135Y0177539D02*
X0147557Y0174961D01*
X0147557Y0171316D01*
X0150135Y0168739D01*
X0153780Y0168739D01*
X0156357Y0171316D01*
X0156357Y0174961D01*
X0153780Y0177539D01*
X0150135Y0177539D01*
X0147996Y0175400D02*
X0145919Y0175400D01*
X0146357Y0173801D02*
X0147557Y0173801D01*
X0147557Y0172203D02*
X0146357Y0172203D01*
X0145646Y0170604D02*
X0148269Y0170604D01*
X0149868Y0169006D02*
X0144047Y0169006D01*
X0144194Y0167407D02*
X0150004Y0167407D01*
X0150135Y0167539D02*
X0147557Y0164961D01*
X0147557Y0161316D01*
X0150135Y0158739D01*
X0153780Y0158739D01*
X0156357Y0161316D01*
X0156357Y0164961D01*
X0153780Y0167539D01*
X0150135Y0167539D01*
X0148405Y0165809D02*
X0145793Y0165809D01*
X0146557Y0164210D02*
X0147557Y0164210D01*
X0147557Y0162612D02*
X0146557Y0162612D01*
X0146337Y0161013D02*
X0147860Y0161013D01*
X0149459Y0159415D02*
X0144739Y0159415D01*
X0153911Y0167407D02*
X0160004Y0167407D01*
X0160135Y0167539D02*
X0157557Y0164961D01*
X0157557Y0161316D01*
X0160135Y0158739D01*
X0163780Y0158739D01*
X0166357Y0161316D01*
X0166357Y0164961D01*
X0163780Y0167539D01*
X0160135Y0167539D01*
X0160052Y0168539D02*
X0161857Y0168539D01*
X0161857Y0173038D01*
X0162057Y0173038D01*
X0162057Y0168539D01*
X0163863Y0168539D01*
X0166557Y0171233D01*
X0166557Y0173039D01*
X0162058Y0173039D01*
X0162058Y0173239D01*
X0166557Y0173239D01*
X0166557Y0175044D01*
X0163863Y0177739D01*
X0162057Y0177739D01*
X0162057Y0173239D01*
X0161857Y0173239D01*
X0161857Y0173039D01*
X0157357Y0173039D01*
X0157357Y0171233D01*
X0160052Y0168539D01*
X0159585Y0169006D02*
X0154047Y0169006D01*
X0155646Y0170604D02*
X0157986Y0170604D01*
X0157357Y0172203D02*
X0156357Y0172203D01*
X0157357Y0173239D02*
X0157357Y0175044D01*
X0160052Y0177739D01*
X0161857Y0177739D01*
X0161857Y0173239D01*
X0157357Y0173239D01*
X0157357Y0173801D02*
X0156357Y0173801D01*
X0155919Y0175400D02*
X0157713Y0175400D01*
X0159312Y0176998D02*
X0154320Y0176998D01*
X0161857Y0176998D02*
X0162057Y0176998D01*
X0162057Y0175400D02*
X0161857Y0175400D01*
X0161857Y0173801D02*
X0162057Y0173801D01*
X0162057Y0172203D02*
X0161857Y0172203D01*
X0161857Y0170604D02*
X0162057Y0170604D01*
X0162057Y0169006D02*
X0161857Y0169006D01*
X0164330Y0169006D02*
X0169868Y0169006D01*
X0170135Y0167539D02*
X0167557Y0164961D01*
X0167557Y0161316D01*
X0170135Y0158739D01*
X0173780Y0158739D01*
X0176357Y0161316D01*
X0176357Y0164961D01*
X0173780Y0167539D01*
X0170135Y0167539D01*
X0170004Y0167407D02*
X0163911Y0167407D01*
X0165510Y0165809D02*
X0168405Y0165809D01*
X0167557Y0164210D02*
X0166357Y0164210D01*
X0166357Y0162612D02*
X0167557Y0162612D01*
X0167860Y0161013D02*
X0166055Y0161013D01*
X0164456Y0159415D02*
X0169459Y0159415D01*
X0174456Y0159415D02*
X0179459Y0159415D01*
X0180135Y0158739D02*
X0177557Y0161316D01*
X0177557Y0164961D01*
X0180135Y0167539D01*
X0183780Y0167539D01*
X0186357Y0164961D01*
X0186357Y0161316D01*
X0183780Y0158739D01*
X0180135Y0158739D01*
X0177860Y0161013D02*
X0176055Y0161013D01*
X0176357Y0162612D02*
X0177557Y0162612D01*
X0177557Y0164210D02*
X0176357Y0164210D01*
X0175510Y0165809D02*
X0178405Y0165809D01*
X0180004Y0167407D02*
X0173911Y0167407D01*
X0174047Y0169006D02*
X0179585Y0169006D01*
X0180052Y0168539D02*
X0177357Y0171233D01*
X0177357Y0173039D01*
X0181857Y0173039D01*
X0181857Y0173239D01*
X0177357Y0173239D01*
X0177357Y0175044D01*
X0180052Y0177739D01*
X0181857Y0177739D01*
X0181857Y0173239D01*
X0182057Y0173239D01*
X0182057Y0177739D01*
X0183863Y0177739D01*
X0186557Y0175044D01*
X0186557Y0173239D01*
X0182058Y0173239D01*
X0182058Y0173039D01*
X0186557Y0173039D01*
X0186557Y0171233D01*
X0183863Y0168539D01*
X0182057Y0168539D01*
X0182057Y0173038D01*
X0181857Y0173038D01*
X0181857Y0168539D01*
X0180052Y0168539D01*
X0181857Y0169006D02*
X0182057Y0169006D01*
X0182057Y0170604D02*
X0181857Y0170604D01*
X0181857Y0172203D02*
X0182057Y0172203D01*
X0182057Y0173801D02*
X0181857Y0173801D01*
X0181857Y0175400D02*
X0182057Y0175400D01*
X0182057Y0176998D02*
X0181857Y0176998D01*
X0179312Y0176998D02*
X0174357Y0176998D01*
X0174357Y0178597D02*
X0189557Y0178597D01*
X0189557Y0179152D02*
X0189557Y0176961D01*
X0187557Y0174961D01*
X0187557Y0171316D01*
X0190135Y0168739D01*
X0193780Y0168739D01*
X0196357Y0171316D01*
X0196357Y0174961D01*
X0194357Y0176961D01*
X0194357Y0180624D01*
X0193992Y0181506D01*
X0167614Y0207884D01*
X0166939Y0208559D01*
X0166057Y0208924D01*
X0125629Y0208924D01*
X0108767Y0225786D01*
X0108767Y0228128D01*
X0110967Y0230328D01*
X0110967Y0234138D01*
X0108272Y0236833D01*
X0104462Y0236833D01*
X0101767Y0234138D01*
X0101767Y0230328D01*
X0103967Y0228128D01*
X0103967Y0224315D01*
X0104332Y0223433D01*
X0122600Y0205165D01*
X0123275Y0204490D01*
X0124157Y0204124D01*
X0164585Y0204124D01*
X0189557Y0179152D01*
X0188515Y0180195D02*
X0174339Y0180195D01*
X0173232Y0181794D02*
X0186916Y0181794D01*
X0185317Y0183392D02*
X0171633Y0183392D01*
X0170035Y0184991D02*
X0183719Y0184991D01*
X0182120Y0186589D02*
X0168436Y0186589D01*
X0166838Y0188188D02*
X0180522Y0188188D01*
X0178923Y0189786D02*
X0165239Y0189786D01*
X0163641Y0191385D02*
X0177325Y0191385D01*
X0175726Y0192983D02*
X0162042Y0192983D01*
X0160444Y0194582D02*
X0174128Y0194582D01*
X0172529Y0196180D02*
X0158845Y0196180D01*
X0157247Y0197779D02*
X0170931Y0197779D01*
X0169332Y0199377D02*
X0127499Y0199377D01*
X0125900Y0200976D02*
X0167734Y0200976D01*
X0166135Y0202574D02*
X0124302Y0202574D01*
X0124040Y0204173D02*
X0122703Y0204173D01*
X0121993Y0205771D02*
X0121105Y0205771D01*
X0120395Y0207370D02*
X0119506Y0207370D01*
X0118796Y0208969D02*
X0117907Y0208969D01*
X0117198Y0210567D02*
X0116309Y0210567D01*
X0115599Y0212166D02*
X0114710Y0212166D01*
X0114001Y0213764D02*
X0113112Y0213764D01*
X0112402Y0215363D02*
X0111513Y0215363D01*
X0110804Y0216961D02*
X0109915Y0216961D01*
X0109205Y0218560D02*
X0108316Y0218560D01*
X0107607Y0220158D02*
X0106718Y0220158D01*
X0106008Y0221757D02*
X0105119Y0221757D01*
X0104410Y0223355D02*
X0103521Y0223355D01*
X0103967Y0224954D02*
X0101922Y0224954D01*
X0100324Y0226552D02*
X0103967Y0226552D01*
X0103944Y0228151D02*
X0098790Y0228151D01*
X0100388Y0229749D02*
X0102345Y0229749D01*
X0101767Y0231348D02*
X0100967Y0231348D01*
X0100967Y0232946D02*
X0101767Y0232946D01*
X0102173Y0234545D02*
X0100561Y0234545D01*
X0098962Y0236143D02*
X0103772Y0236143D01*
X0104462Y0237633D02*
X0108272Y0237633D01*
X0110967Y0240328D01*
X0110967Y0244138D01*
X0108272Y0246833D01*
X0104462Y0246833D01*
X0101767Y0244138D01*
X0101767Y0240328D01*
X0104462Y0237633D01*
X0104353Y0237742D02*
X0098381Y0237742D01*
X0099979Y0239340D02*
X0102754Y0239340D01*
X0101767Y0240939D02*
X0100967Y0240939D01*
X0100967Y0242537D02*
X0101767Y0242537D01*
X0101767Y0244136D02*
X0100967Y0244136D01*
X0099371Y0245734D02*
X0103363Y0245734D01*
X0109371Y0245734D02*
X0113363Y0245734D01*
X0114462Y0246833D02*
X0111767Y0244138D01*
X0111767Y0240328D01*
X0114462Y0237633D01*
X0118272Y0237633D01*
X0120967Y0240328D01*
X0120967Y0244138D01*
X0118272Y0246833D01*
X0114462Y0246833D01*
X0111767Y0244136D02*
X0110967Y0244136D01*
X0110967Y0242537D02*
X0111767Y0242537D01*
X0111767Y0240939D02*
X0110967Y0240939D01*
X0109979Y0239340D02*
X0112754Y0239340D01*
X0114353Y0237742D02*
X0108381Y0237742D01*
X0108962Y0236143D02*
X0113772Y0236143D01*
X0114462Y0236833D02*
X0111767Y0234138D01*
X0111767Y0230328D01*
X0114462Y0227633D01*
X0118272Y0227633D01*
X0120967Y0230328D01*
X0120967Y0234138D01*
X0118272Y0236833D01*
X0114462Y0236833D01*
X0112173Y0234545D02*
X0110561Y0234545D01*
X0110967Y0232946D02*
X0111767Y0232946D01*
X0111767Y0231348D02*
X0110967Y0231348D01*
X0110388Y0229749D02*
X0112345Y0229749D01*
X0113944Y0228151D02*
X0108790Y0228151D01*
X0108767Y0226552D02*
X0194983Y0226552D01*
X0194983Y0224954D02*
X0109600Y0224954D01*
X0111198Y0223355D02*
X0194983Y0223355D01*
X0194983Y0221757D02*
X0112797Y0221757D01*
X0114395Y0220158D02*
X0194983Y0220158D01*
X0194983Y0218560D02*
X0115994Y0218560D01*
X0117592Y0216961D02*
X0195117Y0216961D01*
X0194983Y0217284D02*
X0195608Y0215777D01*
X0217779Y0193606D01*
X0217779Y0145451D01*
X0184881Y0112554D01*
X0029395Y0112554D01*
X0029095Y0112854D01*
X0025450Y0112854D01*
X0024650Y0112054D01*
X0019895Y0112054D01*
X0019095Y0112854D01*
X0015450Y0112854D01*
X0012872Y0110276D01*
X0012872Y0106631D01*
X0013554Y0105949D01*
X0013554Y0100958D01*
X0012872Y0100276D01*
X0012872Y0096631D01*
X0015450Y0094054D01*
X0019095Y0094054D01*
X0019395Y0094354D01*
X0025150Y0094354D01*
X0025450Y0094054D01*
X0029095Y0094054D01*
X0031672Y0096631D01*
X0031672Y0100276D01*
X0031372Y0100576D01*
X0031372Y0104354D01*
X0187395Y0104354D01*
X0188902Y0104978D01*
X0224201Y0140277D01*
X0225355Y0141431D01*
X0225979Y0142938D01*
X0225979Y0196119D01*
X0225355Y0197626D01*
X0203183Y0219797D01*
X0203183Y0229828D01*
X0203683Y0230328D01*
X0203683Y0234138D01*
X0203183Y0234638D01*
X0203183Y0239828D01*
X0203683Y0240328D01*
X0203683Y0244138D01*
X0200989Y0246833D01*
X0197178Y0246833D01*
X0194483Y0244138D01*
X0194483Y0240328D01*
X0194983Y0239828D01*
X0194983Y0234638D01*
X0194483Y0234138D01*
X0194483Y0230328D01*
X0194983Y0229828D01*
X0194983Y0217284D01*
X0196022Y0215363D02*
X0119191Y0215363D01*
X0120789Y0213764D02*
X0197620Y0213764D01*
X0199219Y0212166D02*
X0122388Y0212166D01*
X0123986Y0210567D02*
X0200817Y0210567D01*
X0202416Y0208969D02*
X0125585Y0208969D01*
X0124635Y0206524D02*
X0133493Y0206524D01*
X0134871Y0206524D01*
X0165580Y0206524D01*
X0191957Y0180146D01*
X0191957Y0173139D01*
X0188269Y0170604D02*
X0185929Y0170604D01*
X0186557Y0172203D02*
X0187557Y0172203D01*
X0187557Y0173801D02*
X0186557Y0173801D01*
X0186202Y0175400D02*
X0187996Y0175400D01*
X0189557Y0176998D02*
X0184603Y0176998D01*
X0177713Y0175400D02*
X0175919Y0175400D01*
X0176357Y0173801D02*
X0177357Y0173801D01*
X0177357Y0172203D02*
X0176357Y0172203D01*
X0175646Y0170604D02*
X0177986Y0170604D01*
X0184330Y0169006D02*
X0189868Y0169006D01*
X0190135Y0167539D02*
X0187557Y0164961D01*
X0187557Y0161316D01*
X0190135Y0158739D01*
X0193780Y0158739D01*
X0196357Y0161316D01*
X0196357Y0164961D01*
X0193780Y0167539D01*
X0190135Y0167539D01*
X0190004Y0167407D02*
X0183911Y0167407D01*
X0185510Y0165809D02*
X0188405Y0165809D01*
X0187557Y0164210D02*
X0186357Y0164210D01*
X0186357Y0162612D02*
X0187557Y0162612D01*
X0187860Y0161013D02*
X0186055Y0161013D01*
X0184456Y0159415D02*
X0189459Y0159415D01*
X0194456Y0159415D02*
X0199459Y0159415D01*
X0200135Y0158739D02*
X0203780Y0158739D01*
X0206357Y0161316D01*
X0206357Y0164961D01*
X0203780Y0167539D01*
X0200135Y0167539D01*
X0197557Y0164961D01*
X0197557Y0161316D01*
X0200135Y0158739D01*
X0197860Y0161013D02*
X0196055Y0161013D01*
X0196357Y0162612D02*
X0197557Y0162612D01*
X0197557Y0164210D02*
X0196357Y0164210D01*
X0195510Y0165809D02*
X0198405Y0165809D01*
X0200004Y0167407D02*
X0193911Y0167407D01*
X0194047Y0169006D02*
X0199868Y0169006D01*
X0200135Y0168739D02*
X0203780Y0168739D01*
X0206357Y0171316D01*
X0206357Y0174961D01*
X0203780Y0177539D01*
X0200135Y0177539D01*
X0197557Y0174961D01*
X0197557Y0171316D01*
X0200135Y0168739D01*
X0198269Y0170604D02*
X0195646Y0170604D01*
X0196357Y0172203D02*
X0197557Y0172203D01*
X0197557Y0173801D02*
X0196357Y0173801D01*
X0195919Y0175400D02*
X0197996Y0175400D01*
X0199595Y0176998D02*
X0194357Y0176998D01*
X0194357Y0178597D02*
X0217779Y0178597D01*
X0217779Y0180195D02*
X0194357Y0180195D01*
X0193704Y0181794D02*
X0217779Y0181794D01*
X0217779Y0183392D02*
X0192106Y0183392D01*
X0190507Y0184991D02*
X0217779Y0184991D01*
X0217779Y0186589D02*
X0188909Y0186589D01*
X0187310Y0188188D02*
X0217779Y0188188D01*
X0217779Y0189786D02*
X0185712Y0189786D01*
X0184113Y0191385D02*
X0217779Y0191385D01*
X0217779Y0192983D02*
X0182515Y0192983D01*
X0180916Y0194582D02*
X0216802Y0194582D01*
X0215204Y0196180D02*
X0179318Y0196180D01*
X0177719Y0197779D02*
X0213605Y0197779D01*
X0212007Y0199377D02*
X0176121Y0199377D01*
X0174522Y0200976D02*
X0210408Y0200976D01*
X0208810Y0202574D02*
X0172924Y0202574D01*
X0171325Y0204173D02*
X0207211Y0204173D01*
X0205613Y0205771D02*
X0169727Y0205771D01*
X0168128Y0207370D02*
X0204014Y0207370D01*
X0209217Y0213764D02*
X0210219Y0213764D01*
X0210815Y0212166D02*
X0211817Y0212166D01*
X0212414Y0210567D02*
X0213416Y0210567D01*
X0214012Y0208969D02*
X0215014Y0208969D01*
X0215611Y0207370D02*
X0216613Y0207370D01*
X0217209Y0205771D02*
X0218211Y0205771D01*
X0218808Y0204173D02*
X0219810Y0204173D01*
X0220406Y0202574D02*
X0221408Y0202574D01*
X0222005Y0200976D02*
X0223007Y0200976D01*
X0223603Y0199377D02*
X0224605Y0199377D01*
X0225202Y0197779D02*
X0226204Y0197779D01*
X0226331Y0197652D02*
X0226331Y0136282D01*
X0182603Y0092554D01*
X0029395Y0092554D01*
X0029095Y0092854D01*
X0025450Y0092854D01*
X0024650Y0092054D01*
X0019895Y0092054D01*
X0019095Y0092854D01*
X0015450Y0092854D01*
X0012872Y0090276D01*
X0012872Y0086631D01*
X0013672Y0085831D01*
X0013672Y0081076D01*
X0012872Y0080276D01*
X0012872Y0076631D01*
X0015450Y0074054D01*
X0019095Y0074054D01*
X0019895Y0074854D01*
X0024650Y0074854D01*
X0025450Y0074054D01*
X0029095Y0074054D01*
X0031672Y0076631D01*
X0031672Y0080276D01*
X0030991Y0080958D01*
X0030991Y0084354D01*
X0185117Y0084354D01*
X0186623Y0084978D01*
X0232753Y0131108D01*
X0233907Y0132261D01*
X0234531Y0133768D01*
X0234531Y0200166D01*
X0233907Y0201673D01*
X0213183Y0222396D01*
X0213183Y0229828D01*
X0213683Y0230328D01*
X0213683Y0234138D01*
X0213183Y0234638D01*
X0213183Y0239828D01*
X0213683Y0240328D01*
X0213683Y0244138D01*
X0210989Y0246833D01*
X0207178Y0246833D01*
X0204483Y0244138D01*
X0204483Y0240328D01*
X0204983Y0239828D01*
X0204983Y0234638D01*
X0204483Y0234138D01*
X0204483Y0230328D01*
X0204983Y0229828D01*
X0204983Y0219882D01*
X0205608Y0218375D01*
X0206761Y0217222D01*
X0226331Y0197652D01*
X0226331Y0196180D02*
X0225953Y0196180D01*
X0225979Y0194582D02*
X0226331Y0194582D01*
X0226331Y0192983D02*
X0225979Y0192983D01*
X0225979Y0191385D02*
X0226331Y0191385D01*
X0226331Y0189786D02*
X0225979Y0189786D01*
X0225979Y0188188D02*
X0226331Y0188188D01*
X0226331Y0186589D02*
X0225979Y0186589D01*
X0225979Y0184991D02*
X0226331Y0184991D01*
X0226331Y0183392D02*
X0225979Y0183392D01*
X0225979Y0181794D02*
X0226331Y0181794D01*
X0226331Y0180195D02*
X0225979Y0180195D01*
X0225979Y0178597D02*
X0226331Y0178597D01*
X0226331Y0176998D02*
X0225979Y0176998D01*
X0225979Y0175400D02*
X0226331Y0175400D01*
X0226331Y0173801D02*
X0225979Y0173801D01*
X0225979Y0172203D02*
X0226331Y0172203D01*
X0226331Y0170604D02*
X0225979Y0170604D01*
X0225979Y0169006D02*
X0226331Y0169006D01*
X0226331Y0167407D02*
X0225979Y0167407D01*
X0225979Y0165809D02*
X0226331Y0165809D01*
X0226331Y0164210D02*
X0225979Y0164210D01*
X0225979Y0162612D02*
X0226331Y0162612D01*
X0226331Y0161013D02*
X0225979Y0161013D01*
X0225979Y0159415D02*
X0226331Y0159415D01*
X0226331Y0157816D02*
X0225979Y0157816D01*
X0225979Y0156218D02*
X0226331Y0156218D01*
X0226331Y0154619D02*
X0225979Y0154619D01*
X0225979Y0153021D02*
X0226331Y0153021D01*
X0226331Y0151422D02*
X0225979Y0151422D01*
X0225979Y0149824D02*
X0226331Y0149824D01*
X0226331Y0148225D02*
X0225979Y0148225D01*
X0225979Y0146627D02*
X0226331Y0146627D01*
X0226331Y0145028D02*
X0225979Y0145028D01*
X0225979Y0143430D02*
X0226331Y0143430D01*
X0226331Y0141831D02*
X0225520Y0141831D01*
X0226331Y0140233D02*
X0224156Y0140233D01*
X0222558Y0138634D02*
X0226331Y0138634D01*
X0226331Y0137035D02*
X0220959Y0137035D01*
X0219361Y0135437D02*
X0225486Y0135437D01*
X0223888Y0133838D02*
X0217762Y0133838D01*
X0216164Y0132240D02*
X0222289Y0132240D01*
X0220691Y0130641D02*
X0214565Y0130641D01*
X0212967Y0129043D02*
X0219092Y0129043D01*
X0217494Y0127444D02*
X0211368Y0127444D01*
X0209770Y0125846D02*
X0215895Y0125846D01*
X0214297Y0124247D02*
X0208171Y0124247D01*
X0206573Y0122649D02*
X0212698Y0122649D01*
X0211100Y0121050D02*
X0204974Y0121050D01*
X0203376Y0119452D02*
X0209501Y0119452D01*
X0207903Y0117853D02*
X0201777Y0117853D01*
X0200179Y0116255D02*
X0206304Y0116255D01*
X0204706Y0114656D02*
X0198580Y0114656D01*
X0196982Y0113058D02*
X0203107Y0113058D01*
X0201509Y0111459D02*
X0195383Y0111459D01*
X0193785Y0109861D02*
X0199910Y0109861D01*
X0198311Y0108262D02*
X0192186Y0108262D01*
X0190588Y0106664D02*
X0196713Y0106664D01*
X0195114Y0105065D02*
X0188989Y0105065D01*
X0191917Y0101868D02*
X0031372Y0101868D01*
X0031372Y0103467D02*
X0193516Y0103467D01*
X0190319Y0100270D02*
X0031672Y0100270D01*
X0031672Y0098671D02*
X0188720Y0098671D01*
X0187122Y0097073D02*
X0031672Y0097073D01*
X0030516Y0095474D02*
X0185523Y0095474D01*
X0183925Y0093876D02*
X0009223Y0093876D01*
X0009224Y0095474D02*
X0014029Y0095474D01*
X0012872Y0097073D02*
X0009225Y0097073D01*
X0009226Y0098671D02*
X0012872Y0098671D01*
X0012872Y0100270D02*
X0009227Y0100270D01*
X0009229Y0101868D02*
X0013554Y0101868D01*
X0013554Y0103467D02*
X0009230Y0103467D01*
X0009231Y0105065D02*
X0013554Y0105065D01*
X0012872Y0106664D02*
X0009232Y0106664D01*
X0009233Y0108262D02*
X0012872Y0108262D01*
X0012872Y0109861D02*
X0009234Y0109861D01*
X0009235Y0111459D02*
X0014056Y0111459D01*
X0009237Y0113058D02*
X0185385Y0113058D01*
X0186984Y0114656D02*
X0009238Y0114656D01*
X0009239Y0116255D02*
X0188582Y0116255D01*
X0190181Y0117853D02*
X0009240Y0117853D01*
X0009241Y0119452D02*
X0191779Y0119452D01*
X0193378Y0121050D02*
X0009242Y0121050D01*
X0009243Y0122649D02*
X0194976Y0122649D01*
X0196575Y0124247D02*
X0009245Y0124247D01*
X0009246Y0125846D02*
X0198173Y0125846D01*
X0199772Y0127444D02*
X0009247Y0127444D01*
X0009248Y0129043D02*
X0201370Y0129043D01*
X0202969Y0130641D02*
X0009249Y0130641D01*
X0009250Y0132240D02*
X0204567Y0132240D01*
X0206166Y0133838D02*
X0009251Y0133838D01*
X0009253Y0135437D02*
X0207764Y0135437D01*
X0209363Y0137035D02*
X0009254Y0137035D01*
X0009255Y0138634D02*
X0210961Y0138634D01*
X0212560Y0140233D02*
X0009256Y0140233D01*
X0009257Y0141831D02*
X0214158Y0141831D01*
X0215757Y0143430D02*
X0009258Y0143430D01*
X0009259Y0145028D02*
X0217355Y0145028D01*
X0217779Y0146627D02*
X0009261Y0146627D01*
X0009262Y0148225D02*
X0217779Y0148225D01*
X0217779Y0149824D02*
X0009263Y0149824D01*
X0009264Y0151422D02*
X0217779Y0151422D01*
X0217779Y0153021D02*
X0009265Y0153021D01*
X0009266Y0154619D02*
X0217779Y0154619D01*
X0217779Y0156218D02*
X0009267Y0156218D01*
X0009269Y0157816D02*
X0217779Y0157816D01*
X0217779Y0159415D02*
X0214739Y0159415D01*
X0213863Y0158539D02*
X0216557Y0161233D01*
X0216557Y0163039D01*
X0212058Y0163039D01*
X0212058Y0163239D01*
X0216557Y0163239D01*
X0216557Y0165044D01*
X0213863Y0167739D01*
X0212057Y0167739D01*
X0212057Y0163239D01*
X0211857Y0163239D01*
X0211857Y0163039D01*
X0207357Y0163039D01*
X0207357Y0161233D01*
X0210052Y0158539D01*
X0211857Y0158539D01*
X0211857Y0163038D01*
X0212057Y0163038D01*
X0212057Y0158539D01*
X0213863Y0158539D01*
X0212057Y0159415D02*
X0211857Y0159415D01*
X0211857Y0161013D02*
X0212057Y0161013D01*
X0212057Y0162612D02*
X0211857Y0162612D01*
X0211857Y0163239D02*
X0207357Y0163239D01*
X0207357Y0165044D01*
X0210052Y0167739D01*
X0211857Y0167739D01*
X0211857Y0163239D01*
X0211857Y0164210D02*
X0212057Y0164210D01*
X0212057Y0165809D02*
X0211857Y0165809D01*
X0211857Y0167407D02*
X0212057Y0167407D01*
X0214194Y0167407D02*
X0217779Y0167407D01*
X0217779Y0165809D02*
X0215793Y0165809D01*
X0216557Y0164210D02*
X0217779Y0164210D01*
X0217779Y0162612D02*
X0216557Y0162612D01*
X0216337Y0161013D02*
X0217779Y0161013D01*
X0217779Y0169006D02*
X0214047Y0169006D01*
X0213780Y0168739D02*
X0216357Y0171316D01*
X0216357Y0174961D01*
X0213780Y0177539D01*
X0210135Y0177539D01*
X0207557Y0174961D01*
X0207557Y0171316D01*
X0210135Y0168739D01*
X0213780Y0168739D01*
X0215646Y0170604D02*
X0217779Y0170604D01*
X0217779Y0172203D02*
X0216357Y0172203D01*
X0216357Y0173801D02*
X0217779Y0173801D01*
X0217779Y0175400D02*
X0215919Y0175400D01*
X0214320Y0176998D02*
X0217779Y0176998D01*
X0209595Y0176998D02*
X0204320Y0176998D01*
X0205919Y0175400D02*
X0207996Y0175400D01*
X0207557Y0173801D02*
X0206357Y0173801D01*
X0206357Y0172203D02*
X0207557Y0172203D01*
X0208269Y0170604D02*
X0205646Y0170604D01*
X0204047Y0169006D02*
X0209868Y0169006D01*
X0209721Y0167407D02*
X0203911Y0167407D01*
X0205510Y0165809D02*
X0208122Y0165809D01*
X0207357Y0164210D02*
X0206357Y0164210D01*
X0206357Y0162612D02*
X0207357Y0162612D01*
X0207578Y0161013D02*
X0206055Y0161013D01*
X0204456Y0159415D02*
X0209176Y0159415D01*
X0232287Y0130641D02*
X0235692Y0130641D01*
X0235692Y0129043D02*
X0230689Y0129043D01*
X0229090Y0127444D02*
X0234723Y0127444D01*
X0235692Y0128414D02*
X0179832Y0072554D01*
X0029395Y0072554D01*
X0029095Y0072854D01*
X0025450Y0072854D01*
X0025150Y0072554D01*
X0019395Y0072554D01*
X0019095Y0072854D01*
X0015450Y0072854D01*
X0012872Y0070276D01*
X0012872Y0066631D01*
X0013172Y0066331D01*
X0013172Y0060576D01*
X0012872Y0060276D01*
X0012872Y0056631D01*
X0015450Y0054054D01*
X0019095Y0054054D01*
X0019395Y0054354D01*
X0025150Y0054354D01*
X0025450Y0054054D01*
X0029095Y0054054D01*
X0031672Y0056631D01*
X0031672Y0060276D01*
X0031491Y0060458D01*
X0031491Y0064354D01*
X0182345Y0064354D01*
X0183852Y0064978D01*
X0185006Y0066131D01*
X0243268Y0124393D01*
X0243892Y0125900D01*
X0243892Y0204781D01*
X0243268Y0206288D01*
X0223183Y0226372D01*
X0223183Y0229828D01*
X0223683Y0230328D01*
X0223683Y0234138D01*
X0223183Y0234638D01*
X0223183Y0239828D01*
X0223683Y0240328D01*
X0223683Y0244138D01*
X0220989Y0246833D01*
X0217178Y0246833D01*
X0214483Y0244138D01*
X0214483Y0240328D01*
X0214983Y0239828D01*
X0214983Y0234638D01*
X0214483Y0234138D01*
X0214483Y0230328D01*
X0214983Y0229828D01*
X0214983Y0223858D01*
X0215608Y0222352D01*
X0235692Y0202267D01*
X0235692Y0128414D01*
X0233124Y0125846D02*
X0227492Y0125846D01*
X0225893Y0124247D02*
X0231525Y0124247D01*
X0229927Y0122649D02*
X0224295Y0122649D01*
X0222696Y0121050D02*
X0228328Y0121050D01*
X0226730Y0119452D02*
X0221098Y0119452D01*
X0219499Y0117853D02*
X0225131Y0117853D01*
X0223533Y0116255D02*
X0217901Y0116255D01*
X0216302Y0114656D02*
X0221934Y0114656D01*
X0220336Y0113058D02*
X0214704Y0113058D01*
X0213105Y0111459D02*
X0218737Y0111459D01*
X0217139Y0109861D02*
X0211507Y0109861D01*
X0209908Y0108262D02*
X0215540Y0108262D01*
X0213942Y0106664D02*
X0208309Y0106664D01*
X0206711Y0105065D02*
X0212343Y0105065D01*
X0210745Y0103467D02*
X0205112Y0103467D01*
X0203514Y0101868D02*
X0209146Y0101868D01*
X0207548Y0100270D02*
X0201915Y0100270D01*
X0200317Y0098671D02*
X0205949Y0098671D01*
X0204351Y0097073D02*
X0198718Y0097073D01*
X0197120Y0095474D02*
X0202752Y0095474D01*
X0201154Y0093876D02*
X0195521Y0093876D01*
X0193923Y0092277D02*
X0199555Y0092277D01*
X0197957Y0090679D02*
X0192324Y0090679D01*
X0190726Y0089080D02*
X0196358Y0089080D01*
X0194760Y0087482D02*
X0189127Y0087482D01*
X0187529Y0085883D02*
X0193161Y0085883D01*
X0191563Y0084285D02*
X0030991Y0084285D01*
X0030991Y0082686D02*
X0189964Y0082686D01*
X0188366Y0081088D02*
X0030991Y0081088D01*
X0031672Y0079489D02*
X0186767Y0079489D01*
X0185169Y0077891D02*
X0031672Y0077891D01*
X0031333Y0076292D02*
X0183570Y0076292D01*
X0181972Y0074694D02*
X0029735Y0074694D01*
X0024810Y0074694D02*
X0019735Y0074694D01*
X0014810Y0074694D02*
X0009209Y0074694D01*
X0009210Y0076292D02*
X0013211Y0076292D01*
X0012872Y0077891D02*
X0009212Y0077891D01*
X0009213Y0079489D02*
X0012872Y0079489D01*
X0013672Y0081088D02*
X0009214Y0081088D01*
X0009215Y0082686D02*
X0013672Y0082686D01*
X0013672Y0084285D02*
X0009216Y0084285D01*
X0009217Y0085883D02*
X0013620Y0085883D01*
X0012872Y0087482D02*
X0009218Y0087482D01*
X0009220Y0089080D02*
X0012872Y0089080D01*
X0013275Y0090679D02*
X0009221Y0090679D01*
X0009222Y0092277D02*
X0014874Y0092277D01*
X0019671Y0092277D02*
X0024874Y0092277D01*
X0009208Y0073095D02*
X0180373Y0073095D01*
X0187174Y0068300D02*
X0247787Y0068300D01*
X0247787Y0069898D02*
X0188773Y0069898D01*
X0190371Y0071497D02*
X0247787Y0071497D01*
X0247787Y0073095D02*
X0191970Y0073095D01*
X0193568Y0074694D02*
X0247787Y0074694D01*
X0247787Y0076292D02*
X0195167Y0076292D01*
X0196765Y0077891D02*
X0247787Y0077891D01*
X0247787Y0079489D02*
X0198364Y0079489D01*
X0199962Y0081088D02*
X0247787Y0081088D01*
X0247787Y0082686D02*
X0201561Y0082686D01*
X0203159Y0084285D02*
X0247787Y0084285D01*
X0247787Y0085883D02*
X0204758Y0085883D01*
X0206356Y0087482D02*
X0247787Y0087482D01*
X0247787Y0089080D02*
X0207955Y0089080D01*
X0209553Y0090679D02*
X0247787Y0090679D01*
X0247787Y0092277D02*
X0211152Y0092277D01*
X0212750Y0093876D02*
X0247787Y0093876D01*
X0247787Y0095474D02*
X0214349Y0095474D01*
X0215947Y0097073D02*
X0247787Y0097073D01*
X0247787Y0098671D02*
X0217546Y0098671D01*
X0219144Y0100270D02*
X0247787Y0100270D01*
X0247787Y0101868D02*
X0220743Y0101868D01*
X0222341Y0103467D02*
X0247787Y0103467D01*
X0247787Y0105065D02*
X0223940Y0105065D01*
X0225538Y0106664D02*
X0247787Y0106664D01*
X0247787Y0108262D02*
X0227137Y0108262D01*
X0228735Y0109861D02*
X0247787Y0109861D01*
X0247787Y0111459D02*
X0230334Y0111459D01*
X0231932Y0113058D02*
X0247787Y0113058D01*
X0247787Y0114656D02*
X0233531Y0114656D01*
X0235129Y0116255D02*
X0247787Y0116255D01*
X0247787Y0117853D02*
X0236728Y0117853D01*
X0238326Y0119452D02*
X0247787Y0119452D01*
X0247787Y0121050D02*
X0239925Y0121050D01*
X0241523Y0122649D02*
X0247787Y0122649D01*
X0247787Y0124247D02*
X0243122Y0124247D01*
X0243870Y0125846D02*
X0247787Y0125846D01*
X0247787Y0127444D02*
X0243892Y0127444D01*
X0243892Y0129043D02*
X0247787Y0129043D01*
X0247787Y0130641D02*
X0243892Y0130641D01*
X0243892Y0132240D02*
X0247787Y0132240D01*
X0247787Y0133838D02*
X0243892Y0133838D01*
X0243892Y0135437D02*
X0247787Y0135437D01*
X0247787Y0137035D02*
X0243892Y0137035D01*
X0243892Y0138634D02*
X0247787Y0138634D01*
X0247787Y0140233D02*
X0243892Y0140233D01*
X0243892Y0141831D02*
X0247787Y0141831D01*
X0247787Y0143430D02*
X0243892Y0143430D01*
X0243892Y0145028D02*
X0247787Y0145028D01*
X0247787Y0146627D02*
X0243892Y0146627D01*
X0243892Y0148225D02*
X0247787Y0148225D01*
X0247787Y0149824D02*
X0243892Y0149824D01*
X0243892Y0151422D02*
X0247787Y0151422D01*
X0247787Y0153021D02*
X0243892Y0153021D01*
X0243892Y0154619D02*
X0247787Y0154619D01*
X0247787Y0156218D02*
X0243892Y0156218D01*
X0243892Y0157816D02*
X0247787Y0157816D01*
X0247787Y0159415D02*
X0243892Y0159415D01*
X0243892Y0161013D02*
X0247787Y0161013D01*
X0247787Y0162612D02*
X0243892Y0162612D01*
X0243892Y0164210D02*
X0247787Y0164210D01*
X0247787Y0165809D02*
X0243892Y0165809D01*
X0243892Y0167407D02*
X0247787Y0167407D01*
X0247787Y0169006D02*
X0243892Y0169006D01*
X0243892Y0170604D02*
X0247787Y0170604D01*
X0247787Y0172203D02*
X0243892Y0172203D01*
X0243892Y0173801D02*
X0247787Y0173801D01*
X0247787Y0175400D02*
X0243892Y0175400D01*
X0243892Y0176998D02*
X0247787Y0176998D01*
X0247787Y0178597D02*
X0243892Y0178597D01*
X0243892Y0180195D02*
X0247787Y0180195D01*
X0247787Y0181794D02*
X0243892Y0181794D01*
X0243892Y0183392D02*
X0247787Y0183392D01*
X0247787Y0184991D02*
X0243892Y0184991D01*
X0243892Y0186589D02*
X0247787Y0186589D01*
X0247787Y0188188D02*
X0243892Y0188188D01*
X0243892Y0189786D02*
X0247787Y0189786D01*
X0247787Y0191385D02*
X0243892Y0191385D01*
X0243892Y0192983D02*
X0247787Y0192983D01*
X0247787Y0194582D02*
X0243892Y0194582D01*
X0243892Y0196180D02*
X0247787Y0196180D01*
X0247787Y0197779D02*
X0243892Y0197779D01*
X0243892Y0199377D02*
X0247787Y0199377D01*
X0247787Y0200976D02*
X0243892Y0200976D01*
X0243892Y0202574D02*
X0247787Y0202574D01*
X0247787Y0204173D02*
X0243892Y0204173D01*
X0243482Y0205771D02*
X0247787Y0205771D01*
X0247787Y0207370D02*
X0242186Y0207370D01*
X0240587Y0208969D02*
X0247787Y0208969D01*
X0247787Y0210567D02*
X0238989Y0210567D01*
X0237390Y0212166D02*
X0247787Y0212166D01*
X0247787Y0213764D02*
X0235792Y0213764D01*
X0234193Y0215363D02*
X0247787Y0215363D01*
X0247787Y0216961D02*
X0232595Y0216961D01*
X0230996Y0218560D02*
X0247787Y0218560D01*
X0247787Y0220158D02*
X0229398Y0220158D01*
X0227799Y0221757D02*
X0247787Y0221757D01*
X0247787Y0223355D02*
X0226201Y0223355D01*
X0224602Y0224954D02*
X0247787Y0224954D01*
X0247787Y0226552D02*
X0223183Y0226552D01*
X0223183Y0228151D02*
X0226378Y0228151D01*
X0227095Y0227433D02*
X0228883Y0227433D01*
X0228883Y0232033D01*
X0224283Y0232033D01*
X0224283Y0230245D01*
X0227095Y0227433D01*
X0228883Y0228151D02*
X0229283Y0228151D01*
X0229283Y0227433D02*
X0231072Y0227433D01*
X0233883Y0230245D01*
X0233883Y0232033D01*
X0229284Y0232033D01*
X0229284Y0232433D01*
X0233883Y0232433D01*
X0233883Y0234221D01*
X0231072Y0237033D01*
X0229283Y0237033D01*
X0229283Y0232433D01*
X0228883Y0232433D01*
X0228883Y0232033D01*
X0229283Y0232033D01*
X0229283Y0227433D01*
X0229283Y0229749D02*
X0228883Y0229749D01*
X0228883Y0231348D02*
X0229283Y0231348D01*
X0228883Y0232433D02*
X0224283Y0232433D01*
X0224283Y0234221D01*
X0227095Y0237033D01*
X0228883Y0237033D01*
X0228883Y0232433D01*
X0228883Y0232946D02*
X0229283Y0232946D01*
X0229283Y0234545D02*
X0228883Y0234545D01*
X0228883Y0236143D02*
X0229283Y0236143D01*
X0229283Y0237433D02*
X0231072Y0237433D01*
X0233883Y0240245D01*
X0233883Y0242033D01*
X0229284Y0242033D01*
X0229284Y0242433D01*
X0233883Y0242433D01*
X0233883Y0244221D01*
X0231072Y0247033D01*
X0229283Y0247033D01*
X0229283Y0242433D01*
X0228883Y0242433D01*
X0228883Y0242033D01*
X0224283Y0242033D01*
X0224283Y0240245D01*
X0227095Y0237433D01*
X0228883Y0237433D01*
X0228883Y0242033D01*
X0229283Y0242033D01*
X0229283Y0237433D01*
X0229283Y0237742D02*
X0228883Y0237742D01*
X0228883Y0239340D02*
X0229283Y0239340D01*
X0229283Y0240939D02*
X0228883Y0240939D01*
X0228883Y0242433D02*
X0224283Y0242433D01*
X0224283Y0244221D01*
X0227095Y0247033D01*
X0228883Y0247033D01*
X0228883Y0242433D01*
X0228883Y0242537D02*
X0229283Y0242537D01*
X0229283Y0244136D02*
X0228883Y0244136D01*
X0228883Y0245734D02*
X0229283Y0245734D01*
X0232370Y0245734D02*
X0247787Y0245734D01*
X0247787Y0244136D02*
X0233883Y0244136D01*
X0233883Y0242537D02*
X0247787Y0242537D01*
X0247787Y0240939D02*
X0233883Y0240939D01*
X0232979Y0239340D02*
X0247787Y0239340D01*
X0247787Y0237742D02*
X0231380Y0237742D01*
X0231962Y0236143D02*
X0247787Y0236143D01*
X0247787Y0234545D02*
X0233560Y0234545D01*
X0233883Y0232946D02*
X0247787Y0232946D01*
X0247787Y0231348D02*
X0233883Y0231348D01*
X0233388Y0229749D02*
X0247787Y0229749D01*
X0247787Y0228151D02*
X0231789Y0228151D01*
X0224779Y0229749D02*
X0223183Y0229749D01*
X0223683Y0231348D02*
X0224283Y0231348D01*
X0224283Y0232946D02*
X0223683Y0232946D01*
X0223277Y0234545D02*
X0224607Y0234545D01*
X0223183Y0236143D02*
X0226205Y0236143D01*
X0226787Y0237742D02*
X0223183Y0237742D01*
X0223183Y0239340D02*
X0225188Y0239340D01*
X0224283Y0240939D02*
X0223683Y0240939D01*
X0223683Y0242537D02*
X0224283Y0242537D01*
X0224283Y0244136D02*
X0223683Y0244136D01*
X0222088Y0245734D02*
X0225796Y0245734D01*
X0216079Y0245734D02*
X0212088Y0245734D01*
X0213683Y0244136D02*
X0214483Y0244136D01*
X0214483Y0242537D02*
X0213683Y0242537D01*
X0213683Y0240939D02*
X0214483Y0240939D01*
X0214983Y0239340D02*
X0213183Y0239340D01*
X0213183Y0237742D02*
X0214983Y0237742D01*
X0214983Y0236143D02*
X0213183Y0236143D01*
X0213277Y0234545D02*
X0214890Y0234545D01*
X0214483Y0232946D02*
X0213683Y0232946D01*
X0213683Y0231348D02*
X0214483Y0231348D01*
X0214983Y0229749D02*
X0213183Y0229749D01*
X0213183Y0228151D02*
X0214983Y0228151D01*
X0214983Y0226552D02*
X0213183Y0226552D01*
X0213183Y0224954D02*
X0214983Y0224954D01*
X0215192Y0223355D02*
X0213183Y0223355D01*
X0213823Y0221757D02*
X0216203Y0221757D01*
X0215421Y0220158D02*
X0217801Y0220158D01*
X0217020Y0218560D02*
X0219400Y0218560D01*
X0218618Y0216961D02*
X0220998Y0216961D01*
X0220217Y0215363D02*
X0222597Y0215363D01*
X0221815Y0213764D02*
X0224195Y0213764D01*
X0223414Y0212166D02*
X0225794Y0212166D01*
X0225012Y0210567D02*
X0227392Y0210567D01*
X0226611Y0208969D02*
X0228991Y0208969D01*
X0228209Y0207370D02*
X0230589Y0207370D01*
X0229808Y0205771D02*
X0232188Y0205771D01*
X0231406Y0204173D02*
X0233786Y0204173D01*
X0233005Y0202574D02*
X0235385Y0202574D01*
X0235692Y0200976D02*
X0234195Y0200976D01*
X0234531Y0199377D02*
X0235692Y0199377D01*
X0235692Y0197779D02*
X0234531Y0197779D01*
X0234531Y0196180D02*
X0235692Y0196180D01*
X0235692Y0194582D02*
X0234531Y0194582D01*
X0234531Y0192983D02*
X0235692Y0192983D01*
X0235692Y0191385D02*
X0234531Y0191385D01*
X0234531Y0189786D02*
X0235692Y0189786D01*
X0235692Y0188188D02*
X0234531Y0188188D01*
X0234531Y0186589D02*
X0235692Y0186589D01*
X0235692Y0184991D02*
X0234531Y0184991D01*
X0234531Y0183392D02*
X0235692Y0183392D01*
X0235692Y0181794D02*
X0234531Y0181794D01*
X0234531Y0180195D02*
X0235692Y0180195D01*
X0235692Y0178597D02*
X0234531Y0178597D01*
X0234531Y0176998D02*
X0235692Y0176998D01*
X0235692Y0175400D02*
X0234531Y0175400D01*
X0234531Y0173801D02*
X0235692Y0173801D01*
X0235692Y0172203D02*
X0234531Y0172203D01*
X0234531Y0170604D02*
X0235692Y0170604D01*
X0235692Y0169006D02*
X0234531Y0169006D01*
X0234531Y0167407D02*
X0235692Y0167407D01*
X0235692Y0165809D02*
X0234531Y0165809D01*
X0234531Y0164210D02*
X0235692Y0164210D01*
X0235692Y0162612D02*
X0234531Y0162612D01*
X0234531Y0161013D02*
X0235692Y0161013D01*
X0235692Y0159415D02*
X0234531Y0159415D01*
X0234531Y0157816D02*
X0235692Y0157816D01*
X0235692Y0156218D02*
X0234531Y0156218D01*
X0234531Y0154619D02*
X0235692Y0154619D01*
X0235692Y0153021D02*
X0234531Y0153021D01*
X0234531Y0151422D02*
X0235692Y0151422D01*
X0235692Y0149824D02*
X0234531Y0149824D01*
X0234531Y0148225D02*
X0235692Y0148225D01*
X0235692Y0146627D02*
X0234531Y0146627D01*
X0234531Y0145028D02*
X0235692Y0145028D01*
X0235692Y0143430D02*
X0234531Y0143430D01*
X0234531Y0141831D02*
X0235692Y0141831D01*
X0235692Y0140233D02*
X0234531Y0140233D01*
X0234531Y0138634D02*
X0235692Y0138634D01*
X0235692Y0137035D02*
X0234531Y0137035D01*
X0234531Y0135437D02*
X0235692Y0135437D01*
X0235692Y0133838D02*
X0234531Y0133838D01*
X0233886Y0132240D02*
X0235692Y0132240D01*
X0247787Y0066701D02*
X0185576Y0066701D01*
X0183977Y0065102D02*
X0247787Y0065102D01*
X0247787Y0063504D02*
X0031491Y0063504D01*
X0031491Y0061905D02*
X0247787Y0061905D01*
X0247787Y0060307D02*
X0031642Y0060307D01*
X0031672Y0058708D02*
X0247787Y0058708D01*
X0247787Y0057110D02*
X0031672Y0057110D01*
X0030553Y0055511D02*
X0247787Y0055511D01*
X0247787Y0053913D02*
X0009194Y0053913D01*
X0009196Y0055511D02*
X0013992Y0055511D01*
X0012872Y0057110D02*
X0009197Y0057110D01*
X0009198Y0058708D02*
X0012872Y0058708D01*
X0012903Y0060307D02*
X0009199Y0060307D01*
X0009200Y0061905D02*
X0013172Y0061905D01*
X0013172Y0063504D02*
X0009201Y0063504D01*
X0009202Y0065102D02*
X0013172Y0065102D01*
X0012872Y0066701D02*
X0009204Y0066701D01*
X0009205Y0068300D02*
X0012872Y0068300D01*
X0012872Y0069898D02*
X0009206Y0069898D01*
X0009207Y0071497D02*
X0014093Y0071497D01*
X0027272Y0068454D02*
X0027391Y0068454D01*
X0027272Y0058454D02*
X0027272Y0058099D01*
X0027172Y0053054D02*
X0025367Y0053054D01*
X0022672Y0050359D01*
X0022672Y0048554D01*
X0027172Y0048554D01*
X0027172Y0053054D01*
X0027372Y0053054D02*
X0027372Y0048554D01*
X0027172Y0048554D01*
X0027172Y0048354D01*
X0022672Y0048354D01*
X0022672Y0046548D01*
X0025367Y0043854D01*
X0027172Y0043854D01*
X0027172Y0048353D01*
X0027372Y0048353D01*
X0027372Y0043854D01*
X0029178Y0043854D01*
X0031872Y0046548D01*
X0031872Y0048354D01*
X0027373Y0048354D01*
X0027373Y0048554D01*
X0031872Y0048554D01*
X0031872Y0050359D01*
X0029178Y0053054D01*
X0027372Y0053054D01*
X0027372Y0052314D02*
X0027172Y0052314D01*
X0027172Y0050716D02*
X0027372Y0050716D01*
X0027372Y0049117D02*
X0027172Y0049117D01*
X0027172Y0047519D02*
X0027372Y0047519D01*
X0027372Y0045920D02*
X0027172Y0045920D01*
X0027172Y0044322D02*
X0027372Y0044322D01*
X0027372Y0043054D02*
X0027372Y0038554D01*
X0027172Y0038554D01*
X0027172Y0043054D01*
X0025367Y0043054D01*
X0022672Y0040359D01*
X0022672Y0038554D01*
X0027172Y0038554D01*
X0027172Y0038354D01*
X0022672Y0038354D01*
X0022672Y0036548D01*
X0025367Y0033854D01*
X0027172Y0033854D01*
X0027172Y0038353D01*
X0027372Y0038353D01*
X0027372Y0033854D01*
X0029178Y0033854D01*
X0031872Y0036548D01*
X0031872Y0038354D01*
X0027373Y0038354D01*
X0027373Y0038554D01*
X0031872Y0038554D01*
X0031872Y0040359D01*
X0029178Y0043054D01*
X0027372Y0043054D01*
X0027372Y0042723D02*
X0027172Y0042723D01*
X0027172Y0041125D02*
X0027372Y0041125D01*
X0027372Y0039526D02*
X0027172Y0039526D01*
X0027172Y0037928D02*
X0027372Y0037928D01*
X0027372Y0036329D02*
X0027172Y0036329D01*
X0027172Y0034731D02*
X0027372Y0034731D01*
X0030055Y0034731D02*
X0247787Y0034731D01*
X0247787Y0036329D02*
X0031654Y0036329D01*
X0031872Y0037928D02*
X0247787Y0037928D01*
X0247787Y0039526D02*
X0031872Y0039526D01*
X0031107Y0041125D02*
X0247787Y0041125D01*
X0247787Y0042723D02*
X0029508Y0042723D01*
X0029646Y0044322D02*
X0247787Y0044322D01*
X0247787Y0045920D02*
X0031245Y0045920D01*
X0031872Y0047519D02*
X0247787Y0047519D01*
X0247787Y0049117D02*
X0031872Y0049117D01*
X0031515Y0050716D02*
X0247787Y0050716D01*
X0247787Y0052314D02*
X0029917Y0052314D01*
X0024628Y0052314D02*
X0019917Y0052314D01*
X0019178Y0053054D02*
X0017372Y0053054D01*
X0017372Y0048554D01*
X0017172Y0048554D01*
X0017172Y0053054D01*
X0015367Y0053054D01*
X0012672Y0050359D01*
X0012672Y0048554D01*
X0017172Y0048554D01*
X0017172Y0048354D01*
X0012672Y0048354D01*
X0012672Y0046548D01*
X0015367Y0043854D01*
X0017172Y0043854D01*
X0017172Y0048353D01*
X0017372Y0048353D01*
X0017372Y0043854D01*
X0019178Y0043854D01*
X0021872Y0046548D01*
X0021872Y0048354D01*
X0017373Y0048354D01*
X0017373Y0048554D01*
X0021872Y0048554D01*
X0021872Y0050359D01*
X0019178Y0053054D01*
X0017372Y0052314D02*
X0017172Y0052314D01*
X0017172Y0050716D02*
X0017372Y0050716D01*
X0017372Y0049117D02*
X0017172Y0049117D01*
X0017172Y0047519D02*
X0017372Y0047519D01*
X0017372Y0045920D02*
X0017172Y0045920D01*
X0017172Y0044322D02*
X0017372Y0044322D01*
X0017372Y0043054D02*
X0017372Y0038554D01*
X0017172Y0038554D01*
X0017172Y0043054D01*
X0015367Y0043054D01*
X0012672Y0040359D01*
X0012672Y0038554D01*
X0017172Y0038554D01*
X0017172Y0038354D01*
X0012672Y0038354D01*
X0012672Y0036548D01*
X0015367Y0033854D01*
X0017172Y0033854D01*
X0017172Y0038353D01*
X0017372Y0038353D01*
X0017372Y0033854D01*
X0019178Y0033854D01*
X0021872Y0036548D01*
X0021872Y0038354D01*
X0017373Y0038354D01*
X0017373Y0038554D01*
X0021872Y0038554D01*
X0021872Y0040359D01*
X0019178Y0043054D01*
X0017372Y0043054D01*
X0017372Y0042723D02*
X0017172Y0042723D01*
X0017172Y0041125D02*
X0017372Y0041125D01*
X0017372Y0039526D02*
X0017172Y0039526D01*
X0017172Y0037928D02*
X0017372Y0037928D01*
X0017372Y0036329D02*
X0017172Y0036329D01*
X0017172Y0034731D02*
X0017372Y0034731D01*
X0020055Y0034731D02*
X0024490Y0034731D01*
X0022891Y0036329D02*
X0021654Y0036329D01*
X0021872Y0037928D02*
X0022672Y0037928D01*
X0022672Y0039526D02*
X0021872Y0039526D01*
X0021107Y0041125D02*
X0023438Y0041125D01*
X0025037Y0042723D02*
X0019508Y0042723D01*
X0019646Y0044322D02*
X0024899Y0044322D01*
X0023300Y0045920D02*
X0021245Y0045920D01*
X0021872Y0047519D02*
X0022672Y0047519D01*
X0022672Y0049117D02*
X0021872Y0049117D01*
X0021515Y0050716D02*
X0023029Y0050716D01*
X0014628Y0052314D02*
X0009193Y0052314D01*
X0009192Y0050716D02*
X0013029Y0050716D01*
X0012672Y0049117D02*
X0009191Y0049117D01*
X0009190Y0047519D02*
X0012672Y0047519D01*
X0013300Y0045920D02*
X0009189Y0045920D01*
X0009188Y0044322D02*
X0014899Y0044322D01*
X0015037Y0042723D02*
X0009186Y0042723D01*
X0009185Y0041125D02*
X0013438Y0041125D01*
X0012672Y0039526D02*
X0009184Y0039526D01*
X0009183Y0037928D02*
X0012672Y0037928D01*
X0012891Y0036329D02*
X0009182Y0036329D01*
X0009181Y0034731D02*
X0014490Y0034731D01*
X0009180Y0033132D02*
X0247787Y0033132D01*
X0247787Y0031534D02*
X0009178Y0031534D01*
X0009177Y0029935D02*
X0247787Y0029935D01*
X0247787Y0028337D02*
X0009176Y0028337D01*
X0009175Y0026738D02*
X0247787Y0026738D01*
X0247787Y0025140D02*
X0009174Y0025140D01*
X0009173Y0023541D02*
X0247787Y0023541D01*
X0247787Y0021943D02*
X0009172Y0021943D01*
X0009170Y0020344D02*
X0247787Y0020344D01*
X0247787Y0018746D02*
X0009169Y0018746D01*
X0009168Y0017147D02*
X0247787Y0017147D01*
X0247787Y0015549D02*
X0009167Y0015549D01*
X0009166Y0013950D02*
X0247787Y0013950D01*
X0247787Y0012352D02*
X0009165Y0012352D01*
X0009164Y0010753D02*
X0247787Y0010753D01*
X0159459Y0159415D02*
X0154456Y0159415D01*
X0156055Y0161013D02*
X0157860Y0161013D01*
X0157557Y0162612D02*
X0156357Y0162612D01*
X0156357Y0164210D02*
X0157557Y0164210D01*
X0158405Y0165809D02*
X0155510Y0165809D01*
X0165929Y0170604D02*
X0168269Y0170604D01*
X0167557Y0172203D02*
X0166557Y0172203D01*
X0166557Y0173801D02*
X0167557Y0173801D01*
X0167996Y0175400D02*
X0166202Y0175400D01*
X0164603Y0176998D02*
X0169557Y0176998D01*
X0171957Y0179674D02*
X0171957Y0173139D01*
X0171957Y0179674D02*
X0155343Y0196288D01*
X0137430Y0196288D01*
X0134871Y0196288D01*
X0127194Y0196288D01*
X0096367Y0227115D01*
X0096367Y0232233D01*
X0106367Y0232233D02*
X0106367Y0224792D01*
X0124635Y0206524D01*
X0118790Y0228151D02*
X0186661Y0228151D01*
X0185062Y0229749D02*
X0120388Y0229749D01*
X0120967Y0231348D02*
X0184483Y0231348D01*
X0184483Y0232946D02*
X0120967Y0232946D01*
X0120561Y0234545D02*
X0184890Y0234545D01*
X0184983Y0236143D02*
X0118962Y0236143D01*
X0118381Y0237742D02*
X0184983Y0237742D01*
X0184983Y0239340D02*
X0119979Y0239340D01*
X0120967Y0240939D02*
X0184483Y0240939D01*
X0184483Y0242537D02*
X0120967Y0242537D01*
X0120967Y0244136D02*
X0184483Y0244136D01*
X0184983Y0245734D02*
X0119371Y0245734D01*
X0086367Y0232233D02*
X0086367Y0228729D01*
X0141957Y0173139D01*
X0131957Y0173139D02*
X0076367Y0228729D01*
X0076367Y0232233D01*
X0066367Y0232233D02*
X0066367Y0228965D01*
X0087036Y0208296D01*
X0087036Y0168139D01*
X0091957Y0163217D01*
X0091957Y0163139D01*
X0087557Y0162612D02*
X0086357Y0162612D01*
X0086357Y0164210D02*
X0087557Y0164210D01*
X0085972Y0165809D02*
X0085510Y0165809D01*
X0084741Y0167407D02*
X0083911Y0167407D01*
X0084330Y0169006D02*
X0084636Y0169006D01*
X0089563Y0169006D02*
X0089868Y0169006D01*
X0094047Y0169006D02*
X0099868Y0169006D01*
X0100135Y0168739D02*
X0103780Y0168739D01*
X0106357Y0171316D01*
X0106357Y0174961D01*
X0103780Y0177539D01*
X0100135Y0177539D01*
X0097557Y0174961D01*
X0097557Y0171316D01*
X0100135Y0168739D01*
X0100135Y0167539D02*
X0097557Y0164961D01*
X0097557Y0161316D01*
X0100135Y0158739D01*
X0103780Y0158739D01*
X0106357Y0161316D01*
X0106357Y0164961D01*
X0103780Y0167539D01*
X0100135Y0167539D01*
X0100004Y0167407D02*
X0093911Y0167407D01*
X0095510Y0165809D02*
X0098405Y0165809D01*
X0097557Y0164210D02*
X0096357Y0164210D01*
X0096357Y0162612D02*
X0097557Y0162612D01*
X0097860Y0161013D02*
X0096055Y0161013D01*
X0094456Y0159415D02*
X0099459Y0159415D01*
X0104456Y0159415D02*
X0109459Y0159415D01*
X0110135Y0158739D02*
X0113780Y0158739D01*
X0116357Y0161316D01*
X0116357Y0164961D01*
X0113780Y0167539D01*
X0110135Y0167539D01*
X0107557Y0164961D01*
X0107557Y0161316D01*
X0110135Y0158739D01*
X0107860Y0161013D02*
X0106055Y0161013D01*
X0106357Y0162612D02*
X0107557Y0162612D01*
X0107557Y0164210D02*
X0106357Y0164210D01*
X0105510Y0165809D02*
X0108405Y0165809D01*
X0110004Y0167407D02*
X0103911Y0167407D01*
X0104047Y0169006D02*
X0109585Y0169006D01*
X0110052Y0168539D02*
X0111857Y0168539D01*
X0111857Y0173038D01*
X0112057Y0173038D01*
X0112057Y0168539D01*
X0113863Y0168539D01*
X0116557Y0171233D01*
X0116557Y0173039D01*
X0112058Y0173039D01*
X0112058Y0173239D01*
X0116557Y0173239D01*
X0116557Y0175044D01*
X0113863Y0177739D01*
X0112057Y0177739D01*
X0112057Y0173239D01*
X0111857Y0173239D01*
X0111857Y0173039D01*
X0107357Y0173039D01*
X0107357Y0171233D01*
X0110052Y0168539D01*
X0111857Y0169006D02*
X0112057Y0169006D01*
X0112057Y0170604D02*
X0111857Y0170604D01*
X0111857Y0172203D02*
X0112057Y0172203D01*
X0111857Y0173239D02*
X0107357Y0173239D01*
X0107357Y0175044D01*
X0110052Y0177739D01*
X0111857Y0177739D01*
X0111857Y0173239D01*
X0111857Y0173801D02*
X0112057Y0173801D01*
X0112057Y0175400D02*
X0111857Y0175400D01*
X0111857Y0176998D02*
X0112057Y0176998D01*
X0114603Y0176998D02*
X0119595Y0176998D01*
X0117996Y0175400D02*
X0116202Y0175400D01*
X0116557Y0173801D02*
X0117557Y0173801D01*
X0117557Y0172203D02*
X0116557Y0172203D01*
X0115929Y0170604D02*
X0118269Y0170604D01*
X0119868Y0169006D02*
X0114330Y0169006D01*
X0113911Y0167407D02*
X0120004Y0167407D01*
X0118405Y0165809D02*
X0115510Y0165809D01*
X0116357Y0164210D02*
X0117557Y0164210D01*
X0117557Y0162612D02*
X0116357Y0162612D01*
X0116055Y0161013D02*
X0117860Y0161013D01*
X0119459Y0159415D02*
X0114456Y0159415D01*
X0124456Y0159415D02*
X0129459Y0159415D01*
X0127860Y0161013D02*
X0126055Y0161013D01*
X0126357Y0162612D02*
X0127557Y0162612D01*
X0127557Y0164210D02*
X0126357Y0164210D01*
X0125510Y0165809D02*
X0128405Y0165809D01*
X0107986Y0170604D02*
X0105646Y0170604D01*
X0106357Y0172203D02*
X0107357Y0172203D01*
X0107357Y0173801D02*
X0106357Y0173801D01*
X0105919Y0175400D02*
X0107713Y0175400D01*
X0109312Y0176998D02*
X0104320Y0176998D01*
X0099595Y0176998D02*
X0094320Y0176998D01*
X0095919Y0175400D02*
X0097996Y0175400D01*
X0097557Y0173801D02*
X0096357Y0173801D01*
X0096357Y0172203D02*
X0097557Y0172203D01*
X0098269Y0170604D02*
X0095646Y0170604D01*
X0089595Y0176998D02*
X0089436Y0176998D01*
X0087860Y0161013D02*
X0086055Y0161013D01*
X0084456Y0159415D02*
X0089459Y0159415D01*
X0079459Y0159415D02*
X0074456Y0159415D01*
X0076055Y0161013D02*
X0077860Y0161013D01*
X0071957Y0163139D02*
X0066957Y0168139D01*
X0064663Y0167407D02*
X0064194Y0167407D01*
X0063863Y0167739D02*
X0062057Y0167739D01*
X0062057Y0163239D01*
X0061857Y0163239D01*
X0061857Y0163039D01*
X0057357Y0163039D01*
X0057357Y0161233D01*
X0060052Y0158539D01*
X0061857Y0158539D01*
X0061857Y0163038D01*
X0062057Y0163038D01*
X0062057Y0158539D01*
X0063863Y0158539D01*
X0066557Y0161233D01*
X0066557Y0163039D01*
X0062058Y0163039D01*
X0062058Y0163239D01*
X0066557Y0163239D01*
X0066557Y0165044D01*
X0063863Y0167739D01*
X0064047Y0169006D02*
X0064557Y0169006D01*
X0062057Y0167407D02*
X0061857Y0167407D01*
X0061857Y0167739D02*
X0060052Y0167739D01*
X0057357Y0165044D01*
X0057357Y0163239D01*
X0061857Y0163239D01*
X0061857Y0167739D01*
X0061857Y0165809D02*
X0062057Y0165809D01*
X0062057Y0164210D02*
X0061857Y0164210D01*
X0061857Y0162612D02*
X0062057Y0162612D01*
X0062057Y0161013D02*
X0061857Y0161013D01*
X0061857Y0159415D02*
X0062057Y0159415D01*
X0064739Y0159415D02*
X0069459Y0159415D01*
X0067860Y0161013D02*
X0066337Y0161013D01*
X0066557Y0162612D02*
X0067557Y0162612D01*
X0067492Y0164210D02*
X0066557Y0164210D01*
X0065893Y0165809D02*
X0065793Y0165809D01*
X0059721Y0167407D02*
X0059213Y0167407D01*
X0059318Y0169006D02*
X0059868Y0169006D01*
X0056918Y0168139D02*
X0056918Y0215383D01*
X0047863Y0224438D01*
X0047863Y0245920D01*
X0057090Y0255146D01*
X0073454Y0255146D01*
X0059017Y0252128D02*
X0057466Y0252128D01*
X0057327Y0250530D02*
X0055867Y0250530D01*
X0055728Y0248931D02*
X0054269Y0248931D01*
X0054130Y0247333D02*
X0052670Y0247333D01*
X0052531Y0245734D02*
X0051072Y0245734D01*
X0050941Y0244136D02*
X0050263Y0244136D01*
X0050263Y0242537D02*
X0050581Y0242537D01*
X0050581Y0240939D02*
X0050263Y0240939D01*
X0050263Y0239340D02*
X0050581Y0239340D01*
X0050581Y0237742D02*
X0050263Y0237742D01*
X0050263Y0236143D02*
X0050581Y0236143D01*
X0050581Y0234545D02*
X0050263Y0234545D01*
X0050263Y0232946D02*
X0050581Y0232946D01*
X0050581Y0231348D02*
X0050263Y0231348D01*
X0050263Y0229749D02*
X0050581Y0229749D01*
X0050581Y0228151D02*
X0050263Y0228151D01*
X0050263Y0226552D02*
X0050581Y0226552D01*
X0050741Y0224954D02*
X0051630Y0224954D01*
X0052340Y0223355D02*
X0053229Y0223355D01*
X0053938Y0221757D02*
X0054827Y0221757D01*
X0055537Y0220158D02*
X0056426Y0220158D01*
X0057135Y0218560D02*
X0058024Y0218560D01*
X0058734Y0216961D02*
X0059623Y0216961D01*
X0059318Y0215363D02*
X0061221Y0215363D01*
X0062820Y0213764D02*
X0059318Y0213764D01*
X0059318Y0212166D02*
X0064418Y0212166D01*
X0064557Y0210567D02*
X0059318Y0210567D01*
X0059318Y0208969D02*
X0064557Y0208969D01*
X0064557Y0207370D02*
X0059318Y0207370D01*
X0059318Y0205771D02*
X0064557Y0205771D01*
X0064557Y0204173D02*
X0059318Y0204173D01*
X0059318Y0202574D02*
X0064557Y0202574D01*
X0064557Y0200976D02*
X0059318Y0200976D01*
X0059318Y0199377D02*
X0064557Y0199377D01*
X0064557Y0197779D02*
X0059318Y0197779D01*
X0059318Y0196180D02*
X0064557Y0196180D01*
X0064557Y0194582D02*
X0059318Y0194582D01*
X0059318Y0192983D02*
X0064557Y0192983D01*
X0064557Y0191385D02*
X0059318Y0191385D01*
X0059318Y0189786D02*
X0064557Y0189786D01*
X0064557Y0188188D02*
X0059318Y0188188D01*
X0059318Y0186589D02*
X0064557Y0186589D01*
X0064557Y0184991D02*
X0059318Y0184991D01*
X0059318Y0183392D02*
X0064557Y0183392D01*
X0064557Y0181794D02*
X0059318Y0181794D01*
X0059318Y0180195D02*
X0064557Y0180195D01*
X0064557Y0178597D02*
X0059318Y0178597D01*
X0059318Y0176998D02*
X0059595Y0176998D01*
X0064320Y0176998D02*
X0064557Y0176998D01*
X0056918Y0168139D02*
X0051957Y0163178D01*
X0051957Y0163139D01*
X0056357Y0162612D02*
X0057357Y0162612D01*
X0057357Y0164210D02*
X0056384Y0164210D01*
X0057982Y0165809D02*
X0058122Y0165809D01*
X0054391Y0169006D02*
X0054047Y0169006D01*
X0054320Y0176998D02*
X0054518Y0176998D01*
X0056055Y0161013D02*
X0057578Y0161013D01*
X0059176Y0159415D02*
X0054456Y0159415D01*
X0041873Y0260121D02*
X0172674Y0260121D01*
X0171075Y0261719D02*
X0043472Y0261719D01*
X0045070Y0263318D02*
X0169477Y0263318D01*
X0174679Y0269712D02*
X0247787Y0269712D01*
X0247787Y0271310D02*
X0173081Y0271310D01*
X0176278Y0268113D02*
X0247787Y0268113D01*
X0247787Y0266515D02*
X0177876Y0266515D01*
X0179475Y0264916D02*
X0247787Y0264916D01*
X0247787Y0263318D02*
X0181073Y0263318D01*
X0182672Y0261719D02*
X0247787Y0261719D01*
X0247787Y0260121D02*
X0184270Y0260121D01*
X0185869Y0258522D02*
X0247787Y0258522D01*
X0247787Y0256924D02*
X0187467Y0256924D01*
X0189066Y0255325D02*
X0247787Y0255325D01*
X0247787Y0253727D02*
X0190664Y0253727D01*
X0192263Y0252128D02*
X0247787Y0252128D01*
X0247787Y0250530D02*
X0193099Y0250530D01*
X0193183Y0248931D02*
X0247787Y0248931D01*
X0247787Y0247333D02*
X0193183Y0247333D01*
X0193183Y0245734D02*
X0196079Y0245734D01*
X0194483Y0244136D02*
X0193683Y0244136D01*
X0193683Y0242537D02*
X0194483Y0242537D01*
X0194483Y0240939D02*
X0193683Y0240939D01*
X0193183Y0239340D02*
X0194983Y0239340D01*
X0194983Y0237742D02*
X0193183Y0237742D01*
X0193183Y0236143D02*
X0194983Y0236143D01*
X0194890Y0234545D02*
X0193277Y0234545D01*
X0193683Y0232946D02*
X0194483Y0232946D01*
X0194483Y0231348D02*
X0193683Y0231348D01*
X0193105Y0229749D02*
X0194983Y0229749D01*
X0194983Y0228151D02*
X0191506Y0228151D01*
X0203183Y0228151D02*
X0204983Y0228151D01*
X0204983Y0229749D02*
X0203183Y0229749D01*
X0203683Y0231348D02*
X0204483Y0231348D01*
X0204483Y0232946D02*
X0203683Y0232946D01*
X0203277Y0234545D02*
X0204890Y0234545D01*
X0204983Y0236143D02*
X0203183Y0236143D01*
X0203183Y0237742D02*
X0204983Y0237742D01*
X0204983Y0239340D02*
X0203183Y0239340D01*
X0203683Y0240939D02*
X0204483Y0240939D01*
X0204483Y0242537D02*
X0203683Y0242537D01*
X0203683Y0244136D02*
X0204483Y0244136D01*
X0206079Y0245734D02*
X0202088Y0245734D01*
X0203183Y0226552D02*
X0204983Y0226552D01*
X0204983Y0224954D02*
X0203183Y0224954D01*
X0203183Y0223355D02*
X0204983Y0223355D01*
X0204983Y0221757D02*
X0203183Y0221757D01*
X0203183Y0220158D02*
X0204983Y0220158D01*
X0205531Y0218560D02*
X0204421Y0218560D01*
X0206020Y0216961D02*
X0207022Y0216961D01*
X0207618Y0215363D02*
X0208620Y0215363D01*
D14*
X0209083Y0220698D02*
X0209083Y0232233D01*
X0209083Y0242233D01*
X0199083Y0242233D02*
X0199083Y0232233D01*
X0199083Y0218099D01*
X0221879Y0195304D01*
X0221879Y0143753D01*
X0186579Y0108454D01*
X0027272Y0108454D01*
X0027272Y0098454D01*
X0017272Y0098454D01*
X0027272Y0088454D02*
X0184301Y0088454D01*
X0230431Y0134583D01*
X0230431Y0199350D01*
X0209083Y0220698D01*
X0219083Y0224674D02*
X0219083Y0232233D01*
X0219083Y0242233D01*
X0219083Y0224674D02*
X0239792Y0203965D01*
X0239792Y0126716D01*
X0181530Y0068454D01*
X0027391Y0068454D01*
X0027391Y0058493D01*
X0027312Y0058493D02*
X0027272Y0058454D01*
X0017272Y0058454D01*
X0017272Y0068454D01*
X0027272Y0068454D01*
X0027351Y0078375D02*
X0027272Y0078454D01*
X0031957Y0173139D02*
X0021957Y0173139D01*
X0021957Y0246004D01*
X0043896Y0267942D01*
X0170651Y0267942D01*
X0189083Y0249509D01*
X0189083Y0242233D01*
X0189083Y0232233D01*
D15*
X0027272Y0108454D02*
X0017272Y0108454D01*
X0017272Y0099044D01*
X0017154Y0099044D01*
X0017154Y0108454D01*
X0017272Y0108454D01*
X0017272Y0088454D02*
X0027272Y0088454D01*
X0027272Y0078572D01*
X0027391Y0078572D01*
X0027391Y0088454D01*
X0027272Y0088454D01*
X0027272Y0078454D02*
X0017272Y0078454D01*
X0017272Y0088454D01*
M02*
