G75*
%MOIN*%
%OFA0B0*%
%FSLAX25Y25*%
%IPPOS*%
%LPD*%
%AMOC8*
5,1,8,0,0,1.08239X$1,22.5*
%
%ADD10C,0.00600*%
%ADD11C,0.02600*%
%ADD12C,0.00500*%
%ADD13R,0.02600X0.03000*%
%ADD14R,0.02600X0.02600*%
%ADD15R,0.02600X0.03200*%
%ADD16C,0.00300*%
%ADD17C,0.00400*%
D10*
X0079317Y0023800D02*
X0089317Y0023800D01*
X0099317Y0023800D01*
X0109317Y0023800D01*
X0119317Y0023800D01*
X0129317Y0023800D01*
X0139317Y0023800D01*
X0149317Y0023800D01*
X0159317Y0023800D01*
X0159317Y0034800D01*
X0149317Y0034800D01*
X0139317Y0034800D01*
X0139317Y0023800D01*
X0149317Y0023800D02*
X0149317Y0034800D01*
X0139317Y0034800D02*
X0129317Y0034800D01*
X0129317Y0023800D01*
X0119317Y0023800D02*
X0119317Y0034800D01*
X0129317Y0034800D01*
X0119317Y0034800D02*
X0109317Y0034800D01*
X0109317Y0023800D01*
X0099317Y0023800D02*
X0099317Y0034800D01*
X0109317Y0034800D01*
X0099317Y0034800D02*
X0089317Y0034800D01*
X0089317Y0023800D01*
X0079317Y0023800D02*
X0079317Y0034800D01*
X0089317Y0034800D01*
X0034072Y0059481D02*
X0034072Y0134481D01*
X0034070Y0134579D01*
X0034064Y0134677D01*
X0034055Y0134775D01*
X0034041Y0134872D01*
X0034024Y0134969D01*
X0034003Y0135065D01*
X0033978Y0135160D01*
X0033950Y0135254D01*
X0033917Y0135346D01*
X0033882Y0135438D01*
X0033842Y0135528D01*
X0033800Y0135616D01*
X0033753Y0135703D01*
X0033704Y0135787D01*
X0033651Y0135870D01*
X0033595Y0135950D01*
X0033535Y0136029D01*
X0033473Y0136105D01*
X0033408Y0136178D01*
X0033340Y0136249D01*
X0033269Y0136317D01*
X0033196Y0136382D01*
X0033120Y0136444D01*
X0033041Y0136504D01*
X0032961Y0136560D01*
X0032878Y0136613D01*
X0032794Y0136662D01*
X0032707Y0136709D01*
X0032619Y0136751D01*
X0032529Y0136791D01*
X0032437Y0136826D01*
X0032345Y0136859D01*
X0032251Y0136887D01*
X0032156Y0136912D01*
X0032060Y0136933D01*
X0031963Y0136950D01*
X0031866Y0136964D01*
X0031768Y0136973D01*
X0031670Y0136979D01*
X0031572Y0136981D01*
X0012572Y0136981D01*
X0012474Y0136979D01*
X0012376Y0136973D01*
X0012278Y0136964D01*
X0012181Y0136950D01*
X0012084Y0136933D01*
X0011988Y0136912D01*
X0011893Y0136887D01*
X0011799Y0136859D01*
X0011707Y0136826D01*
X0011615Y0136791D01*
X0011525Y0136751D01*
X0011437Y0136709D01*
X0011350Y0136662D01*
X0011266Y0136613D01*
X0011183Y0136560D01*
X0011103Y0136504D01*
X0011024Y0136444D01*
X0010948Y0136382D01*
X0010875Y0136317D01*
X0010804Y0136249D01*
X0010736Y0136178D01*
X0010671Y0136105D01*
X0010609Y0136029D01*
X0010549Y0135950D01*
X0010493Y0135870D01*
X0010440Y0135787D01*
X0010391Y0135703D01*
X0010344Y0135616D01*
X0010302Y0135528D01*
X0010262Y0135438D01*
X0010227Y0135346D01*
X0010194Y0135254D01*
X0010166Y0135160D01*
X0010141Y0135065D01*
X0010120Y0134969D01*
X0010103Y0134872D01*
X0010089Y0134775D01*
X0010080Y0134677D01*
X0010074Y0134579D01*
X0010072Y0134481D01*
X0010072Y0059481D01*
X0010074Y0059383D01*
X0010080Y0059285D01*
X0010089Y0059187D01*
X0010103Y0059090D01*
X0010120Y0058993D01*
X0010141Y0058897D01*
X0010166Y0058802D01*
X0010194Y0058708D01*
X0010227Y0058616D01*
X0010262Y0058524D01*
X0010302Y0058434D01*
X0010344Y0058346D01*
X0010391Y0058259D01*
X0010440Y0058175D01*
X0010493Y0058092D01*
X0010549Y0058012D01*
X0010609Y0057933D01*
X0010671Y0057857D01*
X0010736Y0057784D01*
X0010804Y0057713D01*
X0010875Y0057645D01*
X0010948Y0057580D01*
X0011024Y0057518D01*
X0011103Y0057458D01*
X0011183Y0057402D01*
X0011266Y0057349D01*
X0011350Y0057300D01*
X0011437Y0057253D01*
X0011525Y0057211D01*
X0011615Y0057171D01*
X0011707Y0057136D01*
X0011799Y0057103D01*
X0011893Y0057075D01*
X0011988Y0057050D01*
X0012084Y0057029D01*
X0012181Y0057012D01*
X0012278Y0056998D01*
X0012376Y0056989D01*
X0012474Y0056983D01*
X0012572Y0056981D01*
X0031572Y0056981D01*
X0031670Y0056983D01*
X0031768Y0056989D01*
X0031866Y0056998D01*
X0031963Y0057012D01*
X0032060Y0057029D01*
X0032156Y0057050D01*
X0032251Y0057075D01*
X0032345Y0057103D01*
X0032437Y0057136D01*
X0032529Y0057171D01*
X0032619Y0057211D01*
X0032707Y0057253D01*
X0032794Y0057300D01*
X0032878Y0057349D01*
X0032961Y0057402D01*
X0033041Y0057458D01*
X0033120Y0057518D01*
X0033196Y0057580D01*
X0033269Y0057645D01*
X0033340Y0057713D01*
X0033408Y0057784D01*
X0033473Y0057857D01*
X0033535Y0057933D01*
X0033595Y0058012D01*
X0033651Y0058092D01*
X0033704Y0058175D01*
X0033753Y0058259D01*
X0033800Y0058346D01*
X0033842Y0058434D01*
X0033882Y0058524D01*
X0033917Y0058616D01*
X0033950Y0058708D01*
X0033978Y0058802D01*
X0034003Y0058897D01*
X0034024Y0058993D01*
X0034041Y0059090D01*
X0034055Y0059187D01*
X0034064Y0059285D01*
X0034070Y0059383D01*
X0034072Y0059481D01*
X0058094Y0112990D02*
X0061894Y0112990D01*
X0061894Y0114190D01*
X0058094Y0114190D01*
X0058094Y0112990D01*
X0058094Y0115590D02*
X0061894Y0115590D01*
X0061894Y0116790D01*
X0058094Y0116790D01*
X0058094Y0115590D01*
X0058094Y0118090D02*
X0061894Y0118090D01*
X0061894Y0119290D01*
X0058094Y0119290D01*
X0058094Y0118090D01*
X0058094Y0120690D02*
X0061894Y0120690D01*
X0061894Y0121890D01*
X0058094Y0121890D01*
X0058094Y0120690D01*
X0058094Y0123290D02*
X0061894Y0123290D01*
X0061894Y0124490D01*
X0058094Y0124490D01*
X0058094Y0123290D01*
X0058094Y0125790D02*
X0061894Y0125790D01*
X0061894Y0126990D01*
X0058094Y0126990D01*
X0058094Y0125790D01*
X0058094Y0128390D02*
X0061894Y0128390D01*
X0061894Y0129590D01*
X0058094Y0129590D01*
X0058094Y0128390D01*
X0058094Y0130890D02*
X0061894Y0130890D01*
X0061894Y0132090D01*
X0058094Y0132090D01*
X0058094Y0130890D01*
X0058094Y0133490D02*
X0061894Y0133490D01*
X0061894Y0134690D01*
X0058094Y0134690D01*
X0058094Y0133490D01*
X0058094Y0136090D02*
X0061894Y0136090D01*
X0061894Y0137290D01*
X0058094Y0137290D01*
X0058094Y0136090D01*
X0058094Y0138590D02*
X0061894Y0138590D01*
X0061894Y0139790D01*
X0058094Y0139790D01*
X0058094Y0138590D01*
X0058094Y0141190D02*
X0061894Y0141190D01*
X0061894Y0142390D01*
X0058094Y0142390D01*
X0058094Y0141190D01*
X0061894Y0143290D02*
X0061894Y0112090D01*
X0079494Y0112090D01*
X0079494Y0143290D01*
X0071894Y0143290D01*
X0069494Y0143290D01*
X0061894Y0143290D01*
X0069494Y0143290D02*
X0069496Y0143221D01*
X0069502Y0143153D01*
X0069512Y0143085D01*
X0069525Y0143018D01*
X0069543Y0142952D01*
X0069564Y0142887D01*
X0069589Y0142823D01*
X0069617Y0142761D01*
X0069649Y0142700D01*
X0069684Y0142641D01*
X0069723Y0142585D01*
X0069765Y0142530D01*
X0069810Y0142479D01*
X0069858Y0142429D01*
X0069908Y0142383D01*
X0069961Y0142340D01*
X0070017Y0142299D01*
X0070074Y0142262D01*
X0070134Y0142229D01*
X0070196Y0142198D01*
X0070259Y0142172D01*
X0070323Y0142149D01*
X0070389Y0142129D01*
X0070456Y0142114D01*
X0070523Y0142102D01*
X0070591Y0142094D01*
X0070660Y0142090D01*
X0070728Y0142090D01*
X0070797Y0142094D01*
X0070865Y0142102D01*
X0070932Y0142114D01*
X0070999Y0142129D01*
X0071065Y0142149D01*
X0071129Y0142172D01*
X0071192Y0142198D01*
X0071254Y0142229D01*
X0071314Y0142262D01*
X0071371Y0142299D01*
X0071427Y0142340D01*
X0071480Y0142383D01*
X0071530Y0142429D01*
X0071578Y0142479D01*
X0071623Y0142530D01*
X0071665Y0142585D01*
X0071704Y0142641D01*
X0071739Y0142700D01*
X0071771Y0142761D01*
X0071799Y0142823D01*
X0071824Y0142887D01*
X0071845Y0142952D01*
X0071863Y0143018D01*
X0071876Y0143085D01*
X0071886Y0143153D01*
X0071892Y0143221D01*
X0071894Y0143290D01*
X0079494Y0142390D02*
X0083294Y0142390D01*
X0083294Y0141190D01*
X0079494Y0141190D01*
X0079494Y0142390D01*
X0079494Y0139790D02*
X0083294Y0139790D01*
X0083294Y0138590D01*
X0079494Y0138590D01*
X0079494Y0139790D01*
X0079494Y0137290D02*
X0083294Y0137290D01*
X0083294Y0136090D01*
X0079494Y0136090D01*
X0079494Y0137290D01*
X0079494Y0134690D02*
X0083294Y0134690D01*
X0083294Y0133490D01*
X0079494Y0133490D01*
X0079494Y0134690D01*
X0079494Y0132090D02*
X0083294Y0132090D01*
X0083294Y0130890D01*
X0079494Y0130890D01*
X0079494Y0132090D01*
X0079494Y0129590D02*
X0083294Y0129590D01*
X0083294Y0128390D01*
X0079494Y0128390D01*
X0079494Y0129590D01*
X0079494Y0126990D02*
X0083294Y0126990D01*
X0083294Y0125790D01*
X0079494Y0125790D01*
X0079494Y0126990D01*
X0079494Y0124490D02*
X0083294Y0124490D01*
X0083294Y0123290D01*
X0079494Y0123290D01*
X0079494Y0124490D01*
X0079494Y0121890D02*
X0083294Y0121890D01*
X0083294Y0120690D01*
X0079494Y0120690D01*
X0079494Y0121890D01*
X0079494Y0119290D02*
X0083294Y0119290D01*
X0083294Y0118090D01*
X0079494Y0118090D01*
X0079494Y0119290D01*
X0079494Y0116790D02*
X0083294Y0116790D01*
X0083294Y0115590D01*
X0079494Y0115590D01*
X0079494Y0116790D01*
X0079494Y0114190D02*
X0083294Y0114190D01*
X0083294Y0112990D01*
X0079494Y0112990D01*
X0079494Y0114190D01*
X0101598Y0114190D02*
X0101598Y0112990D01*
X0105398Y0112990D01*
X0105398Y0114190D01*
X0101598Y0114190D01*
X0101598Y0115590D02*
X0105398Y0115590D01*
X0105398Y0116790D01*
X0101598Y0116790D01*
X0101598Y0115590D01*
X0105398Y0112090D02*
X0105398Y0143290D01*
X0112998Y0143290D01*
X0115398Y0143290D01*
X0122998Y0143290D01*
X0122998Y0112090D01*
X0105398Y0112090D01*
X0105398Y0118090D02*
X0101598Y0118090D01*
X0101598Y0119290D01*
X0105398Y0119290D01*
X0105398Y0118090D01*
X0105398Y0120690D02*
X0101598Y0120690D01*
X0101598Y0121890D01*
X0105398Y0121890D01*
X0105398Y0120690D01*
X0105398Y0123290D02*
X0101598Y0123290D01*
X0101598Y0124490D01*
X0105398Y0124490D01*
X0105398Y0123290D01*
X0105398Y0125790D02*
X0101598Y0125790D01*
X0101598Y0126990D01*
X0105398Y0126990D01*
X0105398Y0125790D01*
X0105398Y0128390D02*
X0101598Y0128390D01*
X0101598Y0129590D01*
X0105398Y0129590D01*
X0105398Y0128390D01*
X0105398Y0130890D02*
X0101598Y0130890D01*
X0101598Y0132090D01*
X0105398Y0132090D01*
X0105398Y0130890D01*
X0105398Y0133490D02*
X0101598Y0133490D01*
X0101598Y0134690D01*
X0105398Y0134690D01*
X0105398Y0133490D01*
X0105398Y0136090D02*
X0101598Y0136090D01*
X0101598Y0137290D01*
X0105398Y0137290D01*
X0105398Y0136090D01*
X0105398Y0138590D02*
X0101598Y0138590D01*
X0101598Y0139790D01*
X0105398Y0139790D01*
X0105398Y0138590D01*
X0105398Y0141190D02*
X0101598Y0141190D01*
X0101598Y0142390D01*
X0105398Y0142390D01*
X0105398Y0141190D01*
X0112998Y0143290D02*
X0113000Y0143221D01*
X0113006Y0143153D01*
X0113016Y0143085D01*
X0113029Y0143018D01*
X0113047Y0142952D01*
X0113068Y0142887D01*
X0113093Y0142823D01*
X0113121Y0142761D01*
X0113153Y0142700D01*
X0113188Y0142641D01*
X0113227Y0142585D01*
X0113269Y0142530D01*
X0113314Y0142479D01*
X0113362Y0142429D01*
X0113412Y0142383D01*
X0113465Y0142340D01*
X0113521Y0142299D01*
X0113578Y0142262D01*
X0113638Y0142229D01*
X0113700Y0142198D01*
X0113763Y0142172D01*
X0113827Y0142149D01*
X0113893Y0142129D01*
X0113960Y0142114D01*
X0114027Y0142102D01*
X0114095Y0142094D01*
X0114164Y0142090D01*
X0114232Y0142090D01*
X0114301Y0142094D01*
X0114369Y0142102D01*
X0114436Y0142114D01*
X0114503Y0142129D01*
X0114569Y0142149D01*
X0114633Y0142172D01*
X0114696Y0142198D01*
X0114758Y0142229D01*
X0114818Y0142262D01*
X0114875Y0142299D01*
X0114931Y0142340D01*
X0114984Y0142383D01*
X0115034Y0142429D01*
X0115082Y0142479D01*
X0115127Y0142530D01*
X0115169Y0142585D01*
X0115208Y0142641D01*
X0115243Y0142700D01*
X0115275Y0142761D01*
X0115303Y0142823D01*
X0115328Y0142887D01*
X0115349Y0142952D01*
X0115367Y0143018D01*
X0115380Y0143085D01*
X0115390Y0143153D01*
X0115396Y0143221D01*
X0115398Y0143290D01*
X0122998Y0142390D02*
X0126798Y0142390D01*
X0126798Y0141190D01*
X0122998Y0141190D01*
X0122998Y0142390D01*
X0122998Y0139790D02*
X0126798Y0139790D01*
X0126798Y0138590D01*
X0122998Y0138590D01*
X0122998Y0139790D01*
X0122998Y0137290D02*
X0126798Y0137290D01*
X0126798Y0136090D01*
X0122998Y0136090D01*
X0122998Y0137290D01*
X0122998Y0134690D02*
X0126798Y0134690D01*
X0126798Y0133490D01*
X0122998Y0133490D01*
X0122998Y0134690D01*
X0122998Y0132090D02*
X0126798Y0132090D01*
X0126798Y0130890D01*
X0122998Y0130890D01*
X0122998Y0132090D01*
X0122998Y0129590D02*
X0126798Y0129590D01*
X0126798Y0128390D01*
X0122998Y0128390D01*
X0122998Y0129590D01*
X0122998Y0126990D02*
X0126798Y0126990D01*
X0126798Y0125790D01*
X0122998Y0125790D01*
X0122998Y0126990D01*
X0122998Y0124490D02*
X0126798Y0124490D01*
X0126798Y0123290D01*
X0122998Y0123290D01*
X0122998Y0124490D01*
X0122998Y0121890D02*
X0126798Y0121890D01*
X0126798Y0120690D01*
X0122998Y0120690D01*
X0122998Y0121890D01*
X0122998Y0119290D02*
X0126798Y0119290D01*
X0126798Y0118090D01*
X0122998Y0118090D01*
X0122998Y0119290D01*
X0122998Y0116790D02*
X0126798Y0116790D01*
X0126798Y0115590D01*
X0122998Y0115590D01*
X0122998Y0116790D01*
X0122998Y0114190D02*
X0126798Y0114190D01*
X0126798Y0112990D01*
X0122998Y0112990D01*
X0122998Y0114190D01*
X0145102Y0114190D02*
X0145102Y0112990D01*
X0148902Y0112990D01*
X0148902Y0114190D01*
X0145102Y0114190D01*
X0145102Y0115590D02*
X0148902Y0115590D01*
X0148902Y0116790D01*
X0145102Y0116790D01*
X0145102Y0115590D01*
X0148902Y0112090D02*
X0148902Y0143290D01*
X0156502Y0143290D01*
X0158902Y0143290D01*
X0166502Y0143290D01*
X0166502Y0112090D01*
X0148902Y0112090D01*
X0148902Y0118090D02*
X0145102Y0118090D01*
X0145102Y0119290D01*
X0148902Y0119290D01*
X0148902Y0118090D01*
X0148902Y0120690D02*
X0145102Y0120690D01*
X0145102Y0121890D01*
X0148902Y0121890D01*
X0148902Y0120690D01*
X0148902Y0123290D02*
X0145102Y0123290D01*
X0145102Y0124490D01*
X0148902Y0124490D01*
X0148902Y0123290D01*
X0148902Y0125790D02*
X0145102Y0125790D01*
X0145102Y0126990D01*
X0148902Y0126990D01*
X0148902Y0125790D01*
X0148902Y0128390D02*
X0145102Y0128390D01*
X0145102Y0129590D01*
X0148902Y0129590D01*
X0148902Y0128390D01*
X0148902Y0130890D02*
X0145102Y0130890D01*
X0145102Y0132090D01*
X0148902Y0132090D01*
X0148902Y0130890D01*
X0148902Y0133490D02*
X0145102Y0133490D01*
X0145102Y0134690D01*
X0148902Y0134690D01*
X0148902Y0133490D01*
X0148902Y0136090D02*
X0145102Y0136090D01*
X0145102Y0137290D01*
X0148902Y0137290D01*
X0148902Y0136090D01*
X0148902Y0138590D02*
X0145102Y0138590D01*
X0145102Y0139790D01*
X0148902Y0139790D01*
X0148902Y0138590D01*
X0148902Y0141190D02*
X0145102Y0141190D01*
X0145102Y0142390D01*
X0148902Y0142390D01*
X0148902Y0141190D01*
X0156502Y0143290D02*
X0156504Y0143221D01*
X0156510Y0143153D01*
X0156520Y0143085D01*
X0156533Y0143018D01*
X0156551Y0142952D01*
X0156572Y0142887D01*
X0156597Y0142823D01*
X0156625Y0142761D01*
X0156657Y0142700D01*
X0156692Y0142641D01*
X0156731Y0142585D01*
X0156773Y0142530D01*
X0156818Y0142479D01*
X0156866Y0142429D01*
X0156916Y0142383D01*
X0156969Y0142340D01*
X0157025Y0142299D01*
X0157082Y0142262D01*
X0157142Y0142229D01*
X0157204Y0142198D01*
X0157267Y0142172D01*
X0157331Y0142149D01*
X0157397Y0142129D01*
X0157464Y0142114D01*
X0157531Y0142102D01*
X0157599Y0142094D01*
X0157668Y0142090D01*
X0157736Y0142090D01*
X0157805Y0142094D01*
X0157873Y0142102D01*
X0157940Y0142114D01*
X0158007Y0142129D01*
X0158073Y0142149D01*
X0158137Y0142172D01*
X0158200Y0142198D01*
X0158262Y0142229D01*
X0158322Y0142262D01*
X0158379Y0142299D01*
X0158435Y0142340D01*
X0158488Y0142383D01*
X0158538Y0142429D01*
X0158586Y0142479D01*
X0158631Y0142530D01*
X0158673Y0142585D01*
X0158712Y0142641D01*
X0158747Y0142700D01*
X0158779Y0142761D01*
X0158807Y0142823D01*
X0158832Y0142887D01*
X0158853Y0142952D01*
X0158871Y0143018D01*
X0158884Y0143085D01*
X0158894Y0143153D01*
X0158900Y0143221D01*
X0158902Y0143290D01*
X0166502Y0142390D02*
X0170302Y0142390D01*
X0170302Y0141190D01*
X0166502Y0141190D01*
X0166502Y0142390D01*
X0166502Y0139790D02*
X0170302Y0139790D01*
X0170302Y0138590D01*
X0166502Y0138590D01*
X0166502Y0139790D01*
X0166502Y0137290D02*
X0170302Y0137290D01*
X0170302Y0136090D01*
X0166502Y0136090D01*
X0166502Y0137290D01*
X0166502Y0134690D02*
X0170302Y0134690D01*
X0170302Y0133490D01*
X0166502Y0133490D01*
X0166502Y0134690D01*
X0166502Y0132090D02*
X0170302Y0132090D01*
X0170302Y0130890D01*
X0166502Y0130890D01*
X0166502Y0132090D01*
X0166502Y0129590D02*
X0170302Y0129590D01*
X0170302Y0128390D01*
X0166502Y0128390D01*
X0166502Y0129590D01*
X0166502Y0126990D02*
X0170302Y0126990D01*
X0170302Y0125790D01*
X0166502Y0125790D01*
X0166502Y0126990D01*
X0166502Y0124490D02*
X0170302Y0124490D01*
X0170302Y0123290D01*
X0166502Y0123290D01*
X0166502Y0124490D01*
X0166502Y0121890D02*
X0170302Y0121890D01*
X0170302Y0120690D01*
X0166502Y0120690D01*
X0166502Y0121890D01*
X0166502Y0119290D02*
X0170302Y0119290D01*
X0170302Y0118090D01*
X0166502Y0118090D01*
X0166502Y0119290D01*
X0166502Y0116790D02*
X0170302Y0116790D01*
X0170302Y0115590D01*
X0166502Y0115590D01*
X0166502Y0116790D01*
X0166502Y0114190D02*
X0170302Y0114190D01*
X0170302Y0112990D01*
X0166502Y0112990D01*
X0166502Y0114190D01*
X0188606Y0114190D02*
X0188606Y0112990D01*
X0192406Y0112990D01*
X0192406Y0114190D01*
X0188606Y0114190D01*
X0188606Y0115590D02*
X0192406Y0115590D01*
X0192406Y0116790D01*
X0188606Y0116790D01*
X0188606Y0115590D01*
X0188606Y0118090D02*
X0192406Y0118090D01*
X0192406Y0119290D01*
X0188606Y0119290D01*
X0188606Y0118090D01*
X0188606Y0120690D02*
X0192406Y0120690D01*
X0192406Y0121890D01*
X0188606Y0121890D01*
X0188606Y0120690D01*
X0188606Y0123290D02*
X0192406Y0123290D01*
X0192406Y0124490D01*
X0188606Y0124490D01*
X0188606Y0123290D01*
X0188606Y0125790D02*
X0192406Y0125790D01*
X0192406Y0126990D01*
X0188606Y0126990D01*
X0188606Y0125790D01*
X0188606Y0128390D02*
X0192406Y0128390D01*
X0192406Y0129590D01*
X0188606Y0129590D01*
X0188606Y0128390D01*
X0188606Y0130890D02*
X0192406Y0130890D01*
X0192406Y0132090D01*
X0188606Y0132090D01*
X0188606Y0130890D01*
X0188606Y0133490D02*
X0192406Y0133490D01*
X0192406Y0134690D01*
X0188606Y0134690D01*
X0188606Y0133490D01*
X0188606Y0136090D02*
X0192406Y0136090D01*
X0192406Y0137290D01*
X0188606Y0137290D01*
X0188606Y0136090D01*
X0188606Y0138590D02*
X0192406Y0138590D01*
X0192406Y0139790D01*
X0188606Y0139790D01*
X0188606Y0138590D01*
X0188606Y0141190D02*
X0192406Y0141190D01*
X0192406Y0142390D01*
X0188606Y0142390D01*
X0188606Y0141190D01*
X0192406Y0143290D02*
X0192406Y0112090D01*
X0210006Y0112090D01*
X0210006Y0143290D01*
X0202406Y0143290D01*
X0200006Y0143290D01*
X0192406Y0143290D01*
X0200006Y0143290D02*
X0200008Y0143221D01*
X0200014Y0143153D01*
X0200024Y0143085D01*
X0200037Y0143018D01*
X0200055Y0142952D01*
X0200076Y0142887D01*
X0200101Y0142823D01*
X0200129Y0142761D01*
X0200161Y0142700D01*
X0200196Y0142641D01*
X0200235Y0142585D01*
X0200277Y0142530D01*
X0200322Y0142479D01*
X0200370Y0142429D01*
X0200420Y0142383D01*
X0200473Y0142340D01*
X0200529Y0142299D01*
X0200586Y0142262D01*
X0200646Y0142229D01*
X0200708Y0142198D01*
X0200771Y0142172D01*
X0200835Y0142149D01*
X0200901Y0142129D01*
X0200968Y0142114D01*
X0201035Y0142102D01*
X0201103Y0142094D01*
X0201172Y0142090D01*
X0201240Y0142090D01*
X0201309Y0142094D01*
X0201377Y0142102D01*
X0201444Y0142114D01*
X0201511Y0142129D01*
X0201577Y0142149D01*
X0201641Y0142172D01*
X0201704Y0142198D01*
X0201766Y0142229D01*
X0201826Y0142262D01*
X0201883Y0142299D01*
X0201939Y0142340D01*
X0201992Y0142383D01*
X0202042Y0142429D01*
X0202090Y0142479D01*
X0202135Y0142530D01*
X0202177Y0142585D01*
X0202216Y0142641D01*
X0202251Y0142700D01*
X0202283Y0142761D01*
X0202311Y0142823D01*
X0202336Y0142887D01*
X0202357Y0142952D01*
X0202375Y0143018D01*
X0202388Y0143085D01*
X0202398Y0143153D01*
X0202404Y0143221D01*
X0202406Y0143290D01*
X0210006Y0142390D02*
X0213806Y0142390D01*
X0213806Y0141190D01*
X0210006Y0141190D01*
X0210006Y0142390D01*
X0210006Y0139790D02*
X0213806Y0139790D01*
X0213806Y0138590D01*
X0210006Y0138590D01*
X0210006Y0139790D01*
X0210006Y0137290D02*
X0213806Y0137290D01*
X0213806Y0136090D01*
X0210006Y0136090D01*
X0210006Y0137290D01*
X0210006Y0134690D02*
X0213806Y0134690D01*
X0213806Y0133490D01*
X0210006Y0133490D01*
X0210006Y0134690D01*
X0210006Y0132090D02*
X0213806Y0132090D01*
X0213806Y0130890D01*
X0210006Y0130890D01*
X0210006Y0132090D01*
X0210006Y0129590D02*
X0213806Y0129590D01*
X0213806Y0128390D01*
X0210006Y0128390D01*
X0210006Y0129590D01*
X0210006Y0126990D02*
X0213806Y0126990D01*
X0213806Y0125790D01*
X0210006Y0125790D01*
X0210006Y0126990D01*
X0210006Y0124490D02*
X0213806Y0124490D01*
X0213806Y0123290D01*
X0210006Y0123290D01*
X0210006Y0124490D01*
X0210006Y0121890D02*
X0213806Y0121890D01*
X0213806Y0120690D01*
X0210006Y0120690D01*
X0210006Y0121890D01*
X0210006Y0119290D02*
X0213806Y0119290D01*
X0213806Y0118090D01*
X0210006Y0118090D01*
X0210006Y0119290D01*
X0210006Y0116790D02*
X0213806Y0116790D01*
X0213806Y0115590D01*
X0210006Y0115590D01*
X0210006Y0116790D01*
X0210006Y0114190D02*
X0213806Y0114190D01*
X0213806Y0112990D01*
X0210006Y0112990D01*
X0210006Y0114190D01*
X0186883Y0159576D02*
X0180883Y0159576D01*
X0180823Y0159578D01*
X0180762Y0159583D01*
X0180703Y0159592D01*
X0180644Y0159605D01*
X0180585Y0159621D01*
X0180528Y0159641D01*
X0180473Y0159664D01*
X0180418Y0159691D01*
X0180366Y0159720D01*
X0180315Y0159753D01*
X0180266Y0159789D01*
X0180220Y0159827D01*
X0180176Y0159869D01*
X0180134Y0159913D01*
X0180096Y0159959D01*
X0180060Y0160008D01*
X0180027Y0160059D01*
X0179998Y0160111D01*
X0179971Y0160166D01*
X0179948Y0160221D01*
X0179928Y0160278D01*
X0179912Y0160337D01*
X0179899Y0160396D01*
X0179890Y0160455D01*
X0179885Y0160516D01*
X0179883Y0160576D01*
X0179883Y0171576D01*
X0179885Y0171636D01*
X0179890Y0171697D01*
X0179899Y0171756D01*
X0179912Y0171815D01*
X0179928Y0171874D01*
X0179948Y0171931D01*
X0179971Y0171986D01*
X0179998Y0172041D01*
X0180027Y0172093D01*
X0180060Y0172144D01*
X0180096Y0172193D01*
X0180134Y0172239D01*
X0180176Y0172283D01*
X0180220Y0172325D01*
X0180266Y0172363D01*
X0180315Y0172399D01*
X0180366Y0172432D01*
X0180418Y0172461D01*
X0180473Y0172488D01*
X0180528Y0172511D01*
X0180585Y0172531D01*
X0180644Y0172547D01*
X0180703Y0172560D01*
X0180762Y0172569D01*
X0180823Y0172574D01*
X0180883Y0172576D01*
X0186883Y0172576D01*
X0186943Y0172574D01*
X0187004Y0172569D01*
X0187063Y0172560D01*
X0187122Y0172547D01*
X0187181Y0172531D01*
X0187238Y0172511D01*
X0187293Y0172488D01*
X0187348Y0172461D01*
X0187400Y0172432D01*
X0187451Y0172399D01*
X0187500Y0172363D01*
X0187546Y0172325D01*
X0187590Y0172283D01*
X0187632Y0172239D01*
X0187670Y0172193D01*
X0187706Y0172144D01*
X0187739Y0172093D01*
X0187768Y0172041D01*
X0187795Y0171986D01*
X0187818Y0171931D01*
X0187838Y0171874D01*
X0187854Y0171815D01*
X0187867Y0171756D01*
X0187876Y0171697D01*
X0187881Y0171636D01*
X0187883Y0171576D01*
X0187883Y0160576D01*
X0187881Y0160516D01*
X0187876Y0160455D01*
X0187867Y0160396D01*
X0187854Y0160337D01*
X0187838Y0160278D01*
X0187818Y0160221D01*
X0187795Y0160166D01*
X0187768Y0160111D01*
X0187739Y0160059D01*
X0187706Y0160008D01*
X0187670Y0159959D01*
X0187632Y0159913D01*
X0187590Y0159869D01*
X0187546Y0159827D01*
X0187500Y0159789D01*
X0187451Y0159753D01*
X0187400Y0159720D01*
X0187348Y0159691D01*
X0187293Y0159664D01*
X0187238Y0159641D01*
X0187181Y0159621D01*
X0187122Y0159605D01*
X0187063Y0159592D01*
X0187004Y0159583D01*
X0186943Y0159578D01*
X0186883Y0159576D01*
X0172135Y0160576D02*
X0172135Y0171576D01*
X0172133Y0171636D01*
X0172128Y0171697D01*
X0172119Y0171756D01*
X0172106Y0171815D01*
X0172090Y0171874D01*
X0172070Y0171931D01*
X0172047Y0171986D01*
X0172020Y0172041D01*
X0171991Y0172093D01*
X0171958Y0172144D01*
X0171922Y0172193D01*
X0171884Y0172239D01*
X0171842Y0172283D01*
X0171798Y0172325D01*
X0171752Y0172363D01*
X0171703Y0172399D01*
X0171652Y0172432D01*
X0171600Y0172461D01*
X0171545Y0172488D01*
X0171490Y0172511D01*
X0171433Y0172531D01*
X0171374Y0172547D01*
X0171315Y0172560D01*
X0171256Y0172569D01*
X0171195Y0172574D01*
X0171135Y0172576D01*
X0165135Y0172576D01*
X0165075Y0172574D01*
X0165014Y0172569D01*
X0164955Y0172560D01*
X0164896Y0172547D01*
X0164837Y0172531D01*
X0164780Y0172511D01*
X0164725Y0172488D01*
X0164670Y0172461D01*
X0164618Y0172432D01*
X0164567Y0172399D01*
X0164518Y0172363D01*
X0164472Y0172325D01*
X0164428Y0172283D01*
X0164386Y0172239D01*
X0164348Y0172193D01*
X0164312Y0172144D01*
X0164279Y0172093D01*
X0164250Y0172041D01*
X0164223Y0171986D01*
X0164200Y0171931D01*
X0164180Y0171874D01*
X0164164Y0171815D01*
X0164151Y0171756D01*
X0164142Y0171697D01*
X0164137Y0171636D01*
X0164135Y0171576D01*
X0164135Y0160576D01*
X0164137Y0160516D01*
X0164142Y0160455D01*
X0164151Y0160396D01*
X0164164Y0160337D01*
X0164180Y0160278D01*
X0164200Y0160221D01*
X0164223Y0160166D01*
X0164250Y0160111D01*
X0164279Y0160059D01*
X0164312Y0160008D01*
X0164348Y0159959D01*
X0164386Y0159913D01*
X0164428Y0159869D01*
X0164472Y0159827D01*
X0164518Y0159789D01*
X0164567Y0159753D01*
X0164618Y0159720D01*
X0164670Y0159691D01*
X0164725Y0159664D01*
X0164780Y0159641D01*
X0164837Y0159621D01*
X0164896Y0159605D01*
X0164955Y0159592D01*
X0165014Y0159583D01*
X0165075Y0159578D01*
X0165135Y0159576D01*
X0171135Y0159576D01*
X0171195Y0159578D01*
X0171256Y0159583D01*
X0171315Y0159592D01*
X0171374Y0159605D01*
X0171433Y0159621D01*
X0171490Y0159641D01*
X0171545Y0159664D01*
X0171600Y0159691D01*
X0171652Y0159720D01*
X0171703Y0159753D01*
X0171752Y0159789D01*
X0171798Y0159827D01*
X0171842Y0159869D01*
X0171884Y0159913D01*
X0171922Y0159959D01*
X0171958Y0160008D01*
X0171991Y0160059D01*
X0172020Y0160111D01*
X0172047Y0160166D01*
X0172070Y0160221D01*
X0172090Y0160278D01*
X0172106Y0160337D01*
X0172119Y0160396D01*
X0172128Y0160455D01*
X0172133Y0160516D01*
X0172135Y0160576D01*
X0157175Y0160576D02*
X0157175Y0171576D01*
X0157173Y0171636D01*
X0157168Y0171697D01*
X0157159Y0171756D01*
X0157146Y0171815D01*
X0157130Y0171874D01*
X0157110Y0171931D01*
X0157087Y0171986D01*
X0157060Y0172041D01*
X0157031Y0172093D01*
X0156998Y0172144D01*
X0156962Y0172193D01*
X0156924Y0172239D01*
X0156882Y0172283D01*
X0156838Y0172325D01*
X0156792Y0172363D01*
X0156743Y0172399D01*
X0156692Y0172432D01*
X0156640Y0172461D01*
X0156585Y0172488D01*
X0156530Y0172511D01*
X0156473Y0172531D01*
X0156414Y0172547D01*
X0156355Y0172560D01*
X0156296Y0172569D01*
X0156235Y0172574D01*
X0156175Y0172576D01*
X0150175Y0172576D01*
X0150115Y0172574D01*
X0150054Y0172569D01*
X0149995Y0172560D01*
X0149936Y0172547D01*
X0149877Y0172531D01*
X0149820Y0172511D01*
X0149765Y0172488D01*
X0149710Y0172461D01*
X0149658Y0172432D01*
X0149607Y0172399D01*
X0149558Y0172363D01*
X0149512Y0172325D01*
X0149468Y0172283D01*
X0149426Y0172239D01*
X0149388Y0172193D01*
X0149352Y0172144D01*
X0149319Y0172093D01*
X0149290Y0172041D01*
X0149263Y0171986D01*
X0149240Y0171931D01*
X0149220Y0171874D01*
X0149204Y0171815D01*
X0149191Y0171756D01*
X0149182Y0171697D01*
X0149177Y0171636D01*
X0149175Y0171576D01*
X0149175Y0160576D01*
X0149177Y0160516D01*
X0149182Y0160455D01*
X0149191Y0160396D01*
X0149204Y0160337D01*
X0149220Y0160278D01*
X0149240Y0160221D01*
X0149263Y0160166D01*
X0149290Y0160111D01*
X0149319Y0160059D01*
X0149352Y0160008D01*
X0149388Y0159959D01*
X0149426Y0159913D01*
X0149468Y0159869D01*
X0149512Y0159827D01*
X0149558Y0159789D01*
X0149607Y0159753D01*
X0149658Y0159720D01*
X0149710Y0159691D01*
X0149765Y0159664D01*
X0149820Y0159641D01*
X0149877Y0159621D01*
X0149936Y0159605D01*
X0149995Y0159592D01*
X0150054Y0159583D01*
X0150115Y0159578D01*
X0150175Y0159576D01*
X0156175Y0159576D01*
X0156235Y0159578D01*
X0156296Y0159583D01*
X0156355Y0159592D01*
X0156414Y0159605D01*
X0156473Y0159621D01*
X0156530Y0159641D01*
X0156585Y0159664D01*
X0156640Y0159691D01*
X0156692Y0159720D01*
X0156743Y0159753D01*
X0156792Y0159789D01*
X0156838Y0159827D01*
X0156882Y0159869D01*
X0156924Y0159913D01*
X0156962Y0159959D01*
X0156998Y0160008D01*
X0157031Y0160059D01*
X0157060Y0160111D01*
X0157087Y0160166D01*
X0157110Y0160221D01*
X0157130Y0160278D01*
X0157146Y0160337D01*
X0157159Y0160396D01*
X0157168Y0160455D01*
X0157173Y0160516D01*
X0157175Y0160576D01*
X0140639Y0160576D02*
X0140639Y0171576D01*
X0140637Y0171636D01*
X0140632Y0171697D01*
X0140623Y0171756D01*
X0140610Y0171815D01*
X0140594Y0171874D01*
X0140574Y0171931D01*
X0140551Y0171986D01*
X0140524Y0172041D01*
X0140495Y0172093D01*
X0140462Y0172144D01*
X0140426Y0172193D01*
X0140388Y0172239D01*
X0140346Y0172283D01*
X0140302Y0172325D01*
X0140256Y0172363D01*
X0140207Y0172399D01*
X0140156Y0172432D01*
X0140104Y0172461D01*
X0140049Y0172488D01*
X0139994Y0172511D01*
X0139937Y0172531D01*
X0139878Y0172547D01*
X0139819Y0172560D01*
X0139760Y0172569D01*
X0139699Y0172574D01*
X0139639Y0172576D01*
X0133639Y0172576D01*
X0133579Y0172574D01*
X0133518Y0172569D01*
X0133459Y0172560D01*
X0133400Y0172547D01*
X0133341Y0172531D01*
X0133284Y0172511D01*
X0133229Y0172488D01*
X0133174Y0172461D01*
X0133122Y0172432D01*
X0133071Y0172399D01*
X0133022Y0172363D01*
X0132976Y0172325D01*
X0132932Y0172283D01*
X0132890Y0172239D01*
X0132852Y0172193D01*
X0132816Y0172144D01*
X0132783Y0172093D01*
X0132754Y0172041D01*
X0132727Y0171986D01*
X0132704Y0171931D01*
X0132684Y0171874D01*
X0132668Y0171815D01*
X0132655Y0171756D01*
X0132646Y0171697D01*
X0132641Y0171636D01*
X0132639Y0171576D01*
X0132639Y0160576D01*
X0132641Y0160516D01*
X0132646Y0160455D01*
X0132655Y0160396D01*
X0132668Y0160337D01*
X0132684Y0160278D01*
X0132704Y0160221D01*
X0132727Y0160166D01*
X0132754Y0160111D01*
X0132783Y0160059D01*
X0132816Y0160008D01*
X0132852Y0159959D01*
X0132890Y0159913D01*
X0132932Y0159869D01*
X0132976Y0159827D01*
X0133022Y0159789D01*
X0133071Y0159753D01*
X0133122Y0159720D01*
X0133174Y0159691D01*
X0133229Y0159664D01*
X0133284Y0159641D01*
X0133341Y0159621D01*
X0133400Y0159605D01*
X0133459Y0159592D01*
X0133518Y0159583D01*
X0133579Y0159578D01*
X0133639Y0159576D01*
X0139639Y0159576D01*
X0139699Y0159578D01*
X0139760Y0159583D01*
X0139819Y0159592D01*
X0139878Y0159605D01*
X0139937Y0159621D01*
X0139994Y0159641D01*
X0140049Y0159664D01*
X0140104Y0159691D01*
X0140156Y0159720D01*
X0140207Y0159753D01*
X0140256Y0159789D01*
X0140302Y0159827D01*
X0140346Y0159869D01*
X0140388Y0159913D01*
X0140426Y0159959D01*
X0140462Y0160008D01*
X0140495Y0160059D01*
X0140524Y0160111D01*
X0140551Y0160166D01*
X0140574Y0160221D01*
X0140594Y0160278D01*
X0140610Y0160337D01*
X0140623Y0160396D01*
X0140632Y0160455D01*
X0140637Y0160516D01*
X0140639Y0160576D01*
X0159820Y0205639D02*
X0165820Y0205639D01*
X0165880Y0205641D01*
X0165941Y0205646D01*
X0166000Y0205655D01*
X0166059Y0205668D01*
X0166118Y0205684D01*
X0166175Y0205704D01*
X0166230Y0205727D01*
X0166285Y0205754D01*
X0166337Y0205783D01*
X0166388Y0205816D01*
X0166437Y0205852D01*
X0166483Y0205890D01*
X0166527Y0205932D01*
X0166569Y0205976D01*
X0166607Y0206022D01*
X0166643Y0206071D01*
X0166676Y0206122D01*
X0166705Y0206174D01*
X0166732Y0206229D01*
X0166755Y0206284D01*
X0166775Y0206341D01*
X0166791Y0206400D01*
X0166804Y0206459D01*
X0166813Y0206518D01*
X0166818Y0206579D01*
X0166820Y0206639D01*
X0166820Y0217639D01*
X0166818Y0217699D01*
X0166813Y0217760D01*
X0166804Y0217819D01*
X0166791Y0217878D01*
X0166775Y0217937D01*
X0166755Y0217994D01*
X0166732Y0218049D01*
X0166705Y0218104D01*
X0166676Y0218156D01*
X0166643Y0218207D01*
X0166607Y0218256D01*
X0166569Y0218302D01*
X0166527Y0218346D01*
X0166483Y0218388D01*
X0166437Y0218426D01*
X0166388Y0218462D01*
X0166337Y0218495D01*
X0166285Y0218524D01*
X0166230Y0218551D01*
X0166175Y0218574D01*
X0166118Y0218594D01*
X0166059Y0218610D01*
X0166000Y0218623D01*
X0165941Y0218632D01*
X0165880Y0218637D01*
X0165820Y0218639D01*
X0159820Y0218639D01*
X0159760Y0218637D01*
X0159699Y0218632D01*
X0159640Y0218623D01*
X0159581Y0218610D01*
X0159522Y0218594D01*
X0159465Y0218574D01*
X0159410Y0218551D01*
X0159355Y0218524D01*
X0159303Y0218495D01*
X0159252Y0218462D01*
X0159203Y0218426D01*
X0159157Y0218388D01*
X0159113Y0218346D01*
X0159071Y0218302D01*
X0159033Y0218256D01*
X0158997Y0218207D01*
X0158964Y0218156D01*
X0158935Y0218104D01*
X0158908Y0218049D01*
X0158885Y0217994D01*
X0158865Y0217937D01*
X0158849Y0217878D01*
X0158836Y0217819D01*
X0158827Y0217760D01*
X0158822Y0217699D01*
X0158820Y0217639D01*
X0158820Y0206639D01*
X0158822Y0206579D01*
X0158827Y0206518D01*
X0158836Y0206459D01*
X0158849Y0206400D01*
X0158865Y0206341D01*
X0158885Y0206284D01*
X0158908Y0206229D01*
X0158935Y0206174D01*
X0158964Y0206122D01*
X0158997Y0206071D01*
X0159033Y0206022D01*
X0159071Y0205976D01*
X0159113Y0205932D01*
X0159157Y0205890D01*
X0159203Y0205852D01*
X0159252Y0205816D01*
X0159303Y0205783D01*
X0159355Y0205754D01*
X0159410Y0205727D01*
X0159465Y0205704D01*
X0159522Y0205684D01*
X0159581Y0205668D01*
X0159640Y0205655D01*
X0159699Y0205646D01*
X0159760Y0205641D01*
X0159820Y0205639D01*
X0174175Y0206639D02*
X0174175Y0217639D01*
X0174177Y0217699D01*
X0174182Y0217760D01*
X0174191Y0217819D01*
X0174204Y0217878D01*
X0174220Y0217937D01*
X0174240Y0217994D01*
X0174263Y0218049D01*
X0174290Y0218104D01*
X0174319Y0218156D01*
X0174352Y0218207D01*
X0174388Y0218256D01*
X0174426Y0218302D01*
X0174468Y0218346D01*
X0174512Y0218388D01*
X0174558Y0218426D01*
X0174607Y0218462D01*
X0174658Y0218495D01*
X0174710Y0218524D01*
X0174765Y0218551D01*
X0174820Y0218574D01*
X0174877Y0218594D01*
X0174936Y0218610D01*
X0174995Y0218623D01*
X0175054Y0218632D01*
X0175115Y0218637D01*
X0175175Y0218639D01*
X0181175Y0218639D01*
X0181235Y0218637D01*
X0181296Y0218632D01*
X0181355Y0218623D01*
X0181414Y0218610D01*
X0181473Y0218594D01*
X0181530Y0218574D01*
X0181585Y0218551D01*
X0181640Y0218524D01*
X0181692Y0218495D01*
X0181743Y0218462D01*
X0181792Y0218426D01*
X0181838Y0218388D01*
X0181882Y0218346D01*
X0181924Y0218302D01*
X0181962Y0218256D01*
X0181998Y0218207D01*
X0182031Y0218156D01*
X0182060Y0218104D01*
X0182087Y0218049D01*
X0182110Y0217994D01*
X0182130Y0217937D01*
X0182146Y0217878D01*
X0182159Y0217819D01*
X0182168Y0217760D01*
X0182173Y0217699D01*
X0182175Y0217639D01*
X0182175Y0206639D01*
X0182173Y0206579D01*
X0182168Y0206518D01*
X0182159Y0206459D01*
X0182146Y0206400D01*
X0182130Y0206341D01*
X0182110Y0206284D01*
X0182087Y0206229D01*
X0182060Y0206174D01*
X0182031Y0206122D01*
X0181998Y0206071D01*
X0181962Y0206022D01*
X0181924Y0205976D01*
X0181882Y0205932D01*
X0181838Y0205890D01*
X0181792Y0205852D01*
X0181743Y0205816D01*
X0181692Y0205783D01*
X0181640Y0205754D01*
X0181585Y0205727D01*
X0181530Y0205704D01*
X0181473Y0205684D01*
X0181414Y0205668D01*
X0181355Y0205655D01*
X0181296Y0205646D01*
X0181235Y0205641D01*
X0181175Y0205639D01*
X0175175Y0205639D01*
X0175115Y0205641D01*
X0175054Y0205646D01*
X0174995Y0205655D01*
X0174936Y0205668D01*
X0174877Y0205684D01*
X0174820Y0205704D01*
X0174765Y0205727D01*
X0174710Y0205754D01*
X0174658Y0205783D01*
X0174607Y0205816D01*
X0174558Y0205852D01*
X0174512Y0205890D01*
X0174468Y0205932D01*
X0174426Y0205976D01*
X0174388Y0206022D01*
X0174352Y0206071D01*
X0174319Y0206122D01*
X0174290Y0206174D01*
X0174263Y0206229D01*
X0174240Y0206284D01*
X0174220Y0206341D01*
X0174204Y0206400D01*
X0174191Y0206459D01*
X0174182Y0206518D01*
X0174177Y0206579D01*
X0174175Y0206639D01*
X0189529Y0206639D02*
X0189529Y0217639D01*
X0189531Y0217699D01*
X0189536Y0217760D01*
X0189545Y0217819D01*
X0189558Y0217878D01*
X0189574Y0217937D01*
X0189594Y0217994D01*
X0189617Y0218049D01*
X0189644Y0218104D01*
X0189673Y0218156D01*
X0189706Y0218207D01*
X0189742Y0218256D01*
X0189780Y0218302D01*
X0189822Y0218346D01*
X0189866Y0218388D01*
X0189912Y0218426D01*
X0189961Y0218462D01*
X0190012Y0218495D01*
X0190064Y0218524D01*
X0190119Y0218551D01*
X0190174Y0218574D01*
X0190231Y0218594D01*
X0190290Y0218610D01*
X0190349Y0218623D01*
X0190408Y0218632D01*
X0190469Y0218637D01*
X0190529Y0218639D01*
X0196529Y0218639D01*
X0196589Y0218637D01*
X0196650Y0218632D01*
X0196709Y0218623D01*
X0196768Y0218610D01*
X0196827Y0218594D01*
X0196884Y0218574D01*
X0196939Y0218551D01*
X0196994Y0218524D01*
X0197046Y0218495D01*
X0197097Y0218462D01*
X0197146Y0218426D01*
X0197192Y0218388D01*
X0197236Y0218346D01*
X0197278Y0218302D01*
X0197316Y0218256D01*
X0197352Y0218207D01*
X0197385Y0218156D01*
X0197414Y0218104D01*
X0197441Y0218049D01*
X0197464Y0217994D01*
X0197484Y0217937D01*
X0197500Y0217878D01*
X0197513Y0217819D01*
X0197522Y0217760D01*
X0197527Y0217699D01*
X0197529Y0217639D01*
X0197529Y0206639D01*
X0197527Y0206579D01*
X0197522Y0206518D01*
X0197513Y0206459D01*
X0197500Y0206400D01*
X0197484Y0206341D01*
X0197464Y0206284D01*
X0197441Y0206229D01*
X0197414Y0206174D01*
X0197385Y0206122D01*
X0197352Y0206071D01*
X0197316Y0206022D01*
X0197278Y0205976D01*
X0197236Y0205932D01*
X0197192Y0205890D01*
X0197146Y0205852D01*
X0197097Y0205816D01*
X0197046Y0205783D01*
X0196994Y0205754D01*
X0196939Y0205727D01*
X0196884Y0205704D01*
X0196827Y0205684D01*
X0196768Y0205668D01*
X0196709Y0205655D01*
X0196650Y0205646D01*
X0196589Y0205641D01*
X0196529Y0205639D01*
X0190529Y0205639D01*
X0190469Y0205641D01*
X0190408Y0205646D01*
X0190349Y0205655D01*
X0190290Y0205668D01*
X0190231Y0205684D01*
X0190174Y0205704D01*
X0190119Y0205727D01*
X0190064Y0205754D01*
X0190012Y0205783D01*
X0189961Y0205816D01*
X0189912Y0205852D01*
X0189866Y0205890D01*
X0189822Y0205932D01*
X0189780Y0205976D01*
X0189742Y0206022D01*
X0189706Y0206071D01*
X0189673Y0206122D01*
X0189644Y0206174D01*
X0189617Y0206229D01*
X0189594Y0206284D01*
X0189574Y0206341D01*
X0189558Y0206400D01*
X0189545Y0206459D01*
X0189536Y0206518D01*
X0189531Y0206579D01*
X0189529Y0206639D01*
X0204883Y0206639D02*
X0204883Y0217639D01*
X0204885Y0217699D01*
X0204890Y0217760D01*
X0204899Y0217819D01*
X0204912Y0217878D01*
X0204928Y0217937D01*
X0204948Y0217994D01*
X0204971Y0218049D01*
X0204998Y0218104D01*
X0205027Y0218156D01*
X0205060Y0218207D01*
X0205096Y0218256D01*
X0205134Y0218302D01*
X0205176Y0218346D01*
X0205220Y0218388D01*
X0205266Y0218426D01*
X0205315Y0218462D01*
X0205366Y0218495D01*
X0205418Y0218524D01*
X0205473Y0218551D01*
X0205528Y0218574D01*
X0205585Y0218594D01*
X0205644Y0218610D01*
X0205703Y0218623D01*
X0205762Y0218632D01*
X0205823Y0218637D01*
X0205883Y0218639D01*
X0211883Y0218639D01*
X0211943Y0218637D01*
X0212004Y0218632D01*
X0212063Y0218623D01*
X0212122Y0218610D01*
X0212181Y0218594D01*
X0212238Y0218574D01*
X0212293Y0218551D01*
X0212348Y0218524D01*
X0212400Y0218495D01*
X0212451Y0218462D01*
X0212500Y0218426D01*
X0212546Y0218388D01*
X0212590Y0218346D01*
X0212632Y0218302D01*
X0212670Y0218256D01*
X0212706Y0218207D01*
X0212739Y0218156D01*
X0212768Y0218104D01*
X0212795Y0218049D01*
X0212818Y0217994D01*
X0212838Y0217937D01*
X0212854Y0217878D01*
X0212867Y0217819D01*
X0212876Y0217760D01*
X0212881Y0217699D01*
X0212883Y0217639D01*
X0212883Y0206639D01*
X0212881Y0206579D01*
X0212876Y0206518D01*
X0212867Y0206459D01*
X0212854Y0206400D01*
X0212838Y0206341D01*
X0212818Y0206284D01*
X0212795Y0206229D01*
X0212768Y0206174D01*
X0212739Y0206122D01*
X0212706Y0206071D01*
X0212670Y0206022D01*
X0212632Y0205976D01*
X0212590Y0205932D01*
X0212546Y0205890D01*
X0212500Y0205852D01*
X0212451Y0205816D01*
X0212400Y0205783D01*
X0212348Y0205754D01*
X0212293Y0205727D01*
X0212238Y0205704D01*
X0212181Y0205684D01*
X0212122Y0205668D01*
X0212063Y0205655D01*
X0212004Y0205646D01*
X0211943Y0205641D01*
X0211883Y0205639D01*
X0205883Y0205639D01*
X0205823Y0205641D01*
X0205762Y0205646D01*
X0205703Y0205655D01*
X0205644Y0205668D01*
X0205585Y0205684D01*
X0205528Y0205704D01*
X0205473Y0205727D01*
X0205418Y0205754D01*
X0205366Y0205783D01*
X0205315Y0205816D01*
X0205266Y0205852D01*
X0205220Y0205890D01*
X0205176Y0205932D01*
X0205134Y0205976D01*
X0205096Y0206022D01*
X0205060Y0206071D01*
X0205027Y0206122D01*
X0204998Y0206174D01*
X0204971Y0206229D01*
X0204948Y0206284D01*
X0204928Y0206341D01*
X0204912Y0206400D01*
X0204899Y0206459D01*
X0204890Y0206518D01*
X0204885Y0206579D01*
X0204883Y0206639D01*
X0291009Y0204284D02*
X0291009Y0209284D01*
X0293509Y0211784D01*
X0308509Y0211784D01*
X0311009Y0209284D01*
X0311009Y0204284D01*
X0308509Y0201784D01*
X0311009Y0199284D01*
X0311009Y0194284D01*
X0308509Y0191784D01*
X0311009Y0189284D01*
X0311009Y0184284D01*
X0308509Y0181784D01*
X0293509Y0181784D01*
X0291009Y0184284D01*
X0291009Y0189284D01*
X0293509Y0191784D01*
X0291009Y0194284D01*
X0291009Y0199284D01*
X0293509Y0201784D01*
X0291009Y0204284D01*
X0079813Y0206639D02*
X0079813Y0217639D01*
X0079811Y0217699D01*
X0079806Y0217760D01*
X0079797Y0217819D01*
X0079784Y0217878D01*
X0079768Y0217937D01*
X0079748Y0217994D01*
X0079725Y0218049D01*
X0079698Y0218104D01*
X0079669Y0218156D01*
X0079636Y0218207D01*
X0079600Y0218256D01*
X0079562Y0218302D01*
X0079520Y0218346D01*
X0079476Y0218388D01*
X0079430Y0218426D01*
X0079381Y0218462D01*
X0079330Y0218495D01*
X0079278Y0218524D01*
X0079223Y0218551D01*
X0079168Y0218574D01*
X0079111Y0218594D01*
X0079052Y0218610D01*
X0078993Y0218623D01*
X0078934Y0218632D01*
X0078873Y0218637D01*
X0078813Y0218639D01*
X0072813Y0218639D01*
X0072753Y0218637D01*
X0072692Y0218632D01*
X0072633Y0218623D01*
X0072574Y0218610D01*
X0072515Y0218594D01*
X0072458Y0218574D01*
X0072403Y0218551D01*
X0072348Y0218524D01*
X0072296Y0218495D01*
X0072245Y0218462D01*
X0072196Y0218426D01*
X0072150Y0218388D01*
X0072106Y0218346D01*
X0072064Y0218302D01*
X0072026Y0218256D01*
X0071990Y0218207D01*
X0071957Y0218156D01*
X0071928Y0218104D01*
X0071901Y0218049D01*
X0071878Y0217994D01*
X0071858Y0217937D01*
X0071842Y0217878D01*
X0071829Y0217819D01*
X0071820Y0217760D01*
X0071815Y0217699D01*
X0071813Y0217639D01*
X0071813Y0206639D01*
X0071815Y0206579D01*
X0071820Y0206518D01*
X0071829Y0206459D01*
X0071842Y0206400D01*
X0071858Y0206341D01*
X0071878Y0206284D01*
X0071901Y0206229D01*
X0071928Y0206174D01*
X0071957Y0206122D01*
X0071990Y0206071D01*
X0072026Y0206022D01*
X0072064Y0205976D01*
X0072106Y0205932D01*
X0072150Y0205890D01*
X0072196Y0205852D01*
X0072245Y0205816D01*
X0072296Y0205783D01*
X0072348Y0205754D01*
X0072403Y0205727D01*
X0072458Y0205704D01*
X0072515Y0205684D01*
X0072574Y0205668D01*
X0072633Y0205655D01*
X0072692Y0205646D01*
X0072753Y0205641D01*
X0072813Y0205639D01*
X0078813Y0205639D01*
X0078873Y0205641D01*
X0078934Y0205646D01*
X0078993Y0205655D01*
X0079052Y0205668D01*
X0079111Y0205684D01*
X0079168Y0205704D01*
X0079223Y0205727D01*
X0079278Y0205754D01*
X0079330Y0205783D01*
X0079381Y0205816D01*
X0079430Y0205852D01*
X0079476Y0205890D01*
X0079520Y0205932D01*
X0079562Y0205976D01*
X0079600Y0206022D01*
X0079636Y0206071D01*
X0079669Y0206122D01*
X0079698Y0206174D01*
X0079725Y0206229D01*
X0079748Y0206284D01*
X0079768Y0206341D01*
X0079784Y0206400D01*
X0079797Y0206459D01*
X0079806Y0206518D01*
X0079811Y0206579D01*
X0079813Y0206639D01*
X0064458Y0206639D02*
X0064458Y0217639D01*
X0064456Y0217699D01*
X0064451Y0217760D01*
X0064442Y0217819D01*
X0064429Y0217878D01*
X0064413Y0217937D01*
X0064393Y0217994D01*
X0064370Y0218049D01*
X0064343Y0218104D01*
X0064314Y0218156D01*
X0064281Y0218207D01*
X0064245Y0218256D01*
X0064207Y0218302D01*
X0064165Y0218346D01*
X0064121Y0218388D01*
X0064075Y0218426D01*
X0064026Y0218462D01*
X0063975Y0218495D01*
X0063923Y0218524D01*
X0063868Y0218551D01*
X0063813Y0218574D01*
X0063756Y0218594D01*
X0063697Y0218610D01*
X0063638Y0218623D01*
X0063579Y0218632D01*
X0063518Y0218637D01*
X0063458Y0218639D01*
X0057458Y0218639D01*
X0057398Y0218637D01*
X0057337Y0218632D01*
X0057278Y0218623D01*
X0057219Y0218610D01*
X0057160Y0218594D01*
X0057103Y0218574D01*
X0057048Y0218551D01*
X0056993Y0218524D01*
X0056941Y0218495D01*
X0056890Y0218462D01*
X0056841Y0218426D01*
X0056795Y0218388D01*
X0056751Y0218346D01*
X0056709Y0218302D01*
X0056671Y0218256D01*
X0056635Y0218207D01*
X0056602Y0218156D01*
X0056573Y0218104D01*
X0056546Y0218049D01*
X0056523Y0217994D01*
X0056503Y0217937D01*
X0056487Y0217878D01*
X0056474Y0217819D01*
X0056465Y0217760D01*
X0056460Y0217699D01*
X0056458Y0217639D01*
X0056458Y0206639D01*
X0056460Y0206579D01*
X0056465Y0206518D01*
X0056474Y0206459D01*
X0056487Y0206400D01*
X0056503Y0206341D01*
X0056523Y0206284D01*
X0056546Y0206229D01*
X0056573Y0206174D01*
X0056602Y0206122D01*
X0056635Y0206071D01*
X0056671Y0206022D01*
X0056709Y0205976D01*
X0056751Y0205932D01*
X0056795Y0205890D01*
X0056841Y0205852D01*
X0056890Y0205816D01*
X0056941Y0205783D01*
X0056993Y0205754D01*
X0057048Y0205727D01*
X0057103Y0205704D01*
X0057160Y0205684D01*
X0057219Y0205668D01*
X0057278Y0205655D01*
X0057337Y0205646D01*
X0057398Y0205641D01*
X0057458Y0205639D01*
X0063458Y0205639D01*
X0063518Y0205641D01*
X0063579Y0205646D01*
X0063638Y0205655D01*
X0063697Y0205668D01*
X0063756Y0205684D01*
X0063813Y0205704D01*
X0063868Y0205727D01*
X0063923Y0205754D01*
X0063975Y0205783D01*
X0064026Y0205816D01*
X0064075Y0205852D01*
X0064121Y0205890D01*
X0064165Y0205932D01*
X0064207Y0205976D01*
X0064245Y0206022D01*
X0064281Y0206071D01*
X0064314Y0206122D01*
X0064343Y0206174D01*
X0064370Y0206229D01*
X0064393Y0206284D01*
X0064413Y0206341D01*
X0064429Y0206400D01*
X0064442Y0206459D01*
X0064451Y0206518D01*
X0064456Y0206579D01*
X0064458Y0206639D01*
X0049104Y0206639D02*
X0049104Y0217639D01*
X0049102Y0217699D01*
X0049097Y0217760D01*
X0049088Y0217819D01*
X0049075Y0217878D01*
X0049059Y0217937D01*
X0049039Y0217994D01*
X0049016Y0218049D01*
X0048989Y0218104D01*
X0048960Y0218156D01*
X0048927Y0218207D01*
X0048891Y0218256D01*
X0048853Y0218302D01*
X0048811Y0218346D01*
X0048767Y0218388D01*
X0048721Y0218426D01*
X0048672Y0218462D01*
X0048621Y0218495D01*
X0048569Y0218524D01*
X0048514Y0218551D01*
X0048459Y0218574D01*
X0048402Y0218594D01*
X0048343Y0218610D01*
X0048284Y0218623D01*
X0048225Y0218632D01*
X0048164Y0218637D01*
X0048104Y0218639D01*
X0042104Y0218639D01*
X0042044Y0218637D01*
X0041983Y0218632D01*
X0041924Y0218623D01*
X0041865Y0218610D01*
X0041806Y0218594D01*
X0041749Y0218574D01*
X0041694Y0218551D01*
X0041639Y0218524D01*
X0041587Y0218495D01*
X0041536Y0218462D01*
X0041487Y0218426D01*
X0041441Y0218388D01*
X0041397Y0218346D01*
X0041355Y0218302D01*
X0041317Y0218256D01*
X0041281Y0218207D01*
X0041248Y0218156D01*
X0041219Y0218104D01*
X0041192Y0218049D01*
X0041169Y0217994D01*
X0041149Y0217937D01*
X0041133Y0217878D01*
X0041120Y0217819D01*
X0041111Y0217760D01*
X0041106Y0217699D01*
X0041104Y0217639D01*
X0041104Y0206639D01*
X0041106Y0206579D01*
X0041111Y0206518D01*
X0041120Y0206459D01*
X0041133Y0206400D01*
X0041149Y0206341D01*
X0041169Y0206284D01*
X0041192Y0206229D01*
X0041219Y0206174D01*
X0041248Y0206122D01*
X0041281Y0206071D01*
X0041317Y0206022D01*
X0041355Y0205976D01*
X0041397Y0205932D01*
X0041441Y0205890D01*
X0041487Y0205852D01*
X0041536Y0205816D01*
X0041587Y0205783D01*
X0041639Y0205754D01*
X0041694Y0205727D01*
X0041749Y0205704D01*
X0041806Y0205684D01*
X0041865Y0205668D01*
X0041924Y0205655D01*
X0041983Y0205646D01*
X0042044Y0205641D01*
X0042104Y0205639D01*
X0048104Y0205639D01*
X0048164Y0205641D01*
X0048225Y0205646D01*
X0048284Y0205655D01*
X0048343Y0205668D01*
X0048402Y0205684D01*
X0048459Y0205704D01*
X0048514Y0205727D01*
X0048569Y0205754D01*
X0048621Y0205783D01*
X0048672Y0205816D01*
X0048721Y0205852D01*
X0048767Y0205890D01*
X0048811Y0205932D01*
X0048853Y0205976D01*
X0048891Y0206022D01*
X0048927Y0206071D01*
X0048960Y0206122D01*
X0048989Y0206174D01*
X0049016Y0206229D01*
X0049039Y0206284D01*
X0049059Y0206341D01*
X0049075Y0206400D01*
X0049088Y0206459D01*
X0049097Y0206518D01*
X0049102Y0206579D01*
X0049104Y0206639D01*
X0033750Y0206639D02*
X0033750Y0217639D01*
X0033748Y0217699D01*
X0033743Y0217760D01*
X0033734Y0217819D01*
X0033721Y0217878D01*
X0033705Y0217937D01*
X0033685Y0217994D01*
X0033662Y0218049D01*
X0033635Y0218104D01*
X0033606Y0218156D01*
X0033573Y0218207D01*
X0033537Y0218256D01*
X0033499Y0218302D01*
X0033457Y0218346D01*
X0033413Y0218388D01*
X0033367Y0218426D01*
X0033318Y0218462D01*
X0033267Y0218495D01*
X0033215Y0218524D01*
X0033160Y0218551D01*
X0033105Y0218574D01*
X0033048Y0218594D01*
X0032989Y0218610D01*
X0032930Y0218623D01*
X0032871Y0218632D01*
X0032810Y0218637D01*
X0032750Y0218639D01*
X0026750Y0218639D01*
X0026690Y0218637D01*
X0026629Y0218632D01*
X0026570Y0218623D01*
X0026511Y0218610D01*
X0026452Y0218594D01*
X0026395Y0218574D01*
X0026340Y0218551D01*
X0026285Y0218524D01*
X0026233Y0218495D01*
X0026182Y0218462D01*
X0026133Y0218426D01*
X0026087Y0218388D01*
X0026043Y0218346D01*
X0026001Y0218302D01*
X0025963Y0218256D01*
X0025927Y0218207D01*
X0025894Y0218156D01*
X0025865Y0218104D01*
X0025838Y0218049D01*
X0025815Y0217994D01*
X0025795Y0217937D01*
X0025779Y0217878D01*
X0025766Y0217819D01*
X0025757Y0217760D01*
X0025752Y0217699D01*
X0025750Y0217639D01*
X0025750Y0206639D01*
X0025752Y0206579D01*
X0025757Y0206518D01*
X0025766Y0206459D01*
X0025779Y0206400D01*
X0025795Y0206341D01*
X0025815Y0206284D01*
X0025838Y0206229D01*
X0025865Y0206174D01*
X0025894Y0206122D01*
X0025927Y0206071D01*
X0025963Y0206022D01*
X0026001Y0205976D01*
X0026043Y0205932D01*
X0026087Y0205890D01*
X0026133Y0205852D01*
X0026182Y0205816D01*
X0026233Y0205783D01*
X0026285Y0205754D01*
X0026340Y0205727D01*
X0026395Y0205704D01*
X0026452Y0205684D01*
X0026511Y0205668D01*
X0026570Y0205655D01*
X0026629Y0205646D01*
X0026690Y0205641D01*
X0026750Y0205639D01*
X0032750Y0205639D01*
X0032810Y0205641D01*
X0032871Y0205646D01*
X0032930Y0205655D01*
X0032989Y0205668D01*
X0033048Y0205684D01*
X0033105Y0205704D01*
X0033160Y0205727D01*
X0033215Y0205754D01*
X0033267Y0205783D01*
X0033318Y0205816D01*
X0033367Y0205852D01*
X0033413Y0205890D01*
X0033457Y0205932D01*
X0033499Y0205976D01*
X0033537Y0206022D01*
X0033573Y0206071D01*
X0033606Y0206122D01*
X0033635Y0206174D01*
X0033662Y0206229D01*
X0033685Y0206284D01*
X0033705Y0206341D01*
X0033721Y0206400D01*
X0033734Y0206459D01*
X0033743Y0206518D01*
X0033748Y0206579D01*
X0033750Y0206639D01*
X0034427Y0172576D02*
X0040427Y0172576D01*
X0040487Y0172574D01*
X0040548Y0172569D01*
X0040607Y0172560D01*
X0040666Y0172547D01*
X0040725Y0172531D01*
X0040782Y0172511D01*
X0040837Y0172488D01*
X0040892Y0172461D01*
X0040944Y0172432D01*
X0040995Y0172399D01*
X0041044Y0172363D01*
X0041090Y0172325D01*
X0041134Y0172283D01*
X0041176Y0172239D01*
X0041214Y0172193D01*
X0041250Y0172144D01*
X0041283Y0172093D01*
X0041312Y0172041D01*
X0041339Y0171986D01*
X0041362Y0171931D01*
X0041382Y0171874D01*
X0041398Y0171815D01*
X0041411Y0171756D01*
X0041420Y0171697D01*
X0041425Y0171636D01*
X0041427Y0171576D01*
X0041427Y0160576D01*
X0041425Y0160516D01*
X0041420Y0160455D01*
X0041411Y0160396D01*
X0041398Y0160337D01*
X0041382Y0160278D01*
X0041362Y0160221D01*
X0041339Y0160166D01*
X0041312Y0160111D01*
X0041283Y0160059D01*
X0041250Y0160008D01*
X0041214Y0159959D01*
X0041176Y0159913D01*
X0041134Y0159869D01*
X0041090Y0159827D01*
X0041044Y0159789D01*
X0040995Y0159753D01*
X0040944Y0159720D01*
X0040892Y0159691D01*
X0040837Y0159664D01*
X0040782Y0159641D01*
X0040725Y0159621D01*
X0040666Y0159605D01*
X0040607Y0159592D01*
X0040548Y0159583D01*
X0040487Y0159578D01*
X0040427Y0159576D01*
X0034427Y0159576D01*
X0034367Y0159578D01*
X0034306Y0159583D01*
X0034247Y0159592D01*
X0034188Y0159605D01*
X0034129Y0159621D01*
X0034072Y0159641D01*
X0034017Y0159664D01*
X0033962Y0159691D01*
X0033910Y0159720D01*
X0033859Y0159753D01*
X0033810Y0159789D01*
X0033764Y0159827D01*
X0033720Y0159869D01*
X0033678Y0159913D01*
X0033640Y0159959D01*
X0033604Y0160008D01*
X0033571Y0160059D01*
X0033542Y0160111D01*
X0033515Y0160166D01*
X0033492Y0160221D01*
X0033472Y0160278D01*
X0033456Y0160337D01*
X0033443Y0160396D01*
X0033434Y0160455D01*
X0033429Y0160516D01*
X0033427Y0160576D01*
X0033427Y0171576D01*
X0033429Y0171636D01*
X0033434Y0171697D01*
X0033443Y0171756D01*
X0033456Y0171815D01*
X0033472Y0171874D01*
X0033492Y0171931D01*
X0033515Y0171986D01*
X0033542Y0172041D01*
X0033571Y0172093D01*
X0033604Y0172144D01*
X0033640Y0172193D01*
X0033678Y0172239D01*
X0033720Y0172283D01*
X0033764Y0172325D01*
X0033810Y0172363D01*
X0033859Y0172399D01*
X0033910Y0172432D01*
X0033962Y0172461D01*
X0034017Y0172488D01*
X0034072Y0172511D01*
X0034129Y0172531D01*
X0034188Y0172547D01*
X0034247Y0172560D01*
X0034306Y0172569D01*
X0034367Y0172574D01*
X0034427Y0172576D01*
X0026072Y0171576D02*
X0026072Y0160576D01*
X0026070Y0160516D01*
X0026065Y0160455D01*
X0026056Y0160396D01*
X0026043Y0160337D01*
X0026027Y0160278D01*
X0026007Y0160221D01*
X0025984Y0160166D01*
X0025957Y0160111D01*
X0025928Y0160059D01*
X0025895Y0160008D01*
X0025859Y0159959D01*
X0025821Y0159913D01*
X0025779Y0159869D01*
X0025735Y0159827D01*
X0025689Y0159789D01*
X0025640Y0159753D01*
X0025589Y0159720D01*
X0025537Y0159691D01*
X0025482Y0159664D01*
X0025427Y0159641D01*
X0025370Y0159621D01*
X0025311Y0159605D01*
X0025252Y0159592D01*
X0025193Y0159583D01*
X0025132Y0159578D01*
X0025072Y0159576D01*
X0019072Y0159576D01*
X0019012Y0159578D01*
X0018951Y0159583D01*
X0018892Y0159592D01*
X0018833Y0159605D01*
X0018774Y0159621D01*
X0018717Y0159641D01*
X0018662Y0159664D01*
X0018607Y0159691D01*
X0018555Y0159720D01*
X0018504Y0159753D01*
X0018455Y0159789D01*
X0018409Y0159827D01*
X0018365Y0159869D01*
X0018323Y0159913D01*
X0018285Y0159959D01*
X0018249Y0160008D01*
X0018216Y0160059D01*
X0018187Y0160111D01*
X0018160Y0160166D01*
X0018137Y0160221D01*
X0018117Y0160278D01*
X0018101Y0160337D01*
X0018088Y0160396D01*
X0018079Y0160455D01*
X0018074Y0160516D01*
X0018072Y0160576D01*
X0018072Y0171576D01*
X0018074Y0171636D01*
X0018079Y0171697D01*
X0018088Y0171756D01*
X0018101Y0171815D01*
X0018117Y0171874D01*
X0018137Y0171931D01*
X0018160Y0171986D01*
X0018187Y0172041D01*
X0018216Y0172093D01*
X0018249Y0172144D01*
X0018285Y0172193D01*
X0018323Y0172239D01*
X0018365Y0172283D01*
X0018409Y0172325D01*
X0018455Y0172363D01*
X0018504Y0172399D01*
X0018555Y0172432D01*
X0018607Y0172461D01*
X0018662Y0172488D01*
X0018717Y0172511D01*
X0018774Y0172531D01*
X0018833Y0172547D01*
X0018892Y0172560D01*
X0018951Y0172569D01*
X0019012Y0172574D01*
X0019072Y0172576D01*
X0025072Y0172576D01*
X0025132Y0172574D01*
X0025193Y0172569D01*
X0025252Y0172560D01*
X0025311Y0172547D01*
X0025370Y0172531D01*
X0025427Y0172511D01*
X0025482Y0172488D01*
X0025537Y0172461D01*
X0025589Y0172432D01*
X0025640Y0172399D01*
X0025689Y0172363D01*
X0025735Y0172325D01*
X0025779Y0172283D01*
X0025821Y0172239D01*
X0025859Y0172193D01*
X0025895Y0172144D01*
X0025928Y0172093D01*
X0025957Y0172041D01*
X0025984Y0171986D01*
X0026007Y0171931D01*
X0026027Y0171874D01*
X0026043Y0171815D01*
X0026056Y0171756D01*
X0026065Y0171697D01*
X0026070Y0171636D01*
X0026072Y0171576D01*
X0048781Y0171576D02*
X0048781Y0160576D01*
X0048783Y0160516D01*
X0048788Y0160455D01*
X0048797Y0160396D01*
X0048810Y0160337D01*
X0048826Y0160278D01*
X0048846Y0160221D01*
X0048869Y0160166D01*
X0048896Y0160111D01*
X0048925Y0160059D01*
X0048958Y0160008D01*
X0048994Y0159959D01*
X0049032Y0159913D01*
X0049074Y0159869D01*
X0049118Y0159827D01*
X0049164Y0159789D01*
X0049213Y0159753D01*
X0049264Y0159720D01*
X0049316Y0159691D01*
X0049371Y0159664D01*
X0049426Y0159641D01*
X0049483Y0159621D01*
X0049542Y0159605D01*
X0049601Y0159592D01*
X0049660Y0159583D01*
X0049721Y0159578D01*
X0049781Y0159576D01*
X0055781Y0159576D01*
X0055841Y0159578D01*
X0055902Y0159583D01*
X0055961Y0159592D01*
X0056020Y0159605D01*
X0056079Y0159621D01*
X0056136Y0159641D01*
X0056191Y0159664D01*
X0056246Y0159691D01*
X0056298Y0159720D01*
X0056349Y0159753D01*
X0056398Y0159789D01*
X0056444Y0159827D01*
X0056488Y0159869D01*
X0056530Y0159913D01*
X0056568Y0159959D01*
X0056604Y0160008D01*
X0056637Y0160059D01*
X0056666Y0160111D01*
X0056693Y0160166D01*
X0056716Y0160221D01*
X0056736Y0160278D01*
X0056752Y0160337D01*
X0056765Y0160396D01*
X0056774Y0160455D01*
X0056779Y0160516D01*
X0056781Y0160576D01*
X0056781Y0171576D01*
X0056779Y0171636D01*
X0056774Y0171697D01*
X0056765Y0171756D01*
X0056752Y0171815D01*
X0056736Y0171874D01*
X0056716Y0171931D01*
X0056693Y0171986D01*
X0056666Y0172041D01*
X0056637Y0172093D01*
X0056604Y0172144D01*
X0056568Y0172193D01*
X0056530Y0172239D01*
X0056488Y0172283D01*
X0056444Y0172325D01*
X0056398Y0172363D01*
X0056349Y0172399D01*
X0056298Y0172432D01*
X0056246Y0172461D01*
X0056191Y0172488D01*
X0056136Y0172511D01*
X0056079Y0172531D01*
X0056020Y0172547D01*
X0055961Y0172560D01*
X0055902Y0172569D01*
X0055841Y0172574D01*
X0055781Y0172576D01*
X0049781Y0172576D01*
X0049721Y0172574D01*
X0049660Y0172569D01*
X0049601Y0172560D01*
X0049542Y0172547D01*
X0049483Y0172531D01*
X0049426Y0172511D01*
X0049371Y0172488D01*
X0049316Y0172461D01*
X0049264Y0172432D01*
X0049213Y0172399D01*
X0049164Y0172363D01*
X0049118Y0172325D01*
X0049074Y0172283D01*
X0049032Y0172239D01*
X0048994Y0172193D01*
X0048958Y0172144D01*
X0048925Y0172093D01*
X0048896Y0172041D01*
X0048869Y0171986D01*
X0048846Y0171931D01*
X0048826Y0171874D01*
X0048810Y0171815D01*
X0048797Y0171756D01*
X0048788Y0171697D01*
X0048783Y0171636D01*
X0048781Y0171576D01*
X0064135Y0171576D02*
X0064135Y0160576D01*
X0064137Y0160516D01*
X0064142Y0160455D01*
X0064151Y0160396D01*
X0064164Y0160337D01*
X0064180Y0160278D01*
X0064200Y0160221D01*
X0064223Y0160166D01*
X0064250Y0160111D01*
X0064279Y0160059D01*
X0064312Y0160008D01*
X0064348Y0159959D01*
X0064386Y0159913D01*
X0064428Y0159869D01*
X0064472Y0159827D01*
X0064518Y0159789D01*
X0064567Y0159753D01*
X0064618Y0159720D01*
X0064670Y0159691D01*
X0064725Y0159664D01*
X0064780Y0159641D01*
X0064837Y0159621D01*
X0064896Y0159605D01*
X0064955Y0159592D01*
X0065014Y0159583D01*
X0065075Y0159578D01*
X0065135Y0159576D01*
X0071135Y0159576D01*
X0071195Y0159578D01*
X0071256Y0159583D01*
X0071315Y0159592D01*
X0071374Y0159605D01*
X0071433Y0159621D01*
X0071490Y0159641D01*
X0071545Y0159664D01*
X0071600Y0159691D01*
X0071652Y0159720D01*
X0071703Y0159753D01*
X0071752Y0159789D01*
X0071798Y0159827D01*
X0071842Y0159869D01*
X0071884Y0159913D01*
X0071922Y0159959D01*
X0071958Y0160008D01*
X0071991Y0160059D01*
X0072020Y0160111D01*
X0072047Y0160166D01*
X0072070Y0160221D01*
X0072090Y0160278D01*
X0072106Y0160337D01*
X0072119Y0160396D01*
X0072128Y0160455D01*
X0072133Y0160516D01*
X0072135Y0160576D01*
X0072135Y0171576D01*
X0072133Y0171636D01*
X0072128Y0171697D01*
X0072119Y0171756D01*
X0072106Y0171815D01*
X0072090Y0171874D01*
X0072070Y0171931D01*
X0072047Y0171986D01*
X0072020Y0172041D01*
X0071991Y0172093D01*
X0071958Y0172144D01*
X0071922Y0172193D01*
X0071884Y0172239D01*
X0071842Y0172283D01*
X0071798Y0172325D01*
X0071752Y0172363D01*
X0071703Y0172399D01*
X0071652Y0172432D01*
X0071600Y0172461D01*
X0071545Y0172488D01*
X0071490Y0172511D01*
X0071433Y0172531D01*
X0071374Y0172547D01*
X0071315Y0172560D01*
X0071256Y0172569D01*
X0071195Y0172574D01*
X0071135Y0172576D01*
X0065135Y0172576D01*
X0065075Y0172574D01*
X0065014Y0172569D01*
X0064955Y0172560D01*
X0064896Y0172547D01*
X0064837Y0172531D01*
X0064780Y0172511D01*
X0064725Y0172488D01*
X0064670Y0172461D01*
X0064618Y0172432D01*
X0064567Y0172399D01*
X0064518Y0172363D01*
X0064472Y0172325D01*
X0064428Y0172283D01*
X0064386Y0172239D01*
X0064348Y0172193D01*
X0064312Y0172144D01*
X0064279Y0172093D01*
X0064250Y0172041D01*
X0064223Y0171986D01*
X0064200Y0171931D01*
X0064180Y0171874D01*
X0064164Y0171815D01*
X0064151Y0171756D01*
X0064142Y0171697D01*
X0064137Y0171636D01*
X0064135Y0171576D01*
X0166324Y0034800D02*
X0176324Y0034800D01*
X0186324Y0034800D01*
X0196324Y0034800D01*
X0196324Y0023800D01*
X0206324Y0023800D01*
X0216324Y0023800D01*
X0226324Y0023800D01*
X0236324Y0023800D01*
X0246324Y0023800D01*
X0246324Y0034800D01*
X0236324Y0034800D01*
X0226324Y0034800D01*
X0226324Y0023800D01*
X0216324Y0023800D02*
X0216324Y0034800D01*
X0226324Y0034800D01*
X0216324Y0034800D02*
X0206324Y0034800D01*
X0206324Y0023800D01*
X0196324Y0023800D02*
X0186324Y0023800D01*
X0176324Y0023800D01*
X0176324Y0034800D01*
X0166324Y0034800D02*
X0166324Y0023800D01*
X0176324Y0023800D01*
X0186324Y0023800D02*
X0186324Y0034800D01*
X0196324Y0034800D02*
X0206324Y0034800D01*
X0236324Y0034800D02*
X0236324Y0023800D01*
D11*
X0231324Y0020800D02*
X0231324Y0002300D01*
X0241324Y0002300D02*
X0241324Y0020800D01*
X0221324Y0020800D02*
X0221324Y0002300D01*
X0211324Y0002300D02*
X0211324Y0020800D01*
X0201324Y0020800D02*
X0201324Y0002300D01*
X0191324Y0002300D02*
X0191324Y0020800D01*
X0181324Y0020800D02*
X0181324Y0002300D01*
X0171324Y0002300D02*
X0171324Y0020800D01*
X0154317Y0020800D02*
X0154317Y0002300D01*
X0144317Y0002300D02*
X0144317Y0020800D01*
X0134317Y0020800D02*
X0134317Y0002300D01*
X0124317Y0002300D02*
X0124317Y0020800D01*
X0114317Y0020800D02*
X0114317Y0002300D01*
X0104317Y0002300D02*
X0104317Y0020800D01*
X0094317Y0020800D02*
X0094317Y0002300D01*
X0084317Y0002300D02*
X0084317Y0020800D01*
D12*
X0005320Y0056523D02*
X0003819Y0058025D01*
X0008322Y0058025D01*
X0008322Y0059526D02*
X0008322Y0056523D01*
X0007572Y0061127D02*
X0006071Y0061127D01*
X0006071Y0063379D01*
X0006821Y0064130D01*
X0007572Y0064130D01*
X0008322Y0063379D01*
X0008322Y0061878D01*
X0007572Y0061127D01*
X0006071Y0061127D02*
X0004569Y0062628D01*
X0003819Y0064130D01*
X0036569Y0103419D02*
X0035819Y0104170D01*
X0035819Y0105671D01*
X0036569Y0106422D01*
X0038071Y0105671D02*
X0038821Y0106422D01*
X0039572Y0106422D01*
X0040322Y0105671D01*
X0040322Y0104170D01*
X0039572Y0103419D01*
X0038071Y0104170D02*
X0038071Y0105671D01*
X0038071Y0104170D02*
X0037320Y0103419D01*
X0036569Y0103419D01*
X0035819Y0108023D02*
X0038821Y0108023D01*
X0040322Y0109525D01*
X0038821Y0111026D01*
X0035819Y0111026D01*
X0036569Y0112627D02*
X0035819Y0113378D01*
X0035819Y0114879D01*
X0036569Y0115630D01*
X0037320Y0115630D01*
X0038071Y0114879D01*
X0038821Y0115630D01*
X0039572Y0115630D01*
X0040322Y0114879D01*
X0040322Y0113378D01*
X0039572Y0112627D01*
X0038071Y0114128D02*
X0038071Y0114879D01*
X0037320Y0129127D02*
X0035819Y0130628D01*
X0040322Y0130628D01*
X0040322Y0129127D02*
X0040322Y0132130D01*
X0042348Y0132414D02*
X0044907Y0132414D01*
X0048647Y0135761D02*
X0048647Y0137139D01*
X0044907Y0140288D02*
X0042348Y0140288D01*
X0038805Y0137139D02*
X0038805Y0135761D01*
X0042924Y0159014D02*
X0042173Y0159764D01*
X0042173Y0161266D01*
X0042924Y0162016D01*
X0044425Y0161266D02*
X0045175Y0162016D01*
X0045926Y0162016D01*
X0046677Y0161266D01*
X0046677Y0159764D01*
X0045926Y0159014D01*
X0044425Y0159764D02*
X0044425Y0161266D01*
X0044425Y0159764D02*
X0043674Y0159014D01*
X0042924Y0159014D01*
X0045926Y0163618D02*
X0046677Y0164368D01*
X0046677Y0165119D01*
X0045926Y0165870D01*
X0042173Y0165870D01*
X0042173Y0166620D02*
X0042173Y0165119D01*
X0042173Y0168222D02*
X0042173Y0171224D01*
X0042924Y0171224D01*
X0045926Y0168222D01*
X0046677Y0168222D01*
X0057527Y0166620D02*
X0057527Y0165119D01*
X0057527Y0165870D02*
X0061280Y0165870D01*
X0062031Y0165119D01*
X0062031Y0164368D01*
X0061280Y0163618D01*
X0061280Y0162016D02*
X0062031Y0161266D01*
X0062031Y0159764D01*
X0061280Y0159014D01*
X0059779Y0159764D02*
X0059779Y0161266D01*
X0060530Y0162016D01*
X0061280Y0162016D01*
X0059779Y0159764D02*
X0059029Y0159014D01*
X0058278Y0159014D01*
X0057527Y0159764D01*
X0057527Y0161266D01*
X0058278Y0162016D01*
X0059779Y0168222D02*
X0058278Y0169723D01*
X0057527Y0171224D01*
X0059779Y0170474D02*
X0059779Y0168222D01*
X0061280Y0168222D01*
X0062031Y0168972D01*
X0062031Y0170474D01*
X0061280Y0171224D01*
X0060530Y0171224D01*
X0059779Y0170474D01*
X0072882Y0171224D02*
X0072882Y0168222D01*
X0075134Y0168222D01*
X0074383Y0169723D01*
X0074383Y0170474D01*
X0075134Y0171224D01*
X0076635Y0171224D01*
X0077385Y0170474D01*
X0077385Y0168972D01*
X0076635Y0168222D01*
X0076635Y0165870D02*
X0072882Y0165870D01*
X0072882Y0166620D02*
X0072882Y0165119D01*
X0073632Y0162016D02*
X0072882Y0161266D01*
X0072882Y0159764D01*
X0073632Y0159014D01*
X0074383Y0159014D01*
X0075134Y0159764D01*
X0075134Y0161266D01*
X0075884Y0162016D01*
X0076635Y0162016D01*
X0077385Y0161266D01*
X0077385Y0159764D01*
X0076635Y0159014D01*
X0076635Y0163618D02*
X0077385Y0164368D01*
X0077385Y0165119D01*
X0076635Y0165870D01*
X0031322Y0165119D02*
X0030572Y0165870D01*
X0026819Y0165870D01*
X0026819Y0166620D02*
X0026819Y0165119D01*
X0027569Y0162016D02*
X0026819Y0161266D01*
X0026819Y0159764D01*
X0027569Y0159014D01*
X0028320Y0159014D01*
X0029071Y0159764D01*
X0029071Y0161266D01*
X0029821Y0162016D01*
X0030572Y0162016D01*
X0031322Y0161266D01*
X0031322Y0159764D01*
X0030572Y0159014D01*
X0030572Y0163618D02*
X0031322Y0164368D01*
X0031322Y0165119D01*
X0030572Y0168222D02*
X0029821Y0168222D01*
X0029071Y0168972D01*
X0029071Y0170474D01*
X0029821Y0171224D01*
X0030572Y0171224D01*
X0031322Y0170474D01*
X0031322Y0168972D01*
X0030572Y0168222D01*
X0029071Y0168972D02*
X0028320Y0168222D01*
X0027569Y0168222D01*
X0026819Y0168972D01*
X0026819Y0170474D01*
X0027569Y0171224D01*
X0028320Y0171224D01*
X0029071Y0170474D01*
X0024249Y0205889D02*
X0025000Y0206639D01*
X0025000Y0208141D01*
X0024249Y0208891D01*
X0023498Y0208891D01*
X0022748Y0208141D01*
X0022748Y0206639D01*
X0021997Y0205889D01*
X0021246Y0205889D01*
X0020496Y0206639D01*
X0020496Y0208141D01*
X0021246Y0208891D01*
X0020496Y0211994D02*
X0020496Y0213495D01*
X0020496Y0212744D02*
X0024249Y0212744D01*
X0025000Y0211994D01*
X0025000Y0211243D01*
X0024249Y0210493D01*
X0025000Y0215096D02*
X0025000Y0218099D01*
X0025000Y0216598D02*
X0020496Y0216598D01*
X0021997Y0215096D01*
X0021246Y0219700D02*
X0020496Y0220451D01*
X0020496Y0221952D01*
X0021246Y0222703D01*
X0021997Y0222703D01*
X0022748Y0221952D01*
X0023498Y0222703D01*
X0024249Y0222703D01*
X0025000Y0221952D01*
X0025000Y0220451D01*
X0024249Y0219700D01*
X0022748Y0221202D02*
X0022748Y0221952D01*
X0035850Y0221952D02*
X0038102Y0219700D01*
X0038102Y0222703D01*
X0040354Y0221952D02*
X0035850Y0221952D01*
X0040354Y0218099D02*
X0040354Y0215096D01*
X0040354Y0216598D02*
X0035850Y0216598D01*
X0037351Y0215096D01*
X0035850Y0213495D02*
X0035850Y0211994D01*
X0035850Y0212744D02*
X0039603Y0212744D01*
X0040354Y0211994D01*
X0040354Y0211243D01*
X0039603Y0210493D01*
X0039603Y0208891D02*
X0040354Y0208141D01*
X0040354Y0206639D01*
X0039603Y0205889D01*
X0038102Y0206639D02*
X0038102Y0208141D01*
X0038853Y0208891D01*
X0039603Y0208891D01*
X0038102Y0206639D02*
X0037351Y0205889D01*
X0036601Y0205889D01*
X0035850Y0206639D01*
X0035850Y0208141D01*
X0036601Y0208891D01*
X0051204Y0208141D02*
X0051204Y0206639D01*
X0051955Y0205889D01*
X0052706Y0205889D01*
X0053456Y0206639D01*
X0053456Y0208141D01*
X0054207Y0208891D01*
X0054958Y0208891D01*
X0055708Y0208141D01*
X0055708Y0206639D01*
X0054958Y0205889D01*
X0051955Y0208891D02*
X0051204Y0208141D01*
X0054958Y0210493D02*
X0055708Y0211243D01*
X0055708Y0211994D01*
X0054958Y0212744D01*
X0051204Y0212744D01*
X0051204Y0211994D02*
X0051204Y0213495D01*
X0052706Y0215096D02*
X0051204Y0216598D01*
X0055708Y0216598D01*
X0055708Y0218099D02*
X0055708Y0215096D01*
X0054958Y0219700D02*
X0055708Y0220451D01*
X0055708Y0221952D01*
X0054958Y0222703D01*
X0054207Y0222703D01*
X0053456Y0221952D01*
X0053456Y0219700D01*
X0054958Y0219700D01*
X0053456Y0219700D02*
X0051955Y0221202D01*
X0051204Y0222703D01*
X0066559Y0222703D02*
X0066559Y0219700D01*
X0068811Y0219700D01*
X0068060Y0221202D01*
X0068060Y0221952D01*
X0068811Y0222703D01*
X0070312Y0222703D01*
X0071063Y0221952D01*
X0071063Y0220451D01*
X0070312Y0219700D01*
X0071063Y0218099D02*
X0071063Y0215096D01*
X0071063Y0216598D02*
X0066559Y0216598D01*
X0068060Y0215096D01*
X0066559Y0213495D02*
X0066559Y0211994D01*
X0066559Y0212744D02*
X0070312Y0212744D01*
X0071063Y0211994D01*
X0071063Y0211243D01*
X0070312Y0210493D01*
X0070312Y0208891D02*
X0071063Y0208141D01*
X0071063Y0206639D01*
X0070312Y0205889D01*
X0068811Y0206639D02*
X0068811Y0208141D01*
X0069561Y0208891D01*
X0070312Y0208891D01*
X0068811Y0206639D02*
X0068060Y0205889D01*
X0067309Y0205889D01*
X0066559Y0206639D01*
X0066559Y0208141D01*
X0067309Y0208891D01*
X0141386Y0170474D02*
X0143637Y0168222D01*
X0143637Y0171224D01*
X0141386Y0170474D02*
X0145889Y0170474D01*
X0145139Y0165870D02*
X0141386Y0165870D01*
X0141386Y0166620D02*
X0141386Y0165119D01*
X0142136Y0162016D02*
X0141386Y0161266D01*
X0141386Y0159764D01*
X0142136Y0159014D01*
X0142887Y0159014D01*
X0143637Y0159764D01*
X0143637Y0161266D01*
X0144388Y0162016D01*
X0145139Y0162016D01*
X0145889Y0161266D01*
X0145889Y0159764D01*
X0145139Y0159014D01*
X0145139Y0163618D02*
X0145889Y0164368D01*
X0145889Y0165119D01*
X0145139Y0165870D01*
X0157921Y0165870D02*
X0161674Y0165870D01*
X0162425Y0165119D01*
X0162425Y0164368D01*
X0161674Y0163618D01*
X0161674Y0162016D02*
X0162425Y0161266D01*
X0162425Y0159764D01*
X0161674Y0159014D01*
X0160173Y0159764D02*
X0160173Y0161266D01*
X0160924Y0162016D01*
X0161674Y0162016D01*
X0160173Y0159764D02*
X0159422Y0159014D01*
X0158672Y0159014D01*
X0157921Y0159764D01*
X0157921Y0161266D01*
X0158672Y0162016D01*
X0157921Y0165119D02*
X0157921Y0166620D01*
X0158672Y0168222D02*
X0157921Y0168972D01*
X0157921Y0170474D01*
X0158672Y0171224D01*
X0159422Y0171224D01*
X0160173Y0170474D01*
X0160924Y0171224D01*
X0161674Y0171224D01*
X0162425Y0170474D01*
X0162425Y0168972D01*
X0161674Y0168222D01*
X0160173Y0169723D02*
X0160173Y0170474D01*
X0172882Y0170474D02*
X0172882Y0168972D01*
X0173632Y0168222D01*
X0172882Y0166620D02*
X0172882Y0165119D01*
X0172882Y0165870D02*
X0176635Y0165870D01*
X0177385Y0165119D01*
X0177385Y0164368D01*
X0176635Y0163618D01*
X0176635Y0162016D02*
X0177385Y0161266D01*
X0177385Y0159764D01*
X0176635Y0159014D01*
X0175134Y0159764D02*
X0175134Y0161266D01*
X0175884Y0162016D01*
X0176635Y0162016D01*
X0175134Y0159764D02*
X0174383Y0159014D01*
X0173632Y0159014D01*
X0172882Y0159764D01*
X0172882Y0161266D01*
X0173632Y0162016D01*
X0177385Y0168222D02*
X0174383Y0171224D01*
X0173632Y0171224D01*
X0172882Y0170474D01*
X0177385Y0171224D02*
X0177385Y0168222D01*
X0188630Y0169723D02*
X0193133Y0169723D01*
X0193133Y0168222D02*
X0193133Y0171224D01*
X0190131Y0168222D02*
X0188630Y0169723D01*
X0188630Y0166620D02*
X0188630Y0165119D01*
X0188630Y0165870D02*
X0192383Y0165870D01*
X0193133Y0165119D01*
X0193133Y0164368D01*
X0192383Y0163618D01*
X0192383Y0162016D02*
X0191632Y0162016D01*
X0190882Y0161266D01*
X0190882Y0159764D01*
X0190131Y0159014D01*
X0189380Y0159014D01*
X0188630Y0159764D01*
X0188630Y0161266D01*
X0189380Y0162016D01*
X0192383Y0162016D02*
X0193133Y0161266D01*
X0193133Y0159764D01*
X0192383Y0159014D01*
X0188028Y0205889D02*
X0188779Y0206639D01*
X0188779Y0208141D01*
X0188028Y0208891D01*
X0187278Y0208891D01*
X0186527Y0208141D01*
X0186527Y0206639D01*
X0185777Y0205889D01*
X0185026Y0205889D01*
X0184275Y0206639D01*
X0184275Y0208141D01*
X0185026Y0208891D01*
X0184275Y0211994D02*
X0184275Y0213495D01*
X0184275Y0212744D02*
X0188028Y0212744D01*
X0188779Y0211994D01*
X0188779Y0211243D01*
X0188028Y0210493D01*
X0188779Y0215096D02*
X0188779Y0218099D01*
X0188779Y0216598D02*
X0184275Y0216598D01*
X0185777Y0215096D01*
X0185777Y0219700D02*
X0184275Y0221202D01*
X0188779Y0221202D01*
X0188779Y0222703D02*
X0188779Y0219700D01*
X0199630Y0220451D02*
X0200380Y0219700D01*
X0199630Y0220451D02*
X0199630Y0221952D01*
X0200380Y0222703D01*
X0201131Y0222703D01*
X0204133Y0219700D01*
X0204133Y0222703D01*
X0204133Y0218099D02*
X0204133Y0215096D01*
X0204133Y0216598D02*
X0199630Y0216598D01*
X0201131Y0215096D01*
X0199630Y0213495D02*
X0199630Y0211994D01*
X0199630Y0212744D02*
X0203383Y0212744D01*
X0204133Y0211994D01*
X0204133Y0211243D01*
X0203383Y0210493D01*
X0203383Y0208891D02*
X0204133Y0208141D01*
X0204133Y0206639D01*
X0203383Y0205889D01*
X0201882Y0206639D02*
X0201882Y0208141D01*
X0202632Y0208891D01*
X0203383Y0208891D01*
X0201882Y0206639D02*
X0201131Y0205889D01*
X0200380Y0205889D01*
X0199630Y0206639D01*
X0199630Y0208141D01*
X0200380Y0208891D01*
X0173425Y0208141D02*
X0173425Y0206639D01*
X0172674Y0205889D01*
X0171173Y0206639D02*
X0171173Y0208141D01*
X0171924Y0208891D01*
X0172674Y0208891D01*
X0173425Y0208141D01*
X0172674Y0210493D02*
X0173425Y0211243D01*
X0173425Y0211994D01*
X0172674Y0212744D01*
X0168921Y0212744D01*
X0168921Y0211994D02*
X0168921Y0213495D01*
X0170422Y0215096D02*
X0168921Y0216598D01*
X0173425Y0216598D01*
X0173425Y0218099D02*
X0173425Y0215096D01*
X0172674Y0219700D02*
X0169672Y0219700D01*
X0168921Y0220451D01*
X0168921Y0221952D01*
X0169672Y0222703D01*
X0172674Y0219700D01*
X0173425Y0220451D01*
X0173425Y0221952D01*
X0172674Y0222703D01*
X0169672Y0222703D01*
X0158070Y0217348D02*
X0157320Y0218099D01*
X0154317Y0218099D01*
X0153567Y0217348D01*
X0153567Y0215847D01*
X0154317Y0215096D01*
X0155068Y0215096D01*
X0155819Y0215847D01*
X0155819Y0218099D01*
X0158070Y0217348D02*
X0158070Y0215847D01*
X0157320Y0215096D01*
X0157320Y0212744D02*
X0153567Y0212744D01*
X0153567Y0211994D02*
X0153567Y0213495D01*
X0157320Y0212744D02*
X0158070Y0211994D01*
X0158070Y0211243D01*
X0157320Y0210493D01*
X0157320Y0208891D02*
X0158070Y0208141D01*
X0158070Y0206639D01*
X0157320Y0205889D01*
X0155819Y0206639D02*
X0155819Y0208141D01*
X0156569Y0208891D01*
X0157320Y0208891D01*
X0155819Y0206639D02*
X0155068Y0205889D01*
X0154317Y0205889D01*
X0153567Y0206639D01*
X0153567Y0208141D01*
X0154317Y0208891D01*
X0168921Y0208141D02*
X0168921Y0206639D01*
X0169672Y0205889D01*
X0170422Y0205889D01*
X0171173Y0206639D01*
X0169672Y0208891D02*
X0168921Y0208141D01*
X0278175Y0174540D02*
X0278175Y0163517D01*
X0298647Y0163517D01*
X0298647Y0174540D01*
X0278175Y0174540D01*
X0285506Y0182034D02*
X0286257Y0182034D01*
X0287008Y0182785D01*
X0287008Y0184286D01*
X0287758Y0185037D01*
X0288509Y0185037D01*
X0289259Y0184286D01*
X0289259Y0182785D01*
X0288509Y0182034D01*
X0285506Y0182034D02*
X0284756Y0182785D01*
X0284756Y0184286D01*
X0285506Y0185037D01*
X0284756Y0186638D02*
X0287758Y0186638D01*
X0289259Y0188139D01*
X0287758Y0189641D01*
X0284756Y0189641D01*
X0287008Y0191242D02*
X0287008Y0194245D01*
X0289259Y0193494D02*
X0284756Y0193494D01*
X0287008Y0191242D01*
X0312756Y0186036D02*
X0314257Y0184534D01*
X0312756Y0186036D02*
X0317259Y0186036D01*
X0317259Y0187537D02*
X0317259Y0184534D01*
X0297509Y0213034D02*
X0296008Y0213034D01*
X0296008Y0215286D01*
X0296758Y0216037D01*
X0297509Y0216037D01*
X0298259Y0215286D01*
X0298259Y0213785D01*
X0297509Y0213034D01*
X0296008Y0213034D02*
X0294506Y0214536D01*
X0293756Y0216037D01*
X0244222Y0060554D02*
X0242721Y0060554D01*
X0241970Y0059803D01*
X0240369Y0060554D02*
X0240369Y0057551D01*
X0238868Y0056050D01*
X0237367Y0057551D01*
X0237367Y0060554D01*
X0235765Y0059803D02*
X0235015Y0060554D01*
X0233513Y0060554D01*
X0232763Y0059803D01*
X0232763Y0059053D01*
X0233513Y0058302D01*
X0235015Y0058302D01*
X0235765Y0057551D01*
X0235765Y0056801D01*
X0235015Y0056050D01*
X0233513Y0056050D01*
X0232763Y0056801D01*
X0241970Y0056050D02*
X0244973Y0059053D01*
X0244973Y0059803D01*
X0244222Y0060554D01*
X0244973Y0056050D02*
X0241970Y0056050D01*
X0240572Y0030449D02*
X0239821Y0030449D01*
X0239071Y0029698D01*
X0239071Y0028197D01*
X0239821Y0027446D01*
X0240572Y0030449D02*
X0243574Y0027446D01*
X0243574Y0030449D01*
X0233574Y0029698D02*
X0229071Y0029698D01*
X0231322Y0027446D01*
X0231322Y0030449D01*
X0223574Y0029698D02*
X0223574Y0028197D01*
X0222824Y0027446D01*
X0221322Y0027446D01*
X0221322Y0029698D01*
X0222073Y0030449D01*
X0222824Y0030449D01*
X0223574Y0029698D01*
X0221322Y0027446D02*
X0219821Y0028947D01*
X0219071Y0030449D01*
X0213574Y0029698D02*
X0213574Y0028197D01*
X0212824Y0027446D01*
X0212073Y0027446D01*
X0211322Y0028197D01*
X0211322Y0029698D01*
X0212073Y0030449D01*
X0212824Y0030449D01*
X0213574Y0029698D01*
X0211322Y0029698D02*
X0210572Y0030449D01*
X0209821Y0030449D01*
X0209071Y0029698D01*
X0209071Y0028197D01*
X0209821Y0027446D01*
X0210572Y0027446D01*
X0211322Y0028197D01*
X0203574Y0027345D02*
X0203574Y0024342D01*
X0203574Y0025843D02*
X0199071Y0025843D01*
X0200572Y0024342D01*
X0199821Y0028946D02*
X0199071Y0029697D01*
X0199071Y0031198D01*
X0199821Y0031949D01*
X0202824Y0028946D01*
X0203574Y0029697D01*
X0203574Y0031198D01*
X0202824Y0031949D01*
X0199821Y0031949D01*
X0199821Y0028946D02*
X0202824Y0028946D01*
X0193574Y0028946D02*
X0190572Y0031949D01*
X0189821Y0031949D01*
X0189071Y0031198D01*
X0189071Y0029697D01*
X0189821Y0028946D01*
X0189071Y0025843D02*
X0193574Y0025843D01*
X0193574Y0024342D02*
X0193574Y0027345D01*
X0193574Y0028946D02*
X0193574Y0031949D01*
X0189071Y0025843D02*
X0190572Y0024342D01*
X0183574Y0024342D02*
X0183574Y0027345D01*
X0183574Y0025843D02*
X0179071Y0025843D01*
X0180572Y0024342D01*
X0181322Y0028946D02*
X0181322Y0031949D01*
X0179071Y0031198D02*
X0181322Y0028946D01*
X0183574Y0031198D02*
X0179071Y0031198D01*
X0173574Y0031198D02*
X0172824Y0031949D01*
X0172073Y0031949D01*
X0171322Y0031198D01*
X0171322Y0028946D01*
X0172824Y0028946D01*
X0173574Y0029697D01*
X0173574Y0031198D01*
X0171322Y0028946D02*
X0169821Y0030447D01*
X0169071Y0031949D01*
X0173574Y0027345D02*
X0173574Y0024342D01*
X0173574Y0025843D02*
X0169071Y0025843D01*
X0170572Y0024342D01*
X0156567Y0027446D02*
X0153564Y0030449D01*
X0152813Y0030449D01*
X0152063Y0029698D01*
X0152063Y0028197D01*
X0152813Y0027446D01*
X0146567Y0029698D02*
X0142063Y0029698D01*
X0144315Y0027446D01*
X0144315Y0030449D01*
X0136567Y0029698D02*
X0136567Y0028197D01*
X0135816Y0027446D01*
X0134315Y0027446D01*
X0134315Y0029698D01*
X0135065Y0030449D01*
X0135816Y0030449D01*
X0136567Y0029698D01*
X0134315Y0027446D02*
X0132813Y0028947D01*
X0132063Y0030449D01*
X0126567Y0029698D02*
X0126567Y0028197D01*
X0125816Y0027446D01*
X0125065Y0027446D01*
X0124315Y0028197D01*
X0124315Y0029698D01*
X0125065Y0030449D01*
X0125816Y0030449D01*
X0126567Y0029698D01*
X0124315Y0029698D02*
X0123564Y0030449D01*
X0122813Y0030449D01*
X0122063Y0029698D01*
X0122063Y0028197D01*
X0122813Y0027446D01*
X0123564Y0027446D01*
X0124315Y0028197D01*
X0116567Y0027345D02*
X0116567Y0024342D01*
X0116567Y0025843D02*
X0112063Y0025843D01*
X0113564Y0024342D01*
X0112813Y0028946D02*
X0112063Y0029697D01*
X0112063Y0031198D01*
X0112813Y0031949D01*
X0115816Y0028946D01*
X0116567Y0029697D01*
X0116567Y0031198D01*
X0115816Y0031949D01*
X0112813Y0031949D01*
X0112813Y0028946D02*
X0115816Y0028946D01*
X0106567Y0028946D02*
X0103564Y0031949D01*
X0102813Y0031949D01*
X0102063Y0031198D01*
X0102063Y0029697D01*
X0102813Y0028946D01*
X0102063Y0025843D02*
X0106567Y0025843D01*
X0106567Y0024342D02*
X0106567Y0027345D01*
X0106567Y0028946D02*
X0106567Y0031949D01*
X0102063Y0025843D02*
X0103564Y0024342D01*
X0096567Y0024342D02*
X0096567Y0027345D01*
X0096567Y0025843D02*
X0092063Y0025843D01*
X0093564Y0024342D01*
X0094315Y0028946D02*
X0094315Y0031949D01*
X0096567Y0031198D02*
X0092063Y0031198D01*
X0094315Y0028946D01*
X0086567Y0029697D02*
X0085816Y0028946D01*
X0084315Y0028946D01*
X0084315Y0031198D01*
X0085065Y0031949D01*
X0085816Y0031949D01*
X0086567Y0031198D01*
X0086567Y0029697D01*
X0086567Y0027345D02*
X0086567Y0024342D01*
X0086567Y0025843D02*
X0082063Y0025843D01*
X0083564Y0024342D01*
X0084315Y0028946D02*
X0082813Y0030447D01*
X0082063Y0031949D01*
X0145755Y0056801D02*
X0146505Y0056050D01*
X0148007Y0056050D01*
X0148757Y0056801D01*
X0148757Y0057551D01*
X0148007Y0058302D01*
X0146505Y0058302D01*
X0145755Y0059053D01*
X0145755Y0059803D01*
X0146505Y0060554D01*
X0148007Y0060554D01*
X0148757Y0059803D01*
X0150359Y0060554D02*
X0150359Y0057551D01*
X0151860Y0056050D01*
X0153361Y0057551D01*
X0153361Y0060554D01*
X0154963Y0059053D02*
X0156464Y0060554D01*
X0156464Y0056050D01*
X0154963Y0056050D02*
X0157965Y0056050D01*
X0156567Y0030449D02*
X0156567Y0027446D01*
D13*
X0154317Y0022300D03*
X0144317Y0022300D03*
X0134317Y0022300D03*
X0124317Y0022300D03*
X0114317Y0022300D03*
X0104317Y0022300D03*
X0094317Y0022300D03*
X0084317Y0022300D03*
X0171324Y0022300D03*
X0181324Y0022300D03*
X0191324Y0022300D03*
X0201324Y0022300D03*
X0211324Y0022300D03*
X0221324Y0022300D03*
X0231324Y0022300D03*
X0241324Y0022300D03*
D14*
X0241324Y0036100D03*
X0231324Y0036100D03*
X0221324Y0036100D03*
X0211324Y0036100D03*
X0201324Y0036100D03*
X0191324Y0036100D03*
X0181324Y0036100D03*
X0171324Y0036100D03*
X0154317Y0036100D03*
X0144317Y0036100D03*
X0134317Y0036100D03*
X0124317Y0036100D03*
X0114317Y0036100D03*
X0104317Y0036100D03*
X0094317Y0036100D03*
X0084317Y0036100D03*
D15*
X0084317Y0045800D03*
X0094317Y0045800D03*
X0104317Y0045800D03*
X0114317Y0045800D03*
X0124317Y0045800D03*
X0134317Y0045800D03*
X0144317Y0045800D03*
X0154317Y0045800D03*
X0171324Y0045800D03*
X0181324Y0045800D03*
X0191324Y0045800D03*
X0201324Y0045800D03*
X0211324Y0045800D03*
X0221324Y0045800D03*
X0231324Y0045800D03*
X0241324Y0045800D03*
D16*
X0197012Y0125340D02*
X0197012Y0130044D01*
X0194660Y0127692D01*
X0197796Y0127692D01*
X0193192Y0126124D02*
X0193192Y0130044D01*
X0190056Y0130044D02*
X0190056Y0126124D01*
X0190840Y0125340D01*
X0192408Y0125340D01*
X0193192Y0126124D01*
X0190092Y0143624D02*
X0186956Y0146760D01*
X0186956Y0145192D02*
X0190092Y0145192D01*
X0190092Y0146760D02*
X0186956Y0143624D01*
X0188524Y0143624D02*
X0188524Y0146760D01*
X0154292Y0129260D02*
X0154292Y0128476D01*
X0153508Y0127692D01*
X0154292Y0126908D01*
X0154292Y0126124D01*
X0153508Y0125340D01*
X0151940Y0125340D01*
X0151156Y0126124D01*
X0149688Y0126124D02*
X0149688Y0130044D01*
X0151156Y0129260D02*
X0151940Y0130044D01*
X0153508Y0130044D01*
X0154292Y0129260D01*
X0153508Y0127692D02*
X0152724Y0127692D01*
X0149688Y0126124D02*
X0148904Y0125340D01*
X0147336Y0125340D01*
X0146552Y0126124D01*
X0146552Y0130044D01*
X0146588Y0143624D02*
X0143452Y0146760D01*
X0143452Y0145192D02*
X0146588Y0145192D01*
X0146588Y0146760D02*
X0143452Y0143624D01*
X0145020Y0143624D02*
X0145020Y0146760D01*
X0110788Y0129260D02*
X0110788Y0128476D01*
X0107652Y0125340D01*
X0110788Y0125340D01*
X0110788Y0129260D02*
X0110004Y0130044D01*
X0108436Y0130044D01*
X0107652Y0129260D01*
X0106184Y0130044D02*
X0106184Y0126124D01*
X0105400Y0125340D01*
X0103832Y0125340D01*
X0103048Y0126124D01*
X0103048Y0130044D01*
X0103084Y0143624D02*
X0099948Y0146760D01*
X0099948Y0145192D02*
X0103084Y0145192D01*
X0103084Y0146760D02*
X0099948Y0143624D01*
X0101516Y0143624D02*
X0101516Y0146760D01*
X0065716Y0130044D02*
X0065716Y0125340D01*
X0064148Y0125340D02*
X0067284Y0125340D01*
X0064148Y0128476D02*
X0065716Y0130044D01*
X0062680Y0130044D02*
X0062680Y0126124D01*
X0061896Y0125340D01*
X0060328Y0125340D01*
X0059544Y0126124D01*
X0059544Y0130044D01*
X0059580Y0143624D02*
X0056444Y0146760D01*
X0056444Y0145192D02*
X0059580Y0145192D01*
X0059580Y0146760D02*
X0056444Y0143624D01*
X0058012Y0143624D02*
X0058012Y0146760D01*
D17*
X0044498Y0140272D02*
X0041428Y0140272D01*
X0042963Y0140272D02*
X0042963Y0144876D01*
X0041428Y0143341D01*
X0039894Y0144108D02*
X0039126Y0144876D01*
X0037592Y0144876D01*
X0036824Y0144108D01*
X0036824Y0141039D01*
X0037592Y0140272D01*
X0039126Y0140272D01*
X0039894Y0141039D01*
X0085173Y0158165D02*
X0085941Y0157398D01*
X0087475Y0157398D01*
X0088243Y0158165D01*
X0089777Y0157398D02*
X0092846Y0157398D01*
X0091312Y0157398D02*
X0091312Y0162002D01*
X0089777Y0160467D01*
X0088243Y0161234D02*
X0087475Y0162002D01*
X0085941Y0162002D01*
X0085173Y0161234D01*
X0085173Y0158165D01*
X0094381Y0158165D02*
X0094381Y0161234D01*
X0095148Y0162002D01*
X0096683Y0162002D01*
X0097450Y0161234D01*
X0094381Y0158165D01*
X0095148Y0157398D01*
X0096683Y0157398D01*
X0097450Y0158165D01*
X0097450Y0161234D01*
X0247406Y0161516D02*
X0248174Y0160749D01*
X0251243Y0160749D01*
X0252010Y0161516D01*
X0252010Y0163051D01*
X0251243Y0163818D01*
X0251243Y0165353D02*
X0252010Y0166120D01*
X0252010Y0167655D01*
X0251243Y0168422D01*
X0249708Y0168422D01*
X0248941Y0167655D01*
X0248941Y0166887D01*
X0249708Y0165353D01*
X0247406Y0165353D01*
X0247406Y0168422D01*
X0248174Y0163818D02*
X0247406Y0163051D01*
X0247406Y0161516D01*
X0260635Y0166118D02*
X0261402Y0165350D01*
X0264471Y0165350D01*
X0265239Y0166118D01*
X0265239Y0167652D01*
X0264471Y0168420D01*
X0264471Y0169954D02*
X0263704Y0169954D01*
X0262937Y0170722D01*
X0262937Y0172256D01*
X0263704Y0173024D01*
X0264471Y0173024D01*
X0265239Y0172256D01*
X0265239Y0170722D01*
X0264471Y0169954D01*
X0262937Y0170722D02*
X0262169Y0169954D01*
X0261402Y0169954D01*
X0260635Y0170722D01*
X0260635Y0172256D01*
X0261402Y0173024D01*
X0262169Y0173024D01*
X0262937Y0172256D01*
X0261402Y0168420D02*
X0260635Y0167652D01*
X0260635Y0166118D01*
X0270221Y0162768D02*
X0274825Y0162768D01*
X0274825Y0161234D02*
X0274825Y0164303D01*
X0271756Y0161234D02*
X0270221Y0162768D01*
X0270221Y0159699D02*
X0270989Y0159699D01*
X0272523Y0158165D01*
X0274825Y0158165D01*
X0272523Y0158165D02*
X0270989Y0156630D01*
X0270221Y0156630D01*
X0269039Y0147236D02*
X0269039Y0144167D01*
X0266737Y0146469D01*
X0271341Y0146469D01*
X0270574Y0142632D02*
X0271341Y0141865D01*
X0271341Y0140330D01*
X0270574Y0139563D01*
X0267504Y0139563D01*
X0266737Y0140330D01*
X0266737Y0141865D01*
X0267504Y0142632D01*
X0259924Y0141865D02*
X0259924Y0140330D01*
X0259156Y0139563D01*
X0256087Y0139563D01*
X0255320Y0140330D01*
X0255320Y0141865D01*
X0256087Y0142632D01*
X0256087Y0144167D02*
X0255320Y0144934D01*
X0255320Y0146469D01*
X0256087Y0147236D01*
X0256854Y0147236D01*
X0257622Y0146469D01*
X0258389Y0147236D01*
X0259156Y0147236D01*
X0259924Y0146469D01*
X0259924Y0144934D01*
X0259156Y0144167D01*
X0259156Y0142632D02*
X0259924Y0141865D01*
X0257622Y0145702D02*
X0257622Y0146469D01*
X0311383Y0164666D02*
X0312150Y0163898D01*
X0315219Y0163898D01*
X0315987Y0164666D01*
X0315987Y0166200D01*
X0315219Y0166968D01*
X0315219Y0168502D02*
X0315987Y0168502D01*
X0315219Y0168502D02*
X0312150Y0171572D01*
X0311383Y0171572D01*
X0311383Y0168502D01*
X0312150Y0166968D02*
X0311383Y0166200D01*
X0311383Y0164666D01*
M02*
