G75*
%MOIN*%
%OFA0B0*%
%FSLAX25Y25*%
%IPPOS*%
%LPD*%
%AMOC8*
5,1,8,0,0,1.08239X$1,22.5*
%
%ADD10OC8,0.06000*%
%ADD11OC8,0.05400*%
%ADD12R,0.06300X0.04600*%
%ADD13C,0.05400*%
%ADD14R,0.05800X0.01400*%
%ADD15R,0.04134X0.03740*%
%ADD16R,0.04331X0.03937*%
%ADD17R,0.03937X0.04331*%
%ADD18C,0.06000*%
%ADD19R,0.07087X0.04724*%
%ADD20C,0.01200*%
%ADD21C,0.04134*%
%ADD22C,0.01000*%
%ADD23C,0.01600*%
D10*
X0084317Y0040800D03*
X0094317Y0040800D03*
X0104317Y0040800D03*
X0114317Y0040800D03*
X0124317Y0040800D03*
X0134317Y0040800D03*
X0144317Y0040800D03*
X0154317Y0040800D03*
X0154317Y0050800D03*
X0144317Y0050800D03*
X0134317Y0050800D03*
X0124317Y0050800D03*
X0114317Y0050800D03*
X0104317Y0050800D03*
X0094317Y0050800D03*
X0084317Y0050800D03*
X0171324Y0050800D03*
X0181324Y0050800D03*
X0191324Y0050800D03*
X0201324Y0050800D03*
X0211324Y0050800D03*
X0221324Y0050800D03*
X0231324Y0050800D03*
X0241324Y0050800D03*
X0241324Y0040800D03*
X0231324Y0040800D03*
X0221324Y0040800D03*
X0211324Y0040800D03*
X0201324Y0040800D03*
X0191324Y0040800D03*
X0181324Y0040800D03*
X0171324Y0040800D03*
X0296009Y0186784D03*
X0296009Y0196784D03*
X0306009Y0196784D03*
X0306009Y0206784D03*
X0296009Y0206784D03*
D11*
X0211757Y0196666D03*
X0201757Y0196666D03*
X0191757Y0196666D03*
X0181757Y0196666D03*
X0171757Y0196666D03*
X0161757Y0196666D03*
X0151757Y0196666D03*
X0141757Y0196666D03*
X0131757Y0196666D03*
X0121757Y0196666D03*
X0111757Y0196666D03*
X0101757Y0196666D03*
X0091757Y0196666D03*
X0081757Y0196666D03*
X0071757Y0196666D03*
X0061757Y0196666D03*
X0051757Y0196666D03*
X0041757Y0196666D03*
X0031757Y0196666D03*
X0021757Y0196666D03*
X0031757Y0186666D03*
X0041757Y0186666D03*
X0051757Y0186666D03*
X0061757Y0186666D03*
X0071757Y0186666D03*
X0081757Y0186666D03*
X0091757Y0186666D03*
X0101757Y0186666D03*
X0111757Y0186666D03*
X0121757Y0186666D03*
X0131757Y0186666D03*
X0141757Y0186666D03*
X0151757Y0186666D03*
X0161757Y0186666D03*
X0171757Y0186666D03*
X0181757Y0186666D03*
X0191757Y0186666D03*
X0201757Y0186666D03*
X0211757Y0186666D03*
X0027072Y0131981D03*
X0017072Y0131981D03*
X0017072Y0121981D03*
X0027072Y0121981D03*
X0027072Y0111981D03*
X0017072Y0111981D03*
X0017072Y0101981D03*
X0027072Y0101981D03*
X0027072Y0091981D03*
X0017072Y0091981D03*
X0017072Y0081981D03*
X0027072Y0081981D03*
X0027072Y0071981D03*
X0017072Y0071981D03*
X0017072Y0061981D03*
X0027072Y0061981D03*
D12*
X0022072Y0163076D03*
X0022072Y0169076D03*
X0037427Y0169076D03*
X0037427Y0163076D03*
X0052781Y0163076D03*
X0052781Y0169076D03*
X0068135Y0169076D03*
X0068135Y0163076D03*
X0060458Y0209139D03*
X0060458Y0215139D03*
X0045104Y0215139D03*
X0045104Y0209139D03*
X0029750Y0209139D03*
X0029750Y0215139D03*
X0075813Y0215139D03*
X0075813Y0209139D03*
X0136639Y0169076D03*
X0136639Y0163076D03*
X0153175Y0163076D03*
X0153175Y0169076D03*
X0168135Y0169076D03*
X0168135Y0163076D03*
X0183883Y0163076D03*
X0183883Y0169076D03*
X0178175Y0209139D03*
X0178175Y0215139D03*
X0162820Y0215139D03*
X0162820Y0209139D03*
X0193529Y0209139D03*
X0193529Y0215139D03*
X0208883Y0215139D03*
X0208883Y0209139D03*
D13*
X0021757Y0186666D03*
D14*
X0059594Y0141765D03*
X0059594Y0139206D03*
X0059594Y0136646D03*
X0059594Y0134087D03*
X0059594Y0131528D03*
X0059594Y0128969D03*
X0059594Y0126410D03*
X0059594Y0123851D03*
X0059594Y0121292D03*
X0059594Y0118733D03*
X0059594Y0116174D03*
X0059594Y0113615D03*
X0081794Y0113615D03*
X0081794Y0116174D03*
X0081794Y0118733D03*
X0081794Y0121292D03*
X0081794Y0123851D03*
X0081794Y0126410D03*
X0081794Y0128969D03*
X0081794Y0131528D03*
X0081794Y0134087D03*
X0081794Y0136646D03*
X0081794Y0139205D03*
X0081794Y0141765D03*
X0103098Y0141765D03*
X0103098Y0139206D03*
X0103098Y0136646D03*
X0103098Y0134087D03*
X0103098Y0131528D03*
X0103098Y0128969D03*
X0103098Y0126410D03*
X0103098Y0123851D03*
X0103098Y0121292D03*
X0103098Y0118733D03*
X0103098Y0116174D03*
X0103098Y0113615D03*
X0125298Y0113615D03*
X0125298Y0116174D03*
X0125298Y0118733D03*
X0125298Y0121292D03*
X0125298Y0123851D03*
X0125298Y0126410D03*
X0125298Y0128969D03*
X0125298Y0131528D03*
X0125298Y0134087D03*
X0125298Y0136646D03*
X0125298Y0139205D03*
X0125298Y0141765D03*
X0146602Y0141765D03*
X0146602Y0139206D03*
X0146602Y0136646D03*
X0146602Y0134087D03*
X0146602Y0131528D03*
X0146602Y0128969D03*
X0146602Y0126410D03*
X0146602Y0123851D03*
X0146602Y0121292D03*
X0146602Y0118733D03*
X0146602Y0116174D03*
X0146602Y0113615D03*
X0168802Y0113615D03*
X0168802Y0116174D03*
X0168802Y0118733D03*
X0168802Y0121292D03*
X0168802Y0123851D03*
X0168802Y0126410D03*
X0168802Y0128969D03*
X0168802Y0131528D03*
X0168802Y0134087D03*
X0168802Y0136646D03*
X0168802Y0139205D03*
X0168802Y0141765D03*
X0190106Y0141765D03*
X0190106Y0139206D03*
X0190106Y0136646D03*
X0190106Y0134087D03*
X0190106Y0131528D03*
X0190106Y0128969D03*
X0190106Y0126410D03*
X0190106Y0123851D03*
X0190106Y0121292D03*
X0190106Y0118733D03*
X0190106Y0116174D03*
X0190106Y0113615D03*
X0212306Y0113615D03*
X0212306Y0116174D03*
X0212306Y0118733D03*
X0212306Y0121292D03*
X0212306Y0123851D03*
X0212306Y0126410D03*
X0212306Y0128969D03*
X0212306Y0131528D03*
X0212306Y0134087D03*
X0212306Y0136646D03*
X0212306Y0139205D03*
X0212306Y0141765D03*
D15*
X0047269Y0139304D03*
X0039986Y0139304D03*
X0039986Y0133595D03*
X0047269Y0133595D03*
D16*
X0046679Y0147572D03*
X0039986Y0147572D03*
X0092939Y0164698D03*
X0099631Y0164698D03*
D17*
X0244710Y0163910D03*
X0244710Y0170603D03*
X0267939Y0170997D03*
X0267939Y0164304D03*
X0262624Y0145209D03*
X0262624Y0138517D03*
X0274041Y0138517D03*
X0274041Y0145209D03*
X0308687Y0167060D03*
X0308687Y0173753D03*
D18*
X0306009Y0186784D03*
D19*
X0296285Y0173753D03*
X0296285Y0164304D03*
X0280537Y0164304D03*
X0280537Y0173753D03*
D20*
X0006922Y0221776D02*
X0006730Y0030455D01*
X0316551Y0030455D01*
X0316551Y0221970D01*
X0006922Y0221776D01*
X0006921Y0220847D02*
X0316551Y0220847D01*
X0316551Y0219648D02*
X0006920Y0219648D01*
X0006918Y0218450D02*
X0025487Y0218450D01*
X0025098Y0218061D02*
X0025098Y0216632D01*
X0016819Y0216632D01*
X0011218Y0211031D01*
X0010343Y0210156D01*
X0010343Y0168016D01*
X0015461Y0162898D01*
X0016336Y0162023D01*
X0017421Y0162023D01*
X0017421Y0160154D01*
X0018300Y0159274D01*
X0025844Y0159274D01*
X0026724Y0160154D01*
X0026724Y0161582D01*
X0032775Y0161582D01*
X0032775Y0160154D01*
X0033655Y0159274D01*
X0041199Y0159274D01*
X0042078Y0160154D01*
X0042078Y0161582D01*
X0048130Y0161582D01*
X0048130Y0160154D01*
X0049009Y0159274D01*
X0056553Y0159274D01*
X0057433Y0160154D01*
X0057433Y0161582D01*
X0063484Y0161582D01*
X0063484Y0160154D01*
X0064363Y0159274D01*
X0071907Y0159274D01*
X0072787Y0160154D01*
X0072787Y0161582D01*
X0078549Y0161582D01*
X0086668Y0169700D01*
X0116139Y0169700D01*
X0121661Y0164177D01*
X0122941Y0162898D01*
X0124257Y0161582D01*
X0131988Y0161582D01*
X0131988Y0160154D01*
X0132867Y0159274D01*
X0140411Y0159274D01*
X0141291Y0160154D01*
X0141291Y0161582D01*
X0148523Y0161582D01*
X0148523Y0160154D01*
X0149403Y0159274D01*
X0156947Y0159274D01*
X0157826Y0160154D01*
X0157826Y0161582D01*
X0163484Y0161582D01*
X0163484Y0160154D01*
X0164363Y0159274D01*
X0171907Y0159274D01*
X0172787Y0160154D01*
X0172787Y0161582D01*
X0179232Y0161582D01*
X0179232Y0160154D01*
X0180111Y0159274D01*
X0187655Y0159274D01*
X0188535Y0160154D01*
X0188535Y0161582D01*
X0209061Y0161582D01*
X0209936Y0162457D01*
X0243473Y0195993D01*
X0244000Y0195775D01*
X0245420Y0195775D01*
X0246732Y0196318D01*
X0247735Y0197322D01*
X0248279Y0198633D01*
X0248279Y0200053D01*
X0247735Y0201365D01*
X0246732Y0202369D01*
X0245420Y0202912D01*
X0244000Y0202912D01*
X0243473Y0202693D01*
X0229534Y0216632D01*
X0213535Y0216632D01*
X0213535Y0218061D01*
X0212655Y0218940D01*
X0205111Y0218940D01*
X0204232Y0218061D01*
X0204232Y0216632D01*
X0198181Y0216632D01*
X0198181Y0218061D01*
X0197301Y0218940D01*
X0189757Y0218940D01*
X0188878Y0218061D01*
X0188878Y0216632D01*
X0182826Y0216632D01*
X0182826Y0218061D01*
X0181947Y0218940D01*
X0174403Y0218940D01*
X0173523Y0218061D01*
X0173523Y0216632D01*
X0167472Y0216632D01*
X0167472Y0218061D01*
X0166592Y0218940D01*
X0159048Y0218940D01*
X0158169Y0218061D01*
X0158169Y0212217D01*
X0158247Y0212139D01*
X0158169Y0212061D01*
X0158169Y0206217D01*
X0159048Y0205337D01*
X0161327Y0205337D01*
X0161327Y0203843D01*
X0162202Y0202968D01*
X0164761Y0200409D01*
X0169558Y0200409D01*
X0167556Y0198406D01*
X0167556Y0194926D01*
X0168813Y0193669D01*
X0166139Y0190994D01*
X0165264Y0190119D01*
X0165264Y0189102D01*
X0163498Y0190868D01*
X0160017Y0190868D01*
X0157556Y0188406D01*
X0157556Y0184926D01*
X0160017Y0182465D01*
X0163498Y0182465D01*
X0165264Y0184231D01*
X0165264Y0178252D01*
X0166642Y0176874D01*
X0166642Y0172877D01*
X0164363Y0172877D01*
X0163484Y0171998D01*
X0163484Y0166154D01*
X0163562Y0166076D01*
X0163484Y0165998D01*
X0163484Y0164569D01*
X0157826Y0164569D01*
X0157826Y0165998D01*
X0157748Y0166076D01*
X0157826Y0166154D01*
X0157826Y0171998D01*
X0156947Y0172877D01*
X0154668Y0172877D01*
X0154668Y0173190D01*
X0148172Y0179686D01*
X0148172Y0184309D01*
X0150017Y0182465D01*
X0153498Y0182465D01*
X0155959Y0184926D01*
X0155959Y0188406D01*
X0153498Y0190868D01*
X0150017Y0190868D01*
X0148172Y0189023D01*
X0148172Y0189529D01*
X0144367Y0193334D01*
X0145959Y0194926D01*
X0145959Y0198406D01*
X0143498Y0200868D01*
X0140017Y0200868D01*
X0137556Y0198406D01*
X0137556Y0194926D01*
X0140017Y0192465D01*
X0141012Y0192465D01*
X0142510Y0190966D01*
X0142057Y0190966D01*
X0142057Y0186966D01*
X0141457Y0186966D01*
X0141457Y0190966D01*
X0139976Y0190966D01*
X0138133Y0189123D01*
X0138133Y0189726D01*
X0137258Y0190601D01*
X0134446Y0193413D01*
X0135959Y0194926D01*
X0135959Y0198406D01*
X0133498Y0200868D01*
X0130017Y0200868D01*
X0127556Y0198406D01*
X0127556Y0194926D01*
X0130017Y0192465D01*
X0131169Y0192465D01*
X0132766Y0190868D01*
X0130017Y0190868D01*
X0127556Y0188406D01*
X0127556Y0184926D01*
X0130017Y0182465D01*
X0133498Y0182465D01*
X0135146Y0184112D01*
X0135146Y0172877D01*
X0132867Y0172877D01*
X0131988Y0171998D01*
X0131988Y0166154D01*
X0132066Y0166076D01*
X0131988Y0165998D01*
X0131988Y0164569D01*
X0125494Y0164569D01*
X0125053Y0165010D01*
X0123774Y0166290D01*
X0117376Y0172687D01*
X0085430Y0172687D01*
X0084555Y0171812D01*
X0077312Y0164569D01*
X0072787Y0164569D01*
X0072787Y0165998D01*
X0072709Y0166076D01*
X0072787Y0166154D01*
X0072787Y0167582D01*
X0074786Y0167582D01*
X0089843Y0182639D01*
X0090017Y0182465D01*
X0093498Y0182465D01*
X0095959Y0184926D01*
X0095959Y0188406D01*
X0093498Y0190868D01*
X0090017Y0190868D01*
X0087556Y0188406D01*
X0087556Y0184926D01*
X0087730Y0184751D01*
X0073548Y0170569D01*
X0072787Y0170569D01*
X0072787Y0171998D01*
X0071907Y0172877D01*
X0064363Y0172877D01*
X0063484Y0171998D01*
X0063484Y0166154D01*
X0063562Y0166076D01*
X0063484Y0165998D01*
X0063484Y0164569D01*
X0057433Y0164569D01*
X0057433Y0165998D01*
X0057355Y0166076D01*
X0057433Y0166154D01*
X0057433Y0171998D01*
X0056553Y0172877D01*
X0054275Y0172877D01*
X0054275Y0173134D01*
X0055959Y0174818D01*
X0072022Y0174818D01*
X0079843Y0182639D01*
X0080017Y0182465D01*
X0083498Y0182465D01*
X0085959Y0184926D01*
X0085959Y0188406D01*
X0083498Y0190868D01*
X0080017Y0190868D01*
X0077556Y0188406D01*
X0077556Y0184926D01*
X0077730Y0184751D01*
X0070784Y0177805D01*
X0065009Y0177805D01*
X0065456Y0178252D01*
X0069843Y0182639D01*
X0070017Y0182465D01*
X0073498Y0182465D01*
X0075959Y0184926D01*
X0075959Y0188406D01*
X0073498Y0190868D01*
X0070017Y0190868D01*
X0067556Y0188406D01*
X0067556Y0184926D01*
X0067730Y0184751D01*
X0063344Y0180365D01*
X0048710Y0180365D01*
X0049157Y0180811D01*
X0050810Y0182465D01*
X0053498Y0182465D01*
X0055959Y0184926D01*
X0055959Y0188406D01*
X0053498Y0190868D01*
X0050017Y0190868D01*
X0047556Y0188406D01*
X0047556Y0184926D01*
X0048301Y0184181D01*
X0047044Y0182924D01*
X0043957Y0182924D01*
X0045959Y0184926D01*
X0045959Y0188406D01*
X0045785Y0188581D01*
X0048369Y0191166D01*
X0048369Y0192403D01*
X0048369Y0194112D01*
X0050017Y0192465D01*
X0053498Y0192465D01*
X0055959Y0194926D01*
X0055959Y0198406D01*
X0055844Y0198522D01*
X0061077Y0203755D01*
X0061952Y0204630D01*
X0061952Y0205337D01*
X0064230Y0205337D01*
X0065110Y0206217D01*
X0065110Y0212061D01*
X0065032Y0212139D01*
X0065110Y0212217D01*
X0065110Y0213645D01*
X0071161Y0213645D01*
X0071161Y0212217D01*
X0071239Y0212139D01*
X0071161Y0212061D01*
X0071161Y0206217D01*
X0072041Y0205337D01*
X0074319Y0205337D01*
X0074319Y0205080D01*
X0072635Y0203396D01*
X0066336Y0203396D01*
X0065461Y0202521D01*
X0063653Y0200713D01*
X0063498Y0200868D01*
X0060017Y0200868D01*
X0057556Y0198406D01*
X0057556Y0194926D01*
X0060017Y0192465D01*
X0063498Y0192465D01*
X0065959Y0194926D01*
X0065959Y0198406D01*
X0065765Y0198601D01*
X0067573Y0200409D01*
X0069558Y0200409D01*
X0067556Y0198406D01*
X0067556Y0194926D01*
X0070017Y0192465D01*
X0073498Y0192465D01*
X0075959Y0194926D01*
X0075959Y0198406D01*
X0073915Y0200451D01*
X0076431Y0202968D01*
X0077306Y0203843D01*
X0077306Y0205337D01*
X0079585Y0205337D01*
X0080464Y0206217D01*
X0080464Y0212061D01*
X0080386Y0212139D01*
X0080464Y0212217D01*
X0080464Y0218061D01*
X0079585Y0218940D01*
X0072041Y0218940D01*
X0071161Y0218061D01*
X0071161Y0216632D01*
X0065110Y0216632D01*
X0065110Y0218061D01*
X0064230Y0218940D01*
X0056686Y0218940D01*
X0055807Y0218061D01*
X0055807Y0216632D01*
X0049755Y0216632D01*
X0049755Y0218061D01*
X0048876Y0218940D01*
X0041332Y0218940D01*
X0040452Y0218061D01*
X0040452Y0216632D01*
X0034401Y0216632D01*
X0034401Y0218061D01*
X0033522Y0218940D01*
X0025978Y0218940D01*
X0025098Y0218061D01*
X0025098Y0217251D02*
X0006917Y0217251D01*
X0006916Y0216053D02*
X0016239Y0216053D01*
X0015041Y0214854D02*
X0006915Y0214854D01*
X0006914Y0213656D02*
X0013842Y0213656D01*
X0012644Y0212457D02*
X0006912Y0212457D01*
X0006911Y0211259D02*
X0011445Y0211259D01*
X0010343Y0210060D02*
X0006910Y0210060D01*
X0006909Y0208862D02*
X0010343Y0208862D01*
X0010343Y0207663D02*
X0006908Y0207663D01*
X0006906Y0206465D02*
X0010343Y0206465D01*
X0010343Y0205266D02*
X0006905Y0205266D01*
X0006904Y0204068D02*
X0010343Y0204068D01*
X0010343Y0202869D02*
X0006903Y0202869D01*
X0006902Y0201671D02*
X0010343Y0201671D01*
X0010343Y0200472D02*
X0006900Y0200472D01*
X0006899Y0199274D02*
X0010343Y0199274D01*
X0010343Y0198075D02*
X0006898Y0198075D01*
X0006897Y0196877D02*
X0010343Y0196877D01*
X0010343Y0195678D02*
X0006896Y0195678D01*
X0006894Y0194480D02*
X0010343Y0194480D01*
X0010343Y0193281D02*
X0006893Y0193281D01*
X0006892Y0192083D02*
X0010343Y0192083D01*
X0010343Y0190884D02*
X0006891Y0190884D01*
X0006890Y0189686D02*
X0010343Y0189686D01*
X0010343Y0188487D02*
X0006888Y0188487D01*
X0006887Y0187289D02*
X0010343Y0187289D01*
X0010343Y0186090D02*
X0006886Y0186090D01*
X0006885Y0184892D02*
X0010343Y0184892D01*
X0010343Y0183693D02*
X0006884Y0183693D01*
X0006882Y0182495D02*
X0010343Y0182495D01*
X0010343Y0181296D02*
X0006881Y0181296D01*
X0006880Y0180098D02*
X0010343Y0180098D01*
X0010343Y0178899D02*
X0006879Y0178899D01*
X0006878Y0177701D02*
X0010343Y0177701D01*
X0010343Y0176502D02*
X0006876Y0176502D01*
X0006875Y0175304D02*
X0010343Y0175304D01*
X0010343Y0174105D02*
X0006874Y0174105D01*
X0006873Y0172906D02*
X0010343Y0172906D01*
X0010343Y0171708D02*
X0006872Y0171708D01*
X0006870Y0170509D02*
X0010343Y0170509D01*
X0010343Y0169311D02*
X0006869Y0169311D01*
X0006868Y0168112D02*
X0010343Y0168112D01*
X0011445Y0166914D02*
X0006867Y0166914D01*
X0006866Y0165715D02*
X0012643Y0165715D01*
X0013842Y0164517D02*
X0006864Y0164517D01*
X0006863Y0163318D02*
X0015040Y0163318D01*
X0016239Y0162120D02*
X0006862Y0162120D01*
X0006861Y0160921D02*
X0017421Y0160921D01*
X0017852Y0159723D02*
X0006860Y0159723D01*
X0006858Y0158524D02*
X0045677Y0158524D01*
X0046257Y0159105D02*
X0039367Y0152215D01*
X0038492Y0151340D01*
X0038492Y0151042D01*
X0037198Y0151042D01*
X0036319Y0150162D01*
X0036319Y0149065D01*
X0031099Y0149065D01*
X0030224Y0148190D01*
X0025579Y0143545D01*
X0025579Y0136183D01*
X0025332Y0136183D01*
X0022871Y0133721D01*
X0022871Y0130241D01*
X0025332Y0127780D01*
X0028813Y0127780D01*
X0031274Y0130241D01*
X0031274Y0133721D01*
X0028813Y0136183D01*
X0028566Y0136183D01*
X0028566Y0142307D01*
X0032337Y0146078D01*
X0036319Y0146078D01*
X0036319Y0144981D01*
X0037198Y0144102D01*
X0038492Y0144102D01*
X0038492Y0142676D01*
X0037297Y0142676D01*
X0036417Y0141796D01*
X0036417Y0136812D01*
X0036780Y0136450D01*
X0036417Y0136087D01*
X0036417Y0131103D01*
X0037297Y0130224D01*
X0042675Y0130224D01*
X0043554Y0131103D01*
X0043554Y0136087D01*
X0043192Y0136450D01*
X0043554Y0136812D01*
X0043554Y0141796D01*
X0042675Y0142676D01*
X0041480Y0142676D01*
X0041480Y0144102D01*
X0042773Y0144102D01*
X0043263Y0144591D01*
X0043531Y0144323D01*
X0043896Y0144112D01*
X0044303Y0144003D01*
X0046294Y0144003D01*
X0046294Y0147187D01*
X0047063Y0147187D01*
X0047063Y0144003D01*
X0049055Y0144003D01*
X0049462Y0144112D01*
X0049827Y0144323D01*
X0050124Y0144621D01*
X0050335Y0144986D01*
X0050444Y0145392D01*
X0050444Y0147187D01*
X0047063Y0147187D01*
X0047063Y0147956D01*
X0046294Y0147956D01*
X0046294Y0151140D01*
X0044303Y0151140D01*
X0043896Y0151031D01*
X0043531Y0150820D01*
X0043263Y0150552D01*
X0042773Y0151042D01*
X0042419Y0151042D01*
X0047494Y0156117D01*
X0087114Y0156117D01*
X0087114Y0142685D01*
X0086294Y0141866D01*
X0086294Y0142675D01*
X0086185Y0143082D01*
X0085975Y0143447D01*
X0085677Y0143745D01*
X0085312Y0143956D01*
X0084905Y0144065D01*
X0081795Y0144065D01*
X0081795Y0141765D01*
X0081794Y0141765D01*
X0081794Y0144065D01*
X0079252Y0144065D01*
X0078838Y0145065D01*
X0077834Y0146069D01*
X0076522Y0146613D01*
X0075103Y0146613D01*
X0073791Y0146069D01*
X0072787Y0145065D01*
X0072244Y0143754D01*
X0072244Y0142334D01*
X0072787Y0141023D01*
X0073513Y0140297D01*
X0071355Y0138140D01*
X0063996Y0138140D01*
X0063996Y0143087D01*
X0063116Y0143966D01*
X0061088Y0143966D01*
X0061088Y0144121D01*
X0061780Y0144812D01*
X0062307Y0144594D01*
X0063727Y0144594D01*
X0065039Y0145137D01*
X0066043Y0146141D01*
X0066586Y0147452D01*
X0066586Y0148872D01*
X0066043Y0150184D01*
X0065039Y0151187D01*
X0063727Y0151731D01*
X0062307Y0151731D01*
X0060996Y0151187D01*
X0059992Y0150184D01*
X0059449Y0148872D01*
X0059449Y0147452D01*
X0059667Y0146925D01*
X0058101Y0145358D01*
X0058101Y0143966D01*
X0056073Y0143966D01*
X0055193Y0143087D01*
X0055193Y0140699D01*
X0050838Y0140699D01*
X0050838Y0141796D01*
X0049958Y0142676D01*
X0044580Y0142676D01*
X0043701Y0141796D01*
X0043701Y0136812D01*
X0043993Y0136519D01*
X0043922Y0136448D01*
X0043711Y0136083D01*
X0043602Y0135676D01*
X0043602Y0133930D01*
X0046934Y0133930D01*
X0046934Y0133260D01*
X0047604Y0133260D01*
X0047604Y0130125D01*
X0049547Y0130125D01*
X0049954Y0130234D01*
X0050319Y0130445D01*
X0050617Y0130743D01*
X0050827Y0131108D01*
X0050936Y0131515D01*
X0050936Y0133260D01*
X0047604Y0133260D01*
X0047604Y0133930D01*
X0050936Y0133930D01*
X0050936Y0135676D01*
X0050827Y0136083D01*
X0050617Y0136448D01*
X0050545Y0136519D01*
X0050838Y0136812D01*
X0050838Y0137712D01*
X0055193Y0137712D01*
X0055193Y0135365D01*
X0055094Y0134998D01*
X0055094Y0134087D01*
X0055094Y0133177D01*
X0055193Y0132809D01*
X0055193Y0125129D01*
X0055094Y0124762D01*
X0055094Y0123851D01*
X0055094Y0122941D01*
X0055136Y0122786D01*
X0053425Y0122786D01*
X0053247Y0123215D01*
X0052243Y0124219D01*
X0050932Y0124762D01*
X0049512Y0124762D01*
X0048201Y0124219D01*
X0047197Y0123215D01*
X0046654Y0121904D01*
X0046654Y0120484D01*
X0047197Y0119172D01*
X0048201Y0118168D01*
X0049512Y0117625D01*
X0049659Y0117625D01*
X0046332Y0114298D01*
X0046332Y0081008D01*
X0076878Y0050462D01*
X0076878Y0045181D01*
X0077753Y0044306D01*
X0079815Y0042244D01*
X0079815Y0038935D01*
X0082452Y0036298D01*
X0086181Y0036298D01*
X0088818Y0038935D01*
X0088818Y0042665D01*
X0086181Y0045302D01*
X0082452Y0045302D01*
X0081717Y0044567D01*
X0079865Y0046419D01*
X0079865Y0048885D01*
X0082452Y0046298D01*
X0086181Y0046298D01*
X0087508Y0047625D01*
X0087508Y0045496D01*
X0090077Y0042927D01*
X0089815Y0042665D01*
X0089815Y0038935D01*
X0092452Y0036298D01*
X0096181Y0036298D01*
X0098818Y0038935D01*
X0098818Y0042665D01*
X0096181Y0045302D01*
X0092452Y0045302D01*
X0092190Y0045039D01*
X0090495Y0046734D01*
X0090495Y0048255D01*
X0092452Y0046298D01*
X0096181Y0046298D01*
X0097744Y0047861D01*
X0097744Y0045260D01*
X0100077Y0042927D01*
X0099815Y0042665D01*
X0099815Y0038935D01*
X0102452Y0036298D01*
X0106181Y0036298D01*
X0108818Y0038935D01*
X0108818Y0042665D01*
X0106181Y0045302D01*
X0102452Y0045302D01*
X0102190Y0045039D01*
X0100731Y0046497D01*
X0100731Y0048019D01*
X0102452Y0046298D01*
X0106181Y0046298D01*
X0107783Y0047901D01*
X0107783Y0045221D01*
X0110077Y0042927D01*
X0109815Y0042665D01*
X0109815Y0038935D01*
X0112452Y0036298D01*
X0116181Y0036298D01*
X0118818Y0038935D01*
X0118818Y0042665D01*
X0116181Y0045302D01*
X0112452Y0045302D01*
X0112190Y0045039D01*
X0110771Y0046458D01*
X0110771Y0047980D01*
X0112452Y0046298D01*
X0116181Y0046298D01*
X0117823Y0047940D01*
X0117823Y0045181D01*
X0118698Y0044306D01*
X0120077Y0042927D01*
X0119815Y0042665D01*
X0119815Y0038935D01*
X0122452Y0036298D01*
X0126181Y0036298D01*
X0128818Y0038935D01*
X0128818Y0042665D01*
X0126181Y0045302D01*
X0122452Y0045302D01*
X0122190Y0045039D01*
X0120810Y0046419D01*
X0120810Y0047940D01*
X0122452Y0046298D01*
X0126181Y0046298D01*
X0128059Y0048176D01*
X0128059Y0044945D01*
X0128934Y0044070D01*
X0130077Y0042927D01*
X0129815Y0042665D01*
X0129815Y0038935D01*
X0132452Y0036298D01*
X0136181Y0036298D01*
X0138818Y0038935D01*
X0138818Y0042665D01*
X0136181Y0045302D01*
X0132452Y0045302D01*
X0132190Y0045039D01*
X0131046Y0046182D01*
X0131046Y0047704D01*
X0132452Y0046298D01*
X0136181Y0046298D01*
X0137705Y0047822D01*
X0137705Y0045299D01*
X0140077Y0042927D01*
X0139815Y0042665D01*
X0139815Y0038935D01*
X0142452Y0036298D01*
X0146181Y0036298D01*
X0148818Y0038935D01*
X0148818Y0042665D01*
X0146181Y0045302D01*
X0142452Y0045302D01*
X0142190Y0045039D01*
X0140692Y0046537D01*
X0140692Y0048058D01*
X0142452Y0046298D01*
X0146181Y0046298D01*
X0147744Y0047861D01*
X0147744Y0045260D01*
X0150077Y0042927D01*
X0149815Y0042665D01*
X0149815Y0038935D01*
X0152452Y0036298D01*
X0156181Y0036298D01*
X0158818Y0038935D01*
X0158818Y0042665D01*
X0156181Y0045302D01*
X0152452Y0045302D01*
X0152190Y0045039D01*
X0150731Y0046497D01*
X0150731Y0048019D01*
X0152452Y0046298D01*
X0156181Y0046298D01*
X0158818Y0048935D01*
X0158818Y0052665D01*
X0156181Y0055302D01*
X0155431Y0055302D01*
X0154935Y0055798D01*
X0129295Y0081438D01*
X0129295Y0086934D01*
X0133605Y0091244D01*
X0140408Y0098046D01*
X0150644Y0098046D01*
X0151519Y0098921D01*
X0153203Y0100606D01*
X0176234Y0100606D01*
X0177109Y0101480D01*
X0183912Y0108283D01*
X0194148Y0108283D01*
X0195023Y0109158D01*
X0197986Y0112121D01*
X0208076Y0112121D01*
X0208784Y0111413D01*
X0215828Y0111413D01*
X0216708Y0112293D01*
X0216708Y0114680D01*
X0265843Y0114680D01*
X0278059Y0102465D01*
X0278059Y0102465D01*
X0278934Y0101590D01*
X0296241Y0101590D01*
X0296213Y0101562D01*
X0295994Y0101034D01*
X0258978Y0101034D01*
X0258759Y0101562D01*
X0257755Y0102565D01*
X0256444Y0103109D01*
X0255024Y0103109D01*
X0253712Y0102565D01*
X0252709Y0101562D01*
X0252490Y0101034D01*
X0215474Y0101034D01*
X0215255Y0101562D01*
X0214251Y0102565D01*
X0212940Y0103109D01*
X0211520Y0103109D01*
X0210209Y0102565D01*
X0209205Y0101562D01*
X0208986Y0101034D01*
X0184765Y0101034D01*
X0184546Y0101562D01*
X0183543Y0102565D01*
X0182231Y0103109D01*
X0180811Y0103109D01*
X0179500Y0102565D01*
X0178496Y0101562D01*
X0177953Y0100250D01*
X0177953Y0098830D01*
X0178496Y0097519D01*
X0179500Y0096515D01*
X0180811Y0095972D01*
X0182231Y0095972D01*
X0183543Y0096515D01*
X0184546Y0097519D01*
X0184765Y0098046D01*
X0208986Y0098046D01*
X0209205Y0097519D01*
X0210209Y0096515D01*
X0211520Y0095972D01*
X0212940Y0095972D01*
X0214251Y0096515D01*
X0215255Y0097519D01*
X0215474Y0098046D01*
X0252490Y0098046D01*
X0252709Y0097519D01*
X0253712Y0096515D01*
X0255024Y0095972D01*
X0256444Y0095972D01*
X0257755Y0096515D01*
X0258759Y0097519D01*
X0258978Y0098046D01*
X0295994Y0098046D01*
X0296213Y0097519D01*
X0297216Y0096515D01*
X0298528Y0095972D01*
X0299948Y0095972D01*
X0301259Y0096515D01*
X0302263Y0097519D01*
X0302806Y0098830D01*
X0302806Y0099431D01*
X0302848Y0099388D01*
X0302848Y0083019D01*
X0294010Y0074181D01*
X0293798Y0074691D01*
X0292795Y0075695D01*
X0291483Y0076239D01*
X0290063Y0076239D01*
X0288752Y0075695D01*
X0287748Y0074691D01*
X0287205Y0073380D01*
X0287205Y0071960D01*
X0287748Y0070649D01*
X0288072Y0070325D01*
X0278597Y0070325D01*
X0271881Y0077041D01*
X0272322Y0077224D01*
X0273326Y0078227D01*
X0273869Y0079539D01*
X0273869Y0080959D01*
X0273326Y0082270D01*
X0272322Y0083274D01*
X0271011Y0083817D01*
X0269591Y0083817D01*
X0268748Y0083468D01*
X0268751Y0083476D01*
X0268751Y0084896D01*
X0268748Y0084904D01*
X0269591Y0084554D01*
X0271011Y0084554D01*
X0272322Y0085098D01*
X0273326Y0086101D01*
X0273869Y0087413D01*
X0273869Y0088833D01*
X0273326Y0090144D01*
X0272322Y0091148D01*
X0271011Y0091691D01*
X0269591Y0091691D01*
X0268279Y0091148D01*
X0267276Y0090144D01*
X0267057Y0089617D01*
X0230041Y0089617D01*
X0229822Y0090144D01*
X0228818Y0091148D01*
X0227507Y0091691D01*
X0226087Y0091691D01*
X0224775Y0091148D01*
X0223772Y0090144D01*
X0223553Y0089617D01*
X0186537Y0089617D01*
X0186318Y0090144D01*
X0185314Y0091148D01*
X0184003Y0091691D01*
X0182583Y0091691D01*
X0181272Y0091148D01*
X0180268Y0090144D01*
X0180049Y0089617D01*
X0143033Y0089617D01*
X0142814Y0090144D01*
X0141810Y0091148D01*
X0140499Y0091691D01*
X0139079Y0091691D01*
X0137768Y0091148D01*
X0136764Y0090144D01*
X0136220Y0088833D01*
X0136220Y0087413D01*
X0136224Y0087405D01*
X0135381Y0087754D01*
X0133961Y0087754D01*
X0132649Y0087211D01*
X0131646Y0086207D01*
X0131102Y0084896D01*
X0131102Y0083476D01*
X0131646Y0082164D01*
X0132649Y0081161D01*
X0133961Y0080617D01*
X0135381Y0080617D01*
X0136224Y0080967D01*
X0136220Y0080959D01*
X0136220Y0079539D01*
X0136764Y0078227D01*
X0137768Y0077224D01*
X0139079Y0076680D01*
X0140499Y0076680D01*
X0141810Y0077224D01*
X0142814Y0078227D01*
X0143033Y0078755D01*
X0173816Y0078755D01*
X0180115Y0072456D01*
X0218501Y0072456D01*
X0221060Y0069897D01*
X0259446Y0069897D01*
X0267708Y0061635D01*
X0295925Y0061635D01*
X0296800Y0062510D01*
X0312417Y0078127D01*
X0313292Y0079002D01*
X0313292Y0149213D01*
X0312417Y0150088D01*
X0309674Y0152830D01*
X0309893Y0153358D01*
X0309893Y0154778D01*
X0309350Y0156089D01*
X0308346Y0157093D01*
X0307034Y0157636D01*
X0305615Y0157636D01*
X0304337Y0157107D01*
X0304578Y0157689D01*
X0304578Y0159108D01*
X0304359Y0159636D01*
X0305062Y0160339D01*
X0305062Y0172259D01*
X0305217Y0172259D01*
X0305217Y0170965D01*
X0305706Y0170476D01*
X0305438Y0170208D01*
X0305227Y0169843D01*
X0305118Y0169436D01*
X0305118Y0167444D01*
X0308302Y0167444D01*
X0308302Y0166676D01*
X0305118Y0166676D01*
X0305118Y0164684D01*
X0305227Y0164277D01*
X0305438Y0163912D01*
X0305736Y0163614D01*
X0306101Y0163404D01*
X0306507Y0163294D01*
X0308302Y0163294D01*
X0308302Y0166676D01*
X0309071Y0166676D01*
X0309071Y0167444D01*
X0312255Y0167444D01*
X0312255Y0169436D01*
X0312146Y0169843D01*
X0311935Y0170208D01*
X0311667Y0170476D01*
X0312157Y0170965D01*
X0312157Y0176540D01*
X0311277Y0177420D01*
X0306096Y0177420D01*
X0305217Y0176540D01*
X0305217Y0175246D01*
X0301330Y0175246D01*
X0301330Y0176737D01*
X0300450Y0177617D01*
X0292120Y0177617D01*
X0291240Y0176737D01*
X0291240Y0170769D01*
X0292120Y0169889D01*
X0300450Y0169889D01*
X0301330Y0170769D01*
X0301330Y0172259D01*
X0302075Y0172259D01*
X0302075Y0161820D01*
X0301719Y0161967D01*
X0301428Y0161967D01*
X0301428Y0163723D01*
X0296866Y0163723D01*
X0296866Y0160342D01*
X0297952Y0160342D01*
X0297441Y0159108D01*
X0297441Y0157689D01*
X0297984Y0156377D01*
X0298988Y0155373D01*
X0300300Y0154830D01*
X0301719Y0154830D01*
X0302997Y0155359D01*
X0302756Y0154778D01*
X0302756Y0153358D01*
X0303299Y0152046D01*
X0303898Y0151448D01*
X0285938Y0151448D01*
X0285728Y0151955D01*
X0284724Y0152959D01*
X0283412Y0153502D01*
X0281993Y0153502D01*
X0280681Y0152959D01*
X0279677Y0151955D01*
X0279134Y0150644D01*
X0279134Y0149224D01*
X0279677Y0147912D01*
X0280681Y0146909D01*
X0281993Y0146365D01*
X0283412Y0146365D01*
X0284724Y0146909D01*
X0285728Y0147912D01*
X0285955Y0148460D01*
X0298623Y0148460D01*
X0297984Y0147821D01*
X0297441Y0146510D01*
X0297441Y0145090D01*
X0297984Y0143779D01*
X0298988Y0142775D01*
X0300300Y0142231D01*
X0301719Y0142231D01*
X0302247Y0142450D01*
X0304738Y0139959D01*
X0304738Y0101724D01*
X0301885Y0104577D01*
X0300857Y0104577D01*
X0301476Y0105196D01*
X0302019Y0106507D01*
X0302019Y0107927D01*
X0301476Y0109239D01*
X0300472Y0110243D01*
X0299944Y0110461D01*
X0299944Y0114210D01*
X0300472Y0114428D01*
X0301476Y0115432D01*
X0302019Y0116744D01*
X0302019Y0118163D01*
X0301476Y0119475D01*
X0300472Y0120479D01*
X0299160Y0121022D01*
X0297741Y0121022D01*
X0296429Y0120479D01*
X0295425Y0119475D01*
X0294882Y0118163D01*
X0294882Y0116744D01*
X0295425Y0115432D01*
X0296429Y0114428D01*
X0296957Y0114210D01*
X0296957Y0110461D01*
X0296429Y0110243D01*
X0295425Y0109239D01*
X0294882Y0107927D01*
X0294882Y0106507D01*
X0295425Y0105196D01*
X0296044Y0104577D01*
X0293180Y0104577D01*
X0293798Y0105196D01*
X0294342Y0106507D01*
X0294342Y0107927D01*
X0293798Y0109239D01*
X0292795Y0110243D01*
X0291483Y0110786D01*
X0290063Y0110786D01*
X0289536Y0110567D01*
X0270919Y0129183D01*
X0247954Y0129183D01*
X0247735Y0129711D01*
X0246732Y0130715D01*
X0245420Y0131258D01*
X0244000Y0131258D01*
X0242689Y0130715D01*
X0241685Y0129711D01*
X0241142Y0128400D01*
X0241142Y0126980D01*
X0241685Y0125668D01*
X0242689Y0124665D01*
X0242989Y0124540D01*
X0242689Y0124416D01*
X0241685Y0123412D01*
X0241142Y0122100D01*
X0241142Y0120681D01*
X0241685Y0119369D01*
X0242689Y0118365D01*
X0244000Y0117822D01*
X0245420Y0117822D01*
X0246732Y0118365D01*
X0247735Y0119369D01*
X0247954Y0119897D01*
X0268304Y0119897D01*
X0279746Y0108455D01*
X0279528Y0107927D01*
X0279528Y0106507D01*
X0280071Y0105196D01*
X0280690Y0104577D01*
X0280171Y0104577D01*
X0267081Y0117668D01*
X0216765Y0117668D01*
X0216806Y0117822D01*
X0216806Y0118733D01*
X0212306Y0118733D01*
X0207806Y0118733D01*
X0207806Y0118084D01*
X0203105Y0122786D01*
X0201867Y0122786D01*
X0194565Y0122786D01*
X0194606Y0122941D01*
X0194606Y0123851D01*
X0190106Y0123851D01*
X0185606Y0123851D01*
X0185606Y0122941D01*
X0185648Y0122786D01*
X0183954Y0122786D01*
X0183079Y0121911D01*
X0178836Y0117668D01*
X0173261Y0117668D01*
X0173302Y0117822D01*
X0173302Y0118733D01*
X0168802Y0118733D01*
X0164302Y0118733D01*
X0164302Y0118084D01*
X0159601Y0122786D01*
X0158363Y0122786D01*
X0151061Y0122786D01*
X0151102Y0122941D01*
X0151102Y0123851D01*
X0146602Y0123851D01*
X0142102Y0123851D01*
X0142102Y0122941D01*
X0142144Y0122786D01*
X0140450Y0122786D01*
X0139575Y0121911D01*
X0135332Y0117668D01*
X0129757Y0117668D01*
X0129798Y0117822D01*
X0129798Y0118733D01*
X0125299Y0118733D01*
X0125299Y0118733D01*
X0129798Y0118733D01*
X0129798Y0119644D01*
X0129700Y0120011D01*
X0129700Y0127476D01*
X0137947Y0127476D01*
X0140014Y0129543D01*
X0140889Y0130418D01*
X0140889Y0147150D01*
X0143670Y0149930D01*
X0144197Y0149712D01*
X0145617Y0149712D01*
X0146928Y0150255D01*
X0147932Y0151259D01*
X0148476Y0152570D01*
X0148476Y0153990D01*
X0147932Y0155302D01*
X0147117Y0156117D01*
X0174122Y0156117D01*
X0174122Y0142818D01*
X0173302Y0141998D01*
X0173302Y0142675D01*
X0173193Y0143082D01*
X0172983Y0143447D01*
X0172685Y0143745D01*
X0172320Y0143956D01*
X0171913Y0144065D01*
X0168802Y0144065D01*
X0166260Y0144065D01*
X0165846Y0145065D01*
X0164842Y0146069D01*
X0163530Y0146613D01*
X0162111Y0146613D01*
X0160799Y0146069D01*
X0159795Y0145065D01*
X0159252Y0143754D01*
X0159252Y0142334D01*
X0159795Y0141023D01*
X0160520Y0140297D01*
X0158363Y0138140D01*
X0154714Y0138140D01*
X0155161Y0138587D01*
X0155762Y0139188D01*
X0156188Y0139614D01*
X0157165Y0140019D01*
X0158169Y0141023D01*
X0158712Y0142334D01*
X0158712Y0143754D01*
X0158169Y0145065D01*
X0157165Y0146069D01*
X0155853Y0146613D01*
X0154433Y0146613D01*
X0153122Y0146069D01*
X0152118Y0145065D01*
X0151575Y0143754D01*
X0151575Y0142334D01*
X0152118Y0141023D01*
X0152442Y0140699D01*
X0151004Y0140699D01*
X0151004Y0143087D01*
X0150124Y0143966D01*
X0148096Y0143966D01*
X0148096Y0144121D01*
X0148788Y0144812D01*
X0149315Y0144594D01*
X0150735Y0144594D01*
X0152047Y0145137D01*
X0153050Y0146141D01*
X0153594Y0147452D01*
X0153594Y0148872D01*
X0153050Y0150184D01*
X0152047Y0151187D01*
X0150735Y0151731D01*
X0149315Y0151731D01*
X0148004Y0151187D01*
X0147000Y0150184D01*
X0146457Y0148872D01*
X0146457Y0147452D01*
X0146675Y0146925D01*
X0145109Y0145358D01*
X0145109Y0143966D01*
X0143080Y0143966D01*
X0142201Y0143087D01*
X0142201Y0135365D01*
X0142102Y0134998D01*
X0142102Y0134087D01*
X0142102Y0133177D01*
X0142201Y0132809D01*
X0142201Y0125129D01*
X0142102Y0124762D01*
X0142102Y0123851D01*
X0146602Y0123851D01*
X0146602Y0123851D01*
X0146602Y0123851D01*
X0151102Y0123851D01*
X0151102Y0124762D01*
X0151004Y0125129D01*
X0151004Y0127476D01*
X0154482Y0127476D01*
X0161327Y0134320D01*
X0161327Y0127071D01*
X0162202Y0126196D01*
X0163481Y0124917D01*
X0164401Y0124917D01*
X0164401Y0120011D01*
X0164302Y0119644D01*
X0164302Y0118733D01*
X0168802Y0118733D01*
X0168802Y0118733D01*
X0168802Y0118733D01*
X0173302Y0118733D01*
X0173302Y0119644D01*
X0173204Y0120011D01*
X0173204Y0127476D01*
X0181451Y0127476D01*
X0183518Y0129543D01*
X0184393Y0130418D01*
X0184393Y0147150D01*
X0187173Y0149930D01*
X0187701Y0149712D01*
X0189121Y0149712D01*
X0190432Y0150255D01*
X0191436Y0151259D01*
X0191980Y0152570D01*
X0191980Y0153990D01*
X0191436Y0155302D01*
X0190621Y0156117D01*
X0217626Y0156117D01*
X0217626Y0142679D01*
X0216806Y0141859D01*
X0216806Y0142675D01*
X0216697Y0143082D01*
X0216487Y0143447D01*
X0216189Y0143745D01*
X0215824Y0143956D01*
X0215417Y0144065D01*
X0212306Y0144065D01*
X0209764Y0144065D01*
X0209350Y0145065D01*
X0208346Y0146069D01*
X0207034Y0146613D01*
X0205615Y0146613D01*
X0204303Y0146069D01*
X0203299Y0145065D01*
X0202756Y0143754D01*
X0202756Y0142334D01*
X0203299Y0141023D01*
X0204024Y0140297D01*
X0201867Y0138140D01*
X0198415Y0138140D01*
X0200028Y0139754D01*
X0200669Y0140019D01*
X0201672Y0141023D01*
X0202216Y0142334D01*
X0202216Y0143754D01*
X0201672Y0145065D01*
X0200669Y0146069D01*
X0199357Y0146613D01*
X0197937Y0146613D01*
X0196626Y0146069D01*
X0195622Y0145065D01*
X0195079Y0143754D01*
X0195079Y0142334D01*
X0195622Y0141023D01*
X0195946Y0140699D01*
X0194508Y0140699D01*
X0194508Y0143087D01*
X0193628Y0143966D01*
X0191600Y0143966D01*
X0191600Y0144121D01*
X0192292Y0144812D01*
X0192819Y0144594D01*
X0194239Y0144594D01*
X0195551Y0145137D01*
X0196554Y0146141D01*
X0197098Y0147452D01*
X0197098Y0148872D01*
X0196554Y0150184D01*
X0195551Y0151187D01*
X0194239Y0151731D01*
X0192819Y0151731D01*
X0191508Y0151187D01*
X0190504Y0150184D01*
X0189961Y0148872D01*
X0189961Y0147452D01*
X0190179Y0146925D01*
X0188613Y0145358D01*
X0188613Y0143966D01*
X0186584Y0143966D01*
X0185705Y0143087D01*
X0185705Y0135365D01*
X0185606Y0134998D01*
X0185606Y0134087D01*
X0185606Y0133177D01*
X0185705Y0132809D01*
X0185705Y0125129D01*
X0185606Y0124762D01*
X0185606Y0123851D01*
X0190106Y0123851D01*
X0190106Y0123851D01*
X0190106Y0123851D01*
X0194606Y0123851D01*
X0194606Y0124762D01*
X0194508Y0125129D01*
X0194508Y0127476D01*
X0197986Y0127476D01*
X0204831Y0134320D01*
X0204831Y0127071D01*
X0205706Y0126196D01*
X0206985Y0124917D01*
X0207905Y0124917D01*
X0207905Y0120011D01*
X0207806Y0119644D01*
X0207806Y0118733D01*
X0212306Y0118733D01*
X0212306Y0118733D01*
X0212306Y0118733D01*
X0216806Y0118733D01*
X0216806Y0119644D01*
X0216708Y0120011D01*
X0216708Y0127476D01*
X0226136Y0127476D01*
X0235968Y0137307D01*
X0235968Y0148659D01*
X0236495Y0148877D01*
X0237499Y0149881D01*
X0238043Y0151193D01*
X0238043Y0152612D01*
X0237499Y0153924D01*
X0236495Y0154928D01*
X0235184Y0155471D01*
X0233764Y0155471D01*
X0232453Y0154928D01*
X0231449Y0153924D01*
X0230906Y0152612D01*
X0230906Y0151193D01*
X0231449Y0149881D01*
X0232453Y0148877D01*
X0232980Y0148659D01*
X0232980Y0138545D01*
X0226354Y0131918D01*
X0226428Y0132098D01*
X0226428Y0133518D01*
X0226210Y0134045D01*
X0230850Y0138685D01*
X0230850Y0141178D01*
X0231377Y0141397D01*
X0232381Y0142401D01*
X0232924Y0143712D01*
X0232924Y0145132D01*
X0232381Y0146443D01*
X0231377Y0147447D01*
X0230066Y0147991D01*
X0228646Y0147991D01*
X0227335Y0147447D01*
X0226331Y0146443D01*
X0225787Y0145132D01*
X0225787Y0143712D01*
X0226331Y0142401D01*
X0227335Y0141397D01*
X0227862Y0141178D01*
X0227862Y0139923D01*
X0224097Y0136158D01*
X0223570Y0136376D01*
X0222688Y0136376D01*
X0222688Y0137455D01*
X0222470Y0137982D01*
X0225731Y0141244D01*
X0225731Y0148659D01*
X0226259Y0148877D01*
X0227263Y0149881D01*
X0227806Y0151193D01*
X0227806Y0152612D01*
X0227263Y0153924D01*
X0226259Y0154928D01*
X0224948Y0155471D01*
X0223528Y0155471D01*
X0222216Y0154928D01*
X0221213Y0153924D01*
X0220669Y0152612D01*
X0220669Y0151193D01*
X0221213Y0149881D01*
X0222216Y0148877D01*
X0222744Y0148659D01*
X0222744Y0142482D01*
X0220357Y0140095D01*
X0219830Y0140313D01*
X0219486Y0140313D01*
X0220613Y0141441D01*
X0220613Y0156795D01*
X0232927Y0169109D01*
X0233789Y0169109D01*
X0234008Y0168582D01*
X0235012Y0167578D01*
X0236323Y0167035D01*
X0237743Y0167035D01*
X0239054Y0167578D01*
X0240058Y0168582D01*
X0240277Y0169109D01*
X0241240Y0169109D01*
X0241240Y0167816D01*
X0241730Y0167326D01*
X0241461Y0167058D01*
X0241251Y0166693D01*
X0241142Y0166286D01*
X0241142Y0164294D01*
X0244326Y0164294D01*
X0244326Y0163526D01*
X0245094Y0163526D01*
X0245094Y0160145D01*
X0246889Y0160145D01*
X0247296Y0160254D01*
X0247661Y0160465D01*
X0247959Y0160762D01*
X0248170Y0161127D01*
X0248279Y0161534D01*
X0248279Y0163526D01*
X0245095Y0163526D01*
X0245095Y0164294D01*
X0248279Y0164294D01*
X0248279Y0166286D01*
X0248170Y0166693D01*
X0247959Y0167058D01*
X0247691Y0167326D01*
X0248180Y0167816D01*
X0248180Y0173390D01*
X0247301Y0174270D01*
X0242120Y0174270D01*
X0241240Y0173390D01*
X0241240Y0172097D01*
X0240277Y0172097D01*
X0240058Y0172625D01*
X0239054Y0173628D01*
X0237743Y0174172D01*
X0236323Y0174172D01*
X0235012Y0173628D01*
X0234008Y0172625D01*
X0233789Y0172097D01*
X0231690Y0172097D01*
X0230815Y0171222D01*
X0230815Y0171222D01*
X0218698Y0159105D01*
X0101125Y0159105D01*
X0101125Y0161228D01*
X0102419Y0161228D01*
X0103298Y0162107D01*
X0103298Y0167288D01*
X0102419Y0168168D01*
X0096844Y0168168D01*
X0096355Y0167678D01*
X0096086Y0167946D01*
X0095722Y0168157D01*
X0095315Y0168266D01*
X0093323Y0168266D01*
X0093323Y0165082D01*
X0092554Y0165082D01*
X0092554Y0164313D01*
X0093323Y0164313D01*
X0093323Y0161129D01*
X0095315Y0161129D01*
X0095722Y0161238D01*
X0096086Y0161449D01*
X0096355Y0161717D01*
X0096844Y0161228D01*
X0098138Y0161228D01*
X0098138Y0159105D01*
X0046257Y0159105D01*
X0048560Y0159723D02*
X0041648Y0159723D01*
X0042078Y0160921D02*
X0048130Y0160921D01*
X0044478Y0157326D02*
X0006857Y0157326D01*
X0006856Y0156127D02*
X0043279Y0156127D01*
X0042081Y0154929D02*
X0006855Y0154929D01*
X0006854Y0153730D02*
X0040882Y0153730D01*
X0039684Y0152532D02*
X0006852Y0152532D01*
X0006851Y0151333D02*
X0038492Y0151333D01*
X0036319Y0150135D02*
X0006850Y0150135D01*
X0006849Y0148936D02*
X0030970Y0148936D01*
X0029772Y0147738D02*
X0006848Y0147738D01*
X0006846Y0146539D02*
X0028573Y0146539D01*
X0027375Y0145341D02*
X0006845Y0145341D01*
X0006844Y0144142D02*
X0026176Y0144142D01*
X0025579Y0142944D02*
X0006843Y0142944D01*
X0006842Y0141745D02*
X0025579Y0141745D01*
X0025579Y0140547D02*
X0006840Y0140547D01*
X0006839Y0139348D02*
X0025579Y0139348D01*
X0025579Y0138150D02*
X0006838Y0138150D01*
X0006837Y0136951D02*
X0025579Y0136951D01*
X0024902Y0135753D02*
X0019243Y0135753D01*
X0018813Y0136183D02*
X0015332Y0136183D01*
X0012871Y0133721D01*
X0012871Y0130241D01*
X0015332Y0127780D01*
X0018813Y0127780D01*
X0021274Y0130241D01*
X0021274Y0133721D01*
X0018813Y0136183D01*
X0020441Y0134554D02*
X0023704Y0134554D01*
X0022871Y0133356D02*
X0021274Y0133356D01*
X0021274Y0132157D02*
X0022871Y0132157D01*
X0022871Y0130959D02*
X0021274Y0130959D01*
X0020793Y0129760D02*
X0023352Y0129760D01*
X0024550Y0128562D02*
X0019595Y0128562D01*
X0018813Y0126183D02*
X0015332Y0126183D01*
X0012871Y0123721D01*
X0012871Y0120241D01*
X0015332Y0117780D01*
X0018813Y0117780D01*
X0021274Y0120241D01*
X0021274Y0123721D01*
X0018813Y0126183D01*
X0018831Y0126165D02*
X0025314Y0126165D01*
X0025332Y0126183D02*
X0022871Y0123721D01*
X0022871Y0120241D01*
X0025332Y0117780D01*
X0028813Y0117780D01*
X0031274Y0120241D01*
X0031274Y0123721D01*
X0028813Y0126183D01*
X0025332Y0126183D01*
X0024115Y0124966D02*
X0020029Y0124966D01*
X0021228Y0123768D02*
X0022917Y0123768D01*
X0022871Y0122569D02*
X0021274Y0122569D01*
X0021274Y0121370D02*
X0022871Y0121370D01*
X0022940Y0120172D02*
X0021205Y0120172D01*
X0020007Y0118973D02*
X0024138Y0118973D01*
X0025332Y0116183D02*
X0022871Y0113721D01*
X0022871Y0110241D01*
X0025332Y0107780D01*
X0028813Y0107780D01*
X0031274Y0110241D01*
X0031274Y0113721D01*
X0028813Y0116183D01*
X0025332Y0116183D01*
X0024527Y0115378D02*
X0019618Y0115378D01*
X0018813Y0116183D02*
X0021274Y0113721D01*
X0021274Y0110241D01*
X0018813Y0107780D01*
X0015332Y0107780D01*
X0012871Y0110241D01*
X0012871Y0113721D01*
X0015332Y0116183D01*
X0018813Y0116183D01*
X0020816Y0114179D02*
X0023329Y0114179D01*
X0022871Y0112981D02*
X0021274Y0112981D01*
X0021274Y0111782D02*
X0022871Y0111782D01*
X0022871Y0110584D02*
X0021274Y0110584D01*
X0020419Y0109385D02*
X0023726Y0109385D01*
X0024925Y0108187D02*
X0019220Y0108187D01*
X0018813Y0106183D02*
X0015332Y0106183D01*
X0012871Y0103721D01*
X0012871Y0100241D01*
X0015332Y0097780D01*
X0018813Y0097780D01*
X0021274Y0100241D01*
X0021274Y0103721D01*
X0018813Y0106183D01*
X0019206Y0105790D02*
X0024939Y0105790D01*
X0025332Y0106183D02*
X0022871Y0103721D01*
X0022871Y0100241D01*
X0025332Y0097780D01*
X0028813Y0097780D01*
X0031274Y0100241D01*
X0031274Y0103721D01*
X0028813Y0106183D01*
X0025332Y0106183D01*
X0023741Y0104591D02*
X0020404Y0104591D01*
X0021274Y0103393D02*
X0022871Y0103393D01*
X0022871Y0102194D02*
X0021274Y0102194D01*
X0021274Y0100996D02*
X0022871Y0100996D01*
X0023314Y0099797D02*
X0020831Y0099797D01*
X0019632Y0098599D02*
X0024513Y0098599D01*
X0025332Y0096183D02*
X0022871Y0093721D01*
X0022871Y0090241D01*
X0025332Y0087780D01*
X0028813Y0087780D01*
X0031274Y0090241D01*
X0031274Y0093721D01*
X0028813Y0096183D01*
X0025332Y0096183D01*
X0024153Y0095003D02*
X0019992Y0095003D01*
X0018813Y0096183D02*
X0021274Y0093721D01*
X0021274Y0090241D01*
X0018813Y0087780D01*
X0015332Y0087780D01*
X0012871Y0090241D01*
X0012871Y0093721D01*
X0015332Y0096183D01*
X0018813Y0096183D01*
X0021191Y0093805D02*
X0022954Y0093805D01*
X0022871Y0092606D02*
X0021274Y0092606D01*
X0021274Y0091408D02*
X0022871Y0091408D01*
X0022902Y0090209D02*
X0021242Y0090209D01*
X0020044Y0089011D02*
X0024101Y0089011D01*
X0025299Y0087812D02*
X0018845Y0087812D01*
X0018813Y0086183D02*
X0015332Y0086183D01*
X0012871Y0083721D01*
X0012871Y0080241D01*
X0015332Y0077780D01*
X0018813Y0077780D01*
X0021274Y0080241D01*
X0021274Y0083721D01*
X0018813Y0086183D01*
X0019580Y0085415D02*
X0024565Y0085415D01*
X0025332Y0086183D02*
X0022871Y0083721D01*
X0022871Y0080241D01*
X0025332Y0077780D01*
X0028813Y0077780D01*
X0031274Y0080241D01*
X0031274Y0083721D01*
X0028813Y0086183D01*
X0025332Y0086183D01*
X0023366Y0084217D02*
X0020779Y0084217D01*
X0021274Y0083018D02*
X0022871Y0083018D01*
X0022871Y0081820D02*
X0021274Y0081820D01*
X0021274Y0080621D02*
X0022871Y0080621D01*
X0023689Y0079423D02*
X0020456Y0079423D01*
X0019257Y0078224D02*
X0024888Y0078224D01*
X0025291Y0076281D02*
X0022772Y0073762D01*
X0022772Y0072281D01*
X0026772Y0072281D01*
X0026772Y0071681D01*
X0022772Y0071681D01*
X0022772Y0070200D01*
X0025291Y0067681D01*
X0026772Y0067681D01*
X0026772Y0071681D01*
X0027372Y0071681D01*
X0027372Y0067681D01*
X0028854Y0067681D01*
X0031372Y0070200D01*
X0031372Y0071681D01*
X0027373Y0071681D01*
X0027373Y0072281D01*
X0031372Y0072281D01*
X0031372Y0073762D01*
X0028854Y0076281D01*
X0027372Y0076281D01*
X0027372Y0072281D01*
X0026772Y0072281D01*
X0026772Y0076281D01*
X0025291Y0076281D01*
X0024837Y0075827D02*
X0019308Y0075827D01*
X0018854Y0076281D02*
X0017372Y0076281D01*
X0017372Y0072281D01*
X0016772Y0072281D01*
X0016772Y0071681D01*
X0012772Y0071681D01*
X0012772Y0070200D01*
X0015291Y0067681D01*
X0016772Y0067681D01*
X0016772Y0071681D01*
X0017372Y0071681D01*
X0017372Y0067681D01*
X0018854Y0067681D01*
X0021372Y0070200D01*
X0021372Y0071681D01*
X0017373Y0071681D01*
X0017373Y0072281D01*
X0021372Y0072281D01*
X0021372Y0073762D01*
X0018854Y0076281D01*
X0017372Y0075827D02*
X0016772Y0075827D01*
X0016772Y0076281D02*
X0015291Y0076281D01*
X0012772Y0073762D01*
X0012772Y0072281D01*
X0016772Y0072281D01*
X0016772Y0076281D01*
X0016772Y0074629D02*
X0017372Y0074629D01*
X0017372Y0073430D02*
X0016772Y0073430D01*
X0016772Y0072232D02*
X0006772Y0072232D01*
X0006773Y0073430D02*
X0012772Y0073430D01*
X0013639Y0074629D02*
X0006774Y0074629D01*
X0006776Y0075827D02*
X0014837Y0075827D01*
X0014888Y0078224D02*
X0006778Y0078224D01*
X0006777Y0077026D02*
X0050315Y0077026D01*
X0051513Y0075827D02*
X0029308Y0075827D01*
X0030506Y0074629D02*
X0052712Y0074629D01*
X0053910Y0073430D02*
X0031372Y0073430D01*
X0031372Y0071033D02*
X0056307Y0071033D01*
X0055109Y0072232D02*
X0027373Y0072232D01*
X0026772Y0072232D02*
X0017373Y0072232D01*
X0017372Y0071033D02*
X0016772Y0071033D01*
X0016772Y0069835D02*
X0017372Y0069835D01*
X0017372Y0068636D02*
X0016772Y0068636D01*
X0016772Y0066281D02*
X0015291Y0066281D01*
X0012772Y0063762D01*
X0012772Y0062281D01*
X0016772Y0062281D01*
X0016772Y0061681D01*
X0012772Y0061681D01*
X0012772Y0060200D01*
X0015291Y0057681D01*
X0016772Y0057681D01*
X0016772Y0061681D01*
X0017372Y0061681D01*
X0017372Y0057681D01*
X0018854Y0057681D01*
X0021372Y0060200D01*
X0021372Y0061681D01*
X0017373Y0061681D01*
X0017373Y0062281D01*
X0021372Y0062281D01*
X0021372Y0063762D01*
X0018854Y0066281D01*
X0017372Y0066281D01*
X0017372Y0062281D01*
X0016772Y0062281D01*
X0016772Y0066281D01*
X0016772Y0066239D02*
X0017372Y0066239D01*
X0017372Y0065040D02*
X0016772Y0065040D01*
X0016772Y0063842D02*
X0017372Y0063842D01*
X0017372Y0062643D02*
X0016772Y0062643D01*
X0016772Y0061445D02*
X0017372Y0061445D01*
X0017372Y0060246D02*
X0016772Y0060246D01*
X0016772Y0059048D02*
X0017372Y0059048D01*
X0017372Y0057849D02*
X0016772Y0057849D01*
X0015123Y0057849D02*
X0006758Y0057849D01*
X0006756Y0056651D02*
X0070689Y0056651D01*
X0069491Y0057849D02*
X0029022Y0057849D01*
X0028854Y0057681D02*
X0031372Y0060200D01*
X0031372Y0061681D01*
X0027373Y0061681D01*
X0027373Y0062281D01*
X0031372Y0062281D01*
X0031372Y0063762D01*
X0028854Y0066281D01*
X0027372Y0066281D01*
X0027372Y0062281D01*
X0026772Y0062281D01*
X0026772Y0061681D01*
X0022772Y0061681D01*
X0022772Y0060200D01*
X0025291Y0057681D01*
X0026772Y0057681D01*
X0026772Y0061681D01*
X0027372Y0061681D01*
X0027372Y0057681D01*
X0028854Y0057681D01*
X0027372Y0057849D02*
X0026772Y0057849D01*
X0026772Y0059048D02*
X0027372Y0059048D01*
X0027372Y0060246D02*
X0026772Y0060246D01*
X0026772Y0061445D02*
X0027372Y0061445D01*
X0026772Y0062281D02*
X0022772Y0062281D01*
X0022772Y0063762D01*
X0025291Y0066281D01*
X0026772Y0066281D01*
X0026772Y0062281D01*
X0026772Y0062643D02*
X0027372Y0062643D01*
X0027372Y0063842D02*
X0026772Y0063842D01*
X0026772Y0065040D02*
X0027372Y0065040D01*
X0027372Y0066239D02*
X0026772Y0066239D01*
X0025249Y0066239D02*
X0018896Y0066239D01*
X0020094Y0065040D02*
X0024051Y0065040D01*
X0022852Y0063842D02*
X0021293Y0063842D01*
X0021372Y0062643D02*
X0022772Y0062643D01*
X0022772Y0061445D02*
X0021372Y0061445D01*
X0021372Y0060246D02*
X0022772Y0060246D01*
X0023925Y0059048D02*
X0020220Y0059048D01*
X0019022Y0057849D02*
X0025123Y0057849D01*
X0030220Y0059048D02*
X0068292Y0059048D01*
X0067094Y0060246D02*
X0031372Y0060246D01*
X0031372Y0061445D02*
X0065895Y0061445D01*
X0064697Y0062643D02*
X0031372Y0062643D01*
X0031293Y0063842D02*
X0063498Y0063842D01*
X0062300Y0065040D02*
X0030094Y0065040D01*
X0028896Y0066239D02*
X0061101Y0066239D01*
X0059903Y0067437D02*
X0006767Y0067437D01*
X0006766Y0066239D02*
X0015249Y0066239D01*
X0014051Y0065040D02*
X0006765Y0065040D01*
X0006764Y0063842D02*
X0012852Y0063842D01*
X0012772Y0062643D02*
X0006762Y0062643D01*
X0006761Y0061445D02*
X0012772Y0061445D01*
X0012772Y0060246D02*
X0006760Y0060246D01*
X0006759Y0059048D02*
X0013925Y0059048D01*
X0006755Y0055452D02*
X0071888Y0055452D01*
X0073086Y0054254D02*
X0006754Y0054254D01*
X0006753Y0053055D02*
X0074285Y0053055D01*
X0075483Y0051857D02*
X0006752Y0051857D01*
X0006750Y0050658D02*
X0076682Y0050658D01*
X0076878Y0049460D02*
X0006749Y0049460D01*
X0006748Y0048261D02*
X0076878Y0048261D01*
X0076878Y0047063D02*
X0006747Y0047063D01*
X0006746Y0045864D02*
X0076878Y0045864D01*
X0077393Y0044666D02*
X0006744Y0044666D01*
X0006743Y0043467D02*
X0078592Y0043467D01*
X0079790Y0042269D02*
X0006742Y0042269D01*
X0006741Y0041070D02*
X0079815Y0041070D01*
X0079815Y0039872D02*
X0006740Y0039872D01*
X0006738Y0038673D02*
X0080077Y0038673D01*
X0081276Y0037475D02*
X0006737Y0037475D01*
X0006736Y0036276D02*
X0316551Y0036276D01*
X0316551Y0035078D02*
X0006735Y0035078D01*
X0006734Y0033879D02*
X0316551Y0033879D01*
X0316551Y0032681D02*
X0006732Y0032681D01*
X0006731Y0031482D02*
X0316551Y0031482D01*
X0316551Y0037475D02*
X0244365Y0037475D01*
X0243189Y0036298D02*
X0245826Y0038935D01*
X0245826Y0042665D01*
X0243189Y0045302D01*
X0239460Y0045302D01*
X0236823Y0042665D01*
X0236823Y0038935D01*
X0239460Y0036298D01*
X0243189Y0036298D01*
X0245564Y0038673D02*
X0316551Y0038673D01*
X0316551Y0039872D02*
X0245826Y0039872D01*
X0245826Y0041070D02*
X0316551Y0041070D01*
X0316551Y0042269D02*
X0245826Y0042269D01*
X0245023Y0043467D02*
X0316551Y0043467D01*
X0316551Y0044666D02*
X0243825Y0044666D01*
X0243189Y0046298D02*
X0239460Y0046298D01*
X0236823Y0048935D01*
X0236823Y0052665D01*
X0239460Y0055302D01*
X0243189Y0055302D01*
X0245826Y0052665D01*
X0245826Y0048935D01*
X0243189Y0046298D01*
X0243953Y0047063D02*
X0316551Y0047063D01*
X0316551Y0048261D02*
X0245152Y0048261D01*
X0245826Y0049460D02*
X0316551Y0049460D01*
X0316551Y0050658D02*
X0245826Y0050658D01*
X0245826Y0051857D02*
X0316551Y0051857D01*
X0316551Y0053055D02*
X0245435Y0053055D01*
X0244237Y0054254D02*
X0316551Y0054254D01*
X0316551Y0055452D02*
X0155280Y0055452D01*
X0154082Y0056651D02*
X0316551Y0056651D01*
X0316551Y0057849D02*
X0152883Y0057849D01*
X0151685Y0059048D02*
X0316551Y0059048D01*
X0316551Y0060246D02*
X0150486Y0060246D01*
X0149288Y0061445D02*
X0316551Y0061445D01*
X0316551Y0062643D02*
X0296934Y0062643D01*
X0298132Y0063842D02*
X0316551Y0063842D01*
X0316551Y0065040D02*
X0299331Y0065040D01*
X0300529Y0066239D02*
X0316551Y0066239D01*
X0316551Y0067437D02*
X0301728Y0067437D01*
X0302926Y0068636D02*
X0316551Y0068636D01*
X0316551Y0069835D02*
X0304125Y0069835D01*
X0305323Y0071033D02*
X0316551Y0071033D01*
X0316551Y0072232D02*
X0306522Y0072232D01*
X0307720Y0073430D02*
X0316551Y0073430D01*
X0316551Y0074629D02*
X0308919Y0074629D01*
X0310117Y0075827D02*
X0316551Y0075827D01*
X0316551Y0077026D02*
X0311316Y0077026D01*
X0312514Y0078224D02*
X0316551Y0078224D01*
X0316551Y0079423D02*
X0313292Y0079423D01*
X0313292Y0080621D02*
X0316551Y0080621D01*
X0316551Y0081820D02*
X0313292Y0081820D01*
X0313292Y0083018D02*
X0316551Y0083018D01*
X0316551Y0084217D02*
X0313292Y0084217D01*
X0313292Y0085415D02*
X0316551Y0085415D01*
X0316551Y0086614D02*
X0313292Y0086614D01*
X0313292Y0087812D02*
X0316551Y0087812D01*
X0316551Y0089011D02*
X0313292Y0089011D01*
X0313292Y0090209D02*
X0316551Y0090209D01*
X0316551Y0091408D02*
X0313292Y0091408D01*
X0313292Y0092606D02*
X0316551Y0092606D01*
X0316551Y0093805D02*
X0313292Y0093805D01*
X0313292Y0095003D02*
X0316551Y0095003D01*
X0316551Y0096202D02*
X0313292Y0096202D01*
X0313292Y0097400D02*
X0316551Y0097400D01*
X0316551Y0098599D02*
X0313292Y0098599D01*
X0313292Y0099797D02*
X0316551Y0099797D01*
X0316551Y0100996D02*
X0313292Y0100996D01*
X0313292Y0102194D02*
X0316551Y0102194D01*
X0316551Y0103393D02*
X0313292Y0103393D01*
X0313292Y0104591D02*
X0316551Y0104591D01*
X0316551Y0105790D02*
X0313292Y0105790D01*
X0313292Y0106988D02*
X0316551Y0106988D01*
X0316551Y0108187D02*
X0313292Y0108187D01*
X0313292Y0109385D02*
X0316551Y0109385D01*
X0316551Y0110584D02*
X0313292Y0110584D01*
X0313292Y0111782D02*
X0316551Y0111782D01*
X0316551Y0112981D02*
X0313292Y0112981D01*
X0313292Y0114179D02*
X0316551Y0114179D01*
X0316551Y0115378D02*
X0313292Y0115378D01*
X0313292Y0116576D02*
X0316551Y0116576D01*
X0316551Y0117775D02*
X0313292Y0117775D01*
X0313292Y0118973D02*
X0316551Y0118973D01*
X0316551Y0120172D02*
X0313292Y0120172D01*
X0313292Y0121370D02*
X0316551Y0121370D01*
X0316551Y0122569D02*
X0313292Y0122569D01*
X0313292Y0123768D02*
X0316551Y0123768D01*
X0316551Y0124966D02*
X0313292Y0124966D01*
X0313292Y0126165D02*
X0316551Y0126165D01*
X0316551Y0127363D02*
X0313292Y0127363D01*
X0313292Y0128562D02*
X0316551Y0128562D01*
X0316551Y0129760D02*
X0313292Y0129760D01*
X0313292Y0130959D02*
X0316551Y0130959D01*
X0316551Y0132157D02*
X0313292Y0132157D01*
X0313292Y0133356D02*
X0316551Y0133356D01*
X0316551Y0134554D02*
X0313292Y0134554D01*
X0313292Y0135753D02*
X0316551Y0135753D01*
X0316551Y0136951D02*
X0313292Y0136951D01*
X0313292Y0138150D02*
X0316551Y0138150D01*
X0316551Y0139348D02*
X0313292Y0139348D01*
X0313292Y0140547D02*
X0316551Y0140547D01*
X0316551Y0141745D02*
X0313292Y0141745D01*
X0313292Y0142944D02*
X0316551Y0142944D01*
X0316551Y0144142D02*
X0313292Y0144142D01*
X0313292Y0145341D02*
X0316551Y0145341D01*
X0316551Y0146539D02*
X0313292Y0146539D01*
X0313292Y0147738D02*
X0316551Y0147738D01*
X0316551Y0148936D02*
X0313292Y0148936D01*
X0312370Y0150135D02*
X0316551Y0150135D01*
X0316551Y0151333D02*
X0311171Y0151333D01*
X0309973Y0152532D02*
X0316551Y0152532D01*
X0316551Y0153730D02*
X0309893Y0153730D01*
X0309830Y0154929D02*
X0316551Y0154929D01*
X0316551Y0156127D02*
X0309311Y0156127D01*
X0307784Y0157326D02*
X0316551Y0157326D01*
X0316551Y0158524D02*
X0304578Y0158524D01*
X0304446Y0159723D02*
X0316551Y0159723D01*
X0316551Y0160921D02*
X0305062Y0160921D01*
X0305062Y0162120D02*
X0316551Y0162120D01*
X0316551Y0163318D02*
X0310955Y0163318D01*
X0310866Y0163294D02*
X0311273Y0163404D01*
X0311638Y0163614D01*
X0311935Y0163912D01*
X0312146Y0164277D01*
X0312255Y0164684D01*
X0312255Y0166676D01*
X0309071Y0166676D01*
X0309071Y0163294D01*
X0310866Y0163294D01*
X0309071Y0163318D02*
X0308302Y0163318D01*
X0308302Y0164517D02*
X0309071Y0164517D01*
X0309071Y0165715D02*
X0308302Y0165715D01*
X0308302Y0166914D02*
X0305062Y0166914D01*
X0305062Y0168112D02*
X0305118Y0168112D01*
X0305118Y0169311D02*
X0305062Y0169311D01*
X0305062Y0170509D02*
X0305672Y0170509D01*
X0305217Y0171708D02*
X0305062Y0171708D01*
X0302075Y0171708D02*
X0301330Y0171708D01*
X0301071Y0170509D02*
X0302075Y0170509D01*
X0302075Y0169311D02*
X0271507Y0169311D01*
X0271507Y0168621D02*
X0271507Y0170613D01*
X0268323Y0170613D01*
X0268323Y0171381D01*
X0271507Y0171381D01*
X0271507Y0173373D01*
X0271398Y0173780D01*
X0271187Y0174145D01*
X0270890Y0174443D01*
X0270525Y0174653D01*
X0270118Y0174762D01*
X0268323Y0174762D01*
X0268323Y0171381D01*
X0267554Y0171381D01*
X0267554Y0170613D01*
X0264370Y0170613D01*
X0264370Y0168621D01*
X0264479Y0168214D01*
X0264690Y0167849D01*
X0264958Y0167581D01*
X0264469Y0167091D01*
X0264469Y0161517D01*
X0265348Y0160637D01*
X0270529Y0160637D01*
X0271366Y0161474D01*
X0271366Y0160855D01*
X0270838Y0160636D01*
X0269835Y0159632D01*
X0269291Y0158321D01*
X0269291Y0156901D01*
X0269835Y0155590D01*
X0270838Y0154586D01*
X0272150Y0154043D01*
X0273570Y0154043D01*
X0274881Y0154586D01*
X0275885Y0155590D01*
X0276428Y0156901D01*
X0276428Y0158321D01*
X0275885Y0159632D01*
X0274881Y0160636D01*
X0274354Y0160855D01*
X0274354Y0162810D01*
X0275492Y0162810D01*
X0275492Y0161320D01*
X0276372Y0160440D01*
X0284702Y0160440D01*
X0285582Y0161320D01*
X0285582Y0167288D01*
X0284702Y0168168D01*
X0276372Y0168168D01*
X0275492Y0167288D01*
X0275492Y0165798D01*
X0271409Y0165798D01*
X0271409Y0167091D01*
X0270919Y0167581D01*
X0271187Y0167849D01*
X0271398Y0168214D01*
X0271507Y0168621D01*
X0271339Y0168112D02*
X0276316Y0168112D01*
X0275492Y0166914D02*
X0271409Y0166914D01*
X0276011Y0170110D02*
X0276376Y0169900D01*
X0276783Y0169791D01*
X0279956Y0169791D01*
X0279956Y0173172D01*
X0275394Y0173172D01*
X0275394Y0171180D01*
X0275503Y0170773D01*
X0275713Y0170408D01*
X0276011Y0170110D01*
X0275655Y0170509D02*
X0271507Y0170509D01*
X0271507Y0171708D02*
X0275394Y0171708D01*
X0275394Y0172906D02*
X0271507Y0172906D01*
X0271210Y0174105D02*
X0279956Y0174105D01*
X0279956Y0174334D02*
X0279956Y0173172D01*
X0281118Y0173172D01*
X0281118Y0174334D01*
X0279956Y0174334D01*
X0279956Y0177715D01*
X0276783Y0177715D01*
X0276376Y0177606D01*
X0276011Y0177395D01*
X0275713Y0177097D01*
X0275503Y0176733D01*
X0275394Y0176326D01*
X0275394Y0174334D01*
X0279956Y0174334D01*
X0279956Y0175304D02*
X0281118Y0175304D01*
X0281118Y0174334D02*
X0281118Y0177715D01*
X0284291Y0177715D01*
X0284698Y0177606D01*
X0285063Y0177395D01*
X0285361Y0177097D01*
X0285571Y0176733D01*
X0285680Y0176326D01*
X0285680Y0174334D01*
X0281118Y0174334D01*
X0281118Y0174105D02*
X0291240Y0174105D01*
X0291240Y0172906D02*
X0285680Y0172906D01*
X0285680Y0173172D02*
X0281118Y0173172D01*
X0281118Y0169791D01*
X0284291Y0169791D01*
X0284698Y0169900D01*
X0285063Y0170110D01*
X0285361Y0170408D01*
X0285571Y0170773D01*
X0285680Y0171180D01*
X0285680Y0173172D01*
X0285680Y0171708D02*
X0291240Y0171708D01*
X0291499Y0170509D02*
X0285419Y0170509D01*
X0284758Y0168112D02*
X0292047Y0168112D01*
X0292124Y0168157D02*
X0291759Y0167946D01*
X0291461Y0167649D01*
X0291251Y0167284D01*
X0291142Y0166877D01*
X0291142Y0164885D01*
X0295704Y0164885D01*
X0295704Y0168266D01*
X0292531Y0168266D01*
X0292124Y0168157D01*
X0291152Y0166914D02*
X0285582Y0166914D01*
X0285582Y0165715D02*
X0291142Y0165715D01*
X0291142Y0163723D02*
X0291142Y0161731D01*
X0291251Y0161324D01*
X0291461Y0160959D01*
X0291759Y0160661D01*
X0292124Y0160451D01*
X0292531Y0160342D01*
X0295704Y0160342D01*
X0295704Y0163723D01*
X0291142Y0163723D01*
X0291142Y0163318D02*
X0285582Y0163318D01*
X0285582Y0162120D02*
X0291142Y0162120D01*
X0291499Y0160921D02*
X0285184Y0160921D01*
X0285582Y0164517D02*
X0295704Y0164517D01*
X0295704Y0164885D02*
X0295704Y0163723D01*
X0296866Y0163723D01*
X0296866Y0164885D01*
X0295704Y0164885D01*
X0295704Y0165715D02*
X0296866Y0165715D01*
X0296866Y0164885D02*
X0296866Y0168266D01*
X0300039Y0168266D01*
X0300446Y0168157D01*
X0300811Y0167946D01*
X0301109Y0167649D01*
X0301319Y0167284D01*
X0301428Y0166877D01*
X0301428Y0164885D01*
X0296866Y0164885D01*
X0296866Y0164517D02*
X0302075Y0164517D01*
X0302075Y0165715D02*
X0301428Y0165715D01*
X0301418Y0166914D02*
X0302075Y0166914D01*
X0302075Y0168112D02*
X0300523Y0168112D01*
X0296866Y0168112D02*
X0295704Y0168112D01*
X0295704Y0166914D02*
X0296866Y0166914D01*
X0296866Y0163318D02*
X0295704Y0163318D01*
X0295704Y0162120D02*
X0296866Y0162120D01*
X0296866Y0160921D02*
X0295704Y0160921D01*
X0297696Y0159723D02*
X0275795Y0159723D01*
X0275891Y0160921D02*
X0274354Y0160921D01*
X0274354Y0162120D02*
X0275492Y0162120D01*
X0271366Y0160921D02*
X0270813Y0160921D01*
X0269925Y0159723D02*
X0263527Y0159723D01*
X0263527Y0160921D02*
X0265064Y0160921D01*
X0264469Y0162120D02*
X0263527Y0162120D01*
X0263527Y0163318D02*
X0264469Y0163318D01*
X0264469Y0164517D02*
X0263527Y0164517D01*
X0263527Y0165715D02*
X0264469Y0165715D01*
X0264469Y0166914D02*
X0263527Y0166914D01*
X0263527Y0168112D02*
X0264538Y0168112D01*
X0264370Y0169311D02*
X0263527Y0169311D01*
X0263527Y0170509D02*
X0264370Y0170509D01*
X0264370Y0171381D02*
X0267554Y0171381D01*
X0267554Y0174762D01*
X0265759Y0174762D01*
X0265352Y0174653D01*
X0264988Y0174443D01*
X0264690Y0174145D01*
X0264479Y0173780D01*
X0264370Y0173373D01*
X0264370Y0171381D01*
X0264370Y0171708D02*
X0263527Y0171708D01*
X0263527Y0172906D02*
X0264370Y0172906D01*
X0264667Y0174105D02*
X0263527Y0174105D01*
X0263527Y0175304D02*
X0275394Y0175304D01*
X0275441Y0176502D02*
X0263527Y0176502D01*
X0263527Y0177701D02*
X0276729Y0177701D01*
X0279956Y0177701D02*
X0281118Y0177701D01*
X0281118Y0176502D02*
X0279956Y0176502D01*
X0279956Y0172906D02*
X0281118Y0172906D01*
X0281118Y0171708D02*
X0279956Y0171708D01*
X0279956Y0170509D02*
X0281118Y0170509D01*
X0285680Y0175304D02*
X0291240Y0175304D01*
X0291240Y0176502D02*
X0285633Y0176502D01*
X0284345Y0177701D02*
X0316551Y0177701D01*
X0316551Y0178899D02*
X0263527Y0178899D01*
X0263527Y0180098D02*
X0316551Y0180098D01*
X0316551Y0181296D02*
X0263527Y0181296D01*
X0263527Y0182495D02*
X0293794Y0182495D01*
X0294104Y0182184D02*
X0291409Y0184879D01*
X0291409Y0186384D01*
X0295609Y0186384D01*
X0295609Y0187184D01*
X0291409Y0187184D01*
X0291409Y0188690D01*
X0294104Y0191384D01*
X0295609Y0191384D01*
X0295609Y0187184D01*
X0296409Y0187184D01*
X0296409Y0191384D01*
X0297915Y0191384D01*
X0300609Y0188690D01*
X0300609Y0187184D01*
X0296410Y0187184D01*
X0296410Y0186384D01*
X0300609Y0186384D01*
X0300609Y0184879D01*
X0297915Y0182184D01*
X0296409Y0182184D01*
X0296409Y0186384D01*
X0295609Y0186384D01*
X0295609Y0182184D01*
X0294104Y0182184D01*
X0295609Y0182495D02*
X0296409Y0182495D01*
X0296409Y0183693D02*
X0295609Y0183693D01*
X0295609Y0184892D02*
X0296409Y0184892D01*
X0296409Y0186090D02*
X0295609Y0186090D01*
X0295609Y0187289D02*
X0296409Y0187289D01*
X0296409Y0188487D02*
X0295609Y0188487D01*
X0295609Y0189686D02*
X0296409Y0189686D01*
X0296409Y0190884D02*
X0295609Y0190884D01*
X0293604Y0190884D02*
X0270020Y0190884D01*
X0268822Y0189686D02*
X0292405Y0189686D01*
X0291409Y0188487D02*
X0267623Y0188487D01*
X0266425Y0187289D02*
X0291409Y0187289D01*
X0291409Y0186090D02*
X0265226Y0186090D01*
X0264028Y0184892D02*
X0291409Y0184892D01*
X0292595Y0183693D02*
X0263527Y0183693D01*
X0263527Y0184391D02*
X0274427Y0195291D01*
X0291508Y0195291D01*
X0291508Y0194920D01*
X0294145Y0192283D01*
X0297874Y0192283D01*
X0300511Y0194920D01*
X0300511Y0198649D01*
X0298751Y0200409D01*
X0300273Y0200409D01*
X0301770Y0198911D01*
X0301508Y0198649D01*
X0301508Y0194920D01*
X0304145Y0192283D01*
X0307874Y0192283D01*
X0310511Y0194920D01*
X0310511Y0198649D01*
X0307874Y0201286D01*
X0304145Y0201286D01*
X0303883Y0201024D01*
X0301510Y0203396D01*
X0298987Y0203396D01*
X0300511Y0204920D01*
X0300511Y0208649D01*
X0297874Y0211286D01*
X0294145Y0211286D01*
X0291508Y0208649D01*
X0291508Y0208278D01*
X0267812Y0208278D01*
X0254328Y0194794D01*
X0253453Y0193919D01*
X0253453Y0164792D01*
X0252925Y0164573D01*
X0251921Y0163569D01*
X0251378Y0162258D01*
X0251378Y0160838D01*
X0251921Y0159527D01*
X0252925Y0158523D01*
X0254237Y0157980D01*
X0255656Y0157980D01*
X0256968Y0158523D01*
X0257972Y0159527D01*
X0258515Y0160838D01*
X0258515Y0162258D01*
X0257972Y0163569D01*
X0256968Y0164573D01*
X0256440Y0164792D01*
X0256440Y0188669D01*
X0257256Y0187854D01*
X0258567Y0187310D01*
X0259987Y0187310D01*
X0261299Y0187854D01*
X0262302Y0188857D01*
X0262846Y0190169D01*
X0262846Y0191589D01*
X0262627Y0192116D01*
X0270919Y0200409D01*
X0293268Y0200409D01*
X0291508Y0198649D01*
X0291508Y0198278D01*
X0273189Y0198278D01*
X0261414Y0186503D01*
X0260539Y0185628D01*
X0260539Y0156918D01*
X0260012Y0156699D01*
X0259008Y0155695D01*
X0258465Y0154384D01*
X0258465Y0152964D01*
X0259008Y0151653D01*
X0260012Y0150649D01*
X0261323Y0150106D01*
X0262743Y0150106D01*
X0264054Y0150649D01*
X0265058Y0151653D01*
X0265602Y0152964D01*
X0265602Y0154384D01*
X0265058Y0155695D01*
X0264054Y0156699D01*
X0263527Y0156918D01*
X0263527Y0184391D01*
X0260539Y0184892D02*
X0256440Y0184892D01*
X0256440Y0186090D02*
X0261001Y0186090D01*
X0262200Y0187289D02*
X0256440Y0187289D01*
X0256440Y0188487D02*
X0256622Y0188487D01*
X0253453Y0188487D02*
X0235966Y0188487D01*
X0234768Y0187289D02*
X0253453Y0187289D01*
X0253453Y0186090D02*
X0233569Y0186090D01*
X0232371Y0184892D02*
X0253453Y0184892D01*
X0253453Y0183693D02*
X0231172Y0183693D01*
X0229974Y0182495D02*
X0253453Y0182495D01*
X0253453Y0181296D02*
X0228775Y0181296D01*
X0227577Y0180098D02*
X0253453Y0180098D01*
X0253453Y0178899D02*
X0226378Y0178899D01*
X0225180Y0177701D02*
X0253453Y0177701D01*
X0253453Y0176502D02*
X0223981Y0176502D01*
X0222783Y0175304D02*
X0253453Y0175304D01*
X0253453Y0174105D02*
X0247466Y0174105D01*
X0248180Y0172906D02*
X0253453Y0172906D01*
X0253453Y0171708D02*
X0248180Y0171708D01*
X0248180Y0170509D02*
X0253453Y0170509D01*
X0253453Y0169311D02*
X0248180Y0169311D01*
X0248180Y0168112D02*
X0253453Y0168112D01*
X0253453Y0166914D02*
X0248042Y0166914D01*
X0248279Y0165715D02*
X0253453Y0165715D01*
X0252869Y0164517D02*
X0248279Y0164517D01*
X0248279Y0163318D02*
X0251817Y0163318D01*
X0251378Y0162120D02*
X0248279Y0162120D01*
X0248051Y0160921D02*
X0251378Y0160921D01*
X0251840Y0159723D02*
X0223541Y0159723D01*
X0224739Y0160921D02*
X0241370Y0160921D01*
X0241461Y0160762D02*
X0241759Y0160465D01*
X0242124Y0160254D01*
X0242531Y0160145D01*
X0244326Y0160145D01*
X0244326Y0163526D01*
X0241142Y0163526D01*
X0241142Y0161534D01*
X0241251Y0161127D01*
X0241461Y0160762D01*
X0241142Y0162120D02*
X0225938Y0162120D01*
X0227136Y0163318D02*
X0241142Y0163318D01*
X0241142Y0164517D02*
X0228335Y0164517D01*
X0229533Y0165715D02*
X0241142Y0165715D01*
X0241378Y0166914D02*
X0230732Y0166914D01*
X0231930Y0168112D02*
X0234477Y0168112D01*
X0231301Y0171708D02*
X0219187Y0171708D01*
X0217989Y0170509D02*
X0230103Y0170509D01*
X0228904Y0169311D02*
X0216790Y0169311D01*
X0215592Y0168112D02*
X0227706Y0168112D01*
X0226507Y0166914D02*
X0214393Y0166914D01*
X0213195Y0165715D02*
X0225309Y0165715D01*
X0224110Y0164517D02*
X0211996Y0164517D01*
X0210798Y0163318D02*
X0222912Y0163318D01*
X0221713Y0162120D02*
X0209599Y0162120D01*
X0207824Y0164569D02*
X0188535Y0164569D01*
X0188535Y0165998D01*
X0188457Y0166076D01*
X0188535Y0166154D01*
X0188535Y0171998D01*
X0187655Y0172877D01*
X0185377Y0172877D01*
X0185377Y0175693D01*
X0187455Y0177771D01*
X0188330Y0178646D01*
X0188330Y0184152D01*
X0190017Y0182465D01*
X0193498Y0182465D01*
X0195959Y0184926D01*
X0195959Y0188406D01*
X0195745Y0188620D01*
X0197494Y0190369D01*
X0198369Y0191244D01*
X0198369Y0194112D01*
X0200017Y0192465D01*
X0203498Y0192465D01*
X0205421Y0194388D01*
X0205421Y0192482D01*
X0203653Y0190713D01*
X0203498Y0190868D01*
X0200017Y0190868D01*
X0197556Y0188406D01*
X0197556Y0184926D01*
X0200017Y0182465D01*
X0203498Y0182465D01*
X0205959Y0184926D01*
X0205959Y0188406D01*
X0205765Y0188601D01*
X0207534Y0190369D01*
X0208409Y0191244D01*
X0208409Y0194073D01*
X0210017Y0192465D01*
X0213498Y0192465D01*
X0215959Y0194926D01*
X0215959Y0198406D01*
X0213498Y0200868D01*
X0210017Y0200868D01*
X0208409Y0199259D01*
X0208409Y0199315D01*
X0210377Y0201284D01*
X0210377Y0205337D01*
X0212655Y0205337D01*
X0213535Y0206217D01*
X0213535Y0212061D01*
X0213457Y0212139D01*
X0213535Y0212217D01*
X0213535Y0213645D01*
X0228296Y0213645D01*
X0241360Y0200581D01*
X0241142Y0200053D01*
X0241142Y0198633D01*
X0241360Y0198106D01*
X0207824Y0164569D01*
X0208970Y0165715D02*
X0188535Y0165715D01*
X0188535Y0166914D02*
X0210168Y0166914D01*
X0211367Y0168112D02*
X0188535Y0168112D01*
X0188535Y0169311D02*
X0212565Y0169311D01*
X0213764Y0170509D02*
X0188535Y0170509D01*
X0188535Y0171708D02*
X0214963Y0171708D01*
X0216161Y0172906D02*
X0185377Y0172906D01*
X0185377Y0174105D02*
X0217360Y0174105D01*
X0218558Y0175304D02*
X0185377Y0175304D01*
X0186186Y0176502D02*
X0219757Y0176502D01*
X0220955Y0177701D02*
X0187385Y0177701D01*
X0188330Y0178899D02*
X0222154Y0178899D01*
X0223352Y0180098D02*
X0188330Y0180098D01*
X0188330Y0181296D02*
X0224551Y0181296D01*
X0225749Y0182495D02*
X0213667Y0182495D01*
X0213539Y0182366D02*
X0216057Y0184885D01*
X0216057Y0186366D01*
X0212058Y0186366D01*
X0212058Y0186966D01*
X0216057Y0186966D01*
X0216057Y0188447D01*
X0213539Y0190966D01*
X0212057Y0190966D01*
X0212057Y0186966D01*
X0211457Y0186966D01*
X0211457Y0186366D01*
X0207457Y0186366D01*
X0207457Y0184885D01*
X0209976Y0182366D01*
X0211457Y0182366D01*
X0211457Y0186366D01*
X0212057Y0186366D01*
X0212057Y0182366D01*
X0213539Y0182366D01*
X0212057Y0182495D02*
X0211457Y0182495D01*
X0211457Y0183693D02*
X0212057Y0183693D01*
X0212057Y0184892D02*
X0211457Y0184892D01*
X0211457Y0186090D02*
X0212057Y0186090D01*
X0211457Y0186966D02*
X0207457Y0186966D01*
X0207457Y0188447D01*
X0209976Y0190966D01*
X0211457Y0190966D01*
X0211457Y0186966D01*
X0211457Y0187289D02*
X0212057Y0187289D01*
X0212057Y0188487D02*
X0211457Y0188487D01*
X0211457Y0189686D02*
X0212057Y0189686D01*
X0212057Y0190884D02*
X0211457Y0190884D01*
X0209894Y0190884D02*
X0208049Y0190884D01*
X0208409Y0192083D02*
X0235337Y0192083D01*
X0236536Y0193281D02*
X0214314Y0193281D01*
X0215513Y0194480D02*
X0237734Y0194480D01*
X0238933Y0195678D02*
X0215959Y0195678D01*
X0215959Y0196877D02*
X0240131Y0196877D01*
X0241330Y0198075D02*
X0215959Y0198075D01*
X0215092Y0199274D02*
X0241142Y0199274D01*
X0241315Y0200472D02*
X0213893Y0200472D01*
X0210377Y0201671D02*
X0240270Y0201671D01*
X0239072Y0202869D02*
X0210377Y0202869D01*
X0210377Y0204068D02*
X0237873Y0204068D01*
X0236675Y0205266D02*
X0210377Y0205266D01*
X0213535Y0206465D02*
X0235476Y0206465D01*
X0234278Y0207663D02*
X0213535Y0207663D01*
X0213535Y0208862D02*
X0233079Y0208862D01*
X0231881Y0210060D02*
X0213535Y0210060D01*
X0213535Y0211259D02*
X0230682Y0211259D01*
X0229484Y0212457D02*
X0213535Y0212457D01*
X0213535Y0217251D02*
X0316551Y0217251D01*
X0316551Y0216053D02*
X0230113Y0216053D01*
X0231312Y0214854D02*
X0316551Y0214854D01*
X0316551Y0213656D02*
X0232510Y0213656D01*
X0233709Y0212457D02*
X0316551Y0212457D01*
X0316551Y0211259D02*
X0308040Y0211259D01*
X0307915Y0211384D02*
X0306409Y0211384D01*
X0306409Y0207184D01*
X0305609Y0207184D01*
X0305609Y0206384D01*
X0301409Y0206384D01*
X0301409Y0204879D01*
X0304104Y0202184D01*
X0305609Y0202184D01*
X0305609Y0206384D01*
X0306409Y0206384D01*
X0306409Y0202184D01*
X0307915Y0202184D01*
X0310609Y0204879D01*
X0310609Y0206384D01*
X0306410Y0206384D01*
X0306410Y0207184D01*
X0310609Y0207184D01*
X0310609Y0208690D01*
X0307915Y0211384D01*
X0306409Y0211259D02*
X0305609Y0211259D01*
X0305609Y0211384D02*
X0304104Y0211384D01*
X0301409Y0208690D01*
X0301409Y0207184D01*
X0305609Y0207184D01*
X0305609Y0211384D01*
X0305609Y0210060D02*
X0306409Y0210060D01*
X0306409Y0208862D02*
X0305609Y0208862D01*
X0305609Y0207663D02*
X0306409Y0207663D01*
X0306410Y0206465D02*
X0316551Y0206465D01*
X0316551Y0207663D02*
X0310609Y0207663D01*
X0310437Y0208862D02*
X0316551Y0208862D01*
X0316551Y0210060D02*
X0309239Y0210060D01*
X0305609Y0206465D02*
X0300511Y0206465D01*
X0300511Y0207663D02*
X0301409Y0207663D01*
X0301582Y0208862D02*
X0300298Y0208862D01*
X0299100Y0210060D02*
X0302780Y0210060D01*
X0303979Y0211259D02*
X0297901Y0211259D01*
X0294118Y0211259D02*
X0234907Y0211259D01*
X0236106Y0210060D02*
X0292919Y0210060D01*
X0291721Y0208862D02*
X0237304Y0208862D01*
X0238503Y0207663D02*
X0267197Y0207663D01*
X0265999Y0206465D02*
X0239701Y0206465D01*
X0240900Y0205266D02*
X0264800Y0205266D01*
X0263602Y0204068D02*
X0242098Y0204068D01*
X0243297Y0202869D02*
X0243898Y0202869D01*
X0245523Y0202869D02*
X0262403Y0202869D01*
X0261205Y0201671D02*
X0247429Y0201671D01*
X0248105Y0200472D02*
X0260006Y0200472D01*
X0258807Y0199274D02*
X0248279Y0199274D01*
X0248047Y0198075D02*
X0257609Y0198075D01*
X0256410Y0196877D02*
X0247290Y0196877D01*
X0243158Y0195678D02*
X0255212Y0195678D01*
X0254013Y0194480D02*
X0241959Y0194480D01*
X0240760Y0193281D02*
X0253453Y0193281D01*
X0253453Y0192083D02*
X0239562Y0192083D01*
X0238363Y0190884D02*
X0253453Y0190884D01*
X0253453Y0189686D02*
X0237165Y0189686D01*
X0234139Y0190884D02*
X0213621Y0190884D01*
X0214819Y0189686D02*
X0232940Y0189686D01*
X0231742Y0188487D02*
X0216018Y0188487D01*
X0216057Y0187289D02*
X0230543Y0187289D01*
X0229345Y0186090D02*
X0216057Y0186090D01*
X0216057Y0184892D02*
X0228146Y0184892D01*
X0226948Y0183693D02*
X0214866Y0183693D01*
X0209848Y0182495D02*
X0203528Y0182495D01*
X0204726Y0183693D02*
X0208649Y0183693D01*
X0207457Y0184892D02*
X0205925Y0184892D01*
X0205959Y0186090D02*
X0207457Y0186090D01*
X0207457Y0187289D02*
X0205959Y0187289D01*
X0205878Y0188487D02*
X0207497Y0188487D01*
X0206850Y0189686D02*
X0208696Y0189686D01*
X0208409Y0193281D02*
X0209201Y0193281D01*
X0205421Y0193281D02*
X0204314Y0193281D01*
X0205022Y0192083D02*
X0198369Y0192083D01*
X0198369Y0193281D02*
X0199201Y0193281D01*
X0198009Y0190884D02*
X0203824Y0190884D01*
X0198835Y0189686D02*
X0196811Y0189686D01*
X0197637Y0188487D02*
X0195878Y0188487D01*
X0195959Y0187289D02*
X0197556Y0187289D01*
X0197556Y0186090D02*
X0195959Y0186090D01*
X0195925Y0184892D02*
X0197590Y0184892D01*
X0198789Y0183693D02*
X0194726Y0183693D01*
X0193528Y0182495D02*
X0199987Y0182495D01*
X0189987Y0182495D02*
X0188330Y0182495D01*
X0188330Y0183693D02*
X0188789Y0183693D01*
X0185343Y0183693D02*
X0184726Y0183693D01*
X0185343Y0184309D02*
X0185343Y0179883D01*
X0183265Y0177805D01*
X0182390Y0176931D01*
X0182390Y0172877D01*
X0180111Y0172877D01*
X0179232Y0171998D01*
X0179232Y0166154D01*
X0179310Y0166076D01*
X0179232Y0165998D01*
X0179232Y0164569D01*
X0172787Y0164569D01*
X0172787Y0165998D01*
X0172709Y0166076D01*
X0172787Y0166154D01*
X0172787Y0171998D01*
X0171907Y0172877D01*
X0169629Y0172877D01*
X0169629Y0178112D01*
X0168251Y0179490D01*
X0168251Y0184231D01*
X0170017Y0182465D01*
X0173498Y0182465D01*
X0175959Y0184926D01*
X0175959Y0188406D01*
X0175804Y0188561D01*
X0177416Y0190172D01*
X0178291Y0191047D01*
X0178291Y0194052D01*
X0179976Y0192366D01*
X0181457Y0192366D01*
X0181457Y0196366D01*
X0182057Y0196366D01*
X0182057Y0192366D01*
X0183258Y0192366D01*
X0181760Y0190868D01*
X0180017Y0190868D01*
X0177556Y0188406D01*
X0177556Y0184926D01*
X0180017Y0182465D01*
X0183498Y0182465D01*
X0185343Y0184309D01*
X0185343Y0182495D02*
X0183528Y0182495D01*
X0185343Y0181296D02*
X0168251Y0181296D01*
X0168251Y0180098D02*
X0185343Y0180098D01*
X0184358Y0178899D02*
X0168842Y0178899D01*
X0169629Y0177701D02*
X0183160Y0177701D01*
X0182390Y0176502D02*
X0169629Y0176502D01*
X0169629Y0175304D02*
X0182390Y0175304D01*
X0182390Y0174105D02*
X0169629Y0174105D01*
X0169629Y0172906D02*
X0182390Y0172906D01*
X0179232Y0171708D02*
X0172787Y0171708D01*
X0172787Y0170509D02*
X0179232Y0170509D01*
X0179232Y0169311D02*
X0172787Y0169311D01*
X0172787Y0168112D02*
X0179232Y0168112D01*
X0179232Y0166914D02*
X0172787Y0166914D01*
X0172787Y0165715D02*
X0179232Y0165715D01*
X0179232Y0160921D02*
X0172787Y0160921D01*
X0172356Y0159723D02*
X0179663Y0159723D01*
X0177109Y0156117D02*
X0186201Y0156117D01*
X0185386Y0155302D01*
X0184843Y0153990D01*
X0184843Y0152570D01*
X0185061Y0152043D01*
X0181406Y0148387D01*
X0181406Y0135608D01*
X0181180Y0135833D01*
X0179869Y0136376D01*
X0179184Y0136376D01*
X0179184Y0137455D01*
X0178641Y0138766D01*
X0177637Y0139770D01*
X0176326Y0140313D01*
X0175843Y0140313D01*
X0176234Y0140705D01*
X0177109Y0141580D01*
X0177109Y0156117D01*
X0177109Y0154929D02*
X0185231Y0154929D01*
X0184843Y0153730D02*
X0177109Y0153730D01*
X0177109Y0152532D02*
X0184859Y0152532D01*
X0184352Y0151333D02*
X0177109Y0151333D01*
X0177109Y0150135D02*
X0183153Y0150135D01*
X0181955Y0148936D02*
X0177109Y0148936D01*
X0177109Y0147738D02*
X0181406Y0147738D01*
X0181406Y0146539D02*
X0177109Y0146539D01*
X0177109Y0145341D02*
X0181406Y0145341D01*
X0181406Y0144142D02*
X0177109Y0144142D01*
X0177109Y0142944D02*
X0181406Y0142944D01*
X0181406Y0141745D02*
X0177109Y0141745D01*
X0176076Y0140547D02*
X0181406Y0140547D01*
X0181406Y0139348D02*
X0178059Y0139348D01*
X0178896Y0138150D02*
X0181406Y0138150D01*
X0181406Y0136951D02*
X0179184Y0136951D01*
X0181261Y0135753D02*
X0181406Y0135753D01*
X0184393Y0135753D02*
X0185705Y0135753D01*
X0185705Y0136951D02*
X0184393Y0136951D01*
X0184393Y0138150D02*
X0185705Y0138150D01*
X0185705Y0139348D02*
X0184393Y0139348D01*
X0184393Y0140547D02*
X0185705Y0140547D01*
X0185705Y0141745D02*
X0184393Y0141745D01*
X0184393Y0142944D02*
X0185705Y0142944D01*
X0184393Y0144142D02*
X0188613Y0144142D01*
X0188613Y0145341D02*
X0184393Y0145341D01*
X0184393Y0146539D02*
X0189794Y0146539D01*
X0189961Y0147738D02*
X0184981Y0147738D01*
X0186179Y0148936D02*
X0189987Y0148936D01*
X0190142Y0150135D02*
X0190484Y0150135D01*
X0191467Y0151333D02*
X0191860Y0151333D01*
X0191963Y0152532D02*
X0217626Y0152532D01*
X0217626Y0153730D02*
X0191980Y0153730D01*
X0191591Y0154929D02*
X0217626Y0154929D01*
X0220613Y0154929D02*
X0222219Y0154929D01*
X0221132Y0153730D02*
X0220613Y0153730D01*
X0220613Y0152532D02*
X0220669Y0152532D01*
X0220669Y0151333D02*
X0220613Y0151333D01*
X0220613Y0150135D02*
X0221107Y0150135D01*
X0220613Y0148936D02*
X0222157Y0148936D01*
X0222744Y0147738D02*
X0220613Y0147738D01*
X0220613Y0146539D02*
X0222744Y0146539D01*
X0222744Y0145341D02*
X0220613Y0145341D01*
X0220613Y0144142D02*
X0222744Y0144142D01*
X0222744Y0142944D02*
X0220613Y0142944D01*
X0220613Y0141745D02*
X0222008Y0141745D01*
X0220809Y0140547D02*
X0219719Y0140547D01*
X0222637Y0138150D02*
X0226089Y0138150D01*
X0227288Y0139348D02*
X0223835Y0139348D01*
X0225034Y0140547D02*
X0227862Y0140547D01*
X0226986Y0141745D02*
X0225731Y0141745D01*
X0225731Y0142944D02*
X0226106Y0142944D01*
X0225787Y0144142D02*
X0225731Y0144142D01*
X0225731Y0145341D02*
X0225874Y0145341D01*
X0225731Y0146539D02*
X0226426Y0146539D01*
X0225731Y0147738D02*
X0228036Y0147738D01*
X0226318Y0148936D02*
X0232393Y0148936D01*
X0232980Y0147738D02*
X0230676Y0147738D01*
X0232285Y0146539D02*
X0232980Y0146539D01*
X0232980Y0145341D02*
X0232838Y0145341D01*
X0232924Y0144142D02*
X0232980Y0144142D01*
X0232980Y0142944D02*
X0232606Y0142944D01*
X0232980Y0141745D02*
X0231726Y0141745D01*
X0230850Y0140547D02*
X0232980Y0140547D01*
X0232980Y0139348D02*
X0230850Y0139348D01*
X0230314Y0138150D02*
X0232585Y0138150D01*
X0231387Y0136951D02*
X0229116Y0136951D01*
X0230188Y0135753D02*
X0227917Y0135753D01*
X0228990Y0134554D02*
X0226718Y0134554D01*
X0226428Y0133356D02*
X0227791Y0133356D01*
X0226593Y0132157D02*
X0226428Y0132157D01*
X0228421Y0129760D02*
X0241734Y0129760D01*
X0241209Y0128562D02*
X0227222Y0128562D01*
X0229619Y0130959D02*
X0243277Y0130959D01*
X0246144Y0130959D02*
X0304738Y0130959D01*
X0304738Y0132157D02*
X0230818Y0132157D01*
X0232016Y0133356D02*
X0304738Y0133356D01*
X0304738Y0134554D02*
X0233215Y0134554D01*
X0234413Y0135753D02*
X0253254Y0135753D01*
X0253516Y0135491D02*
X0254827Y0134948D01*
X0256247Y0134948D01*
X0257558Y0135491D01*
X0258562Y0136495D01*
X0258781Y0137023D01*
X0259154Y0137023D01*
X0259154Y0135729D01*
X0260033Y0134850D01*
X0265214Y0134850D01*
X0266094Y0135729D01*
X0266094Y0137023D01*
X0270571Y0137023D01*
X0270571Y0135729D01*
X0271450Y0134850D01*
X0276631Y0134850D01*
X0277511Y0135729D01*
X0277511Y0136996D01*
X0277857Y0136996D01*
X0278076Y0136468D01*
X0279079Y0135465D01*
X0280391Y0134921D01*
X0281811Y0134921D01*
X0283122Y0135465D01*
X0284126Y0136468D01*
X0284669Y0137780D01*
X0284669Y0139200D01*
X0284126Y0140511D01*
X0283122Y0141515D01*
X0281811Y0142058D01*
X0280391Y0142058D01*
X0279079Y0141515D01*
X0278076Y0140511D01*
X0277857Y0139983D01*
X0277511Y0139983D01*
X0277511Y0141304D01*
X0277021Y0141793D01*
X0277290Y0142062D01*
X0277500Y0142427D01*
X0277609Y0142833D01*
X0277609Y0144825D01*
X0274425Y0144825D01*
X0274425Y0145594D01*
X0273657Y0145594D01*
X0273657Y0148975D01*
X0271862Y0148975D01*
X0271455Y0148866D01*
X0271090Y0148655D01*
X0270792Y0148357D01*
X0270581Y0147992D01*
X0270472Y0147585D01*
X0270472Y0145594D01*
X0273657Y0145594D01*
X0273657Y0144825D01*
X0270472Y0144825D01*
X0270472Y0142833D01*
X0270581Y0142427D01*
X0270792Y0142062D01*
X0271060Y0141793D01*
X0270571Y0141304D01*
X0270571Y0140010D01*
X0266094Y0140010D01*
X0266094Y0141304D01*
X0265604Y0141793D01*
X0265872Y0142062D01*
X0266083Y0142427D01*
X0266192Y0142833D01*
X0266192Y0144825D01*
X0263008Y0144825D01*
X0263008Y0145594D01*
X0262239Y0145594D01*
X0262239Y0144825D01*
X0259055Y0144825D01*
X0259055Y0142833D01*
X0259164Y0142427D01*
X0259375Y0142062D01*
X0259643Y0141793D01*
X0259154Y0141304D01*
X0259154Y0140010D01*
X0258781Y0140010D01*
X0258562Y0140538D01*
X0257558Y0141542D01*
X0256247Y0142085D01*
X0254827Y0142085D01*
X0253516Y0141542D01*
X0252512Y0140538D01*
X0251969Y0139226D01*
X0251969Y0137807D01*
X0252512Y0136495D01*
X0253516Y0135491D01*
X0252323Y0136951D02*
X0235612Y0136951D01*
X0235968Y0138150D02*
X0251969Y0138150D01*
X0252019Y0139348D02*
X0235968Y0139348D01*
X0235968Y0140547D02*
X0252521Y0140547D01*
X0254007Y0141745D02*
X0235968Y0141745D01*
X0235968Y0142944D02*
X0259055Y0142944D01*
X0259055Y0144142D02*
X0235968Y0144142D01*
X0235968Y0145341D02*
X0262239Y0145341D01*
X0262239Y0145594D02*
X0259055Y0145594D01*
X0259055Y0147585D01*
X0259164Y0147992D01*
X0259375Y0148357D01*
X0259673Y0148655D01*
X0260038Y0148866D01*
X0260444Y0148975D01*
X0262239Y0148975D01*
X0262239Y0145594D01*
X0263008Y0145594D02*
X0263008Y0148975D01*
X0264803Y0148975D01*
X0265210Y0148866D01*
X0265575Y0148655D01*
X0265872Y0148357D01*
X0266083Y0147992D01*
X0266192Y0147585D01*
X0266192Y0145594D01*
X0263008Y0145594D01*
X0263008Y0145341D02*
X0273657Y0145341D01*
X0274425Y0145341D02*
X0297441Y0145341D01*
X0297453Y0146539D02*
X0283832Y0146539D01*
X0285553Y0147738D02*
X0297950Y0147738D01*
X0297834Y0144142D02*
X0277609Y0144142D01*
X0277609Y0142944D02*
X0298819Y0142944D01*
X0302952Y0141745D02*
X0282566Y0141745D01*
X0284090Y0140547D02*
X0304150Y0140547D01*
X0304738Y0139348D02*
X0284608Y0139348D01*
X0284669Y0138150D02*
X0304738Y0138150D01*
X0304738Y0136951D02*
X0284326Y0136951D01*
X0283410Y0135753D02*
X0304738Y0135753D01*
X0304738Y0129760D02*
X0247687Y0129760D01*
X0241142Y0127363D02*
X0216708Y0127363D01*
X0216708Y0126165D02*
X0241479Y0126165D01*
X0242387Y0124966D02*
X0216708Y0124966D01*
X0216708Y0123768D02*
X0242041Y0123768D01*
X0241336Y0122569D02*
X0216708Y0122569D01*
X0216708Y0121370D02*
X0241142Y0121370D01*
X0241352Y0120172D02*
X0216708Y0120172D01*
X0216806Y0118973D02*
X0242081Y0118973D01*
X0247340Y0118973D02*
X0269227Y0118973D01*
X0270426Y0117775D02*
X0216794Y0117775D01*
X0216708Y0114179D02*
X0266344Y0114179D01*
X0267543Y0112981D02*
X0216708Y0112981D01*
X0216197Y0111782D02*
X0268741Y0111782D01*
X0269940Y0110584D02*
X0196449Y0110584D01*
X0197648Y0111782D02*
X0208415Y0111782D01*
X0207806Y0118973D02*
X0206917Y0118973D01*
X0207905Y0120172D02*
X0205718Y0120172D01*
X0204520Y0121370D02*
X0207905Y0121370D01*
X0207905Y0122569D02*
X0203321Y0122569D01*
X0205737Y0126165D02*
X0194508Y0126165D01*
X0194508Y0127363D02*
X0204831Y0127363D01*
X0204831Y0128562D02*
X0199072Y0128562D01*
X0200271Y0129760D02*
X0204831Y0129760D01*
X0204831Y0130959D02*
X0201469Y0130959D01*
X0202668Y0132157D02*
X0204831Y0132157D01*
X0204831Y0133356D02*
X0203866Y0133356D01*
X0201439Y0135153D02*
X0196749Y0130463D01*
X0194508Y0130463D01*
X0194508Y0132809D01*
X0194606Y0133177D01*
X0194606Y0134087D01*
X0190106Y0134087D01*
X0185606Y0134087D01*
X0190106Y0134087D01*
X0190106Y0134087D01*
X0190106Y0134087D01*
X0194606Y0134087D01*
X0194606Y0134998D01*
X0194565Y0135153D01*
X0201439Y0135153D01*
X0200840Y0134554D02*
X0194606Y0134554D01*
X0194606Y0133356D02*
X0199642Y0133356D01*
X0198443Y0132157D02*
X0194508Y0132157D01*
X0194508Y0130959D02*
X0197245Y0130959D01*
X0194552Y0124966D02*
X0206936Y0124966D01*
X0207905Y0123768D02*
X0194606Y0123768D01*
X0185661Y0124966D02*
X0173204Y0124966D01*
X0173204Y0123768D02*
X0185606Y0123768D01*
X0183737Y0122569D02*
X0173204Y0122569D01*
X0173204Y0121370D02*
X0182538Y0121370D01*
X0181340Y0120172D02*
X0173204Y0120172D01*
X0173302Y0118973D02*
X0180141Y0118973D01*
X0178943Y0117775D02*
X0173290Y0117775D01*
X0164302Y0118973D02*
X0163413Y0118973D01*
X0164401Y0120172D02*
X0162214Y0120172D01*
X0161016Y0121370D02*
X0164401Y0121370D01*
X0164401Y0122569D02*
X0159817Y0122569D01*
X0162233Y0126165D02*
X0151004Y0126165D01*
X0151004Y0127363D02*
X0161327Y0127363D01*
X0161327Y0128562D02*
X0155568Y0128562D01*
X0156767Y0129760D02*
X0161327Y0129760D01*
X0161327Y0130959D02*
X0157965Y0130959D01*
X0159164Y0132157D02*
X0161327Y0132157D01*
X0161327Y0133356D02*
X0160362Y0133356D01*
X0157935Y0135153D02*
X0153245Y0130463D01*
X0151004Y0130463D01*
X0151004Y0132809D01*
X0151102Y0133177D01*
X0151102Y0134087D01*
X0146602Y0134087D01*
X0142102Y0134087D01*
X0146602Y0134087D01*
X0146602Y0134087D01*
X0146602Y0134087D01*
X0151102Y0134087D01*
X0151102Y0134998D01*
X0151061Y0135153D01*
X0157935Y0135153D01*
X0157336Y0134554D02*
X0151102Y0134554D01*
X0151102Y0133356D02*
X0156138Y0133356D01*
X0154939Y0132157D02*
X0151004Y0132157D01*
X0151004Y0130959D02*
X0153741Y0130959D01*
X0151048Y0124966D02*
X0163432Y0124966D01*
X0164401Y0123768D02*
X0151102Y0123768D01*
X0142102Y0123768D02*
X0129700Y0123768D01*
X0129700Y0124966D02*
X0142157Y0124966D01*
X0142201Y0126165D02*
X0129700Y0126165D01*
X0129700Y0127363D02*
X0142201Y0127363D01*
X0142201Y0128562D02*
X0139033Y0128562D01*
X0140232Y0129760D02*
X0142201Y0129760D01*
X0142201Y0130959D02*
X0140889Y0130959D01*
X0140889Y0132157D02*
X0142201Y0132157D01*
X0142102Y0133356D02*
X0140889Y0133356D01*
X0140889Y0134554D02*
X0142102Y0134554D01*
X0142201Y0135753D02*
X0140889Y0135753D01*
X0140889Y0136951D02*
X0142201Y0136951D01*
X0142201Y0138150D02*
X0140889Y0138150D01*
X0140889Y0139348D02*
X0142201Y0139348D01*
X0142201Y0140547D02*
X0140889Y0140547D01*
X0140889Y0141745D02*
X0142201Y0141745D01*
X0142201Y0142944D02*
X0140889Y0142944D01*
X0140889Y0144142D02*
X0145109Y0144142D01*
X0145109Y0145341D02*
X0140889Y0145341D01*
X0140889Y0146539D02*
X0146290Y0146539D01*
X0146457Y0147738D02*
X0141477Y0147738D01*
X0142675Y0148936D02*
X0146483Y0148936D01*
X0146638Y0150135D02*
X0146980Y0150135D01*
X0147963Y0151333D02*
X0148356Y0151333D01*
X0148460Y0152532D02*
X0174122Y0152532D01*
X0174122Y0153730D02*
X0148476Y0153730D01*
X0148087Y0154929D02*
X0174122Y0154929D01*
X0174122Y0151333D02*
X0151694Y0151333D01*
X0153071Y0150135D02*
X0174122Y0150135D01*
X0174122Y0148936D02*
X0153567Y0148936D01*
X0153594Y0147738D02*
X0174122Y0147738D01*
X0174122Y0146539D02*
X0163707Y0146539D01*
X0161934Y0146539D02*
X0156030Y0146539D01*
X0154256Y0146539D02*
X0153215Y0146539D01*
X0152393Y0145341D02*
X0152250Y0145341D01*
X0151736Y0144142D02*
X0148118Y0144142D01*
X0151004Y0142944D02*
X0151575Y0142944D01*
X0151819Y0141745D02*
X0151004Y0141745D01*
X0155161Y0138587D02*
X0155161Y0138587D01*
X0154723Y0138150D02*
X0158373Y0138150D01*
X0159571Y0139348D02*
X0155922Y0139348D01*
X0155762Y0139188D02*
X0155762Y0139188D01*
X0157693Y0140547D02*
X0160271Y0140547D01*
X0159496Y0141745D02*
X0158468Y0141745D01*
X0158712Y0142944D02*
X0159252Y0142944D01*
X0159413Y0144142D02*
X0158551Y0144142D01*
X0157893Y0145341D02*
X0160070Y0145341D01*
X0165570Y0145341D02*
X0174122Y0145341D01*
X0174122Y0144142D02*
X0166228Y0144142D01*
X0168802Y0144065D02*
X0168802Y0141765D01*
X0168802Y0141765D01*
X0168802Y0144065D01*
X0168802Y0142944D02*
X0168802Y0142944D01*
X0173230Y0142944D02*
X0174122Y0142944D01*
X0184393Y0134554D02*
X0185606Y0134554D01*
X0185606Y0133356D02*
X0184393Y0133356D01*
X0184393Y0132157D02*
X0185705Y0132157D01*
X0185705Y0130959D02*
X0184393Y0130959D01*
X0183735Y0129760D02*
X0185705Y0129760D01*
X0185705Y0128562D02*
X0182537Y0128562D01*
X0185705Y0127363D02*
X0173204Y0127363D01*
X0173204Y0126165D02*
X0185705Y0126165D01*
X0198424Y0138150D02*
X0201877Y0138150D01*
X0203075Y0139348D02*
X0199623Y0139348D01*
X0201196Y0140547D02*
X0203775Y0140547D01*
X0203000Y0141745D02*
X0201972Y0141745D01*
X0202216Y0142944D02*
X0202756Y0142944D01*
X0202917Y0144142D02*
X0202055Y0144142D01*
X0201397Y0145341D02*
X0203574Y0145341D01*
X0205437Y0146539D02*
X0199534Y0146539D01*
X0197760Y0146539D02*
X0196719Y0146539D01*
X0197098Y0147738D02*
X0217626Y0147738D01*
X0217626Y0148936D02*
X0197071Y0148936D01*
X0196575Y0150135D02*
X0217626Y0150135D01*
X0217626Y0151333D02*
X0195198Y0151333D01*
X0195754Y0145341D02*
X0195897Y0145341D01*
X0195240Y0144142D02*
X0191622Y0144142D01*
X0194508Y0142944D02*
X0195079Y0142944D01*
X0195323Y0141745D02*
X0194508Y0141745D01*
X0207211Y0146539D02*
X0217626Y0146539D01*
X0217626Y0145341D02*
X0209074Y0145341D01*
X0209732Y0144142D02*
X0217626Y0144142D01*
X0217626Y0142944D02*
X0216734Y0142944D01*
X0212306Y0142944D02*
X0212306Y0142944D01*
X0212306Y0144065D02*
X0212306Y0141765D01*
X0212306Y0144065D01*
X0212306Y0141765D02*
X0212306Y0141765D01*
X0222688Y0136951D02*
X0224891Y0136951D01*
X0235968Y0146539D02*
X0259055Y0146539D01*
X0259096Y0147738D02*
X0235968Y0147738D01*
X0236555Y0148936D02*
X0260301Y0148936D01*
X0261253Y0150135D02*
X0237604Y0150135D01*
X0238043Y0151333D02*
X0259327Y0151333D01*
X0258644Y0152532D02*
X0238043Y0152532D01*
X0237579Y0153730D02*
X0258465Y0153730D01*
X0258690Y0154929D02*
X0236492Y0154929D01*
X0232456Y0154929D02*
X0226256Y0154929D01*
X0227343Y0153730D02*
X0231369Y0153730D01*
X0230906Y0152532D02*
X0227806Y0152532D01*
X0227806Y0151333D02*
X0230906Y0151333D01*
X0231344Y0150135D02*
X0227368Y0150135D01*
X0220613Y0156127D02*
X0259440Y0156127D01*
X0260539Y0157326D02*
X0221144Y0157326D01*
X0222342Y0158524D02*
X0252924Y0158524D01*
X0256969Y0158524D02*
X0260539Y0158524D01*
X0260539Y0159723D02*
X0258053Y0159723D01*
X0258515Y0160921D02*
X0260539Y0160921D01*
X0260539Y0162120D02*
X0258515Y0162120D01*
X0258076Y0163318D02*
X0260539Y0163318D01*
X0260539Y0164517D02*
X0257024Y0164517D01*
X0256440Y0165715D02*
X0260539Y0165715D01*
X0260539Y0166914D02*
X0256440Y0166914D01*
X0256440Y0168112D02*
X0260539Y0168112D01*
X0260539Y0169311D02*
X0256440Y0169311D01*
X0256440Y0170509D02*
X0260539Y0170509D01*
X0260539Y0171708D02*
X0256440Y0171708D01*
X0256440Y0172906D02*
X0260539Y0172906D01*
X0260539Y0174105D02*
X0256440Y0174105D01*
X0256440Y0175304D02*
X0260539Y0175304D01*
X0260539Y0176502D02*
X0256440Y0176502D01*
X0256440Y0177701D02*
X0260539Y0177701D01*
X0260539Y0178899D02*
X0256440Y0178899D01*
X0256440Y0180098D02*
X0260539Y0180098D01*
X0260539Y0181296D02*
X0256440Y0181296D01*
X0256440Y0182495D02*
X0260539Y0182495D01*
X0260539Y0183693D02*
X0256440Y0183693D01*
X0261932Y0188487D02*
X0263398Y0188487D01*
X0262645Y0189686D02*
X0264597Y0189686D01*
X0265795Y0190884D02*
X0262846Y0190884D01*
X0262641Y0192083D02*
X0266994Y0192083D01*
X0268192Y0193281D02*
X0263792Y0193281D01*
X0264991Y0194480D02*
X0269391Y0194480D01*
X0270589Y0195678D02*
X0266189Y0195678D01*
X0267388Y0196877D02*
X0271788Y0196877D01*
X0272987Y0198075D02*
X0268586Y0198075D01*
X0269785Y0199274D02*
X0292133Y0199274D01*
X0291948Y0194480D02*
X0273616Y0194480D01*
X0272417Y0193281D02*
X0293146Y0193281D01*
X0298873Y0193281D02*
X0303146Y0193281D01*
X0301948Y0194480D02*
X0300071Y0194480D01*
X0300511Y0195678D02*
X0301508Y0195678D01*
X0301508Y0196877D02*
X0300511Y0196877D01*
X0300511Y0198075D02*
X0301508Y0198075D01*
X0301408Y0199274D02*
X0299886Y0199274D01*
X0303235Y0201671D02*
X0316551Y0201671D01*
X0316551Y0202869D02*
X0308600Y0202869D01*
X0309798Y0204068D02*
X0316551Y0204068D01*
X0316551Y0205266D02*
X0310609Y0205266D01*
X0306409Y0205266D02*
X0305609Y0205266D01*
X0305609Y0204068D02*
X0306409Y0204068D01*
X0306409Y0202869D02*
X0305609Y0202869D01*
X0303419Y0202869D02*
X0302037Y0202869D01*
X0302221Y0204068D02*
X0299659Y0204068D01*
X0300511Y0205266D02*
X0301409Y0205266D01*
X0308688Y0200472D02*
X0316551Y0200472D01*
X0316551Y0199274D02*
X0309886Y0199274D01*
X0310511Y0198075D02*
X0316551Y0198075D01*
X0316551Y0196877D02*
X0310511Y0196877D01*
X0310511Y0195678D02*
X0316551Y0195678D01*
X0316551Y0194480D02*
X0310071Y0194480D01*
X0308873Y0193281D02*
X0316551Y0193281D01*
X0316551Y0192083D02*
X0271219Y0192083D01*
X0268323Y0174105D02*
X0267554Y0174105D01*
X0267554Y0172906D02*
X0268323Y0172906D01*
X0268323Y0171708D02*
X0267554Y0171708D01*
X0269376Y0158524D02*
X0263527Y0158524D01*
X0263527Y0157326D02*
X0269291Y0157326D01*
X0269612Y0156127D02*
X0264626Y0156127D01*
X0265376Y0154929D02*
X0270495Y0154929D01*
X0275224Y0154929D02*
X0300061Y0154929D01*
X0301958Y0154929D02*
X0302819Y0154929D01*
X0302756Y0153730D02*
X0265602Y0153730D01*
X0265422Y0152532D02*
X0280254Y0152532D01*
X0279420Y0151333D02*
X0264739Y0151333D01*
X0262814Y0150135D02*
X0279134Y0150135D01*
X0279253Y0148936D02*
X0276364Y0148936D01*
X0276220Y0148975D02*
X0274425Y0148975D01*
X0274425Y0145594D01*
X0277609Y0145594D01*
X0277609Y0147585D01*
X0277500Y0147992D01*
X0277290Y0148357D01*
X0276992Y0148655D01*
X0276627Y0148866D01*
X0276220Y0148975D01*
X0274425Y0148936D02*
X0273657Y0148936D01*
X0273657Y0147738D02*
X0274425Y0147738D01*
X0274425Y0146539D02*
X0273657Y0146539D01*
X0271718Y0148936D02*
X0264947Y0148936D01*
X0266151Y0147738D02*
X0270513Y0147738D01*
X0270472Y0146539D02*
X0266192Y0146539D01*
X0266192Y0144142D02*
X0270472Y0144142D01*
X0270472Y0142944D02*
X0266192Y0142944D01*
X0265652Y0141745D02*
X0271012Y0141745D01*
X0270571Y0140547D02*
X0266094Y0140547D01*
X0266094Y0136951D02*
X0270571Y0136951D01*
X0270571Y0135753D02*
X0266094Y0135753D01*
X0259154Y0135753D02*
X0257820Y0135753D01*
X0258751Y0136951D02*
X0259154Y0136951D01*
X0259154Y0140547D02*
X0258553Y0140547D01*
X0259595Y0141745D02*
X0257067Y0141745D01*
X0262239Y0146539D02*
X0263008Y0146539D01*
X0263008Y0147738D02*
X0262239Y0147738D01*
X0262239Y0148936D02*
X0263008Y0148936D01*
X0276108Y0156127D02*
X0298234Y0156127D01*
X0297591Y0157326D02*
X0276428Y0157326D01*
X0276344Y0158524D02*
X0297441Y0158524D01*
X0301428Y0162120D02*
X0302075Y0162120D01*
X0302075Y0163318D02*
X0301428Y0163318D01*
X0305062Y0163318D02*
X0306418Y0163318D01*
X0305163Y0164517D02*
X0305062Y0164517D01*
X0305062Y0165715D02*
X0305118Y0165715D01*
X0309071Y0166914D02*
X0316551Y0166914D01*
X0316551Y0168112D02*
X0312255Y0168112D01*
X0312255Y0169311D02*
X0316551Y0169311D01*
X0316551Y0170509D02*
X0311701Y0170509D01*
X0312157Y0171708D02*
X0316551Y0171708D01*
X0316551Y0172906D02*
X0312157Y0172906D01*
X0312157Y0174105D02*
X0316551Y0174105D01*
X0316551Y0175304D02*
X0312157Y0175304D01*
X0312157Y0176502D02*
X0316551Y0176502D01*
X0316551Y0182495D02*
X0307416Y0182495D01*
X0306905Y0182283D02*
X0308559Y0182968D01*
X0309826Y0184234D01*
X0310511Y0185889D01*
X0310511Y0187680D01*
X0309826Y0189334D01*
X0308559Y0190600D01*
X0306905Y0191286D01*
X0305114Y0191286D01*
X0303460Y0190600D01*
X0302193Y0189334D01*
X0301508Y0187680D01*
X0301508Y0185889D01*
X0302193Y0184234D01*
X0303460Y0182968D01*
X0305114Y0182283D01*
X0306905Y0182283D01*
X0304602Y0182495D02*
X0298225Y0182495D01*
X0299424Y0183693D02*
X0302734Y0183693D01*
X0301921Y0184892D02*
X0300609Y0184892D01*
X0300609Y0186090D02*
X0301508Y0186090D01*
X0301508Y0187289D02*
X0300609Y0187289D01*
X0300609Y0188487D02*
X0301842Y0188487D01*
X0302545Y0189686D02*
X0299613Y0189686D01*
X0298415Y0190884D02*
X0304144Y0190884D01*
X0307875Y0190884D02*
X0316551Y0190884D01*
X0316551Y0189686D02*
X0309474Y0189686D01*
X0310177Y0188487D02*
X0316551Y0188487D01*
X0316551Y0187289D02*
X0310511Y0187289D01*
X0310511Y0186090D02*
X0316551Y0186090D01*
X0316551Y0184892D02*
X0310098Y0184892D01*
X0309284Y0183693D02*
X0316551Y0183693D01*
X0305217Y0176502D02*
X0301330Y0176502D01*
X0301330Y0175304D02*
X0305217Y0175304D01*
X0312255Y0165715D02*
X0316551Y0165715D01*
X0316551Y0164517D02*
X0312210Y0164517D01*
X0304865Y0157326D02*
X0304428Y0157326D01*
X0303098Y0152532D02*
X0285151Y0152532D01*
X0279852Y0147738D02*
X0277569Y0147738D01*
X0277609Y0146539D02*
X0281573Y0146539D01*
X0279635Y0141745D02*
X0277070Y0141745D01*
X0277511Y0140547D02*
X0278111Y0140547D01*
X0277876Y0136951D02*
X0277511Y0136951D01*
X0277511Y0135753D02*
X0278791Y0135753D01*
X0271541Y0128562D02*
X0304738Y0128562D01*
X0304738Y0127363D02*
X0272740Y0127363D01*
X0273938Y0126165D02*
X0304738Y0126165D01*
X0304738Y0124966D02*
X0275137Y0124966D01*
X0276335Y0123768D02*
X0304738Y0123768D01*
X0304738Y0122569D02*
X0277534Y0122569D01*
X0278732Y0121370D02*
X0304738Y0121370D01*
X0304738Y0120172D02*
X0300779Y0120172D01*
X0301683Y0118973D02*
X0304738Y0118973D01*
X0304738Y0117775D02*
X0302019Y0117775D01*
X0301950Y0116576D02*
X0304738Y0116576D01*
X0304738Y0115378D02*
X0301421Y0115378D01*
X0299944Y0114179D02*
X0304738Y0114179D01*
X0304738Y0112981D02*
X0299944Y0112981D01*
X0299944Y0111782D02*
X0304738Y0111782D01*
X0304738Y0110584D02*
X0299944Y0110584D01*
X0301329Y0109385D02*
X0304738Y0109385D01*
X0304738Y0108187D02*
X0301911Y0108187D01*
X0302019Y0106988D02*
X0304738Y0106988D01*
X0304738Y0105790D02*
X0301722Y0105790D01*
X0300871Y0104591D02*
X0304738Y0104591D01*
X0304738Y0103393D02*
X0303069Y0103393D01*
X0304267Y0102194D02*
X0304738Y0102194D01*
X0302848Y0098599D02*
X0302710Y0098599D01*
X0302848Y0097400D02*
X0302145Y0097400D01*
X0302848Y0096202D02*
X0300503Y0096202D01*
X0297972Y0096202D02*
X0286221Y0096202D01*
X0286121Y0096443D02*
X0285117Y0097447D01*
X0283806Y0097991D01*
X0282386Y0097991D01*
X0281075Y0097447D01*
X0280071Y0096443D01*
X0279852Y0095916D01*
X0250513Y0095916D01*
X0250295Y0096443D01*
X0249291Y0097447D01*
X0247979Y0097991D01*
X0246559Y0097991D01*
X0245248Y0097447D01*
X0244244Y0096443D01*
X0243701Y0095132D01*
X0243701Y0093712D01*
X0244244Y0092401D01*
X0245248Y0091397D01*
X0246559Y0090854D01*
X0247979Y0090854D01*
X0249291Y0091397D01*
X0250295Y0092401D01*
X0250513Y0092928D01*
X0279852Y0092928D01*
X0280071Y0092401D01*
X0281075Y0091397D01*
X0282386Y0090854D01*
X0283806Y0090854D01*
X0285117Y0091397D01*
X0286121Y0092401D01*
X0286665Y0093712D01*
X0286665Y0095132D01*
X0286121Y0096443D01*
X0285164Y0097400D02*
X0296331Y0097400D01*
X0302848Y0095003D02*
X0286665Y0095003D01*
X0286665Y0093805D02*
X0302848Y0093805D01*
X0302848Y0092606D02*
X0286206Y0092606D01*
X0285128Y0091408D02*
X0302848Y0091408D01*
X0302848Y0090209D02*
X0273261Y0090209D01*
X0273796Y0089011D02*
X0302848Y0089011D01*
X0302848Y0087812D02*
X0273869Y0087812D01*
X0273538Y0086614D02*
X0302848Y0086614D01*
X0302848Y0085415D02*
X0272640Y0085415D01*
X0272578Y0083018D02*
X0302847Y0083018D01*
X0302848Y0084217D02*
X0268751Y0084217D01*
X0273513Y0081820D02*
X0301649Y0081820D01*
X0300450Y0080621D02*
X0273869Y0080621D01*
X0273821Y0079423D02*
X0299252Y0079423D01*
X0298053Y0078224D02*
X0273323Y0078224D01*
X0271896Y0077026D02*
X0296855Y0077026D01*
X0295656Y0075827D02*
X0292477Y0075827D01*
X0293825Y0074629D02*
X0294458Y0074629D01*
X0289070Y0075827D02*
X0273095Y0075827D01*
X0274293Y0074629D02*
X0287722Y0074629D01*
X0287225Y0073430D02*
X0275492Y0073430D01*
X0276690Y0072232D02*
X0287205Y0072232D01*
X0287589Y0071033D02*
X0277889Y0071033D01*
X0266699Y0062643D02*
X0148089Y0062643D01*
X0146891Y0063842D02*
X0265501Y0063842D01*
X0264302Y0065040D02*
X0145692Y0065040D01*
X0144494Y0066239D02*
X0263104Y0066239D01*
X0261905Y0067437D02*
X0143295Y0067437D01*
X0142097Y0068636D02*
X0260707Y0068636D01*
X0259508Y0069835D02*
X0140898Y0069835D01*
X0139700Y0071033D02*
X0219924Y0071033D01*
X0218725Y0072232D02*
X0138501Y0072232D01*
X0137303Y0073430D02*
X0179141Y0073430D01*
X0177942Y0074629D02*
X0136104Y0074629D01*
X0134906Y0075827D02*
X0176744Y0075827D01*
X0175545Y0077026D02*
X0141332Y0077026D01*
X0142811Y0078224D02*
X0174347Y0078224D01*
X0180333Y0090209D02*
X0142749Y0090209D01*
X0141184Y0091408D02*
X0158229Y0091408D01*
X0158240Y0091397D02*
X0159552Y0090854D01*
X0160971Y0090854D01*
X0162283Y0091397D01*
X0163287Y0092401D01*
X0163505Y0092928D01*
X0192844Y0092928D01*
X0193063Y0092401D01*
X0194067Y0091397D01*
X0195378Y0090854D01*
X0196798Y0090854D01*
X0198110Y0091397D01*
X0199113Y0092401D01*
X0199657Y0093712D01*
X0199657Y0095132D01*
X0199113Y0096443D01*
X0198110Y0097447D01*
X0196798Y0097991D01*
X0195378Y0097991D01*
X0194067Y0097447D01*
X0193063Y0096443D01*
X0192844Y0095916D01*
X0163505Y0095916D01*
X0163287Y0096443D01*
X0162283Y0097447D01*
X0160971Y0097991D01*
X0159552Y0097991D01*
X0158240Y0097447D01*
X0157236Y0096443D01*
X0156693Y0095132D01*
X0156693Y0093712D01*
X0157236Y0092401D01*
X0158240Y0091397D01*
X0157151Y0092606D02*
X0134967Y0092606D01*
X0133769Y0091408D02*
X0138394Y0091408D01*
X0136829Y0090209D02*
X0132570Y0090209D01*
X0131372Y0089011D02*
X0136294Y0089011D01*
X0136220Y0087812D02*
X0130173Y0087812D01*
X0129295Y0086614D02*
X0132052Y0086614D01*
X0131318Y0085415D02*
X0129295Y0085415D01*
X0129295Y0084217D02*
X0131102Y0084217D01*
X0131292Y0083018D02*
X0129295Y0083018D01*
X0129295Y0081820D02*
X0131990Y0081820D01*
X0130112Y0080621D02*
X0133952Y0080621D01*
X0135390Y0080621D02*
X0136220Y0080621D01*
X0136269Y0079423D02*
X0131310Y0079423D01*
X0132509Y0078224D02*
X0136767Y0078224D01*
X0138246Y0077026D02*
X0133707Y0077026D01*
X0112829Y0092606D02*
X0105725Y0092606D01*
X0105725Y0091408D02*
X0111631Y0091408D01*
X0110432Y0090209D02*
X0105725Y0090209D01*
X0105725Y0089011D02*
X0109234Y0089011D01*
X0108035Y0087812D02*
X0105725Y0087812D01*
X0105725Y0086614D02*
X0106837Y0086614D01*
X0106939Y0086716D02*
X0106064Y0085841D01*
X0106064Y0067176D01*
X0117823Y0055418D01*
X0117823Y0053660D01*
X0116181Y0055302D01*
X0115810Y0055302D01*
X0115810Y0056537D01*
X0114935Y0057412D01*
X0105725Y0066622D01*
X0105725Y0096969D01*
X0120878Y0112121D01*
X0121069Y0112121D01*
X0121776Y0111413D01*
X0128820Y0111413D01*
X0129700Y0112293D01*
X0129700Y0114680D01*
X0134903Y0114680D01*
X0106939Y0086716D01*
X0106064Y0085415D02*
X0105725Y0085415D01*
X0105725Y0084217D02*
X0106064Y0084217D01*
X0106064Y0083018D02*
X0105725Y0083018D01*
X0105725Y0081820D02*
X0106064Y0081820D01*
X0106064Y0080621D02*
X0105725Y0080621D01*
X0105725Y0079423D02*
X0106064Y0079423D01*
X0106064Y0078224D02*
X0105725Y0078224D01*
X0105725Y0077026D02*
X0106064Y0077026D01*
X0106064Y0075827D02*
X0105725Y0075827D01*
X0105725Y0074629D02*
X0106064Y0074629D01*
X0106064Y0073430D02*
X0105725Y0073430D01*
X0105725Y0072232D02*
X0106064Y0072232D01*
X0106064Y0071033D02*
X0105725Y0071033D01*
X0105725Y0069835D02*
X0106064Y0069835D01*
X0106064Y0068636D02*
X0105725Y0068636D01*
X0105725Y0067437D02*
X0106064Y0067437D01*
X0106108Y0066239D02*
X0107001Y0066239D01*
X0107307Y0065040D02*
X0108200Y0065040D01*
X0108505Y0063842D02*
X0109398Y0063842D01*
X0109704Y0062643D02*
X0110597Y0062643D01*
X0110902Y0061445D02*
X0111795Y0061445D01*
X0112101Y0060246D02*
X0112994Y0060246D01*
X0113299Y0059048D02*
X0114192Y0059048D01*
X0114498Y0057849D02*
X0115391Y0057849D01*
X0115696Y0056651D02*
X0116589Y0056651D01*
X0115810Y0055452D02*
X0117788Y0055452D01*
X0117823Y0054254D02*
X0117229Y0054254D01*
X0112821Y0055302D02*
X0112452Y0055302D01*
X0110771Y0053620D01*
X0110771Y0056458D01*
X0109896Y0057333D01*
X0099463Y0067766D01*
X0097013Y0070216D01*
X0097013Y0110951D01*
X0098183Y0112121D01*
X0098869Y0112121D01*
X0099576Y0111413D01*
X0106620Y0111413D01*
X0107500Y0112293D01*
X0107500Y0119798D01*
X0114859Y0119798D01*
X0119102Y0115555D01*
X0119595Y0115063D01*
X0103613Y0099081D01*
X0102738Y0098206D01*
X0102738Y0065384D01*
X0112821Y0055302D01*
X0112670Y0055452D02*
X0110771Y0055452D01*
X0110771Y0054254D02*
X0111404Y0054254D01*
X0111471Y0056651D02*
X0110578Y0056651D01*
X0110273Y0057849D02*
X0109380Y0057849D01*
X0109074Y0059048D02*
X0108181Y0059048D01*
X0107876Y0060246D02*
X0106983Y0060246D01*
X0106677Y0061445D02*
X0105784Y0061445D01*
X0105479Y0062643D02*
X0104585Y0062643D01*
X0104280Y0063842D02*
X0103387Y0063842D01*
X0103082Y0065040D02*
X0102188Y0065040D01*
X0102738Y0066239D02*
X0100990Y0066239D01*
X0099791Y0067437D02*
X0102738Y0067437D01*
X0102738Y0068636D02*
X0098593Y0068636D01*
X0097394Y0069835D02*
X0102738Y0069835D01*
X0102738Y0071033D02*
X0097013Y0071033D01*
X0097013Y0072232D02*
X0102738Y0072232D01*
X0102738Y0073430D02*
X0097013Y0073430D01*
X0097013Y0074629D02*
X0102738Y0074629D01*
X0102738Y0075827D02*
X0097013Y0075827D01*
X0097013Y0077026D02*
X0102738Y0077026D01*
X0102738Y0078224D02*
X0097013Y0078224D01*
X0097013Y0079423D02*
X0102738Y0079423D01*
X0102738Y0080621D02*
X0097013Y0080621D01*
X0097013Y0081820D02*
X0102738Y0081820D01*
X0102738Y0083018D02*
X0097013Y0083018D01*
X0097013Y0084217D02*
X0102738Y0084217D01*
X0102738Y0085415D02*
X0097013Y0085415D01*
X0097013Y0086614D02*
X0102738Y0086614D01*
X0102738Y0087812D02*
X0097013Y0087812D01*
X0097013Y0089011D02*
X0102738Y0089011D01*
X0102738Y0090209D02*
X0097013Y0090209D01*
X0097013Y0091408D02*
X0102738Y0091408D01*
X0102738Y0092606D02*
X0097013Y0092606D01*
X0097013Y0093805D02*
X0102738Y0093805D01*
X0102738Y0095003D02*
X0097013Y0095003D01*
X0097013Y0096202D02*
X0102738Y0096202D01*
X0102738Y0097400D02*
X0097013Y0097400D01*
X0097013Y0098599D02*
X0103130Y0098599D01*
X0104329Y0099797D02*
X0097013Y0099797D01*
X0097013Y0100996D02*
X0105527Y0100996D01*
X0106726Y0102194D02*
X0097013Y0102194D01*
X0097013Y0103393D02*
X0107924Y0103393D01*
X0109123Y0104591D02*
X0097013Y0104591D01*
X0097013Y0105790D02*
X0110321Y0105790D01*
X0111520Y0106988D02*
X0097013Y0106988D01*
X0097013Y0108187D02*
X0112718Y0108187D01*
X0113917Y0109385D02*
X0097013Y0109385D01*
X0097013Y0110584D02*
X0115115Y0110584D01*
X0116314Y0111782D02*
X0106989Y0111782D01*
X0107500Y0112981D02*
X0117513Y0112981D01*
X0118711Y0114179D02*
X0107500Y0114179D01*
X0107500Y0115378D02*
X0119280Y0115378D01*
X0118081Y0116576D02*
X0107500Y0116576D01*
X0107500Y0117775D02*
X0116883Y0117775D01*
X0115684Y0118973D02*
X0107500Y0118973D01*
X0107557Y0122786D02*
X0114859Y0122786D01*
X0116097Y0122786D01*
X0120798Y0118084D01*
X0120798Y0118733D01*
X0125298Y0118733D01*
X0125298Y0118733D01*
X0120798Y0118733D01*
X0120798Y0119644D01*
X0120897Y0120011D01*
X0120897Y0124917D01*
X0119977Y0124917D01*
X0118698Y0126196D01*
X0117823Y0127071D01*
X0117823Y0134320D01*
X0110979Y0127476D01*
X0107500Y0127476D01*
X0107500Y0125129D01*
X0107598Y0124762D01*
X0107598Y0123851D01*
X0103099Y0123851D01*
X0103099Y0123851D01*
X0107598Y0123851D01*
X0107598Y0122941D01*
X0107557Y0122786D01*
X0107598Y0123768D02*
X0120897Y0123768D01*
X0120897Y0122569D02*
X0116313Y0122569D01*
X0117512Y0121370D02*
X0120897Y0121370D01*
X0120897Y0120172D02*
X0118710Y0120172D01*
X0119909Y0118973D02*
X0120798Y0118973D01*
X0129700Y0120172D02*
X0137836Y0120172D01*
X0139034Y0121370D02*
X0129700Y0121370D01*
X0129700Y0122569D02*
X0140233Y0122569D01*
X0136637Y0118973D02*
X0129798Y0118973D01*
X0129786Y0117775D02*
X0135439Y0117775D01*
X0134402Y0114179D02*
X0129700Y0114179D01*
X0129700Y0112981D02*
X0133204Y0112981D01*
X0132005Y0111782D02*
X0129189Y0111782D01*
X0130807Y0110584D02*
X0119340Y0110584D01*
X0118142Y0109385D02*
X0129608Y0109385D01*
X0128410Y0108187D02*
X0116943Y0108187D01*
X0115745Y0106988D02*
X0127211Y0106988D01*
X0126013Y0105790D02*
X0114546Y0105790D01*
X0113348Y0104591D02*
X0124814Y0104591D01*
X0123616Y0103393D02*
X0112149Y0103393D01*
X0110951Y0102194D02*
X0122417Y0102194D01*
X0121219Y0100996D02*
X0109752Y0100996D01*
X0108554Y0099797D02*
X0120020Y0099797D01*
X0118822Y0098599D02*
X0107355Y0098599D01*
X0106157Y0097400D02*
X0117623Y0097400D01*
X0116425Y0096202D02*
X0105725Y0096202D01*
X0105725Y0095003D02*
X0115226Y0095003D01*
X0114028Y0093805D02*
X0105725Y0093805D01*
X0087999Y0093805D02*
X0074747Y0093805D01*
X0074747Y0095003D02*
X0087999Y0095003D01*
X0087999Y0096202D02*
X0074747Y0096202D01*
X0074747Y0097400D02*
X0087999Y0097400D01*
X0087999Y0098599D02*
X0074747Y0098599D01*
X0074747Y0099797D02*
X0087999Y0099797D01*
X0087999Y0100996D02*
X0074747Y0100996D01*
X0074747Y0102194D02*
X0087999Y0102194D01*
X0087999Y0103393D02*
X0074747Y0103393D01*
X0074747Y0104591D02*
X0087999Y0104591D01*
X0087999Y0105790D02*
X0074747Y0105790D01*
X0074747Y0106988D02*
X0087999Y0106988D01*
X0087999Y0108187D02*
X0074747Y0108187D01*
X0074747Y0109385D02*
X0087999Y0109385D01*
X0087999Y0110584D02*
X0075700Y0110584D01*
X0074747Y0109631D02*
X0077238Y0112121D01*
X0077565Y0112121D01*
X0078273Y0111413D01*
X0085316Y0111413D01*
X0086196Y0112293D01*
X0086196Y0114680D01*
X0091399Y0114680D01*
X0088874Y0112155D01*
X0087999Y0111280D01*
X0087999Y0064769D01*
X0088874Y0063894D01*
X0088874Y0063894D01*
X0092232Y0060536D01*
X0092232Y0060536D01*
X0097744Y0055024D01*
X0097744Y0053739D01*
X0096181Y0055302D01*
X0095810Y0055302D01*
X0095810Y0056064D01*
X0074747Y0077127D01*
X0074747Y0109631D01*
X0072635Y0111743D02*
X0071760Y0110868D01*
X0071760Y0075890D01*
X0072635Y0075015D01*
X0092400Y0055250D01*
X0090495Y0053345D01*
X0090495Y0053899D01*
X0089620Y0054774D01*
X0086864Y0057530D01*
X0055456Y0088938D01*
X0055456Y0111717D01*
X0055613Y0111873D01*
X0056073Y0111413D01*
X0063116Y0111413D01*
X0063996Y0112293D01*
X0063996Y0119798D01*
X0071355Y0119798D01*
X0075598Y0115555D01*
X0076045Y0115109D01*
X0076000Y0115109D01*
X0072635Y0111743D01*
X0072674Y0111782D02*
X0063485Y0111782D01*
X0063996Y0112981D02*
X0073872Y0112981D01*
X0075071Y0114179D02*
X0063996Y0114179D01*
X0063996Y0115378D02*
X0075776Y0115378D01*
X0074577Y0116576D02*
X0063996Y0116576D01*
X0063996Y0117775D02*
X0073379Y0117775D01*
X0072180Y0118973D02*
X0063996Y0118973D01*
X0064053Y0122786D02*
X0071355Y0122786D01*
X0072593Y0122786D01*
X0077294Y0118084D01*
X0077294Y0118733D01*
X0081794Y0118733D01*
X0081794Y0118733D01*
X0077294Y0118733D01*
X0077294Y0119644D01*
X0077393Y0120011D01*
X0077393Y0124917D01*
X0076867Y0124917D01*
X0075992Y0125792D01*
X0074319Y0127465D01*
X0074319Y0134320D01*
X0067475Y0127476D01*
X0063996Y0127476D01*
X0063996Y0125129D01*
X0064094Y0124762D01*
X0064094Y0123851D01*
X0059595Y0123851D01*
X0059595Y0123851D01*
X0064094Y0123851D01*
X0064094Y0122941D01*
X0064053Y0122786D01*
X0064094Y0123768D02*
X0077393Y0123768D01*
X0077393Y0122569D02*
X0072810Y0122569D01*
X0074008Y0121370D02*
X0077393Y0121370D01*
X0077393Y0120172D02*
X0075207Y0120172D01*
X0076405Y0118973D02*
X0077294Y0118973D01*
X0081795Y0118733D02*
X0086294Y0118733D01*
X0081795Y0118733D01*
X0081795Y0118733D01*
X0086294Y0118733D02*
X0086294Y0117822D01*
X0086253Y0117668D01*
X0091828Y0117668D01*
X0096071Y0121911D01*
X0096946Y0122786D01*
X0098640Y0122786D01*
X0098598Y0122941D01*
X0098598Y0123851D01*
X0103098Y0123851D01*
X0103098Y0123851D01*
X0098598Y0123851D01*
X0098598Y0124762D01*
X0098697Y0125129D01*
X0098697Y0132809D01*
X0098598Y0133177D01*
X0098598Y0134087D01*
X0103098Y0134087D01*
X0103098Y0134087D01*
X0098598Y0134087D01*
X0098598Y0134998D01*
X0098697Y0135365D01*
X0098697Y0143087D01*
X0099576Y0143966D01*
X0101605Y0143966D01*
X0101605Y0145358D01*
X0103171Y0146925D01*
X0102953Y0147452D01*
X0102953Y0148872D01*
X0103496Y0150184D01*
X0104500Y0151187D01*
X0105811Y0151731D01*
X0107231Y0151731D01*
X0108543Y0151187D01*
X0109546Y0150184D01*
X0110090Y0148872D01*
X0110090Y0147452D01*
X0109546Y0146141D01*
X0108543Y0145137D01*
X0107231Y0144594D01*
X0105811Y0144594D01*
X0105284Y0144812D01*
X0104592Y0144121D01*
X0104592Y0143966D01*
X0106620Y0143966D01*
X0107500Y0143087D01*
X0107500Y0140699D01*
X0108938Y0140699D01*
X0108614Y0141023D01*
X0108071Y0142334D01*
X0108071Y0143754D01*
X0108614Y0145065D01*
X0109618Y0146069D01*
X0110930Y0146613D01*
X0112349Y0146613D01*
X0113661Y0146069D01*
X0114665Y0145065D01*
X0115208Y0143754D01*
X0115208Y0142334D01*
X0114665Y0141023D01*
X0113661Y0140019D01*
X0113020Y0139754D01*
X0111407Y0138140D01*
X0114859Y0138140D01*
X0117017Y0140297D01*
X0116291Y0141023D01*
X0115748Y0142334D01*
X0115748Y0143754D01*
X0116291Y0145065D01*
X0117295Y0146069D01*
X0118607Y0146613D01*
X0120026Y0146613D01*
X0121338Y0146069D01*
X0122342Y0145065D01*
X0122756Y0144065D01*
X0125298Y0144065D01*
X0125298Y0141765D01*
X0125298Y0141765D01*
X0125298Y0144065D01*
X0128409Y0144065D01*
X0128816Y0143956D01*
X0129181Y0143745D01*
X0129479Y0143447D01*
X0129689Y0143082D01*
X0129798Y0142675D01*
X0129798Y0141866D01*
X0130618Y0142685D01*
X0130618Y0156117D01*
X0103613Y0156117D01*
X0104428Y0155302D01*
X0104972Y0153990D01*
X0104972Y0152570D01*
X0104428Y0151259D01*
X0103425Y0150255D01*
X0102113Y0149712D01*
X0100693Y0149712D01*
X0100166Y0149930D01*
X0097385Y0147150D01*
X0097385Y0130516D01*
X0094345Y0127476D01*
X0086196Y0127476D01*
X0086196Y0120011D01*
X0086294Y0119644D01*
X0086294Y0118733D01*
X0086294Y0118973D02*
X0093134Y0118973D01*
X0094332Y0120172D02*
X0086196Y0120172D01*
X0086196Y0121370D02*
X0095531Y0121370D01*
X0096729Y0122569D02*
X0086196Y0122569D01*
X0086196Y0123768D02*
X0098598Y0123768D01*
X0098653Y0124966D02*
X0086196Y0124966D01*
X0086196Y0126165D02*
X0098697Y0126165D01*
X0098697Y0127363D02*
X0086196Y0127363D01*
X0095431Y0128562D02*
X0098697Y0128562D01*
X0098697Y0129760D02*
X0096629Y0129760D01*
X0097385Y0130959D02*
X0098697Y0130959D01*
X0098697Y0132157D02*
X0097385Y0132157D01*
X0097385Y0133356D02*
X0098598Y0133356D01*
X0098598Y0134554D02*
X0097385Y0134554D01*
X0097385Y0135753D02*
X0098697Y0135753D01*
X0098697Y0136951D02*
X0097385Y0136951D01*
X0097385Y0138150D02*
X0098697Y0138150D01*
X0098697Y0139348D02*
X0097385Y0139348D01*
X0097385Y0140547D02*
X0098697Y0140547D01*
X0098697Y0141745D02*
X0097385Y0141745D01*
X0097385Y0142944D02*
X0098697Y0142944D01*
X0097385Y0144142D02*
X0101605Y0144142D01*
X0101605Y0145341D02*
X0097385Y0145341D01*
X0097385Y0146539D02*
X0102786Y0146539D01*
X0102953Y0147738D02*
X0097973Y0147738D01*
X0099171Y0148936D02*
X0102979Y0148936D01*
X0103134Y0150135D02*
X0103476Y0150135D01*
X0104459Y0151333D02*
X0104852Y0151333D01*
X0104956Y0152532D02*
X0130618Y0152532D01*
X0130618Y0153730D02*
X0104972Y0153730D01*
X0104583Y0154929D02*
X0130618Y0154929D01*
X0133605Y0154929D02*
X0141727Y0154929D01*
X0141882Y0155302D02*
X0141339Y0153990D01*
X0141339Y0152570D01*
X0141557Y0152043D01*
X0137902Y0148387D01*
X0137902Y0135608D01*
X0137677Y0135833D01*
X0136365Y0136376D01*
X0135680Y0136376D01*
X0135680Y0137455D01*
X0135137Y0138766D01*
X0134133Y0139770D01*
X0132822Y0140313D01*
X0132471Y0140313D01*
X0132731Y0140573D01*
X0133605Y0141448D01*
X0133605Y0156117D01*
X0142697Y0156117D01*
X0141882Y0155302D01*
X0141339Y0153730D02*
X0133605Y0153730D01*
X0133605Y0152532D02*
X0141355Y0152532D01*
X0140848Y0151333D02*
X0133605Y0151333D01*
X0133605Y0150135D02*
X0139649Y0150135D01*
X0138451Y0148936D02*
X0133605Y0148936D01*
X0133605Y0147738D02*
X0137902Y0147738D01*
X0137902Y0146539D02*
X0133605Y0146539D01*
X0133605Y0145341D02*
X0137902Y0145341D01*
X0137902Y0144142D02*
X0133605Y0144142D01*
X0133605Y0142944D02*
X0137902Y0142944D01*
X0137902Y0141745D02*
X0133605Y0141745D01*
X0132704Y0140547D02*
X0137902Y0140547D01*
X0137902Y0139348D02*
X0134555Y0139348D01*
X0135392Y0138150D02*
X0137902Y0138150D01*
X0137902Y0136951D02*
X0135680Y0136951D01*
X0137757Y0135753D02*
X0137902Y0135753D01*
X0130618Y0142944D02*
X0129726Y0142944D01*
X0130618Y0144142D02*
X0122724Y0144142D01*
X0122067Y0145341D02*
X0130618Y0145341D01*
X0130618Y0146539D02*
X0120203Y0146539D01*
X0118430Y0146539D02*
X0112526Y0146539D01*
X0110752Y0146539D02*
X0109712Y0146539D01*
X0110090Y0147738D02*
X0130618Y0147738D01*
X0130618Y0148936D02*
X0110063Y0148936D01*
X0109567Y0150135D02*
X0130618Y0150135D01*
X0130618Y0151333D02*
X0108191Y0151333D01*
X0108746Y0145341D02*
X0108889Y0145341D01*
X0108232Y0144142D02*
X0104614Y0144142D01*
X0107500Y0142944D02*
X0108071Y0142944D01*
X0108315Y0141745D02*
X0107500Y0141745D01*
X0112615Y0139348D02*
X0116067Y0139348D01*
X0116767Y0140547D02*
X0114189Y0140547D01*
X0114964Y0141745D02*
X0115992Y0141745D01*
X0115748Y0142944D02*
X0115208Y0142944D01*
X0115047Y0144142D02*
X0115909Y0144142D01*
X0116567Y0145341D02*
X0114389Y0145341D01*
X0125298Y0142944D02*
X0125298Y0142944D01*
X0114869Y0138150D02*
X0111416Y0138150D01*
X0114431Y0135153D02*
X0107557Y0135153D01*
X0107598Y0134998D01*
X0107598Y0134087D01*
X0103099Y0134087D01*
X0103099Y0134087D01*
X0107598Y0134087D01*
X0107598Y0133177D01*
X0107500Y0132809D01*
X0107500Y0130463D01*
X0109741Y0130463D01*
X0114431Y0135153D01*
X0113832Y0134554D02*
X0107598Y0134554D01*
X0107598Y0133356D02*
X0112634Y0133356D01*
X0111435Y0132157D02*
X0107500Y0132157D01*
X0107500Y0130959D02*
X0110237Y0130959D01*
X0112065Y0128562D02*
X0117823Y0128562D01*
X0117823Y0129760D02*
X0113263Y0129760D01*
X0114462Y0130959D02*
X0117823Y0130959D01*
X0117823Y0132157D02*
X0115660Y0132157D01*
X0116859Y0133356D02*
X0117823Y0133356D01*
X0117823Y0127363D02*
X0107500Y0127363D01*
X0107500Y0126165D02*
X0118729Y0126165D01*
X0119928Y0124966D02*
X0107544Y0124966D01*
X0094398Y0135608D02*
X0094173Y0135833D01*
X0092861Y0136376D01*
X0092176Y0136376D01*
X0092176Y0137455D01*
X0091633Y0138766D01*
X0090629Y0139770D01*
X0089318Y0140313D01*
X0088967Y0140313D01*
X0089227Y0140573D01*
X0090102Y0141448D01*
X0090102Y0156117D01*
X0099194Y0156117D01*
X0098378Y0155302D01*
X0097835Y0153990D01*
X0097835Y0152570D01*
X0098053Y0152043D01*
X0094398Y0148387D01*
X0094398Y0135608D01*
X0094398Y0135753D02*
X0094253Y0135753D01*
X0094398Y0136951D02*
X0092176Y0136951D01*
X0091889Y0138150D02*
X0094398Y0138150D01*
X0094398Y0139348D02*
X0091051Y0139348D01*
X0089200Y0140547D02*
X0094398Y0140547D01*
X0094398Y0141745D02*
X0090102Y0141745D01*
X0090102Y0142944D02*
X0094398Y0142944D01*
X0094398Y0144142D02*
X0090102Y0144142D01*
X0090102Y0145341D02*
X0094398Y0145341D01*
X0094398Y0146539D02*
X0090102Y0146539D01*
X0090102Y0147738D02*
X0094398Y0147738D01*
X0094947Y0148936D02*
X0090102Y0148936D01*
X0090102Y0150135D02*
X0096145Y0150135D01*
X0097344Y0151333D02*
X0090102Y0151333D01*
X0090102Y0152532D02*
X0097851Y0152532D01*
X0097835Y0153730D02*
X0090102Y0153730D01*
X0090102Y0154929D02*
X0098223Y0154929D01*
X0098138Y0159723D02*
X0072356Y0159723D01*
X0072787Y0160921D02*
X0098138Y0160921D01*
X0101125Y0160921D02*
X0131988Y0160921D01*
X0132419Y0159723D02*
X0101125Y0159723D01*
X0103298Y0162120D02*
X0123719Y0162120D01*
X0122520Y0163318D02*
X0103298Y0163318D01*
X0103298Y0164517D02*
X0121322Y0164517D01*
X0120123Y0165715D02*
X0103298Y0165715D01*
X0103298Y0166914D02*
X0118925Y0166914D01*
X0117726Y0168112D02*
X0102474Y0168112D01*
X0096789Y0168112D02*
X0095799Y0168112D01*
X0093323Y0168112D02*
X0092554Y0168112D01*
X0092554Y0168266D02*
X0090563Y0168266D01*
X0090156Y0168157D01*
X0089791Y0167946D01*
X0089493Y0167649D01*
X0089282Y0167284D01*
X0089173Y0166877D01*
X0089173Y0165082D01*
X0092554Y0165082D01*
X0092554Y0168266D01*
X0092554Y0166914D02*
X0093323Y0166914D01*
X0093323Y0165715D02*
X0092554Y0165715D01*
X0092554Y0164517D02*
X0081484Y0164517D01*
X0080286Y0163318D02*
X0089173Y0163318D01*
X0089173Y0162518D02*
X0089173Y0164313D01*
X0092554Y0164313D01*
X0092554Y0161129D01*
X0090563Y0161129D01*
X0090156Y0161238D01*
X0089791Y0161449D01*
X0089493Y0161747D01*
X0089282Y0162112D01*
X0089173Y0162518D01*
X0089280Y0162120D02*
X0079087Y0162120D01*
X0078458Y0165715D02*
X0072787Y0165715D01*
X0072787Y0166914D02*
X0079657Y0166914D01*
X0080855Y0168112D02*
X0075316Y0168112D01*
X0076515Y0169311D02*
X0082054Y0169311D01*
X0083252Y0170509D02*
X0077713Y0170509D01*
X0078912Y0171708D02*
X0084451Y0171708D01*
X0086278Y0169311D02*
X0116528Y0169311D01*
X0118356Y0171708D02*
X0131988Y0171708D01*
X0131988Y0170509D02*
X0119554Y0170509D01*
X0120753Y0169311D02*
X0131988Y0169311D01*
X0131988Y0168112D02*
X0121951Y0168112D01*
X0123150Y0166914D02*
X0131988Y0166914D01*
X0131988Y0165715D02*
X0124348Y0165715D01*
X0135146Y0172906D02*
X0080110Y0172906D01*
X0081309Y0174105D02*
X0135146Y0174105D01*
X0135146Y0175304D02*
X0082507Y0175304D01*
X0083706Y0176502D02*
X0135146Y0176502D01*
X0135146Y0177701D02*
X0084904Y0177701D01*
X0086103Y0178899D02*
X0135146Y0178899D01*
X0135146Y0180098D02*
X0087301Y0180098D01*
X0088500Y0181296D02*
X0135146Y0181296D01*
X0135146Y0182495D02*
X0133528Y0182495D01*
X0134726Y0183693D02*
X0135146Y0183693D01*
X0138133Y0183693D02*
X0138649Y0183693D01*
X0138133Y0184209D02*
X0139976Y0182366D01*
X0141457Y0182366D01*
X0141457Y0186366D01*
X0142057Y0186366D01*
X0142057Y0182366D01*
X0143539Y0182366D01*
X0145185Y0184013D01*
X0145185Y0178449D01*
X0150757Y0172877D01*
X0149403Y0172877D01*
X0148523Y0171998D01*
X0148523Y0166154D01*
X0148601Y0166076D01*
X0148523Y0165998D01*
X0148523Y0164569D01*
X0141291Y0164569D01*
X0141291Y0165998D01*
X0141213Y0166076D01*
X0141291Y0166154D01*
X0141291Y0171998D01*
X0140411Y0172877D01*
X0138133Y0172877D01*
X0138133Y0184209D01*
X0138133Y0182495D02*
X0139848Y0182495D01*
X0141457Y0182495D02*
X0142057Y0182495D01*
X0142057Y0183693D02*
X0141457Y0183693D01*
X0141457Y0184892D02*
X0142057Y0184892D01*
X0142057Y0186090D02*
X0141457Y0186090D01*
X0141457Y0187289D02*
X0142057Y0187289D01*
X0142057Y0188487D02*
X0141457Y0188487D01*
X0141457Y0189686D02*
X0142057Y0189686D01*
X0142057Y0190884D02*
X0141457Y0190884D01*
X0141394Y0192083D02*
X0135776Y0192083D01*
X0134578Y0193281D02*
X0139201Y0193281D01*
X0138002Y0194480D02*
X0135513Y0194480D01*
X0135959Y0195678D02*
X0137556Y0195678D01*
X0137556Y0196877D02*
X0135959Y0196877D01*
X0135959Y0198075D02*
X0137556Y0198075D01*
X0138423Y0199274D02*
X0135092Y0199274D01*
X0133893Y0200472D02*
X0139622Y0200472D01*
X0143893Y0200472D02*
X0149622Y0200472D01*
X0150017Y0200868D02*
X0147556Y0198406D01*
X0147556Y0194926D01*
X0150017Y0192465D01*
X0153498Y0192465D01*
X0155959Y0194926D01*
X0155959Y0198406D01*
X0153498Y0200868D01*
X0150017Y0200868D01*
X0148423Y0199274D02*
X0145092Y0199274D01*
X0145959Y0198075D02*
X0147556Y0198075D01*
X0147556Y0196877D02*
X0145959Y0196877D01*
X0145959Y0195678D02*
X0147556Y0195678D01*
X0148002Y0194480D02*
X0145513Y0194480D01*
X0144420Y0193281D02*
X0149201Y0193281D01*
X0146817Y0190884D02*
X0166028Y0190884D01*
X0165264Y0189686D02*
X0164680Y0189686D01*
X0163539Y0192366D02*
X0162057Y0192366D01*
X0162057Y0196366D01*
X0161457Y0196366D01*
X0157457Y0196366D01*
X0157457Y0194885D01*
X0159976Y0192366D01*
X0161457Y0192366D01*
X0161457Y0196366D01*
X0161457Y0196966D01*
X0157457Y0196966D01*
X0157457Y0198447D01*
X0159976Y0200966D01*
X0161457Y0200966D01*
X0161457Y0196966D01*
X0162057Y0196966D01*
X0162057Y0200966D01*
X0163539Y0200966D01*
X0166057Y0198447D01*
X0166057Y0196966D01*
X0162058Y0196966D01*
X0162058Y0196366D01*
X0166057Y0196366D01*
X0166057Y0194885D01*
X0163539Y0192366D01*
X0164454Y0193281D02*
X0168425Y0193281D01*
X0168002Y0194480D02*
X0165652Y0194480D01*
X0166057Y0195678D02*
X0167556Y0195678D01*
X0167556Y0196877D02*
X0162058Y0196877D01*
X0161457Y0196877D02*
X0155959Y0196877D01*
X0155959Y0198075D02*
X0157457Y0198075D01*
X0158284Y0199274D02*
X0155092Y0199274D01*
X0153893Y0200472D02*
X0159482Y0200472D01*
X0161457Y0200472D02*
X0162057Y0200472D01*
X0162057Y0199274D02*
X0161457Y0199274D01*
X0161457Y0198075D02*
X0162057Y0198075D01*
X0162057Y0195678D02*
X0161457Y0195678D01*
X0161457Y0194480D02*
X0162057Y0194480D01*
X0162057Y0193281D02*
X0161457Y0193281D01*
X0159061Y0193281D02*
X0154314Y0193281D01*
X0155513Y0194480D02*
X0157863Y0194480D01*
X0157457Y0195678D02*
X0155959Y0195678D01*
X0154680Y0189686D02*
X0158835Y0189686D01*
X0157637Y0188487D02*
X0155878Y0188487D01*
X0155959Y0187289D02*
X0157556Y0187289D01*
X0157556Y0186090D02*
X0155959Y0186090D01*
X0155925Y0184892D02*
X0157590Y0184892D01*
X0158789Y0183693D02*
X0154726Y0183693D01*
X0153528Y0182495D02*
X0159987Y0182495D01*
X0163528Y0182495D02*
X0165264Y0182495D01*
X0165264Y0183693D02*
X0164726Y0183693D01*
X0168251Y0183693D02*
X0168789Y0183693D01*
X0168251Y0182495D02*
X0169987Y0182495D01*
X0173528Y0182495D02*
X0179987Y0182495D01*
X0178789Y0183693D02*
X0174726Y0183693D01*
X0175925Y0184892D02*
X0177590Y0184892D01*
X0177556Y0186090D02*
X0175959Y0186090D01*
X0175959Y0187289D02*
X0177556Y0187289D01*
X0177637Y0188487D02*
X0175878Y0188487D01*
X0176929Y0189686D02*
X0178835Y0189686D01*
X0178127Y0190884D02*
X0181776Y0190884D01*
X0182975Y0192083D02*
X0178291Y0192083D01*
X0178291Y0193281D02*
X0179061Y0193281D01*
X0181457Y0193281D02*
X0182057Y0193281D01*
X0182057Y0194480D02*
X0181457Y0194480D01*
X0181457Y0195678D02*
X0182057Y0195678D01*
X0168423Y0199274D02*
X0165231Y0199274D01*
X0164697Y0200472D02*
X0164032Y0200472D01*
X0163499Y0201671D02*
X0075134Y0201671D01*
X0073936Y0200472D02*
X0079482Y0200472D01*
X0079976Y0200966D02*
X0077457Y0198447D01*
X0077457Y0196966D01*
X0081457Y0196966D01*
X0081457Y0196366D01*
X0077457Y0196366D01*
X0077457Y0194885D01*
X0079976Y0192366D01*
X0081457Y0192366D01*
X0081457Y0196366D01*
X0082057Y0196366D01*
X0082057Y0192366D01*
X0083539Y0192366D01*
X0086057Y0194885D01*
X0086057Y0196366D01*
X0082058Y0196366D01*
X0082058Y0196966D01*
X0086057Y0196966D01*
X0086057Y0198447D01*
X0083539Y0200966D01*
X0082057Y0200966D01*
X0082057Y0196966D01*
X0081457Y0196966D01*
X0081457Y0200966D01*
X0079976Y0200966D01*
X0081457Y0200472D02*
X0082057Y0200472D01*
X0082057Y0199274D02*
X0081457Y0199274D01*
X0081457Y0198075D02*
X0082057Y0198075D01*
X0082058Y0196877D02*
X0087556Y0196877D01*
X0087556Y0198075D02*
X0086057Y0198075D01*
X0085231Y0199274D02*
X0088423Y0199274D01*
X0087556Y0198406D02*
X0090017Y0200868D01*
X0093498Y0200868D01*
X0095959Y0198406D01*
X0095959Y0194926D01*
X0093498Y0192465D01*
X0090017Y0192465D01*
X0087556Y0194926D01*
X0087556Y0198406D01*
X0087556Y0195678D02*
X0086057Y0195678D01*
X0085652Y0194480D02*
X0088002Y0194480D01*
X0089201Y0193281D02*
X0084454Y0193281D01*
X0082057Y0193281D02*
X0081457Y0193281D01*
X0081457Y0194480D02*
X0082057Y0194480D01*
X0082057Y0195678D02*
X0081457Y0195678D01*
X0081457Y0196877D02*
X0075959Y0196877D01*
X0075959Y0198075D02*
X0077457Y0198075D01*
X0078284Y0199274D02*
X0075092Y0199274D01*
X0075959Y0195678D02*
X0077457Y0195678D01*
X0077863Y0194480D02*
X0075513Y0194480D01*
X0074314Y0193281D02*
X0079061Y0193281D01*
X0078835Y0189686D02*
X0074680Y0189686D01*
X0075878Y0188487D02*
X0077637Y0188487D01*
X0077556Y0187289D02*
X0075959Y0187289D01*
X0075959Y0186090D02*
X0077556Y0186090D01*
X0077590Y0184892D02*
X0075925Y0184892D01*
X0076672Y0183693D02*
X0074726Y0183693D01*
X0075474Y0182495D02*
X0073528Y0182495D01*
X0074275Y0181296D02*
X0068500Y0181296D01*
X0069698Y0182495D02*
X0069987Y0182495D01*
X0067590Y0184892D02*
X0066057Y0184892D01*
X0066057Y0184885D02*
X0066057Y0186366D01*
X0062058Y0186366D01*
X0062058Y0186966D01*
X0066057Y0186966D01*
X0066057Y0188447D01*
X0063539Y0190966D01*
X0062057Y0190966D01*
X0062057Y0186966D01*
X0061457Y0186966D01*
X0061457Y0186366D01*
X0057457Y0186366D01*
X0057457Y0184885D01*
X0059976Y0182366D01*
X0061457Y0182366D01*
X0061457Y0186366D01*
X0062057Y0186366D01*
X0062057Y0182366D01*
X0063539Y0182366D01*
X0066057Y0184885D01*
X0066057Y0186090D02*
X0067556Y0186090D01*
X0067556Y0187289D02*
X0066057Y0187289D01*
X0066018Y0188487D02*
X0067637Y0188487D01*
X0068835Y0189686D02*
X0064819Y0189686D01*
X0063621Y0190884D02*
X0132750Y0190884D01*
X0131551Y0192083D02*
X0048369Y0192083D01*
X0048369Y0193281D02*
X0049201Y0193281D01*
X0048088Y0190884D02*
X0059894Y0190884D01*
X0059976Y0190966D02*
X0057457Y0188447D01*
X0057457Y0186966D01*
X0061457Y0186966D01*
X0061457Y0190966D01*
X0059976Y0190966D01*
X0061457Y0190884D02*
X0062057Y0190884D01*
X0062057Y0189686D02*
X0061457Y0189686D01*
X0061457Y0188487D02*
X0062057Y0188487D01*
X0062057Y0187289D02*
X0061457Y0187289D01*
X0061457Y0186090D02*
X0062057Y0186090D01*
X0062057Y0184892D02*
X0061457Y0184892D01*
X0061457Y0183693D02*
X0062057Y0183693D01*
X0062057Y0182495D02*
X0061457Y0182495D01*
X0059848Y0182495D02*
X0053528Y0182495D01*
X0054726Y0183693D02*
X0058649Y0183693D01*
X0057457Y0184892D02*
X0055925Y0184892D01*
X0055959Y0186090D02*
X0057457Y0186090D01*
X0057457Y0187289D02*
X0055959Y0187289D01*
X0055878Y0188487D02*
X0057497Y0188487D01*
X0058696Y0189686D02*
X0054680Y0189686D01*
X0054314Y0193281D02*
X0059201Y0193281D01*
X0058002Y0194480D02*
X0055513Y0194480D01*
X0055959Y0195678D02*
X0057556Y0195678D01*
X0057556Y0196877D02*
X0055959Y0196877D01*
X0055959Y0198075D02*
X0057556Y0198075D01*
X0058423Y0199274D02*
X0056596Y0199274D01*
X0057794Y0200472D02*
X0059622Y0200472D01*
X0058993Y0201671D02*
X0064610Y0201671D01*
X0065809Y0202869D02*
X0060191Y0202869D01*
X0061390Y0204068D02*
X0073307Y0204068D01*
X0074319Y0205266D02*
X0061952Y0205266D01*
X0065110Y0206465D02*
X0071161Y0206465D01*
X0071161Y0207663D02*
X0065110Y0207663D01*
X0065110Y0208862D02*
X0071161Y0208862D01*
X0071161Y0210060D02*
X0065110Y0210060D01*
X0065110Y0211259D02*
X0071161Y0211259D01*
X0071161Y0212457D02*
X0065110Y0212457D01*
X0065110Y0217251D02*
X0071161Y0217251D01*
X0071550Y0218450D02*
X0064720Y0218450D01*
X0056196Y0218450D02*
X0049366Y0218450D01*
X0049755Y0217251D02*
X0055807Y0217251D01*
X0040842Y0218450D02*
X0034012Y0218450D01*
X0034401Y0217251D02*
X0040452Y0217251D01*
X0040452Y0213645D02*
X0040452Y0212217D01*
X0040530Y0212139D01*
X0040452Y0212061D01*
X0040452Y0206217D01*
X0041332Y0205337D01*
X0043610Y0205337D01*
X0043610Y0200894D01*
X0043539Y0200966D01*
X0042057Y0200966D01*
X0042057Y0196966D01*
X0041457Y0196966D01*
X0041457Y0196366D01*
X0037457Y0196366D01*
X0037457Y0194885D01*
X0039976Y0192366D01*
X0041457Y0192366D01*
X0041457Y0196366D01*
X0042057Y0196366D01*
X0042057Y0192366D01*
X0043539Y0192366D01*
X0045382Y0194209D01*
X0045382Y0192403D01*
X0043672Y0190693D01*
X0043498Y0190868D01*
X0040017Y0190868D01*
X0037556Y0188406D01*
X0037556Y0184926D01*
X0039558Y0182924D01*
X0033957Y0182924D01*
X0035959Y0184926D01*
X0035959Y0188406D01*
X0033498Y0190868D01*
X0030017Y0190868D01*
X0029843Y0190693D01*
X0028094Y0192442D01*
X0028094Y0194388D01*
X0030017Y0192465D01*
X0033498Y0192465D01*
X0035959Y0194926D01*
X0035959Y0198406D01*
X0033498Y0200868D01*
X0030434Y0200868D01*
X0031243Y0201677D01*
X0031243Y0205337D01*
X0033522Y0205337D01*
X0034401Y0206217D01*
X0034401Y0212061D01*
X0034323Y0212139D01*
X0034401Y0212217D01*
X0034401Y0213645D01*
X0040452Y0213645D01*
X0040452Y0212457D02*
X0034401Y0212457D01*
X0034401Y0211259D02*
X0040452Y0211259D01*
X0040452Y0210060D02*
X0034401Y0210060D01*
X0034401Y0208862D02*
X0040452Y0208862D01*
X0040452Y0207663D02*
X0034401Y0207663D01*
X0034401Y0206465D02*
X0040452Y0206465D01*
X0043610Y0205266D02*
X0031243Y0205266D01*
X0031243Y0204068D02*
X0043610Y0204068D01*
X0043610Y0202869D02*
X0031243Y0202869D01*
X0031237Y0201671D02*
X0043610Y0201671D01*
X0042057Y0200472D02*
X0041457Y0200472D01*
X0041457Y0200966D02*
X0039976Y0200966D01*
X0037457Y0198447D01*
X0037457Y0196966D01*
X0041457Y0196966D01*
X0041457Y0200966D01*
X0041457Y0199274D02*
X0042057Y0199274D01*
X0042057Y0198075D02*
X0041457Y0198075D01*
X0041457Y0196877D02*
X0035959Y0196877D01*
X0035959Y0198075D02*
X0037457Y0198075D01*
X0038284Y0199274D02*
X0035092Y0199274D01*
X0033893Y0200472D02*
X0039482Y0200472D01*
X0041457Y0195678D02*
X0042057Y0195678D01*
X0042057Y0194480D02*
X0041457Y0194480D01*
X0041457Y0193281D02*
X0042057Y0193281D01*
X0044454Y0193281D02*
X0045382Y0193281D01*
X0045062Y0192083D02*
X0028453Y0192083D01*
X0028094Y0193281D02*
X0029201Y0193281D01*
X0029652Y0190884D02*
X0043863Y0190884D01*
X0045878Y0188487D02*
X0047637Y0188487D01*
X0047556Y0187289D02*
X0045959Y0187289D01*
X0045959Y0186090D02*
X0047556Y0186090D01*
X0047590Y0184892D02*
X0045925Y0184892D01*
X0044726Y0183693D02*
X0047814Y0183693D01*
X0049642Y0181296D02*
X0064275Y0181296D01*
X0063667Y0182495D02*
X0065474Y0182495D01*
X0064866Y0183693D02*
X0066672Y0183693D01*
X0067301Y0180098D02*
X0073077Y0180098D01*
X0071878Y0178899D02*
X0066103Y0178899D01*
X0065456Y0178252D02*
X0065456Y0178252D01*
X0072507Y0175304D02*
X0078282Y0175304D01*
X0079481Y0176502D02*
X0073706Y0176502D01*
X0074904Y0177701D02*
X0080679Y0177701D01*
X0081878Y0178899D02*
X0076103Y0178899D01*
X0077301Y0180098D02*
X0083077Y0180098D01*
X0084275Y0181296D02*
X0078500Y0181296D01*
X0079698Y0182495D02*
X0079987Y0182495D01*
X0083528Y0182495D02*
X0085474Y0182495D01*
X0084726Y0183693D02*
X0086672Y0183693D01*
X0085925Y0184892D02*
X0087590Y0184892D01*
X0087556Y0186090D02*
X0085959Y0186090D01*
X0085959Y0187289D02*
X0087556Y0187289D01*
X0087637Y0188487D02*
X0085878Y0188487D01*
X0084680Y0189686D02*
X0088835Y0189686D01*
X0094680Y0189686D02*
X0098835Y0189686D01*
X0100017Y0190868D02*
X0097556Y0188406D01*
X0097556Y0184926D01*
X0100017Y0182465D01*
X0103498Y0182465D01*
X0105959Y0184926D01*
X0105959Y0188406D01*
X0103498Y0190868D01*
X0100017Y0190868D01*
X0100017Y0192465D02*
X0103498Y0192465D01*
X0105959Y0194926D01*
X0105959Y0198406D01*
X0103498Y0200868D01*
X0100017Y0200868D01*
X0097556Y0198406D01*
X0097556Y0194926D01*
X0100017Y0192465D01*
X0099201Y0193281D02*
X0094314Y0193281D01*
X0095513Y0194480D02*
X0098002Y0194480D01*
X0097556Y0195678D02*
X0095959Y0195678D01*
X0095959Y0196877D02*
X0097556Y0196877D01*
X0097556Y0198075D02*
X0095959Y0198075D01*
X0095092Y0199274D02*
X0098423Y0199274D01*
X0099622Y0200472D02*
X0093893Y0200472D01*
X0089622Y0200472D02*
X0084032Y0200472D01*
X0077306Y0204068D02*
X0161327Y0204068D01*
X0161327Y0205266D02*
X0077306Y0205266D01*
X0076333Y0202869D02*
X0162300Y0202869D01*
X0158169Y0206465D02*
X0080464Y0206465D01*
X0080464Y0207663D02*
X0158169Y0207663D01*
X0158169Y0208862D02*
X0080464Y0208862D01*
X0080464Y0210060D02*
X0158169Y0210060D01*
X0158169Y0211259D02*
X0080464Y0211259D01*
X0080464Y0212457D02*
X0158169Y0212457D01*
X0158169Y0213656D02*
X0080464Y0213656D01*
X0080464Y0214854D02*
X0158169Y0214854D01*
X0158169Y0216053D02*
X0080464Y0216053D01*
X0080464Y0217251D02*
X0158169Y0217251D01*
X0158558Y0218450D02*
X0080075Y0218450D01*
X0103893Y0200472D02*
X0109482Y0200472D01*
X0109976Y0200966D02*
X0107457Y0198447D01*
X0107457Y0196966D01*
X0111457Y0196966D01*
X0111457Y0196366D01*
X0107457Y0196366D01*
X0107457Y0194885D01*
X0109976Y0192366D01*
X0111457Y0192366D01*
X0111457Y0196366D01*
X0112057Y0196366D01*
X0112057Y0192366D01*
X0113539Y0192366D01*
X0116057Y0194885D01*
X0116057Y0196366D01*
X0112058Y0196366D01*
X0112058Y0196966D01*
X0116057Y0196966D01*
X0116057Y0198447D01*
X0113539Y0200966D01*
X0112057Y0200966D01*
X0112057Y0196966D01*
X0111457Y0196966D01*
X0111457Y0200966D01*
X0109976Y0200966D01*
X0111457Y0200472D02*
X0112057Y0200472D01*
X0112057Y0199274D02*
X0111457Y0199274D01*
X0111457Y0198075D02*
X0112057Y0198075D01*
X0112058Y0196877D02*
X0117556Y0196877D01*
X0117556Y0198075D02*
X0116057Y0198075D01*
X0115231Y0199274D02*
X0118423Y0199274D01*
X0117556Y0198406D02*
X0117556Y0194926D01*
X0120017Y0192465D01*
X0123498Y0192465D01*
X0125959Y0194926D01*
X0125959Y0198406D01*
X0123498Y0200868D01*
X0120017Y0200868D01*
X0117556Y0198406D01*
X0117556Y0195678D02*
X0116057Y0195678D01*
X0115652Y0194480D02*
X0118002Y0194480D01*
X0119201Y0193281D02*
X0114454Y0193281D01*
X0112057Y0193281D02*
X0111457Y0193281D01*
X0111457Y0194480D02*
X0112057Y0194480D01*
X0112057Y0195678D02*
X0111457Y0195678D01*
X0111457Y0196877D02*
X0105959Y0196877D01*
X0105959Y0198075D02*
X0107457Y0198075D01*
X0108284Y0199274D02*
X0105092Y0199274D01*
X0105959Y0195678D02*
X0107457Y0195678D01*
X0107863Y0194480D02*
X0105513Y0194480D01*
X0104314Y0193281D02*
X0109061Y0193281D01*
X0110017Y0190868D02*
X0107556Y0188406D01*
X0107556Y0184926D01*
X0110017Y0182465D01*
X0113498Y0182465D01*
X0115959Y0184926D01*
X0115959Y0188406D01*
X0113498Y0190868D01*
X0110017Y0190868D01*
X0108835Y0189686D02*
X0104680Y0189686D01*
X0105878Y0188487D02*
X0107637Y0188487D01*
X0107556Y0187289D02*
X0105959Y0187289D01*
X0105959Y0186090D02*
X0107556Y0186090D01*
X0107590Y0184892D02*
X0105925Y0184892D01*
X0104726Y0183693D02*
X0108789Y0183693D01*
X0109987Y0182495D02*
X0103528Y0182495D01*
X0099987Y0182495D02*
X0093528Y0182495D01*
X0094726Y0183693D02*
X0098789Y0183693D01*
X0097590Y0184892D02*
X0095925Y0184892D01*
X0095959Y0186090D02*
X0097556Y0186090D01*
X0097556Y0187289D02*
X0095959Y0187289D01*
X0095878Y0188487D02*
X0097637Y0188487D01*
X0089987Y0182495D02*
X0089698Y0182495D01*
X0077084Y0174105D02*
X0055246Y0174105D01*
X0054275Y0172906D02*
X0075885Y0172906D01*
X0074687Y0171708D02*
X0072787Y0171708D01*
X0063484Y0171708D02*
X0057433Y0171708D01*
X0057433Y0170509D02*
X0063484Y0170509D01*
X0063484Y0169311D02*
X0057433Y0169311D01*
X0057433Y0168112D02*
X0063484Y0168112D01*
X0063484Y0166914D02*
X0057433Y0166914D01*
X0057433Y0165715D02*
X0063484Y0165715D01*
X0063484Y0160921D02*
X0057433Y0160921D01*
X0057002Y0159723D02*
X0063915Y0159723D01*
X0064687Y0151333D02*
X0087114Y0151333D01*
X0087114Y0150135D02*
X0066063Y0150135D01*
X0066559Y0148936D02*
X0087114Y0148936D01*
X0087114Y0147738D02*
X0066586Y0147738D01*
X0066208Y0146539D02*
X0074926Y0146539D01*
X0076700Y0146539D02*
X0087114Y0146539D01*
X0087114Y0145341D02*
X0078563Y0145341D01*
X0079220Y0144142D02*
X0087114Y0144142D01*
X0087114Y0142944D02*
X0086223Y0142944D01*
X0081795Y0142944D02*
X0081794Y0142944D01*
X0073263Y0140547D02*
X0063996Y0140547D01*
X0063996Y0141745D02*
X0072488Y0141745D01*
X0072244Y0142944D02*
X0063996Y0142944D01*
X0065242Y0145341D02*
X0073063Y0145341D01*
X0072405Y0144142D02*
X0061110Y0144142D01*
X0058101Y0144142D02*
X0049514Y0144142D01*
X0050430Y0145341D02*
X0058101Y0145341D01*
X0059282Y0146539D02*
X0050444Y0146539D01*
X0050444Y0147956D02*
X0047063Y0147956D01*
X0047063Y0151140D01*
X0049055Y0151140D01*
X0049462Y0151031D01*
X0049827Y0150820D01*
X0050124Y0150523D01*
X0050335Y0150158D01*
X0050444Y0149751D01*
X0050444Y0147956D01*
X0050444Y0148936D02*
X0059475Y0148936D01*
X0059449Y0147738D02*
X0047063Y0147738D01*
X0047063Y0148936D02*
X0046294Y0148936D01*
X0046294Y0150135D02*
X0047063Y0150135D01*
X0050341Y0150135D02*
X0059972Y0150135D01*
X0061348Y0151333D02*
X0042710Y0151333D01*
X0043909Y0152532D02*
X0087114Y0152532D01*
X0087114Y0153730D02*
X0045107Y0153730D01*
X0046306Y0154929D02*
X0087114Y0154929D01*
X0092554Y0162120D02*
X0093323Y0162120D01*
X0093323Y0163318D02*
X0092554Y0163318D01*
X0089173Y0165715D02*
X0082683Y0165715D01*
X0083881Y0166914D02*
X0089183Y0166914D01*
X0090078Y0168112D02*
X0085080Y0168112D01*
X0113528Y0182495D02*
X0119987Y0182495D01*
X0120017Y0182465D02*
X0123498Y0182465D01*
X0125959Y0184926D01*
X0125959Y0188406D01*
X0123498Y0190868D01*
X0120017Y0190868D01*
X0117556Y0188406D01*
X0117556Y0184926D01*
X0120017Y0182465D01*
X0118789Y0183693D02*
X0114726Y0183693D01*
X0115925Y0184892D02*
X0117590Y0184892D01*
X0117556Y0186090D02*
X0115959Y0186090D01*
X0115959Y0187289D02*
X0117556Y0187289D01*
X0117637Y0188487D02*
X0115878Y0188487D01*
X0114680Y0189686D02*
X0118835Y0189686D01*
X0124680Y0189686D02*
X0128835Y0189686D01*
X0127637Y0188487D02*
X0125878Y0188487D01*
X0125959Y0187289D02*
X0127556Y0187289D01*
X0127556Y0186090D02*
X0125959Y0186090D01*
X0125925Y0184892D02*
X0127590Y0184892D01*
X0128789Y0183693D02*
X0124726Y0183693D01*
X0123528Y0182495D02*
X0129987Y0182495D01*
X0138133Y0181296D02*
X0145185Y0181296D01*
X0145185Y0180098D02*
X0138133Y0180098D01*
X0138133Y0178899D02*
X0145185Y0178899D01*
X0145934Y0177701D02*
X0138133Y0177701D01*
X0138133Y0176502D02*
X0147132Y0176502D01*
X0148331Y0175304D02*
X0138133Y0175304D01*
X0138133Y0174105D02*
X0149529Y0174105D01*
X0150728Y0172906D02*
X0138133Y0172906D01*
X0141291Y0171708D02*
X0148523Y0171708D01*
X0148523Y0170509D02*
X0141291Y0170509D01*
X0141291Y0169311D02*
X0148523Y0169311D01*
X0148523Y0168112D02*
X0141291Y0168112D01*
X0141291Y0166914D02*
X0148523Y0166914D01*
X0148523Y0165715D02*
X0141291Y0165715D01*
X0141291Y0160921D02*
X0148523Y0160921D01*
X0148954Y0159723D02*
X0140860Y0159723D01*
X0157396Y0159723D02*
X0163915Y0159723D01*
X0163484Y0160921D02*
X0157826Y0160921D01*
X0157826Y0165715D02*
X0163484Y0165715D01*
X0163484Y0166914D02*
X0157826Y0166914D01*
X0157826Y0168112D02*
X0163484Y0168112D01*
X0163484Y0169311D02*
X0157826Y0169311D01*
X0157826Y0170509D02*
X0163484Y0170509D01*
X0163484Y0171708D02*
X0157826Y0171708D01*
X0154668Y0172906D02*
X0166642Y0172906D01*
X0166642Y0174105D02*
X0153754Y0174105D01*
X0152555Y0175304D02*
X0166642Y0175304D01*
X0166642Y0176502D02*
X0151357Y0176502D01*
X0150158Y0177701D02*
X0165815Y0177701D01*
X0165264Y0178899D02*
X0148960Y0178899D01*
X0148172Y0180098D02*
X0165264Y0180098D01*
X0165264Y0181296D02*
X0148172Y0181296D01*
X0148172Y0182495D02*
X0149987Y0182495D01*
X0148789Y0183693D02*
X0148172Y0183693D01*
X0145185Y0183693D02*
X0144866Y0183693D01*
X0145185Y0182495D02*
X0143667Y0182495D01*
X0148016Y0189686D02*
X0148835Y0189686D01*
X0145619Y0192083D02*
X0167227Y0192083D01*
X0167556Y0198075D02*
X0166057Y0198075D01*
X0167472Y0217251D02*
X0173523Y0217251D01*
X0173913Y0218450D02*
X0167083Y0218450D01*
X0182437Y0218450D02*
X0189267Y0218450D01*
X0188878Y0217251D02*
X0182826Y0217251D01*
X0197791Y0218450D02*
X0204621Y0218450D01*
X0204232Y0217251D02*
X0198181Y0217251D01*
X0213146Y0218450D02*
X0316551Y0218450D01*
X0241955Y0174105D02*
X0237904Y0174105D01*
X0236162Y0174105D02*
X0221584Y0174105D01*
X0220386Y0172906D02*
X0234290Y0172906D01*
X0239776Y0172906D02*
X0241240Y0172906D01*
X0241240Y0168112D02*
X0239589Y0168112D01*
X0244326Y0163318D02*
X0245094Y0163318D01*
X0245094Y0162120D02*
X0244326Y0162120D01*
X0244326Y0160921D02*
X0245094Y0160921D01*
X0220514Y0160921D02*
X0188535Y0160921D01*
X0188104Y0159723D02*
X0219316Y0159723D01*
X0208423Y0199274D02*
X0208409Y0199274D01*
X0209566Y0200472D02*
X0209622Y0200472D01*
X0139894Y0190884D02*
X0136975Y0190884D01*
X0138133Y0189686D02*
X0138696Y0189686D01*
X0129201Y0193281D02*
X0124314Y0193281D01*
X0125513Y0194480D02*
X0128002Y0194480D01*
X0127556Y0195678D02*
X0125959Y0195678D01*
X0125959Y0196877D02*
X0127556Y0196877D01*
X0127556Y0198075D02*
X0125959Y0198075D01*
X0125092Y0199274D02*
X0128423Y0199274D01*
X0129622Y0200472D02*
X0123893Y0200472D01*
X0119622Y0200472D02*
X0114032Y0200472D01*
X0069201Y0193281D02*
X0064314Y0193281D01*
X0065513Y0194480D02*
X0068002Y0194480D01*
X0067556Y0195678D02*
X0065959Y0195678D01*
X0065959Y0196877D02*
X0067556Y0196877D01*
X0067556Y0198075D02*
X0065959Y0198075D01*
X0066438Y0199274D02*
X0068423Y0199274D01*
X0048835Y0189686D02*
X0046889Y0189686D01*
X0038835Y0189686D02*
X0034680Y0189686D01*
X0035878Y0188487D02*
X0037637Y0188487D01*
X0037556Y0187289D02*
X0035959Y0187289D01*
X0035959Y0186090D02*
X0037556Y0186090D01*
X0037590Y0184892D02*
X0035925Y0184892D01*
X0034726Y0183693D02*
X0038789Y0183693D01*
X0041513Y0179936D02*
X0030358Y0179936D01*
X0023566Y0173144D01*
X0023566Y0172877D01*
X0025844Y0172877D01*
X0026724Y0171998D01*
X0026724Y0166154D01*
X0026646Y0166076D01*
X0026724Y0165998D01*
X0026724Y0164569D01*
X0032775Y0164569D01*
X0032775Y0165998D01*
X0032853Y0166076D01*
X0032775Y0166154D01*
X0032775Y0171998D01*
X0033655Y0172877D01*
X0035933Y0172877D01*
X0035933Y0174356D01*
X0041066Y0179490D01*
X0041513Y0179936D01*
X0040476Y0178899D02*
X0029321Y0178899D01*
X0028123Y0177701D02*
X0039277Y0177701D01*
X0038079Y0176502D02*
X0026924Y0176502D01*
X0025725Y0175304D02*
X0036880Y0175304D01*
X0035933Y0174105D02*
X0024527Y0174105D01*
X0023566Y0172906D02*
X0035933Y0172906D01*
X0038920Y0172906D02*
X0051287Y0172906D01*
X0051287Y0172877D02*
X0049009Y0172877D01*
X0048130Y0171998D01*
X0048130Y0166154D01*
X0048208Y0166076D01*
X0048130Y0165998D01*
X0048130Y0164569D01*
X0042078Y0164569D01*
X0042078Y0165998D01*
X0042000Y0166076D01*
X0042078Y0166154D01*
X0042078Y0171998D01*
X0041199Y0172877D01*
X0038920Y0172877D01*
X0038920Y0173119D01*
X0043179Y0177377D01*
X0054293Y0177377D01*
X0053846Y0176931D01*
X0051287Y0174371D01*
X0051287Y0172877D01*
X0051287Y0174105D02*
X0039907Y0174105D01*
X0041105Y0175304D02*
X0052219Y0175304D01*
X0053418Y0176502D02*
X0042304Y0176502D01*
X0042078Y0171708D02*
X0048130Y0171708D01*
X0048130Y0170509D02*
X0042078Y0170509D01*
X0042078Y0169311D02*
X0048130Y0169311D01*
X0048130Y0168112D02*
X0042078Y0168112D01*
X0042078Y0166914D02*
X0048130Y0166914D01*
X0048130Y0165715D02*
X0042078Y0165715D01*
X0032775Y0165715D02*
X0026724Y0165715D01*
X0026724Y0166914D02*
X0032775Y0166914D01*
X0032775Y0168112D02*
X0026724Y0168112D01*
X0026724Y0169311D02*
X0032775Y0169311D01*
X0032775Y0170509D02*
X0026724Y0170509D01*
X0026724Y0171708D02*
X0032775Y0171708D01*
X0025096Y0178899D02*
X0013330Y0178899D01*
X0013330Y0177701D02*
X0023898Y0177701D01*
X0022699Y0176502D02*
X0013330Y0176502D01*
X0013330Y0175304D02*
X0021501Y0175304D01*
X0021454Y0175257D02*
X0020579Y0174382D01*
X0020579Y0172877D01*
X0018300Y0172877D01*
X0017421Y0171998D01*
X0017421Y0166154D01*
X0017499Y0166076D01*
X0017421Y0165998D01*
X0017421Y0165162D01*
X0013330Y0169253D01*
X0013330Y0208919D01*
X0018056Y0213645D01*
X0025098Y0213645D01*
X0025098Y0212217D01*
X0025176Y0212139D01*
X0025098Y0212061D01*
X0025098Y0206217D01*
X0025978Y0205337D01*
X0028256Y0205337D01*
X0028256Y0202915D01*
X0025981Y0200640D01*
X0025106Y0199765D01*
X0025106Y0199259D01*
X0023498Y0200868D01*
X0020017Y0200868D01*
X0017556Y0198406D01*
X0017556Y0194926D01*
X0020017Y0192465D01*
X0023498Y0192465D01*
X0025106Y0194073D01*
X0025106Y0191205D01*
X0027730Y0188581D01*
X0027556Y0188406D01*
X0027556Y0184926D01*
X0029558Y0182924D01*
X0029121Y0182924D01*
X0021454Y0175257D01*
X0020579Y0174105D02*
X0013330Y0174105D01*
X0013330Y0172906D02*
X0020579Y0172906D01*
X0017421Y0171708D02*
X0013330Y0171708D01*
X0013330Y0170509D02*
X0017421Y0170509D01*
X0017421Y0169311D02*
X0013330Y0169311D01*
X0014471Y0168112D02*
X0017421Y0168112D01*
X0017421Y0166914D02*
X0015669Y0166914D01*
X0016868Y0165715D02*
X0017421Y0165715D01*
X0026724Y0160921D02*
X0032775Y0160921D01*
X0033206Y0159723D02*
X0026293Y0159723D01*
X0031600Y0145341D02*
X0036319Y0145341D01*
X0037158Y0144142D02*
X0030401Y0144142D01*
X0029203Y0142944D02*
X0038492Y0142944D01*
X0036417Y0141745D02*
X0028566Y0141745D01*
X0028566Y0140547D02*
X0036417Y0140547D01*
X0036417Y0139348D02*
X0028566Y0139348D01*
X0028566Y0138150D02*
X0036417Y0138150D01*
X0036417Y0136951D02*
X0028566Y0136951D01*
X0029243Y0135753D02*
X0036417Y0135753D01*
X0036417Y0134554D02*
X0030441Y0134554D01*
X0031274Y0133356D02*
X0036417Y0133356D01*
X0036417Y0132157D02*
X0031274Y0132157D01*
X0031274Y0130959D02*
X0036562Y0130959D01*
X0030793Y0129760D02*
X0055193Y0129760D01*
X0055193Y0128562D02*
X0029595Y0128562D01*
X0028831Y0126165D02*
X0055193Y0126165D01*
X0055193Y0127363D02*
X0006827Y0127363D01*
X0006826Y0126165D02*
X0015314Y0126165D01*
X0014115Y0124966D02*
X0006825Y0124966D01*
X0006824Y0123768D02*
X0012917Y0123768D01*
X0012871Y0122569D02*
X0006822Y0122569D01*
X0006821Y0121370D02*
X0012871Y0121370D01*
X0012940Y0120172D02*
X0006820Y0120172D01*
X0006819Y0118973D02*
X0014138Y0118973D01*
X0014527Y0115378D02*
X0006815Y0115378D01*
X0006816Y0116576D02*
X0048611Y0116576D01*
X0049151Y0117775D02*
X0006818Y0117775D01*
X0006814Y0114179D02*
X0013329Y0114179D01*
X0012871Y0112981D02*
X0006813Y0112981D01*
X0006812Y0111782D02*
X0012871Y0111782D01*
X0012871Y0110584D02*
X0006810Y0110584D01*
X0006809Y0109385D02*
X0013726Y0109385D01*
X0014925Y0108187D02*
X0006808Y0108187D01*
X0006807Y0106988D02*
X0046332Y0106988D01*
X0046332Y0105790D02*
X0029206Y0105790D01*
X0030404Y0104591D02*
X0046332Y0104591D01*
X0046332Y0103393D02*
X0031274Y0103393D01*
X0031274Y0102194D02*
X0046332Y0102194D01*
X0046332Y0100996D02*
X0031274Y0100996D01*
X0030831Y0099797D02*
X0046332Y0099797D01*
X0046332Y0098599D02*
X0029632Y0098599D01*
X0029992Y0095003D02*
X0046332Y0095003D01*
X0046332Y0093805D02*
X0031191Y0093805D01*
X0031274Y0092606D02*
X0046332Y0092606D01*
X0046332Y0091408D02*
X0031274Y0091408D01*
X0031242Y0090209D02*
X0046332Y0090209D01*
X0046332Y0089011D02*
X0030044Y0089011D01*
X0028845Y0087812D02*
X0046332Y0087812D01*
X0046332Y0086614D02*
X0006786Y0086614D01*
X0006788Y0087812D02*
X0015299Y0087812D01*
X0014101Y0089011D02*
X0006789Y0089011D01*
X0006790Y0090209D02*
X0012902Y0090209D01*
X0012871Y0091408D02*
X0006791Y0091408D01*
X0006792Y0092606D02*
X0012871Y0092606D01*
X0012954Y0093805D02*
X0006794Y0093805D01*
X0006795Y0095003D02*
X0014153Y0095003D01*
X0014513Y0098599D02*
X0006798Y0098599D01*
X0006800Y0099797D02*
X0013314Y0099797D01*
X0012871Y0100996D02*
X0006801Y0100996D01*
X0006802Y0102194D02*
X0012871Y0102194D01*
X0012871Y0103393D02*
X0006803Y0103393D01*
X0006804Y0104591D02*
X0013741Y0104591D01*
X0014939Y0105790D02*
X0006806Y0105790D01*
X0006797Y0097400D02*
X0046332Y0097400D01*
X0046332Y0096202D02*
X0006796Y0096202D01*
X0006785Y0085415D02*
X0014565Y0085415D01*
X0013366Y0084217D02*
X0006784Y0084217D01*
X0006783Y0083018D02*
X0012871Y0083018D01*
X0012871Y0081820D02*
X0006782Y0081820D01*
X0006780Y0080621D02*
X0012871Y0080621D01*
X0013689Y0079423D02*
X0006779Y0079423D01*
X0006771Y0071033D02*
X0012772Y0071033D01*
X0013138Y0069835D02*
X0006770Y0069835D01*
X0006768Y0068636D02*
X0014336Y0068636D01*
X0019808Y0068636D02*
X0024336Y0068636D01*
X0023138Y0069835D02*
X0021007Y0069835D01*
X0021372Y0071033D02*
X0022772Y0071033D01*
X0022772Y0073430D02*
X0021372Y0073430D01*
X0020506Y0074629D02*
X0023639Y0074629D01*
X0026772Y0074629D02*
X0027372Y0074629D01*
X0027372Y0075827D02*
X0026772Y0075827D01*
X0026772Y0073430D02*
X0027372Y0073430D01*
X0027372Y0071033D02*
X0026772Y0071033D01*
X0026772Y0069835D02*
X0027372Y0069835D01*
X0027372Y0068636D02*
X0026772Y0068636D01*
X0029808Y0068636D02*
X0058704Y0068636D01*
X0057506Y0069835D02*
X0031007Y0069835D01*
X0029257Y0078224D02*
X0049116Y0078224D01*
X0047918Y0079423D02*
X0030456Y0079423D01*
X0031274Y0080621D02*
X0046719Y0080621D01*
X0046332Y0081820D02*
X0031274Y0081820D01*
X0031274Y0083018D02*
X0046332Y0083018D01*
X0046332Y0084217D02*
X0030779Y0084217D01*
X0029580Y0085415D02*
X0046332Y0085415D01*
X0055456Y0089011D02*
X0071760Y0089011D01*
X0071760Y0090209D02*
X0055456Y0090209D01*
X0055456Y0091408D02*
X0071760Y0091408D01*
X0071760Y0092606D02*
X0055456Y0092606D01*
X0055456Y0093805D02*
X0071760Y0093805D01*
X0071760Y0095003D02*
X0055456Y0095003D01*
X0055456Y0096202D02*
X0071760Y0096202D01*
X0071760Y0097400D02*
X0055456Y0097400D01*
X0055456Y0098599D02*
X0071760Y0098599D01*
X0071760Y0099797D02*
X0055456Y0099797D01*
X0055456Y0100996D02*
X0071760Y0100996D01*
X0071760Y0102194D02*
X0055456Y0102194D01*
X0055456Y0103393D02*
X0071760Y0103393D01*
X0071760Y0104591D02*
X0055456Y0104591D01*
X0055456Y0105790D02*
X0071760Y0105790D01*
X0071760Y0106988D02*
X0055456Y0106988D01*
X0055456Y0108187D02*
X0071760Y0108187D01*
X0071760Y0109385D02*
X0055456Y0109385D01*
X0055456Y0110584D02*
X0071760Y0110584D01*
X0076899Y0111782D02*
X0077903Y0111782D01*
X0085685Y0111782D02*
X0088502Y0111782D01*
X0089700Y0112981D02*
X0086196Y0112981D01*
X0086196Y0114179D02*
X0090899Y0114179D01*
X0091935Y0117775D02*
X0086282Y0117775D01*
X0076818Y0124966D02*
X0064040Y0124966D01*
X0063996Y0126165D02*
X0075619Y0126165D01*
X0074421Y0127363D02*
X0063996Y0127363D01*
X0063996Y0130463D02*
X0063996Y0132809D01*
X0064094Y0133177D01*
X0064094Y0134087D01*
X0059595Y0134087D01*
X0059595Y0134087D01*
X0064094Y0134087D01*
X0064094Y0134998D01*
X0064053Y0135153D01*
X0070927Y0135153D01*
X0066237Y0130463D01*
X0063996Y0130463D01*
X0063996Y0130959D02*
X0066733Y0130959D01*
X0067931Y0132157D02*
X0063996Y0132157D01*
X0064094Y0133356D02*
X0069130Y0133356D01*
X0070328Y0134554D02*
X0064094Y0134554D01*
X0063996Y0138150D02*
X0071365Y0138150D01*
X0072563Y0139348D02*
X0063996Y0139348D01*
X0059594Y0134087D02*
X0059594Y0134087D01*
X0055094Y0134087D01*
X0059594Y0134087D01*
X0055094Y0134554D02*
X0050936Y0134554D01*
X0050916Y0135753D02*
X0055193Y0135753D01*
X0055193Y0136951D02*
X0050838Y0136951D01*
X0047368Y0139206D02*
X0047269Y0139304D01*
X0043701Y0139348D02*
X0043554Y0139348D01*
X0043554Y0138150D02*
X0043701Y0138150D01*
X0043701Y0136951D02*
X0043554Y0136951D01*
X0043554Y0135753D02*
X0043623Y0135753D01*
X0043602Y0134554D02*
X0043554Y0134554D01*
X0043554Y0133356D02*
X0046934Y0133356D01*
X0046934Y0133260D02*
X0043602Y0133260D01*
X0043602Y0131515D01*
X0043711Y0131108D01*
X0043922Y0130743D01*
X0044220Y0130445D01*
X0044585Y0130234D01*
X0044992Y0130125D01*
X0046934Y0130125D01*
X0046934Y0133260D01*
X0047604Y0133356D02*
X0055094Y0133356D01*
X0055193Y0132157D02*
X0050936Y0132157D01*
X0050741Y0130959D02*
X0055193Y0130959D01*
X0055149Y0124966D02*
X0030029Y0124966D01*
X0031228Y0123768D02*
X0047749Y0123768D01*
X0046929Y0122569D02*
X0031274Y0122569D01*
X0031274Y0121370D02*
X0046654Y0121370D01*
X0046783Y0120172D02*
X0031205Y0120172D01*
X0030007Y0118973D02*
X0047396Y0118973D01*
X0050222Y0121194D02*
X0050320Y0121292D01*
X0052695Y0123768D02*
X0055094Y0123768D01*
X0055094Y0123851D02*
X0059594Y0123851D01*
X0059594Y0123851D01*
X0055094Y0123851D01*
X0047604Y0130959D02*
X0046934Y0130959D01*
X0046934Y0132157D02*
X0047604Y0132157D01*
X0043797Y0130959D02*
X0043410Y0130959D01*
X0043554Y0132157D02*
X0043602Y0132157D01*
X0043554Y0140547D02*
X0043701Y0140547D01*
X0043701Y0141745D02*
X0043554Y0141745D01*
X0041480Y0142944D02*
X0055193Y0142944D01*
X0055193Y0141745D02*
X0050838Y0141745D01*
X0047063Y0144142D02*
X0046294Y0144142D01*
X0046294Y0145341D02*
X0047063Y0145341D01*
X0047063Y0146539D02*
X0046294Y0146539D01*
X0043844Y0144142D02*
X0042814Y0144142D01*
X0068561Y0128562D02*
X0074319Y0128562D01*
X0074319Y0129760D02*
X0069759Y0129760D01*
X0070958Y0130959D02*
X0074319Y0130959D01*
X0074319Y0132157D02*
X0072156Y0132157D01*
X0073355Y0133356D02*
X0074319Y0133356D01*
X0047412Y0115378D02*
X0029618Y0115378D01*
X0030816Y0114179D02*
X0046332Y0114179D01*
X0046332Y0112981D02*
X0031274Y0112981D01*
X0031274Y0111782D02*
X0046332Y0111782D01*
X0046332Y0110584D02*
X0031274Y0110584D01*
X0030419Y0109385D02*
X0046332Y0109385D01*
X0046332Y0108187D02*
X0029220Y0108187D01*
X0014550Y0128562D02*
X0006828Y0128562D01*
X0006830Y0129760D02*
X0013352Y0129760D01*
X0012871Y0130959D02*
X0006831Y0130959D01*
X0006832Y0132157D02*
X0012871Y0132157D01*
X0012871Y0133356D02*
X0006833Y0133356D01*
X0006834Y0134554D02*
X0013704Y0134554D01*
X0014902Y0135753D02*
X0006836Y0135753D01*
X0055522Y0111782D02*
X0055703Y0111782D01*
X0074747Y0092606D02*
X0087999Y0092606D01*
X0087999Y0091408D02*
X0074747Y0091408D01*
X0074747Y0090209D02*
X0087999Y0090209D01*
X0087999Y0089011D02*
X0074747Y0089011D01*
X0074747Y0087812D02*
X0087999Y0087812D01*
X0087999Y0086614D02*
X0074747Y0086614D01*
X0074747Y0085415D02*
X0087999Y0085415D01*
X0087999Y0084217D02*
X0074747Y0084217D01*
X0074747Y0083018D02*
X0087999Y0083018D01*
X0087999Y0081820D02*
X0074747Y0081820D01*
X0074747Y0080621D02*
X0087999Y0080621D01*
X0087999Y0079423D02*
X0074747Y0079423D01*
X0074747Y0078224D02*
X0087999Y0078224D01*
X0087999Y0077026D02*
X0074849Y0077026D01*
X0076048Y0075827D02*
X0087999Y0075827D01*
X0087999Y0074629D02*
X0077246Y0074629D01*
X0078445Y0073430D02*
X0087999Y0073430D01*
X0087999Y0072232D02*
X0079643Y0072232D01*
X0080842Y0071033D02*
X0087999Y0071033D01*
X0087999Y0069835D02*
X0082040Y0069835D01*
X0083239Y0068636D02*
X0087999Y0068636D01*
X0087999Y0067437D02*
X0084437Y0067437D01*
X0085636Y0066239D02*
X0087999Y0066239D01*
X0087999Y0065040D02*
X0086834Y0065040D01*
X0088033Y0063842D02*
X0088926Y0063842D01*
X0089231Y0062643D02*
X0090124Y0062643D01*
X0090430Y0061445D02*
X0091323Y0061445D01*
X0091628Y0060246D02*
X0092521Y0060246D01*
X0092827Y0059048D02*
X0093720Y0059048D01*
X0094025Y0057849D02*
X0094919Y0057849D01*
X0095224Y0056651D02*
X0096117Y0056651D01*
X0095810Y0055452D02*
X0097316Y0055452D01*
X0097229Y0054254D02*
X0097744Y0054254D01*
X0092197Y0055452D02*
X0088942Y0055452D01*
X0090140Y0054254D02*
X0091404Y0054254D01*
X0090999Y0056651D02*
X0087743Y0056651D01*
X0086545Y0057849D02*
X0089800Y0057849D01*
X0088602Y0059048D02*
X0085346Y0059048D01*
X0084148Y0060246D02*
X0087403Y0060246D01*
X0086205Y0061445D02*
X0082949Y0061445D01*
X0081751Y0062643D02*
X0085006Y0062643D01*
X0083808Y0063842D02*
X0080552Y0063842D01*
X0079354Y0065040D02*
X0082609Y0065040D01*
X0081411Y0066239D02*
X0078155Y0066239D01*
X0076957Y0067437D02*
X0080212Y0067437D01*
X0079014Y0068636D02*
X0075758Y0068636D01*
X0074560Y0069835D02*
X0077815Y0069835D01*
X0076617Y0071033D02*
X0073361Y0071033D01*
X0072163Y0072232D02*
X0075418Y0072232D01*
X0074220Y0073430D02*
X0070964Y0073430D01*
X0069766Y0074629D02*
X0073021Y0074629D01*
X0071823Y0075827D02*
X0068567Y0075827D01*
X0067369Y0077026D02*
X0071760Y0077026D01*
X0071760Y0078224D02*
X0066170Y0078224D01*
X0064972Y0079423D02*
X0071760Y0079423D01*
X0071760Y0080621D02*
X0063773Y0080621D01*
X0062575Y0081820D02*
X0071760Y0081820D01*
X0071760Y0083018D02*
X0061376Y0083018D01*
X0060178Y0084217D02*
X0071760Y0084217D01*
X0071760Y0085415D02*
X0058979Y0085415D01*
X0057781Y0086614D02*
X0071760Y0086614D01*
X0071760Y0087812D02*
X0056582Y0087812D01*
X0097844Y0111782D02*
X0099207Y0111782D01*
X0120539Y0111782D02*
X0121407Y0111782D01*
X0138563Y0096202D02*
X0157136Y0096202D01*
X0156693Y0095003D02*
X0137364Y0095003D01*
X0136166Y0093805D02*
X0156693Y0093805D01*
X0158193Y0097400D02*
X0139761Y0097400D01*
X0151196Y0098599D02*
X0178049Y0098599D01*
X0177953Y0099797D02*
X0152395Y0099797D01*
X0162330Y0097400D02*
X0178615Y0097400D01*
X0180256Y0096202D02*
X0163387Y0096202D01*
X0163372Y0092606D02*
X0192978Y0092606D01*
X0194056Y0091408D02*
X0184687Y0091408D01*
X0186253Y0090209D02*
X0223837Y0090209D01*
X0225402Y0091408D02*
X0205798Y0091408D01*
X0205787Y0091397D02*
X0206791Y0092401D01*
X0207009Y0092928D01*
X0236348Y0092928D01*
X0236567Y0092401D01*
X0237571Y0091397D01*
X0238882Y0090854D01*
X0240302Y0090854D01*
X0241614Y0091397D01*
X0242617Y0092401D01*
X0243161Y0093712D01*
X0243161Y0095132D01*
X0242617Y0096443D01*
X0241614Y0097447D01*
X0240302Y0097991D01*
X0238882Y0097991D01*
X0237571Y0097447D01*
X0236567Y0096443D01*
X0236348Y0095916D01*
X0207009Y0095916D01*
X0206791Y0096443D01*
X0205787Y0097447D01*
X0204475Y0097991D01*
X0203056Y0097991D01*
X0201744Y0097447D01*
X0200740Y0096443D01*
X0200197Y0095132D01*
X0200197Y0093712D01*
X0200740Y0092401D01*
X0201744Y0091397D01*
X0203056Y0090854D01*
X0204475Y0090854D01*
X0205787Y0091397D01*
X0206876Y0092606D02*
X0236482Y0092606D01*
X0237560Y0091408D02*
X0228191Y0091408D01*
X0229757Y0090209D02*
X0267341Y0090209D01*
X0268906Y0091408D02*
X0249302Y0091408D01*
X0250380Y0092606D02*
X0279986Y0092606D01*
X0281064Y0091408D02*
X0271695Y0091408D01*
X0279971Y0096202D02*
X0256999Y0096202D01*
X0258641Y0097400D02*
X0281028Y0097400D01*
X0278329Y0102194D02*
X0258126Y0102194D01*
X0253341Y0102194D02*
X0214622Y0102194D01*
X0209837Y0102194D02*
X0183914Y0102194D01*
X0181419Y0105790D02*
X0274734Y0105790D01*
X0273535Y0106988D02*
X0182617Y0106988D01*
X0183816Y0108187D02*
X0272337Y0108187D01*
X0271138Y0109385D02*
X0195251Y0109385D01*
X0195023Y0109158D02*
X0195023Y0109158D01*
X0180220Y0104591D02*
X0275932Y0104591D01*
X0277131Y0103393D02*
X0179022Y0103393D01*
X0179129Y0102194D02*
X0177823Y0102194D01*
X0178262Y0100996D02*
X0176625Y0100996D01*
X0182787Y0096202D02*
X0192963Y0096202D01*
X0194020Y0097400D02*
X0184428Y0097400D01*
X0181898Y0091408D02*
X0162294Y0091408D01*
X0198120Y0091408D02*
X0201733Y0091408D01*
X0200655Y0092606D02*
X0199199Y0092606D01*
X0199657Y0093805D02*
X0200197Y0093805D01*
X0200197Y0095003D02*
X0199657Y0095003D01*
X0199214Y0096202D02*
X0200640Y0096202D01*
X0201697Y0097400D02*
X0198157Y0097400D01*
X0205834Y0097400D02*
X0209323Y0097400D01*
X0210965Y0096202D02*
X0206891Y0096202D01*
X0213495Y0096202D02*
X0236467Y0096202D01*
X0237524Y0097400D02*
X0215137Y0097400D01*
X0241661Y0097400D02*
X0245201Y0097400D01*
X0244144Y0096202D02*
X0242717Y0096202D01*
X0243161Y0095003D02*
X0243701Y0095003D01*
X0243701Y0093805D02*
X0243161Y0093805D01*
X0242702Y0092606D02*
X0244159Y0092606D01*
X0245237Y0091408D02*
X0241624Y0091408D01*
X0249338Y0097400D02*
X0252827Y0097400D01*
X0254469Y0096202D02*
X0250395Y0096202D01*
X0271768Y0112981D02*
X0275220Y0112981D01*
X0274022Y0114179D02*
X0270569Y0114179D01*
X0269371Y0115378D02*
X0272823Y0115378D01*
X0271625Y0116576D02*
X0268172Y0116576D01*
X0272966Y0111782D02*
X0276419Y0111782D01*
X0277617Y0110584D02*
X0274165Y0110584D01*
X0275363Y0109385D02*
X0278816Y0109385D01*
X0279635Y0108187D02*
X0276562Y0108187D01*
X0277760Y0106988D02*
X0279528Y0106988D01*
X0279825Y0105790D02*
X0278959Y0105790D01*
X0280157Y0104591D02*
X0280675Y0104591D01*
X0289519Y0110584D02*
X0289576Y0110584D01*
X0288321Y0111782D02*
X0296957Y0111782D01*
X0296957Y0110584D02*
X0291971Y0110584D01*
X0293652Y0109385D02*
X0295572Y0109385D01*
X0294989Y0108187D02*
X0294234Y0108187D01*
X0294342Y0106988D02*
X0294882Y0106988D01*
X0295179Y0105790D02*
X0294044Y0105790D01*
X0293194Y0104591D02*
X0296030Y0104591D01*
X0296957Y0112981D02*
X0287122Y0112981D01*
X0285924Y0114179D02*
X0296957Y0114179D01*
X0295479Y0115378D02*
X0284725Y0115378D01*
X0283526Y0116576D02*
X0294951Y0116576D01*
X0294882Y0117775D02*
X0282328Y0117775D01*
X0281129Y0118973D02*
X0295217Y0118973D01*
X0296122Y0120172D02*
X0279931Y0120172D01*
X0233189Y0055302D02*
X0229460Y0055302D01*
X0226823Y0052665D01*
X0226823Y0048935D01*
X0229460Y0046298D01*
X0233189Y0046298D01*
X0235826Y0048935D01*
X0235826Y0052665D01*
X0233189Y0055302D01*
X0234237Y0054254D02*
X0238412Y0054254D01*
X0237214Y0053055D02*
X0235435Y0053055D01*
X0235826Y0051857D02*
X0236823Y0051857D01*
X0236823Y0050658D02*
X0235826Y0050658D01*
X0235826Y0049460D02*
X0236823Y0049460D01*
X0237497Y0048261D02*
X0235152Y0048261D01*
X0233953Y0047063D02*
X0238695Y0047063D01*
X0238824Y0044666D02*
X0233825Y0044666D01*
X0233189Y0045302D02*
X0229460Y0045302D01*
X0226823Y0042665D01*
X0226823Y0038935D01*
X0229460Y0036298D01*
X0233189Y0036298D01*
X0235826Y0038935D01*
X0235826Y0042665D01*
X0233189Y0045302D01*
X0235023Y0043467D02*
X0237625Y0043467D01*
X0236823Y0042269D02*
X0235826Y0042269D01*
X0235826Y0041070D02*
X0236823Y0041070D01*
X0236823Y0039872D02*
X0235826Y0039872D01*
X0235564Y0038673D02*
X0237085Y0038673D01*
X0238284Y0037475D02*
X0234365Y0037475D01*
X0228284Y0037475D02*
X0224365Y0037475D01*
X0223189Y0036298D02*
X0225826Y0038935D01*
X0225826Y0042665D01*
X0223189Y0045302D01*
X0219460Y0045302D01*
X0216823Y0042665D01*
X0216823Y0038935D01*
X0219460Y0036298D01*
X0223189Y0036298D01*
X0225564Y0038673D02*
X0227085Y0038673D01*
X0226823Y0039872D02*
X0225826Y0039872D01*
X0225826Y0041070D02*
X0226823Y0041070D01*
X0226823Y0042269D02*
X0225826Y0042269D01*
X0225023Y0043467D02*
X0227625Y0043467D01*
X0228824Y0044666D02*
X0223825Y0044666D01*
X0223189Y0046298D02*
X0219460Y0046298D01*
X0216823Y0048935D01*
X0216823Y0052665D01*
X0219460Y0055302D01*
X0223189Y0055302D01*
X0225826Y0052665D01*
X0225826Y0048935D01*
X0223189Y0046298D01*
X0223953Y0047063D02*
X0228695Y0047063D01*
X0227497Y0048261D02*
X0225152Y0048261D01*
X0225826Y0049460D02*
X0226823Y0049460D01*
X0226823Y0050658D02*
X0225826Y0050658D01*
X0225826Y0051857D02*
X0226823Y0051857D01*
X0227214Y0053055D02*
X0225435Y0053055D01*
X0224237Y0054254D02*
X0228412Y0054254D01*
X0218412Y0054254D02*
X0214237Y0054254D01*
X0213189Y0055302D02*
X0209460Y0055302D01*
X0206823Y0052665D01*
X0206823Y0048935D01*
X0209460Y0046298D01*
X0213189Y0046298D01*
X0215826Y0048935D01*
X0215826Y0052665D01*
X0213189Y0055302D01*
X0215435Y0053055D02*
X0217214Y0053055D01*
X0216823Y0051857D02*
X0215826Y0051857D01*
X0215826Y0050658D02*
X0216823Y0050658D01*
X0216823Y0049460D02*
X0215826Y0049460D01*
X0215152Y0048261D02*
X0217497Y0048261D01*
X0218695Y0047063D02*
X0213953Y0047063D01*
X0213189Y0045302D02*
X0209460Y0045302D01*
X0206823Y0042665D01*
X0206823Y0038935D01*
X0209460Y0036298D01*
X0213189Y0036298D01*
X0215826Y0038935D01*
X0215826Y0042665D01*
X0213189Y0045302D01*
X0213825Y0044666D02*
X0218824Y0044666D01*
X0217625Y0043467D02*
X0215023Y0043467D01*
X0215826Y0042269D02*
X0216823Y0042269D01*
X0216823Y0041070D02*
X0215826Y0041070D01*
X0215826Y0039872D02*
X0216823Y0039872D01*
X0217085Y0038673D02*
X0215564Y0038673D01*
X0214365Y0037475D02*
X0218284Y0037475D01*
X0208824Y0044666D02*
X0203825Y0044666D01*
X0203189Y0045302D02*
X0199460Y0045302D01*
X0196823Y0042665D01*
X0196823Y0038935D01*
X0199460Y0036298D01*
X0203189Y0036298D01*
X0205826Y0038935D01*
X0205826Y0042665D01*
X0203189Y0045302D01*
X0203189Y0046298D02*
X0199460Y0046298D01*
X0196823Y0048935D01*
X0196823Y0052665D01*
X0199460Y0055302D01*
X0203189Y0055302D01*
X0205826Y0052665D01*
X0205826Y0048935D01*
X0203189Y0046298D01*
X0203953Y0047063D02*
X0208695Y0047063D01*
X0207497Y0048261D02*
X0205152Y0048261D01*
X0205826Y0049460D02*
X0206823Y0049460D01*
X0206823Y0050658D02*
X0205826Y0050658D01*
X0205826Y0051857D02*
X0206823Y0051857D01*
X0207214Y0053055D02*
X0205435Y0053055D01*
X0204237Y0054254D02*
X0208412Y0054254D01*
X0198695Y0047063D02*
X0193953Y0047063D01*
X0193189Y0046298D02*
X0195826Y0048935D01*
X0195826Y0052665D01*
X0193189Y0055302D01*
X0189460Y0055302D01*
X0186823Y0052665D01*
X0186823Y0048935D01*
X0189460Y0046298D01*
X0193189Y0046298D01*
X0193189Y0045302D02*
X0189460Y0045302D01*
X0186823Y0042665D01*
X0186823Y0038935D01*
X0189460Y0036298D01*
X0193189Y0036298D01*
X0195826Y0038935D01*
X0195826Y0042665D01*
X0193189Y0045302D01*
X0193825Y0044666D02*
X0198824Y0044666D01*
X0197625Y0043467D02*
X0195023Y0043467D01*
X0195826Y0042269D02*
X0196823Y0042269D01*
X0196823Y0041070D02*
X0195826Y0041070D01*
X0195826Y0039872D02*
X0196823Y0039872D01*
X0197085Y0038673D02*
X0195564Y0038673D01*
X0194365Y0037475D02*
X0198284Y0037475D01*
X0204365Y0037475D02*
X0208284Y0037475D01*
X0207085Y0038673D02*
X0205564Y0038673D01*
X0205826Y0039872D02*
X0206823Y0039872D01*
X0206823Y0041070D02*
X0205826Y0041070D01*
X0205826Y0042269D02*
X0206823Y0042269D01*
X0207625Y0043467D02*
X0205023Y0043467D01*
X0197497Y0048261D02*
X0195152Y0048261D01*
X0195826Y0049460D02*
X0196823Y0049460D01*
X0196823Y0050658D02*
X0195826Y0050658D01*
X0195826Y0051857D02*
X0196823Y0051857D01*
X0197214Y0053055D02*
X0195435Y0053055D01*
X0194237Y0054254D02*
X0198412Y0054254D01*
X0188412Y0054254D02*
X0184237Y0054254D01*
X0183189Y0055302D02*
X0179460Y0055302D01*
X0176823Y0052665D01*
X0176823Y0048935D01*
X0179460Y0046298D01*
X0183189Y0046298D01*
X0185826Y0048935D01*
X0185826Y0052665D01*
X0183189Y0055302D01*
X0185435Y0053055D02*
X0187214Y0053055D01*
X0186823Y0051857D02*
X0185826Y0051857D01*
X0185826Y0050658D02*
X0186823Y0050658D01*
X0186823Y0049460D02*
X0185826Y0049460D01*
X0185152Y0048261D02*
X0187497Y0048261D01*
X0188695Y0047063D02*
X0183953Y0047063D01*
X0183189Y0045302D02*
X0179460Y0045302D01*
X0176823Y0042665D01*
X0176823Y0038935D01*
X0179460Y0036298D01*
X0183189Y0036298D01*
X0185826Y0038935D01*
X0185826Y0042665D01*
X0183189Y0045302D01*
X0183825Y0044666D02*
X0188824Y0044666D01*
X0187625Y0043467D02*
X0185023Y0043467D01*
X0185826Y0042269D02*
X0186823Y0042269D01*
X0186823Y0041070D02*
X0185826Y0041070D01*
X0185826Y0039872D02*
X0186823Y0039872D01*
X0187085Y0038673D02*
X0185564Y0038673D01*
X0184365Y0037475D02*
X0188284Y0037475D01*
X0178284Y0037475D02*
X0174365Y0037475D01*
X0173189Y0036298D02*
X0175826Y0038935D01*
X0175826Y0042665D01*
X0173189Y0045302D01*
X0169460Y0045302D01*
X0166823Y0042665D01*
X0166823Y0038935D01*
X0169460Y0036298D01*
X0173189Y0036298D01*
X0175564Y0038673D02*
X0177085Y0038673D01*
X0176823Y0039872D02*
X0175826Y0039872D01*
X0175826Y0041070D02*
X0176823Y0041070D01*
X0176823Y0042269D02*
X0175826Y0042269D01*
X0175023Y0043467D02*
X0177625Y0043467D01*
X0178824Y0044666D02*
X0173825Y0044666D01*
X0173189Y0046298D02*
X0169460Y0046298D01*
X0166823Y0048935D01*
X0166823Y0052665D01*
X0169460Y0055302D01*
X0173189Y0055302D01*
X0175826Y0052665D01*
X0175826Y0048935D01*
X0173189Y0046298D01*
X0173953Y0047063D02*
X0178695Y0047063D01*
X0177497Y0048261D02*
X0175152Y0048261D01*
X0175826Y0049460D02*
X0176823Y0049460D01*
X0176823Y0050658D02*
X0175826Y0050658D01*
X0175826Y0051857D02*
X0176823Y0051857D01*
X0177214Y0053055D02*
X0175435Y0053055D01*
X0174237Y0054254D02*
X0178412Y0054254D01*
X0168412Y0054254D02*
X0157229Y0054254D01*
X0158427Y0053055D02*
X0167214Y0053055D01*
X0166823Y0051857D02*
X0158818Y0051857D01*
X0158818Y0050658D02*
X0166823Y0050658D01*
X0166823Y0049460D02*
X0158818Y0049460D01*
X0158144Y0048261D02*
X0167497Y0048261D01*
X0168695Y0047063D02*
X0156946Y0047063D01*
X0156817Y0044666D02*
X0168824Y0044666D01*
X0167625Y0043467D02*
X0158015Y0043467D01*
X0158818Y0042269D02*
X0166823Y0042269D01*
X0166823Y0041070D02*
X0158818Y0041070D01*
X0158818Y0039872D02*
X0166823Y0039872D01*
X0167085Y0038673D02*
X0158556Y0038673D01*
X0157357Y0037475D02*
X0168284Y0037475D01*
X0151276Y0037475D02*
X0147357Y0037475D01*
X0148556Y0038673D02*
X0150077Y0038673D01*
X0149815Y0039872D02*
X0148818Y0039872D01*
X0148818Y0041070D02*
X0149815Y0041070D01*
X0149815Y0042269D02*
X0148818Y0042269D01*
X0149537Y0043467D02*
X0148015Y0043467D01*
X0148338Y0044666D02*
X0146817Y0044666D01*
X0147744Y0045864D02*
X0141365Y0045864D01*
X0141688Y0047063D02*
X0140692Y0047063D01*
X0137705Y0047063D02*
X0136945Y0047063D01*
X0137705Y0045864D02*
X0131365Y0045864D01*
X0131046Y0047063D02*
X0131688Y0047063D01*
X0128059Y0047063D02*
X0126945Y0047063D01*
X0128059Y0045864D02*
X0121365Y0045864D01*
X0121688Y0047063D02*
X0120810Y0047063D01*
X0117823Y0047063D02*
X0116945Y0047063D01*
X0117823Y0045864D02*
X0111365Y0045864D01*
X0111688Y0047063D02*
X0110771Y0047063D01*
X0107783Y0047063D02*
X0106945Y0047063D01*
X0107783Y0045864D02*
X0101365Y0045864D01*
X0101688Y0047063D02*
X0100731Y0047063D01*
X0097744Y0047063D02*
X0096945Y0047063D01*
X0097744Y0045864D02*
X0091365Y0045864D01*
X0091688Y0047063D02*
X0090495Y0047063D01*
X0087508Y0047063D02*
X0086945Y0047063D01*
X0087508Y0045864D02*
X0080420Y0045864D01*
X0079865Y0047063D02*
X0081688Y0047063D01*
X0080489Y0048261D02*
X0079865Y0048261D01*
X0081618Y0044666D02*
X0081816Y0044666D01*
X0086817Y0044666D02*
X0088338Y0044666D01*
X0088015Y0043467D02*
X0089537Y0043467D01*
X0089815Y0042269D02*
X0088818Y0042269D01*
X0088818Y0041070D02*
X0089815Y0041070D01*
X0089815Y0039872D02*
X0088818Y0039872D01*
X0088556Y0038673D02*
X0090077Y0038673D01*
X0091276Y0037475D02*
X0087357Y0037475D01*
X0097357Y0037475D02*
X0101276Y0037475D01*
X0100077Y0038673D02*
X0098556Y0038673D01*
X0098818Y0039872D02*
X0099815Y0039872D01*
X0099815Y0041070D02*
X0098818Y0041070D01*
X0098818Y0042269D02*
X0099815Y0042269D01*
X0099537Y0043467D02*
X0098015Y0043467D01*
X0098338Y0044666D02*
X0096817Y0044666D01*
X0106817Y0044666D02*
X0108338Y0044666D01*
X0108015Y0043467D02*
X0109537Y0043467D01*
X0109815Y0042269D02*
X0108818Y0042269D01*
X0108818Y0041070D02*
X0109815Y0041070D01*
X0109815Y0039872D02*
X0108818Y0039872D01*
X0108556Y0038673D02*
X0110077Y0038673D01*
X0111276Y0037475D02*
X0107357Y0037475D01*
X0116817Y0044666D02*
X0118338Y0044666D01*
X0118698Y0044306D02*
X0118698Y0044306D01*
X0118015Y0043467D02*
X0119537Y0043467D01*
X0119815Y0042269D02*
X0118818Y0042269D01*
X0118818Y0041070D02*
X0119815Y0041070D01*
X0119815Y0039872D02*
X0118818Y0039872D01*
X0118556Y0038673D02*
X0120077Y0038673D01*
X0121276Y0037475D02*
X0117357Y0037475D01*
X0127357Y0037475D02*
X0131276Y0037475D01*
X0130077Y0038673D02*
X0128556Y0038673D01*
X0128818Y0039872D02*
X0129815Y0039872D01*
X0129815Y0041070D02*
X0128818Y0041070D01*
X0128818Y0042269D02*
X0129815Y0042269D01*
X0129537Y0043467D02*
X0128015Y0043467D01*
X0128338Y0044666D02*
X0126817Y0044666D01*
X0136817Y0044666D02*
X0138338Y0044666D01*
X0138015Y0043467D02*
X0139537Y0043467D01*
X0139815Y0042269D02*
X0138818Y0042269D01*
X0138818Y0041070D02*
X0139815Y0041070D01*
X0139815Y0039872D02*
X0138818Y0039872D01*
X0138556Y0038673D02*
X0140077Y0038673D01*
X0141276Y0037475D02*
X0137357Y0037475D01*
X0146945Y0047063D02*
X0147744Y0047063D01*
X0150731Y0047063D02*
X0151688Y0047063D01*
X0151365Y0045864D02*
X0316551Y0045864D01*
X0039061Y0193281D02*
X0034314Y0193281D01*
X0035513Y0194480D02*
X0037863Y0194480D01*
X0037457Y0195678D02*
X0035959Y0195678D01*
X0028210Y0202869D02*
X0013330Y0202869D01*
X0013330Y0201671D02*
X0027012Y0201671D01*
X0025813Y0200472D02*
X0023893Y0200472D01*
X0025092Y0199274D02*
X0025106Y0199274D01*
X0019622Y0200472D02*
X0013330Y0200472D01*
X0013330Y0199274D02*
X0018423Y0199274D01*
X0017556Y0198075D02*
X0013330Y0198075D01*
X0013330Y0196877D02*
X0017556Y0196877D01*
X0017556Y0195678D02*
X0013330Y0195678D01*
X0013330Y0194480D02*
X0018002Y0194480D01*
X0019201Y0193281D02*
X0013330Y0193281D01*
X0013330Y0192083D02*
X0025106Y0192083D01*
X0025106Y0193281D02*
X0024314Y0193281D01*
X0025427Y0190884D02*
X0013330Y0190884D01*
X0013330Y0189686D02*
X0018835Y0189686D01*
X0019377Y0190228D02*
X0018196Y0189046D01*
X0017556Y0187502D01*
X0017556Y0185830D01*
X0018196Y0184286D01*
X0019377Y0183104D01*
X0020922Y0182465D01*
X0022593Y0182465D01*
X0024137Y0183104D01*
X0025319Y0184286D01*
X0025959Y0185830D01*
X0025959Y0187502D01*
X0025319Y0189046D01*
X0024137Y0190228D01*
X0022593Y0190868D01*
X0020922Y0190868D01*
X0019377Y0190228D01*
X0017964Y0188487D02*
X0013330Y0188487D01*
X0013330Y0187289D02*
X0017556Y0187289D01*
X0017556Y0186090D02*
X0013330Y0186090D01*
X0013330Y0184892D02*
X0017945Y0184892D01*
X0018789Y0183693D02*
X0013330Y0183693D01*
X0013330Y0182495D02*
X0020849Y0182495D01*
X0022666Y0182495D02*
X0028692Y0182495D01*
X0028789Y0183693D02*
X0024726Y0183693D01*
X0025570Y0184892D02*
X0027590Y0184892D01*
X0027556Y0186090D02*
X0025959Y0186090D01*
X0025959Y0187289D02*
X0027556Y0187289D01*
X0027637Y0188487D02*
X0025551Y0188487D01*
X0024680Y0189686D02*
X0026626Y0189686D01*
X0027493Y0181296D02*
X0013330Y0181296D01*
X0013330Y0180098D02*
X0026295Y0180098D01*
X0028256Y0204068D02*
X0013330Y0204068D01*
X0013330Y0205266D02*
X0028256Y0205266D01*
X0025098Y0206465D02*
X0013330Y0206465D01*
X0013330Y0207663D02*
X0025098Y0207663D01*
X0025098Y0208862D02*
X0013330Y0208862D01*
X0014472Y0210060D02*
X0025098Y0210060D01*
X0025098Y0211259D02*
X0015670Y0211259D01*
X0016869Y0212457D02*
X0025098Y0212457D01*
D21*
X0019513Y0204461D03*
X0019513Y0178871D03*
X0029750Y0173753D03*
X0045104Y0173753D03*
X0052781Y0153280D03*
X0052781Y0145603D03*
X0063017Y0148162D03*
X0068135Y0153280D03*
X0075813Y0153280D03*
X0083490Y0153280D03*
X0093726Y0153280D03*
X0101403Y0153280D03*
X0106521Y0148162D03*
X0111639Y0143044D03*
X0119317Y0143044D03*
X0119317Y0153280D03*
X0126994Y0153280D03*
X0137230Y0153280D03*
X0144907Y0153280D03*
X0150025Y0148162D03*
X0155143Y0143044D03*
X0162820Y0143044D03*
X0175616Y0136745D03*
X0179159Y0132808D03*
X0178175Y0122572D03*
X0186836Y0104658D03*
X0194513Y0104658D03*
X0207309Y0107217D03*
X0217545Y0107217D03*
X0212230Y0099540D03*
X0203765Y0094422D03*
X0196088Y0094422D03*
X0183293Y0088123D03*
X0178175Y0084186D03*
X0183293Y0080249D03*
X0199828Y0066272D03*
X0221679Y0084186D03*
X0226797Y0088123D03*
X0226797Y0080249D03*
X0239592Y0094422D03*
X0247269Y0094422D03*
X0255734Y0099540D03*
X0255734Y0107217D03*
X0265970Y0107217D03*
X0283096Y0107217D03*
X0290773Y0107217D03*
X0298450Y0107217D03*
X0299238Y0099540D03*
X0283096Y0094422D03*
X0270301Y0088123D03*
X0265183Y0084186D03*
X0270301Y0080249D03*
X0290773Y0072670D03*
X0285655Y0059383D03*
X0245498Y0107217D03*
X0235261Y0107217D03*
X0244710Y0121391D03*
X0244710Y0127690D03*
X0255537Y0138517D03*
X0254946Y0145603D03*
X0254946Y0153280D03*
X0262033Y0153674D03*
X0272860Y0157611D03*
X0282702Y0149934D03*
X0281101Y0138490D03*
X0290773Y0129265D03*
X0295891Y0129265D03*
X0295891Y0124146D03*
X0290773Y0124146D03*
X0298450Y0117454D03*
X0301009Y0145800D03*
X0306324Y0145800D03*
X0306324Y0154068D03*
X0301009Y0158398D03*
X0288214Y0183989D03*
X0283096Y0183989D03*
X0277978Y0183989D03*
X0259277Y0190879D03*
X0244710Y0199343D03*
X0237033Y0170603D03*
X0254946Y0161548D03*
X0234474Y0151902D03*
X0229356Y0144422D03*
X0224238Y0151902D03*
X0214002Y0153280D03*
X0206324Y0153280D03*
X0198647Y0153280D03*
X0193529Y0148162D03*
X0198647Y0143044D03*
X0206324Y0143044D03*
X0219120Y0136745D03*
X0222860Y0132808D03*
X0221679Y0122572D03*
X0188411Y0153280D03*
X0180734Y0153280D03*
X0170498Y0153280D03*
X0162820Y0153280D03*
X0155143Y0153280D03*
X0132112Y0136745D03*
X0135655Y0132808D03*
X0134671Y0122572D03*
X0124435Y0107217D03*
X0139789Y0094422D03*
X0139789Y0088123D03*
X0134671Y0084186D03*
X0139789Y0080249D03*
X0156324Y0066272D03*
X0162820Y0045800D03*
X0162820Y0038123D03*
X0160261Y0094422D03*
X0153569Y0096981D03*
X0181521Y0099540D03*
X0101403Y0107217D03*
X0091167Y0122572D03*
X0092151Y0132808D03*
X0088608Y0136745D03*
X0075813Y0143044D03*
X0086049Y0163517D03*
X0106521Y0166076D03*
X0114198Y0166076D03*
X0111639Y0153280D03*
X0050222Y0121194D03*
X0039986Y0125131D03*
X0039986Y0107217D03*
X0057899Y0107217D03*
X0080931Y0107217D03*
D22*
X0076619Y0113615D02*
X0073254Y0110250D01*
X0073254Y0076509D01*
X0094317Y0055446D01*
X0094317Y0050800D01*
X0089002Y0053280D02*
X0089002Y0046115D01*
X0094317Y0040800D01*
X0099238Y0045879D02*
X0104317Y0040800D01*
X0109277Y0045839D02*
X0114317Y0040800D01*
X0119317Y0045800D02*
X0124317Y0040800D01*
X0119317Y0045800D02*
X0119317Y0056036D01*
X0107558Y0067795D01*
X0107558Y0085223D01*
X0141069Y0118733D01*
X0146602Y0118733D01*
X0146602Y0116174D02*
X0141069Y0116174D01*
X0132112Y0107217D01*
X0110876Y0085981D01*
X0110876Y0069595D01*
X0124317Y0056154D01*
X0124317Y0050800D01*
X0129553Y0055249D02*
X0129553Y0045564D01*
X0134317Y0040800D01*
X0139198Y0045918D02*
X0144317Y0040800D01*
X0149238Y0045879D02*
X0154317Y0040800D01*
X0149238Y0045879D02*
X0149238Y0054265D01*
X0125209Y0078293D01*
X0125209Y0087520D01*
X0132112Y0094422D01*
X0139789Y0102099D01*
X0150025Y0102099D01*
X0152584Y0104658D01*
X0175616Y0104658D01*
X0184572Y0113615D01*
X0190106Y0113615D01*
X0190106Y0116174D02*
X0184572Y0116174D01*
X0175616Y0107217D01*
X0152584Y0107217D01*
X0150025Y0104658D01*
X0139789Y0104658D01*
X0132112Y0096981D01*
X0122186Y0087055D01*
X0122186Y0076198D01*
X0144317Y0054068D01*
X0144317Y0050800D01*
X0139198Y0054068D02*
X0139198Y0045918D01*
X0134317Y0050800D02*
X0134277Y0050839D01*
X0134277Y0054855D01*
X0116318Y0072814D01*
X0116318Y0086306D01*
X0139789Y0109776D01*
X0150025Y0109776D01*
X0153864Y0113615D01*
X0168802Y0113615D01*
X0168802Y0116174D02*
X0164100Y0116174D01*
X0158982Y0121292D01*
X0146602Y0121292D01*
X0141069Y0121292D01*
X0135950Y0116174D01*
X0125298Y0116174D01*
X0120596Y0116174D01*
X0115478Y0121292D01*
X0103098Y0121292D01*
X0097565Y0121292D01*
X0092446Y0116174D01*
X0081794Y0116174D01*
X0077092Y0116174D01*
X0071974Y0121292D01*
X0059594Y0121292D01*
X0050320Y0121292D01*
X0052880Y0118733D02*
X0059594Y0118733D01*
X0059594Y0116174D02*
X0054061Y0116174D01*
X0052781Y0114894D01*
X0050806Y0112919D01*
X0050806Y0084310D01*
X0084317Y0050800D01*
X0078372Y0051081D02*
X0047826Y0081627D01*
X0047826Y0113679D01*
X0052880Y0118733D01*
X0055242Y0113615D02*
X0053962Y0112335D01*
X0053962Y0088320D01*
X0086246Y0056036D01*
X0089002Y0053280D01*
X0093726Y0061154D02*
X0099238Y0055643D01*
X0099238Y0045879D01*
X0104317Y0050800D02*
X0104317Y0055682D01*
X0096285Y0063713D01*
X0092484Y0067514D01*
X0092484Y0111094D01*
X0097565Y0116174D01*
X0103098Y0116174D01*
X0103098Y0113615D02*
X0097565Y0113615D01*
X0095519Y0111569D01*
X0095519Y0069598D01*
X0098844Y0066272D01*
X0109277Y0055839D01*
X0109277Y0045839D01*
X0114317Y0050800D02*
X0114317Y0055918D01*
X0104232Y0066003D01*
X0104232Y0097588D01*
X0120259Y0113615D01*
X0125298Y0113615D01*
X0132112Y0099540D02*
X0139789Y0107217D01*
X0150025Y0107217D01*
X0152584Y0109776D01*
X0175616Y0109776D01*
X0184572Y0118733D01*
X0190106Y0118733D01*
X0190106Y0121292D02*
X0202486Y0121292D01*
X0207604Y0116174D01*
X0212306Y0116174D01*
X0266462Y0116174D01*
X0279553Y0103083D01*
X0301266Y0103083D01*
X0304342Y0100007D01*
X0304342Y0082400D01*
X0294612Y0072670D01*
X0290773Y0072670D01*
X0293332Y0068831D02*
X0306232Y0081731D01*
X0306232Y0140578D01*
X0301009Y0145800D01*
X0306324Y0145800D02*
X0308096Y0144028D01*
X0308096Y0081036D01*
X0294022Y0066962D01*
X0274729Y0066962D01*
X0261443Y0080249D01*
X0226797Y0080249D01*
X0221679Y0084186D02*
X0178175Y0084186D01*
X0134671Y0084186D01*
X0139789Y0088123D02*
X0183293Y0088123D01*
X0226797Y0088123D01*
X0270301Y0088123D01*
X0265183Y0084186D02*
X0221679Y0084186D01*
X0217939Y0080249D02*
X0183293Y0080249D01*
X0180734Y0073950D02*
X0174435Y0080249D01*
X0139789Y0080249D01*
X0127801Y0080819D02*
X0127801Y0087552D01*
X0132112Y0091863D01*
X0139789Y0099540D01*
X0150025Y0099540D01*
X0152584Y0102099D01*
X0175616Y0102099D01*
X0183293Y0109776D01*
X0193529Y0109776D01*
X0197368Y0113615D01*
X0212306Y0113615D01*
X0212306Y0126410D02*
X0207604Y0126410D01*
X0206324Y0127690D01*
X0206324Y0137926D01*
X0207604Y0139205D01*
X0212306Y0139205D01*
X0216265Y0139205D01*
X0219120Y0142060D01*
X0219120Y0157414D01*
X0218923Y0157611D01*
X0175616Y0157611D01*
X0175616Y0142199D01*
X0172622Y0139205D01*
X0168802Y0139205D01*
X0164100Y0139205D01*
X0162820Y0137926D01*
X0162820Y0127690D01*
X0164100Y0126410D01*
X0168802Y0126410D01*
X0168802Y0128969D02*
X0180832Y0128969D01*
X0182899Y0131036D01*
X0182899Y0147769D01*
X0188411Y0153280D01*
X0193529Y0148162D02*
X0190106Y0144739D01*
X0190106Y0141765D01*
X0190106Y0139206D02*
X0197368Y0139206D01*
X0198647Y0140485D01*
X0198647Y0143044D01*
X0202486Y0136646D02*
X0206324Y0140485D01*
X0206324Y0143044D01*
X0206324Y0137926D02*
X0197368Y0128969D01*
X0190106Y0128969D01*
X0190106Y0131528D01*
X0190106Y0136646D02*
X0202486Y0136646D01*
X0212306Y0136646D02*
X0219021Y0136646D01*
X0219120Y0136745D01*
X0224238Y0141863D01*
X0224238Y0151902D01*
X0219120Y0157414D02*
X0232309Y0170603D01*
X0237033Y0170603D01*
X0244710Y0170603D01*
X0254946Y0161548D02*
X0254946Y0193300D01*
X0268430Y0206784D01*
X0296009Y0206784D01*
X0300891Y0201902D02*
X0306009Y0196784D01*
X0300891Y0201902D02*
X0270301Y0201902D01*
X0259277Y0190879D01*
X0262033Y0185009D02*
X0262033Y0153674D01*
X0272860Y0157611D02*
X0272860Y0164304D01*
X0280537Y0164304D01*
X0272860Y0164304D02*
X0267939Y0164304D01*
X0282702Y0149934D02*
X0282919Y0149954D01*
X0307612Y0149954D01*
X0309900Y0147666D01*
X0309900Y0080282D01*
X0294675Y0065056D01*
X0271517Y0065056D01*
X0262624Y0073950D01*
X0224238Y0073950D01*
X0217939Y0080249D01*
X0219120Y0073950D02*
X0221679Y0071391D01*
X0260065Y0071391D01*
X0268327Y0063129D01*
X0295307Y0063129D01*
X0311798Y0079620D01*
X0311798Y0148594D01*
X0306324Y0154068D01*
X0301009Y0158398D02*
X0303569Y0160957D01*
X0303569Y0173753D01*
X0308687Y0173753D01*
X0303569Y0173753D02*
X0296285Y0173753D01*
X0296009Y0196784D02*
X0273808Y0196784D01*
X0262033Y0185009D01*
X0244710Y0199343D02*
X0228915Y0215139D01*
X0208883Y0215139D01*
X0193529Y0215139D01*
X0178175Y0215139D01*
X0162820Y0215139D01*
X0162820Y0209139D02*
X0162820Y0204461D01*
X0165380Y0201902D01*
X0174149Y0201902D01*
X0176797Y0199254D01*
X0176797Y0191666D01*
X0171797Y0186666D01*
X0171757Y0186666D01*
X0166757Y0189501D02*
X0166757Y0178871D01*
X0168135Y0177493D01*
X0168135Y0169076D01*
X0168135Y0163076D02*
X0183883Y0163076D01*
X0208443Y0163076D01*
X0244710Y0199343D01*
X0208883Y0201902D02*
X0206915Y0199934D01*
X0206915Y0191863D01*
X0201757Y0186706D01*
X0201757Y0186666D01*
X0196876Y0191863D02*
X0196876Y0201115D01*
X0193529Y0204461D01*
X0193529Y0209139D01*
X0184433Y0201902D02*
X0180734Y0201902D01*
X0178175Y0204461D01*
X0178175Y0209139D01*
X0184433Y0201902D02*
X0186836Y0199500D01*
X0186836Y0193831D01*
X0181757Y0188753D01*
X0181757Y0186666D01*
X0186836Y0189698D02*
X0186836Y0179265D01*
X0183883Y0176312D01*
X0183883Y0169076D01*
X0175616Y0157611D02*
X0132112Y0157611D01*
X0132112Y0142067D01*
X0129251Y0139205D01*
X0125298Y0139205D01*
X0125200Y0139107D01*
X0120498Y0139107D01*
X0119317Y0137926D01*
X0119317Y0127690D01*
X0120596Y0126410D01*
X0125298Y0126410D01*
X0125298Y0128969D02*
X0137328Y0128969D01*
X0139395Y0131036D01*
X0139395Y0147769D01*
X0144907Y0153280D01*
X0150025Y0148162D02*
X0146602Y0144739D01*
X0146602Y0141765D01*
X0146602Y0139206D02*
X0153667Y0139206D01*
X0155143Y0140682D01*
X0155143Y0143044D01*
X0158982Y0136646D02*
X0146602Y0136646D01*
X0146602Y0131528D02*
X0146602Y0128969D01*
X0153864Y0128969D01*
X0162820Y0137926D01*
X0162820Y0140485D02*
X0162820Y0143044D01*
X0162820Y0140485D02*
X0158982Y0136646D01*
X0168802Y0136646D02*
X0175517Y0136646D01*
X0175616Y0136745D01*
X0172761Y0134087D02*
X0168802Y0134087D01*
X0172761Y0134087D02*
X0174041Y0132808D01*
X0179159Y0132808D01*
X0184572Y0121292D02*
X0190106Y0121292D01*
X0184572Y0121292D02*
X0179454Y0116174D01*
X0168802Y0116174D01*
X0146602Y0113615D02*
X0141069Y0113615D01*
X0113759Y0086306D01*
X0113759Y0071042D01*
X0129553Y0055249D01*
X0139198Y0054068D02*
X0119317Y0073950D01*
X0119317Y0086745D01*
X0132112Y0099540D01*
X0127801Y0080819D02*
X0154317Y0054304D01*
X0154317Y0050800D01*
X0180734Y0073950D02*
X0219120Y0073950D01*
X0203765Y0094422D02*
X0239592Y0094422D01*
X0247269Y0094422D02*
X0283096Y0094422D01*
X0299238Y0099540D02*
X0255734Y0099540D01*
X0212230Y0099540D01*
X0181521Y0099540D01*
X0196088Y0094422D02*
X0160261Y0094422D01*
X0119317Y0137926D02*
X0110360Y0128969D01*
X0103098Y0128969D01*
X0103098Y0131528D01*
X0103098Y0136646D02*
X0115478Y0136646D01*
X0119317Y0140485D01*
X0119317Y0143044D01*
X0111639Y0143044D02*
X0111639Y0140485D01*
X0110360Y0139206D01*
X0103098Y0139206D01*
X0103098Y0141765D02*
X0103098Y0144739D01*
X0106521Y0148162D01*
X0101403Y0153280D02*
X0095891Y0147769D01*
X0095891Y0131135D01*
X0093726Y0128969D01*
X0081794Y0128969D01*
X0081794Y0126410D02*
X0077486Y0126410D01*
X0075813Y0128083D01*
X0075813Y0137926D01*
X0066856Y0128969D01*
X0059594Y0128969D01*
X0059594Y0131528D01*
X0059594Y0136646D02*
X0071974Y0136646D01*
X0075813Y0140485D01*
X0075813Y0143044D01*
X0077092Y0139205D02*
X0075813Y0137926D01*
X0077092Y0139205D02*
X0081794Y0139205D01*
X0085747Y0139205D01*
X0088608Y0142067D01*
X0088608Y0157611D01*
X0046876Y0157611D01*
X0039986Y0150721D01*
X0039986Y0147572D01*
X0031718Y0147572D01*
X0027072Y0142926D01*
X0027072Y0131981D01*
X0039986Y0139304D02*
X0039986Y0147572D01*
X0047368Y0139206D02*
X0059594Y0139206D01*
X0059594Y0141765D02*
X0059594Y0144739D01*
X0063017Y0148162D01*
X0068135Y0163076D02*
X0052781Y0163076D01*
X0037427Y0163076D01*
X0022072Y0163076D01*
X0021631Y0163517D01*
X0016954Y0163517D01*
X0011836Y0168635D01*
X0011836Y0209537D01*
X0017437Y0215139D01*
X0029750Y0215139D01*
X0045104Y0215139D01*
X0060458Y0215139D01*
X0075813Y0215139D01*
X0075813Y0209139D02*
X0075813Y0204461D01*
X0073254Y0201902D01*
X0066954Y0201902D01*
X0061757Y0196706D01*
X0061757Y0196666D01*
X0060458Y0205249D02*
X0051876Y0196666D01*
X0051757Y0196666D01*
X0046876Y0199540D02*
X0045104Y0201312D01*
X0045104Y0209139D01*
X0046876Y0199540D02*
X0046876Y0191784D01*
X0041757Y0186666D01*
X0047663Y0181430D02*
X0029739Y0181430D01*
X0022072Y0173763D01*
X0022072Y0169076D01*
X0037427Y0169076D02*
X0037427Y0173738D01*
X0042560Y0178871D01*
X0063962Y0178871D01*
X0071757Y0186666D01*
X0081757Y0186666D02*
X0071403Y0176312D01*
X0055340Y0176312D01*
X0052781Y0173753D01*
X0052781Y0169076D01*
X0068135Y0169076D02*
X0074167Y0169076D01*
X0091757Y0186666D01*
X0086049Y0171194D02*
X0116757Y0171194D01*
X0123155Y0164796D01*
X0124435Y0163517D01*
X0124876Y0163076D01*
X0136639Y0163076D01*
X0153175Y0163076D01*
X0168135Y0163076D01*
X0153175Y0169076D02*
X0153175Y0172572D01*
X0146679Y0179068D01*
X0146679Y0188910D01*
X0141757Y0193831D01*
X0141757Y0196666D01*
X0136639Y0189107D02*
X0136639Y0169076D01*
X0132112Y0157611D02*
X0099435Y0157611D01*
X0099631Y0157808D01*
X0099631Y0164698D01*
X0099435Y0157611D02*
X0088608Y0157611D01*
X0077931Y0163076D02*
X0086049Y0171194D01*
X0077931Y0163076D02*
X0068135Y0163076D01*
X0047663Y0181430D02*
X0051757Y0185524D01*
X0051757Y0186666D01*
X0031757Y0186666D02*
X0026600Y0191824D01*
X0026600Y0199146D01*
X0029750Y0202296D01*
X0029750Y0209139D01*
X0060458Y0209139D02*
X0060458Y0205249D01*
X0131757Y0196666D02*
X0131757Y0193989D01*
X0136639Y0189107D01*
X0166757Y0189501D02*
X0171757Y0194501D01*
X0171757Y0196666D01*
X0186836Y0189698D02*
X0191757Y0194619D01*
X0191757Y0196666D01*
X0196876Y0191863D02*
X0191757Y0186745D01*
X0191757Y0186666D01*
X0208883Y0201902D02*
X0208883Y0209139D01*
X0234474Y0151902D02*
X0234474Y0137926D01*
X0225517Y0128969D01*
X0212306Y0128969D01*
X0216265Y0134087D02*
X0217545Y0132808D01*
X0222860Y0132808D01*
X0229356Y0139304D01*
X0229356Y0144422D01*
X0216265Y0134087D02*
X0212306Y0134087D01*
X0244710Y0127690D02*
X0270301Y0127690D01*
X0290773Y0107217D01*
X0298450Y0107217D02*
X0298450Y0117454D01*
X0283096Y0107217D02*
X0268923Y0121391D01*
X0244710Y0121391D01*
X0255537Y0138517D02*
X0262624Y0138517D01*
X0274041Y0138517D01*
X0274855Y0138490D01*
X0281101Y0138490D01*
X0270301Y0080249D02*
X0270301Y0076509D01*
X0277978Y0068831D01*
X0293332Y0068831D01*
X0270301Y0079068D02*
X0270301Y0080249D01*
X0135655Y0132808D02*
X0130537Y0132808D01*
X0129257Y0134087D01*
X0125298Y0134087D01*
X0125298Y0136646D02*
X0132013Y0136646D01*
X0132112Y0136745D01*
X0103098Y0118733D02*
X0097565Y0118733D01*
X0089493Y0110662D01*
X0089493Y0065387D01*
X0093726Y0061154D01*
X0078372Y0051081D02*
X0078372Y0045800D01*
X0083372Y0040800D01*
X0084317Y0040800D01*
X0081794Y0113615D02*
X0076619Y0113615D01*
X0059594Y0113615D02*
X0055242Y0113615D01*
X0081794Y0134087D02*
X0085754Y0134087D01*
X0087033Y0132808D01*
X0092151Y0132808D01*
X0088509Y0136646D02*
X0088608Y0136745D01*
X0088509Y0136646D02*
X0081794Y0136646D01*
D23*
X0136639Y0163076D02*
X0136639Y0163123D01*
X0168135Y0169076D02*
X0168529Y0170603D01*
X0027072Y0092060D02*
X0027072Y0091981D01*
M02*
