G75*
%MOIN*%
%OFA0B0*%
%FSLAX25Y25*%
%IPPOS*%
%LPD*%
%AMOC8*
5,1,8,0,0,1.08239X$1,22.5*
%
%ADD10OC8,0.06000*%
%ADD11OC8,0.05400*%
%ADD12C,0.05400*%
%ADD13R,0.05800X0.01100*%
%ADD14R,0.01100X0.05800*%
%ADD15R,0.03937X0.04331*%
%ADD16C,0.06000*%
%ADD17R,0.05800X0.01400*%
%ADD18C,0.01000*%
%ADD19C,0.04134*%
%ADD20C,0.01600*%
%ADD21C,0.05000*%
D10*
X0084317Y0040800D03*
X0094317Y0040800D03*
X0104317Y0040800D03*
X0114317Y0040800D03*
X0124317Y0040800D03*
X0134317Y0040800D03*
X0144317Y0040800D03*
X0154317Y0040800D03*
X0154317Y0050800D03*
X0144317Y0050800D03*
X0134317Y0050800D03*
X0124317Y0050800D03*
X0114317Y0050800D03*
X0104317Y0050800D03*
X0094317Y0050800D03*
X0084317Y0050800D03*
X0171324Y0050800D03*
X0181324Y0050800D03*
X0191324Y0050800D03*
X0201324Y0050800D03*
X0211324Y0050800D03*
X0221324Y0050800D03*
X0231324Y0050800D03*
X0241324Y0050800D03*
X0241324Y0040800D03*
X0231324Y0040800D03*
X0221324Y0040800D03*
X0211324Y0040800D03*
X0201324Y0040800D03*
X0191324Y0040800D03*
X0181324Y0040800D03*
X0171324Y0040800D03*
X0296009Y0186784D03*
X0296009Y0196784D03*
X0306009Y0196784D03*
X0306009Y0206784D03*
X0296009Y0206784D03*
D11*
X0211757Y0196666D03*
X0201757Y0196666D03*
X0191757Y0196666D03*
X0181757Y0196666D03*
X0171757Y0196666D03*
X0161757Y0196666D03*
X0151757Y0196666D03*
X0141757Y0196666D03*
X0131757Y0196666D03*
X0121757Y0196666D03*
X0111757Y0196666D03*
X0101757Y0196666D03*
X0091757Y0196666D03*
X0081757Y0196666D03*
X0071757Y0196666D03*
X0061757Y0196666D03*
X0051757Y0196666D03*
X0041757Y0196666D03*
X0031757Y0196666D03*
X0021757Y0196666D03*
X0031757Y0186666D03*
X0041757Y0186666D03*
X0051757Y0186666D03*
X0061757Y0186666D03*
X0071757Y0186666D03*
X0081757Y0186666D03*
X0091757Y0186666D03*
X0101757Y0186666D03*
X0111757Y0186666D03*
X0121757Y0186666D03*
X0131757Y0186666D03*
X0141757Y0186666D03*
X0151757Y0186666D03*
X0161757Y0186666D03*
X0171757Y0186666D03*
X0181757Y0186666D03*
X0191757Y0186666D03*
X0201757Y0186666D03*
X0211757Y0186666D03*
X0027072Y0131981D03*
X0017072Y0131981D03*
X0017072Y0121981D03*
X0027072Y0121981D03*
X0027072Y0111981D03*
X0017072Y0111981D03*
X0017072Y0101981D03*
X0027072Y0101981D03*
X0027072Y0091981D03*
X0017072Y0091981D03*
X0017072Y0081981D03*
X0027072Y0081981D03*
X0027072Y0071981D03*
X0017072Y0071981D03*
X0017072Y0061981D03*
X0027072Y0061981D03*
D12*
X0021757Y0186666D03*
D13*
X0247801Y0165521D03*
X0247801Y0163521D03*
X0247801Y0161521D03*
X0247801Y0159621D03*
X0247801Y0157621D03*
X0247801Y0155621D03*
X0247801Y0153721D03*
X0247801Y0151721D03*
X0247801Y0149721D03*
X0247801Y0147721D03*
X0247801Y0145821D03*
X0247801Y0143821D03*
X0247801Y0141821D03*
X0247801Y0139921D03*
X0247801Y0137921D03*
X0247801Y0135921D03*
X0292801Y0135921D03*
X0292801Y0137921D03*
X0292801Y0139921D03*
X0292801Y0141821D03*
X0292801Y0143821D03*
X0292801Y0145821D03*
X0292801Y0147721D03*
X0292801Y0149721D03*
X0292801Y0151721D03*
X0292801Y0153721D03*
X0292801Y0155621D03*
X0292801Y0157621D03*
X0292801Y0159621D03*
X0292801Y0161521D03*
X0292801Y0163521D03*
X0292801Y0165521D03*
D14*
X0285101Y0173221D03*
X0283101Y0173221D03*
X0281101Y0173221D03*
X0279201Y0173221D03*
X0277201Y0173221D03*
X0275201Y0173221D03*
X0273301Y0173221D03*
X0271301Y0173221D03*
X0269301Y0173221D03*
X0267301Y0173221D03*
X0265401Y0173221D03*
X0263401Y0173221D03*
X0261401Y0173221D03*
X0259501Y0173221D03*
X0257501Y0173221D03*
X0255501Y0173221D03*
X0255501Y0128221D03*
X0257501Y0128221D03*
X0259501Y0128221D03*
X0261401Y0128221D03*
X0263401Y0128221D03*
X0265401Y0128221D03*
X0267301Y0128221D03*
X0269301Y0128221D03*
X0271301Y0128221D03*
X0273301Y0128221D03*
X0275201Y0128221D03*
X0277201Y0128221D03*
X0279201Y0128221D03*
X0281101Y0128221D03*
X0283101Y0128221D03*
X0285101Y0128221D03*
D15*
X0308490Y0132611D03*
X0308490Y0139304D03*
X0308490Y0165485D03*
X0308490Y0172178D03*
X0226797Y0102887D03*
X0226797Y0096194D03*
D16*
X0306009Y0186784D03*
D17*
X0299314Y0093143D03*
X0299314Y0090583D03*
X0299314Y0088024D03*
X0299314Y0085465D03*
X0299314Y0082906D03*
X0299314Y0080347D03*
X0299314Y0077788D03*
X0299314Y0075229D03*
X0299314Y0072670D03*
X0299314Y0070111D03*
X0299314Y0067552D03*
X0299314Y0064993D03*
X0277114Y0064993D03*
X0277114Y0067552D03*
X0277114Y0070111D03*
X0277114Y0072670D03*
X0277114Y0075229D03*
X0277114Y0077788D03*
X0277114Y0080347D03*
X0277114Y0082906D03*
X0277114Y0085465D03*
X0277114Y0088024D03*
X0277114Y0090583D03*
X0277114Y0093143D03*
X0255810Y0093143D03*
X0255810Y0090583D03*
X0255810Y0088024D03*
X0255810Y0085465D03*
X0255810Y0082906D03*
X0255810Y0080347D03*
X0255810Y0077788D03*
X0255810Y0075229D03*
X0255810Y0072670D03*
X0255810Y0070111D03*
X0255810Y0067552D03*
X0255810Y0064993D03*
X0233610Y0064993D03*
X0233610Y0067552D03*
X0233610Y0070111D03*
X0233610Y0072670D03*
X0233610Y0075229D03*
X0233610Y0077788D03*
X0233610Y0080347D03*
X0233610Y0082906D03*
X0233610Y0085465D03*
X0233610Y0088024D03*
X0233610Y0090583D03*
X0233610Y0093143D03*
X0212306Y0093143D03*
X0212306Y0090583D03*
X0212306Y0088024D03*
X0212306Y0085465D03*
X0212306Y0082906D03*
X0212306Y0080347D03*
X0212306Y0077788D03*
X0212306Y0075229D03*
X0212306Y0072670D03*
X0212306Y0070111D03*
X0212306Y0067552D03*
X0212306Y0064993D03*
X0190106Y0064993D03*
X0190106Y0067552D03*
X0190106Y0070111D03*
X0190106Y0072670D03*
X0190106Y0075229D03*
X0190106Y0077788D03*
X0190106Y0080347D03*
X0190106Y0082906D03*
X0190106Y0085465D03*
X0190106Y0088024D03*
X0190106Y0090583D03*
X0190106Y0093143D03*
X0168802Y0093143D03*
X0168802Y0090583D03*
X0168802Y0088024D03*
X0168802Y0085465D03*
X0168802Y0082906D03*
X0168802Y0080347D03*
X0168802Y0077788D03*
X0168802Y0075229D03*
X0168802Y0072670D03*
X0168802Y0070111D03*
X0168802Y0067552D03*
X0168802Y0064993D03*
X0146602Y0064993D03*
X0146602Y0067552D03*
X0146602Y0070111D03*
X0146602Y0072670D03*
X0146602Y0075229D03*
X0146602Y0077788D03*
X0146602Y0080347D03*
X0146602Y0082906D03*
X0146602Y0085465D03*
X0146602Y0088024D03*
X0146602Y0090583D03*
X0146602Y0093143D03*
D18*
X0006630Y0030355D02*
X0006822Y0221876D01*
X0316651Y0222070D01*
X0316651Y0030355D01*
X0006630Y0030355D01*
X0006631Y0030882D02*
X0316651Y0030882D01*
X0316651Y0031881D02*
X0006632Y0031881D01*
X0006633Y0032879D02*
X0316651Y0032879D01*
X0316651Y0033878D02*
X0006634Y0033878D01*
X0006635Y0034876D02*
X0316651Y0034876D01*
X0316651Y0035875D02*
X0006636Y0035875D01*
X0006637Y0036873D02*
X0082019Y0036873D01*
X0082493Y0036398D02*
X0086140Y0036398D01*
X0088718Y0038977D01*
X0088718Y0042623D01*
X0086140Y0045202D01*
X0082493Y0045202D01*
X0079915Y0042623D01*
X0079915Y0038977D01*
X0082493Y0036398D01*
X0081020Y0037872D02*
X0006638Y0037872D01*
X0006639Y0038870D02*
X0080022Y0038870D01*
X0079915Y0039869D02*
X0006640Y0039869D01*
X0006641Y0040867D02*
X0079915Y0040867D01*
X0079915Y0041866D02*
X0006642Y0041866D01*
X0006643Y0042864D02*
X0080156Y0042864D01*
X0081155Y0043863D02*
X0006644Y0043863D01*
X0006645Y0044861D02*
X0082153Y0044861D01*
X0082493Y0046398D02*
X0086140Y0046398D01*
X0088718Y0048977D01*
X0088718Y0052623D01*
X0086140Y0055202D01*
X0082493Y0055202D01*
X0079915Y0052623D01*
X0079915Y0048977D01*
X0082493Y0046398D01*
X0082033Y0046858D02*
X0006647Y0046858D01*
X0006646Y0045860D02*
X0174246Y0045860D01*
X0174694Y0046308D02*
X0173368Y0044981D01*
X0173148Y0045202D01*
X0169501Y0045202D01*
X0166923Y0042623D01*
X0166923Y0038977D01*
X0169501Y0036398D01*
X0173148Y0036398D01*
X0175726Y0038977D01*
X0175726Y0042623D01*
X0175506Y0042843D01*
X0176832Y0044170D01*
X0176833Y0044170D01*
X0177718Y0045056D01*
X0177718Y0048182D01*
X0179501Y0046398D01*
X0183148Y0046398D01*
X0184734Y0047985D01*
X0184734Y0046347D01*
X0183368Y0044981D01*
X0183148Y0045202D01*
X0179501Y0045202D01*
X0176923Y0042623D01*
X0176923Y0038977D01*
X0179501Y0036398D01*
X0183148Y0036398D01*
X0185726Y0038977D01*
X0185726Y0042623D01*
X0185506Y0042843D01*
X0187757Y0045095D01*
X0187757Y0048142D01*
X0189501Y0046398D01*
X0193148Y0046398D01*
X0194773Y0048024D01*
X0194773Y0046623D01*
X0193250Y0045099D01*
X0193148Y0045202D01*
X0189501Y0045202D01*
X0186923Y0042623D01*
X0186923Y0038977D01*
X0189501Y0036398D01*
X0193148Y0036398D01*
X0195726Y0038977D01*
X0195726Y0042623D01*
X0195388Y0042961D01*
X0196911Y0044485D01*
X0197797Y0045371D01*
X0197797Y0048103D01*
X0199501Y0046398D01*
X0203148Y0046398D01*
X0204813Y0048063D01*
X0204813Y0046426D01*
X0203368Y0044981D01*
X0203148Y0045202D01*
X0199501Y0045202D01*
X0196923Y0042623D01*
X0196923Y0038977D01*
X0199501Y0036398D01*
X0203148Y0036398D01*
X0205726Y0038977D01*
X0205726Y0042623D01*
X0205506Y0042843D01*
X0207836Y0045174D01*
X0207836Y0048063D01*
X0209501Y0046398D01*
X0213148Y0046398D01*
X0215049Y0048300D01*
X0215049Y0046662D01*
X0213368Y0044981D01*
X0213148Y0045202D01*
X0209501Y0045202D01*
X0206923Y0042623D01*
X0206923Y0038977D01*
X0209501Y0036398D01*
X0213148Y0036398D01*
X0215726Y0038977D01*
X0215726Y0042623D01*
X0215506Y0042843D01*
X0218072Y0045410D01*
X0218072Y0047827D01*
X0219501Y0046398D01*
X0223148Y0046398D01*
X0224694Y0047945D01*
X0224694Y0046033D01*
X0223506Y0044844D01*
X0223148Y0045202D01*
X0219501Y0045202D01*
X0216923Y0042623D01*
X0216923Y0038977D01*
X0219501Y0036398D01*
X0223148Y0036398D01*
X0225726Y0038977D01*
X0225726Y0042623D01*
X0225644Y0042706D01*
X0226833Y0043894D01*
X0227718Y0044780D01*
X0227718Y0048182D01*
X0229501Y0046398D01*
X0233148Y0046398D01*
X0234537Y0047788D01*
X0234537Y0046229D01*
X0233328Y0045021D01*
X0233148Y0045202D01*
X0229501Y0045202D01*
X0226923Y0042623D01*
X0226923Y0038977D01*
X0229501Y0036398D01*
X0233148Y0036398D01*
X0235726Y0038977D01*
X0235726Y0042623D01*
X0235466Y0042883D01*
X0236675Y0044091D01*
X0237561Y0044977D01*
X0237561Y0048339D01*
X0239501Y0046398D01*
X0243148Y0046398D01*
X0245726Y0048977D01*
X0245726Y0052623D01*
X0245565Y0052784D01*
X0247699Y0054918D01*
X0251887Y0054918D01*
X0242171Y0045202D01*
X0239501Y0045202D01*
X0236923Y0042623D01*
X0236923Y0038977D01*
X0239501Y0036398D01*
X0243148Y0036398D01*
X0245726Y0038977D01*
X0245726Y0042623D01*
X0244797Y0043552D01*
X0254588Y0053343D01*
X0279588Y0053343D01*
X0280474Y0054229D01*
X0285888Y0059643D01*
X0304642Y0059643D01*
X0305528Y0060528D01*
X0307123Y0062124D01*
X0307123Y0068047D01*
X0306238Y0068933D01*
X0303616Y0071555D01*
X0303616Y0073951D01*
X0303613Y0073954D01*
X0303714Y0074332D01*
X0303714Y0075229D01*
X0299314Y0075229D01*
X0294914Y0075229D01*
X0294914Y0074332D01*
X0294954Y0074182D01*
X0293901Y0074182D01*
X0293714Y0074635D01*
X0292738Y0075611D01*
X0291463Y0076139D01*
X0290083Y0076139D01*
X0288808Y0075611D01*
X0287833Y0074635D01*
X0287645Y0074182D01*
X0287561Y0074182D01*
X0286308Y0074182D01*
X0281514Y0069388D01*
X0281514Y0070111D01*
X0277114Y0070111D01*
X0272714Y0070111D01*
X0272714Y0069214D01*
X0272754Y0069064D01*
X0267088Y0069064D01*
X0261970Y0074182D01*
X0260718Y0074182D01*
X0260170Y0074182D01*
X0260210Y0074332D01*
X0260210Y0075229D01*
X0255810Y0075229D01*
X0251410Y0075229D01*
X0251410Y0074332D01*
X0251450Y0074182D01*
X0242805Y0074182D01*
X0238010Y0069388D01*
X0238010Y0070111D01*
X0238010Y0071009D01*
X0237909Y0071387D01*
X0237912Y0071390D01*
X0237912Y0076276D01*
X0238939Y0076276D01*
X0240218Y0077556D01*
X0241104Y0078441D01*
X0241104Y0085654D01*
X0247037Y0079721D01*
X0247923Y0078835D01*
X0251509Y0078835D01*
X0251509Y0076508D01*
X0251512Y0076505D01*
X0251410Y0076127D01*
X0251410Y0075229D01*
X0255810Y0075229D01*
X0255810Y0075229D01*
X0255810Y0075229D01*
X0260210Y0075229D01*
X0260210Y0076127D01*
X0260109Y0076505D01*
X0260112Y0076508D01*
X0260112Y0078835D01*
X0263277Y0078835D01*
X0266230Y0075882D01*
X0267116Y0074997D01*
X0272699Y0074997D01*
X0272813Y0075111D01*
X0272813Y0071390D01*
X0272816Y0071387D01*
X0272714Y0071009D01*
X0272714Y0070111D01*
X0277114Y0070111D01*
X0277114Y0070111D01*
X0281514Y0070111D01*
X0281514Y0071009D01*
X0281413Y0071387D01*
X0281416Y0071390D01*
X0281416Y0076276D01*
X0282443Y0076276D01*
X0283722Y0077556D01*
X0284608Y0078441D01*
X0284608Y0085654D01*
X0291427Y0078835D01*
X0295013Y0078835D01*
X0295013Y0076508D01*
X0295016Y0076505D01*
X0294914Y0076127D01*
X0294914Y0075229D01*
X0299314Y0075229D01*
X0299314Y0075229D01*
X0299314Y0075229D01*
X0303714Y0075229D01*
X0303714Y0076127D01*
X0303613Y0076505D01*
X0303616Y0076508D01*
X0303616Y0081395D01*
X0305474Y0081395D01*
X0313340Y0089260D01*
X0314226Y0090146D01*
X0314226Y0116611D01*
X0313340Y0117497D01*
X0302480Y0128358D01*
X0302480Y0139830D01*
X0303631Y0138678D01*
X0304517Y0137792D01*
X0305120Y0137792D01*
X0305120Y0136558D01*
X0305664Y0136014D01*
X0305600Y0135977D01*
X0305321Y0135697D01*
X0305123Y0135355D01*
X0305021Y0134974D01*
X0305021Y0133095D01*
X0308005Y0133095D01*
X0308005Y0132127D01*
X0305021Y0132127D01*
X0305021Y0130248D01*
X0305123Y0129867D01*
X0305321Y0129525D01*
X0305600Y0129245D01*
X0305942Y0129048D01*
X0306324Y0128946D01*
X0308005Y0128946D01*
X0308005Y0132127D01*
X0308974Y0132127D01*
X0308974Y0133095D01*
X0311958Y0133095D01*
X0311958Y0134974D01*
X0311856Y0135355D01*
X0311659Y0135697D01*
X0311379Y0135977D01*
X0311315Y0136014D01*
X0311860Y0136558D01*
X0311860Y0142050D01*
X0311039Y0142871D01*
X0310651Y0142871D01*
X0312757Y0144977D01*
X0312757Y0155678D01*
X0310002Y0158434D01*
X0310002Y0161918D01*
X0311039Y0161918D01*
X0311860Y0162739D01*
X0311860Y0168231D01*
X0311315Y0168775D01*
X0311379Y0168812D01*
X0311659Y0169092D01*
X0311856Y0169434D01*
X0311958Y0169815D01*
X0311958Y0171694D01*
X0308974Y0171694D01*
X0308974Y0172662D01*
X0311958Y0172662D01*
X0311958Y0174541D01*
X0311856Y0174922D01*
X0311659Y0175264D01*
X0311379Y0175544D01*
X0311037Y0175741D01*
X0310656Y0175843D01*
X0308974Y0175843D01*
X0308974Y0172662D01*
X0308005Y0172662D01*
X0308005Y0171694D01*
X0305021Y0171694D01*
X0305021Y0169815D01*
X0305123Y0169434D01*
X0305321Y0169092D01*
X0305600Y0168812D01*
X0305664Y0168775D01*
X0305120Y0168231D01*
X0305120Y0167033D01*
X0302521Y0167033D01*
X0302521Y0173127D01*
X0307521Y0178127D01*
X0307521Y0182646D01*
X0308503Y0183053D01*
X0309741Y0184291D01*
X0310411Y0185909D01*
X0310411Y0187660D01*
X0309741Y0189278D01*
X0308503Y0190516D01*
X0306885Y0191186D01*
X0305134Y0191186D01*
X0303516Y0190516D01*
X0302278Y0189278D01*
X0301608Y0187660D01*
X0301608Y0185909D01*
X0302278Y0184291D01*
X0303516Y0183053D01*
X0304498Y0182646D01*
X0304498Y0179379D01*
X0300383Y0175265D01*
X0299498Y0174379D01*
X0299498Y0167033D01*
X0296721Y0167033D01*
X0296281Y0167473D01*
X0289320Y0167473D01*
X0288880Y0167033D01*
X0286613Y0167033D01*
X0286613Y0169301D01*
X0287052Y0169741D01*
X0287052Y0176702D01*
X0286231Y0177523D01*
X0284216Y0177523D01*
X0283848Y0177621D01*
X0283101Y0177621D01*
X0283101Y0173221D01*
X0283101Y0168821D01*
X0283589Y0168821D01*
X0283589Y0167033D01*
X0251721Y0167033D01*
X0251281Y0167473D01*
X0244320Y0167473D01*
X0243880Y0167033D01*
X0242741Y0167033D01*
X0240314Y0169460D01*
X0240502Y0169913D01*
X0240502Y0171293D01*
X0239974Y0172568D01*
X0238998Y0173544D01*
X0237723Y0174072D01*
X0236343Y0174072D01*
X0235068Y0173544D01*
X0234093Y0172568D01*
X0233565Y0171293D01*
X0233565Y0169913D01*
X0234093Y0168638D01*
X0235068Y0167663D01*
X0236343Y0167135D01*
X0237723Y0167135D01*
X0238176Y0167322D01*
X0241489Y0164009D01*
X0243401Y0164009D01*
X0243401Y0163521D01*
X0243401Y0162774D01*
X0243499Y0162406D01*
X0243499Y0156937D01*
X0237009Y0163428D01*
X0109412Y0163428D01*
X0108527Y0162542D01*
X0102546Y0156561D01*
X0102093Y0156749D01*
X0100713Y0156749D01*
X0099438Y0156221D01*
X0098463Y0155245D01*
X0097935Y0153970D01*
X0097935Y0152590D01*
X0098463Y0151316D01*
X0099438Y0150340D01*
X0100713Y0149812D01*
X0102093Y0149812D01*
X0103368Y0150340D01*
X0104344Y0151316D01*
X0104872Y0152590D01*
X0104872Y0153970D01*
X0104684Y0154423D01*
X0110665Y0160404D01*
X0149893Y0160404D01*
X0146050Y0156561D01*
X0145597Y0156749D01*
X0144217Y0156749D01*
X0142942Y0156221D01*
X0141967Y0155245D01*
X0141439Y0153970D01*
X0141439Y0152590D01*
X0141967Y0151316D01*
X0142942Y0150340D01*
X0144217Y0149812D01*
X0145597Y0149812D01*
X0146872Y0150340D01*
X0147848Y0151316D01*
X0148376Y0152590D01*
X0148376Y0153970D01*
X0148188Y0154423D01*
X0152115Y0158350D01*
X0191343Y0158350D01*
X0189554Y0156561D01*
X0189101Y0156749D01*
X0187721Y0156749D01*
X0186446Y0156221D01*
X0185471Y0155245D01*
X0184943Y0153970D01*
X0184943Y0152590D01*
X0185471Y0151316D01*
X0186446Y0150340D01*
X0187721Y0149812D01*
X0189101Y0149812D01*
X0190376Y0150340D01*
X0191351Y0151316D01*
X0191880Y0152590D01*
X0191880Y0153970D01*
X0191692Y0154423D01*
X0193578Y0156309D01*
X0234198Y0156309D01*
X0235137Y0155371D01*
X0233784Y0155371D01*
X0232509Y0154843D01*
X0231534Y0153867D01*
X0231006Y0152592D01*
X0231006Y0151212D01*
X0231007Y0151208D01*
X0229687Y0152529D01*
X0228801Y0153414D01*
X0227366Y0153414D01*
X0227178Y0153867D01*
X0226203Y0154843D01*
X0224928Y0155371D01*
X0223548Y0155371D01*
X0222273Y0154843D01*
X0221297Y0153867D01*
X0220769Y0152592D01*
X0220769Y0151212D01*
X0221297Y0149938D01*
X0222273Y0148962D01*
X0223548Y0148434D01*
X0224928Y0148434D01*
X0226203Y0148962D01*
X0227178Y0149938D01*
X0227366Y0150391D01*
X0227549Y0150391D01*
X0230051Y0147889D01*
X0230046Y0147891D01*
X0228666Y0147891D01*
X0227391Y0147362D01*
X0226415Y0146387D01*
X0225887Y0145112D01*
X0225887Y0143732D01*
X0226029Y0143391D01*
X0220631Y0148788D01*
X0219746Y0149674D01*
X0196657Y0149674D01*
X0196470Y0150127D01*
X0195494Y0151103D01*
X0194219Y0151631D01*
X0192839Y0151631D01*
X0191564Y0151103D01*
X0190589Y0150127D01*
X0190401Y0149674D01*
X0153153Y0149674D01*
X0152966Y0150127D01*
X0151990Y0151103D01*
X0150715Y0151631D01*
X0149335Y0151631D01*
X0148060Y0151103D01*
X0147085Y0150127D01*
X0146897Y0149674D01*
X0109649Y0149674D01*
X0109462Y0150127D01*
X0108486Y0151103D01*
X0107211Y0151631D01*
X0105831Y0151631D01*
X0104557Y0151103D01*
X0103581Y0150127D01*
X0103393Y0149674D01*
X0066145Y0149674D01*
X0065958Y0150127D01*
X0064982Y0151103D01*
X0063707Y0151631D01*
X0062327Y0151631D01*
X0061053Y0151103D01*
X0060077Y0150127D01*
X0059549Y0148852D01*
X0059549Y0147472D01*
X0060077Y0146197D01*
X0061053Y0145222D01*
X0062327Y0144694D01*
X0063707Y0144694D01*
X0064982Y0145222D01*
X0065958Y0146197D01*
X0066145Y0146650D01*
X0103393Y0146650D01*
X0103581Y0146197D01*
X0104557Y0145222D01*
X0105831Y0144694D01*
X0107211Y0144694D01*
X0108486Y0145222D01*
X0109462Y0146197D01*
X0109649Y0146650D01*
X0146897Y0146650D01*
X0147085Y0146197D01*
X0148060Y0145222D01*
X0149335Y0144694D01*
X0150715Y0144694D01*
X0151990Y0145222D01*
X0152966Y0146197D01*
X0153153Y0146650D01*
X0190401Y0146650D01*
X0190589Y0146197D01*
X0191564Y0145222D01*
X0192839Y0144694D01*
X0194219Y0144694D01*
X0195494Y0145222D01*
X0196470Y0146197D01*
X0196657Y0146650D01*
X0218493Y0146650D01*
X0220588Y0144556D01*
X0209452Y0144556D01*
X0209265Y0145009D01*
X0208289Y0145985D01*
X0207014Y0146513D01*
X0205634Y0146513D01*
X0204360Y0145985D01*
X0203384Y0145009D01*
X0202856Y0143734D01*
X0202856Y0142354D01*
X0203384Y0141079D01*
X0204360Y0140104D01*
X0205634Y0139576D01*
X0207014Y0139576D01*
X0208289Y0140104D01*
X0209265Y0141079D01*
X0209452Y0141532D01*
X0219675Y0141532D01*
X0225285Y0135922D01*
X0225285Y0135288D01*
X0224825Y0135748D01*
X0223550Y0136276D01*
X0222588Y0136276D01*
X0222588Y0137435D01*
X0222060Y0138710D01*
X0221084Y0139685D01*
X0219810Y0140213D01*
X0218430Y0140213D01*
X0217155Y0139685D01*
X0216179Y0138710D01*
X0215992Y0138257D01*
X0178744Y0138257D01*
X0178556Y0138710D01*
X0177580Y0139685D01*
X0176306Y0140213D01*
X0174926Y0140213D01*
X0173651Y0139685D01*
X0172675Y0138710D01*
X0172488Y0138257D01*
X0135240Y0138257D01*
X0135052Y0138710D01*
X0134077Y0139685D01*
X0132802Y0140213D01*
X0131422Y0140213D01*
X0130147Y0139685D01*
X0129171Y0138710D01*
X0128984Y0138257D01*
X0091736Y0138257D01*
X0091548Y0138710D01*
X0090573Y0139685D01*
X0089298Y0140213D01*
X0087918Y0140213D01*
X0086643Y0139685D01*
X0085667Y0138710D01*
X0085139Y0137435D01*
X0085139Y0136055D01*
X0085667Y0134780D01*
X0086643Y0133804D01*
X0087918Y0133276D01*
X0088683Y0133276D01*
X0088683Y0132118D01*
X0089211Y0130843D01*
X0090186Y0129867D01*
X0091461Y0129339D01*
X0092841Y0129339D01*
X0094116Y0129867D01*
X0095092Y0130843D01*
X0095279Y0131296D01*
X0132527Y0131296D01*
X0132715Y0130843D01*
X0133690Y0129867D01*
X0134965Y0129339D01*
X0136345Y0129339D01*
X0137620Y0129867D01*
X0138596Y0130843D01*
X0138783Y0131296D01*
X0176031Y0131296D01*
X0176219Y0130843D01*
X0177194Y0129867D01*
X0178469Y0129339D01*
X0179849Y0129339D01*
X0181124Y0129867D01*
X0182099Y0130843D01*
X0182287Y0131296D01*
X0219732Y0131296D01*
X0219919Y0130843D01*
X0220895Y0129867D01*
X0222170Y0129339D01*
X0223550Y0129339D01*
X0224825Y0129867D01*
X0225285Y0130328D01*
X0225285Y0127132D01*
X0226171Y0126246D01*
X0240412Y0112005D01*
X0299816Y0112005D01*
X0303092Y0108729D01*
X0301578Y0108729D01*
X0301391Y0109182D01*
X0300415Y0110158D01*
X0299140Y0110686D01*
X0297760Y0110686D01*
X0296486Y0110158D01*
X0295510Y0109182D01*
X0294982Y0107907D01*
X0294982Y0106527D01*
X0295510Y0105253D01*
X0296486Y0104277D01*
X0297760Y0103749D01*
X0299140Y0103749D01*
X0300415Y0104277D01*
X0301391Y0105253D01*
X0301578Y0105706D01*
X0302942Y0105706D01*
X0304616Y0104032D01*
X0304616Y0095048D01*
X0304222Y0094654D01*
X0303384Y0094654D01*
X0302795Y0095244D01*
X0300826Y0095244D01*
X0300826Y0096444D01*
X0301203Y0096600D01*
X0302178Y0097575D01*
X0302706Y0098850D01*
X0302706Y0100230D01*
X0302178Y0101505D01*
X0301203Y0102481D01*
X0299928Y0103009D01*
X0298548Y0103009D01*
X0297273Y0102481D01*
X0296297Y0101505D01*
X0295769Y0100230D01*
X0295769Y0098850D01*
X0296297Y0097575D01*
X0297273Y0096600D01*
X0297802Y0096380D01*
X0297802Y0095244D01*
X0295834Y0095244D01*
X0295013Y0094423D01*
X0295013Y0089536D01*
X0287561Y0089536D01*
X0285338Y0091759D01*
X0286037Y0092457D01*
X0286565Y0093732D01*
X0286565Y0095112D01*
X0286037Y0096387D01*
X0285061Y0097362D01*
X0283786Y0097891D01*
X0282406Y0097891D01*
X0281131Y0097362D01*
X0280156Y0096387D01*
X0279723Y0095343D01*
X0277114Y0095342D01*
X0277114Y0095343D02*
X0274017Y0095343D01*
X0273635Y0095240D01*
X0273293Y0095043D01*
X0273014Y0094764D01*
X0272816Y0094421D01*
X0272714Y0094040D01*
X0272714Y0093143D01*
X0277114Y0093143D01*
X0277114Y0095343D01*
X0277114Y0095342D02*
X0277114Y0093143D01*
X0277114Y0093143D01*
X0277114Y0093142D01*
X0272714Y0093142D01*
X0272714Y0092245D01*
X0272816Y0091867D01*
X0272813Y0091864D01*
X0272813Y0090516D01*
X0272266Y0091063D01*
X0271813Y0091251D01*
X0271813Y0095174D01*
X0277226Y0100587D01*
X0288840Y0100587D01*
X0291399Y0103146D01*
X0292285Y0104032D01*
X0292285Y0104089D01*
X0292738Y0104277D01*
X0293714Y0105253D01*
X0294242Y0106527D01*
X0294242Y0107907D01*
X0293714Y0109182D01*
X0292738Y0110158D01*
X0291463Y0110686D01*
X0290083Y0110686D01*
X0288808Y0110158D01*
X0287833Y0109182D01*
X0287305Y0107907D01*
X0287305Y0106527D01*
X0287833Y0105253D01*
X0288531Y0104554D01*
X0287588Y0103611D01*
X0276510Y0103611D01*
X0278604Y0105706D01*
X0279968Y0105706D01*
X0280156Y0105253D01*
X0281131Y0104277D01*
X0282406Y0103749D01*
X0283786Y0103749D01*
X0285061Y0104277D01*
X0286037Y0105253D01*
X0286565Y0106527D01*
X0286565Y0107907D01*
X0286037Y0109182D01*
X0285061Y0110158D01*
X0283786Y0110686D01*
X0282406Y0110686D01*
X0281131Y0110158D01*
X0280156Y0109182D01*
X0279968Y0108729D01*
X0277352Y0108729D01*
X0264556Y0095934D01*
X0263671Y0095048D01*
X0263671Y0087314D01*
X0263218Y0087126D01*
X0262242Y0086151D01*
X0261714Y0084876D01*
X0261714Y0083496D01*
X0262242Y0082221D01*
X0262604Y0081859D01*
X0260112Y0081859D01*
X0260112Y0084187D01*
X0260109Y0084190D01*
X0260210Y0084568D01*
X0260210Y0085465D01*
X0255810Y0085465D01*
X0251410Y0085465D01*
X0251410Y0084568D01*
X0251512Y0084190D01*
X0251509Y0084187D01*
X0251509Y0081859D01*
X0249175Y0081859D01*
X0244521Y0086513D01*
X0251450Y0086513D01*
X0251410Y0086363D01*
X0251410Y0085465D01*
X0255810Y0085465D01*
X0255810Y0085465D01*
X0255810Y0085465D01*
X0260210Y0085465D01*
X0260210Y0086363D01*
X0260109Y0086741D01*
X0260112Y0086744D01*
X0260112Y0094423D01*
X0259291Y0095244D01*
X0257322Y0095244D01*
X0257322Y0096444D01*
X0257699Y0096600D01*
X0258674Y0097575D01*
X0259202Y0098850D01*
X0259202Y0100230D01*
X0258674Y0101505D01*
X0257699Y0102481D01*
X0256424Y0103009D01*
X0255044Y0103009D01*
X0253769Y0102481D01*
X0252793Y0101505D01*
X0252265Y0100230D01*
X0252265Y0098850D01*
X0252793Y0097575D01*
X0253769Y0096600D01*
X0254298Y0096380D01*
X0254298Y0095244D01*
X0252330Y0095244D01*
X0251509Y0094423D01*
X0251509Y0092095D01*
X0249848Y0092095D01*
X0250210Y0092457D01*
X0250738Y0093732D01*
X0250738Y0095112D01*
X0250210Y0096387D01*
X0249234Y0097362D01*
X0247959Y0097891D01*
X0246579Y0097891D01*
X0245305Y0097362D01*
X0244329Y0096387D01*
X0243801Y0095112D01*
X0243801Y0093732D01*
X0244329Y0092457D01*
X0245305Y0091482D01*
X0245757Y0091294D01*
X0245757Y0091237D01*
X0247458Y0089536D01*
X0244057Y0089536D01*
X0241834Y0091759D01*
X0242533Y0092457D01*
X0243061Y0093732D01*
X0243061Y0095112D01*
X0242533Y0096387D01*
X0241557Y0097362D01*
X0240282Y0097891D01*
X0238902Y0097891D01*
X0237627Y0097362D01*
X0236652Y0096387D01*
X0236219Y0095342D01*
X0233610Y0095342D01*
X0233610Y0095343D02*
X0230513Y0095343D01*
X0230167Y0095250D01*
X0230167Y0098940D01*
X0229622Y0099484D01*
X0229686Y0099521D01*
X0229966Y0099800D01*
X0230163Y0100142D01*
X0230265Y0100524D01*
X0230265Y0102402D01*
X0227281Y0102402D01*
X0227281Y0103371D01*
X0226313Y0103371D01*
X0226313Y0106552D01*
X0224631Y0106552D01*
X0224249Y0106450D01*
X0223907Y0106252D01*
X0223628Y0105973D01*
X0223431Y0105631D01*
X0223328Y0105249D01*
X0223328Y0103371D01*
X0226313Y0103371D01*
X0226313Y0102402D01*
X0223328Y0102402D01*
X0223328Y0100524D01*
X0223431Y0100142D01*
X0223628Y0099800D01*
X0223907Y0099521D01*
X0223971Y0099484D01*
X0223427Y0098940D01*
X0223427Y0093448D01*
X0224248Y0092627D01*
X0225285Y0092627D01*
X0225285Y0092615D01*
X0226171Y0091729D01*
X0226308Y0091591D01*
X0226107Y0091591D01*
X0224832Y0091063D01*
X0223856Y0090088D01*
X0223328Y0088813D01*
X0223328Y0087433D01*
X0223416Y0087220D01*
X0222369Y0087654D01*
X0220989Y0087654D01*
X0219714Y0087126D01*
X0218738Y0086151D01*
X0218210Y0084876D01*
X0218210Y0083496D01*
X0218738Y0082221D01*
X0219100Y0081859D01*
X0216608Y0081859D01*
X0216608Y0084187D01*
X0216605Y0084190D01*
X0216706Y0084568D01*
X0216706Y0085465D01*
X0212306Y0085465D01*
X0207906Y0085465D01*
X0207906Y0084568D01*
X0208008Y0084190D01*
X0208005Y0084187D01*
X0208005Y0081859D01*
X0205671Y0081859D01*
X0197600Y0089930D01*
X0196714Y0090816D01*
X0196577Y0090954D01*
X0196778Y0090954D01*
X0197231Y0091141D01*
X0201860Y0086513D01*
X0207946Y0086513D01*
X0207906Y0086363D01*
X0207906Y0085465D01*
X0212306Y0085465D01*
X0212306Y0085465D01*
X0212306Y0085465D01*
X0216706Y0085465D01*
X0216706Y0086363D01*
X0216605Y0086741D01*
X0216608Y0086744D01*
X0216608Y0094423D01*
X0215787Y0095244D01*
X0213818Y0095244D01*
X0213818Y0096444D01*
X0214195Y0096600D01*
X0215170Y0097575D01*
X0215698Y0098850D01*
X0215698Y0100230D01*
X0215170Y0101505D01*
X0214195Y0102481D01*
X0212920Y0103009D01*
X0211540Y0103009D01*
X0210265Y0102481D01*
X0209289Y0101505D01*
X0208761Y0100230D01*
X0208761Y0098850D01*
X0209289Y0097575D01*
X0210265Y0096600D01*
X0210794Y0096380D01*
X0210794Y0095244D01*
X0208826Y0095244D01*
X0208005Y0094423D01*
X0208005Y0092095D01*
X0206344Y0092095D01*
X0206706Y0092457D01*
X0207234Y0093732D01*
X0207234Y0095112D01*
X0206706Y0096387D01*
X0205730Y0097362D01*
X0204455Y0097891D01*
X0203075Y0097891D01*
X0201801Y0097362D01*
X0200825Y0096387D01*
X0200297Y0095112D01*
X0200297Y0093732D01*
X0200825Y0092457D01*
X0201801Y0091482D01*
X0202254Y0091294D01*
X0202254Y0091237D01*
X0203139Y0090351D01*
X0203954Y0089536D01*
X0203112Y0089536D01*
X0199369Y0093279D01*
X0199557Y0093732D01*
X0199557Y0095112D01*
X0199029Y0096387D01*
X0198053Y0097362D01*
X0196778Y0097891D01*
X0195398Y0097891D01*
X0194123Y0097362D01*
X0193148Y0096387D01*
X0192715Y0095342D01*
X0190106Y0095342D01*
X0190106Y0095343D02*
X0187009Y0095343D01*
X0186627Y0095240D01*
X0186285Y0095043D01*
X0186006Y0094764D01*
X0185809Y0094421D01*
X0185706Y0094040D01*
X0185706Y0093143D01*
X0190106Y0093143D01*
X0190106Y0095343D01*
X0190106Y0095342D02*
X0190106Y0093143D01*
X0190106Y0093143D01*
X0190106Y0093142D01*
X0185706Y0093142D01*
X0185706Y0092245D01*
X0185808Y0091867D01*
X0185805Y0091864D01*
X0185805Y0090516D01*
X0185258Y0091063D01*
X0183983Y0091591D01*
X0182603Y0091591D01*
X0181328Y0091063D01*
X0180352Y0090088D01*
X0179824Y0088813D01*
X0179824Y0087433D01*
X0179912Y0087220D01*
X0178865Y0087654D01*
X0177485Y0087654D01*
X0176210Y0087126D01*
X0175234Y0086151D01*
X0174706Y0084876D01*
X0174706Y0083496D01*
X0175234Y0082221D01*
X0175596Y0081859D01*
X0173104Y0081859D01*
X0173104Y0084187D01*
X0173101Y0084190D01*
X0173202Y0084568D01*
X0173202Y0085465D01*
X0168802Y0085465D01*
X0164402Y0085465D01*
X0164402Y0084568D01*
X0164504Y0084190D01*
X0164501Y0084187D01*
X0164501Y0081859D01*
X0162167Y0081859D01*
X0153210Y0090816D01*
X0151931Y0092095D01*
X0150962Y0092095D01*
X0151002Y0092245D01*
X0151002Y0093142D01*
X0146602Y0093142D01*
X0142202Y0093142D01*
X0142202Y0092245D01*
X0142304Y0091867D01*
X0142301Y0091864D01*
X0142301Y0090516D01*
X0141754Y0091063D01*
X0140479Y0091591D01*
X0139099Y0091591D01*
X0137824Y0091063D01*
X0136849Y0090088D01*
X0136320Y0088813D01*
X0136320Y0087433D01*
X0136409Y0087220D01*
X0135361Y0087654D01*
X0133981Y0087654D01*
X0132706Y0087126D01*
X0131730Y0086151D01*
X0131202Y0084876D01*
X0131202Y0083496D01*
X0131730Y0082221D01*
X0132706Y0081245D01*
X0133981Y0080717D01*
X0135361Y0080717D01*
X0136409Y0081151D01*
X0136320Y0080939D01*
X0136320Y0079559D01*
X0136849Y0078284D01*
X0137824Y0077308D01*
X0139099Y0076780D01*
X0140479Y0076780D01*
X0141754Y0077308D01*
X0142301Y0077855D01*
X0142301Y0071390D01*
X0142304Y0071387D01*
X0142202Y0071009D01*
X0142202Y0070111D01*
X0146602Y0070111D01*
X0142202Y0070111D01*
X0142202Y0069214D01*
X0142304Y0068835D01*
X0142301Y0068833D01*
X0142301Y0063712D01*
X0143122Y0062891D01*
X0150083Y0062891D01*
X0150673Y0063481D01*
X0160915Y0063481D01*
X0169348Y0055048D01*
X0166923Y0052623D01*
X0166923Y0048977D01*
X0169501Y0046398D01*
X0173148Y0046398D01*
X0174694Y0047945D01*
X0174694Y0046308D01*
X0174694Y0046858D02*
X0173607Y0046858D01*
X0174606Y0047857D02*
X0174694Y0047857D01*
X0176206Y0045682D02*
X0176206Y0061721D01*
X0172934Y0064993D01*
X0168802Y0064993D01*
X0168802Y0067552D02*
X0172903Y0067552D01*
X0181324Y0059130D01*
X0181324Y0050800D01*
X0178043Y0047857D02*
X0177718Y0047857D01*
X0177718Y0046858D02*
X0179041Y0046858D01*
X0177718Y0045860D02*
X0184246Y0045860D01*
X0184734Y0046858D02*
X0183607Y0046858D01*
X0184606Y0047857D02*
X0184734Y0047857D01*
X0186246Y0045721D02*
X0181324Y0040800D01*
X0176923Y0040867D02*
X0175726Y0040867D01*
X0175726Y0039869D02*
X0176923Y0039869D01*
X0177029Y0038870D02*
X0175619Y0038870D01*
X0174621Y0037872D02*
X0178028Y0037872D01*
X0179026Y0036873D02*
X0173622Y0036873D01*
X0171324Y0040800D02*
X0176206Y0045682D01*
X0177524Y0044861D02*
X0179161Y0044861D01*
X0178162Y0043863D02*
X0176525Y0043863D01*
X0177164Y0042864D02*
X0175527Y0042864D01*
X0175726Y0041866D02*
X0176923Y0041866D01*
X0183622Y0036873D02*
X0189026Y0036873D01*
X0188028Y0037872D02*
X0184621Y0037872D01*
X0185619Y0038870D02*
X0187029Y0038870D01*
X0186923Y0039869D02*
X0185726Y0039869D01*
X0185726Y0040867D02*
X0186923Y0040867D01*
X0186923Y0041866D02*
X0185726Y0041866D01*
X0185527Y0042864D02*
X0187164Y0042864D01*
X0186525Y0043863D02*
X0188162Y0043863D01*
X0187524Y0044861D02*
X0189161Y0044861D01*
X0187757Y0045860D02*
X0194010Y0045860D01*
X0193607Y0046858D02*
X0194773Y0046858D01*
X0194773Y0047857D02*
X0194606Y0047857D01*
X0196285Y0045997D02*
X0196285Y0053088D01*
X0203564Y0060367D01*
X0210261Y0060367D01*
X0212306Y0062412D01*
X0212306Y0064993D01*
X0212306Y0067552D02*
X0216259Y0067552D01*
X0217064Y0066746D01*
X0217064Y0064147D01*
X0211316Y0058398D01*
X0207506Y0058398D01*
X0201324Y0052217D01*
X0201324Y0050800D01*
X0198043Y0047857D02*
X0197797Y0047857D01*
X0197797Y0046858D02*
X0199041Y0046858D01*
X0197797Y0045860D02*
X0204246Y0045860D01*
X0204813Y0046858D02*
X0203607Y0046858D01*
X0204606Y0047857D02*
X0204813Y0047857D01*
X0206324Y0045800D02*
X0201324Y0040800D01*
X0196923Y0040867D02*
X0195726Y0040867D01*
X0195726Y0039869D02*
X0196923Y0039869D01*
X0197029Y0038870D02*
X0195619Y0038870D01*
X0194621Y0037872D02*
X0198028Y0037872D01*
X0199026Y0036873D02*
X0193622Y0036873D01*
X0191324Y0040800D02*
X0191324Y0041036D01*
X0196285Y0045997D01*
X0197288Y0044861D02*
X0199161Y0044861D01*
X0198162Y0043863D02*
X0196289Y0043863D01*
X0195485Y0042864D02*
X0197164Y0042864D01*
X0196923Y0041866D02*
X0195726Y0041866D01*
X0189041Y0046858D02*
X0187757Y0046858D01*
X0187757Y0047857D02*
X0188043Y0047857D01*
X0186246Y0045721D02*
X0186246Y0056813D01*
X0172948Y0070111D01*
X0168802Y0070111D01*
X0168802Y0072670D02*
X0156423Y0072670D01*
X0151305Y0067552D01*
X0146602Y0067552D01*
X0146602Y0070111D02*
X0146602Y0070111D01*
X0151002Y0070111D01*
X0151002Y0069388D01*
X0155797Y0074182D01*
X0164442Y0074182D01*
X0164402Y0074332D01*
X0164402Y0075229D01*
X0168802Y0075229D01*
X0168802Y0075229D01*
X0164402Y0075229D01*
X0164402Y0076127D01*
X0164504Y0076505D01*
X0164501Y0076508D01*
X0164501Y0078835D01*
X0160915Y0078835D01*
X0160029Y0079721D01*
X0154096Y0085654D01*
X0154096Y0078441D01*
X0153210Y0077556D01*
X0151931Y0076276D01*
X0150904Y0076276D01*
X0150904Y0071390D01*
X0150901Y0071387D01*
X0151002Y0071009D01*
X0151002Y0070111D01*
X0146602Y0070111D01*
X0146602Y0070111D01*
X0151002Y0069824D02*
X0151439Y0069824D01*
X0151002Y0070823D02*
X0152437Y0070823D01*
X0153436Y0071821D02*
X0150904Y0071821D01*
X0150904Y0072820D02*
X0154434Y0072820D01*
X0155433Y0073818D02*
X0150904Y0073818D01*
X0150904Y0074817D02*
X0164402Y0074817D01*
X0164402Y0075815D02*
X0150904Y0075815D01*
X0152468Y0076814D02*
X0164501Y0076814D01*
X0164501Y0077812D02*
X0153467Y0077812D01*
X0154096Y0078811D02*
X0164501Y0078811D01*
X0161541Y0080347D02*
X0168802Y0080347D01*
X0176895Y0080347D01*
X0180734Y0076509D01*
X0185065Y0076509D01*
X0186344Y0077788D01*
X0190106Y0077788D01*
X0194809Y0077788D01*
X0196088Y0079068D01*
X0196088Y0089304D01*
X0194809Y0090583D01*
X0190106Y0090583D01*
X0190106Y0088024D02*
X0183391Y0088024D01*
X0183293Y0088123D01*
X0179824Y0087797D02*
X0173104Y0087797D01*
X0173104Y0086799D02*
X0175883Y0086799D01*
X0175089Y0085800D02*
X0173202Y0085800D01*
X0173202Y0085465D02*
X0173202Y0086363D01*
X0173101Y0086741D01*
X0173104Y0086744D01*
X0173104Y0094423D01*
X0172283Y0095244D01*
X0171597Y0095244D01*
X0174324Y0097992D01*
X0178400Y0098013D01*
X0178581Y0097575D01*
X0179557Y0096600D01*
X0180831Y0096072D01*
X0182211Y0096072D01*
X0183486Y0096600D01*
X0184462Y0097575D01*
X0184990Y0098850D01*
X0184990Y0100230D01*
X0184462Y0101505D01*
X0183486Y0102481D01*
X0182211Y0103009D01*
X0180831Y0103009D01*
X0179557Y0102481D01*
X0178581Y0101505D01*
X0178387Y0101036D01*
X0173682Y0101012D01*
X0173059Y0101010D01*
X0173058Y0101009D01*
X0173057Y0101009D01*
X0172619Y0100566D01*
X0167731Y0095642D01*
X0167334Y0095244D01*
X0165322Y0095244D01*
X0164501Y0094423D01*
X0164501Y0092095D01*
X0162840Y0092095D01*
X0163202Y0092457D01*
X0163730Y0093732D01*
X0163730Y0095112D01*
X0163202Y0096387D01*
X0162226Y0097362D01*
X0160951Y0097891D01*
X0159571Y0097891D01*
X0158297Y0097362D01*
X0157321Y0096387D01*
X0156793Y0095112D01*
X0156793Y0093732D01*
X0157321Y0092457D01*
X0158297Y0091482D01*
X0158750Y0091294D01*
X0158750Y0091237D01*
X0160915Y0089072D01*
X0164501Y0089072D01*
X0164501Y0086744D01*
X0164504Y0086741D01*
X0164402Y0086363D01*
X0164402Y0085465D01*
X0168802Y0085465D01*
X0168802Y0085465D01*
X0168802Y0085465D01*
X0173202Y0085465D01*
X0173202Y0084802D02*
X0174706Y0084802D01*
X0174706Y0083803D02*
X0173104Y0083803D01*
X0173104Y0082805D02*
X0174993Y0082805D01*
X0178175Y0084186D02*
X0184671Y0084186D01*
X0185950Y0085465D01*
X0190106Y0085465D01*
X0190106Y0080347D02*
X0183391Y0080347D01*
X0183293Y0080249D01*
X0185805Y0075111D02*
X0185805Y0071390D01*
X0185808Y0071387D01*
X0185706Y0071009D01*
X0185706Y0070111D01*
X0190106Y0070111D01*
X0185706Y0070111D01*
X0185706Y0069214D01*
X0185746Y0069064D01*
X0180081Y0069064D01*
X0174962Y0074182D01*
X0173710Y0074182D01*
X0173162Y0074182D01*
X0173202Y0074332D01*
X0173202Y0075229D01*
X0168802Y0075229D01*
X0168802Y0075229D01*
X0173202Y0075229D01*
X0173202Y0076127D01*
X0173101Y0076505D01*
X0173104Y0076508D01*
X0173104Y0078835D01*
X0176269Y0078835D01*
X0180108Y0074997D01*
X0185691Y0074997D01*
X0185805Y0075111D01*
X0185805Y0074817D02*
X0173202Y0074817D01*
X0173202Y0075815D02*
X0179289Y0075815D01*
X0178291Y0076814D02*
X0173104Y0076814D01*
X0173104Y0077812D02*
X0177292Y0077812D01*
X0176294Y0078811D02*
X0173104Y0078811D01*
X0168802Y0080347D02*
X0168802Y0082906D01*
X0164501Y0082805D02*
X0161221Y0082805D01*
X0160223Y0083803D02*
X0164501Y0083803D01*
X0164402Y0084802D02*
X0159224Y0084802D01*
X0158226Y0085800D02*
X0164402Y0085800D01*
X0164501Y0086799D02*
X0157227Y0086799D01*
X0156229Y0087797D02*
X0164501Y0087797D01*
X0164501Y0088796D02*
X0155230Y0088796D01*
X0154232Y0089794D02*
X0160192Y0089794D01*
X0159194Y0090793D02*
X0153233Y0090793D01*
X0152235Y0091791D02*
X0157987Y0091791D01*
X0157183Y0092790D02*
X0151002Y0092790D01*
X0151002Y0093143D02*
X0146602Y0093143D01*
X0146602Y0095343D01*
X0143505Y0095343D01*
X0143123Y0095240D01*
X0142781Y0095043D01*
X0142502Y0094764D01*
X0142305Y0094421D01*
X0142202Y0094040D01*
X0142202Y0093143D01*
X0146602Y0093143D01*
X0146602Y0093143D01*
X0146602Y0093142D01*
X0146602Y0093143D01*
X0146602Y0095342D01*
X0149700Y0095343D01*
X0150081Y0095240D01*
X0150423Y0095043D01*
X0150703Y0094764D01*
X0150900Y0094421D01*
X0151002Y0094040D01*
X0151002Y0093143D01*
X0151002Y0093788D02*
X0156793Y0093788D01*
X0156793Y0094787D02*
X0150679Y0094787D01*
X0146602Y0094787D02*
X0146602Y0094787D01*
X0146602Y0093788D02*
X0146602Y0093788D01*
X0146602Y0090583D02*
X0151305Y0090583D01*
X0152584Y0089304D01*
X0152584Y0079068D01*
X0151305Y0077788D01*
X0146602Y0077788D01*
X0146602Y0080347D02*
X0139887Y0080347D01*
X0139789Y0080249D01*
X0142258Y0077812D02*
X0142301Y0077812D01*
X0142301Y0076814D02*
X0140559Y0076814D01*
X0139019Y0076814D02*
X0006677Y0076814D01*
X0006678Y0077812D02*
X0137320Y0077812D01*
X0136630Y0078811D02*
X0029703Y0078811D01*
X0028771Y0077880D02*
X0031174Y0080282D01*
X0031174Y0083680D01*
X0030702Y0084152D01*
X0030702Y0089811D01*
X0031174Y0090282D01*
X0031174Y0093680D01*
X0028771Y0096083D01*
X0025374Y0096083D01*
X0024784Y0095493D01*
X0019361Y0095493D01*
X0018771Y0096083D01*
X0015374Y0096083D01*
X0012971Y0093680D01*
X0012971Y0090282D01*
X0013561Y0089692D01*
X0013561Y0084270D01*
X0012971Y0083680D01*
X0012971Y0080282D01*
X0015374Y0077880D01*
X0018771Y0077880D01*
X0019361Y0078469D01*
X0024784Y0078469D01*
X0025374Y0077880D01*
X0028771Y0077880D01*
X0028812Y0076181D02*
X0027472Y0076181D01*
X0027472Y0072381D01*
X0026672Y0072381D01*
X0026672Y0071581D01*
X0022872Y0071581D01*
X0022872Y0070241D01*
X0025333Y0067781D01*
X0026672Y0067781D01*
X0026672Y0071581D01*
X0027472Y0071581D01*
X0027472Y0067781D01*
X0028812Y0067781D01*
X0031272Y0070241D01*
X0031272Y0071581D01*
X0027473Y0071581D01*
X0027473Y0072381D01*
X0031272Y0072381D01*
X0031272Y0073721D01*
X0028812Y0076181D01*
X0029178Y0075815D02*
X0142301Y0075815D01*
X0142301Y0074817D02*
X0030177Y0074817D01*
X0031175Y0073818D02*
X0142301Y0073818D01*
X0142301Y0072820D02*
X0031272Y0072820D01*
X0031272Y0070823D02*
X0142202Y0070823D01*
X0142202Y0069824D02*
X0030855Y0069824D01*
X0029857Y0068826D02*
X0142301Y0068826D01*
X0142301Y0067827D02*
X0028858Y0067827D01*
X0027472Y0067827D02*
X0026672Y0067827D01*
X0026672Y0068826D02*
X0027472Y0068826D01*
X0027472Y0069824D02*
X0026672Y0069824D01*
X0026672Y0070823D02*
X0027472Y0070823D01*
X0027473Y0071821D02*
X0142301Y0071821D01*
X0142301Y0066829D02*
X0006667Y0066829D01*
X0006668Y0067827D02*
X0015287Y0067827D01*
X0015333Y0067781D02*
X0012872Y0070241D01*
X0012872Y0071581D01*
X0016672Y0071581D01*
X0016672Y0072381D01*
X0012872Y0072381D01*
X0012872Y0073721D01*
X0015333Y0076181D01*
X0016672Y0076181D01*
X0016672Y0072381D01*
X0017472Y0072381D01*
X0017472Y0076181D01*
X0018812Y0076181D01*
X0021272Y0073721D01*
X0021272Y0072381D01*
X0017473Y0072381D01*
X0017473Y0071581D01*
X0021272Y0071581D01*
X0021272Y0070241D01*
X0018812Y0067781D01*
X0017472Y0067781D01*
X0017472Y0071581D01*
X0016672Y0071581D01*
X0016672Y0067781D01*
X0015333Y0067781D01*
X0016672Y0067827D02*
X0017472Y0067827D01*
X0017472Y0068826D02*
X0016672Y0068826D01*
X0016672Y0069824D02*
X0017472Y0069824D01*
X0017472Y0070823D02*
X0016672Y0070823D01*
X0016672Y0071821D02*
X0006672Y0071821D01*
X0006671Y0070823D02*
X0012872Y0070823D01*
X0013290Y0069824D02*
X0006670Y0069824D01*
X0006669Y0068826D02*
X0014288Y0068826D01*
X0015333Y0066181D02*
X0012872Y0063721D01*
X0012872Y0062381D01*
X0016672Y0062381D01*
X0016672Y0061581D01*
X0012872Y0061581D01*
X0012872Y0060241D01*
X0015333Y0057781D01*
X0016672Y0057781D01*
X0016672Y0061581D01*
X0017472Y0061581D01*
X0017472Y0057781D01*
X0018812Y0057781D01*
X0021272Y0060241D01*
X0021272Y0061581D01*
X0017473Y0061581D01*
X0017473Y0062381D01*
X0021272Y0062381D01*
X0021272Y0063721D01*
X0018812Y0066181D01*
X0017472Y0066181D01*
X0017472Y0062381D01*
X0016672Y0062381D01*
X0016672Y0066181D01*
X0015333Y0066181D01*
X0014982Y0065830D02*
X0006666Y0065830D01*
X0006665Y0064832D02*
X0013983Y0064832D01*
X0012985Y0063833D02*
X0006664Y0063833D01*
X0006663Y0062835D02*
X0012872Y0062835D01*
X0012872Y0060837D02*
X0006661Y0060837D01*
X0006660Y0059839D02*
X0013275Y0059839D01*
X0014273Y0058840D02*
X0006659Y0058840D01*
X0006658Y0057842D02*
X0015272Y0057842D01*
X0016672Y0057842D02*
X0017472Y0057842D01*
X0017472Y0058840D02*
X0016672Y0058840D01*
X0016672Y0059839D02*
X0017472Y0059839D01*
X0017472Y0060837D02*
X0016672Y0060837D01*
X0016672Y0061836D02*
X0006662Y0061836D01*
X0006657Y0056843D02*
X0167552Y0056843D01*
X0168551Y0055845D02*
X0006656Y0055845D01*
X0006655Y0054846D02*
X0082138Y0054846D01*
X0081140Y0053848D02*
X0006654Y0053848D01*
X0006653Y0052849D02*
X0080141Y0052849D01*
X0079915Y0051851D02*
X0006652Y0051851D01*
X0006651Y0050852D02*
X0079915Y0050852D01*
X0079915Y0049854D02*
X0006650Y0049854D01*
X0006649Y0048855D02*
X0080036Y0048855D01*
X0081035Y0047857D02*
X0006648Y0047857D01*
X0018873Y0057842D02*
X0025272Y0057842D01*
X0025333Y0057781D02*
X0022872Y0060241D01*
X0022872Y0061581D01*
X0026672Y0061581D01*
X0026672Y0062381D01*
X0022872Y0062381D01*
X0022872Y0063721D01*
X0025333Y0066181D01*
X0026672Y0066181D01*
X0026672Y0062381D01*
X0027472Y0062381D01*
X0027472Y0066181D01*
X0028812Y0066181D01*
X0031272Y0063721D01*
X0031272Y0062381D01*
X0027473Y0062381D01*
X0027473Y0061581D01*
X0031272Y0061581D01*
X0031272Y0060241D01*
X0028812Y0057781D01*
X0027472Y0057781D01*
X0027472Y0061581D01*
X0026672Y0061581D01*
X0026672Y0057781D01*
X0025333Y0057781D01*
X0026672Y0057842D02*
X0027472Y0057842D01*
X0027472Y0058840D02*
X0026672Y0058840D01*
X0026672Y0059839D02*
X0027472Y0059839D01*
X0027472Y0060837D02*
X0026672Y0060837D01*
X0026672Y0061836D02*
X0017473Y0061836D01*
X0017472Y0062835D02*
X0016672Y0062835D01*
X0016672Y0063833D02*
X0017472Y0063833D01*
X0017472Y0064832D02*
X0016672Y0064832D01*
X0016672Y0065830D02*
X0017472Y0065830D01*
X0019163Y0065830D02*
X0024982Y0065830D01*
X0023983Y0064832D02*
X0020162Y0064832D01*
X0021160Y0063833D02*
X0022985Y0063833D01*
X0022872Y0062835D02*
X0021272Y0062835D01*
X0021272Y0060837D02*
X0022872Y0060837D01*
X0023275Y0059839D02*
X0020870Y0059839D01*
X0019871Y0058840D02*
X0024273Y0058840D01*
X0028873Y0057842D02*
X0166554Y0057842D01*
X0165555Y0058840D02*
X0029871Y0058840D01*
X0030870Y0059839D02*
X0164557Y0059839D01*
X0163558Y0060837D02*
X0031272Y0060837D01*
X0031272Y0062835D02*
X0161561Y0062835D01*
X0162560Y0061836D02*
X0027473Y0061836D01*
X0027472Y0062835D02*
X0026672Y0062835D01*
X0026672Y0063833D02*
X0027472Y0063833D01*
X0027472Y0064832D02*
X0026672Y0064832D01*
X0026672Y0065830D02*
X0027472Y0065830D01*
X0029163Y0065830D02*
X0142301Y0065830D01*
X0142301Y0064832D02*
X0030162Y0064832D01*
X0031160Y0063833D02*
X0142301Y0063833D01*
X0146602Y0064993D02*
X0161541Y0064993D01*
X0171285Y0055249D01*
X0171285Y0050839D01*
X0171324Y0050800D01*
X0166923Y0050852D02*
X0158718Y0050852D01*
X0158718Y0049854D02*
X0166923Y0049854D01*
X0167044Y0048855D02*
X0158597Y0048855D01*
X0158718Y0048977D02*
X0156140Y0046398D01*
X0152493Y0046398D01*
X0149915Y0048977D01*
X0149915Y0052623D01*
X0152493Y0055202D01*
X0156140Y0055202D01*
X0158718Y0052623D01*
X0158718Y0048977D01*
X0157598Y0047857D02*
X0168043Y0047857D01*
X0169041Y0046858D02*
X0156600Y0046858D01*
X0156140Y0045202D02*
X0152493Y0045202D01*
X0149915Y0042623D01*
X0149915Y0038977D01*
X0152493Y0036398D01*
X0156140Y0036398D01*
X0158718Y0038977D01*
X0158718Y0042623D01*
X0156140Y0045202D01*
X0156480Y0044861D02*
X0169161Y0044861D01*
X0168162Y0043863D02*
X0157478Y0043863D01*
X0158477Y0042864D02*
X0167164Y0042864D01*
X0166923Y0041866D02*
X0158718Y0041866D01*
X0158718Y0040867D02*
X0166923Y0040867D01*
X0166923Y0039869D02*
X0158718Y0039869D01*
X0158612Y0038870D02*
X0167029Y0038870D01*
X0168028Y0037872D02*
X0157613Y0037872D01*
X0156615Y0036873D02*
X0169026Y0036873D01*
X0152019Y0036873D02*
X0146615Y0036873D01*
X0146140Y0036398D02*
X0148718Y0038977D01*
X0148718Y0042623D01*
X0146140Y0045202D01*
X0142493Y0045202D01*
X0139915Y0042623D01*
X0139915Y0038977D01*
X0142493Y0036398D01*
X0146140Y0036398D01*
X0147613Y0037872D02*
X0151020Y0037872D01*
X0150022Y0038870D02*
X0148612Y0038870D01*
X0148718Y0039869D02*
X0149915Y0039869D01*
X0149915Y0040867D02*
X0148718Y0040867D01*
X0148718Y0041866D02*
X0149915Y0041866D01*
X0150156Y0042864D02*
X0148477Y0042864D01*
X0147478Y0043863D02*
X0151155Y0043863D01*
X0152153Y0044861D02*
X0146480Y0044861D01*
X0146140Y0046398D02*
X0142493Y0046398D01*
X0139915Y0048977D01*
X0139915Y0052623D01*
X0142493Y0055202D01*
X0146140Y0055202D01*
X0148718Y0052623D01*
X0148718Y0048977D01*
X0146140Y0046398D01*
X0146600Y0046858D02*
X0152033Y0046858D01*
X0151035Y0047857D02*
X0147598Y0047857D01*
X0148597Y0048855D02*
X0150036Y0048855D01*
X0149915Y0049854D02*
X0148718Y0049854D01*
X0148718Y0050852D02*
X0149915Y0050852D01*
X0149915Y0051851D02*
X0148718Y0051851D01*
X0148492Y0052849D02*
X0150141Y0052849D01*
X0151140Y0053848D02*
X0147493Y0053848D01*
X0146495Y0054846D02*
X0152138Y0054846D01*
X0156495Y0054846D02*
X0169146Y0054846D01*
X0168148Y0053848D02*
X0157493Y0053848D01*
X0158492Y0052849D02*
X0167149Y0052849D01*
X0166923Y0051851D02*
X0158718Y0051851D01*
X0142138Y0054846D02*
X0136495Y0054846D01*
X0136140Y0055202D02*
X0132493Y0055202D01*
X0129915Y0052623D01*
X0129915Y0048977D01*
X0132493Y0046398D01*
X0136140Y0046398D01*
X0138718Y0048977D01*
X0138718Y0052623D01*
X0136140Y0055202D01*
X0137493Y0053848D02*
X0141140Y0053848D01*
X0140141Y0052849D02*
X0138492Y0052849D01*
X0138718Y0051851D02*
X0139915Y0051851D01*
X0139915Y0050852D02*
X0138718Y0050852D01*
X0138718Y0049854D02*
X0139915Y0049854D01*
X0140036Y0048855D02*
X0138597Y0048855D01*
X0137598Y0047857D02*
X0141035Y0047857D01*
X0142033Y0046858D02*
X0136600Y0046858D01*
X0136140Y0045202D02*
X0132493Y0045202D01*
X0129915Y0042623D01*
X0129915Y0038977D01*
X0132493Y0036398D01*
X0136140Y0036398D01*
X0138718Y0038977D01*
X0138718Y0042623D01*
X0136140Y0045202D01*
X0136480Y0044861D02*
X0142153Y0044861D01*
X0141155Y0043863D02*
X0137478Y0043863D01*
X0138477Y0042864D02*
X0140156Y0042864D01*
X0139915Y0041866D02*
X0138718Y0041866D01*
X0138718Y0040867D02*
X0139915Y0040867D01*
X0139915Y0039869D02*
X0138718Y0039869D01*
X0138612Y0038870D02*
X0140022Y0038870D01*
X0141020Y0037872D02*
X0137613Y0037872D01*
X0136615Y0036873D02*
X0142019Y0036873D01*
X0132019Y0036873D02*
X0126615Y0036873D01*
X0126140Y0036398D02*
X0128718Y0038977D01*
X0128718Y0042623D01*
X0126140Y0045202D01*
X0122493Y0045202D01*
X0119915Y0042623D01*
X0119915Y0038977D01*
X0122493Y0036398D01*
X0126140Y0036398D01*
X0127613Y0037872D02*
X0131020Y0037872D01*
X0130022Y0038870D02*
X0128612Y0038870D01*
X0128718Y0039869D02*
X0129915Y0039869D01*
X0129915Y0040867D02*
X0128718Y0040867D01*
X0128718Y0041866D02*
X0129915Y0041866D01*
X0130156Y0042864D02*
X0128477Y0042864D01*
X0127478Y0043863D02*
X0131155Y0043863D01*
X0132153Y0044861D02*
X0126480Y0044861D01*
X0126140Y0046398D02*
X0122493Y0046398D01*
X0119915Y0048977D01*
X0119915Y0052623D01*
X0122493Y0055202D01*
X0126140Y0055202D01*
X0128718Y0052623D01*
X0128718Y0048977D01*
X0126140Y0046398D01*
X0126600Y0046858D02*
X0132033Y0046858D01*
X0131035Y0047857D02*
X0127598Y0047857D01*
X0128597Y0048855D02*
X0130036Y0048855D01*
X0129915Y0049854D02*
X0128718Y0049854D01*
X0128718Y0050852D02*
X0129915Y0050852D01*
X0129915Y0051851D02*
X0128718Y0051851D01*
X0128492Y0052849D02*
X0130141Y0052849D01*
X0131140Y0053848D02*
X0127493Y0053848D01*
X0126495Y0054846D02*
X0132138Y0054846D01*
X0122138Y0054846D02*
X0116495Y0054846D01*
X0116140Y0055202D02*
X0112493Y0055202D01*
X0109915Y0052623D01*
X0109915Y0048977D01*
X0112493Y0046398D01*
X0116140Y0046398D01*
X0118718Y0048977D01*
X0118718Y0052623D01*
X0116140Y0055202D01*
X0117493Y0053848D02*
X0121140Y0053848D01*
X0120141Y0052849D02*
X0118492Y0052849D01*
X0118718Y0051851D02*
X0119915Y0051851D01*
X0119915Y0050852D02*
X0118718Y0050852D01*
X0118718Y0049854D02*
X0119915Y0049854D01*
X0120036Y0048855D02*
X0118597Y0048855D01*
X0117598Y0047857D02*
X0121035Y0047857D01*
X0122033Y0046858D02*
X0116600Y0046858D01*
X0116140Y0045202D02*
X0112493Y0045202D01*
X0109915Y0042623D01*
X0109915Y0038977D01*
X0112493Y0036398D01*
X0116140Y0036398D01*
X0118718Y0038977D01*
X0118718Y0042623D01*
X0116140Y0045202D01*
X0116480Y0044861D02*
X0122153Y0044861D01*
X0121155Y0043863D02*
X0117478Y0043863D01*
X0118477Y0042864D02*
X0120156Y0042864D01*
X0119915Y0041866D02*
X0118718Y0041866D01*
X0118718Y0040867D02*
X0119915Y0040867D01*
X0119915Y0039869D02*
X0118718Y0039869D01*
X0118612Y0038870D02*
X0120022Y0038870D01*
X0121020Y0037872D02*
X0117613Y0037872D01*
X0116615Y0036873D02*
X0122019Y0036873D01*
X0112019Y0036873D02*
X0106615Y0036873D01*
X0106140Y0036398D02*
X0108718Y0038977D01*
X0108718Y0042623D01*
X0106140Y0045202D01*
X0102493Y0045202D01*
X0099915Y0042623D01*
X0099915Y0038977D01*
X0102493Y0036398D01*
X0106140Y0036398D01*
X0107613Y0037872D02*
X0111020Y0037872D01*
X0110022Y0038870D02*
X0108612Y0038870D01*
X0108718Y0039869D02*
X0109915Y0039869D01*
X0109915Y0040867D02*
X0108718Y0040867D01*
X0108718Y0041866D02*
X0109915Y0041866D01*
X0110156Y0042864D02*
X0108477Y0042864D01*
X0107478Y0043863D02*
X0111155Y0043863D01*
X0112153Y0044861D02*
X0106480Y0044861D01*
X0106140Y0046398D02*
X0102493Y0046398D01*
X0099915Y0048977D01*
X0099915Y0052623D01*
X0102493Y0055202D01*
X0106140Y0055202D01*
X0108718Y0052623D01*
X0108718Y0048977D01*
X0106140Y0046398D01*
X0106600Y0046858D02*
X0112033Y0046858D01*
X0111035Y0047857D02*
X0107598Y0047857D01*
X0108597Y0048855D02*
X0110036Y0048855D01*
X0109915Y0049854D02*
X0108718Y0049854D01*
X0108718Y0050852D02*
X0109915Y0050852D01*
X0109915Y0051851D02*
X0108718Y0051851D01*
X0108492Y0052849D02*
X0110141Y0052849D01*
X0111140Y0053848D02*
X0107493Y0053848D01*
X0106495Y0054846D02*
X0112138Y0054846D01*
X0102138Y0054846D02*
X0096495Y0054846D01*
X0096140Y0055202D02*
X0092493Y0055202D01*
X0089915Y0052623D01*
X0089915Y0048977D01*
X0092493Y0046398D01*
X0096140Y0046398D01*
X0098718Y0048977D01*
X0098718Y0052623D01*
X0096140Y0055202D01*
X0097493Y0053848D02*
X0101140Y0053848D01*
X0100141Y0052849D02*
X0098492Y0052849D01*
X0098718Y0051851D02*
X0099915Y0051851D01*
X0099915Y0050852D02*
X0098718Y0050852D01*
X0098718Y0049854D02*
X0099915Y0049854D01*
X0100036Y0048855D02*
X0098597Y0048855D01*
X0097598Y0047857D02*
X0101035Y0047857D01*
X0102033Y0046858D02*
X0096600Y0046858D01*
X0096140Y0045202D02*
X0092493Y0045202D01*
X0089915Y0042623D01*
X0089915Y0038977D01*
X0092493Y0036398D01*
X0096140Y0036398D01*
X0098718Y0038977D01*
X0098718Y0042623D01*
X0096140Y0045202D01*
X0096480Y0044861D02*
X0102153Y0044861D01*
X0101155Y0043863D02*
X0097478Y0043863D01*
X0098477Y0042864D02*
X0100156Y0042864D01*
X0099915Y0041866D02*
X0098718Y0041866D01*
X0098718Y0040867D02*
X0099915Y0040867D01*
X0099915Y0039869D02*
X0098718Y0039869D01*
X0098612Y0038870D02*
X0100022Y0038870D01*
X0101020Y0037872D02*
X0097613Y0037872D01*
X0096615Y0036873D02*
X0102019Y0036873D01*
X0092019Y0036873D02*
X0086615Y0036873D01*
X0087613Y0037872D02*
X0091020Y0037872D01*
X0090022Y0038870D02*
X0088612Y0038870D01*
X0088718Y0039869D02*
X0089915Y0039869D01*
X0089915Y0040867D02*
X0088718Y0040867D01*
X0088718Y0041866D02*
X0089915Y0041866D01*
X0090156Y0042864D02*
X0088477Y0042864D01*
X0087478Y0043863D02*
X0091155Y0043863D01*
X0092153Y0044861D02*
X0086480Y0044861D01*
X0086600Y0046858D02*
X0092033Y0046858D01*
X0091035Y0047857D02*
X0087598Y0047857D01*
X0088597Y0048855D02*
X0090036Y0048855D01*
X0089915Y0049854D02*
X0088718Y0049854D01*
X0088718Y0050852D02*
X0089915Y0050852D01*
X0089915Y0051851D02*
X0088718Y0051851D01*
X0088492Y0052849D02*
X0090141Y0052849D01*
X0091140Y0053848D02*
X0087493Y0053848D01*
X0086495Y0054846D02*
X0092138Y0054846D01*
X0132145Y0081806D02*
X0031174Y0081806D01*
X0031174Y0080808D02*
X0133763Y0080808D01*
X0135579Y0080808D02*
X0136320Y0080808D01*
X0136320Y0079809D02*
X0030701Y0079809D01*
X0031174Y0082805D02*
X0131489Y0082805D01*
X0131202Y0083803D02*
X0031051Y0083803D01*
X0030702Y0084802D02*
X0131202Y0084802D01*
X0131585Y0085800D02*
X0030702Y0085800D01*
X0030702Y0086799D02*
X0132379Y0086799D01*
X0134671Y0084186D02*
X0141167Y0084186D01*
X0142446Y0085465D01*
X0146602Y0085465D01*
X0146602Y0088024D02*
X0139887Y0088024D01*
X0139789Y0088123D01*
X0136320Y0087797D02*
X0030702Y0087797D01*
X0030702Y0088796D02*
X0136320Y0088796D01*
X0136727Y0089794D02*
X0030702Y0089794D01*
X0031174Y0090793D02*
X0137554Y0090793D01*
X0142024Y0090793D02*
X0142301Y0090793D01*
X0142301Y0091791D02*
X0031174Y0091791D01*
X0031174Y0092790D02*
X0142202Y0092790D01*
X0142202Y0093788D02*
X0031066Y0093788D01*
X0030067Y0094787D02*
X0142525Y0094787D01*
X0152584Y0089304D02*
X0161541Y0080347D01*
X0159941Y0079809D02*
X0154096Y0079809D01*
X0154096Y0080808D02*
X0158942Y0080808D01*
X0157944Y0081806D02*
X0154096Y0081806D01*
X0154096Y0082805D02*
X0156945Y0082805D01*
X0155947Y0083803D02*
X0154096Y0083803D01*
X0154096Y0084802D02*
X0154948Y0084802D01*
X0161541Y0090583D02*
X0160261Y0091863D01*
X0160261Y0094422D01*
X0157072Y0095785D02*
X0029069Y0095785D01*
X0028771Y0097880D02*
X0025374Y0097880D01*
X0024784Y0098469D01*
X0019361Y0098469D01*
X0018771Y0097880D01*
X0015374Y0097880D01*
X0012971Y0100282D01*
X0012971Y0103680D01*
X0013443Y0104152D01*
X0013443Y0109811D01*
X0012971Y0110282D01*
X0012971Y0113680D01*
X0015374Y0116083D01*
X0018771Y0116083D01*
X0019361Y0115493D01*
X0024784Y0115493D01*
X0025374Y0116083D01*
X0028771Y0116083D01*
X0031174Y0113680D01*
X0031174Y0110282D01*
X0030584Y0109692D01*
X0030584Y0104270D01*
X0031174Y0103680D01*
X0031174Y0100282D01*
X0028771Y0097880D01*
X0029673Y0098781D02*
X0170847Y0098781D01*
X0171838Y0099779D02*
X0030671Y0099779D01*
X0031174Y0100778D02*
X0172828Y0100778D01*
X0173691Y0099501D02*
X0181521Y0099540D01*
X0184763Y0100778D02*
X0208988Y0100778D01*
X0208761Y0099779D02*
X0184990Y0099779D01*
X0184961Y0098781D02*
X0208790Y0098781D01*
X0209204Y0097782D02*
X0204716Y0097782D01*
X0206309Y0096784D02*
X0210081Y0096784D01*
X0210794Y0095785D02*
X0206955Y0095785D01*
X0207234Y0094787D02*
X0208369Y0094787D01*
X0208005Y0093788D02*
X0207234Y0093788D01*
X0206844Y0092790D02*
X0208005Y0092790D01*
X0205045Y0090583D02*
X0203765Y0091863D01*
X0203765Y0094422D01*
X0200576Y0095785D02*
X0199278Y0095785D01*
X0199557Y0094787D02*
X0200297Y0094787D01*
X0200297Y0093788D02*
X0199557Y0093788D01*
X0199858Y0092790D02*
X0200687Y0092790D01*
X0200857Y0091791D02*
X0201491Y0091791D01*
X0201855Y0090793D02*
X0202697Y0090793D01*
X0202854Y0089794D02*
X0203696Y0089794D01*
X0205045Y0090583D02*
X0212306Y0090583D01*
X0212306Y0088024D02*
X0202486Y0088024D01*
X0196088Y0094422D01*
X0192899Y0095785D02*
X0172134Y0095785D01*
X0172740Y0094787D02*
X0186029Y0094787D01*
X0185706Y0093788D02*
X0173104Y0093788D01*
X0173104Y0092790D02*
X0185706Y0092790D01*
X0185805Y0091791D02*
X0173104Y0091791D01*
X0173104Y0090793D02*
X0181058Y0090793D01*
X0180231Y0089794D02*
X0173104Y0089794D01*
X0173104Y0088796D02*
X0179824Y0088796D01*
X0185528Y0090793D02*
X0185805Y0090793D01*
X0190106Y0093788D02*
X0190106Y0093788D01*
X0190106Y0094787D02*
X0190106Y0094787D01*
X0193545Y0096784D02*
X0183670Y0096784D01*
X0184547Y0097782D02*
X0195137Y0097782D01*
X0197039Y0097782D02*
X0202814Y0097782D01*
X0201222Y0096784D02*
X0198632Y0096784D01*
X0197579Y0090793D02*
X0196737Y0090793D01*
X0196714Y0090816D02*
X0196714Y0090816D01*
X0197736Y0089794D02*
X0198578Y0089794D01*
X0198734Y0088796D02*
X0199576Y0088796D01*
X0199733Y0087797D02*
X0200575Y0087797D01*
X0200731Y0086799D02*
X0201573Y0086799D01*
X0201730Y0085800D02*
X0207906Y0085800D01*
X0207906Y0084802D02*
X0202728Y0084802D01*
X0203727Y0083803D02*
X0208005Y0083803D01*
X0208005Y0082805D02*
X0204725Y0082805D01*
X0205045Y0080347D02*
X0212306Y0080347D01*
X0220399Y0080347D01*
X0224238Y0076509D01*
X0228765Y0076509D01*
X0230045Y0077788D01*
X0233610Y0077788D01*
X0238313Y0077788D01*
X0239592Y0079068D01*
X0239592Y0089304D01*
X0248549Y0080347D01*
X0255810Y0080347D01*
X0263903Y0080347D01*
X0267742Y0076509D01*
X0272072Y0076509D01*
X0273352Y0077788D01*
X0277114Y0077788D01*
X0281817Y0077788D01*
X0283096Y0079068D01*
X0283096Y0089304D01*
X0292053Y0080347D01*
X0299314Y0080347D01*
X0299314Y0082906D01*
X0304848Y0082906D01*
X0312714Y0090772D01*
X0312714Y0115985D01*
X0300968Y0127731D01*
X0300968Y0141780D01*
X0301009Y0141821D01*
X0302626Y0141821D01*
X0305143Y0139304D01*
X0308490Y0139304D01*
X0308687Y0139501D01*
X0308687Y0143044D01*
X0311246Y0145603D01*
X0311246Y0155052D01*
X0308490Y0157808D01*
X0308490Y0165485D01*
X0308454Y0165521D01*
X0301009Y0165521D01*
X0301009Y0173753D01*
X0306009Y0178753D01*
X0306009Y0186784D01*
X0302915Y0183654D02*
X0299244Y0183654D01*
X0300242Y0184653D02*
X0302128Y0184653D01*
X0301714Y0185651D02*
X0300509Y0185651D01*
X0300509Y0186284D02*
X0300509Y0184920D01*
X0297873Y0182284D01*
X0296509Y0182284D01*
X0296509Y0186284D01*
X0295509Y0186284D01*
X0291509Y0186284D01*
X0291509Y0184920D01*
X0294145Y0182284D01*
X0295509Y0182284D01*
X0295509Y0186284D01*
X0295509Y0187284D01*
X0291509Y0187284D01*
X0291509Y0188648D01*
X0294145Y0191284D01*
X0295509Y0191284D01*
X0295509Y0187284D01*
X0296509Y0187284D01*
X0296509Y0191284D01*
X0297873Y0191284D01*
X0300509Y0188648D01*
X0300509Y0187284D01*
X0296509Y0187284D01*
X0296509Y0186284D01*
X0300509Y0186284D01*
X0301608Y0186650D02*
X0296509Y0186650D01*
X0296509Y0187648D02*
X0295509Y0187648D01*
X0295509Y0186650D02*
X0272813Y0186650D01*
X0272813Y0187648D02*
X0291509Y0187648D01*
X0291509Y0188647D02*
X0272813Y0188647D01*
X0272813Y0189645D02*
X0292507Y0189645D01*
X0293505Y0190644D02*
X0272813Y0190644D01*
X0272813Y0191642D02*
X0316651Y0191642D01*
X0316651Y0190644D02*
X0308193Y0190644D01*
X0309373Y0189645D02*
X0316651Y0189645D01*
X0316651Y0188647D02*
X0310002Y0188647D01*
X0310411Y0187648D02*
X0316651Y0187648D01*
X0316651Y0186650D02*
X0310411Y0186650D01*
X0310304Y0185651D02*
X0316651Y0185651D01*
X0316651Y0184653D02*
X0309891Y0184653D01*
X0309104Y0183654D02*
X0316651Y0183654D01*
X0316651Y0182656D02*
X0307545Y0182656D01*
X0307521Y0181657D02*
X0316651Y0181657D01*
X0316651Y0180659D02*
X0307521Y0180659D01*
X0307521Y0179660D02*
X0316651Y0179660D01*
X0316651Y0178662D02*
X0307521Y0178662D01*
X0307058Y0177663D02*
X0316651Y0177663D01*
X0316651Y0176665D02*
X0306059Y0176665D01*
X0306324Y0175843D02*
X0305942Y0175741D01*
X0305600Y0175544D01*
X0305321Y0175264D01*
X0305123Y0174922D01*
X0305021Y0174541D01*
X0305021Y0172662D01*
X0308005Y0172662D01*
X0308005Y0175843D01*
X0306324Y0175843D01*
X0305813Y0175666D02*
X0305061Y0175666D01*
X0305055Y0174668D02*
X0304062Y0174668D01*
X0305021Y0173669D02*
X0303064Y0173669D01*
X0302521Y0172671D02*
X0305021Y0172671D01*
X0305021Y0171672D02*
X0302521Y0171672D01*
X0302521Y0170674D02*
X0305021Y0170674D01*
X0305059Y0169675D02*
X0302521Y0169675D01*
X0302521Y0168677D02*
X0305565Y0168677D01*
X0305120Y0167678D02*
X0302521Y0167678D01*
X0301009Y0165521D02*
X0292801Y0165521D01*
X0285101Y0165521D01*
X0285101Y0173221D01*
X0283101Y0173221D02*
X0283101Y0173221D01*
X0283101Y0168821D01*
X0282353Y0168821D01*
X0281986Y0168920D01*
X0254370Y0168920D01*
X0253549Y0169741D01*
X0253549Y0176702D01*
X0253989Y0177142D01*
X0253989Y0187729D01*
X0255996Y0189736D01*
X0255809Y0190189D01*
X0255809Y0191569D01*
X0256337Y0192843D01*
X0257312Y0193819D01*
X0258587Y0194347D01*
X0259967Y0194347D01*
X0261242Y0193819D01*
X0262218Y0192843D01*
X0262746Y0191569D01*
X0262746Y0190189D01*
X0262218Y0188914D01*
X0261242Y0187938D01*
X0259967Y0187410D01*
X0258587Y0187410D01*
X0258134Y0187598D01*
X0257013Y0186476D01*
X0257013Y0179143D01*
X0263784Y0185914D01*
X0263784Y0194259D01*
X0260211Y0197831D01*
X0247838Y0197831D01*
X0247651Y0197379D01*
X0246675Y0196403D01*
X0245400Y0195875D01*
X0244020Y0195875D01*
X0242745Y0196403D01*
X0241770Y0197379D01*
X0241242Y0198653D01*
X0241242Y0200033D01*
X0241770Y0201308D01*
X0242745Y0202284D01*
X0244020Y0202812D01*
X0245400Y0202812D01*
X0246675Y0202284D01*
X0247651Y0201308D01*
X0247838Y0200855D01*
X0260044Y0200855D01*
X0255381Y0205518D01*
X0144990Y0205518D01*
X0140240Y0200768D01*
X0143456Y0200768D01*
X0145859Y0198365D01*
X0145859Y0194967D01*
X0143456Y0192565D01*
X0140059Y0192565D01*
X0138348Y0194275D01*
X0138348Y0191119D01*
X0135727Y0188497D01*
X0135859Y0188365D01*
X0135859Y0184967D01*
X0133456Y0182565D01*
X0130059Y0182565D01*
X0127656Y0184967D01*
X0127656Y0188365D01*
X0130059Y0190768D01*
X0133456Y0190768D01*
X0133589Y0190635D01*
X0135324Y0192371D01*
X0135324Y0194433D01*
X0133456Y0192565D01*
X0130059Y0192565D01*
X0128505Y0194118D01*
X0128505Y0191276D01*
X0125727Y0188497D01*
X0125859Y0188365D01*
X0125859Y0184967D01*
X0123456Y0182565D01*
X0120059Y0182565D01*
X0117656Y0184967D01*
X0117656Y0188365D01*
X0120059Y0190768D01*
X0123456Y0190768D01*
X0123589Y0190635D01*
X0125482Y0192529D01*
X0125482Y0194590D01*
X0123456Y0192565D01*
X0120059Y0192565D01*
X0118269Y0194354D01*
X0118269Y0191040D01*
X0115727Y0188497D01*
X0115859Y0188365D01*
X0115859Y0184967D01*
X0113456Y0182565D01*
X0110059Y0182565D01*
X0107656Y0184967D01*
X0107656Y0188365D01*
X0110059Y0190768D01*
X0113456Y0190768D01*
X0113589Y0190635D01*
X0115246Y0192292D01*
X0115246Y0194215D01*
X0113497Y0192466D01*
X0112157Y0192466D01*
X0112157Y0196266D01*
X0111357Y0196266D01*
X0107557Y0196266D01*
X0107557Y0194926D01*
X0110018Y0192466D01*
X0111357Y0192466D01*
X0111357Y0196266D01*
X0111357Y0197066D01*
X0107557Y0197066D01*
X0107557Y0198406D01*
X0110018Y0200866D01*
X0111357Y0200866D01*
X0111357Y0197066D01*
X0112157Y0197066D01*
X0112157Y0200866D01*
X0113497Y0200866D01*
X0115246Y0199118D01*
X0115246Y0200942D01*
X0116131Y0201828D01*
X0126642Y0212339D01*
X0127895Y0212339D01*
X0258362Y0212339D01*
X0259247Y0211453D01*
X0272813Y0197888D01*
X0272813Y0177523D01*
X0281986Y0177523D01*
X0282353Y0177621D01*
X0283101Y0177621D01*
X0283101Y0173221D01*
X0283101Y0173221D01*
X0283101Y0173669D02*
X0283101Y0173669D01*
X0283101Y0172671D02*
X0283101Y0172671D01*
X0283101Y0171672D02*
X0283101Y0171672D01*
X0283101Y0170674D02*
X0283101Y0170674D01*
X0283101Y0169675D02*
X0283101Y0169675D01*
X0283589Y0168677D02*
X0241098Y0168677D01*
X0240403Y0169675D02*
X0253615Y0169675D01*
X0253549Y0170674D02*
X0240502Y0170674D01*
X0240345Y0171672D02*
X0253549Y0171672D01*
X0253549Y0172671D02*
X0239871Y0172671D01*
X0238694Y0173669D02*
X0253549Y0173669D01*
X0253549Y0174668D02*
X0015721Y0174668D01*
X0015721Y0175666D02*
X0253549Y0175666D01*
X0253549Y0176665D02*
X0015721Y0176665D01*
X0015721Y0177663D02*
X0253989Y0177663D01*
X0253989Y0178662D02*
X0015721Y0178662D01*
X0015721Y0179660D02*
X0253989Y0179660D01*
X0253989Y0180659D02*
X0015721Y0180659D01*
X0015721Y0181657D02*
X0253989Y0181657D01*
X0253989Y0182656D02*
X0213687Y0182656D01*
X0213497Y0182466D02*
X0215957Y0184926D01*
X0215957Y0186266D01*
X0212158Y0186266D01*
X0212158Y0187066D01*
X0215957Y0187066D01*
X0215957Y0188406D01*
X0213497Y0190866D01*
X0212157Y0190866D01*
X0212157Y0187066D01*
X0211357Y0187066D01*
X0211357Y0186266D01*
X0207557Y0186266D01*
X0207557Y0184926D01*
X0210018Y0182466D01*
X0211357Y0182466D01*
X0211357Y0186266D01*
X0212157Y0186266D01*
X0212157Y0182466D01*
X0213497Y0182466D01*
X0212157Y0182656D02*
X0211357Y0182656D01*
X0211357Y0183654D02*
X0212157Y0183654D01*
X0212157Y0184653D02*
X0211357Y0184653D01*
X0211357Y0185651D02*
X0212157Y0185651D01*
X0212158Y0186650D02*
X0253989Y0186650D01*
X0253989Y0187648D02*
X0215957Y0187648D01*
X0215716Y0188647D02*
X0254907Y0188647D01*
X0255906Y0189645D02*
X0214718Y0189645D01*
X0213719Y0190644D02*
X0255809Y0190644D01*
X0255839Y0191642D02*
X0138348Y0191642D01*
X0138348Y0192641D02*
X0139982Y0192641D01*
X0138984Y0193639D02*
X0138348Y0193639D01*
X0136836Y0191745D02*
X0131757Y0186666D01*
X0127656Y0186650D02*
X0125859Y0186650D01*
X0125859Y0187648D02*
X0127656Y0187648D01*
X0127938Y0188647D02*
X0125876Y0188647D01*
X0126875Y0189645D02*
X0128936Y0189645D01*
X0129935Y0190644D02*
X0127873Y0190644D01*
X0128505Y0191642D02*
X0134596Y0191642D01*
X0135324Y0192641D02*
X0133533Y0192641D01*
X0134531Y0193639D02*
X0135324Y0193639D01*
X0136836Y0191745D02*
X0136836Y0199502D01*
X0144364Y0207030D01*
X0256007Y0207030D01*
X0267301Y0195736D01*
X0267301Y0173221D01*
X0269301Y0173221D02*
X0269301Y0196415D01*
X0256756Y0208960D01*
X0135776Y0208960D01*
X0126994Y0200178D01*
X0126994Y0191902D01*
X0121757Y0186666D01*
X0117656Y0186650D02*
X0115859Y0186650D01*
X0115859Y0187648D02*
X0117656Y0187648D01*
X0117938Y0188647D02*
X0115876Y0188647D01*
X0116875Y0189645D02*
X0118936Y0189645D01*
X0119935Y0190644D02*
X0117873Y0190644D01*
X0118269Y0191642D02*
X0124596Y0191642D01*
X0125482Y0192641D02*
X0123533Y0192641D01*
X0124531Y0193639D02*
X0125482Y0193639D01*
X0128505Y0193639D02*
X0128984Y0193639D01*
X0128505Y0192641D02*
X0129982Y0192641D01*
X0133580Y0190644D02*
X0133597Y0190644D01*
X0135876Y0188647D02*
X0137799Y0188647D01*
X0137557Y0188406D02*
X0137557Y0187066D01*
X0141357Y0187066D01*
X0141357Y0186266D01*
X0137557Y0186266D01*
X0137557Y0184926D01*
X0140018Y0182466D01*
X0141357Y0182466D01*
X0141357Y0186266D01*
X0142157Y0186266D01*
X0142157Y0182466D01*
X0143497Y0182466D01*
X0145957Y0184926D01*
X0145957Y0186266D01*
X0142158Y0186266D01*
X0142158Y0187066D01*
X0145957Y0187066D01*
X0145957Y0188406D01*
X0143497Y0190866D01*
X0142157Y0190866D01*
X0142157Y0187066D01*
X0141357Y0187066D01*
X0141357Y0190866D01*
X0140018Y0190866D01*
X0137557Y0188406D01*
X0137557Y0187648D02*
X0135859Y0187648D01*
X0135859Y0186650D02*
X0141357Y0186650D01*
X0142158Y0186650D02*
X0147656Y0186650D01*
X0147656Y0187648D02*
X0145957Y0187648D01*
X0145716Y0188647D02*
X0147938Y0188647D01*
X0147656Y0188365D02*
X0147656Y0184967D01*
X0150059Y0182565D01*
X0153456Y0182565D01*
X0155859Y0184967D01*
X0155859Y0188365D01*
X0153456Y0190768D01*
X0150059Y0190768D01*
X0147656Y0188365D01*
X0148936Y0189645D02*
X0144718Y0189645D01*
X0143719Y0190644D02*
X0149935Y0190644D01*
X0150059Y0192565D02*
X0153456Y0192565D01*
X0155859Y0194967D01*
X0155859Y0198365D01*
X0153456Y0200768D01*
X0150059Y0200768D01*
X0147656Y0198365D01*
X0147656Y0194967D01*
X0150059Y0192565D01*
X0149982Y0192641D02*
X0143533Y0192641D01*
X0144531Y0193639D02*
X0148984Y0193639D01*
X0147985Y0194638D02*
X0145530Y0194638D01*
X0145859Y0195637D02*
X0147656Y0195637D01*
X0147656Y0196635D02*
X0145859Y0196635D01*
X0145859Y0197634D02*
X0147656Y0197634D01*
X0147923Y0198632D02*
X0145592Y0198632D01*
X0144594Y0199631D02*
X0148921Y0199631D01*
X0149920Y0200629D02*
X0143595Y0200629D01*
X0142099Y0202626D02*
X0243572Y0202626D01*
X0242089Y0201628D02*
X0141100Y0201628D01*
X0143097Y0203625D02*
X0257274Y0203625D01*
X0256276Y0204623D02*
X0144096Y0204623D01*
X0153595Y0200629D02*
X0159781Y0200629D01*
X0160018Y0200866D02*
X0157557Y0198406D01*
X0157557Y0197066D01*
X0161357Y0197066D01*
X0161357Y0196266D01*
X0157557Y0196266D01*
X0157557Y0194926D01*
X0160018Y0192466D01*
X0161357Y0192466D01*
X0161357Y0196266D01*
X0162157Y0196266D01*
X0162157Y0192466D01*
X0163497Y0192466D01*
X0165957Y0194926D01*
X0165957Y0196266D01*
X0162158Y0196266D01*
X0162158Y0197066D01*
X0165957Y0197066D01*
X0165957Y0198406D01*
X0163497Y0200866D01*
X0162157Y0200866D01*
X0162157Y0197066D01*
X0161357Y0197066D01*
X0161357Y0200866D01*
X0160018Y0200866D01*
X0161357Y0200629D02*
X0162157Y0200629D01*
X0162157Y0199631D02*
X0161357Y0199631D01*
X0161357Y0198632D02*
X0162157Y0198632D01*
X0162157Y0197634D02*
X0161357Y0197634D01*
X0161357Y0196635D02*
X0155859Y0196635D01*
X0155859Y0195637D02*
X0157557Y0195637D01*
X0157846Y0194638D02*
X0155530Y0194638D01*
X0154531Y0193639D02*
X0158844Y0193639D01*
X0159843Y0192641D02*
X0153533Y0192641D01*
X0153580Y0190644D02*
X0159935Y0190644D01*
X0160059Y0190768D02*
X0157656Y0188365D01*
X0157656Y0184967D01*
X0160059Y0182565D01*
X0163456Y0182565D01*
X0165859Y0184967D01*
X0165859Y0188365D01*
X0163456Y0190768D01*
X0160059Y0190768D01*
X0158936Y0189645D02*
X0154579Y0189645D01*
X0155577Y0188647D02*
X0157938Y0188647D01*
X0157656Y0187648D02*
X0155859Y0187648D01*
X0155859Y0186650D02*
X0157656Y0186650D01*
X0157656Y0185651D02*
X0155859Y0185651D01*
X0155545Y0184653D02*
X0157970Y0184653D01*
X0158969Y0183654D02*
X0154546Y0183654D01*
X0153548Y0182656D02*
X0159967Y0182656D01*
X0163548Y0182656D02*
X0169967Y0182656D01*
X0170059Y0182565D02*
X0173456Y0182565D01*
X0175859Y0184967D01*
X0175859Y0188365D01*
X0173456Y0190768D01*
X0170059Y0190768D01*
X0167656Y0188365D01*
X0167656Y0184967D01*
X0170059Y0182565D01*
X0168969Y0183654D02*
X0164546Y0183654D01*
X0165545Y0184653D02*
X0167970Y0184653D01*
X0167656Y0185651D02*
X0165859Y0185651D01*
X0165859Y0186650D02*
X0167656Y0186650D01*
X0167656Y0187648D02*
X0165859Y0187648D01*
X0165577Y0188647D02*
X0167938Y0188647D01*
X0168936Y0189645D02*
X0164579Y0189645D01*
X0163580Y0190644D02*
X0169935Y0190644D01*
X0170059Y0192565D02*
X0173456Y0192565D01*
X0175859Y0194967D01*
X0175859Y0198365D01*
X0173456Y0200768D01*
X0170059Y0200768D01*
X0167656Y0198365D01*
X0167656Y0194967D01*
X0170059Y0192565D01*
X0169982Y0192641D02*
X0163672Y0192641D01*
X0164671Y0193639D02*
X0168984Y0193639D01*
X0167985Y0194638D02*
X0165669Y0194638D01*
X0165957Y0195637D02*
X0167656Y0195637D01*
X0167656Y0196635D02*
X0162158Y0196635D01*
X0162157Y0195637D02*
X0161357Y0195637D01*
X0161357Y0194638D02*
X0162157Y0194638D01*
X0162157Y0193639D02*
X0161357Y0193639D01*
X0161357Y0192641D02*
X0162157Y0192641D01*
X0165957Y0197634D02*
X0167656Y0197634D01*
X0167923Y0198632D02*
X0165731Y0198632D01*
X0164733Y0199631D02*
X0168921Y0199631D01*
X0169920Y0200629D02*
X0163734Y0200629D01*
X0158782Y0199631D02*
X0154594Y0199631D01*
X0155592Y0198632D02*
X0157784Y0198632D01*
X0157557Y0197634D02*
X0155859Y0197634D01*
X0142157Y0190644D02*
X0141357Y0190644D01*
X0141357Y0189645D02*
X0142157Y0189645D01*
X0142157Y0188647D02*
X0141357Y0188647D01*
X0141357Y0187648D02*
X0142157Y0187648D01*
X0142157Y0185651D02*
X0141357Y0185651D01*
X0141357Y0184653D02*
X0142157Y0184653D01*
X0142157Y0183654D02*
X0141357Y0183654D01*
X0141357Y0182656D02*
X0142157Y0182656D01*
X0143687Y0182656D02*
X0149967Y0182656D01*
X0148969Y0183654D02*
X0144685Y0183654D01*
X0145684Y0184653D02*
X0147970Y0184653D01*
X0147656Y0185651D02*
X0145957Y0185651D01*
X0139828Y0182656D02*
X0133548Y0182656D01*
X0134546Y0183654D02*
X0138830Y0183654D01*
X0137831Y0184653D02*
X0135545Y0184653D01*
X0135859Y0185651D02*
X0137557Y0185651D01*
X0136875Y0189645D02*
X0138797Y0189645D01*
X0137873Y0190644D02*
X0139796Y0190644D01*
X0128969Y0183654D02*
X0124546Y0183654D01*
X0123548Y0182656D02*
X0129967Y0182656D01*
X0127970Y0184653D02*
X0125545Y0184653D01*
X0125859Y0185651D02*
X0127656Y0185651D01*
X0123597Y0190644D02*
X0123580Y0190644D01*
X0119982Y0192641D02*
X0118269Y0192641D01*
X0118269Y0193639D02*
X0118984Y0193639D01*
X0116757Y0191666D02*
X0111757Y0186666D01*
X0107656Y0186650D02*
X0105859Y0186650D01*
X0105859Y0187648D02*
X0107656Y0187648D01*
X0107938Y0188647D02*
X0105577Y0188647D01*
X0105859Y0188365D02*
X0103456Y0190768D01*
X0100059Y0190768D01*
X0097656Y0188365D01*
X0097656Y0184967D01*
X0100059Y0182565D01*
X0103456Y0182565D01*
X0105859Y0184967D01*
X0105859Y0188365D01*
X0104579Y0189645D02*
X0108936Y0189645D01*
X0109935Y0190644D02*
X0103580Y0190644D01*
X0103456Y0192565D02*
X0105859Y0194967D01*
X0105859Y0198365D01*
X0103456Y0200768D01*
X0100059Y0200768D01*
X0097656Y0198365D01*
X0097656Y0194967D01*
X0100059Y0192565D01*
X0103456Y0192565D01*
X0103533Y0192641D02*
X0109843Y0192641D01*
X0108844Y0193639D02*
X0104531Y0193639D01*
X0105530Y0194638D02*
X0107846Y0194638D01*
X0107557Y0195637D02*
X0105859Y0195637D01*
X0105859Y0196635D02*
X0111357Y0196635D01*
X0111357Y0195637D02*
X0112157Y0195637D01*
X0112157Y0194638D02*
X0111357Y0194638D01*
X0111357Y0193639D02*
X0112157Y0193639D01*
X0112157Y0192641D02*
X0111357Y0192641D01*
X0113672Y0192641D02*
X0115246Y0192641D01*
X0115246Y0193639D02*
X0114671Y0193639D01*
X0114596Y0191642D02*
X0015721Y0191642D01*
X0015721Y0190644D02*
X0020643Y0190644D01*
X0020942Y0190768D02*
X0019434Y0190143D01*
X0018280Y0188989D01*
X0017656Y0187482D01*
X0017656Y0185850D01*
X0018280Y0184343D01*
X0019434Y0183189D01*
X0020942Y0182565D01*
X0022573Y0182565D01*
X0024081Y0183189D01*
X0025235Y0184343D01*
X0025859Y0185850D01*
X0025859Y0187482D01*
X0025235Y0188989D01*
X0024081Y0190143D01*
X0022573Y0190768D01*
X0020942Y0190768D01*
X0022872Y0190644D02*
X0029935Y0190644D01*
X0030059Y0190768D02*
X0027656Y0188365D01*
X0027656Y0184967D01*
X0030059Y0182565D01*
X0033456Y0182565D01*
X0035859Y0184967D01*
X0035859Y0188365D01*
X0033456Y0190768D01*
X0030059Y0190768D01*
X0028936Y0189645D02*
X0024579Y0189645D01*
X0025377Y0188647D02*
X0027938Y0188647D01*
X0027656Y0187648D02*
X0025790Y0187648D01*
X0025859Y0186650D02*
X0027656Y0186650D01*
X0027656Y0185651D02*
X0025777Y0185651D01*
X0025363Y0184653D02*
X0027970Y0184653D01*
X0028969Y0183654D02*
X0024546Y0183654D01*
X0022794Y0182656D02*
X0029967Y0182656D01*
X0033548Y0182656D02*
X0039967Y0182656D01*
X0040059Y0182565D02*
X0043456Y0182565D01*
X0045859Y0184967D01*
X0045859Y0188365D01*
X0043456Y0190768D01*
X0040059Y0190768D01*
X0037656Y0188365D01*
X0037656Y0184967D01*
X0040059Y0182565D01*
X0038969Y0183654D02*
X0034546Y0183654D01*
X0035545Y0184653D02*
X0037970Y0184653D01*
X0037656Y0185651D02*
X0035859Y0185651D01*
X0035859Y0186650D02*
X0037656Y0186650D01*
X0037656Y0187648D02*
X0035859Y0187648D01*
X0035577Y0188647D02*
X0037938Y0188647D01*
X0038936Y0189645D02*
X0034579Y0189645D01*
X0033580Y0190644D02*
X0039935Y0190644D01*
X0040018Y0192466D02*
X0041357Y0192466D01*
X0041357Y0196266D01*
X0037557Y0196266D01*
X0037557Y0194926D01*
X0040018Y0192466D01*
X0039843Y0192641D02*
X0033533Y0192641D01*
X0033456Y0192565D02*
X0035859Y0194967D01*
X0035859Y0198365D01*
X0033456Y0200768D01*
X0030059Y0200768D01*
X0027769Y0198478D01*
X0025746Y0198478D01*
X0023456Y0200768D01*
X0020059Y0200768D01*
X0017769Y0198478D01*
X0016086Y0198478D01*
X0015024Y0197417D01*
X0015024Y0197417D01*
X0013159Y0195551D01*
X0013159Y0195551D01*
X0012098Y0194490D01*
X0012098Y0156859D01*
X0012022Y0156764D01*
X0012098Y0156124D01*
X0012098Y0155481D01*
X0012184Y0155394D01*
X0012199Y0155273D01*
X0012704Y0154874D01*
X0013159Y0154419D01*
X0013281Y0154419D01*
X0048410Y0126717D01*
X0048410Y0124197D01*
X0048257Y0124134D01*
X0047282Y0123158D01*
X0046754Y0121884D01*
X0046754Y0120504D01*
X0047282Y0119229D01*
X0048257Y0118253D01*
X0049532Y0117725D01*
X0050912Y0117725D01*
X0052187Y0118253D01*
X0053162Y0119229D01*
X0053691Y0120504D01*
X0053691Y0121884D01*
X0053162Y0123158D01*
X0052187Y0124134D01*
X0052034Y0124197D01*
X0052034Y0126967D01*
X0052109Y0127063D01*
X0052034Y0127703D01*
X0052034Y0128346D01*
X0051948Y0128433D01*
X0051933Y0128554D01*
X0051428Y0128952D01*
X0050973Y0129408D01*
X0050850Y0129408D01*
X0015721Y0157110D01*
X0015721Y0192989D01*
X0017587Y0194854D01*
X0017769Y0194854D01*
X0020059Y0192565D01*
X0023456Y0192565D01*
X0025746Y0194854D01*
X0027769Y0194854D01*
X0030059Y0192565D01*
X0033456Y0192565D01*
X0034531Y0193639D02*
X0038844Y0193639D01*
X0037846Y0194638D02*
X0035530Y0194638D01*
X0035859Y0195637D02*
X0037557Y0195637D01*
X0037557Y0197066D02*
X0041357Y0197066D01*
X0041357Y0196266D01*
X0042157Y0196266D01*
X0042157Y0192466D01*
X0043497Y0192466D01*
X0045957Y0194926D01*
X0045957Y0196266D01*
X0042158Y0196266D01*
X0042158Y0197066D01*
X0045957Y0197066D01*
X0045957Y0198406D01*
X0043497Y0200866D01*
X0042157Y0200866D01*
X0042157Y0197066D01*
X0041357Y0197066D01*
X0041357Y0200866D01*
X0040018Y0200866D01*
X0037557Y0198406D01*
X0037557Y0197066D01*
X0037557Y0197634D02*
X0035859Y0197634D01*
X0035859Y0196635D02*
X0041357Y0196635D01*
X0042158Y0196635D02*
X0047656Y0196635D01*
X0047656Y0195637D02*
X0045957Y0195637D01*
X0045669Y0194638D02*
X0047985Y0194638D01*
X0047656Y0194967D02*
X0050059Y0192565D01*
X0053456Y0192565D01*
X0055859Y0194967D01*
X0055859Y0198365D01*
X0053456Y0200768D01*
X0050059Y0200768D01*
X0047656Y0198365D01*
X0047656Y0194967D01*
X0048984Y0193639D02*
X0044671Y0193639D01*
X0043672Y0192641D02*
X0049982Y0192641D01*
X0050059Y0190768D02*
X0047656Y0188365D01*
X0047656Y0184967D01*
X0050059Y0182565D01*
X0053456Y0182565D01*
X0055859Y0184967D01*
X0055859Y0188365D01*
X0053456Y0190768D01*
X0050059Y0190768D01*
X0049935Y0190644D02*
X0043580Y0190644D01*
X0044579Y0189645D02*
X0048936Y0189645D01*
X0047938Y0188647D02*
X0045577Y0188647D01*
X0045859Y0187648D02*
X0047656Y0187648D01*
X0047656Y0186650D02*
X0045859Y0186650D01*
X0045859Y0185651D02*
X0047656Y0185651D01*
X0047970Y0184653D02*
X0045545Y0184653D01*
X0044546Y0183654D02*
X0048969Y0183654D01*
X0049967Y0182656D02*
X0043548Y0182656D01*
X0053548Y0182656D02*
X0059828Y0182656D01*
X0060018Y0182466D02*
X0061357Y0182466D01*
X0061357Y0186266D01*
X0057557Y0186266D01*
X0057557Y0184926D01*
X0060018Y0182466D01*
X0061357Y0182656D02*
X0062157Y0182656D01*
X0062157Y0182466D02*
X0063497Y0182466D01*
X0065957Y0184926D01*
X0065957Y0186266D01*
X0062158Y0186266D01*
X0062158Y0187066D01*
X0065957Y0187066D01*
X0065957Y0188406D01*
X0063497Y0190866D01*
X0062157Y0190866D01*
X0062157Y0187066D01*
X0061357Y0187066D01*
X0061357Y0186266D01*
X0062157Y0186266D01*
X0062157Y0182466D01*
X0062157Y0183654D02*
X0061357Y0183654D01*
X0061357Y0184653D02*
X0062157Y0184653D01*
X0062157Y0185651D02*
X0061357Y0185651D01*
X0061357Y0186650D02*
X0055859Y0186650D01*
X0055859Y0187648D02*
X0057557Y0187648D01*
X0057557Y0187066D02*
X0061357Y0187066D01*
X0061357Y0190866D01*
X0060018Y0190866D01*
X0057557Y0188406D01*
X0057557Y0187066D01*
X0057557Y0185651D02*
X0055859Y0185651D01*
X0055545Y0184653D02*
X0057831Y0184653D01*
X0058830Y0183654D02*
X0054546Y0183654D01*
X0055577Y0188647D02*
X0057799Y0188647D01*
X0058797Y0189645D02*
X0054579Y0189645D01*
X0053580Y0190644D02*
X0059796Y0190644D01*
X0061357Y0190644D02*
X0062157Y0190644D01*
X0062157Y0189645D02*
X0061357Y0189645D01*
X0061357Y0188647D02*
X0062157Y0188647D01*
X0062157Y0187648D02*
X0061357Y0187648D01*
X0062158Y0186650D02*
X0067656Y0186650D01*
X0067656Y0187648D02*
X0065957Y0187648D01*
X0065716Y0188647D02*
X0067938Y0188647D01*
X0067656Y0188365D02*
X0067656Y0184967D01*
X0070059Y0182565D01*
X0073456Y0182565D01*
X0075859Y0184967D01*
X0075859Y0188365D01*
X0073456Y0190768D01*
X0070059Y0190768D01*
X0067656Y0188365D01*
X0068936Y0189645D02*
X0064718Y0189645D01*
X0063719Y0190644D02*
X0069935Y0190644D01*
X0070059Y0192565D02*
X0073456Y0192565D01*
X0075859Y0194967D01*
X0075859Y0198365D01*
X0073456Y0200768D01*
X0070059Y0200768D01*
X0067656Y0198365D01*
X0067656Y0194967D01*
X0070059Y0192565D01*
X0069982Y0192641D02*
X0063533Y0192641D01*
X0063456Y0192565D02*
X0065859Y0194967D01*
X0065859Y0198365D01*
X0063456Y0200768D01*
X0060059Y0200768D01*
X0057656Y0198365D01*
X0057656Y0194967D01*
X0060059Y0192565D01*
X0063456Y0192565D01*
X0064531Y0193639D02*
X0068984Y0193639D01*
X0067985Y0194638D02*
X0065530Y0194638D01*
X0065859Y0195637D02*
X0067656Y0195637D01*
X0067656Y0196635D02*
X0065859Y0196635D01*
X0065859Y0197634D02*
X0067656Y0197634D01*
X0067923Y0198632D02*
X0065592Y0198632D01*
X0064594Y0199631D02*
X0068921Y0199631D01*
X0069920Y0200629D02*
X0063595Y0200629D01*
X0059920Y0200629D02*
X0053595Y0200629D01*
X0054594Y0199631D02*
X0058921Y0199631D01*
X0057923Y0198632D02*
X0055592Y0198632D01*
X0055859Y0197634D02*
X0057656Y0197634D01*
X0057656Y0196635D02*
X0055859Y0196635D01*
X0055859Y0195637D02*
X0057656Y0195637D01*
X0057985Y0194638D02*
X0055530Y0194638D01*
X0054531Y0193639D02*
X0058984Y0193639D01*
X0059982Y0192641D02*
X0053533Y0192641D01*
X0047656Y0197634D02*
X0045957Y0197634D01*
X0045731Y0198632D02*
X0047923Y0198632D01*
X0048921Y0199631D02*
X0044733Y0199631D01*
X0043734Y0200629D02*
X0049920Y0200629D01*
X0042157Y0200629D02*
X0041357Y0200629D01*
X0041357Y0199631D02*
X0042157Y0199631D01*
X0042157Y0198632D02*
X0041357Y0198632D01*
X0041357Y0197634D02*
X0042157Y0197634D01*
X0042157Y0195637D02*
X0041357Y0195637D01*
X0041357Y0194638D02*
X0042157Y0194638D01*
X0042157Y0193639D02*
X0041357Y0193639D01*
X0041357Y0192641D02*
X0042157Y0192641D01*
X0037784Y0198632D02*
X0035592Y0198632D01*
X0034594Y0199631D02*
X0038782Y0199631D01*
X0039781Y0200629D02*
X0033595Y0200629D01*
X0029920Y0200629D02*
X0023595Y0200629D01*
X0024594Y0199631D02*
X0028921Y0199631D01*
X0027923Y0198632D02*
X0025592Y0198632D01*
X0019920Y0200629D02*
X0006801Y0200629D01*
X0006800Y0199631D02*
X0018921Y0199631D01*
X0017923Y0198632D02*
X0006799Y0198632D01*
X0006798Y0197634D02*
X0015241Y0197634D01*
X0014243Y0196635D02*
X0006797Y0196635D01*
X0006796Y0195637D02*
X0013244Y0195637D01*
X0012246Y0194638D02*
X0006795Y0194638D01*
X0006794Y0193639D02*
X0012098Y0193639D01*
X0012098Y0192641D02*
X0006793Y0192641D01*
X0006792Y0191642D02*
X0012098Y0191642D01*
X0012098Y0190644D02*
X0006791Y0190644D01*
X0006790Y0189645D02*
X0012098Y0189645D01*
X0012098Y0188647D02*
X0006789Y0188647D01*
X0006788Y0187648D02*
X0012098Y0187648D01*
X0012098Y0186650D02*
X0006787Y0186650D01*
X0006786Y0185651D02*
X0012098Y0185651D01*
X0012098Y0184653D02*
X0006785Y0184653D01*
X0006784Y0183654D02*
X0012098Y0183654D01*
X0012098Y0182656D02*
X0006783Y0182656D01*
X0006782Y0181657D02*
X0012098Y0181657D01*
X0012098Y0180659D02*
X0006781Y0180659D01*
X0006780Y0179660D02*
X0012098Y0179660D01*
X0012098Y0178662D02*
X0006779Y0178662D01*
X0006778Y0177663D02*
X0012098Y0177663D01*
X0012098Y0176665D02*
X0006777Y0176665D01*
X0006776Y0175666D02*
X0012098Y0175666D01*
X0012098Y0174668D02*
X0006775Y0174668D01*
X0006774Y0173669D02*
X0012098Y0173669D01*
X0012098Y0172671D02*
X0006773Y0172671D01*
X0006772Y0171672D02*
X0012098Y0171672D01*
X0012098Y0170674D02*
X0006771Y0170674D01*
X0006770Y0169675D02*
X0012098Y0169675D01*
X0012098Y0168677D02*
X0006769Y0168677D01*
X0006768Y0167678D02*
X0012098Y0167678D01*
X0012098Y0166680D02*
X0006767Y0166680D01*
X0006766Y0165681D02*
X0012098Y0165681D01*
X0012098Y0164683D02*
X0006765Y0164683D01*
X0006764Y0163684D02*
X0012098Y0163684D01*
X0012098Y0162686D02*
X0006763Y0162686D01*
X0006762Y0161687D02*
X0012098Y0161687D01*
X0012098Y0160689D02*
X0006761Y0160689D01*
X0006760Y0159690D02*
X0012098Y0159690D01*
X0012098Y0158692D02*
X0006759Y0158692D01*
X0006758Y0157693D02*
X0012098Y0157693D01*
X0012030Y0156695D02*
X0006757Y0156695D01*
X0006756Y0155696D02*
X0012098Y0155696D01*
X0012881Y0154698D02*
X0006755Y0154698D01*
X0006754Y0153699D02*
X0014195Y0153699D01*
X0015461Y0152701D02*
X0006753Y0152701D01*
X0006752Y0151702D02*
X0016727Y0151702D01*
X0017993Y0150704D02*
X0006751Y0150704D01*
X0006750Y0149705D02*
X0019259Y0149705D01*
X0020526Y0148706D02*
X0006749Y0148706D01*
X0006748Y0147708D02*
X0021792Y0147708D01*
X0023058Y0146709D02*
X0006747Y0146709D01*
X0006746Y0145711D02*
X0024324Y0145711D01*
X0025590Y0144712D02*
X0006745Y0144712D01*
X0006744Y0143714D02*
X0026857Y0143714D01*
X0028123Y0142715D02*
X0006743Y0142715D01*
X0006742Y0141717D02*
X0029389Y0141717D01*
X0030655Y0140718D02*
X0006741Y0140718D01*
X0006740Y0139720D02*
X0031922Y0139720D01*
X0033188Y0138721D02*
X0006739Y0138721D01*
X0006738Y0137723D02*
X0034454Y0137723D01*
X0035720Y0136724D02*
X0006737Y0136724D01*
X0006736Y0135726D02*
X0015017Y0135726D01*
X0015374Y0136083D02*
X0012971Y0133680D01*
X0012971Y0130282D01*
X0013443Y0129811D01*
X0013443Y0124152D01*
X0012971Y0123680D01*
X0012971Y0120282D01*
X0015374Y0117880D01*
X0018771Y0117880D01*
X0019361Y0118469D01*
X0024784Y0118469D01*
X0025374Y0117880D01*
X0028771Y0117880D01*
X0031174Y0120282D01*
X0031174Y0123680D01*
X0030584Y0124270D01*
X0030584Y0129692D01*
X0031174Y0130282D01*
X0031174Y0133680D01*
X0028771Y0136083D01*
X0025374Y0136083D01*
X0024784Y0135493D01*
X0019361Y0135493D01*
X0018771Y0136083D01*
X0015374Y0136083D01*
X0014018Y0134727D02*
X0006735Y0134727D01*
X0006734Y0133729D02*
X0013020Y0133729D01*
X0012971Y0132730D02*
X0006733Y0132730D01*
X0006732Y0131732D02*
X0012971Y0131732D01*
X0012971Y0130733D02*
X0006731Y0130733D01*
X0006730Y0129735D02*
X0013443Y0129735D01*
X0013443Y0128736D02*
X0006729Y0128736D01*
X0006728Y0127738D02*
X0013443Y0127738D01*
X0013443Y0126739D02*
X0006727Y0126739D01*
X0006726Y0125741D02*
X0013443Y0125741D01*
X0013443Y0124742D02*
X0006725Y0124742D01*
X0006724Y0123744D02*
X0013035Y0123744D01*
X0012971Y0122745D02*
X0006723Y0122745D01*
X0006722Y0121747D02*
X0012971Y0121747D01*
X0012971Y0120748D02*
X0006721Y0120748D01*
X0006720Y0119750D02*
X0013503Y0119750D01*
X0014502Y0118751D02*
X0006719Y0118751D01*
X0006718Y0117753D02*
X0049466Y0117753D01*
X0050978Y0117753D02*
X0234664Y0117753D01*
X0233666Y0118751D02*
X0052685Y0118751D01*
X0053378Y0119750D02*
X0232667Y0119750D01*
X0231669Y0120748D02*
X0053691Y0120748D01*
X0053691Y0121747D02*
X0230670Y0121747D01*
X0229672Y0122745D02*
X0053334Y0122745D01*
X0052577Y0123744D02*
X0228673Y0123744D01*
X0227675Y0124742D02*
X0052034Y0124742D01*
X0052034Y0125741D02*
X0226676Y0125741D01*
X0225678Y0126739D02*
X0052034Y0126739D01*
X0052034Y0127738D02*
X0225285Y0127738D01*
X0225285Y0128736D02*
X0051702Y0128736D01*
X0050436Y0129735D02*
X0090507Y0129735D01*
X0089321Y0130733D02*
X0049169Y0130733D01*
X0047903Y0131732D02*
X0088843Y0131732D01*
X0088683Y0132730D02*
X0046637Y0132730D01*
X0045371Y0133729D02*
X0086826Y0133729D01*
X0085720Y0134727D02*
X0044105Y0134727D01*
X0042838Y0135726D02*
X0085276Y0135726D01*
X0085139Y0136724D02*
X0041572Y0136724D01*
X0040306Y0137723D02*
X0085259Y0137723D01*
X0085679Y0138721D02*
X0039040Y0138721D01*
X0037774Y0139720D02*
X0074774Y0139720D01*
X0075123Y0139576D02*
X0073848Y0140104D01*
X0072872Y0141079D01*
X0072344Y0142354D01*
X0072344Y0143734D01*
X0072872Y0145009D01*
X0073848Y0145985D01*
X0075123Y0146513D01*
X0076503Y0146513D01*
X0077777Y0145985D01*
X0078753Y0145009D01*
X0078941Y0144556D01*
X0108511Y0144556D01*
X0108699Y0145009D01*
X0109675Y0145985D01*
X0110949Y0146513D01*
X0112329Y0146513D01*
X0113604Y0145985D01*
X0114580Y0145009D01*
X0115108Y0143734D01*
X0115108Y0142354D01*
X0114580Y0141079D01*
X0113604Y0140104D01*
X0112329Y0139576D01*
X0110949Y0139576D01*
X0109675Y0140104D01*
X0108699Y0141079D01*
X0108511Y0141532D01*
X0078941Y0141532D01*
X0078753Y0141079D01*
X0077777Y0140104D01*
X0076503Y0139576D01*
X0075123Y0139576D01*
X0076851Y0139720D02*
X0086727Y0139720D01*
X0088608Y0136745D02*
X0132112Y0136745D01*
X0175616Y0136745D01*
X0219120Y0136745D01*
X0222588Y0136724D02*
X0224483Y0136724D01*
X0224847Y0135726D02*
X0225285Y0135726D01*
X0226797Y0136548D02*
X0220301Y0143044D01*
X0206324Y0143044D01*
X0203120Y0141717D02*
X0201852Y0141717D01*
X0202116Y0142354D02*
X0201588Y0141079D01*
X0200612Y0140104D01*
X0199337Y0139576D01*
X0197957Y0139576D01*
X0196682Y0140104D01*
X0195707Y0141079D01*
X0195519Y0141532D01*
X0165949Y0141532D01*
X0165761Y0141079D01*
X0164785Y0140104D01*
X0163510Y0139576D01*
X0162131Y0139576D01*
X0160856Y0140104D01*
X0159880Y0141079D01*
X0159352Y0142354D01*
X0159352Y0143734D01*
X0159880Y0145009D01*
X0160856Y0145985D01*
X0162131Y0146513D01*
X0163510Y0146513D01*
X0164785Y0145985D01*
X0165761Y0145009D01*
X0165949Y0144556D01*
X0195519Y0144556D01*
X0195707Y0145009D01*
X0196682Y0145985D01*
X0197957Y0146513D01*
X0199337Y0146513D01*
X0200612Y0145985D01*
X0201588Y0145009D01*
X0202116Y0143734D01*
X0202116Y0142354D01*
X0202116Y0142715D02*
X0202856Y0142715D01*
X0202856Y0143714D02*
X0202116Y0143714D01*
X0201710Y0144712D02*
X0203261Y0144712D01*
X0204086Y0145711D02*
X0200886Y0145711D01*
X0198647Y0143044D02*
X0162820Y0143044D01*
X0159616Y0141717D02*
X0158348Y0141717D01*
X0158612Y0142354D02*
X0158612Y0143734D01*
X0158084Y0145009D01*
X0157108Y0145985D01*
X0155833Y0146513D01*
X0154453Y0146513D01*
X0153179Y0145985D01*
X0152203Y0145009D01*
X0152015Y0144556D01*
X0122445Y0144556D01*
X0122257Y0145009D01*
X0121281Y0145985D01*
X0120006Y0146513D01*
X0118627Y0146513D01*
X0117352Y0145985D01*
X0116376Y0145009D01*
X0115848Y0143734D01*
X0115848Y0142354D01*
X0116376Y0141079D01*
X0117352Y0140104D01*
X0118627Y0139576D01*
X0120006Y0139576D01*
X0121281Y0140104D01*
X0122257Y0141079D01*
X0122445Y0141532D01*
X0152015Y0141532D01*
X0152203Y0141079D01*
X0153179Y0140104D01*
X0154453Y0139576D01*
X0155833Y0139576D01*
X0157108Y0140104D01*
X0158084Y0141079D01*
X0158612Y0142354D01*
X0158612Y0142715D02*
X0159352Y0142715D01*
X0159352Y0143714D02*
X0158612Y0143714D01*
X0158207Y0144712D02*
X0159757Y0144712D01*
X0160582Y0145711D02*
X0157382Y0145711D01*
X0155143Y0143044D02*
X0119317Y0143044D01*
X0116112Y0141717D02*
X0114844Y0141717D01*
X0115108Y0142715D02*
X0115848Y0142715D01*
X0115848Y0143714D02*
X0115108Y0143714D01*
X0114703Y0144712D02*
X0116253Y0144712D01*
X0117078Y0145711D02*
X0113878Y0145711D01*
X0111639Y0143044D02*
X0075813Y0143044D01*
X0072608Y0141717D02*
X0035241Y0141717D01*
X0033975Y0142715D02*
X0072344Y0142715D01*
X0072344Y0143714D02*
X0032709Y0143714D01*
X0031442Y0144712D02*
X0062282Y0144712D01*
X0063752Y0144712D02*
X0072749Y0144712D01*
X0073574Y0145711D02*
X0065471Y0145711D01*
X0063017Y0148162D02*
X0106521Y0148162D01*
X0150025Y0148162D01*
X0193529Y0148162D01*
X0219120Y0148162D01*
X0229356Y0137926D01*
X0229356Y0130233D01*
X0242214Y0117376D01*
X0277387Y0117376D01*
X0277201Y0117562D01*
X0277201Y0128221D01*
X0275201Y0128221D02*
X0275201Y0122840D01*
X0271727Y0119366D01*
X0246735Y0119366D01*
X0244710Y0121391D01*
X0243332Y0121391D01*
X0231915Y0132808D01*
X0231915Y0141863D01*
X0229356Y0144422D01*
X0226136Y0145711D02*
X0223709Y0145711D01*
X0224707Y0144712D02*
X0225887Y0144712D01*
X0225895Y0143714D02*
X0225706Y0143714D01*
X0226738Y0146709D02*
X0222710Y0146709D01*
X0221712Y0147708D02*
X0228225Y0147708D01*
X0229233Y0148706D02*
X0225586Y0148706D01*
X0226946Y0149705D02*
X0228234Y0149705D01*
X0228175Y0151902D02*
X0237033Y0143044D01*
X0237033Y0135367D01*
X0244710Y0127690D01*
X0251070Y0121330D01*
X0270769Y0121330D01*
X0273301Y0123862D01*
X0273301Y0128221D01*
X0271221Y0123920D02*
X0270143Y0122842D01*
X0251696Y0122842D01*
X0247991Y0126547D01*
X0248179Y0127000D01*
X0248179Y0128380D01*
X0247651Y0129655D01*
X0246675Y0130630D01*
X0245400Y0131158D01*
X0244020Y0131158D01*
X0243567Y0130971D01*
X0238545Y0135993D01*
X0238545Y0143357D01*
X0239592Y0142309D01*
X0243499Y0142309D01*
X0243499Y0134791D01*
X0244320Y0133970D01*
X0251281Y0133970D01*
X0252102Y0134791D01*
X0252102Y0137745D01*
X0252597Y0136552D01*
X0253572Y0135576D01*
X0253989Y0135403D01*
X0253989Y0132142D01*
X0253549Y0131702D01*
X0253549Y0124741D01*
X0254370Y0123920D01*
X0256386Y0123920D01*
X0256753Y0123821D01*
X0257501Y0123821D01*
X0258248Y0123821D01*
X0258616Y0123920D01*
X0271221Y0123920D01*
X0271045Y0123744D02*
X0250794Y0123744D01*
X0249796Y0124742D02*
X0253549Y0124742D01*
X0253549Y0125741D02*
X0248797Y0125741D01*
X0248071Y0126739D02*
X0253549Y0126739D01*
X0253549Y0127738D02*
X0248179Y0127738D01*
X0248031Y0128736D02*
X0253549Y0128736D01*
X0253549Y0129735D02*
X0247570Y0129735D01*
X0246426Y0130733D02*
X0253549Y0130733D01*
X0253579Y0131732D02*
X0242806Y0131732D01*
X0241808Y0132730D02*
X0253989Y0132730D01*
X0253989Y0133729D02*
X0240809Y0133729D01*
X0239811Y0134727D02*
X0243563Y0134727D01*
X0243499Y0135726D02*
X0238812Y0135726D01*
X0238545Y0136724D02*
X0243499Y0136724D01*
X0243499Y0137723D02*
X0238545Y0137723D01*
X0238545Y0138721D02*
X0243499Y0138721D01*
X0243499Y0139720D02*
X0238545Y0139720D01*
X0238545Y0140718D02*
X0243499Y0140718D01*
X0243499Y0141717D02*
X0238545Y0141717D01*
X0238545Y0142715D02*
X0239186Y0142715D01*
X0240218Y0143821D02*
X0234474Y0149566D01*
X0234474Y0151902D01*
X0231464Y0153699D02*
X0227248Y0153699D01*
X0226348Y0154698D02*
X0232364Y0154698D01*
X0231050Y0152701D02*
X0229515Y0152701D01*
X0229687Y0152529D02*
X0229687Y0152529D01*
X0230513Y0151702D02*
X0231006Y0151702D01*
X0228175Y0151902D02*
X0224238Y0151902D01*
X0222890Y0148706D02*
X0220713Y0148706D01*
X0221530Y0149705D02*
X0196644Y0149705D01*
X0195893Y0150704D02*
X0220980Y0150704D01*
X0220769Y0151702D02*
X0191512Y0151702D01*
X0191165Y0150704D02*
X0190739Y0150704D01*
X0190414Y0149705D02*
X0153140Y0149705D01*
X0152389Y0150704D02*
X0186083Y0150704D01*
X0185310Y0151702D02*
X0148008Y0151702D01*
X0147661Y0150704D02*
X0147235Y0150704D01*
X0146910Y0149705D02*
X0109636Y0149705D01*
X0108885Y0150704D02*
X0142579Y0150704D01*
X0141807Y0151702D02*
X0104504Y0151702D01*
X0104157Y0150704D02*
X0103732Y0150704D01*
X0103406Y0149705D02*
X0066133Y0149705D01*
X0065381Y0150704D02*
X0099075Y0150704D01*
X0098303Y0151702D02*
X0022579Y0151702D01*
X0023845Y0150704D02*
X0060653Y0150704D01*
X0059902Y0149705D02*
X0025111Y0149705D01*
X0026378Y0148706D02*
X0059549Y0148706D01*
X0059549Y0147708D02*
X0027644Y0147708D01*
X0028910Y0146709D02*
X0059865Y0146709D01*
X0060563Y0145711D02*
X0030176Y0145711D01*
X0036507Y0140718D02*
X0073233Y0140718D01*
X0078392Y0140718D02*
X0109060Y0140718D01*
X0110601Y0139720D02*
X0090489Y0139720D01*
X0091537Y0138721D02*
X0129183Y0138721D01*
X0130230Y0139720D02*
X0120355Y0139720D01*
X0121896Y0140718D02*
X0152564Y0140718D01*
X0154105Y0139720D02*
X0133993Y0139720D01*
X0135041Y0138721D02*
X0172687Y0138721D01*
X0173734Y0139720D02*
X0163859Y0139720D01*
X0165400Y0140718D02*
X0196068Y0140718D01*
X0197609Y0139720D02*
X0177497Y0139720D01*
X0178544Y0138721D02*
X0216191Y0138721D01*
X0217238Y0139720D02*
X0207363Y0139720D01*
X0208904Y0140718D02*
X0220488Y0140718D01*
X0221001Y0139720D02*
X0221487Y0139720D01*
X0222048Y0138721D02*
X0222485Y0138721D01*
X0222469Y0137723D02*
X0223484Y0137723D01*
X0226797Y0136548D02*
X0226797Y0127758D01*
X0241038Y0113517D01*
X0300442Y0113517D01*
X0308324Y0105635D01*
X0308324Y0093459D01*
X0305448Y0090583D01*
X0299314Y0090583D01*
X0299314Y0088024D02*
X0286935Y0088024D01*
X0283096Y0091863D01*
X0283096Y0094422D01*
X0279907Y0095785D02*
X0272424Y0095785D01*
X0271813Y0094787D02*
X0273037Y0094787D01*
X0272714Y0093788D02*
X0271813Y0093788D01*
X0271813Y0092790D02*
X0272714Y0092790D01*
X0272813Y0091791D02*
X0271813Y0091791D01*
X0272536Y0090793D02*
X0272813Y0090793D01*
X0270301Y0088123D02*
X0270399Y0088024D01*
X0277114Y0088024D01*
X0277114Y0085465D02*
X0272958Y0085465D01*
X0271679Y0084186D01*
X0265183Y0084186D01*
X0265183Y0094422D01*
X0277978Y0107217D01*
X0283096Y0107217D01*
X0280636Y0104772D02*
X0277671Y0104772D01*
X0276672Y0103773D02*
X0282347Y0103773D01*
X0283846Y0103773D02*
X0287750Y0103773D01*
X0288313Y0104772D02*
X0285556Y0104772D01*
X0286251Y0105770D02*
X0287618Y0105770D01*
X0287305Y0106769D02*
X0286565Y0106769D01*
X0286565Y0107768D02*
X0287305Y0107768D01*
X0287660Y0108766D02*
X0286209Y0108766D01*
X0285454Y0109765D02*
X0288415Y0109765D01*
X0290773Y0107217D02*
X0290773Y0104658D01*
X0288214Y0102099D01*
X0276600Y0102099D01*
X0270301Y0095800D01*
X0270301Y0088123D01*
X0277114Y0090583D02*
X0281817Y0090583D01*
X0283096Y0089304D01*
X0285371Y0091791D02*
X0295013Y0091791D01*
X0295013Y0090793D02*
X0286304Y0090793D01*
X0287303Y0089794D02*
X0295013Y0089794D01*
X0295013Y0092790D02*
X0286174Y0092790D01*
X0286565Y0093788D02*
X0295013Y0093788D01*
X0295376Y0094787D02*
X0286565Y0094787D01*
X0286286Y0095785D02*
X0297802Y0095785D01*
X0297089Y0096784D02*
X0285639Y0096784D01*
X0284047Y0097782D02*
X0296212Y0097782D01*
X0295798Y0098781D02*
X0275420Y0098781D01*
X0276418Y0099779D02*
X0295769Y0099779D01*
X0295996Y0100778D02*
X0289031Y0100778D01*
X0290029Y0101776D02*
X0296569Y0101776D01*
X0297984Y0102775D02*
X0291028Y0102775D01*
X0292026Y0103773D02*
X0297701Y0103773D01*
X0299200Y0103773D02*
X0304616Y0103773D01*
X0304616Y0102775D02*
X0300492Y0102775D01*
X0301907Y0101776D02*
X0304616Y0101776D01*
X0304616Y0100778D02*
X0302479Y0100778D01*
X0302706Y0099779D02*
X0304616Y0099779D01*
X0304616Y0098781D02*
X0302678Y0098781D01*
X0302264Y0097782D02*
X0304616Y0097782D01*
X0304616Y0096784D02*
X0301387Y0096784D01*
X0300826Y0095785D02*
X0304616Y0095785D01*
X0304354Y0094787D02*
X0303252Y0094787D01*
X0304848Y0093143D02*
X0306128Y0094422D01*
X0306128Y0104658D01*
X0303569Y0107217D01*
X0298450Y0107217D01*
X0295991Y0104772D02*
X0293233Y0104772D01*
X0293928Y0105770D02*
X0295295Y0105770D01*
X0294982Y0106769D02*
X0294242Y0106769D01*
X0294242Y0107768D02*
X0294982Y0107768D01*
X0295338Y0108766D02*
X0293886Y0108766D01*
X0293131Y0109765D02*
X0296092Y0109765D01*
X0300059Y0111762D02*
X0031174Y0111762D01*
X0031174Y0112760D02*
X0239657Y0112760D01*
X0238658Y0113759D02*
X0031095Y0113759D01*
X0030097Y0114757D02*
X0237660Y0114757D01*
X0236661Y0115756D02*
X0029098Y0115756D01*
X0029643Y0118751D02*
X0047759Y0118751D01*
X0047066Y0119750D02*
X0030641Y0119750D01*
X0031174Y0120748D02*
X0046754Y0120748D01*
X0046754Y0121747D02*
X0031174Y0121747D01*
X0031174Y0122745D02*
X0047110Y0122745D01*
X0047867Y0123744D02*
X0031110Y0123744D01*
X0030584Y0124742D02*
X0048410Y0124742D01*
X0048410Y0125741D02*
X0030584Y0125741D01*
X0030584Y0126739D02*
X0048382Y0126739D01*
X0047116Y0127738D02*
X0030584Y0127738D01*
X0030584Y0128736D02*
X0045850Y0128736D01*
X0044584Y0129735D02*
X0030627Y0129735D01*
X0031174Y0130733D02*
X0043317Y0130733D01*
X0042051Y0131732D02*
X0031174Y0131732D01*
X0031174Y0132730D02*
X0040785Y0132730D01*
X0039519Y0133729D02*
X0031125Y0133729D01*
X0030127Y0134727D02*
X0038253Y0134727D01*
X0036986Y0135726D02*
X0029128Y0135726D01*
X0025017Y0135726D02*
X0019128Y0135726D01*
X0021313Y0152701D02*
X0097935Y0152701D01*
X0097935Y0153699D02*
X0020047Y0153699D01*
X0018780Y0154698D02*
X0098236Y0154698D01*
X0098914Y0155696D02*
X0017514Y0155696D01*
X0016248Y0156695D02*
X0100582Y0156695D01*
X0102224Y0156695D02*
X0102679Y0156695D01*
X0103678Y0157693D02*
X0015721Y0157693D01*
X0015721Y0158692D02*
X0104676Y0158692D01*
X0105675Y0159690D02*
X0015721Y0159690D01*
X0015721Y0160689D02*
X0106673Y0160689D01*
X0107672Y0161687D02*
X0015721Y0161687D01*
X0015721Y0162686D02*
X0108670Y0162686D01*
X0108527Y0162542D02*
X0108527Y0162542D01*
X0110039Y0161916D02*
X0101403Y0153280D01*
X0104872Y0153699D02*
X0141439Y0153699D01*
X0141439Y0152701D02*
X0104872Y0152701D01*
X0104958Y0154698D02*
X0141740Y0154698D01*
X0142418Y0155696D02*
X0105957Y0155696D01*
X0106955Y0156695D02*
X0144086Y0156695D01*
X0145728Y0156695D02*
X0146183Y0156695D01*
X0147182Y0157693D02*
X0107954Y0157693D01*
X0108952Y0158692D02*
X0148180Y0158692D01*
X0149179Y0159690D02*
X0109951Y0159690D01*
X0110039Y0161916D02*
X0236383Y0161916D01*
X0242151Y0156147D01*
X0242151Y0150721D01*
X0243151Y0149721D01*
X0247801Y0149721D01*
X0247801Y0147721D02*
X0242110Y0147721D01*
X0239986Y0149845D01*
X0239986Y0155581D01*
X0235704Y0159862D01*
X0151489Y0159862D01*
X0144907Y0153280D01*
X0148376Y0153699D02*
X0184943Y0153699D01*
X0184943Y0152701D02*
X0148376Y0152701D01*
X0148462Y0154698D02*
X0185244Y0154698D01*
X0185922Y0155696D02*
X0149461Y0155696D01*
X0150459Y0156695D02*
X0187590Y0156695D01*
X0189232Y0156695D02*
X0189687Y0156695D01*
X0190686Y0157693D02*
X0151458Y0157693D01*
X0152479Y0145711D02*
X0152905Y0145711D01*
X0152080Y0144712D02*
X0150760Y0144712D01*
X0149290Y0144712D02*
X0122380Y0144712D01*
X0121555Y0145711D02*
X0147571Y0145711D01*
X0156182Y0139720D02*
X0161782Y0139720D01*
X0160241Y0140718D02*
X0157723Y0140718D01*
X0165059Y0145711D02*
X0191075Y0145711D01*
X0192794Y0144712D02*
X0165884Y0144712D01*
X0179159Y0132808D02*
X0222860Y0132808D01*
X0224504Y0129735D02*
X0225285Y0129735D01*
X0221215Y0129735D02*
X0180804Y0129735D01*
X0181990Y0130733D02*
X0220029Y0130733D01*
X0205286Y0139720D02*
X0199686Y0139720D01*
X0201227Y0140718D02*
X0203745Y0140718D01*
X0209388Y0144712D02*
X0220431Y0144712D01*
X0219433Y0145711D02*
X0208563Y0145711D01*
X0220814Y0152701D02*
X0191880Y0152701D01*
X0191880Y0153699D02*
X0221228Y0153699D01*
X0222128Y0154698D02*
X0191966Y0154698D01*
X0192965Y0155696D02*
X0234812Y0155696D01*
X0234825Y0157821D02*
X0238017Y0154629D01*
X0238017Y0148883D01*
X0241079Y0145821D01*
X0247801Y0145821D01*
X0247791Y0143831D02*
X0247801Y0143821D01*
X0240218Y0143821D01*
X0252102Y0143714D02*
X0288401Y0143714D01*
X0288401Y0143821D02*
X0288401Y0143333D01*
X0283806Y0143333D01*
X0282920Y0142447D01*
X0282244Y0141771D01*
X0281791Y0141958D01*
X0280411Y0141958D01*
X0279136Y0141430D01*
X0278160Y0140455D01*
X0277632Y0139180D01*
X0277632Y0137800D01*
X0278160Y0136525D01*
X0279136Y0135549D01*
X0279589Y0135362D01*
X0279589Y0132523D01*
X0258616Y0132523D01*
X0258248Y0132621D01*
X0257501Y0132621D01*
X0257501Y0128221D01*
X0257501Y0123821D01*
X0257501Y0128221D01*
X0257501Y0128221D01*
X0257501Y0128221D01*
X0257501Y0132621D01*
X0257013Y0132621D01*
X0257013Y0135373D01*
X0257502Y0135576D01*
X0258477Y0136552D01*
X0259005Y0137827D01*
X0259005Y0139206D01*
X0258477Y0140481D01*
X0257502Y0141457D01*
X0256227Y0141985D01*
X0254847Y0141985D01*
X0253572Y0141457D01*
X0252597Y0140481D01*
X0252102Y0139288D01*
X0252102Y0159487D01*
X0252982Y0158608D01*
X0254257Y0158080D01*
X0255636Y0158080D01*
X0256911Y0158608D01*
X0257887Y0159583D01*
X0258415Y0160858D01*
X0258415Y0162238D01*
X0257887Y0163513D01*
X0257390Y0164009D01*
X0288499Y0164009D01*
X0288499Y0159133D01*
X0275984Y0159133D01*
X0275800Y0159576D01*
X0274825Y0160551D01*
X0273550Y0161080D01*
X0272170Y0161080D01*
X0270895Y0160551D01*
X0269919Y0159576D01*
X0269391Y0158301D01*
X0269391Y0156921D01*
X0269919Y0155646D01*
X0270363Y0155203D01*
X0265158Y0155192D01*
X0264974Y0155639D01*
X0263998Y0156614D01*
X0262723Y0157143D01*
X0261343Y0157143D01*
X0260068Y0156614D01*
X0259093Y0155639D01*
X0258565Y0154364D01*
X0258565Y0152984D01*
X0259093Y0151709D01*
X0260068Y0150734D01*
X0261343Y0150206D01*
X0262723Y0150206D01*
X0263998Y0150734D01*
X0264974Y0151709D01*
X0265164Y0152169D01*
X0280062Y0152199D01*
X0279762Y0151899D01*
X0279234Y0150624D01*
X0279234Y0149244D01*
X0279762Y0147969D01*
X0280738Y0146993D01*
X0282012Y0146465D01*
X0283392Y0146465D01*
X0284667Y0146993D01*
X0285643Y0147969D01*
X0285742Y0148209D01*
X0288499Y0148209D01*
X0288499Y0144936D01*
X0288401Y0144569D01*
X0288401Y0143821D01*
X0292801Y0143821D01*
X0292801Y0143821D01*
X0297201Y0143821D01*
X0297201Y0143333D01*
X0298571Y0143333D01*
X0298069Y0143835D01*
X0297873Y0144309D01*
X0297201Y0144309D01*
X0297201Y0143821D01*
X0292801Y0143821D01*
X0292801Y0143821D01*
X0288401Y0143821D01*
X0288439Y0144712D02*
X0252102Y0144712D01*
X0252102Y0145711D02*
X0288499Y0145711D01*
X0288499Y0146709D02*
X0283982Y0146709D01*
X0285382Y0147708D02*
X0288499Y0147708D01*
X0292801Y0147721D02*
X0297616Y0147721D01*
X0299435Y0149540D01*
X0302584Y0149540D01*
X0306324Y0145800D01*
X0311494Y0143714D02*
X0316651Y0143714D01*
X0316651Y0144712D02*
X0312493Y0144712D01*
X0312757Y0145711D02*
X0316651Y0145711D01*
X0316651Y0146709D02*
X0312757Y0146709D01*
X0312757Y0147708D02*
X0316651Y0147708D01*
X0316651Y0148706D02*
X0312757Y0148706D01*
X0312757Y0149705D02*
X0316651Y0149705D01*
X0316651Y0150704D02*
X0312757Y0150704D01*
X0312757Y0151702D02*
X0316651Y0151702D01*
X0316651Y0152701D02*
X0312757Y0152701D01*
X0312757Y0153699D02*
X0316651Y0153699D01*
X0316651Y0154698D02*
X0312757Y0154698D01*
X0312740Y0155696D02*
X0316651Y0155696D01*
X0316651Y0156695D02*
X0311741Y0156695D01*
X0310743Y0157693D02*
X0316651Y0157693D01*
X0316651Y0158692D02*
X0310002Y0158692D01*
X0310002Y0159690D02*
X0316651Y0159690D01*
X0316651Y0160689D02*
X0310002Y0160689D01*
X0310002Y0161687D02*
X0316651Y0161687D01*
X0316651Y0162686D02*
X0311806Y0162686D01*
X0311860Y0163684D02*
X0316651Y0163684D01*
X0316651Y0164683D02*
X0311860Y0164683D01*
X0311860Y0165681D02*
X0316651Y0165681D01*
X0316651Y0166680D02*
X0311860Y0166680D01*
X0311860Y0167678D02*
X0316651Y0167678D01*
X0316651Y0168677D02*
X0311414Y0168677D01*
X0311921Y0169675D02*
X0316651Y0169675D01*
X0316651Y0170674D02*
X0311958Y0170674D01*
X0311958Y0171672D02*
X0316651Y0171672D01*
X0316651Y0172671D02*
X0311958Y0172671D01*
X0311958Y0173669D02*
X0316651Y0173669D01*
X0316651Y0174668D02*
X0311924Y0174668D01*
X0311167Y0175666D02*
X0316651Y0175666D01*
X0308974Y0175666D02*
X0308005Y0175666D01*
X0308005Y0174668D02*
X0308974Y0174668D01*
X0308974Y0173669D02*
X0308005Y0173669D01*
X0308005Y0172671D02*
X0308974Y0172671D01*
X0303781Y0178662D02*
X0272813Y0178662D01*
X0272813Y0179660D02*
X0304498Y0179660D01*
X0304498Y0180659D02*
X0272813Y0180659D01*
X0272813Y0181657D02*
X0304498Y0181657D01*
X0304474Y0182656D02*
X0298245Y0182656D01*
X0296509Y0182656D02*
X0295509Y0182656D01*
X0295509Y0183654D02*
X0296509Y0183654D01*
X0296509Y0184653D02*
X0295509Y0184653D01*
X0295509Y0185651D02*
X0296509Y0185651D01*
X0293774Y0182656D02*
X0272813Y0182656D01*
X0272813Y0183654D02*
X0292775Y0183654D01*
X0291777Y0184653D02*
X0272813Y0184653D01*
X0272813Y0185651D02*
X0291509Y0185651D01*
X0295509Y0188647D02*
X0296509Y0188647D01*
X0296509Y0189645D02*
X0295509Y0189645D01*
X0295509Y0190644D02*
X0296509Y0190644D01*
X0298514Y0190644D02*
X0303826Y0190644D01*
X0302646Y0189645D02*
X0299512Y0189645D01*
X0300509Y0188647D02*
X0302017Y0188647D01*
X0301608Y0187648D02*
X0300509Y0187648D01*
X0297833Y0192383D02*
X0294186Y0192383D01*
X0291608Y0194961D01*
X0291608Y0198607D01*
X0294186Y0201186D01*
X0297833Y0201186D01*
X0300411Y0198607D01*
X0300411Y0194961D01*
X0297833Y0192383D01*
X0298091Y0192641D02*
X0303928Y0192641D01*
X0304186Y0192383D02*
X0307833Y0192383D01*
X0310411Y0194961D01*
X0310411Y0198607D01*
X0307833Y0201186D01*
X0304186Y0201186D01*
X0301608Y0198607D01*
X0301608Y0194961D01*
X0304186Y0192383D01*
X0302929Y0193639D02*
X0299089Y0193639D01*
X0300088Y0194638D02*
X0301931Y0194638D01*
X0301608Y0195637D02*
X0300411Y0195637D01*
X0300411Y0196635D02*
X0301608Y0196635D01*
X0301608Y0197634D02*
X0300411Y0197634D01*
X0300386Y0198632D02*
X0301632Y0198632D01*
X0302631Y0199631D02*
X0299388Y0199631D01*
X0298389Y0200629D02*
X0303630Y0200629D01*
X0304145Y0202284D02*
X0301509Y0204920D01*
X0301509Y0206284D01*
X0305509Y0206284D01*
X0305509Y0207284D01*
X0301509Y0207284D01*
X0301509Y0208648D01*
X0304145Y0211284D01*
X0305509Y0211284D01*
X0305509Y0207284D01*
X0306509Y0207284D01*
X0306509Y0211284D01*
X0307873Y0211284D01*
X0310509Y0208648D01*
X0310509Y0207284D01*
X0306509Y0207284D01*
X0306509Y0206284D01*
X0306509Y0202284D01*
X0307873Y0202284D01*
X0310509Y0204920D01*
X0310509Y0206284D01*
X0306509Y0206284D01*
X0305509Y0206284D01*
X0305509Y0202284D01*
X0304145Y0202284D01*
X0303804Y0202626D02*
X0298076Y0202626D01*
X0297833Y0202383D02*
X0300411Y0204961D01*
X0300411Y0208607D01*
X0297833Y0211186D01*
X0294186Y0211186D01*
X0291608Y0208607D01*
X0291608Y0204961D01*
X0294186Y0202383D01*
X0297833Y0202383D01*
X0299075Y0203625D02*
X0302805Y0203625D01*
X0301807Y0204623D02*
X0300073Y0204623D01*
X0300411Y0205622D02*
X0301509Y0205622D01*
X0300411Y0206620D02*
X0305509Y0206620D01*
X0305509Y0205622D02*
X0306509Y0205622D01*
X0306509Y0206620D02*
X0316651Y0206620D01*
X0316651Y0205622D02*
X0310509Y0205622D01*
X0310212Y0204623D02*
X0316651Y0204623D01*
X0316651Y0203625D02*
X0309214Y0203625D01*
X0308215Y0202626D02*
X0316651Y0202626D01*
X0316651Y0201628D02*
X0269073Y0201628D01*
X0268074Y0202626D02*
X0293943Y0202626D01*
X0292944Y0203625D02*
X0267076Y0203625D01*
X0266077Y0204623D02*
X0291946Y0204623D01*
X0291608Y0205622D02*
X0265079Y0205622D01*
X0264080Y0206620D02*
X0291608Y0206620D01*
X0291608Y0207619D02*
X0263082Y0207619D01*
X0262083Y0208617D02*
X0291618Y0208617D01*
X0292616Y0209616D02*
X0261085Y0209616D01*
X0260086Y0210614D02*
X0293615Y0210614D01*
X0298404Y0210614D02*
X0303475Y0210614D01*
X0302477Y0209616D02*
X0299403Y0209616D01*
X0300401Y0208617D02*
X0301509Y0208617D01*
X0301509Y0207619D02*
X0300411Y0207619D01*
X0305509Y0207619D02*
X0306509Y0207619D01*
X0306509Y0208617D02*
X0305509Y0208617D01*
X0305509Y0209616D02*
X0306509Y0209616D01*
X0306509Y0210614D02*
X0305509Y0210614D01*
X0308543Y0210614D02*
X0316651Y0210614D01*
X0316651Y0209616D02*
X0309542Y0209616D01*
X0310509Y0208617D02*
X0316651Y0208617D01*
X0316651Y0207619D02*
X0310509Y0207619D01*
X0306509Y0204623D02*
X0305509Y0204623D01*
X0305509Y0203625D02*
X0306509Y0203625D01*
X0306509Y0202626D02*
X0305509Y0202626D01*
X0308389Y0200629D02*
X0316651Y0200629D01*
X0316651Y0199631D02*
X0309388Y0199631D01*
X0310386Y0198632D02*
X0316651Y0198632D01*
X0316651Y0197634D02*
X0310411Y0197634D01*
X0310411Y0196635D02*
X0316651Y0196635D01*
X0316651Y0195637D02*
X0310411Y0195637D01*
X0310088Y0194638D02*
X0316651Y0194638D01*
X0316651Y0193639D02*
X0309089Y0193639D01*
X0308091Y0192641D02*
X0316651Y0192641D01*
X0302782Y0177663D02*
X0272813Y0177663D01*
X0271301Y0173221D02*
X0271301Y0197262D01*
X0257735Y0210827D01*
X0127269Y0210827D01*
X0116757Y0200316D01*
X0116757Y0191666D01*
X0113597Y0190644D02*
X0113580Y0190644D01*
X0115859Y0185651D02*
X0117656Y0185651D01*
X0117970Y0184653D02*
X0115545Y0184653D01*
X0114546Y0183654D02*
X0118969Y0183654D01*
X0119967Y0182656D02*
X0113548Y0182656D01*
X0109967Y0182656D02*
X0103548Y0182656D01*
X0104546Y0183654D02*
X0108969Y0183654D01*
X0107970Y0184653D02*
X0105545Y0184653D01*
X0105859Y0185651D02*
X0107656Y0185651D01*
X0099967Y0182656D02*
X0093548Y0182656D01*
X0093456Y0182565D02*
X0095859Y0184967D01*
X0095859Y0188365D01*
X0093456Y0190768D01*
X0090059Y0190768D01*
X0087656Y0188365D01*
X0087656Y0184967D01*
X0090059Y0182565D01*
X0093456Y0182565D01*
X0094546Y0183654D02*
X0098969Y0183654D01*
X0097970Y0184653D02*
X0095545Y0184653D01*
X0095859Y0185651D02*
X0097656Y0185651D01*
X0097656Y0186650D02*
X0095859Y0186650D01*
X0095859Y0187648D02*
X0097656Y0187648D01*
X0097938Y0188647D02*
X0095577Y0188647D01*
X0094579Y0189645D02*
X0098936Y0189645D01*
X0099935Y0190644D02*
X0093580Y0190644D01*
X0093456Y0192565D02*
X0095859Y0194967D01*
X0095859Y0198365D01*
X0093456Y0200768D01*
X0090059Y0200768D01*
X0087656Y0198365D01*
X0087656Y0194967D01*
X0090059Y0192565D01*
X0093456Y0192565D01*
X0093533Y0192641D02*
X0099982Y0192641D01*
X0098984Y0193639D02*
X0094531Y0193639D01*
X0095530Y0194638D02*
X0097985Y0194638D01*
X0097656Y0195637D02*
X0095859Y0195637D01*
X0095859Y0196635D02*
X0097656Y0196635D01*
X0097656Y0197634D02*
X0095859Y0197634D01*
X0095592Y0198632D02*
X0097923Y0198632D01*
X0098921Y0199631D02*
X0094594Y0199631D01*
X0093595Y0200629D02*
X0099920Y0200629D01*
X0103595Y0200629D02*
X0109781Y0200629D01*
X0108782Y0199631D02*
X0104594Y0199631D01*
X0105592Y0198632D02*
X0107784Y0198632D01*
X0107557Y0197634D02*
X0105859Y0197634D01*
X0111357Y0197634D02*
X0112157Y0197634D01*
X0112157Y0198632D02*
X0111357Y0198632D01*
X0111357Y0199631D02*
X0112157Y0199631D01*
X0112157Y0200629D02*
X0111357Y0200629D01*
X0113734Y0200629D02*
X0115246Y0200629D01*
X0115246Y0199631D02*
X0114733Y0199631D01*
X0115931Y0201628D02*
X0006802Y0201628D01*
X0006803Y0202626D02*
X0116930Y0202626D01*
X0117928Y0203625D02*
X0006804Y0203625D01*
X0006805Y0204623D02*
X0118927Y0204623D01*
X0119925Y0205622D02*
X0006806Y0205622D01*
X0006807Y0206620D02*
X0120924Y0206620D01*
X0121922Y0207619D02*
X0006808Y0207619D01*
X0006809Y0208617D02*
X0122921Y0208617D01*
X0123919Y0209616D02*
X0006810Y0209616D01*
X0006811Y0210614D02*
X0124918Y0210614D01*
X0125916Y0211613D02*
X0006812Y0211613D01*
X0006813Y0212611D02*
X0316651Y0212611D01*
X0316651Y0211613D02*
X0259088Y0211613D01*
X0258273Y0202626D02*
X0245848Y0202626D01*
X0247331Y0201628D02*
X0259271Y0201628D01*
X0260837Y0199343D02*
X0244710Y0199343D01*
X0241489Y0200629D02*
X0213595Y0200629D01*
X0213456Y0200768D02*
X0210059Y0200768D01*
X0207656Y0198365D01*
X0207656Y0194967D01*
X0210059Y0192565D01*
X0213456Y0192565D01*
X0215859Y0194967D01*
X0215859Y0198365D01*
X0213456Y0200768D01*
X0214594Y0199631D02*
X0241242Y0199631D01*
X0241251Y0198632D02*
X0215592Y0198632D01*
X0215859Y0197634D02*
X0241664Y0197634D01*
X0242513Y0196635D02*
X0215859Y0196635D01*
X0215859Y0195637D02*
X0262406Y0195637D01*
X0261408Y0196635D02*
X0246907Y0196635D01*
X0247756Y0197634D02*
X0260409Y0197634D01*
X0260837Y0199343D02*
X0265296Y0194885D01*
X0265296Y0185288D01*
X0257501Y0177493D01*
X0257501Y0173221D01*
X0255501Y0173221D02*
X0255501Y0187102D01*
X0259277Y0190879D01*
X0262521Y0189645D02*
X0263784Y0189645D01*
X0263784Y0188647D02*
X0261951Y0188647D01*
X0260542Y0187648D02*
X0263784Y0187648D01*
X0263784Y0186650D02*
X0257186Y0186650D01*
X0257013Y0185651D02*
X0263521Y0185651D01*
X0262523Y0184653D02*
X0257013Y0184653D01*
X0257013Y0183654D02*
X0261524Y0183654D01*
X0260526Y0182656D02*
X0257013Y0182656D01*
X0257013Y0181657D02*
X0259527Y0181657D01*
X0258529Y0180659D02*
X0257013Y0180659D01*
X0257013Y0179660D02*
X0257530Y0179660D01*
X0253989Y0183654D02*
X0214685Y0183654D01*
X0215684Y0184653D02*
X0253989Y0184653D01*
X0253989Y0185651D02*
X0215957Y0185651D01*
X0212157Y0187648D02*
X0211357Y0187648D01*
X0211357Y0187066D02*
X0211357Y0190866D01*
X0210018Y0190866D01*
X0207557Y0188406D01*
X0207557Y0187066D01*
X0211357Y0187066D01*
X0211357Y0186650D02*
X0205859Y0186650D01*
X0205859Y0187648D02*
X0207557Y0187648D01*
X0207799Y0188647D02*
X0205577Y0188647D01*
X0205859Y0188365D02*
X0203456Y0190768D01*
X0200059Y0190768D01*
X0197656Y0188365D01*
X0197656Y0184967D01*
X0200059Y0182565D01*
X0203456Y0182565D01*
X0205859Y0184967D01*
X0205859Y0188365D01*
X0204579Y0189645D02*
X0208797Y0189645D01*
X0209796Y0190644D02*
X0203580Y0190644D01*
X0203456Y0192565D02*
X0205859Y0194967D01*
X0205859Y0198365D01*
X0203456Y0200768D01*
X0200059Y0200768D01*
X0197656Y0198365D01*
X0197656Y0194967D01*
X0200059Y0192565D01*
X0203456Y0192565D01*
X0203533Y0192641D02*
X0209982Y0192641D01*
X0208984Y0193639D02*
X0204531Y0193639D01*
X0205530Y0194638D02*
X0207985Y0194638D01*
X0207656Y0195637D02*
X0205859Y0195637D01*
X0205859Y0196635D02*
X0207656Y0196635D01*
X0207656Y0197634D02*
X0205859Y0197634D01*
X0205592Y0198632D02*
X0207923Y0198632D01*
X0208921Y0199631D02*
X0204594Y0199631D01*
X0203595Y0200629D02*
X0209920Y0200629D01*
X0215530Y0194638D02*
X0263405Y0194638D01*
X0263784Y0193639D02*
X0261422Y0193639D01*
X0262301Y0192641D02*
X0263784Y0192641D01*
X0263784Y0191642D02*
X0262715Y0191642D01*
X0262746Y0190644D02*
X0263784Y0190644D01*
X0272813Y0192641D02*
X0293928Y0192641D01*
X0292929Y0193639D02*
X0272813Y0193639D01*
X0272813Y0194638D02*
X0291931Y0194638D01*
X0291608Y0195637D02*
X0272813Y0195637D01*
X0272813Y0196635D02*
X0291608Y0196635D01*
X0291608Y0197634D02*
X0272813Y0197634D01*
X0272068Y0198632D02*
X0291632Y0198632D01*
X0292631Y0199631D02*
X0271070Y0199631D01*
X0270071Y0200629D02*
X0293630Y0200629D01*
X0316651Y0213610D02*
X0006814Y0213610D01*
X0006815Y0214608D02*
X0316651Y0214608D01*
X0316651Y0215607D02*
X0006816Y0215607D01*
X0006817Y0216605D02*
X0316651Y0216605D01*
X0316651Y0217604D02*
X0006818Y0217604D01*
X0006819Y0218602D02*
X0316651Y0218602D01*
X0316651Y0219601D02*
X0006820Y0219601D01*
X0006821Y0220599D02*
X0316651Y0220599D01*
X0316651Y0221598D02*
X0006822Y0221598D01*
X0017370Y0194638D02*
X0017985Y0194638D01*
X0018984Y0193639D02*
X0016372Y0193639D01*
X0015721Y0192641D02*
X0019982Y0192641D01*
X0018936Y0189645D02*
X0015721Y0189645D01*
X0015721Y0188647D02*
X0018138Y0188647D01*
X0017725Y0187648D02*
X0015721Y0187648D01*
X0015721Y0186650D02*
X0017656Y0186650D01*
X0017738Y0185651D02*
X0015721Y0185651D01*
X0015721Y0184653D02*
X0018152Y0184653D01*
X0018969Y0183654D02*
X0015721Y0183654D01*
X0015721Y0182656D02*
X0020721Y0182656D01*
X0015721Y0173669D02*
X0235372Y0173669D01*
X0234195Y0172671D02*
X0015721Y0172671D01*
X0015721Y0171672D02*
X0233722Y0171672D01*
X0233565Y0170674D02*
X0015721Y0170674D01*
X0015721Y0169675D02*
X0233663Y0169675D01*
X0234077Y0168677D02*
X0015721Y0168677D01*
X0015721Y0167678D02*
X0235053Y0167678D01*
X0238819Y0166680D02*
X0015721Y0166680D01*
X0015721Y0165681D02*
X0239817Y0165681D01*
X0240816Y0164683D02*
X0015721Y0164683D01*
X0015721Y0163684D02*
X0243401Y0163684D01*
X0243401Y0163521D02*
X0247801Y0163521D01*
X0243401Y0163521D01*
X0243424Y0162686D02*
X0237751Y0162686D01*
X0238749Y0161687D02*
X0243499Y0161687D01*
X0243499Y0160689D02*
X0239748Y0160689D01*
X0240746Y0159690D02*
X0243499Y0159690D01*
X0243499Y0158692D02*
X0241745Y0158692D01*
X0242744Y0157693D02*
X0243499Y0157693D01*
X0247801Y0161521D02*
X0254776Y0161521D01*
X0254946Y0161548D01*
X0258415Y0161687D02*
X0288499Y0161687D01*
X0288499Y0160689D02*
X0274493Y0160689D01*
X0275686Y0159690D02*
X0288499Y0159690D01*
X0288499Y0162686D02*
X0258230Y0162686D01*
X0257716Y0163684D02*
X0288499Y0163684D01*
X0285101Y0165521D02*
X0247801Y0165521D01*
X0242115Y0165521D01*
X0237033Y0170603D01*
X0242096Y0167678D02*
X0283589Y0167678D01*
X0286613Y0167678D02*
X0299498Y0167678D01*
X0299498Y0168677D02*
X0286613Y0168677D01*
X0286987Y0169675D02*
X0299498Y0169675D01*
X0299498Y0170674D02*
X0287052Y0170674D01*
X0287052Y0171672D02*
X0299498Y0171672D01*
X0299498Y0172671D02*
X0287052Y0172671D01*
X0287052Y0173669D02*
X0299498Y0173669D01*
X0299786Y0174668D02*
X0287052Y0174668D01*
X0287052Y0175666D02*
X0300785Y0175666D01*
X0300383Y0175265D02*
X0300383Y0175265D01*
X0301783Y0176665D02*
X0287052Y0176665D01*
X0283101Y0176665D02*
X0283101Y0176665D01*
X0283101Y0175666D02*
X0283101Y0175666D01*
X0283101Y0174668D02*
X0283101Y0174668D01*
X0271226Y0160689D02*
X0258345Y0160689D01*
X0257931Y0159690D02*
X0270034Y0159690D01*
X0269553Y0158692D02*
X0256995Y0158692D01*
X0259150Y0155696D02*
X0252102Y0155696D01*
X0252102Y0154698D02*
X0258703Y0154698D01*
X0258565Y0153699D02*
X0252102Y0153699D01*
X0252102Y0152701D02*
X0258682Y0152701D01*
X0259100Y0151702D02*
X0252102Y0151702D01*
X0252102Y0150704D02*
X0260141Y0150704D01*
X0262033Y0153674D02*
X0285112Y0153721D01*
X0292801Y0153721D01*
X0292801Y0155621D02*
X0298232Y0155621D01*
X0301009Y0158398D01*
X0300222Y0154068D02*
X0297860Y0151706D01*
X0292817Y0151706D01*
X0292801Y0151721D01*
X0292801Y0149721D02*
X0282687Y0149721D01*
X0282702Y0149934D01*
X0279456Y0148706D02*
X0252102Y0148706D01*
X0252102Y0147708D02*
X0280023Y0147708D01*
X0281423Y0146709D02*
X0252102Y0146709D01*
X0252102Y0149705D02*
X0279234Y0149705D01*
X0279267Y0150704D02*
X0263925Y0150704D01*
X0264966Y0151702D02*
X0279680Y0151702D01*
X0272870Y0157621D02*
X0272860Y0157611D01*
X0272870Y0157621D02*
X0292801Y0157621D01*
X0300222Y0154068D02*
X0306324Y0154068D01*
X0300988Y0145821D02*
X0301009Y0145800D01*
X0300988Y0145821D02*
X0292801Y0145821D01*
X0292801Y0141821D02*
X0284432Y0141821D01*
X0281101Y0138490D01*
X0281101Y0128221D01*
X0283101Y0128221D02*
X0283101Y0132621D01*
X0283101Y0128221D01*
X0283101Y0123821D01*
X0283848Y0123821D01*
X0284216Y0123920D01*
X0286231Y0123920D01*
X0287052Y0124741D01*
X0287052Y0131702D01*
X0286231Y0132523D01*
X0284216Y0132523D01*
X0283848Y0132621D01*
X0283101Y0132621D01*
X0282613Y0132621D01*
X0282613Y0135362D01*
X0283066Y0135549D01*
X0284041Y0136525D01*
X0284569Y0137800D01*
X0284569Y0139180D01*
X0284382Y0139633D01*
X0285058Y0140309D01*
X0288499Y0140309D01*
X0288499Y0134791D01*
X0289320Y0133970D01*
X0296281Y0133970D01*
X0297102Y0134791D01*
X0297102Y0140309D01*
X0299456Y0140309D01*
X0299456Y0127105D01*
X0300341Y0126220D01*
X0300342Y0126220D01*
X0311202Y0115359D01*
X0311202Y0091398D01*
X0304222Y0084418D01*
X0303674Y0084418D01*
X0303714Y0084568D01*
X0303714Y0085465D01*
X0299314Y0085465D01*
X0294914Y0085465D01*
X0294914Y0084568D01*
X0295016Y0084190D01*
X0295013Y0084187D01*
X0295013Y0081859D01*
X0292679Y0081859D01*
X0288025Y0086513D01*
X0294954Y0086513D01*
X0294914Y0086363D01*
X0294914Y0085465D01*
X0299314Y0085465D01*
X0299314Y0085465D01*
X0299314Y0085465D01*
X0303714Y0085465D01*
X0303714Y0086363D01*
X0303613Y0086741D01*
X0303616Y0086744D01*
X0303616Y0089072D01*
X0306074Y0089072D01*
X0308950Y0091948D01*
X0309836Y0092833D01*
X0309836Y0106261D01*
X0309709Y0106388D01*
X0308950Y0107147D01*
X0301196Y0114901D01*
X0301069Y0115028D01*
X0300930Y0115028D01*
X0301391Y0115489D01*
X0301919Y0116764D01*
X0301919Y0118143D01*
X0301391Y0119418D01*
X0300415Y0120394D01*
X0299140Y0120922D01*
X0297760Y0120922D01*
X0296486Y0120394D01*
X0295510Y0119418D01*
X0295290Y0118888D01*
X0278713Y0118888D01*
X0278713Y0123920D01*
X0281986Y0123920D01*
X0282353Y0123821D01*
X0283101Y0123821D01*
X0283101Y0128221D01*
X0283101Y0128221D01*
X0283101Y0128221D01*
X0283101Y0127738D02*
X0283101Y0127738D01*
X0283101Y0128736D02*
X0283101Y0128736D01*
X0283101Y0129735D02*
X0283101Y0129735D01*
X0283101Y0130733D02*
X0283101Y0130733D01*
X0283101Y0131732D02*
X0283101Y0131732D01*
X0282613Y0132730D02*
X0299456Y0132730D01*
X0299456Y0131732D02*
X0287022Y0131732D01*
X0287052Y0130733D02*
X0299456Y0130733D01*
X0299456Y0129735D02*
X0287052Y0129735D01*
X0287052Y0128736D02*
X0299456Y0128736D01*
X0299456Y0127738D02*
X0287052Y0127738D01*
X0287052Y0126739D02*
X0299822Y0126739D01*
X0300820Y0125741D02*
X0287052Y0125741D01*
X0287052Y0124742D02*
X0301819Y0124742D01*
X0302817Y0123744D02*
X0278713Y0123744D01*
X0278713Y0122745D02*
X0303816Y0122745D01*
X0304815Y0121747D02*
X0278713Y0121747D01*
X0278713Y0120748D02*
X0297341Y0120748D01*
X0295841Y0119750D02*
X0278713Y0119750D01*
X0277387Y0117376D02*
X0298373Y0117376D01*
X0298450Y0117454D01*
X0301667Y0118751D02*
X0307810Y0118751D01*
X0308809Y0117753D02*
X0301919Y0117753D01*
X0301915Y0116754D02*
X0309807Y0116754D01*
X0310806Y0115756D02*
X0301501Y0115756D01*
X0301340Y0114757D02*
X0311202Y0114757D01*
X0311202Y0113759D02*
X0302338Y0113759D01*
X0303337Y0112760D02*
X0311202Y0112760D01*
X0311202Y0111762D02*
X0304335Y0111762D01*
X0305334Y0110763D02*
X0311202Y0110763D01*
X0311202Y0109765D02*
X0306332Y0109765D01*
X0307331Y0108766D02*
X0311202Y0108766D01*
X0311202Y0107768D02*
X0308329Y0107768D01*
X0308950Y0107147D02*
X0308950Y0107147D01*
X0309328Y0106769D02*
X0311202Y0106769D01*
X0311202Y0105770D02*
X0309836Y0105770D01*
X0309836Y0104772D02*
X0311202Y0104772D01*
X0311202Y0103773D02*
X0309836Y0103773D01*
X0309836Y0102775D02*
X0311202Y0102775D01*
X0311202Y0101776D02*
X0309836Y0101776D01*
X0309836Y0100778D02*
X0311202Y0100778D01*
X0311202Y0099779D02*
X0309836Y0099779D01*
X0309836Y0098781D02*
X0311202Y0098781D01*
X0311202Y0097782D02*
X0309836Y0097782D01*
X0309836Y0096784D02*
X0311202Y0096784D01*
X0311202Y0095785D02*
X0309836Y0095785D01*
X0309836Y0094787D02*
X0311202Y0094787D01*
X0311202Y0093788D02*
X0309836Y0093788D01*
X0309793Y0092790D02*
X0311202Y0092790D01*
X0311202Y0091791D02*
X0308794Y0091791D01*
X0307796Y0090793D02*
X0310597Y0090793D01*
X0309598Y0089794D02*
X0306797Y0089794D01*
X0308600Y0088796D02*
X0303616Y0088796D01*
X0303616Y0087797D02*
X0307601Y0087797D01*
X0306602Y0086799D02*
X0303616Y0086799D01*
X0303714Y0085800D02*
X0305604Y0085800D01*
X0304605Y0084802D02*
X0303714Y0084802D01*
X0305886Y0081806D02*
X0316651Y0081806D01*
X0316651Y0080808D02*
X0303616Y0080808D01*
X0303616Y0079809D02*
X0316651Y0079809D01*
X0316651Y0078811D02*
X0303616Y0078811D01*
X0303616Y0077812D02*
X0316651Y0077812D01*
X0316651Y0076814D02*
X0303616Y0076814D01*
X0303714Y0075815D02*
X0316651Y0075815D01*
X0316651Y0074817D02*
X0303714Y0074817D01*
X0303616Y0073818D02*
X0316651Y0073818D01*
X0316651Y0072820D02*
X0303616Y0072820D01*
X0303616Y0071821D02*
X0316651Y0071821D01*
X0316651Y0070823D02*
X0304348Y0070823D01*
X0305347Y0069824D02*
X0316651Y0069824D01*
X0316651Y0068826D02*
X0306345Y0068826D01*
X0307123Y0067827D02*
X0316651Y0067827D01*
X0316651Y0066829D02*
X0307123Y0066829D01*
X0307123Y0065830D02*
X0316651Y0065830D01*
X0316651Y0064832D02*
X0307123Y0064832D01*
X0307123Y0063833D02*
X0316651Y0063833D01*
X0316651Y0062835D02*
X0307123Y0062835D01*
X0306836Y0061836D02*
X0316651Y0061836D01*
X0316651Y0060837D02*
X0305837Y0060837D01*
X0304839Y0059839D02*
X0316651Y0059839D01*
X0316651Y0058840D02*
X0285086Y0058840D01*
X0284087Y0057842D02*
X0316651Y0057842D01*
X0316651Y0056843D02*
X0283089Y0056843D01*
X0282090Y0055845D02*
X0316651Y0055845D01*
X0316651Y0054846D02*
X0281092Y0054846D01*
X0280093Y0053848D02*
X0316651Y0053848D01*
X0316651Y0052849D02*
X0254094Y0052849D01*
X0253096Y0051851D02*
X0316651Y0051851D01*
X0316651Y0050852D02*
X0252097Y0050852D01*
X0251099Y0049854D02*
X0316651Y0049854D01*
X0316651Y0048855D02*
X0250100Y0048855D01*
X0249102Y0047857D02*
X0316651Y0047857D01*
X0316651Y0046858D02*
X0248103Y0046858D01*
X0247105Y0045860D02*
X0316651Y0045860D01*
X0316651Y0044861D02*
X0246106Y0044861D01*
X0245108Y0043863D02*
X0316651Y0043863D01*
X0316651Y0042864D02*
X0245485Y0042864D01*
X0245726Y0041866D02*
X0316651Y0041866D01*
X0316651Y0040867D02*
X0245726Y0040867D01*
X0245726Y0039869D02*
X0316651Y0039869D01*
X0316651Y0038870D02*
X0245619Y0038870D01*
X0244621Y0037872D02*
X0316651Y0037872D01*
X0316651Y0036873D02*
X0243622Y0036873D01*
X0241443Y0040682D02*
X0241443Y0042335D01*
X0253962Y0054855D01*
X0278962Y0054855D01*
X0285261Y0061154D01*
X0304016Y0061154D01*
X0305612Y0062750D01*
X0305612Y0067421D01*
X0302922Y0070111D01*
X0299314Y0070111D01*
X0299314Y0067552D02*
X0302852Y0067552D01*
X0303759Y0066645D01*
X0303759Y0063510D01*
X0302978Y0062729D01*
X0284277Y0062729D01*
X0277978Y0056430D01*
X0247072Y0056430D01*
X0241561Y0050918D01*
X0241443Y0050918D01*
X0241324Y0050800D01*
X0245726Y0050852D02*
X0247821Y0050852D01*
X0246823Y0049854D02*
X0245726Y0049854D01*
X0245824Y0048855D02*
X0245605Y0048855D01*
X0244826Y0047857D02*
X0244606Y0047857D01*
X0243827Y0046858D02*
X0243607Y0046858D01*
X0242829Y0045860D02*
X0237561Y0045860D01*
X0237561Y0046858D02*
X0239041Y0046858D01*
X0238043Y0047857D02*
X0237561Y0047857D01*
X0236049Y0045603D02*
X0236049Y0053156D01*
X0238141Y0055249D01*
X0241757Y0055249D01*
X0244513Y0058005D01*
X0276797Y0058005D01*
X0283785Y0064993D01*
X0299314Y0064993D01*
X0299314Y0072670D02*
X0290773Y0072670D01*
X0286935Y0072670D01*
X0281817Y0067552D01*
X0277114Y0067552D01*
X0266462Y0067552D01*
X0261344Y0072670D01*
X0255810Y0072670D01*
X0243431Y0072670D01*
X0238313Y0067552D01*
X0233610Y0067552D01*
X0222958Y0067552D01*
X0217840Y0072670D01*
X0212306Y0072670D01*
X0199927Y0072670D01*
X0194809Y0067552D01*
X0190106Y0067552D01*
X0179454Y0067552D01*
X0174336Y0072670D01*
X0168802Y0072670D01*
X0175326Y0073818D02*
X0185805Y0073818D01*
X0185805Y0072820D02*
X0176325Y0072820D01*
X0177323Y0071821D02*
X0185805Y0071821D01*
X0185706Y0070823D02*
X0178322Y0070823D01*
X0179320Y0069824D02*
X0185706Y0069824D01*
X0190106Y0070111D02*
X0190106Y0070111D01*
X0194506Y0070111D01*
X0194506Y0069388D01*
X0199301Y0074182D01*
X0207946Y0074182D01*
X0207906Y0074332D01*
X0207906Y0075229D01*
X0212306Y0075229D01*
X0212306Y0075229D01*
X0207906Y0075229D01*
X0207906Y0076127D01*
X0208008Y0076505D01*
X0208005Y0076508D01*
X0208005Y0078835D01*
X0204419Y0078835D01*
X0203533Y0079721D01*
X0197600Y0085654D01*
X0197600Y0078441D01*
X0196714Y0077556D01*
X0195435Y0076276D01*
X0194408Y0076276D01*
X0194408Y0071390D01*
X0194405Y0071387D01*
X0194506Y0071009D01*
X0194506Y0070111D01*
X0190106Y0070111D01*
X0190106Y0070111D01*
X0194506Y0069824D02*
X0194943Y0069824D01*
X0194506Y0070823D02*
X0195941Y0070823D01*
X0196940Y0071821D02*
X0194408Y0071821D01*
X0194408Y0072820D02*
X0197938Y0072820D01*
X0198937Y0073818D02*
X0194408Y0073818D01*
X0194408Y0074817D02*
X0207906Y0074817D01*
X0207906Y0075815D02*
X0194408Y0075815D01*
X0195972Y0076814D02*
X0208005Y0076814D01*
X0208005Y0077812D02*
X0196971Y0077812D01*
X0197600Y0078811D02*
X0208005Y0078811D01*
X0205045Y0080347D02*
X0196088Y0089304D01*
X0197600Y0084802D02*
X0198452Y0084802D01*
X0197600Y0083803D02*
X0199451Y0083803D01*
X0200449Y0082805D02*
X0197600Y0082805D01*
X0197600Y0081806D02*
X0201448Y0081806D01*
X0202446Y0080808D02*
X0197600Y0080808D01*
X0197600Y0079809D02*
X0203445Y0079809D01*
X0212306Y0080347D02*
X0212306Y0082906D01*
X0216608Y0082805D02*
X0218497Y0082805D01*
X0218210Y0083803D02*
X0216608Y0083803D01*
X0216706Y0084802D02*
X0218210Y0084802D01*
X0218593Y0085800D02*
X0216706Y0085800D01*
X0216608Y0086799D02*
X0219387Y0086799D01*
X0216608Y0087797D02*
X0223328Y0087797D01*
X0223328Y0088796D02*
X0216608Y0088796D01*
X0216608Y0089794D02*
X0223735Y0089794D01*
X0224562Y0090793D02*
X0216608Y0090793D01*
X0216608Y0091791D02*
X0226108Y0091791D01*
X0226797Y0093241D02*
X0226797Y0096194D01*
X0226797Y0093241D02*
X0229454Y0090583D01*
X0233610Y0090583D01*
X0238313Y0090583D01*
X0239592Y0089304D01*
X0239592Y0091863D02*
X0239592Y0094422D01*
X0239592Y0091863D02*
X0243431Y0088024D01*
X0255810Y0088024D01*
X0255810Y0090583D02*
X0248549Y0090583D01*
X0247269Y0091863D01*
X0247269Y0094422D01*
X0244080Y0095785D02*
X0242782Y0095785D01*
X0243061Y0094787D02*
X0243801Y0094787D01*
X0243801Y0093788D02*
X0243061Y0093788D01*
X0242670Y0092790D02*
X0244191Y0092790D01*
X0244995Y0091791D02*
X0241867Y0091791D01*
X0242800Y0090793D02*
X0246201Y0090793D01*
X0247200Y0089794D02*
X0243799Y0089794D01*
X0245234Y0085800D02*
X0251410Y0085800D01*
X0251410Y0084802D02*
X0246232Y0084802D01*
X0247231Y0083803D02*
X0251509Y0083803D01*
X0251509Y0082805D02*
X0248229Y0082805D01*
X0245950Y0080808D02*
X0241104Y0080808D01*
X0241104Y0081806D02*
X0244952Y0081806D01*
X0243953Y0082805D02*
X0241104Y0082805D01*
X0241104Y0083803D02*
X0242955Y0083803D01*
X0241956Y0084802D02*
X0241104Y0084802D01*
X0241104Y0079809D02*
X0246949Y0079809D01*
X0251509Y0078811D02*
X0241104Y0078811D01*
X0240475Y0077812D02*
X0251509Y0077812D01*
X0251509Y0076814D02*
X0239476Y0076814D01*
X0237912Y0075815D02*
X0251410Y0075815D01*
X0251410Y0074817D02*
X0237912Y0074817D01*
X0237912Y0073818D02*
X0242441Y0073818D01*
X0241442Y0072820D02*
X0237912Y0072820D01*
X0237912Y0071821D02*
X0240444Y0071821D01*
X0239445Y0070823D02*
X0238010Y0070823D01*
X0238010Y0070111D02*
X0233610Y0070111D01*
X0229210Y0070111D01*
X0233610Y0070111D01*
X0233610Y0070111D01*
X0233610Y0070111D01*
X0238010Y0070111D01*
X0238010Y0069824D02*
X0238447Y0069824D01*
X0241265Y0064993D02*
X0255810Y0064993D01*
X0255810Y0067552D02*
X0259561Y0067552D01*
X0260489Y0066624D01*
X0260489Y0063801D01*
X0259417Y0062729D01*
X0241561Y0062729D01*
X0239592Y0060761D01*
X0227387Y0060761D01*
X0221285Y0054658D01*
X0221285Y0050839D01*
X0221324Y0050800D01*
X0224606Y0047857D02*
X0224694Y0047857D01*
X0224694Y0046858D02*
X0223607Y0046858D01*
X0224522Y0045860D02*
X0218072Y0045860D01*
X0218072Y0046858D02*
X0219041Y0046858D01*
X0219161Y0044861D02*
X0217524Y0044861D01*
X0218162Y0043863D02*
X0216525Y0043863D01*
X0217164Y0042864D02*
X0215527Y0042864D01*
X0215726Y0041866D02*
X0216923Y0041866D01*
X0216923Y0040867D02*
X0215726Y0040867D01*
X0215726Y0039869D02*
X0216923Y0039869D01*
X0217029Y0038870D02*
X0215619Y0038870D01*
X0214621Y0037872D02*
X0218028Y0037872D01*
X0219026Y0036873D02*
X0213622Y0036873D01*
X0211324Y0040800D02*
X0216561Y0046036D01*
X0216561Y0053477D01*
X0225813Y0062729D01*
X0239002Y0062729D01*
X0241265Y0064993D01*
X0242545Y0061154D02*
X0240183Y0058792D01*
X0228696Y0058792D01*
X0226206Y0056302D01*
X0226206Y0045406D01*
X0221600Y0040800D01*
X0221324Y0040800D01*
X0224621Y0037872D02*
X0228028Y0037872D01*
X0227029Y0038870D02*
X0225619Y0038870D01*
X0225726Y0039869D02*
X0226923Y0039869D01*
X0226923Y0040867D02*
X0225726Y0040867D01*
X0225726Y0041866D02*
X0226923Y0041866D01*
X0227164Y0042864D02*
X0225802Y0042864D01*
X0226801Y0043863D02*
X0228162Y0043863D01*
X0227718Y0044861D02*
X0229161Y0044861D01*
X0227718Y0045860D02*
X0234167Y0045860D01*
X0234537Y0046858D02*
X0233607Y0046858D01*
X0236049Y0045603D02*
X0231324Y0040879D01*
X0231324Y0040800D01*
X0235726Y0040867D02*
X0236923Y0040867D01*
X0236923Y0039869D02*
X0235726Y0039869D01*
X0235619Y0038870D02*
X0237029Y0038870D01*
X0238028Y0037872D02*
X0234621Y0037872D01*
X0233622Y0036873D02*
X0239026Y0036873D01*
X0241443Y0040682D02*
X0241324Y0040800D01*
X0238162Y0043863D02*
X0236446Y0043863D01*
X0237164Y0042864D02*
X0235485Y0042864D01*
X0235726Y0041866D02*
X0236923Y0041866D01*
X0237445Y0044861D02*
X0239161Y0044861D01*
X0245726Y0051851D02*
X0248820Y0051851D01*
X0249818Y0052849D02*
X0245630Y0052849D01*
X0246628Y0053848D02*
X0250817Y0053848D01*
X0251816Y0054846D02*
X0247627Y0054846D01*
X0243529Y0059580D02*
X0263017Y0059580D01*
X0268431Y0064993D01*
X0277114Y0064993D01*
X0277114Y0070111D02*
X0277114Y0070111D01*
X0281514Y0069824D02*
X0281951Y0069824D01*
X0281514Y0070823D02*
X0282949Y0070823D01*
X0283948Y0071821D02*
X0281416Y0071821D01*
X0281416Y0072820D02*
X0284946Y0072820D01*
X0285945Y0073818D02*
X0281416Y0073818D01*
X0281416Y0074817D02*
X0288015Y0074817D01*
X0289302Y0075815D02*
X0281416Y0075815D01*
X0282980Y0076814D02*
X0295013Y0076814D01*
X0295013Y0077812D02*
X0283979Y0077812D01*
X0284608Y0078811D02*
X0295013Y0078811D01*
X0294914Y0075815D02*
X0292244Y0075815D01*
X0293532Y0074817D02*
X0294914Y0074817D01*
X0290453Y0079809D02*
X0284608Y0079809D01*
X0284608Y0080808D02*
X0289454Y0080808D01*
X0288456Y0081806D02*
X0284608Y0081806D01*
X0284608Y0082805D02*
X0287457Y0082805D01*
X0286459Y0083803D02*
X0284608Y0083803D01*
X0284608Y0084802D02*
X0285460Y0084802D01*
X0288738Y0085800D02*
X0294914Y0085800D01*
X0294914Y0084802D02*
X0289736Y0084802D01*
X0290735Y0083803D02*
X0295013Y0083803D01*
X0295013Y0082805D02*
X0291733Y0082805D01*
X0277114Y0080347D02*
X0270399Y0080347D01*
X0270301Y0080249D01*
X0266230Y0075882D02*
X0266230Y0075882D01*
X0266297Y0075815D02*
X0260210Y0075815D01*
X0260210Y0074817D02*
X0272813Y0074817D01*
X0272813Y0073818D02*
X0262334Y0073818D01*
X0263333Y0072820D02*
X0272813Y0072820D01*
X0272813Y0071821D02*
X0264331Y0071821D01*
X0265330Y0070823D02*
X0272714Y0070823D01*
X0272714Y0069824D02*
X0266328Y0069824D01*
X0262629Y0067842D02*
X0260360Y0070111D01*
X0255810Y0070111D01*
X0262629Y0067842D02*
X0262629Y0063062D01*
X0260722Y0061154D01*
X0242545Y0061154D01*
X0243529Y0059580D02*
X0240970Y0057020D01*
X0233096Y0057020D01*
X0231324Y0055249D01*
X0231324Y0050800D01*
X0228043Y0047857D02*
X0227718Y0047857D01*
X0227718Y0046858D02*
X0229041Y0046858D01*
X0223523Y0044861D02*
X0223488Y0044861D01*
X0215049Y0046858D02*
X0213607Y0046858D01*
X0214246Y0045860D02*
X0207836Y0045860D01*
X0207836Y0046858D02*
X0209041Y0046858D01*
X0208043Y0047857D02*
X0207836Y0047857D01*
X0206324Y0045800D02*
X0206324Y0053730D01*
X0206381Y0053730D01*
X0208490Y0055839D01*
X0211949Y0055839D01*
X0219121Y0063011D01*
X0219121Y0068043D01*
X0217053Y0070111D01*
X0212306Y0070111D01*
X0216666Y0074182D02*
X0217214Y0074182D01*
X0218466Y0074182D01*
X0223584Y0069064D01*
X0229250Y0069064D01*
X0229210Y0069214D01*
X0229210Y0070111D01*
X0229210Y0071009D01*
X0229312Y0071387D01*
X0229309Y0071390D01*
X0229309Y0074997D01*
X0223612Y0074997D01*
X0222726Y0075882D01*
X0222726Y0075882D01*
X0219773Y0078835D01*
X0216608Y0078835D01*
X0216608Y0076508D01*
X0216605Y0076505D01*
X0216706Y0076127D01*
X0216706Y0075229D01*
X0212306Y0075229D01*
X0212306Y0075229D01*
X0216706Y0075229D01*
X0216706Y0074332D01*
X0216666Y0074182D01*
X0216706Y0074817D02*
X0229309Y0074817D01*
X0229309Y0073818D02*
X0218830Y0073818D01*
X0219829Y0072820D02*
X0229309Y0072820D01*
X0229309Y0071821D02*
X0220827Y0071821D01*
X0221826Y0070823D02*
X0229210Y0070823D01*
X0229210Y0069824D02*
X0222824Y0069824D01*
X0224533Y0064993D02*
X0211324Y0051784D01*
X0211324Y0050800D01*
X0214606Y0047857D02*
X0215049Y0047857D01*
X0209161Y0044861D02*
X0207524Y0044861D01*
X0208162Y0043863D02*
X0206525Y0043863D01*
X0207164Y0042864D02*
X0205527Y0042864D01*
X0205726Y0041866D02*
X0206923Y0041866D01*
X0206923Y0040867D02*
X0205726Y0040867D01*
X0205726Y0039869D02*
X0206923Y0039869D01*
X0207029Y0038870D02*
X0205619Y0038870D01*
X0204621Y0037872D02*
X0208028Y0037872D01*
X0209026Y0036873D02*
X0203622Y0036873D01*
X0191324Y0050800D02*
X0191324Y0064894D01*
X0191364Y0064894D01*
X0191324Y0064894D02*
X0191167Y0064894D01*
X0191069Y0064993D01*
X0190106Y0064993D01*
X0216706Y0075815D02*
X0222793Y0075815D01*
X0221795Y0076814D02*
X0216608Y0076814D01*
X0216608Y0077812D02*
X0220796Y0077812D01*
X0219798Y0078811D02*
X0216608Y0078811D01*
X0221679Y0084186D02*
X0228175Y0084186D01*
X0229454Y0085465D01*
X0233610Y0085465D01*
X0233610Y0088024D02*
X0226895Y0088024D01*
X0226797Y0088123D01*
X0224085Y0092790D02*
X0216608Y0092790D01*
X0216608Y0093788D02*
X0223427Y0093788D01*
X0223427Y0094787D02*
X0216244Y0094787D01*
X0213818Y0095785D02*
X0223427Y0095785D01*
X0223427Y0096784D02*
X0214379Y0096784D01*
X0215256Y0097782D02*
X0223427Y0097782D01*
X0223427Y0098781D02*
X0215670Y0098781D01*
X0215698Y0099779D02*
X0223649Y0099779D01*
X0223328Y0100778D02*
X0215471Y0100778D01*
X0214899Y0101776D02*
X0223328Y0101776D01*
X0223328Y0103773D02*
X0031081Y0103773D01*
X0031174Y0102775D02*
X0180267Y0102775D01*
X0178852Y0101776D02*
X0031174Y0101776D01*
X0030584Y0104772D02*
X0223328Y0104772D01*
X0223511Y0105770D02*
X0030584Y0105770D01*
X0030584Y0106769D02*
X0275392Y0106769D01*
X0276390Y0107768D02*
X0030584Y0107768D01*
X0030584Y0108766D02*
X0279983Y0108766D01*
X0280738Y0109765D02*
X0030656Y0109765D01*
X0031174Y0110763D02*
X0301058Y0110763D01*
X0300808Y0109765D02*
X0302056Y0109765D01*
X0301563Y0108766D02*
X0303055Y0108766D01*
X0303876Y0104772D02*
X0300910Y0104772D01*
X0299238Y0099540D02*
X0299314Y0099464D01*
X0299314Y0093143D01*
X0304848Y0093143D01*
X0310879Y0086799D02*
X0316651Y0086799D01*
X0316651Y0087797D02*
X0311877Y0087797D01*
X0312876Y0088796D02*
X0316651Y0088796D01*
X0316651Y0089794D02*
X0313874Y0089794D01*
X0314226Y0090793D02*
X0316651Y0090793D01*
X0316651Y0091791D02*
X0314226Y0091791D01*
X0314226Y0092790D02*
X0316651Y0092790D01*
X0316651Y0093788D02*
X0314226Y0093788D01*
X0314226Y0094787D02*
X0316651Y0094787D01*
X0316651Y0095785D02*
X0314226Y0095785D01*
X0314226Y0096784D02*
X0316651Y0096784D01*
X0316651Y0097782D02*
X0314226Y0097782D01*
X0314226Y0098781D02*
X0316651Y0098781D01*
X0316651Y0099779D02*
X0314226Y0099779D01*
X0314226Y0100778D02*
X0316651Y0100778D01*
X0316651Y0101776D02*
X0314226Y0101776D01*
X0314226Y0102775D02*
X0316651Y0102775D01*
X0316651Y0103773D02*
X0314226Y0103773D01*
X0314226Y0104772D02*
X0316651Y0104772D01*
X0316651Y0105770D02*
X0314226Y0105770D01*
X0314226Y0106769D02*
X0316651Y0106769D01*
X0316651Y0107768D02*
X0314226Y0107768D01*
X0314226Y0108766D02*
X0316651Y0108766D01*
X0316651Y0109765D02*
X0314226Y0109765D01*
X0314226Y0110763D02*
X0316651Y0110763D01*
X0316651Y0111762D02*
X0314226Y0111762D01*
X0314226Y0112760D02*
X0316651Y0112760D01*
X0316651Y0113759D02*
X0314226Y0113759D01*
X0314226Y0114757D02*
X0316651Y0114757D01*
X0316651Y0115756D02*
X0314226Y0115756D01*
X0314083Y0116754D02*
X0316651Y0116754D01*
X0316651Y0117753D02*
X0313085Y0117753D01*
X0313340Y0117497D02*
X0313340Y0117497D01*
X0312086Y0118751D02*
X0316651Y0118751D01*
X0316651Y0119750D02*
X0311088Y0119750D01*
X0310089Y0120748D02*
X0316651Y0120748D01*
X0316651Y0121747D02*
X0309091Y0121747D01*
X0308092Y0122745D02*
X0316651Y0122745D01*
X0316651Y0123744D02*
X0307094Y0123744D01*
X0306095Y0124742D02*
X0316651Y0124742D01*
X0316651Y0125741D02*
X0305096Y0125741D01*
X0304098Y0126739D02*
X0316651Y0126739D01*
X0316651Y0127738D02*
X0303099Y0127738D01*
X0302480Y0128736D02*
X0316651Y0128736D01*
X0316651Y0129735D02*
X0311780Y0129735D01*
X0311856Y0129867D02*
X0311958Y0130248D01*
X0311958Y0132127D01*
X0308974Y0132127D01*
X0308974Y0128946D01*
X0310656Y0128946D01*
X0311037Y0129048D01*
X0311379Y0129245D01*
X0311659Y0129525D01*
X0311856Y0129867D01*
X0311958Y0130733D02*
X0316651Y0130733D01*
X0316651Y0131732D02*
X0311958Y0131732D01*
X0311958Y0133729D02*
X0316651Y0133729D01*
X0316651Y0134727D02*
X0311958Y0134727D01*
X0311630Y0135726D02*
X0316651Y0135726D01*
X0316651Y0136724D02*
X0311860Y0136724D01*
X0311860Y0137723D02*
X0316651Y0137723D01*
X0316651Y0138721D02*
X0311860Y0138721D01*
X0311860Y0139720D02*
X0316651Y0139720D01*
X0316651Y0140718D02*
X0311860Y0140718D01*
X0311860Y0141717D02*
X0316651Y0141717D01*
X0316651Y0142715D02*
X0311194Y0142715D01*
X0305120Y0137723D02*
X0302480Y0137723D01*
X0302480Y0138721D02*
X0303588Y0138721D01*
X0302589Y0139720D02*
X0302480Y0139720D01*
X0301009Y0141821D02*
X0292801Y0141821D01*
X0288499Y0139720D02*
X0284469Y0139720D01*
X0284569Y0138721D02*
X0288499Y0138721D01*
X0288499Y0137723D02*
X0284537Y0137723D01*
X0284124Y0136724D02*
X0288499Y0136724D01*
X0288499Y0135726D02*
X0283242Y0135726D01*
X0282613Y0134727D02*
X0288563Y0134727D01*
X0282613Y0133729D02*
X0299456Y0133729D01*
X0299456Y0134727D02*
X0297039Y0134727D01*
X0297102Y0135726D02*
X0299456Y0135726D01*
X0299456Y0136724D02*
X0297102Y0136724D01*
X0297102Y0137723D02*
X0299456Y0137723D01*
X0299456Y0138721D02*
X0297102Y0138721D01*
X0297102Y0139720D02*
X0299456Y0139720D01*
X0302480Y0136724D02*
X0305120Y0136724D01*
X0305349Y0135726D02*
X0302480Y0135726D01*
X0302480Y0134727D02*
X0305021Y0134727D01*
X0305021Y0133729D02*
X0302480Y0133729D01*
X0302480Y0132730D02*
X0308005Y0132730D01*
X0308974Y0132730D02*
X0316651Y0132730D01*
X0308974Y0131732D02*
X0308005Y0131732D01*
X0308005Y0130733D02*
X0308974Y0130733D01*
X0308974Y0129735D02*
X0308005Y0129735D01*
X0305200Y0129735D02*
X0302480Y0129735D01*
X0302480Y0130733D02*
X0305021Y0130733D01*
X0305021Y0131732D02*
X0302480Y0131732D01*
X0299560Y0120748D02*
X0305813Y0120748D01*
X0306812Y0119750D02*
X0301059Y0119750D01*
X0283101Y0124742D02*
X0283101Y0124742D01*
X0283101Y0125741D02*
X0283101Y0125741D01*
X0283101Y0126739D02*
X0283101Y0126739D01*
X0279589Y0132730D02*
X0257013Y0132730D01*
X0257013Y0133729D02*
X0279589Y0133729D01*
X0279589Y0134727D02*
X0257013Y0134727D01*
X0257652Y0135726D02*
X0278960Y0135726D01*
X0278078Y0136724D02*
X0258549Y0136724D01*
X0258963Y0137723D02*
X0277664Y0137723D01*
X0277632Y0138721D02*
X0259005Y0138721D01*
X0258793Y0139720D02*
X0277856Y0139720D01*
X0278424Y0140718D02*
X0258240Y0140718D01*
X0256874Y0141717D02*
X0279828Y0141717D01*
X0283188Y0142715D02*
X0252102Y0142715D01*
X0252102Y0141717D02*
X0254200Y0141717D01*
X0252834Y0140718D02*
X0252102Y0140718D01*
X0252102Y0139720D02*
X0252281Y0139720D01*
X0252111Y0137723D02*
X0252102Y0137723D01*
X0252102Y0136724D02*
X0252525Y0136724D01*
X0252102Y0135726D02*
X0253423Y0135726D01*
X0253989Y0134727D02*
X0252039Y0134727D01*
X0255501Y0138480D02*
X0255537Y0138517D01*
X0255501Y0138480D02*
X0255501Y0128221D01*
X0257501Y0127738D02*
X0257501Y0127738D01*
X0257501Y0128736D02*
X0257501Y0128736D01*
X0257501Y0129735D02*
X0257501Y0129735D01*
X0257501Y0130733D02*
X0257501Y0130733D01*
X0257501Y0131732D02*
X0257501Y0131732D01*
X0257501Y0126739D02*
X0257501Y0126739D01*
X0257501Y0125741D02*
X0257501Y0125741D01*
X0257501Y0124742D02*
X0257501Y0124742D01*
X0235663Y0116754D02*
X0006717Y0116754D01*
X0006716Y0115756D02*
X0015046Y0115756D01*
X0014048Y0114757D02*
X0006715Y0114757D01*
X0006714Y0113759D02*
X0013049Y0113759D01*
X0012971Y0112760D02*
X0006713Y0112760D01*
X0006712Y0111762D02*
X0012971Y0111762D01*
X0012971Y0110763D02*
X0006711Y0110763D01*
X0006710Y0109765D02*
X0013443Y0109765D01*
X0013443Y0108766D02*
X0006709Y0108766D01*
X0006708Y0107768D02*
X0013443Y0107768D01*
X0013443Y0106769D02*
X0006707Y0106769D01*
X0006706Y0105770D02*
X0013443Y0105770D01*
X0013443Y0104772D02*
X0006705Y0104772D01*
X0006704Y0103773D02*
X0013064Y0103773D01*
X0012971Y0102775D02*
X0006703Y0102775D01*
X0006702Y0101776D02*
X0012971Y0101776D01*
X0012971Y0100778D02*
X0006701Y0100778D01*
X0006700Y0099779D02*
X0013474Y0099779D01*
X0014472Y0098781D02*
X0006699Y0098781D01*
X0006698Y0097782D02*
X0159310Y0097782D01*
X0157718Y0096784D02*
X0006697Y0096784D01*
X0006696Y0095785D02*
X0015076Y0095785D01*
X0014078Y0094787D02*
X0006695Y0094787D01*
X0006694Y0093788D02*
X0013079Y0093788D01*
X0012971Y0092790D02*
X0006693Y0092790D01*
X0006692Y0091791D02*
X0012971Y0091791D01*
X0012971Y0090793D02*
X0006691Y0090793D01*
X0006690Y0089794D02*
X0013459Y0089794D01*
X0013561Y0088796D02*
X0006689Y0088796D01*
X0006688Y0087797D02*
X0013561Y0087797D01*
X0013561Y0086799D02*
X0006687Y0086799D01*
X0006686Y0085800D02*
X0013561Y0085800D01*
X0013561Y0084802D02*
X0006685Y0084802D01*
X0006684Y0083803D02*
X0013094Y0083803D01*
X0012971Y0082805D02*
X0006683Y0082805D01*
X0006682Y0081806D02*
X0012971Y0081806D01*
X0012971Y0080808D02*
X0006681Y0080808D01*
X0006680Y0079809D02*
X0013444Y0079809D01*
X0014442Y0078811D02*
X0006679Y0078811D01*
X0006676Y0075815D02*
X0014967Y0075815D01*
X0013968Y0074817D02*
X0006675Y0074817D01*
X0006674Y0073818D02*
X0012970Y0073818D01*
X0012872Y0072820D02*
X0006673Y0072820D01*
X0016672Y0072820D02*
X0017472Y0072820D01*
X0017472Y0073818D02*
X0016672Y0073818D01*
X0016672Y0074817D02*
X0017472Y0074817D01*
X0017472Y0075815D02*
X0016672Y0075815D01*
X0019178Y0075815D02*
X0024967Y0075815D01*
X0025333Y0076181D02*
X0022872Y0073721D01*
X0022872Y0072381D01*
X0026672Y0072381D01*
X0026672Y0076181D01*
X0025333Y0076181D01*
X0026672Y0075815D02*
X0027472Y0075815D01*
X0027472Y0074817D02*
X0026672Y0074817D01*
X0026672Y0073818D02*
X0027472Y0073818D01*
X0027472Y0072820D02*
X0026672Y0072820D01*
X0026672Y0071821D02*
X0017473Y0071821D01*
X0019857Y0068826D02*
X0024288Y0068826D01*
X0023290Y0069824D02*
X0020855Y0069824D01*
X0021272Y0070823D02*
X0022872Y0070823D01*
X0022872Y0072820D02*
X0021272Y0072820D01*
X0021175Y0073818D02*
X0022970Y0073818D01*
X0023968Y0074817D02*
X0020177Y0074817D01*
X0018858Y0067827D02*
X0025287Y0067827D01*
X0025076Y0095785D02*
X0019069Y0095785D01*
X0019098Y0115756D02*
X0025046Y0115756D01*
X0078051Y0145711D02*
X0104067Y0145711D01*
X0105786Y0144712D02*
X0078876Y0144712D01*
X0092151Y0132808D02*
X0135655Y0132808D01*
X0179159Y0132808D01*
X0177515Y0129735D02*
X0137300Y0129735D01*
X0138486Y0130733D02*
X0176328Y0130733D01*
X0194264Y0144712D02*
X0195584Y0144712D01*
X0195983Y0145711D02*
X0196409Y0145711D01*
X0188411Y0153280D02*
X0192952Y0157821D01*
X0234825Y0157821D01*
X0247801Y0163521D02*
X0247801Y0163521D01*
X0252102Y0158692D02*
X0252898Y0158692D01*
X0252102Y0157693D02*
X0269391Y0157693D01*
X0269485Y0156695D02*
X0263804Y0156695D01*
X0264916Y0155696D02*
X0269899Y0155696D01*
X0260262Y0156695D02*
X0252102Y0156695D01*
X0209828Y0182656D02*
X0203548Y0182656D01*
X0204546Y0183654D02*
X0208830Y0183654D01*
X0207831Y0184653D02*
X0205545Y0184653D01*
X0205859Y0185651D02*
X0207557Y0185651D01*
X0211357Y0188647D02*
X0212157Y0188647D01*
X0212157Y0189645D02*
X0211357Y0189645D01*
X0211357Y0190644D02*
X0212157Y0190644D01*
X0213533Y0192641D02*
X0256253Y0192641D01*
X0257133Y0193639D02*
X0214531Y0193639D01*
X0199982Y0192641D02*
X0193533Y0192641D01*
X0193456Y0192565D02*
X0195859Y0194967D01*
X0195859Y0198365D01*
X0193456Y0200768D01*
X0190059Y0200768D01*
X0187656Y0198365D01*
X0187656Y0194967D01*
X0190059Y0192565D01*
X0193456Y0192565D01*
X0194531Y0193639D02*
X0198984Y0193639D01*
X0197985Y0194638D02*
X0195530Y0194638D01*
X0195859Y0195637D02*
X0197656Y0195637D01*
X0197656Y0196635D02*
X0195859Y0196635D01*
X0195859Y0197634D02*
X0197656Y0197634D01*
X0197923Y0198632D02*
X0195592Y0198632D01*
X0194594Y0199631D02*
X0198921Y0199631D01*
X0199920Y0200629D02*
X0193595Y0200629D01*
X0189920Y0200629D02*
X0183734Y0200629D01*
X0183497Y0200866D02*
X0182157Y0200866D01*
X0182157Y0197066D01*
X0181357Y0197066D01*
X0181357Y0196266D01*
X0177557Y0196266D01*
X0177557Y0194926D01*
X0180018Y0192466D01*
X0181357Y0192466D01*
X0181357Y0196266D01*
X0182157Y0196266D01*
X0182157Y0192466D01*
X0183497Y0192466D01*
X0185957Y0194926D01*
X0185957Y0196266D01*
X0182158Y0196266D01*
X0182158Y0197066D01*
X0185957Y0197066D01*
X0185957Y0198406D01*
X0183497Y0200866D01*
X0182157Y0200629D02*
X0181357Y0200629D01*
X0181357Y0200866D02*
X0180018Y0200866D01*
X0177557Y0198406D01*
X0177557Y0197066D01*
X0181357Y0197066D01*
X0181357Y0200866D01*
X0181357Y0199631D02*
X0182157Y0199631D01*
X0182157Y0198632D02*
X0181357Y0198632D01*
X0181357Y0197634D02*
X0182157Y0197634D01*
X0182158Y0196635D02*
X0187656Y0196635D01*
X0187656Y0195637D02*
X0185957Y0195637D01*
X0185669Y0194638D02*
X0187985Y0194638D01*
X0188984Y0193639D02*
X0184671Y0193639D01*
X0183672Y0192641D02*
X0189982Y0192641D01*
X0190059Y0190768D02*
X0187656Y0188365D01*
X0187656Y0184967D01*
X0190059Y0182565D01*
X0193456Y0182565D01*
X0195859Y0184967D01*
X0195859Y0188365D01*
X0193456Y0190768D01*
X0190059Y0190768D01*
X0189935Y0190644D02*
X0183580Y0190644D01*
X0183456Y0190768D02*
X0180059Y0190768D01*
X0177656Y0188365D01*
X0177656Y0184967D01*
X0180059Y0182565D01*
X0183456Y0182565D01*
X0185859Y0184967D01*
X0185859Y0188365D01*
X0183456Y0190768D01*
X0184579Y0189645D02*
X0188936Y0189645D01*
X0187938Y0188647D02*
X0185577Y0188647D01*
X0185859Y0187648D02*
X0187656Y0187648D01*
X0187656Y0186650D02*
X0185859Y0186650D01*
X0185859Y0185651D02*
X0187656Y0185651D01*
X0187970Y0184653D02*
X0185545Y0184653D01*
X0184546Y0183654D02*
X0188969Y0183654D01*
X0189967Y0182656D02*
X0183548Y0182656D01*
X0179967Y0182656D02*
X0173548Y0182656D01*
X0174546Y0183654D02*
X0178969Y0183654D01*
X0177970Y0184653D02*
X0175545Y0184653D01*
X0175859Y0185651D02*
X0177656Y0185651D01*
X0177656Y0186650D02*
X0175859Y0186650D01*
X0175859Y0187648D02*
X0177656Y0187648D01*
X0177938Y0188647D02*
X0175577Y0188647D01*
X0174579Y0189645D02*
X0178936Y0189645D01*
X0179935Y0190644D02*
X0173580Y0190644D01*
X0173533Y0192641D02*
X0179843Y0192641D01*
X0178844Y0193639D02*
X0174531Y0193639D01*
X0175530Y0194638D02*
X0177846Y0194638D01*
X0177557Y0195637D02*
X0175859Y0195637D01*
X0175859Y0196635D02*
X0181357Y0196635D01*
X0181357Y0195637D02*
X0182157Y0195637D01*
X0182157Y0194638D02*
X0181357Y0194638D01*
X0181357Y0193639D02*
X0182157Y0193639D01*
X0182157Y0192641D02*
X0181357Y0192641D01*
X0177557Y0197634D02*
X0175859Y0197634D01*
X0175592Y0198632D02*
X0177784Y0198632D01*
X0178782Y0199631D02*
X0174594Y0199631D01*
X0173595Y0200629D02*
X0179781Y0200629D01*
X0184733Y0199631D02*
X0188921Y0199631D01*
X0187923Y0198632D02*
X0185731Y0198632D01*
X0185957Y0197634D02*
X0187656Y0197634D01*
X0193580Y0190644D02*
X0199935Y0190644D01*
X0198936Y0189645D02*
X0194579Y0189645D01*
X0195577Y0188647D02*
X0197938Y0188647D01*
X0197656Y0187648D02*
X0195859Y0187648D01*
X0195859Y0186650D02*
X0197656Y0186650D01*
X0197656Y0185651D02*
X0195859Y0185651D01*
X0195545Y0184653D02*
X0197970Y0184653D01*
X0198969Y0183654D02*
X0194546Y0183654D01*
X0193548Y0182656D02*
X0199967Y0182656D01*
X0134011Y0129735D02*
X0093796Y0129735D01*
X0094982Y0130733D02*
X0132825Y0130733D01*
X0118278Y0139720D02*
X0112678Y0139720D01*
X0114219Y0140718D02*
X0116737Y0140718D01*
X0109401Y0145711D02*
X0108975Y0145711D01*
X0108576Y0144712D02*
X0107256Y0144712D01*
X0089967Y0182656D02*
X0083548Y0182656D01*
X0083456Y0182565D02*
X0085859Y0184967D01*
X0085859Y0188365D01*
X0083456Y0190768D01*
X0080059Y0190768D01*
X0077656Y0188365D01*
X0077656Y0184967D01*
X0080059Y0182565D01*
X0083456Y0182565D01*
X0084546Y0183654D02*
X0088969Y0183654D01*
X0087970Y0184653D02*
X0085545Y0184653D01*
X0085859Y0185651D02*
X0087656Y0185651D01*
X0087656Y0186650D02*
X0085859Y0186650D01*
X0085859Y0187648D02*
X0087656Y0187648D01*
X0087938Y0188647D02*
X0085577Y0188647D01*
X0084579Y0189645D02*
X0088936Y0189645D01*
X0089935Y0190644D02*
X0083580Y0190644D01*
X0083497Y0192466D02*
X0085957Y0194926D01*
X0085957Y0196266D01*
X0082158Y0196266D01*
X0082158Y0197066D01*
X0085957Y0197066D01*
X0085957Y0198406D01*
X0083497Y0200866D01*
X0082157Y0200866D01*
X0082157Y0197066D01*
X0081357Y0197066D01*
X0081357Y0196266D01*
X0077557Y0196266D01*
X0077557Y0194926D01*
X0080018Y0192466D01*
X0081357Y0192466D01*
X0081357Y0196266D01*
X0082157Y0196266D01*
X0082157Y0192466D01*
X0083497Y0192466D01*
X0083672Y0192641D02*
X0089982Y0192641D01*
X0088984Y0193639D02*
X0084671Y0193639D01*
X0085669Y0194638D02*
X0087985Y0194638D01*
X0087656Y0195637D02*
X0085957Y0195637D01*
X0087656Y0196635D02*
X0082158Y0196635D01*
X0081357Y0196635D02*
X0075859Y0196635D01*
X0075859Y0195637D02*
X0077557Y0195637D01*
X0077846Y0194638D02*
X0075530Y0194638D01*
X0074531Y0193639D02*
X0078844Y0193639D01*
X0079843Y0192641D02*
X0073533Y0192641D01*
X0073580Y0190644D02*
X0079935Y0190644D01*
X0078936Y0189645D02*
X0074579Y0189645D01*
X0075577Y0188647D02*
X0077938Y0188647D01*
X0077656Y0187648D02*
X0075859Y0187648D01*
X0075859Y0186650D02*
X0077656Y0186650D01*
X0077656Y0185651D02*
X0075859Y0185651D01*
X0075545Y0184653D02*
X0077970Y0184653D01*
X0078969Y0183654D02*
X0074546Y0183654D01*
X0073548Y0182656D02*
X0079967Y0182656D01*
X0069967Y0182656D02*
X0063687Y0182656D01*
X0064685Y0183654D02*
X0068969Y0183654D01*
X0067970Y0184653D02*
X0065684Y0184653D01*
X0065957Y0185651D02*
X0067656Y0185651D01*
X0081357Y0192641D02*
X0082157Y0192641D01*
X0082157Y0193639D02*
X0081357Y0193639D01*
X0081357Y0194638D02*
X0082157Y0194638D01*
X0082157Y0195637D02*
X0081357Y0195637D01*
X0081357Y0197066D02*
X0077557Y0197066D01*
X0077557Y0198406D01*
X0080018Y0200866D01*
X0081357Y0200866D01*
X0081357Y0197066D01*
X0081357Y0197634D02*
X0082157Y0197634D01*
X0082157Y0198632D02*
X0081357Y0198632D01*
X0081357Y0199631D02*
X0082157Y0199631D01*
X0082157Y0200629D02*
X0081357Y0200629D01*
X0079781Y0200629D02*
X0073595Y0200629D01*
X0074594Y0199631D02*
X0078782Y0199631D01*
X0077784Y0198632D02*
X0075592Y0198632D01*
X0075859Y0197634D02*
X0077557Y0197634D01*
X0083734Y0200629D02*
X0089920Y0200629D01*
X0088921Y0199631D02*
X0084733Y0199631D01*
X0085731Y0198632D02*
X0087923Y0198632D01*
X0087656Y0197634D02*
X0085957Y0197634D01*
X0029982Y0192641D02*
X0023533Y0192641D01*
X0024531Y0193639D02*
X0028984Y0193639D01*
X0027985Y0194638D02*
X0025530Y0194638D01*
X0161212Y0097782D02*
X0169856Y0097782D01*
X0168865Y0096784D02*
X0162805Y0096784D01*
X0163451Y0095785D02*
X0167874Y0095785D01*
X0168802Y0094575D02*
X0173691Y0099501D01*
X0174116Y0097782D02*
X0178495Y0097782D01*
X0179372Y0096784D02*
X0173125Y0096784D01*
X0168802Y0094575D02*
X0168802Y0093143D01*
X0164865Y0094787D02*
X0163730Y0094787D01*
X0163730Y0093788D02*
X0164501Y0093788D01*
X0164501Y0092790D02*
X0163340Y0092790D01*
X0161541Y0090583D02*
X0168802Y0090583D01*
X0184190Y0101776D02*
X0209561Y0101776D01*
X0210976Y0102775D02*
X0182775Y0102775D01*
X0212230Y0099540D02*
X0212306Y0099464D01*
X0212306Y0093143D01*
X0213484Y0102775D02*
X0226313Y0102775D01*
X0227281Y0102775D02*
X0254480Y0102775D01*
X0253065Y0101776D02*
X0230265Y0101776D01*
X0230265Y0100778D02*
X0252492Y0100778D01*
X0252265Y0099779D02*
X0229945Y0099779D01*
X0230167Y0098781D02*
X0252294Y0098781D01*
X0252708Y0097782D02*
X0248220Y0097782D01*
X0249813Y0096784D02*
X0253585Y0096784D01*
X0254298Y0095785D02*
X0250459Y0095785D01*
X0250738Y0094787D02*
X0251872Y0094787D01*
X0251509Y0093788D02*
X0250738Y0093788D01*
X0250347Y0092790D02*
X0251509Y0092790D01*
X0255810Y0093143D02*
X0255810Y0099464D01*
X0255734Y0099540D01*
X0258975Y0100778D02*
X0269401Y0100778D01*
X0270399Y0101776D02*
X0258403Y0101776D01*
X0256988Y0102775D02*
X0271398Y0102775D01*
X0272396Y0103773D02*
X0230265Y0103773D01*
X0230265Y0103371D02*
X0230265Y0105249D01*
X0230163Y0105631D01*
X0229966Y0105973D01*
X0229686Y0106252D01*
X0229344Y0106450D01*
X0228963Y0106552D01*
X0227281Y0106552D01*
X0227281Y0103371D01*
X0230265Y0103371D01*
X0230265Y0104772D02*
X0273395Y0104772D01*
X0274393Y0105770D02*
X0230083Y0105770D01*
X0227281Y0105770D02*
X0226313Y0105770D01*
X0226313Y0104772D02*
X0227281Y0104772D01*
X0227281Y0103773D02*
X0226313Y0103773D01*
X0230167Y0097782D02*
X0238641Y0097782D01*
X0237049Y0096784D02*
X0230167Y0096784D01*
X0230167Y0095785D02*
X0236403Y0095785D01*
X0233610Y0095342D02*
X0233610Y0093143D01*
X0233610Y0095343D01*
X0233610Y0094787D02*
X0233610Y0094787D01*
X0233610Y0093788D02*
X0233610Y0093788D01*
X0233610Y0093143D02*
X0233610Y0093143D01*
X0240543Y0097782D02*
X0246318Y0097782D01*
X0244726Y0096784D02*
X0242135Y0096784D01*
X0257322Y0095785D02*
X0264408Y0095785D01*
X0264556Y0095934D02*
X0264556Y0095934D01*
X0265407Y0096784D02*
X0257883Y0096784D01*
X0258760Y0097782D02*
X0266405Y0097782D01*
X0267404Y0098781D02*
X0259174Y0098781D01*
X0259202Y0099779D02*
X0268402Y0099779D01*
X0273423Y0096784D02*
X0280553Y0096784D01*
X0282145Y0097782D02*
X0274421Y0097782D01*
X0277114Y0094787D02*
X0277114Y0094787D01*
X0277114Y0093788D02*
X0277114Y0093788D01*
X0263671Y0093788D02*
X0260112Y0093788D01*
X0260112Y0092790D02*
X0263671Y0092790D01*
X0263671Y0091791D02*
X0260112Y0091791D01*
X0260112Y0090793D02*
X0263671Y0090793D01*
X0263671Y0089794D02*
X0260112Y0089794D01*
X0260112Y0088796D02*
X0263671Y0088796D01*
X0263671Y0087797D02*
X0260112Y0087797D01*
X0260112Y0086799D02*
X0262890Y0086799D01*
X0262097Y0085800D02*
X0260210Y0085800D01*
X0260210Y0084802D02*
X0261714Y0084802D01*
X0261714Y0083803D02*
X0260112Y0083803D01*
X0260112Y0082805D02*
X0262000Y0082805D01*
X0263302Y0078811D02*
X0260112Y0078811D01*
X0260112Y0077812D02*
X0264300Y0077812D01*
X0265299Y0076814D02*
X0260112Y0076814D01*
X0255810Y0080347D02*
X0255810Y0082906D01*
X0259748Y0094787D02*
X0263671Y0094787D01*
X0233610Y0080347D02*
X0226895Y0080347D01*
X0226797Y0080249D01*
X0224533Y0064993D02*
X0233610Y0064993D01*
X0229026Y0036873D02*
X0223622Y0036873D01*
X0306884Y0082805D02*
X0316651Y0082805D01*
X0316651Y0083803D02*
X0307883Y0083803D01*
X0308882Y0084802D02*
X0316651Y0084802D01*
X0316651Y0085800D02*
X0309880Y0085800D01*
X0298190Y0143714D02*
X0297201Y0143714D01*
D19*
X0301009Y0145800D03*
X0306324Y0145800D03*
X0306324Y0154068D03*
X0301009Y0158398D03*
X0282702Y0149934D03*
X0272860Y0157611D03*
X0262033Y0153674D03*
X0254946Y0153280D03*
X0254946Y0145603D03*
X0255537Y0138517D03*
X0244710Y0127690D03*
X0244710Y0121391D03*
X0245498Y0107217D03*
X0255734Y0107217D03*
X0265970Y0107217D03*
X0255734Y0099540D03*
X0247269Y0094422D03*
X0239592Y0094422D03*
X0226797Y0088123D03*
X0221679Y0084186D03*
X0226797Y0080249D03*
X0203765Y0094422D03*
X0196088Y0094422D03*
X0183293Y0088123D03*
X0178175Y0084186D03*
X0183293Y0080249D03*
X0160261Y0094422D03*
X0153569Y0096981D03*
X0139789Y0094422D03*
X0139789Y0088123D03*
X0134671Y0084186D03*
X0139789Y0080249D03*
X0181521Y0099540D03*
X0186836Y0104658D03*
X0194513Y0104658D03*
X0207309Y0107217D03*
X0217545Y0107217D03*
X0212230Y0099540D03*
X0235261Y0107217D03*
X0221679Y0122572D03*
X0222860Y0132808D03*
X0219120Y0136745D03*
X0229356Y0144422D03*
X0234474Y0151902D03*
X0224238Y0151902D03*
X0214002Y0153280D03*
X0206324Y0153280D03*
X0198647Y0153280D03*
X0193529Y0148162D03*
X0198647Y0143044D03*
X0206324Y0143044D03*
X0188411Y0153280D03*
X0180734Y0153280D03*
X0170498Y0153280D03*
X0162820Y0153280D03*
X0155143Y0153280D03*
X0150025Y0148162D03*
X0155143Y0143044D03*
X0162820Y0143044D03*
X0175616Y0136745D03*
X0179159Y0132808D03*
X0178175Y0122572D03*
X0134671Y0122572D03*
X0135655Y0132808D03*
X0132112Y0136745D03*
X0119317Y0143044D03*
X0111639Y0143044D03*
X0106521Y0148162D03*
X0101403Y0153280D03*
X0093726Y0153280D03*
X0083490Y0153280D03*
X0075813Y0153280D03*
X0068135Y0153280D03*
X0063017Y0148162D03*
X0052781Y0145603D03*
X0052781Y0153280D03*
X0075813Y0143044D03*
X0088608Y0136745D03*
X0092151Y0132808D03*
X0091167Y0122572D03*
X0050222Y0121194D03*
X0039986Y0125131D03*
X0086049Y0163517D03*
X0106521Y0166076D03*
X0114198Y0166076D03*
X0111639Y0153280D03*
X0119317Y0153280D03*
X0126994Y0153280D03*
X0137230Y0153280D03*
X0144907Y0153280D03*
X0237033Y0170603D03*
X0254946Y0161548D03*
X0277978Y0183989D03*
X0283096Y0183989D03*
X0288214Y0183989D03*
X0259277Y0190879D03*
X0244710Y0199343D03*
X0281101Y0138490D03*
X0290773Y0129265D03*
X0295891Y0129265D03*
X0295891Y0124146D03*
X0290773Y0124146D03*
X0298450Y0117454D03*
X0298450Y0107217D03*
X0290773Y0107217D03*
X0283096Y0107217D03*
X0299238Y0099540D03*
X0283096Y0094422D03*
X0270301Y0088123D03*
X0265183Y0084186D03*
X0270301Y0080249D03*
X0290773Y0072670D03*
X0162820Y0045800D03*
X0162820Y0038123D03*
X0045104Y0173753D03*
X0029750Y0173753D03*
X0019513Y0178871D03*
X0019513Y0204461D03*
D20*
X0021757Y0196666D02*
X0031757Y0196666D01*
X0016836Y0196666D01*
X0013910Y0193740D01*
X0013910Y0156231D01*
X0050222Y0127596D01*
X0050222Y0121194D01*
X0027072Y0111981D02*
X0017072Y0111981D01*
X0017072Y0131981D02*
X0027072Y0131981D01*
X0027072Y0091981D02*
X0027191Y0091981D01*
X0027072Y0081981D02*
X0027072Y0081627D01*
D21*
X0027072Y0081981D02*
X0017072Y0081981D01*
X0017072Y0091981D01*
X0027072Y0091981D01*
X0027191Y0091981D02*
X0027191Y0082020D01*
X0027072Y0101981D02*
X0017072Y0101981D01*
X0016954Y0102099D02*
X0016954Y0111981D01*
X0027072Y0111981D01*
X0027072Y0101981D01*
X0027072Y0121981D02*
X0017072Y0121981D01*
X0016954Y0122572D02*
X0016954Y0131981D01*
X0027072Y0131981D01*
X0027072Y0121981D01*
M02*
