G75*
%MOIN*%
%OFA0B0*%
%FSLAX25Y25*%
%IPPOS*%
%LPD*%
%AMOC8*
5,1,8,0,0,1.08239X$1,22.5*
%
%ADD10OC8,0.06800*%
%ADD11OC8,0.06200*%
%ADD12C,0.06200*%
%ADD13R,0.06600X0.01900*%
%ADD14R,0.01900X0.06600*%
%ADD15R,0.04737X0.05131*%
%ADD16C,0.06800*%
%ADD17R,0.06600X0.02200*%
%ADD18C,0.04934*%
D10*
X0084317Y0040800D03*
X0094317Y0040800D03*
X0104317Y0040800D03*
X0114317Y0040800D03*
X0124317Y0040800D03*
X0134317Y0040800D03*
X0144317Y0040800D03*
X0154317Y0040800D03*
X0154317Y0050800D03*
X0144317Y0050800D03*
X0134317Y0050800D03*
X0124317Y0050800D03*
X0114317Y0050800D03*
X0104317Y0050800D03*
X0094317Y0050800D03*
X0084317Y0050800D03*
X0171324Y0050800D03*
X0181324Y0050800D03*
X0191324Y0050800D03*
X0201324Y0050800D03*
X0211324Y0050800D03*
X0221324Y0050800D03*
X0231324Y0050800D03*
X0241324Y0050800D03*
X0241324Y0040800D03*
X0231324Y0040800D03*
X0221324Y0040800D03*
X0211324Y0040800D03*
X0201324Y0040800D03*
X0191324Y0040800D03*
X0181324Y0040800D03*
X0171324Y0040800D03*
X0296009Y0186784D03*
X0296009Y0196784D03*
X0306009Y0196784D03*
X0306009Y0206784D03*
X0296009Y0206784D03*
D11*
X0211757Y0196666D03*
X0201757Y0196666D03*
X0191757Y0196666D03*
X0181757Y0196666D03*
X0171757Y0196666D03*
X0161757Y0196666D03*
X0151757Y0196666D03*
X0141757Y0196666D03*
X0131757Y0196666D03*
X0121757Y0196666D03*
X0111757Y0196666D03*
X0101757Y0196666D03*
X0091757Y0196666D03*
X0081757Y0196666D03*
X0071757Y0196666D03*
X0061757Y0196666D03*
X0051757Y0196666D03*
X0041757Y0196666D03*
X0031757Y0196666D03*
X0021757Y0196666D03*
X0031757Y0186666D03*
X0041757Y0186666D03*
X0051757Y0186666D03*
X0061757Y0186666D03*
X0071757Y0186666D03*
X0081757Y0186666D03*
X0091757Y0186666D03*
X0101757Y0186666D03*
X0111757Y0186666D03*
X0121757Y0186666D03*
X0131757Y0186666D03*
X0141757Y0186666D03*
X0151757Y0186666D03*
X0161757Y0186666D03*
X0171757Y0186666D03*
X0181757Y0186666D03*
X0191757Y0186666D03*
X0201757Y0186666D03*
X0211757Y0186666D03*
X0027072Y0131981D03*
X0017072Y0131981D03*
X0017072Y0121981D03*
X0027072Y0121981D03*
X0027072Y0111981D03*
X0017072Y0111981D03*
X0017072Y0101981D03*
X0027072Y0101981D03*
X0027072Y0091981D03*
X0017072Y0091981D03*
X0017072Y0081981D03*
X0027072Y0081981D03*
X0027072Y0071981D03*
X0017072Y0071981D03*
X0017072Y0061981D03*
X0027072Y0061981D03*
D12*
X0021757Y0186666D03*
D13*
X0247801Y0165521D03*
X0247801Y0163521D03*
X0247801Y0161521D03*
X0247801Y0159621D03*
X0247801Y0157621D03*
X0247801Y0155621D03*
X0247801Y0153721D03*
X0247801Y0151721D03*
X0247801Y0149721D03*
X0247801Y0147721D03*
X0247801Y0145821D03*
X0247801Y0143821D03*
X0247801Y0141821D03*
X0247801Y0139921D03*
X0247801Y0137921D03*
X0247801Y0135921D03*
X0292801Y0135921D03*
X0292801Y0137921D03*
X0292801Y0139921D03*
X0292801Y0141821D03*
X0292801Y0143821D03*
X0292801Y0145821D03*
X0292801Y0147721D03*
X0292801Y0149721D03*
X0292801Y0151721D03*
X0292801Y0153721D03*
X0292801Y0155621D03*
X0292801Y0157621D03*
X0292801Y0159621D03*
X0292801Y0161521D03*
X0292801Y0163521D03*
X0292801Y0165521D03*
D14*
X0285101Y0173221D03*
X0283101Y0173221D03*
X0281101Y0173221D03*
X0279201Y0173221D03*
X0277201Y0173221D03*
X0275201Y0173221D03*
X0273301Y0173221D03*
X0271301Y0173221D03*
X0269301Y0173221D03*
X0267301Y0173221D03*
X0265401Y0173221D03*
X0263401Y0173221D03*
X0261401Y0173221D03*
X0259501Y0173221D03*
X0257501Y0173221D03*
X0255501Y0173221D03*
X0255501Y0128221D03*
X0257501Y0128221D03*
X0259501Y0128221D03*
X0261401Y0128221D03*
X0263401Y0128221D03*
X0265401Y0128221D03*
X0267301Y0128221D03*
X0269301Y0128221D03*
X0271301Y0128221D03*
X0273301Y0128221D03*
X0275201Y0128221D03*
X0277201Y0128221D03*
X0279201Y0128221D03*
X0281101Y0128221D03*
X0283101Y0128221D03*
X0285101Y0128221D03*
D15*
X0308490Y0132611D03*
X0308490Y0139304D03*
X0308490Y0165485D03*
X0308490Y0172178D03*
X0226797Y0102887D03*
X0226797Y0096194D03*
D16*
X0306009Y0186784D03*
D17*
X0299314Y0093143D03*
X0299314Y0090583D03*
X0299314Y0088024D03*
X0299314Y0085465D03*
X0299314Y0082906D03*
X0299314Y0080347D03*
X0299314Y0077788D03*
X0299314Y0075229D03*
X0299314Y0072670D03*
X0299314Y0070111D03*
X0299314Y0067552D03*
X0299314Y0064993D03*
X0277114Y0064993D03*
X0277114Y0067552D03*
X0277114Y0070111D03*
X0277114Y0072670D03*
X0277114Y0075229D03*
X0277114Y0077788D03*
X0277114Y0080347D03*
X0277114Y0082906D03*
X0277114Y0085465D03*
X0277114Y0088024D03*
X0277114Y0090583D03*
X0277114Y0093143D03*
X0255810Y0093143D03*
X0255810Y0090583D03*
X0255810Y0088024D03*
X0255810Y0085465D03*
X0255810Y0082906D03*
X0255810Y0080347D03*
X0255810Y0077788D03*
X0255810Y0075229D03*
X0255810Y0072670D03*
X0255810Y0070111D03*
X0255810Y0067552D03*
X0255810Y0064993D03*
X0233610Y0064993D03*
X0233610Y0067552D03*
X0233610Y0070111D03*
X0233610Y0072670D03*
X0233610Y0075229D03*
X0233610Y0077788D03*
X0233610Y0080347D03*
X0233610Y0082906D03*
X0233610Y0085465D03*
X0233610Y0088024D03*
X0233610Y0090583D03*
X0233610Y0093143D03*
X0212306Y0093143D03*
X0212306Y0090583D03*
X0212306Y0088024D03*
X0212306Y0085465D03*
X0212306Y0082906D03*
X0212306Y0080347D03*
X0212306Y0077788D03*
X0212306Y0075229D03*
X0212306Y0072670D03*
X0212306Y0070111D03*
X0212306Y0067552D03*
X0212306Y0064993D03*
X0190106Y0064993D03*
X0190106Y0067552D03*
X0190106Y0070111D03*
X0190106Y0072670D03*
X0190106Y0075229D03*
X0190106Y0077788D03*
X0190106Y0080347D03*
X0190106Y0082906D03*
X0190106Y0085465D03*
X0190106Y0088024D03*
X0190106Y0090583D03*
X0190106Y0093143D03*
X0168802Y0093143D03*
X0168802Y0090583D03*
X0168802Y0088024D03*
X0168802Y0085465D03*
X0168802Y0082906D03*
X0168802Y0080347D03*
X0168802Y0077788D03*
X0168802Y0075229D03*
X0168802Y0072670D03*
X0168802Y0070111D03*
X0168802Y0067552D03*
X0168802Y0064993D03*
X0146602Y0064993D03*
X0146602Y0067552D03*
X0146602Y0070111D03*
X0146602Y0072670D03*
X0146602Y0075229D03*
X0146602Y0077788D03*
X0146602Y0080347D03*
X0146602Y0082906D03*
X0146602Y0085465D03*
X0146602Y0088024D03*
X0146602Y0090583D03*
X0146602Y0093143D03*
D18*
X0153569Y0096981D03*
X0160261Y0094422D03*
X0178175Y0084186D03*
X0183293Y0088123D03*
X0183293Y0080249D03*
X0196088Y0094422D03*
X0203765Y0094422D03*
X0212230Y0099540D03*
X0207309Y0107217D03*
X0217545Y0107217D03*
X0235261Y0107217D03*
X0245498Y0107217D03*
X0255734Y0107217D03*
X0265970Y0107217D03*
X0255734Y0099540D03*
X0247269Y0094422D03*
X0239592Y0094422D03*
X0226797Y0088123D03*
X0221679Y0084186D03*
X0226797Y0080249D03*
X0194513Y0104658D03*
X0186836Y0104658D03*
X0181521Y0099540D03*
X0178175Y0122572D03*
X0179159Y0132808D03*
X0175616Y0136745D03*
X0162820Y0143044D03*
X0155143Y0143044D03*
X0150025Y0148162D03*
X0144907Y0153280D03*
X0137230Y0153280D03*
X0126994Y0153280D03*
X0119317Y0153280D03*
X0111639Y0153280D03*
X0106521Y0148162D03*
X0101403Y0153280D03*
X0093726Y0153280D03*
X0083490Y0153280D03*
X0075813Y0153280D03*
X0068135Y0153280D03*
X0063017Y0148162D03*
X0052781Y0145603D03*
X0052781Y0153280D03*
X0075813Y0143044D03*
X0088608Y0136745D03*
X0092151Y0132808D03*
X0091167Y0122572D03*
X0111639Y0143044D03*
X0119317Y0143044D03*
X0132112Y0136745D03*
X0135655Y0132808D03*
X0134671Y0122572D03*
X0139789Y0094422D03*
X0139789Y0088123D03*
X0134671Y0084186D03*
X0139789Y0080249D03*
X0162820Y0045800D03*
X0162820Y0038123D03*
X0265183Y0084186D03*
X0270301Y0088123D03*
X0270301Y0080249D03*
X0283096Y0094422D03*
X0299238Y0099540D03*
X0298450Y0107217D03*
X0290773Y0107217D03*
X0283096Y0107217D03*
X0298450Y0117454D03*
X0295891Y0124146D03*
X0290773Y0124146D03*
X0290773Y0129265D03*
X0295891Y0129265D03*
X0281101Y0138490D03*
X0282702Y0149934D03*
X0272860Y0157611D03*
X0262033Y0153674D03*
X0254946Y0153280D03*
X0254946Y0145603D03*
X0255537Y0138517D03*
X0244710Y0127690D03*
X0244710Y0121391D03*
X0221679Y0122572D03*
X0222860Y0132808D03*
X0219120Y0136745D03*
X0229356Y0144422D03*
X0234474Y0151902D03*
X0224238Y0151902D03*
X0214002Y0153280D03*
X0206324Y0153280D03*
X0198647Y0153280D03*
X0193529Y0148162D03*
X0198647Y0143044D03*
X0206324Y0143044D03*
X0188411Y0153280D03*
X0180734Y0153280D03*
X0170498Y0153280D03*
X0162820Y0153280D03*
X0155143Y0153280D03*
X0114198Y0166076D03*
X0106521Y0166076D03*
X0086049Y0163517D03*
X0045104Y0173753D03*
X0029750Y0173753D03*
X0019513Y0178871D03*
X0019513Y0204461D03*
X0039986Y0125131D03*
X0050222Y0121194D03*
X0237033Y0170603D03*
X0254946Y0161548D03*
X0277978Y0183989D03*
X0283096Y0183989D03*
X0288214Y0183989D03*
X0259277Y0190879D03*
X0244710Y0199343D03*
X0301009Y0158398D03*
X0306324Y0154068D03*
X0306324Y0145800D03*
X0301009Y0145800D03*
X0290773Y0072670D03*
M02*
