%
M48
M72
T01C0.02756
T02C0.03600
T03C0.04000
%
T01
X134671Y84186
X139789Y88123
X139789Y94422
X153569Y96981
X160261Y94422
X178175Y84186
X183293Y88123
X183293Y80249
X196088Y94422
X203765Y94422
X212230Y99540
X207309Y107217
X217545Y107217
X235261Y107217
X245498Y107217
X255734Y107217
X265970Y107217
X255734Y99540
X247269Y94422
X239592Y94422
X226797Y88123
X221679Y84186
X226797Y80249
X194513Y104658
X186836Y104658
X181521Y99540
X178175Y122572
X179159Y132808
X175616Y136745
X162820Y143044
X155143Y143044
X150025Y148162
X144907Y153280
X137230Y153280
X126994Y153280
X119317Y153280
X111639Y153280
X106521Y148162
X101403Y153280
X93726Y153280
X83490Y153280
X75813Y153280
X68135Y153280
X63017Y148162
X52781Y145603
X52781Y153280
X75813Y143044
X88608Y136745
X92151Y132808
X91167Y122572
X111639Y143044
X119317Y143044
X132112Y136745
X135655Y132808
X134671Y122572
X155143Y153280
X162820Y153280
X170498Y153280
X180734Y153280
X188411Y153280
X193529Y148162
X198647Y143044
X206324Y143044
X206324Y153280
X198647Y153280
X214002Y153280
X224238Y151902
X229356Y144422
X234474Y151902
X254946Y153280
X262033Y153674
X254946Y145603
X255537Y138517
X244710Y127690
X244710Y121391
X221679Y122572
X222860Y132808
X219120Y136745
X254946Y161548
X272860Y157611
X282702Y149934
X281101Y138490
X290773Y129265
X295891Y129265
X295891Y124146
X290773Y124146
X298450Y117454
X298450Y107217
X290773Y107217
X283096Y107217
X299238Y99540
X283096Y94422
X270301Y88123
X265183Y84186
X270301Y80249
X290773Y72670
X301009Y145800
X306324Y145800
X306324Y154068
X301009Y158398
X288214Y183989
X283096Y183989
X277978Y183989
X259277Y190879
X244710Y199343
X237033Y170603
X114198Y166076
X106521Y166076
X86049Y163517
X45104Y173753
X29750Y173753
X19513Y178871
X19513Y204461
X39986Y125131
X50222Y121194
X139789Y80249
X162820Y45800
X162820Y38123
T02
X27072Y61981
X17072Y61981
X17072Y71981
X27072Y71981
X27072Y81981
X17072Y81981
X17072Y91981
X27072Y91981
X27072Y101981
X17072Y101981
X17072Y111981
X27072Y111981
X27072Y121981
X17072Y121981
X17072Y131981
X27072Y131981
X31757Y186666
X21757Y186666
X21757Y196666
X31757Y196666
X41757Y196666
X51757Y196666
X61757Y196666
X61757Y186666
X51757Y186666
X41757Y186666
X71757Y186666
X81757Y186666
X91757Y186666
X101757Y186666
X111757Y186666
X121757Y186666
X131757Y186666
X141757Y186666
X151757Y186666
X161757Y186666
X171757Y186666
X181757Y186666
X191757Y186666
X201757Y186666
X201757Y196666
X191757Y196666
X181757Y196666
X171757Y196666
X161757Y196666
X151757Y196666
X141757Y196666
X131757Y196666
X121757Y196666
X111757Y196666
X101757Y196666
X91757Y196666
X81757Y196666
X71757Y196666
X211757Y196666
X211757Y186666
T03
X84317Y40800
X94317Y40800
X104317Y40800
X114317Y40800
X124317Y40800
X134317Y40800
X144317Y40800
X154317Y40800
X154317Y50800
X144317Y50800
X134317Y50800
X124317Y50800
X114317Y50800
X104317Y50800
X94317Y50800
X84317Y50800
X171324Y50800
X181324Y50800
X191324Y50800
X201324Y50800
X211324Y50800
X221324Y50800
X231324Y50800
X241324Y50800
X241324Y40800
X231324Y40800
X221324Y40800
X211324Y40800
X201324Y40800
X191324Y40800
X181324Y40800
X171324Y40800
X296009Y186784
X306009Y186784
X306009Y196784
X296009Y196784
X296009Y206784
X306009Y206784
M30
