G75*
%MOIN*%
%OFA0B0*%
%FSLAX25Y25*%
%IPPOS*%
%LPD*%
%AMOC8*
5,1,8,0,0,1.08239X$1,22.5*
%
%ADD10OC8,0.06800*%
%ADD11OC8,0.06200*%
%ADD12R,0.07100X0.05400*%
%ADD13R,0.07200X0.00600*%
%ADD14C,0.06200*%
%ADD15R,0.06600X0.02200*%
%ADD16R,0.04934X0.04540*%
%ADD17R,0.05131X0.04737*%
%ADD18R,0.04737X0.05131*%
%ADD19C,0.06800*%
%ADD20R,0.07887X0.05524*%
%ADD21C,0.04934*%
D10*
X0084317Y0040800D03*
X0094317Y0040800D03*
X0104317Y0040800D03*
X0114317Y0040800D03*
X0124317Y0040800D03*
X0134317Y0040800D03*
X0144317Y0040800D03*
X0154317Y0040800D03*
X0154317Y0050800D03*
X0144317Y0050800D03*
X0134317Y0050800D03*
X0124317Y0050800D03*
X0114317Y0050800D03*
X0104317Y0050800D03*
X0094317Y0050800D03*
X0084317Y0050800D03*
X0171324Y0050800D03*
X0181324Y0050800D03*
X0191324Y0050800D03*
X0201324Y0050800D03*
X0211324Y0050800D03*
X0221324Y0050800D03*
X0231324Y0050800D03*
X0241324Y0050800D03*
X0241324Y0040800D03*
X0231324Y0040800D03*
X0221324Y0040800D03*
X0211324Y0040800D03*
X0201324Y0040800D03*
X0191324Y0040800D03*
X0181324Y0040800D03*
X0171324Y0040800D03*
X0296009Y0186784D03*
X0296009Y0196784D03*
X0306009Y0196784D03*
X0306009Y0206784D03*
X0296009Y0206784D03*
D11*
X0211757Y0196666D03*
X0201757Y0196666D03*
X0191757Y0196666D03*
X0181757Y0196666D03*
X0171757Y0196666D03*
X0161757Y0196666D03*
X0151757Y0196666D03*
X0141757Y0196666D03*
X0131757Y0196666D03*
X0121757Y0196666D03*
X0111757Y0196666D03*
X0101757Y0196666D03*
X0091757Y0196666D03*
X0081757Y0196666D03*
X0071757Y0196666D03*
X0061757Y0196666D03*
X0051757Y0196666D03*
X0041757Y0196666D03*
X0031757Y0196666D03*
X0021757Y0196666D03*
X0031757Y0186666D03*
X0041757Y0186666D03*
X0051757Y0186666D03*
X0061757Y0186666D03*
X0071757Y0186666D03*
X0081757Y0186666D03*
X0091757Y0186666D03*
X0101757Y0186666D03*
X0111757Y0186666D03*
X0121757Y0186666D03*
X0131757Y0186666D03*
X0141757Y0186666D03*
X0151757Y0186666D03*
X0161757Y0186666D03*
X0171757Y0186666D03*
X0181757Y0186666D03*
X0191757Y0186666D03*
X0201757Y0186666D03*
X0211757Y0186666D03*
X0027072Y0131981D03*
X0017072Y0131981D03*
X0017072Y0121981D03*
X0027072Y0121981D03*
X0027072Y0111981D03*
X0017072Y0111981D03*
X0017072Y0101981D03*
X0027072Y0101981D03*
X0027072Y0091981D03*
X0017072Y0091981D03*
X0017072Y0081981D03*
X0027072Y0081981D03*
X0027072Y0071981D03*
X0017072Y0071981D03*
X0017072Y0061981D03*
X0027072Y0061981D03*
D12*
X0022072Y0163076D03*
X0022072Y0169076D03*
X0037427Y0169076D03*
X0037427Y0163076D03*
X0052781Y0163076D03*
X0052781Y0169076D03*
X0068135Y0169076D03*
X0068135Y0163076D03*
X0060458Y0209139D03*
X0060458Y0215139D03*
X0045104Y0215139D03*
X0045104Y0209139D03*
X0029750Y0209139D03*
X0029750Y0215139D03*
X0075813Y0215139D03*
X0075813Y0209139D03*
X0136639Y0169076D03*
X0136639Y0163076D03*
X0153175Y0163076D03*
X0153175Y0169076D03*
X0168135Y0169076D03*
X0168135Y0163076D03*
X0183883Y0163076D03*
X0183883Y0169076D03*
X0178175Y0209139D03*
X0178175Y0215139D03*
X0162820Y0215139D03*
X0162820Y0209139D03*
X0193529Y0209139D03*
X0193529Y0215139D03*
X0208883Y0215139D03*
X0208883Y0209139D03*
D13*
X0208883Y0212139D03*
X0193529Y0212139D03*
X0178175Y0212139D03*
X0162820Y0212139D03*
X0168135Y0166076D03*
X0153175Y0166076D03*
X0136639Y0166076D03*
X0183883Y0166076D03*
X0075813Y0212139D03*
X0060458Y0212139D03*
X0045104Y0212139D03*
X0029750Y0212139D03*
X0037427Y0166076D03*
X0052781Y0166076D03*
X0068135Y0166076D03*
X0022072Y0166076D03*
D14*
X0021757Y0186666D03*
D15*
X0059594Y0141765D03*
X0059594Y0139206D03*
X0059594Y0136646D03*
X0059594Y0134087D03*
X0059594Y0131528D03*
X0059594Y0128969D03*
X0059594Y0126410D03*
X0059594Y0123851D03*
X0059594Y0121292D03*
X0059594Y0118733D03*
X0059594Y0116174D03*
X0059594Y0113615D03*
X0081794Y0113615D03*
X0081794Y0116174D03*
X0081794Y0118733D03*
X0081794Y0121292D03*
X0081794Y0123851D03*
X0081794Y0126410D03*
X0081794Y0128969D03*
X0081794Y0131528D03*
X0081794Y0134087D03*
X0081794Y0136646D03*
X0081794Y0139205D03*
X0081794Y0141765D03*
X0103098Y0141765D03*
X0103098Y0139206D03*
X0103098Y0136646D03*
X0103098Y0134087D03*
X0103098Y0131528D03*
X0103098Y0128969D03*
X0103098Y0126410D03*
X0103098Y0123851D03*
X0103098Y0121292D03*
X0103098Y0118733D03*
X0103098Y0116174D03*
X0103098Y0113615D03*
X0125298Y0113615D03*
X0125298Y0116174D03*
X0125298Y0118733D03*
X0125298Y0121292D03*
X0125298Y0123851D03*
X0125298Y0126410D03*
X0125298Y0128969D03*
X0125298Y0131528D03*
X0125298Y0134087D03*
X0125298Y0136646D03*
X0125298Y0139205D03*
X0125298Y0141765D03*
X0146602Y0141765D03*
X0146602Y0139206D03*
X0146602Y0136646D03*
X0146602Y0134087D03*
X0146602Y0131528D03*
X0146602Y0128969D03*
X0146602Y0126410D03*
X0146602Y0123851D03*
X0146602Y0121292D03*
X0146602Y0118733D03*
X0146602Y0116174D03*
X0146602Y0113615D03*
X0168802Y0113615D03*
X0168802Y0116174D03*
X0168802Y0118733D03*
X0168802Y0121292D03*
X0168802Y0123851D03*
X0168802Y0126410D03*
X0168802Y0128969D03*
X0168802Y0131528D03*
X0168802Y0134087D03*
X0168802Y0136646D03*
X0168802Y0139205D03*
X0168802Y0141765D03*
X0190106Y0141765D03*
X0190106Y0139206D03*
X0190106Y0136646D03*
X0190106Y0134087D03*
X0190106Y0131528D03*
X0190106Y0128969D03*
X0190106Y0126410D03*
X0190106Y0123851D03*
X0190106Y0121292D03*
X0190106Y0118733D03*
X0190106Y0116174D03*
X0190106Y0113615D03*
X0212306Y0113615D03*
X0212306Y0116174D03*
X0212306Y0118733D03*
X0212306Y0121292D03*
X0212306Y0123851D03*
X0212306Y0126410D03*
X0212306Y0128969D03*
X0212306Y0131528D03*
X0212306Y0134087D03*
X0212306Y0136646D03*
X0212306Y0139205D03*
X0212306Y0141765D03*
D16*
X0047269Y0139304D03*
X0039986Y0139304D03*
X0039986Y0133595D03*
X0047269Y0133595D03*
D17*
X0046679Y0147572D03*
X0039986Y0147572D03*
X0092939Y0164698D03*
X0099631Y0164698D03*
D18*
X0244710Y0163910D03*
X0244710Y0170603D03*
X0267939Y0170997D03*
X0267939Y0164304D03*
X0262624Y0145209D03*
X0262624Y0138517D03*
X0274041Y0138517D03*
X0274041Y0145209D03*
X0308687Y0167060D03*
X0308687Y0173753D03*
D19*
X0306009Y0186784D03*
D20*
X0296285Y0173753D03*
X0296285Y0164304D03*
X0280537Y0164304D03*
X0280537Y0173753D03*
D21*
X0277978Y0183989D03*
X0283096Y0183989D03*
X0288214Y0183989D03*
X0259277Y0190879D03*
X0244710Y0199343D03*
X0237033Y0170603D03*
X0254946Y0161548D03*
X0254946Y0153280D03*
X0262033Y0153674D03*
X0254946Y0145603D03*
X0255537Y0138517D03*
X0244710Y0127690D03*
X0244710Y0121391D03*
X0245498Y0107217D03*
X0255734Y0107217D03*
X0265970Y0107217D03*
X0255734Y0099540D03*
X0247269Y0094422D03*
X0239592Y0094422D03*
X0226797Y0088123D03*
X0221679Y0084186D03*
X0226797Y0080249D03*
X0203765Y0094422D03*
X0196088Y0094422D03*
X0183293Y0088123D03*
X0178175Y0084186D03*
X0183293Y0080249D03*
X0199828Y0066272D03*
X0162820Y0045800D03*
X0162820Y0038123D03*
X0156324Y0066272D03*
X0139789Y0080249D03*
X0134671Y0084186D03*
X0139789Y0088123D03*
X0139789Y0094422D03*
X0153569Y0096981D03*
X0160261Y0094422D03*
X0181521Y0099540D03*
X0186836Y0104658D03*
X0194513Y0104658D03*
X0207309Y0107217D03*
X0217545Y0107217D03*
X0212230Y0099540D03*
X0235261Y0107217D03*
X0221679Y0122572D03*
X0222860Y0132808D03*
X0219120Y0136745D03*
X0229356Y0144422D03*
X0234474Y0151902D03*
X0224238Y0151902D03*
X0214002Y0153280D03*
X0206324Y0153280D03*
X0198647Y0153280D03*
X0193529Y0148162D03*
X0198647Y0143044D03*
X0206324Y0143044D03*
X0188411Y0153280D03*
X0180734Y0153280D03*
X0170498Y0153280D03*
X0162820Y0153280D03*
X0155143Y0153280D03*
X0150025Y0148162D03*
X0155143Y0143044D03*
X0162820Y0143044D03*
X0175616Y0136745D03*
X0179159Y0132808D03*
X0178175Y0122572D03*
X0134671Y0122572D03*
X0135655Y0132808D03*
X0132112Y0136745D03*
X0119317Y0143044D03*
X0111639Y0143044D03*
X0106521Y0148162D03*
X0101403Y0153280D03*
X0093726Y0153280D03*
X0083490Y0153280D03*
X0075813Y0153280D03*
X0068135Y0153280D03*
X0063017Y0148162D03*
X0052781Y0145603D03*
X0052781Y0153280D03*
X0075813Y0143044D03*
X0088608Y0136745D03*
X0092151Y0132808D03*
X0091167Y0122572D03*
X0101403Y0107217D03*
X0080931Y0107217D03*
X0057899Y0107217D03*
X0039986Y0107217D03*
X0050222Y0121194D03*
X0039986Y0125131D03*
X0086049Y0163517D03*
X0106521Y0166076D03*
X0114198Y0166076D03*
X0111639Y0153280D03*
X0119317Y0153280D03*
X0126994Y0153280D03*
X0137230Y0153280D03*
X0144907Y0153280D03*
X0124435Y0107217D03*
X0045104Y0173753D03*
X0029750Y0173753D03*
X0019513Y0178871D03*
X0019513Y0204461D03*
X0265183Y0084186D03*
X0270301Y0088123D03*
X0270301Y0080249D03*
X0283096Y0094422D03*
X0299238Y0099540D03*
X0298450Y0107217D03*
X0290773Y0107217D03*
X0283096Y0107217D03*
X0298450Y0117454D03*
X0295891Y0124146D03*
X0290773Y0124146D03*
X0290773Y0129265D03*
X0295891Y0129265D03*
X0281101Y0138490D03*
X0282702Y0149934D03*
X0272860Y0157611D03*
X0301009Y0158398D03*
X0306324Y0154068D03*
X0306324Y0145800D03*
X0301009Y0145800D03*
X0290773Y0072670D03*
X0285655Y0059383D03*
M02*
