%
M48
M72
T01C0.02756
T02C0.03600
T03C0.04000
%
T01
X65776Y68831
X126013Y123753
X126013Y148162
X126013Y158398
X126013Y166076
X160461Y148162
X160461Y94422
X160461Y68831
X129753Y84973
X129753Y91863
X65973Y127690
X45304Y148162
X29950Y148162
X29950Y173753
X45304Y173753
X78721Y163076
T02
X17272Y61981
X17272Y71981
X17272Y81981
X27272Y81981
X27272Y71981
X27272Y61981
X27272Y91981
X17272Y91981
X17272Y101981
X17272Y111981
X27272Y111981
X27272Y101981
X27272Y121981
X17272Y121981
X17272Y131981
X27272Y131981
X31957Y186666
X21957Y186666
X21957Y196666
X31957Y196666
X41957Y196666
X41957Y186666
X51957Y186666
X51957Y196666
X61957Y196666
X61957Y186666
X71957Y186666
X81957Y186666
X81957Y196666
X71957Y196666
X91957Y196666
X91957Y186666
X101957Y186666
X101957Y196666
X111957Y196666
X111957Y186666
X121957Y186666
X121957Y196666
X131957Y196666
X131957Y186666
X141957Y186666
X141957Y196666
X151957Y196666
X151957Y186666
X161957Y186666
X171957Y186666
X171957Y196666
X161957Y196666
X181957Y196666
X181957Y186666
X191957Y186666
X191957Y196666
X201957Y196666
X201957Y186666
X211957Y186666
X211957Y196666
T03
X211524Y50800
X201524Y50800
X191524Y50800
X181524Y50800
X171524Y50800
X171524Y40800
X181524Y40800
X191524Y40800
X201524Y40800
X211524Y40800
X221524Y40800
X231524Y40800
X241524Y40800
X241524Y50800
X231524Y50800
X221524Y50800
X154517Y50800
X144517Y50800
X134517Y50800
X124517Y50800
X114517Y50800
X104517Y50800
X94517Y50800
X84517Y50800
X84517Y40800
X94517Y40800
X104517Y40800
X114517Y40800
X124517Y40800
X134517Y40800
X144517Y40800
X154517Y40800
M30
