G75*
%MOIN*%
%OFA0B0*%
%FSLAX25Y25*%
%IPPOS*%
%LPD*%
%AMOC8*
5,1,8,0,0,1.08239X$1,22.5*
%
%ADD10C,0.00600*%
%ADD11C,0.00300*%
%ADD12C,0.02600*%
%ADD13C,0.00500*%
%ADD14R,0.02600X0.03000*%
%ADD15R,0.02600X0.02600*%
%ADD16R,0.02600X0.03200*%
%ADD17C,0.00400*%
D10*
X0040781Y0039269D02*
X0045181Y0039269D01*
X0045181Y0041269D01*
X0040781Y0041269D01*
X0040781Y0039269D01*
X0045181Y0037969D02*
X0045181Y0057569D01*
X0051781Y0057569D01*
X0060781Y0057569D01*
X0060781Y0037969D01*
X0045181Y0037969D01*
X0045181Y0044269D02*
X0040781Y0044269D01*
X0040781Y0046269D01*
X0045181Y0046269D01*
X0045181Y0044269D01*
X0045181Y0049269D02*
X0040781Y0049269D01*
X0040781Y0051269D01*
X0045181Y0051269D01*
X0045181Y0049269D01*
X0045181Y0054269D02*
X0040781Y0054269D01*
X0040781Y0056269D01*
X0045181Y0056269D01*
X0045181Y0054269D01*
X0051781Y0057569D02*
X0051786Y0057501D01*
X0051795Y0057433D01*
X0051807Y0057365D01*
X0051824Y0057299D01*
X0051844Y0057233D01*
X0051868Y0057169D01*
X0051895Y0057106D01*
X0051926Y0057045D01*
X0051961Y0056985D01*
X0051999Y0056928D01*
X0052040Y0056873D01*
X0052084Y0056821D01*
X0052131Y0056771D01*
X0052181Y0056724D01*
X0052233Y0056679D01*
X0052288Y0056638D01*
X0052345Y0056600D01*
X0052404Y0056566D01*
X0052465Y0056534D01*
X0052528Y0056507D01*
X0052592Y0056483D01*
X0052658Y0056462D01*
X0052724Y0056446D01*
X0052792Y0056433D01*
X0052860Y0056424D01*
X0052928Y0056419D01*
X0052997Y0056418D01*
X0053065Y0056421D01*
X0053134Y0056428D01*
X0053201Y0056438D01*
X0053268Y0056453D01*
X0053334Y0056471D01*
X0053399Y0056493D01*
X0053463Y0056519D01*
X0053525Y0056548D01*
X0053585Y0056581D01*
X0053643Y0056617D01*
X0053700Y0056657D01*
X0053753Y0056699D01*
X0053805Y0056745D01*
X0053853Y0056793D01*
X0053899Y0056844D01*
X0053942Y0056898D01*
X0053981Y0056954D01*
X0054018Y0057012D01*
X0054050Y0057072D01*
X0054080Y0057134D01*
X0054106Y0057198D01*
X0054128Y0057263D01*
X0054146Y0057329D01*
X0054161Y0057396D01*
X0054172Y0057464D01*
X0054179Y0057532D01*
X0054182Y0057600D01*
X0054181Y0057669D01*
X0060781Y0056269D02*
X0060781Y0054269D01*
X0065181Y0054269D01*
X0065181Y0056269D01*
X0060781Y0056269D01*
X0060781Y0051269D02*
X0065181Y0051269D01*
X0065181Y0049269D01*
X0060781Y0049269D01*
X0060781Y0051269D01*
X0060781Y0046269D02*
X0065181Y0046269D01*
X0065181Y0044269D01*
X0060781Y0044269D01*
X0060781Y0046269D01*
X0060781Y0041269D02*
X0065181Y0041269D01*
X0065181Y0039269D01*
X0060781Y0039269D01*
X0060781Y0041269D01*
X0079517Y0034800D02*
X0079517Y0023800D01*
X0089517Y0023800D01*
X0099517Y0023800D01*
X0109517Y0023800D01*
X0119517Y0023800D01*
X0129517Y0023800D01*
X0139517Y0023800D01*
X0149517Y0023800D01*
X0159517Y0023800D01*
X0159517Y0034800D01*
X0149517Y0034800D01*
X0139517Y0034800D01*
X0139517Y0023800D01*
X0149517Y0023800D02*
X0149517Y0034800D01*
X0139517Y0034800D02*
X0129517Y0034800D01*
X0129517Y0023800D01*
X0119517Y0023800D02*
X0119517Y0034800D01*
X0129517Y0034800D01*
X0119517Y0034800D02*
X0109517Y0034800D01*
X0109517Y0023800D01*
X0099517Y0023800D02*
X0099517Y0034800D01*
X0109517Y0034800D01*
X0099517Y0034800D02*
X0089517Y0034800D01*
X0089517Y0023800D01*
X0089517Y0034800D02*
X0079517Y0034800D01*
X0034272Y0059481D02*
X0034272Y0134481D01*
X0034270Y0134579D01*
X0034264Y0134677D01*
X0034255Y0134775D01*
X0034241Y0134872D01*
X0034224Y0134969D01*
X0034203Y0135065D01*
X0034178Y0135160D01*
X0034150Y0135254D01*
X0034117Y0135346D01*
X0034082Y0135438D01*
X0034042Y0135528D01*
X0034000Y0135616D01*
X0033953Y0135703D01*
X0033904Y0135787D01*
X0033851Y0135870D01*
X0033795Y0135950D01*
X0033735Y0136029D01*
X0033673Y0136105D01*
X0033608Y0136178D01*
X0033540Y0136249D01*
X0033469Y0136317D01*
X0033396Y0136382D01*
X0033320Y0136444D01*
X0033241Y0136504D01*
X0033161Y0136560D01*
X0033078Y0136613D01*
X0032994Y0136662D01*
X0032907Y0136709D01*
X0032819Y0136751D01*
X0032729Y0136791D01*
X0032637Y0136826D01*
X0032545Y0136859D01*
X0032451Y0136887D01*
X0032356Y0136912D01*
X0032260Y0136933D01*
X0032163Y0136950D01*
X0032066Y0136964D01*
X0031968Y0136973D01*
X0031870Y0136979D01*
X0031772Y0136981D01*
X0012772Y0136981D01*
X0012674Y0136979D01*
X0012576Y0136973D01*
X0012478Y0136964D01*
X0012381Y0136950D01*
X0012284Y0136933D01*
X0012188Y0136912D01*
X0012093Y0136887D01*
X0011999Y0136859D01*
X0011907Y0136826D01*
X0011815Y0136791D01*
X0011725Y0136751D01*
X0011637Y0136709D01*
X0011550Y0136662D01*
X0011466Y0136613D01*
X0011383Y0136560D01*
X0011303Y0136504D01*
X0011224Y0136444D01*
X0011148Y0136382D01*
X0011075Y0136317D01*
X0011004Y0136249D01*
X0010936Y0136178D01*
X0010871Y0136105D01*
X0010809Y0136029D01*
X0010749Y0135950D01*
X0010693Y0135870D01*
X0010640Y0135787D01*
X0010591Y0135703D01*
X0010544Y0135616D01*
X0010502Y0135528D01*
X0010462Y0135438D01*
X0010427Y0135346D01*
X0010394Y0135254D01*
X0010366Y0135160D01*
X0010341Y0135065D01*
X0010320Y0134969D01*
X0010303Y0134872D01*
X0010289Y0134775D01*
X0010280Y0134677D01*
X0010274Y0134579D01*
X0010272Y0134481D01*
X0010272Y0059481D01*
X0010274Y0059383D01*
X0010280Y0059285D01*
X0010289Y0059187D01*
X0010303Y0059090D01*
X0010320Y0058993D01*
X0010341Y0058897D01*
X0010366Y0058802D01*
X0010394Y0058708D01*
X0010427Y0058616D01*
X0010462Y0058524D01*
X0010502Y0058434D01*
X0010544Y0058346D01*
X0010591Y0058259D01*
X0010640Y0058175D01*
X0010693Y0058092D01*
X0010749Y0058012D01*
X0010809Y0057933D01*
X0010871Y0057857D01*
X0010936Y0057784D01*
X0011004Y0057713D01*
X0011075Y0057645D01*
X0011148Y0057580D01*
X0011224Y0057518D01*
X0011303Y0057458D01*
X0011383Y0057402D01*
X0011466Y0057349D01*
X0011550Y0057300D01*
X0011637Y0057253D01*
X0011725Y0057211D01*
X0011815Y0057171D01*
X0011907Y0057136D01*
X0011999Y0057103D01*
X0012093Y0057075D01*
X0012188Y0057050D01*
X0012284Y0057029D01*
X0012381Y0057012D01*
X0012478Y0056998D01*
X0012576Y0056989D01*
X0012674Y0056983D01*
X0012772Y0056981D01*
X0031772Y0056981D01*
X0031870Y0056983D01*
X0031968Y0056989D01*
X0032066Y0056998D01*
X0032163Y0057012D01*
X0032260Y0057029D01*
X0032356Y0057050D01*
X0032451Y0057075D01*
X0032545Y0057103D01*
X0032637Y0057136D01*
X0032729Y0057171D01*
X0032819Y0057211D01*
X0032907Y0057253D01*
X0032994Y0057300D01*
X0033078Y0057349D01*
X0033161Y0057402D01*
X0033241Y0057458D01*
X0033320Y0057518D01*
X0033396Y0057580D01*
X0033469Y0057645D01*
X0033540Y0057713D01*
X0033608Y0057784D01*
X0033673Y0057857D01*
X0033735Y0057933D01*
X0033795Y0058012D01*
X0033851Y0058092D01*
X0033904Y0058175D01*
X0033953Y0058259D01*
X0034000Y0058346D01*
X0034042Y0058434D01*
X0034082Y0058524D01*
X0034117Y0058616D01*
X0034150Y0058708D01*
X0034178Y0058802D01*
X0034203Y0058897D01*
X0034224Y0058993D01*
X0034241Y0059090D01*
X0034255Y0059187D01*
X0034264Y0059285D01*
X0034270Y0059383D01*
X0034272Y0059481D01*
X0065208Y0085999D02*
X0069108Y0085999D01*
X0069108Y0087499D01*
X0065208Y0087499D01*
X0065208Y0085999D01*
X0065208Y0088599D02*
X0069108Y0088599D01*
X0069108Y0090099D01*
X0065208Y0090099D01*
X0065208Y0088599D01*
X0065208Y0091099D02*
X0069108Y0091099D01*
X0069108Y0092599D01*
X0065208Y0092599D01*
X0065208Y0091099D01*
X0065208Y0093699D02*
X0069108Y0093699D01*
X0069108Y0095199D01*
X0065208Y0095199D01*
X0065208Y0093699D01*
X0065208Y0096199D02*
X0069108Y0096199D01*
X0069108Y0097699D01*
X0065208Y0097699D01*
X0065208Y0096199D01*
X0065208Y0098799D02*
X0069108Y0098799D01*
X0069108Y0100299D01*
X0065208Y0100299D01*
X0065208Y0098799D01*
X0065208Y0101399D02*
X0069108Y0101399D01*
X0069108Y0102899D01*
X0065208Y0102899D01*
X0065208Y0101399D01*
X0065208Y0103899D02*
X0069108Y0103899D01*
X0069108Y0105399D01*
X0065208Y0105399D01*
X0065208Y0103899D01*
X0065208Y0106499D02*
X0069108Y0106499D01*
X0069108Y0107999D01*
X0065208Y0107999D01*
X0065208Y0106499D01*
X0065208Y0108999D02*
X0069108Y0108999D01*
X0069108Y0110499D01*
X0065208Y0110499D01*
X0065208Y0108999D01*
X0065208Y0111599D02*
X0069108Y0111599D01*
X0069108Y0113099D01*
X0065208Y0113099D01*
X0065208Y0111599D01*
X0065208Y0114099D02*
X0069108Y0114099D01*
X0069108Y0115599D01*
X0065208Y0115599D01*
X0065208Y0114099D01*
X0065208Y0116699D02*
X0069108Y0116699D01*
X0069108Y0116799D01*
X0074108Y0121799D01*
X0074208Y0121799D01*
X0074208Y0125699D01*
X0072708Y0125699D01*
X0072708Y0121799D01*
X0074108Y0121799D01*
X0075308Y0121799D02*
X0075308Y0125699D01*
X0076808Y0125699D01*
X0076808Y0121799D01*
X0075308Y0121799D01*
X0077808Y0121799D02*
X0077808Y0125699D01*
X0079308Y0125699D01*
X0079308Y0121799D01*
X0077808Y0121799D01*
X0080408Y0121799D02*
X0080408Y0125699D01*
X0081908Y0125699D01*
X0081908Y0121799D01*
X0080408Y0121799D01*
X0082908Y0121799D02*
X0082908Y0125699D01*
X0084408Y0125699D01*
X0084408Y0121799D01*
X0082908Y0121799D01*
X0085508Y0121799D02*
X0085508Y0125699D01*
X0087008Y0125699D01*
X0087008Y0121799D01*
X0085508Y0121799D01*
X0088108Y0121799D02*
X0088108Y0125699D01*
X0089608Y0125699D01*
X0089608Y0121799D01*
X0088108Y0121799D01*
X0090608Y0121799D02*
X0090608Y0125699D01*
X0092108Y0125699D01*
X0092108Y0121799D01*
X0090608Y0121799D01*
X0093208Y0121799D02*
X0093208Y0125699D01*
X0094708Y0125699D01*
X0094708Y0121799D01*
X0093208Y0121799D01*
X0095708Y0121799D02*
X0095708Y0125699D01*
X0097208Y0125699D01*
X0097208Y0121799D01*
X0095708Y0121799D01*
X0098308Y0121799D02*
X0098308Y0125699D01*
X0099808Y0125699D01*
X0099808Y0121799D01*
X0098308Y0121799D01*
X0100808Y0121799D02*
X0100808Y0125699D01*
X0102308Y0125699D01*
X0102308Y0121799D01*
X0100808Y0121799D01*
X0103408Y0121799D02*
X0103408Y0125699D01*
X0104908Y0125699D01*
X0104908Y0121799D01*
X0103408Y0121799D01*
X0108508Y0121799D02*
X0069108Y0121799D01*
X0069108Y0082399D01*
X0108508Y0082399D01*
X0108508Y0121799D01*
X0108508Y0118199D02*
X0112408Y0118199D01*
X0112408Y0116699D01*
X0108508Y0116699D01*
X0108508Y0118199D01*
X0108508Y0115599D02*
X0112408Y0115599D01*
X0112408Y0114099D01*
X0108508Y0114099D01*
X0108508Y0115599D01*
X0108508Y0113099D02*
X0112408Y0113099D01*
X0112408Y0111599D01*
X0108508Y0111599D01*
X0108508Y0113099D01*
X0108508Y0110499D02*
X0112408Y0110499D01*
X0112408Y0108999D01*
X0108508Y0108999D01*
X0108508Y0110499D01*
X0108508Y0107999D02*
X0112408Y0107999D01*
X0112408Y0106499D01*
X0108508Y0106499D01*
X0108508Y0107999D01*
X0108508Y0105399D02*
X0112408Y0105399D01*
X0112408Y0103899D01*
X0108508Y0103899D01*
X0108508Y0105399D01*
X0108508Y0102799D02*
X0112408Y0102799D01*
X0112408Y0101299D01*
X0108508Y0101299D01*
X0108508Y0102799D01*
X0108508Y0100299D02*
X0112408Y0100299D01*
X0112408Y0098799D01*
X0108508Y0098799D01*
X0108508Y0100299D01*
X0108508Y0097699D02*
X0112408Y0097699D01*
X0112408Y0096199D01*
X0108508Y0096199D01*
X0108508Y0097699D01*
X0108508Y0095199D02*
X0112408Y0095199D01*
X0112408Y0093699D01*
X0108508Y0093699D01*
X0108508Y0095199D01*
X0108508Y0092599D02*
X0112408Y0092599D01*
X0112408Y0091099D01*
X0108508Y0091099D01*
X0108508Y0092599D01*
X0108508Y0090099D02*
X0112408Y0090099D01*
X0112408Y0088599D01*
X0108508Y0088599D01*
X0108508Y0090099D01*
X0108508Y0087499D02*
X0112408Y0087499D01*
X0112408Y0085999D01*
X0108508Y0085999D01*
X0108508Y0087499D01*
X0104908Y0082399D02*
X0104908Y0078499D01*
X0103408Y0078499D01*
X0103408Y0082399D01*
X0104908Y0082399D01*
X0102308Y0082399D02*
X0102308Y0078499D01*
X0100808Y0078499D01*
X0100808Y0082399D01*
X0102308Y0082399D01*
X0099808Y0082399D02*
X0099808Y0078499D01*
X0098308Y0078499D01*
X0098308Y0082399D01*
X0099808Y0082399D01*
X0097208Y0082399D02*
X0097208Y0078499D01*
X0095708Y0078499D01*
X0095708Y0082399D01*
X0097208Y0082399D01*
X0094708Y0082399D02*
X0094708Y0078499D01*
X0093208Y0078499D01*
X0093208Y0082399D01*
X0094708Y0082399D01*
X0092108Y0082399D02*
X0092108Y0078499D01*
X0090608Y0078499D01*
X0090608Y0082399D01*
X0092108Y0082399D01*
X0089508Y0082399D02*
X0089508Y0078499D01*
X0088008Y0078499D01*
X0088008Y0082399D01*
X0089508Y0082399D01*
X0087008Y0082399D02*
X0087008Y0078499D01*
X0085508Y0078499D01*
X0085508Y0082399D01*
X0087008Y0082399D01*
X0084408Y0082399D02*
X0084408Y0078499D01*
X0082908Y0078499D01*
X0082908Y0082399D01*
X0084408Y0082399D01*
X0081908Y0082399D02*
X0081908Y0078499D01*
X0080408Y0078499D01*
X0080408Y0082399D01*
X0081908Y0082399D01*
X0079308Y0082399D02*
X0079308Y0078499D01*
X0077808Y0078499D01*
X0077808Y0082399D01*
X0079308Y0082399D01*
X0076808Y0082399D02*
X0076808Y0078499D01*
X0075308Y0078499D01*
X0075308Y0082399D01*
X0076808Y0082399D01*
X0074208Y0082399D02*
X0074208Y0078499D01*
X0072708Y0078499D01*
X0072708Y0082399D01*
X0074208Y0082399D01*
X0069108Y0116799D02*
X0069108Y0118199D01*
X0065208Y0118199D01*
X0065208Y0116699D01*
X0065335Y0159576D02*
X0071335Y0159576D01*
X0071395Y0159578D01*
X0071456Y0159583D01*
X0071515Y0159592D01*
X0071574Y0159605D01*
X0071633Y0159621D01*
X0071690Y0159641D01*
X0071745Y0159664D01*
X0071800Y0159691D01*
X0071852Y0159720D01*
X0071903Y0159753D01*
X0071952Y0159789D01*
X0071998Y0159827D01*
X0072042Y0159869D01*
X0072084Y0159913D01*
X0072122Y0159959D01*
X0072158Y0160008D01*
X0072191Y0160059D01*
X0072220Y0160111D01*
X0072247Y0160166D01*
X0072270Y0160221D01*
X0072290Y0160278D01*
X0072306Y0160337D01*
X0072319Y0160396D01*
X0072328Y0160455D01*
X0072333Y0160516D01*
X0072335Y0160576D01*
X0072335Y0171576D01*
X0072333Y0171636D01*
X0072328Y0171697D01*
X0072319Y0171756D01*
X0072306Y0171815D01*
X0072290Y0171874D01*
X0072270Y0171931D01*
X0072247Y0171986D01*
X0072220Y0172041D01*
X0072191Y0172093D01*
X0072158Y0172144D01*
X0072122Y0172193D01*
X0072084Y0172239D01*
X0072042Y0172283D01*
X0071998Y0172325D01*
X0071952Y0172363D01*
X0071903Y0172399D01*
X0071852Y0172432D01*
X0071800Y0172461D01*
X0071745Y0172488D01*
X0071690Y0172511D01*
X0071633Y0172531D01*
X0071574Y0172547D01*
X0071515Y0172560D01*
X0071456Y0172569D01*
X0071395Y0172574D01*
X0071335Y0172576D01*
X0065335Y0172576D01*
X0065275Y0172574D01*
X0065214Y0172569D01*
X0065155Y0172560D01*
X0065096Y0172547D01*
X0065037Y0172531D01*
X0064980Y0172511D01*
X0064925Y0172488D01*
X0064870Y0172461D01*
X0064818Y0172432D01*
X0064767Y0172399D01*
X0064718Y0172363D01*
X0064672Y0172325D01*
X0064628Y0172283D01*
X0064586Y0172239D01*
X0064548Y0172193D01*
X0064512Y0172144D01*
X0064479Y0172093D01*
X0064450Y0172041D01*
X0064423Y0171986D01*
X0064400Y0171931D01*
X0064380Y0171874D01*
X0064364Y0171815D01*
X0064351Y0171756D01*
X0064342Y0171697D01*
X0064337Y0171636D01*
X0064335Y0171576D01*
X0064335Y0160576D01*
X0064337Y0160516D01*
X0064342Y0160455D01*
X0064351Y0160396D01*
X0064364Y0160337D01*
X0064380Y0160278D01*
X0064400Y0160221D01*
X0064423Y0160166D01*
X0064450Y0160111D01*
X0064479Y0160059D01*
X0064512Y0160008D01*
X0064548Y0159959D01*
X0064586Y0159913D01*
X0064628Y0159869D01*
X0064672Y0159827D01*
X0064718Y0159789D01*
X0064767Y0159753D01*
X0064818Y0159720D01*
X0064870Y0159691D01*
X0064925Y0159664D01*
X0064980Y0159641D01*
X0065037Y0159621D01*
X0065096Y0159605D01*
X0065155Y0159592D01*
X0065214Y0159583D01*
X0065275Y0159578D01*
X0065335Y0159576D01*
X0056981Y0160576D02*
X0056981Y0171576D01*
X0056979Y0171636D01*
X0056974Y0171697D01*
X0056965Y0171756D01*
X0056952Y0171815D01*
X0056936Y0171874D01*
X0056916Y0171931D01*
X0056893Y0171986D01*
X0056866Y0172041D01*
X0056837Y0172093D01*
X0056804Y0172144D01*
X0056768Y0172193D01*
X0056730Y0172239D01*
X0056688Y0172283D01*
X0056644Y0172325D01*
X0056598Y0172363D01*
X0056549Y0172399D01*
X0056498Y0172432D01*
X0056446Y0172461D01*
X0056391Y0172488D01*
X0056336Y0172511D01*
X0056279Y0172531D01*
X0056220Y0172547D01*
X0056161Y0172560D01*
X0056102Y0172569D01*
X0056041Y0172574D01*
X0055981Y0172576D01*
X0049981Y0172576D01*
X0049921Y0172574D01*
X0049860Y0172569D01*
X0049801Y0172560D01*
X0049742Y0172547D01*
X0049683Y0172531D01*
X0049626Y0172511D01*
X0049571Y0172488D01*
X0049516Y0172461D01*
X0049464Y0172432D01*
X0049413Y0172399D01*
X0049364Y0172363D01*
X0049318Y0172325D01*
X0049274Y0172283D01*
X0049232Y0172239D01*
X0049194Y0172193D01*
X0049158Y0172144D01*
X0049125Y0172093D01*
X0049096Y0172041D01*
X0049069Y0171986D01*
X0049046Y0171931D01*
X0049026Y0171874D01*
X0049010Y0171815D01*
X0048997Y0171756D01*
X0048988Y0171697D01*
X0048983Y0171636D01*
X0048981Y0171576D01*
X0048981Y0160576D01*
X0048983Y0160516D01*
X0048988Y0160455D01*
X0048997Y0160396D01*
X0049010Y0160337D01*
X0049026Y0160278D01*
X0049046Y0160221D01*
X0049069Y0160166D01*
X0049096Y0160111D01*
X0049125Y0160059D01*
X0049158Y0160008D01*
X0049194Y0159959D01*
X0049232Y0159913D01*
X0049274Y0159869D01*
X0049318Y0159827D01*
X0049364Y0159789D01*
X0049413Y0159753D01*
X0049464Y0159720D01*
X0049516Y0159691D01*
X0049571Y0159664D01*
X0049626Y0159641D01*
X0049683Y0159621D01*
X0049742Y0159605D01*
X0049801Y0159592D01*
X0049860Y0159583D01*
X0049921Y0159578D01*
X0049981Y0159576D01*
X0055981Y0159576D01*
X0056041Y0159578D01*
X0056102Y0159583D01*
X0056161Y0159592D01*
X0056220Y0159605D01*
X0056279Y0159621D01*
X0056336Y0159641D01*
X0056391Y0159664D01*
X0056446Y0159691D01*
X0056498Y0159720D01*
X0056549Y0159753D01*
X0056598Y0159789D01*
X0056644Y0159827D01*
X0056688Y0159869D01*
X0056730Y0159913D01*
X0056768Y0159959D01*
X0056804Y0160008D01*
X0056837Y0160059D01*
X0056866Y0160111D01*
X0056893Y0160166D01*
X0056916Y0160221D01*
X0056936Y0160278D01*
X0056952Y0160337D01*
X0056965Y0160396D01*
X0056974Y0160455D01*
X0056979Y0160516D01*
X0056981Y0160576D01*
X0041627Y0160576D02*
X0041627Y0171576D01*
X0041625Y0171636D01*
X0041620Y0171697D01*
X0041611Y0171756D01*
X0041598Y0171815D01*
X0041582Y0171874D01*
X0041562Y0171931D01*
X0041539Y0171986D01*
X0041512Y0172041D01*
X0041483Y0172093D01*
X0041450Y0172144D01*
X0041414Y0172193D01*
X0041376Y0172239D01*
X0041334Y0172283D01*
X0041290Y0172325D01*
X0041244Y0172363D01*
X0041195Y0172399D01*
X0041144Y0172432D01*
X0041092Y0172461D01*
X0041037Y0172488D01*
X0040982Y0172511D01*
X0040925Y0172531D01*
X0040866Y0172547D01*
X0040807Y0172560D01*
X0040748Y0172569D01*
X0040687Y0172574D01*
X0040627Y0172576D01*
X0034627Y0172576D01*
X0034567Y0172574D01*
X0034506Y0172569D01*
X0034447Y0172560D01*
X0034388Y0172547D01*
X0034329Y0172531D01*
X0034272Y0172511D01*
X0034217Y0172488D01*
X0034162Y0172461D01*
X0034110Y0172432D01*
X0034059Y0172399D01*
X0034010Y0172363D01*
X0033964Y0172325D01*
X0033920Y0172283D01*
X0033878Y0172239D01*
X0033840Y0172193D01*
X0033804Y0172144D01*
X0033771Y0172093D01*
X0033742Y0172041D01*
X0033715Y0171986D01*
X0033692Y0171931D01*
X0033672Y0171874D01*
X0033656Y0171815D01*
X0033643Y0171756D01*
X0033634Y0171697D01*
X0033629Y0171636D01*
X0033627Y0171576D01*
X0033627Y0160576D01*
X0033629Y0160516D01*
X0033634Y0160455D01*
X0033643Y0160396D01*
X0033656Y0160337D01*
X0033672Y0160278D01*
X0033692Y0160221D01*
X0033715Y0160166D01*
X0033742Y0160111D01*
X0033771Y0160059D01*
X0033804Y0160008D01*
X0033840Y0159959D01*
X0033878Y0159913D01*
X0033920Y0159869D01*
X0033964Y0159827D01*
X0034010Y0159789D01*
X0034059Y0159753D01*
X0034110Y0159720D01*
X0034162Y0159691D01*
X0034217Y0159664D01*
X0034272Y0159641D01*
X0034329Y0159621D01*
X0034388Y0159605D01*
X0034447Y0159592D01*
X0034506Y0159583D01*
X0034567Y0159578D01*
X0034627Y0159576D01*
X0040627Y0159576D01*
X0040687Y0159578D01*
X0040748Y0159583D01*
X0040807Y0159592D01*
X0040866Y0159605D01*
X0040925Y0159621D01*
X0040982Y0159641D01*
X0041037Y0159664D01*
X0041092Y0159691D01*
X0041144Y0159720D01*
X0041195Y0159753D01*
X0041244Y0159789D01*
X0041290Y0159827D01*
X0041334Y0159869D01*
X0041376Y0159913D01*
X0041414Y0159959D01*
X0041450Y0160008D01*
X0041483Y0160059D01*
X0041512Y0160111D01*
X0041539Y0160166D01*
X0041562Y0160221D01*
X0041582Y0160278D01*
X0041598Y0160337D01*
X0041611Y0160396D01*
X0041620Y0160455D01*
X0041625Y0160516D01*
X0041627Y0160576D01*
X0026272Y0160576D02*
X0026272Y0171576D01*
X0026270Y0171636D01*
X0026265Y0171697D01*
X0026256Y0171756D01*
X0026243Y0171815D01*
X0026227Y0171874D01*
X0026207Y0171931D01*
X0026184Y0171986D01*
X0026157Y0172041D01*
X0026128Y0172093D01*
X0026095Y0172144D01*
X0026059Y0172193D01*
X0026021Y0172239D01*
X0025979Y0172283D01*
X0025935Y0172325D01*
X0025889Y0172363D01*
X0025840Y0172399D01*
X0025789Y0172432D01*
X0025737Y0172461D01*
X0025682Y0172488D01*
X0025627Y0172511D01*
X0025570Y0172531D01*
X0025511Y0172547D01*
X0025452Y0172560D01*
X0025393Y0172569D01*
X0025332Y0172574D01*
X0025272Y0172576D01*
X0019272Y0172576D01*
X0019212Y0172574D01*
X0019151Y0172569D01*
X0019092Y0172560D01*
X0019033Y0172547D01*
X0018974Y0172531D01*
X0018917Y0172511D01*
X0018862Y0172488D01*
X0018807Y0172461D01*
X0018755Y0172432D01*
X0018704Y0172399D01*
X0018655Y0172363D01*
X0018609Y0172325D01*
X0018565Y0172283D01*
X0018523Y0172239D01*
X0018485Y0172193D01*
X0018449Y0172144D01*
X0018416Y0172093D01*
X0018387Y0172041D01*
X0018360Y0171986D01*
X0018337Y0171931D01*
X0018317Y0171874D01*
X0018301Y0171815D01*
X0018288Y0171756D01*
X0018279Y0171697D01*
X0018274Y0171636D01*
X0018272Y0171576D01*
X0018272Y0160576D01*
X0018274Y0160516D01*
X0018279Y0160455D01*
X0018288Y0160396D01*
X0018301Y0160337D01*
X0018317Y0160278D01*
X0018337Y0160221D01*
X0018360Y0160166D01*
X0018387Y0160111D01*
X0018416Y0160059D01*
X0018449Y0160008D01*
X0018485Y0159959D01*
X0018523Y0159913D01*
X0018565Y0159869D01*
X0018609Y0159827D01*
X0018655Y0159789D01*
X0018704Y0159753D01*
X0018755Y0159720D01*
X0018807Y0159691D01*
X0018862Y0159664D01*
X0018917Y0159641D01*
X0018974Y0159621D01*
X0019033Y0159605D01*
X0019092Y0159592D01*
X0019151Y0159583D01*
X0019212Y0159578D01*
X0019272Y0159576D01*
X0025272Y0159576D01*
X0025332Y0159578D01*
X0025393Y0159583D01*
X0025452Y0159592D01*
X0025511Y0159605D01*
X0025570Y0159621D01*
X0025627Y0159641D01*
X0025682Y0159664D01*
X0025737Y0159691D01*
X0025789Y0159720D01*
X0025840Y0159753D01*
X0025889Y0159789D01*
X0025935Y0159827D01*
X0025979Y0159869D01*
X0026021Y0159913D01*
X0026059Y0159959D01*
X0026095Y0160008D01*
X0026128Y0160059D01*
X0026157Y0160111D01*
X0026184Y0160166D01*
X0026207Y0160221D01*
X0026227Y0160278D01*
X0026243Y0160337D01*
X0026256Y0160396D01*
X0026265Y0160455D01*
X0026270Y0160516D01*
X0026272Y0160576D01*
X0132839Y0160576D02*
X0132839Y0171576D01*
X0132841Y0171636D01*
X0132846Y0171697D01*
X0132855Y0171756D01*
X0132868Y0171815D01*
X0132884Y0171874D01*
X0132904Y0171931D01*
X0132927Y0171986D01*
X0132954Y0172041D01*
X0132983Y0172093D01*
X0133016Y0172144D01*
X0133052Y0172193D01*
X0133090Y0172239D01*
X0133132Y0172283D01*
X0133176Y0172325D01*
X0133222Y0172363D01*
X0133271Y0172399D01*
X0133322Y0172432D01*
X0133374Y0172461D01*
X0133429Y0172488D01*
X0133484Y0172511D01*
X0133541Y0172531D01*
X0133600Y0172547D01*
X0133659Y0172560D01*
X0133718Y0172569D01*
X0133779Y0172574D01*
X0133839Y0172576D01*
X0139839Y0172576D01*
X0139899Y0172574D01*
X0139960Y0172569D01*
X0140019Y0172560D01*
X0140078Y0172547D01*
X0140137Y0172531D01*
X0140194Y0172511D01*
X0140249Y0172488D01*
X0140304Y0172461D01*
X0140356Y0172432D01*
X0140407Y0172399D01*
X0140456Y0172363D01*
X0140502Y0172325D01*
X0140546Y0172283D01*
X0140588Y0172239D01*
X0140626Y0172193D01*
X0140662Y0172144D01*
X0140695Y0172093D01*
X0140724Y0172041D01*
X0140751Y0171986D01*
X0140774Y0171931D01*
X0140794Y0171874D01*
X0140810Y0171815D01*
X0140823Y0171756D01*
X0140832Y0171697D01*
X0140837Y0171636D01*
X0140839Y0171576D01*
X0140839Y0160576D01*
X0140837Y0160516D01*
X0140832Y0160455D01*
X0140823Y0160396D01*
X0140810Y0160337D01*
X0140794Y0160278D01*
X0140774Y0160221D01*
X0140751Y0160166D01*
X0140724Y0160111D01*
X0140695Y0160059D01*
X0140662Y0160008D01*
X0140626Y0159959D01*
X0140588Y0159913D01*
X0140546Y0159869D01*
X0140502Y0159827D01*
X0140456Y0159789D01*
X0140407Y0159753D01*
X0140356Y0159720D01*
X0140304Y0159691D01*
X0140249Y0159664D01*
X0140194Y0159641D01*
X0140137Y0159621D01*
X0140078Y0159605D01*
X0140019Y0159592D01*
X0139960Y0159583D01*
X0139899Y0159578D01*
X0139839Y0159576D01*
X0133839Y0159576D01*
X0133779Y0159578D01*
X0133718Y0159583D01*
X0133659Y0159592D01*
X0133600Y0159605D01*
X0133541Y0159621D01*
X0133484Y0159641D01*
X0133429Y0159664D01*
X0133374Y0159691D01*
X0133322Y0159720D01*
X0133271Y0159753D01*
X0133222Y0159789D01*
X0133176Y0159827D01*
X0133132Y0159869D01*
X0133090Y0159913D01*
X0133052Y0159959D01*
X0133016Y0160008D01*
X0132983Y0160059D01*
X0132954Y0160111D01*
X0132927Y0160166D01*
X0132904Y0160221D01*
X0132884Y0160278D01*
X0132868Y0160337D01*
X0132855Y0160396D01*
X0132846Y0160455D01*
X0132841Y0160516D01*
X0132839Y0160576D01*
X0149375Y0160576D02*
X0149375Y0171576D01*
X0149377Y0171636D01*
X0149382Y0171697D01*
X0149391Y0171756D01*
X0149404Y0171815D01*
X0149420Y0171874D01*
X0149440Y0171931D01*
X0149463Y0171986D01*
X0149490Y0172041D01*
X0149519Y0172093D01*
X0149552Y0172144D01*
X0149588Y0172193D01*
X0149626Y0172239D01*
X0149668Y0172283D01*
X0149712Y0172325D01*
X0149758Y0172363D01*
X0149807Y0172399D01*
X0149858Y0172432D01*
X0149910Y0172461D01*
X0149965Y0172488D01*
X0150020Y0172511D01*
X0150077Y0172531D01*
X0150136Y0172547D01*
X0150195Y0172560D01*
X0150254Y0172569D01*
X0150315Y0172574D01*
X0150375Y0172576D01*
X0156375Y0172576D01*
X0156435Y0172574D01*
X0156496Y0172569D01*
X0156555Y0172560D01*
X0156614Y0172547D01*
X0156673Y0172531D01*
X0156730Y0172511D01*
X0156785Y0172488D01*
X0156840Y0172461D01*
X0156892Y0172432D01*
X0156943Y0172399D01*
X0156992Y0172363D01*
X0157038Y0172325D01*
X0157082Y0172283D01*
X0157124Y0172239D01*
X0157162Y0172193D01*
X0157198Y0172144D01*
X0157231Y0172093D01*
X0157260Y0172041D01*
X0157287Y0171986D01*
X0157310Y0171931D01*
X0157330Y0171874D01*
X0157346Y0171815D01*
X0157359Y0171756D01*
X0157368Y0171697D01*
X0157373Y0171636D01*
X0157375Y0171576D01*
X0157375Y0160576D01*
X0157373Y0160516D01*
X0157368Y0160455D01*
X0157359Y0160396D01*
X0157346Y0160337D01*
X0157330Y0160278D01*
X0157310Y0160221D01*
X0157287Y0160166D01*
X0157260Y0160111D01*
X0157231Y0160059D01*
X0157198Y0160008D01*
X0157162Y0159959D01*
X0157124Y0159913D01*
X0157082Y0159869D01*
X0157038Y0159827D01*
X0156992Y0159789D01*
X0156943Y0159753D01*
X0156892Y0159720D01*
X0156840Y0159691D01*
X0156785Y0159664D01*
X0156730Y0159641D01*
X0156673Y0159621D01*
X0156614Y0159605D01*
X0156555Y0159592D01*
X0156496Y0159583D01*
X0156435Y0159578D01*
X0156375Y0159576D01*
X0150375Y0159576D01*
X0150315Y0159578D01*
X0150254Y0159583D01*
X0150195Y0159592D01*
X0150136Y0159605D01*
X0150077Y0159621D01*
X0150020Y0159641D01*
X0149965Y0159664D01*
X0149910Y0159691D01*
X0149858Y0159720D01*
X0149807Y0159753D01*
X0149758Y0159789D01*
X0149712Y0159827D01*
X0149668Y0159869D01*
X0149626Y0159913D01*
X0149588Y0159959D01*
X0149552Y0160008D01*
X0149519Y0160059D01*
X0149490Y0160111D01*
X0149463Y0160166D01*
X0149440Y0160221D01*
X0149420Y0160278D01*
X0149404Y0160337D01*
X0149391Y0160396D01*
X0149382Y0160455D01*
X0149377Y0160516D01*
X0149375Y0160576D01*
X0164335Y0160576D02*
X0164335Y0171576D01*
X0164337Y0171636D01*
X0164342Y0171697D01*
X0164351Y0171756D01*
X0164364Y0171815D01*
X0164380Y0171874D01*
X0164400Y0171931D01*
X0164423Y0171986D01*
X0164450Y0172041D01*
X0164479Y0172093D01*
X0164512Y0172144D01*
X0164548Y0172193D01*
X0164586Y0172239D01*
X0164628Y0172283D01*
X0164672Y0172325D01*
X0164718Y0172363D01*
X0164767Y0172399D01*
X0164818Y0172432D01*
X0164870Y0172461D01*
X0164925Y0172488D01*
X0164980Y0172511D01*
X0165037Y0172531D01*
X0165096Y0172547D01*
X0165155Y0172560D01*
X0165214Y0172569D01*
X0165275Y0172574D01*
X0165335Y0172576D01*
X0171335Y0172576D01*
X0171395Y0172574D01*
X0171456Y0172569D01*
X0171515Y0172560D01*
X0171574Y0172547D01*
X0171633Y0172531D01*
X0171690Y0172511D01*
X0171745Y0172488D01*
X0171800Y0172461D01*
X0171852Y0172432D01*
X0171903Y0172399D01*
X0171952Y0172363D01*
X0171998Y0172325D01*
X0172042Y0172283D01*
X0172084Y0172239D01*
X0172122Y0172193D01*
X0172158Y0172144D01*
X0172191Y0172093D01*
X0172220Y0172041D01*
X0172247Y0171986D01*
X0172270Y0171931D01*
X0172290Y0171874D01*
X0172306Y0171815D01*
X0172319Y0171756D01*
X0172328Y0171697D01*
X0172333Y0171636D01*
X0172335Y0171576D01*
X0172335Y0160576D01*
X0172333Y0160516D01*
X0172328Y0160455D01*
X0172319Y0160396D01*
X0172306Y0160337D01*
X0172290Y0160278D01*
X0172270Y0160221D01*
X0172247Y0160166D01*
X0172220Y0160111D01*
X0172191Y0160059D01*
X0172158Y0160008D01*
X0172122Y0159959D01*
X0172084Y0159913D01*
X0172042Y0159869D01*
X0171998Y0159827D01*
X0171952Y0159789D01*
X0171903Y0159753D01*
X0171852Y0159720D01*
X0171800Y0159691D01*
X0171745Y0159664D01*
X0171690Y0159641D01*
X0171633Y0159621D01*
X0171574Y0159605D01*
X0171515Y0159592D01*
X0171456Y0159583D01*
X0171395Y0159578D01*
X0171335Y0159576D01*
X0165335Y0159576D01*
X0165275Y0159578D01*
X0165214Y0159583D01*
X0165155Y0159592D01*
X0165096Y0159605D01*
X0165037Y0159621D01*
X0164980Y0159641D01*
X0164925Y0159664D01*
X0164870Y0159691D01*
X0164818Y0159720D01*
X0164767Y0159753D01*
X0164718Y0159789D01*
X0164672Y0159827D01*
X0164628Y0159869D01*
X0164586Y0159913D01*
X0164548Y0159959D01*
X0164512Y0160008D01*
X0164479Y0160059D01*
X0164450Y0160111D01*
X0164423Y0160166D01*
X0164400Y0160221D01*
X0164380Y0160278D01*
X0164364Y0160337D01*
X0164351Y0160396D01*
X0164342Y0160455D01*
X0164337Y0160516D01*
X0164335Y0160576D01*
X0180083Y0160576D02*
X0180083Y0171576D01*
X0180085Y0171636D01*
X0180090Y0171697D01*
X0180099Y0171756D01*
X0180112Y0171815D01*
X0180128Y0171874D01*
X0180148Y0171931D01*
X0180171Y0171986D01*
X0180198Y0172041D01*
X0180227Y0172093D01*
X0180260Y0172144D01*
X0180296Y0172193D01*
X0180334Y0172239D01*
X0180376Y0172283D01*
X0180420Y0172325D01*
X0180466Y0172363D01*
X0180515Y0172399D01*
X0180566Y0172432D01*
X0180618Y0172461D01*
X0180673Y0172488D01*
X0180728Y0172511D01*
X0180785Y0172531D01*
X0180844Y0172547D01*
X0180903Y0172560D01*
X0180962Y0172569D01*
X0181023Y0172574D01*
X0181083Y0172576D01*
X0187083Y0172576D01*
X0187143Y0172574D01*
X0187204Y0172569D01*
X0187263Y0172560D01*
X0187322Y0172547D01*
X0187381Y0172531D01*
X0187438Y0172511D01*
X0187493Y0172488D01*
X0187548Y0172461D01*
X0187600Y0172432D01*
X0187651Y0172399D01*
X0187700Y0172363D01*
X0187746Y0172325D01*
X0187790Y0172283D01*
X0187832Y0172239D01*
X0187870Y0172193D01*
X0187906Y0172144D01*
X0187939Y0172093D01*
X0187968Y0172041D01*
X0187995Y0171986D01*
X0188018Y0171931D01*
X0188038Y0171874D01*
X0188054Y0171815D01*
X0188067Y0171756D01*
X0188076Y0171697D01*
X0188081Y0171636D01*
X0188083Y0171576D01*
X0188083Y0160576D01*
X0188081Y0160516D01*
X0188076Y0160455D01*
X0188067Y0160396D01*
X0188054Y0160337D01*
X0188038Y0160278D01*
X0188018Y0160221D01*
X0187995Y0160166D01*
X0187968Y0160111D01*
X0187939Y0160059D01*
X0187906Y0160008D01*
X0187870Y0159959D01*
X0187832Y0159913D01*
X0187790Y0159869D01*
X0187746Y0159827D01*
X0187700Y0159789D01*
X0187651Y0159753D01*
X0187600Y0159720D01*
X0187548Y0159691D01*
X0187493Y0159664D01*
X0187438Y0159641D01*
X0187381Y0159621D01*
X0187322Y0159605D01*
X0187263Y0159592D01*
X0187204Y0159583D01*
X0187143Y0159578D01*
X0187083Y0159576D01*
X0181083Y0159576D01*
X0181023Y0159578D01*
X0180962Y0159583D01*
X0180903Y0159592D01*
X0180844Y0159605D01*
X0180785Y0159621D01*
X0180728Y0159641D01*
X0180673Y0159664D01*
X0180618Y0159691D01*
X0180566Y0159720D01*
X0180515Y0159753D01*
X0180466Y0159789D01*
X0180420Y0159827D01*
X0180376Y0159869D01*
X0180334Y0159913D01*
X0180296Y0159959D01*
X0180260Y0160008D01*
X0180227Y0160059D01*
X0180198Y0160111D01*
X0180171Y0160166D01*
X0180148Y0160221D01*
X0180128Y0160278D01*
X0180112Y0160337D01*
X0180099Y0160396D01*
X0180090Y0160455D01*
X0180085Y0160516D01*
X0180083Y0160576D01*
X0176524Y0034800D02*
X0166524Y0034800D01*
X0166524Y0023800D01*
X0176524Y0023800D01*
X0186524Y0023800D01*
X0196524Y0023800D01*
X0206524Y0023800D01*
X0216524Y0023800D01*
X0226524Y0023800D01*
X0236524Y0023800D01*
X0246524Y0023800D01*
X0246524Y0034800D01*
X0236524Y0034800D01*
X0226524Y0034800D01*
X0226524Y0023800D01*
X0216524Y0023800D02*
X0216524Y0034800D01*
X0226524Y0034800D01*
X0216524Y0034800D02*
X0206524Y0034800D01*
X0206524Y0023800D01*
X0196524Y0023800D02*
X0196524Y0034800D01*
X0206524Y0034800D01*
X0196524Y0034800D02*
X0186524Y0034800D01*
X0176524Y0034800D01*
X0176524Y0023800D01*
X0186524Y0023800D02*
X0186524Y0034800D01*
X0236524Y0034800D02*
X0236524Y0023800D01*
D11*
X0085398Y0099749D02*
X0082262Y0099749D01*
X0083830Y0099749D02*
X0083830Y0104453D01*
X0082262Y0102885D01*
X0080794Y0104453D02*
X0080794Y0100533D01*
X0080010Y0099749D01*
X0078442Y0099749D01*
X0077658Y0100533D01*
X0077658Y0104453D01*
X0062294Y0118633D02*
X0059158Y0121769D01*
X0059158Y0120201D02*
X0062294Y0120201D01*
X0062294Y0121769D02*
X0059158Y0118633D01*
X0060726Y0118633D02*
X0060726Y0121769D01*
X0043667Y0061039D02*
X0040531Y0057902D01*
X0042099Y0057902D02*
X0042099Y0061039D01*
X0040531Y0061039D02*
X0043667Y0057902D01*
X0043667Y0059471D02*
X0040531Y0059471D01*
X0041831Y0050123D02*
X0041831Y0046202D01*
X0042615Y0045419D01*
X0044183Y0045419D01*
X0044967Y0046202D01*
X0044967Y0050123D01*
X0046435Y0049339D02*
X0047219Y0050123D01*
X0048787Y0050123D01*
X0049571Y0049339D01*
X0049571Y0048555D01*
X0046435Y0045419D01*
X0049571Y0045419D01*
D12*
X0084517Y0020800D02*
X0084517Y0002300D01*
X0094517Y0002300D02*
X0094517Y0020800D01*
X0104517Y0020800D02*
X0104517Y0002300D01*
X0114517Y0002300D02*
X0114517Y0020800D01*
X0124517Y0020800D02*
X0124517Y0002300D01*
X0134517Y0002300D02*
X0134517Y0020800D01*
X0144517Y0020800D02*
X0144517Y0002300D01*
X0154517Y0002300D02*
X0154517Y0020800D01*
X0171524Y0020800D02*
X0171524Y0002300D01*
X0181524Y0002300D02*
X0181524Y0020800D01*
X0191524Y0020800D02*
X0191524Y0002300D01*
X0201524Y0002300D02*
X0201524Y0020800D01*
X0211524Y0020800D02*
X0211524Y0002300D01*
X0221524Y0002300D02*
X0221524Y0020800D01*
X0231524Y0020800D02*
X0231524Y0002300D01*
X0241524Y0002300D02*
X0241524Y0020800D01*
D13*
X0240021Y0027446D02*
X0239271Y0028197D01*
X0239271Y0029698D01*
X0240021Y0030449D01*
X0240772Y0030449D01*
X0243774Y0027446D01*
X0243774Y0030449D01*
X0233774Y0029698D02*
X0229271Y0029698D01*
X0231522Y0027446D01*
X0231522Y0030449D01*
X0223774Y0029698D02*
X0223024Y0030449D01*
X0222273Y0030449D01*
X0221522Y0029698D01*
X0221522Y0027446D01*
X0223024Y0027446D01*
X0223774Y0028197D01*
X0223774Y0029698D01*
X0221522Y0027446D02*
X0220021Y0028947D01*
X0219271Y0030449D01*
X0213774Y0029698D02*
X0213774Y0028197D01*
X0213024Y0027446D01*
X0212273Y0027446D01*
X0211522Y0028197D01*
X0211522Y0029698D01*
X0212273Y0030449D01*
X0213024Y0030449D01*
X0213774Y0029698D01*
X0211522Y0029698D02*
X0210772Y0030449D01*
X0210021Y0030449D01*
X0209271Y0029698D01*
X0209271Y0028197D01*
X0210021Y0027446D01*
X0210772Y0027446D01*
X0211522Y0028197D01*
X0203774Y0027345D02*
X0203774Y0024342D01*
X0203774Y0025843D02*
X0199271Y0025843D01*
X0200772Y0024342D01*
X0200021Y0028946D02*
X0199271Y0029697D01*
X0199271Y0031198D01*
X0200021Y0031949D01*
X0203024Y0028946D01*
X0203774Y0029697D01*
X0203774Y0031198D01*
X0203024Y0031949D01*
X0200021Y0031949D01*
X0200021Y0028946D02*
X0203024Y0028946D01*
X0193774Y0028946D02*
X0190772Y0031949D01*
X0190021Y0031949D01*
X0189271Y0031198D01*
X0189271Y0029697D01*
X0190021Y0028946D01*
X0189271Y0025843D02*
X0193774Y0025843D01*
X0193774Y0024342D02*
X0193774Y0027345D01*
X0193774Y0028946D02*
X0193774Y0031949D01*
X0189271Y0025843D02*
X0190772Y0024342D01*
X0183774Y0024342D02*
X0183774Y0027345D01*
X0183774Y0025843D02*
X0179271Y0025843D01*
X0180772Y0024342D01*
X0181522Y0028946D02*
X0181522Y0031949D01*
X0179271Y0031198D02*
X0181522Y0028946D01*
X0183774Y0031198D02*
X0179271Y0031198D01*
X0173774Y0031198D02*
X0173774Y0029697D01*
X0173024Y0028946D01*
X0171522Y0028946D01*
X0171522Y0031198D01*
X0172273Y0031949D01*
X0173024Y0031949D01*
X0173774Y0031198D01*
X0171522Y0028946D02*
X0170021Y0030447D01*
X0169271Y0031949D01*
X0169271Y0025843D02*
X0173774Y0025843D01*
X0173774Y0024342D02*
X0173774Y0027345D01*
X0170772Y0024342D02*
X0169271Y0025843D01*
X0156767Y0027446D02*
X0153764Y0030449D01*
X0153013Y0030449D01*
X0152263Y0029698D01*
X0152263Y0028197D01*
X0153013Y0027446D01*
X0156767Y0027446D02*
X0156767Y0030449D01*
X0146767Y0029698D02*
X0142263Y0029698D01*
X0144515Y0027446D01*
X0144515Y0030449D01*
X0136767Y0029698D02*
X0136016Y0030449D01*
X0135265Y0030449D01*
X0134515Y0029698D01*
X0134515Y0027446D01*
X0136016Y0027446D01*
X0136767Y0028197D01*
X0136767Y0029698D01*
X0134515Y0027446D02*
X0133013Y0028947D01*
X0132263Y0030449D01*
X0126767Y0029698D02*
X0126767Y0028197D01*
X0126016Y0027446D01*
X0125265Y0027446D01*
X0124515Y0028197D01*
X0124515Y0029698D01*
X0125265Y0030449D01*
X0126016Y0030449D01*
X0126767Y0029698D01*
X0124515Y0029698D02*
X0123764Y0030449D01*
X0123013Y0030449D01*
X0122263Y0029698D01*
X0122263Y0028197D01*
X0123013Y0027446D01*
X0123764Y0027446D01*
X0124515Y0028197D01*
X0116767Y0027345D02*
X0116767Y0024342D01*
X0116767Y0025843D02*
X0112263Y0025843D01*
X0113764Y0024342D01*
X0113013Y0028946D02*
X0112263Y0029697D01*
X0112263Y0031198D01*
X0113013Y0031949D01*
X0116016Y0028946D01*
X0116767Y0029697D01*
X0116767Y0031198D01*
X0116016Y0031949D01*
X0113013Y0031949D01*
X0113013Y0028946D02*
X0116016Y0028946D01*
X0106767Y0028946D02*
X0103764Y0031949D01*
X0103013Y0031949D01*
X0102263Y0031198D01*
X0102263Y0029697D01*
X0103013Y0028946D01*
X0102263Y0025843D02*
X0106767Y0025843D01*
X0106767Y0024342D02*
X0106767Y0027345D01*
X0106767Y0028946D02*
X0106767Y0031949D01*
X0102263Y0025843D02*
X0103764Y0024342D01*
X0096767Y0024342D02*
X0096767Y0027345D01*
X0096767Y0025843D02*
X0092263Y0025843D01*
X0093764Y0024342D01*
X0094515Y0028946D02*
X0094515Y0031949D01*
X0096767Y0031198D02*
X0092263Y0031198D01*
X0094515Y0028946D01*
X0086767Y0029697D02*
X0086767Y0031198D01*
X0086016Y0031949D01*
X0085265Y0031949D01*
X0084515Y0031198D01*
X0084515Y0028946D01*
X0086016Y0028946D01*
X0086767Y0029697D01*
X0086767Y0027345D02*
X0086767Y0024342D01*
X0086767Y0025843D02*
X0082263Y0025843D01*
X0083764Y0024342D01*
X0084515Y0028946D02*
X0083013Y0030447D01*
X0082263Y0031949D01*
X0145955Y0056801D02*
X0146705Y0056050D01*
X0148207Y0056050D01*
X0148957Y0056801D01*
X0148957Y0057551D01*
X0148207Y0058302D01*
X0146705Y0058302D01*
X0145955Y0059053D01*
X0145955Y0059803D01*
X0146705Y0060554D01*
X0148207Y0060554D01*
X0148957Y0059803D01*
X0150559Y0060554D02*
X0150559Y0057551D01*
X0152060Y0056050D01*
X0153561Y0057551D01*
X0153561Y0060554D01*
X0155163Y0059053D02*
X0156664Y0060554D01*
X0156664Y0056050D01*
X0155163Y0056050D02*
X0158165Y0056050D01*
X0232963Y0056801D02*
X0233713Y0056050D01*
X0235215Y0056050D01*
X0235965Y0056801D01*
X0235965Y0057551D01*
X0235215Y0058302D01*
X0233713Y0058302D01*
X0232963Y0059053D01*
X0232963Y0059803D01*
X0233713Y0060554D01*
X0235215Y0060554D01*
X0235965Y0059803D01*
X0237567Y0060554D02*
X0237567Y0057551D01*
X0239068Y0056050D01*
X0240569Y0057551D01*
X0240569Y0060554D01*
X0242170Y0059803D02*
X0242921Y0060554D01*
X0244422Y0060554D01*
X0245173Y0059803D01*
X0245173Y0059053D01*
X0242170Y0056050D01*
X0245173Y0056050D01*
X0192583Y0159014D02*
X0193333Y0159764D01*
X0193333Y0161266D01*
X0192583Y0162016D01*
X0191832Y0162016D01*
X0191082Y0161266D01*
X0191082Y0159764D01*
X0190331Y0159014D01*
X0189580Y0159014D01*
X0188830Y0159764D01*
X0188830Y0161266D01*
X0189580Y0162016D01*
X0192583Y0163618D02*
X0193333Y0164368D01*
X0193333Y0165119D01*
X0192583Y0165870D01*
X0188830Y0165870D01*
X0188830Y0166620D02*
X0188830Y0165119D01*
X0190331Y0168222D02*
X0188830Y0169723D01*
X0193333Y0169723D01*
X0193333Y0168222D02*
X0193333Y0171224D01*
X0177585Y0171224D02*
X0177585Y0168222D01*
X0174583Y0171224D01*
X0173832Y0171224D01*
X0173082Y0170474D01*
X0173082Y0168972D01*
X0173832Y0168222D01*
X0173082Y0166620D02*
X0173082Y0165119D01*
X0173082Y0165870D02*
X0176835Y0165870D01*
X0177585Y0165119D01*
X0177585Y0164368D01*
X0176835Y0163618D01*
X0176835Y0162016D02*
X0177585Y0161266D01*
X0177585Y0159764D01*
X0176835Y0159014D01*
X0175334Y0159764D02*
X0175334Y0161266D01*
X0176084Y0162016D01*
X0176835Y0162016D01*
X0175334Y0159764D02*
X0174583Y0159014D01*
X0173832Y0159014D01*
X0173082Y0159764D01*
X0173082Y0161266D01*
X0173832Y0162016D01*
X0162625Y0161266D02*
X0162625Y0159764D01*
X0161874Y0159014D01*
X0160373Y0159764D02*
X0160373Y0161266D01*
X0161124Y0162016D01*
X0161874Y0162016D01*
X0162625Y0161266D01*
X0161874Y0163618D02*
X0162625Y0164368D01*
X0162625Y0165119D01*
X0161874Y0165870D01*
X0158121Y0165870D01*
X0158121Y0166620D02*
X0158121Y0165119D01*
X0158872Y0168222D02*
X0158121Y0168972D01*
X0158121Y0170474D01*
X0158872Y0171224D01*
X0159622Y0171224D01*
X0160373Y0170474D01*
X0161124Y0171224D01*
X0161874Y0171224D01*
X0162625Y0170474D01*
X0162625Y0168972D01*
X0161874Y0168222D01*
X0160373Y0169723D02*
X0160373Y0170474D01*
X0158872Y0162016D02*
X0158121Y0161266D01*
X0158121Y0159764D01*
X0158872Y0159014D01*
X0159622Y0159014D01*
X0160373Y0159764D01*
X0146089Y0159764D02*
X0145339Y0159014D01*
X0146089Y0159764D02*
X0146089Y0161266D01*
X0145339Y0162016D01*
X0144588Y0162016D01*
X0143837Y0161266D01*
X0143837Y0159764D01*
X0143087Y0159014D01*
X0142336Y0159014D01*
X0141586Y0159764D01*
X0141586Y0161266D01*
X0142336Y0162016D01*
X0145339Y0163618D02*
X0146089Y0164368D01*
X0146089Y0165119D01*
X0145339Y0165870D01*
X0141586Y0165870D01*
X0141586Y0166620D02*
X0141586Y0165119D01*
X0143837Y0168222D02*
X0143837Y0171224D01*
X0141586Y0170474D02*
X0143837Y0168222D01*
X0146089Y0170474D02*
X0141586Y0170474D01*
X0077585Y0170474D02*
X0077585Y0168972D01*
X0076835Y0168222D01*
X0075334Y0168222D02*
X0074583Y0169723D01*
X0074583Y0170474D01*
X0075334Y0171224D01*
X0076835Y0171224D01*
X0077585Y0170474D01*
X0075334Y0168222D02*
X0073082Y0168222D01*
X0073082Y0171224D01*
X0073082Y0166620D02*
X0073082Y0165119D01*
X0073082Y0165870D02*
X0076835Y0165870D01*
X0077585Y0165119D01*
X0077585Y0164368D01*
X0076835Y0163618D01*
X0076835Y0162016D02*
X0077585Y0161266D01*
X0077585Y0159764D01*
X0076835Y0159014D01*
X0075334Y0159764D02*
X0075334Y0161266D01*
X0076084Y0162016D01*
X0076835Y0162016D01*
X0075334Y0159764D02*
X0074583Y0159014D01*
X0073832Y0159014D01*
X0073082Y0159764D01*
X0073082Y0161266D01*
X0073832Y0162016D01*
X0062231Y0161266D02*
X0062231Y0159764D01*
X0061480Y0159014D01*
X0059979Y0159764D02*
X0059979Y0161266D01*
X0060730Y0162016D01*
X0061480Y0162016D01*
X0062231Y0161266D01*
X0061480Y0163618D02*
X0062231Y0164368D01*
X0062231Y0165119D01*
X0061480Y0165870D01*
X0057727Y0165870D01*
X0057727Y0166620D02*
X0057727Y0165119D01*
X0059979Y0168222D02*
X0059979Y0170474D01*
X0060730Y0171224D01*
X0061480Y0171224D01*
X0062231Y0170474D01*
X0062231Y0168972D01*
X0061480Y0168222D01*
X0059979Y0168222D01*
X0058478Y0169723D01*
X0057727Y0171224D01*
X0058478Y0162016D02*
X0057727Y0161266D01*
X0057727Y0159764D01*
X0058478Y0159014D01*
X0059229Y0159014D01*
X0059979Y0159764D01*
X0046877Y0159764D02*
X0046126Y0159014D01*
X0046877Y0159764D02*
X0046877Y0161266D01*
X0046126Y0162016D01*
X0045375Y0162016D01*
X0044625Y0161266D01*
X0044625Y0159764D01*
X0043874Y0159014D01*
X0043124Y0159014D01*
X0042373Y0159764D01*
X0042373Y0161266D01*
X0043124Y0162016D01*
X0046126Y0163618D02*
X0046877Y0164368D01*
X0046877Y0165119D01*
X0046126Y0165870D01*
X0042373Y0165870D01*
X0042373Y0166620D02*
X0042373Y0165119D01*
X0042373Y0168222D02*
X0042373Y0171224D01*
X0043124Y0171224D01*
X0046126Y0168222D01*
X0046877Y0168222D01*
X0031522Y0168972D02*
X0030772Y0168222D01*
X0030021Y0168222D01*
X0029271Y0168972D01*
X0029271Y0170474D01*
X0030021Y0171224D01*
X0030772Y0171224D01*
X0031522Y0170474D01*
X0031522Y0168972D01*
X0029271Y0168972D02*
X0028520Y0168222D01*
X0027769Y0168222D01*
X0027019Y0168972D01*
X0027019Y0170474D01*
X0027769Y0171224D01*
X0028520Y0171224D01*
X0029271Y0170474D01*
X0027019Y0166620D02*
X0027019Y0165119D01*
X0027019Y0165870D02*
X0030772Y0165870D01*
X0031522Y0165119D01*
X0031522Y0164368D01*
X0030772Y0163618D01*
X0030772Y0162016D02*
X0031522Y0161266D01*
X0031522Y0159764D01*
X0030772Y0159014D01*
X0029271Y0159764D02*
X0029271Y0161266D01*
X0030021Y0162016D01*
X0030772Y0162016D01*
X0029271Y0159764D02*
X0028520Y0159014D01*
X0027769Y0159014D01*
X0027019Y0159764D01*
X0027019Y0161266D01*
X0027769Y0162016D01*
X0040522Y0132130D02*
X0040522Y0129127D01*
X0040522Y0130628D02*
X0036019Y0130628D01*
X0037520Y0129127D01*
X0037520Y0115630D02*
X0038271Y0114879D01*
X0039021Y0115630D01*
X0039772Y0115630D01*
X0040522Y0114879D01*
X0040522Y0113378D01*
X0039772Y0112627D01*
X0039021Y0111026D02*
X0036019Y0111026D01*
X0036769Y0112627D02*
X0036019Y0113378D01*
X0036019Y0114879D01*
X0036769Y0115630D01*
X0037520Y0115630D01*
X0038271Y0114879D02*
X0038271Y0114128D01*
X0039021Y0111026D02*
X0040522Y0109525D01*
X0039021Y0108023D01*
X0036019Y0108023D01*
X0036769Y0106422D02*
X0036019Y0105671D01*
X0036019Y0104170D01*
X0036769Y0103419D01*
X0037520Y0103419D01*
X0038271Y0104170D01*
X0038271Y0105671D01*
X0039021Y0106422D01*
X0039772Y0106422D01*
X0040522Y0105671D01*
X0040522Y0104170D01*
X0039772Y0103419D01*
X0007772Y0064130D02*
X0007021Y0064130D01*
X0006271Y0063379D01*
X0006271Y0061127D01*
X0007772Y0061127D01*
X0008522Y0061878D01*
X0008522Y0063379D01*
X0007772Y0064130D01*
X0004769Y0062628D02*
X0006271Y0061127D01*
X0004769Y0062628D02*
X0004019Y0064130D01*
X0004019Y0058025D02*
X0008522Y0058025D01*
X0008522Y0059526D02*
X0008522Y0056523D01*
X0005520Y0056523D02*
X0004019Y0058025D01*
D14*
X0084517Y0022300D03*
X0094517Y0022300D03*
X0104517Y0022300D03*
X0114517Y0022300D03*
X0124517Y0022300D03*
X0134517Y0022300D03*
X0144517Y0022300D03*
X0154517Y0022300D03*
X0171524Y0022300D03*
X0181524Y0022300D03*
X0191524Y0022300D03*
X0201524Y0022300D03*
X0211524Y0022300D03*
X0221524Y0022300D03*
X0231524Y0022300D03*
X0241524Y0022300D03*
D15*
X0241524Y0036100D03*
X0231524Y0036100D03*
X0221524Y0036100D03*
X0211524Y0036100D03*
X0201524Y0036100D03*
X0191524Y0036100D03*
X0181524Y0036100D03*
X0171524Y0036100D03*
X0154517Y0036100D03*
X0144517Y0036100D03*
X0134517Y0036100D03*
X0124517Y0036100D03*
X0114517Y0036100D03*
X0104517Y0036100D03*
X0094517Y0036100D03*
X0084517Y0036100D03*
D16*
X0084517Y0045800D03*
X0094517Y0045800D03*
X0104517Y0045800D03*
X0114517Y0045800D03*
X0124517Y0045800D03*
X0134517Y0045800D03*
X0144517Y0045800D03*
X0154517Y0045800D03*
X0171524Y0045800D03*
X0181524Y0045800D03*
X0191524Y0045800D03*
X0201524Y0045800D03*
X0211524Y0045800D03*
X0221524Y0045800D03*
X0231524Y0045800D03*
X0241524Y0045800D03*
D17*
X0028746Y0036204D02*
X0025677Y0036204D01*
X0024909Y0036971D01*
X0024909Y0038506D01*
X0025677Y0039273D01*
X0026444Y0040808D02*
X0024909Y0042343D01*
X0029513Y0042343D01*
X0029513Y0043877D02*
X0029513Y0040808D01*
X0028746Y0039273D02*
X0029513Y0038506D01*
X0029513Y0036971D01*
X0028746Y0036204D01*
X0033433Y0036637D02*
X0034200Y0035869D01*
X0037270Y0035869D01*
X0038037Y0036637D01*
X0038037Y0038171D01*
X0037270Y0038939D01*
X0038037Y0040473D02*
X0038037Y0043543D01*
X0038037Y0042008D02*
X0033433Y0042008D01*
X0034968Y0040473D01*
X0034200Y0038939D02*
X0033433Y0038171D01*
X0033433Y0036637D01*
X0034200Y0045077D02*
X0033433Y0045844D01*
X0033433Y0047379D01*
X0034200Y0048146D01*
X0034968Y0048146D01*
X0035735Y0047379D01*
X0036502Y0048146D01*
X0037270Y0048146D01*
X0038037Y0047379D01*
X0038037Y0045844D01*
X0037270Y0045077D01*
X0035735Y0046612D02*
X0035735Y0047379D01*
X0029513Y0047714D02*
X0024909Y0047714D01*
X0027211Y0045412D01*
X0027211Y0048481D01*
X0042204Y0056846D02*
X0042971Y0056079D01*
X0044506Y0056079D01*
X0045273Y0056846D01*
X0046808Y0056079D02*
X0049877Y0056079D01*
X0048343Y0056079D02*
X0048343Y0060683D01*
X0046808Y0059148D01*
X0045273Y0059915D02*
X0044506Y0060683D01*
X0042971Y0060683D01*
X0042204Y0059915D01*
X0042204Y0056846D01*
X0051412Y0056846D02*
X0051412Y0056079D01*
X0051412Y0056846D02*
X0054481Y0059915D01*
X0054481Y0060683D01*
X0051412Y0060683D01*
X0051844Y0069209D02*
X0051077Y0069976D01*
X0051077Y0071511D01*
X0053379Y0071511D01*
X0054146Y0070743D01*
X0054146Y0069976D01*
X0053379Y0069209D01*
X0051844Y0069209D01*
X0049543Y0069209D02*
X0046473Y0069209D01*
X0048008Y0069209D02*
X0048008Y0073813D01*
X0046473Y0072278D01*
X0044939Y0073045D02*
X0044171Y0073813D01*
X0042637Y0073813D01*
X0041869Y0073045D01*
X0041869Y0069976D01*
X0042637Y0069209D01*
X0044171Y0069209D01*
X0044939Y0069976D01*
X0051077Y0071511D02*
X0052612Y0073045D01*
X0054146Y0073813D01*
X0053885Y0082917D02*
X0056955Y0082917D01*
X0057722Y0083684D01*
X0057722Y0085219D01*
X0056955Y0085986D01*
X0057722Y0087520D02*
X0057722Y0090590D01*
X0057722Y0089055D02*
X0053118Y0089055D01*
X0054653Y0087520D01*
X0053885Y0085986D02*
X0053118Y0085219D01*
X0053118Y0083684D01*
X0053885Y0082917D01*
X0049219Y0087855D02*
X0049986Y0088622D01*
X0049986Y0090157D01*
X0049219Y0090924D01*
X0049219Y0092459D02*
X0049986Y0093226D01*
X0049986Y0094761D01*
X0049219Y0095528D01*
X0046149Y0095528D01*
X0045382Y0094761D01*
X0045382Y0093226D01*
X0046149Y0092459D01*
X0046917Y0092459D01*
X0047684Y0093226D01*
X0047684Y0095528D01*
X0046149Y0090924D02*
X0045382Y0090157D01*
X0045382Y0088622D01*
X0046149Y0087855D01*
X0049219Y0087855D01*
X0053885Y0092124D02*
X0053118Y0092892D01*
X0053118Y0094426D01*
X0053885Y0095194D01*
X0056955Y0092124D01*
X0057722Y0092892D01*
X0057722Y0094426D01*
X0056955Y0095194D01*
X0053885Y0095194D01*
X0053885Y0092124D02*
X0056955Y0092124D01*
X0046955Y0112988D02*
X0043885Y0112988D01*
X0043118Y0113755D01*
X0043118Y0115290D01*
X0043885Y0116057D01*
X0045420Y0117592D02*
X0045420Y0119894D01*
X0046187Y0120661D01*
X0046955Y0120661D01*
X0047722Y0119894D01*
X0047722Y0118359D01*
X0046955Y0117592D01*
X0045420Y0117592D01*
X0043885Y0119127D01*
X0043118Y0120661D01*
X0046955Y0116057D02*
X0047722Y0115290D01*
X0047722Y0113755D01*
X0046955Y0112988D01*
X0034986Y0113421D02*
X0034986Y0114955D01*
X0034219Y0115723D01*
X0034219Y0117257D02*
X0034986Y0118025D01*
X0034986Y0119559D01*
X0034219Y0120327D01*
X0032684Y0120327D01*
X0031917Y0119559D01*
X0031917Y0118792D01*
X0032684Y0117257D01*
X0030382Y0117257D01*
X0030382Y0120327D01*
X0031149Y0115723D02*
X0030382Y0114955D01*
X0030382Y0113421D01*
X0031149Y0112654D01*
X0034219Y0112654D01*
X0034986Y0113421D01*
X0050091Y0129209D02*
X0050091Y0133813D01*
X0052393Y0133813D01*
X0053160Y0133045D01*
X0053160Y0131511D01*
X0052393Y0130743D01*
X0050091Y0130743D01*
X0051625Y0130743D02*
X0053160Y0129209D01*
X0054694Y0129209D02*
X0057764Y0129209D01*
X0056229Y0129209D02*
X0056229Y0133813D01*
X0054694Y0132278D01*
X0054694Y0139248D02*
X0057764Y0142317D01*
X0057764Y0143085D01*
X0056996Y0143852D01*
X0055462Y0143852D01*
X0054694Y0143085D01*
X0053160Y0143085D02*
X0053160Y0141550D01*
X0052393Y0140783D01*
X0050091Y0140783D01*
X0051625Y0140783D02*
X0053160Y0139248D01*
X0054694Y0139248D02*
X0057764Y0139248D01*
X0053160Y0143085D02*
X0052393Y0143852D01*
X0050091Y0143852D01*
X0050091Y0139248D01*
X0063934Y0142082D02*
X0064701Y0141315D01*
X0066236Y0141315D01*
X0067003Y0142082D01*
X0068538Y0142082D02*
X0069305Y0141315D01*
X0070840Y0141315D01*
X0071607Y0142082D01*
X0071607Y0142850D01*
X0070840Y0143617D01*
X0070072Y0143617D01*
X0070840Y0143617D02*
X0071607Y0144384D01*
X0071607Y0145152D01*
X0070840Y0145919D01*
X0069305Y0145919D01*
X0068538Y0145152D01*
X0067003Y0145152D02*
X0066236Y0145919D01*
X0064701Y0145919D01*
X0063934Y0145152D01*
X0063934Y0142082D01*
X0076150Y0137754D02*
X0080754Y0137754D01*
X0080754Y0139288D02*
X0080754Y0136219D01*
X0079986Y0134684D02*
X0080754Y0133917D01*
X0080754Y0132382D01*
X0079986Y0131615D01*
X0076917Y0131615D01*
X0076150Y0132382D01*
X0076150Y0133917D01*
X0076917Y0134684D01*
X0077684Y0136219D02*
X0076150Y0137754D01*
X0103634Y0142968D02*
X0104401Y0142201D01*
X0105936Y0142201D01*
X0106703Y0142968D01*
X0108238Y0142201D02*
X0111307Y0145270D01*
X0111307Y0146037D01*
X0110540Y0146805D01*
X0109005Y0146805D01*
X0108238Y0146037D01*
X0106703Y0146037D02*
X0105936Y0146805D01*
X0104401Y0146805D01*
X0103634Y0146037D01*
X0103634Y0142968D01*
X0108238Y0142201D02*
X0111307Y0142201D01*
X0110205Y0155134D02*
X0110205Y0159738D01*
X0107903Y0157436D01*
X0110972Y0157436D01*
X0106368Y0158970D02*
X0105601Y0159738D01*
X0104067Y0159738D01*
X0103299Y0158970D01*
X0103299Y0155901D01*
X0104067Y0155134D01*
X0105601Y0155134D01*
X0106368Y0155901D01*
X0115736Y0105187D02*
X0114969Y0104419D01*
X0114969Y0102885D01*
X0115736Y0102117D01*
X0115736Y0105187D02*
X0116503Y0105187D01*
X0119572Y0102117D01*
X0119572Y0105187D01*
X0119572Y0100583D02*
X0119572Y0097513D01*
X0119572Y0099048D02*
X0114969Y0099048D01*
X0116503Y0097513D01*
X0115736Y0095979D02*
X0114969Y0095211D01*
X0114969Y0093677D01*
X0115736Y0092909D01*
X0118805Y0092909D01*
X0119572Y0093677D01*
X0119572Y0095211D01*
X0118805Y0095979D01*
X0125539Y0082792D02*
X0126306Y0082792D01*
X0127074Y0082025D01*
X0127074Y0080490D01*
X0126306Y0079723D01*
X0125539Y0079723D01*
X0124772Y0080490D01*
X0124772Y0082025D01*
X0125539Y0082792D01*
X0127074Y0082025D02*
X0127841Y0082792D01*
X0128608Y0082792D01*
X0129376Y0082025D01*
X0129376Y0080490D01*
X0128608Y0079723D01*
X0127841Y0079723D01*
X0127074Y0080490D01*
X0128608Y0078188D02*
X0129376Y0077421D01*
X0129376Y0075886D01*
X0128608Y0075119D01*
X0125539Y0075119D01*
X0124772Y0075886D01*
X0124772Y0077421D01*
X0125539Y0078188D01*
X0137748Y0088381D02*
X0137748Y0091451D01*
X0138515Y0092218D01*
X0140050Y0092218D01*
X0140817Y0091451D01*
X0142352Y0092218D02*
X0145421Y0092218D01*
X0145421Y0091451D01*
X0142352Y0088381D01*
X0142352Y0087614D01*
X0140817Y0088381D02*
X0140050Y0087614D01*
X0138515Y0087614D01*
X0137748Y0088381D01*
X0138515Y0099622D02*
X0140050Y0099622D01*
X0140817Y0100389D01*
X0142352Y0099622D02*
X0145421Y0099622D01*
X0143887Y0099622D02*
X0143887Y0104226D01*
X0142352Y0102691D01*
X0140817Y0103459D02*
X0140050Y0104226D01*
X0138515Y0104226D01*
X0137748Y0103459D01*
X0137748Y0100389D01*
X0138515Y0099622D01*
X0146956Y0099622D02*
X0150025Y0099622D01*
X0148491Y0099622D02*
X0148491Y0104226D01*
X0146956Y0102691D01*
X0080754Y0044820D02*
X0080754Y0043285D01*
X0079986Y0042518D01*
X0078452Y0042518D02*
X0077684Y0044053D01*
X0077684Y0044820D01*
X0078452Y0045587D01*
X0079986Y0045587D01*
X0080754Y0044820D01*
X0078452Y0042518D02*
X0076150Y0042518D01*
X0076150Y0045587D01*
X0076150Y0039449D02*
X0080754Y0039449D01*
X0080754Y0040983D02*
X0080754Y0037914D01*
X0079986Y0036380D02*
X0080754Y0035612D01*
X0080754Y0034078D01*
X0079986Y0033310D01*
X0076917Y0033310D01*
X0076150Y0034078D01*
X0076150Y0035612D01*
X0076917Y0036380D01*
X0077684Y0037914D02*
X0076150Y0039449D01*
M02*
