G75*
%MOIN*%
%OFA0B0*%
%FSLAX25Y25*%
%IPPOS*%
%LPD*%
%AMOC8*
5,1,8,0,0,1.08239X$1,22.5*
%
%ADD10R,0.05800X0.01700*%
%ADD11R,0.01700X0.05800*%
%ADD12OC8,0.06000*%
%ADD13R,0.03937X0.04331*%
%ADD14R,0.04331X0.03937*%
%ADD15R,0.06299X0.07087*%
%ADD16R,0.07087X0.06299*%
%ADD17OC8,0.05600*%
%ADD18R,0.06300X0.04600*%
%ADD19R,0.08600X0.02200*%
%ADD20C,0.05600*%
%ADD21C,0.01600*%
%ADD22C,0.04356*%
%ADD23C,0.01000*%
%ADD24C,0.01200*%
D10*
X0066708Y0086745D03*
X0066708Y0089304D03*
X0066708Y0091863D03*
X0066708Y0094422D03*
X0066708Y0096981D03*
X0066708Y0099540D03*
X0066708Y0102099D03*
X0066708Y0104658D03*
X0066708Y0107217D03*
X0066708Y0109776D03*
X0066708Y0112335D03*
X0066708Y0114894D03*
X0066708Y0117454D03*
X0110908Y0117454D03*
X0110908Y0114894D03*
X0110908Y0112335D03*
X0110908Y0109776D03*
X0110908Y0107217D03*
X0110908Y0104658D03*
X0110908Y0102099D03*
X0110908Y0099540D03*
X0110908Y0096981D03*
X0110908Y0094422D03*
X0110908Y0091863D03*
X0110908Y0089304D03*
X0110908Y0086745D03*
D11*
X0104162Y0079999D03*
X0101603Y0079999D03*
X0099044Y0079999D03*
X0096485Y0079999D03*
X0093926Y0079999D03*
X0091367Y0079999D03*
X0088808Y0079999D03*
X0086249Y0079999D03*
X0083690Y0079999D03*
X0081131Y0079999D03*
X0078572Y0079999D03*
X0076013Y0079999D03*
X0073454Y0079999D03*
X0073454Y0124199D03*
X0076013Y0124199D03*
X0078572Y0124199D03*
X0081131Y0124199D03*
X0083690Y0124199D03*
X0086249Y0124199D03*
X0088808Y0124199D03*
X0091367Y0124199D03*
X0093926Y0124199D03*
X0096485Y0124199D03*
X0099044Y0124199D03*
X0101603Y0124199D03*
X0104162Y0124199D03*
D12*
X0104517Y0050800D03*
X0114517Y0050800D03*
X0124517Y0050800D03*
X0134517Y0050800D03*
X0144517Y0050800D03*
X0154517Y0050800D03*
X0154517Y0040800D03*
X0144517Y0040800D03*
X0134517Y0040800D03*
X0124517Y0040800D03*
X0114517Y0040800D03*
X0104517Y0040800D03*
X0094517Y0040800D03*
X0084517Y0040800D03*
X0084517Y0050800D03*
X0094517Y0050800D03*
X0171524Y0050800D03*
X0181524Y0050800D03*
X0191524Y0050800D03*
X0201524Y0050800D03*
X0211524Y0050800D03*
X0221524Y0050800D03*
X0231524Y0050800D03*
X0241524Y0050800D03*
X0241524Y0040800D03*
X0231524Y0040800D03*
X0221524Y0040800D03*
X0211524Y0040800D03*
X0201524Y0040800D03*
X0191524Y0040800D03*
X0181524Y0040800D03*
X0171524Y0040800D03*
D13*
X0122076Y0078280D03*
X0122076Y0084973D03*
X0122272Y0091863D03*
X0122272Y0098556D03*
X0073454Y0134776D03*
X0073454Y0141469D03*
X0055737Y0136548D03*
X0049044Y0136548D03*
X0049044Y0126509D03*
X0055737Y0126509D03*
X0050422Y0118635D03*
X0050422Y0111942D03*
X0050422Y0097375D03*
X0050422Y0090682D03*
X0030737Y0050328D03*
X0030737Y0043635D03*
X0073454Y0041076D03*
X0073454Y0047769D03*
D14*
X0056328Y0076509D03*
X0049635Y0076509D03*
X0102587Y0139501D03*
X0109280Y0139501D03*
D15*
X0113611Y0149934D03*
X0102587Y0149934D03*
X0073454Y0151115D03*
X0062430Y0151115D03*
X0137036Y0094422D03*
X0148060Y0094422D03*
X0148060Y0082414D03*
X0137036Y0082414D03*
X0056328Y0065879D03*
X0045304Y0065879D03*
D16*
X0040186Y0086351D03*
X0040186Y0097375D03*
X0040186Y0111942D03*
X0040186Y0122965D03*
X0019713Y0050328D03*
X0019713Y0039304D03*
D17*
X0017272Y0061981D03*
X0017272Y0071981D03*
X0017272Y0081981D03*
X0027272Y0081981D03*
X0027272Y0071981D03*
X0027272Y0061981D03*
X0027272Y0091981D03*
X0017272Y0091981D03*
X0017272Y0101981D03*
X0017272Y0111981D03*
X0027272Y0111981D03*
X0027272Y0101981D03*
X0027272Y0121981D03*
X0017272Y0121981D03*
X0017272Y0131981D03*
X0027272Y0131981D03*
X0031957Y0186666D03*
X0031957Y0196666D03*
X0021957Y0196666D03*
X0041957Y0196666D03*
X0041957Y0186666D03*
X0051957Y0186666D03*
X0051957Y0196666D03*
X0061957Y0196666D03*
X0061957Y0186666D03*
X0071957Y0186666D03*
X0081957Y0186666D03*
X0081957Y0196666D03*
X0071957Y0196666D03*
X0091957Y0196666D03*
X0091957Y0186666D03*
X0101957Y0186666D03*
X0101957Y0196666D03*
X0111957Y0196666D03*
X0111957Y0186666D03*
X0121957Y0186666D03*
X0121957Y0196666D03*
X0131957Y0196666D03*
X0131957Y0186666D03*
X0141957Y0186666D03*
X0141957Y0196666D03*
X0151957Y0196666D03*
X0151957Y0186666D03*
X0161957Y0186666D03*
X0171957Y0186666D03*
X0171957Y0196666D03*
X0161957Y0196666D03*
X0181957Y0196666D03*
X0181957Y0186666D03*
X0191957Y0186666D03*
X0191957Y0196666D03*
X0201957Y0196666D03*
X0201957Y0186666D03*
X0211957Y0186666D03*
X0211957Y0196666D03*
D18*
X0184083Y0169076D03*
X0184083Y0163076D03*
X0168335Y0163076D03*
X0168335Y0169076D03*
X0153375Y0169076D03*
X0153375Y0163076D03*
X0136839Y0163076D03*
X0136839Y0169076D03*
X0068335Y0169076D03*
X0068335Y0163076D03*
X0052981Y0163076D03*
X0052981Y0169076D03*
X0037627Y0169076D03*
X0037627Y0163076D03*
X0022272Y0163076D03*
X0022272Y0169076D03*
D19*
X0043681Y0055269D03*
X0043681Y0050269D03*
X0043681Y0045269D03*
X0043681Y0040269D03*
X0062281Y0040269D03*
X0062281Y0045269D03*
X0062281Y0050269D03*
X0062281Y0055269D03*
D20*
X0021957Y0186666D03*
D21*
X0009351Y0219547D02*
X0009164Y0032687D01*
X0247787Y0032687D01*
X0247787Y0219736D01*
X0009351Y0219547D01*
X0009350Y0218109D02*
X0247787Y0218109D01*
X0247787Y0216511D02*
X0009348Y0216511D01*
X0009346Y0214912D02*
X0247787Y0214912D01*
X0247787Y0213314D02*
X0009345Y0213314D01*
X0009343Y0211715D02*
X0247787Y0211715D01*
X0247787Y0210117D02*
X0009342Y0210117D01*
X0009340Y0208518D02*
X0247787Y0208518D01*
X0247787Y0206920D02*
X0009338Y0206920D01*
X0009337Y0205321D02*
X0247787Y0205321D01*
X0247787Y0203723D02*
X0009335Y0203723D01*
X0009334Y0202124D02*
X0247787Y0202124D01*
X0247787Y0200526D02*
X0214320Y0200526D01*
X0213780Y0201066D02*
X0210135Y0201066D01*
X0207557Y0198489D01*
X0207557Y0194844D01*
X0210135Y0192266D01*
X0213780Y0192266D01*
X0216357Y0194844D01*
X0216357Y0198489D01*
X0213780Y0201066D01*
X0215919Y0198927D02*
X0247787Y0198927D01*
X0247787Y0197329D02*
X0216357Y0197329D01*
X0216357Y0195730D02*
X0247787Y0195730D01*
X0247787Y0194132D02*
X0215646Y0194132D01*
X0214047Y0192533D02*
X0247787Y0192533D01*
X0247787Y0190935D02*
X0214194Y0190935D01*
X0213863Y0191266D02*
X0212057Y0191266D01*
X0212057Y0186766D01*
X0211857Y0186766D01*
X0211857Y0186566D01*
X0207357Y0186566D01*
X0207357Y0184761D01*
X0210052Y0182066D01*
X0211857Y0182066D01*
X0211857Y0186566D01*
X0212057Y0186566D01*
X0212057Y0182066D01*
X0213863Y0182066D01*
X0216557Y0184761D01*
X0216557Y0186566D01*
X0212058Y0186566D01*
X0212058Y0186766D01*
X0216557Y0186766D01*
X0216557Y0188572D01*
X0213863Y0191266D01*
X0212057Y0190935D02*
X0211857Y0190935D01*
X0211857Y0191266D02*
X0210052Y0191266D01*
X0207357Y0188572D01*
X0207357Y0186766D01*
X0211857Y0186766D01*
X0211857Y0191266D01*
X0211857Y0189336D02*
X0212057Y0189336D01*
X0212057Y0187738D02*
X0211857Y0187738D01*
X0211857Y0186139D02*
X0212057Y0186139D01*
X0212057Y0184541D02*
X0211857Y0184541D01*
X0211857Y0182942D02*
X0212057Y0182942D01*
X0214739Y0182942D02*
X0247787Y0182942D01*
X0247787Y0181344D02*
X0189436Y0181344D01*
X0190135Y0182266D02*
X0193780Y0182266D01*
X0196357Y0184844D01*
X0196357Y0188489D01*
X0193780Y0191066D01*
X0191799Y0191066D01*
X0192999Y0192266D01*
X0193780Y0192266D01*
X0196357Y0194844D01*
X0196357Y0198489D01*
X0193780Y0201066D01*
X0190135Y0201066D01*
X0187557Y0198489D01*
X0187557Y0194844D01*
X0188173Y0194228D01*
X0185677Y0191732D01*
X0185002Y0191057D01*
X0184646Y0190200D01*
X0183780Y0191066D01*
X0180135Y0191066D01*
X0177557Y0188489D01*
X0177557Y0184844D01*
X0180135Y0182266D01*
X0183780Y0182266D01*
X0184636Y0183122D01*
X0184636Y0180259D01*
X0182724Y0178346D01*
X0182049Y0177671D01*
X0181683Y0176789D01*
X0181683Y0172976D01*
X0180271Y0172976D01*
X0179333Y0172038D01*
X0179333Y0166113D01*
X0179371Y0166076D01*
X0179333Y0166038D01*
X0179333Y0165476D01*
X0173085Y0165476D01*
X0173085Y0166038D01*
X0173048Y0166076D01*
X0173085Y0166113D01*
X0173085Y0172038D01*
X0172148Y0172976D01*
X0170735Y0172976D01*
X0170735Y0177970D01*
X0170370Y0178852D01*
X0169357Y0179865D01*
X0169357Y0183044D01*
X0170135Y0182266D01*
X0173780Y0182266D01*
X0176357Y0184844D01*
X0176357Y0188489D01*
X0173780Y0191066D01*
X0171917Y0191066D01*
X0173117Y0192266D01*
X0173780Y0192266D01*
X0176357Y0194844D01*
X0176357Y0198489D01*
X0173780Y0201066D01*
X0170135Y0201066D01*
X0167557Y0198489D01*
X0167557Y0194844D01*
X0168232Y0194169D01*
X0165598Y0191535D01*
X0164923Y0190860D01*
X0164648Y0190198D01*
X0163780Y0191066D01*
X0160135Y0191066D01*
X0157557Y0188489D01*
X0157557Y0184844D01*
X0160135Y0182266D01*
X0163780Y0182266D01*
X0164557Y0183044D01*
X0164557Y0178393D01*
X0164923Y0177511D01*
X0165935Y0176499D01*
X0165935Y0172976D01*
X0164523Y0172976D01*
X0163585Y0172038D01*
X0163585Y0166113D01*
X0163623Y0166076D01*
X0163585Y0166038D01*
X0163585Y0165476D01*
X0158125Y0165476D01*
X0158125Y0166038D01*
X0158088Y0166076D01*
X0158125Y0166113D01*
X0158125Y0172038D01*
X0157188Y0172976D01*
X0155775Y0172976D01*
X0155775Y0173049D01*
X0155409Y0173931D01*
X0149279Y0180062D01*
X0149279Y0183122D01*
X0150135Y0182266D01*
X0153780Y0182266D01*
X0156357Y0184844D01*
X0156357Y0188489D01*
X0153780Y0191066D01*
X0150135Y0191066D01*
X0149038Y0189969D01*
X0148913Y0190270D01*
X0145348Y0193835D01*
X0146357Y0194844D01*
X0146357Y0198489D01*
X0143780Y0201066D01*
X0140135Y0201066D01*
X0137557Y0198489D01*
X0137557Y0194844D01*
X0139918Y0192483D01*
X0139923Y0192472D01*
X0141129Y0191266D01*
X0140052Y0191266D01*
X0138985Y0190199D01*
X0138874Y0190467D01*
X0138199Y0191142D01*
X0135427Y0193913D01*
X0136357Y0194844D01*
X0136357Y0198489D01*
X0133780Y0201066D01*
X0130135Y0201066D01*
X0127557Y0198489D01*
X0127557Y0194844D01*
X0130135Y0192266D01*
X0130286Y0192266D01*
X0131486Y0191066D01*
X0130135Y0191066D01*
X0129170Y0190101D01*
X0129031Y0190434D01*
X0126440Y0193026D01*
X0125765Y0193701D01*
X0125376Y0193862D01*
X0126357Y0194844D01*
X0126357Y0198489D01*
X0123780Y0201066D01*
X0120135Y0201066D01*
X0117557Y0198489D01*
X0117557Y0194844D01*
X0118335Y0194066D01*
X0116244Y0194066D01*
X0115593Y0193797D01*
X0116557Y0194761D01*
X0116557Y0196566D01*
X0112058Y0196566D01*
X0112058Y0196766D01*
X0116557Y0196766D01*
X0116557Y0198572D01*
X0113863Y0201266D01*
X0112057Y0201266D01*
X0112057Y0196766D01*
X0111857Y0196766D01*
X0111857Y0196566D01*
X0107357Y0196566D01*
X0107357Y0194761D01*
X0110052Y0192066D01*
X0111857Y0192066D01*
X0111857Y0196566D01*
X0112057Y0196566D01*
X0112057Y0192066D01*
X0113727Y0192066D01*
X0112727Y0191066D01*
X0110135Y0191066D01*
X0107557Y0188489D01*
X0107557Y0184844D01*
X0110135Y0182266D01*
X0113780Y0182266D01*
X0116357Y0184844D01*
X0116357Y0187908D01*
X0117715Y0189266D01*
X0118335Y0189266D01*
X0117557Y0188489D01*
X0117557Y0184844D01*
X0119557Y0182844D01*
X0119557Y0181912D01*
X0106121Y0168476D01*
X0092705Y0168476D01*
X0091823Y0168110D01*
X0079771Y0156059D01*
X0079096Y0155384D01*
X0078731Y0154502D01*
X0078731Y0143130D01*
X0078356Y0143504D01*
X0077474Y0143869D01*
X0077022Y0143869D01*
X0077022Y0144297D01*
X0076085Y0145235D01*
X0075854Y0145235D01*
X0075854Y0145972D01*
X0077266Y0145972D01*
X0078203Y0146909D01*
X0078203Y0155321D01*
X0077266Y0156258D01*
X0069641Y0156258D01*
X0068704Y0155321D01*
X0068704Y0146909D01*
X0069641Y0145972D01*
X0071054Y0145972D01*
X0071054Y0145235D01*
X0070822Y0145235D01*
X0069885Y0144297D01*
X0069885Y0143869D01*
X0049748Y0143869D01*
X0048866Y0143504D01*
X0047685Y0142323D01*
X0047009Y0141648D01*
X0046644Y0140766D01*
X0046644Y0140313D01*
X0046413Y0140313D01*
X0045476Y0139376D01*
X0045476Y0134381D01*
X0031095Y0134381D01*
X0029095Y0136381D01*
X0025450Y0136381D01*
X0022872Y0133804D01*
X0022872Y0130159D01*
X0025450Y0127581D01*
X0029095Y0127581D01*
X0031095Y0129581D01*
X0045720Y0129581D01*
X0045476Y0129337D01*
X0045476Y0126552D01*
X0045406Y0126810D01*
X0045169Y0127220D01*
X0044834Y0127555D01*
X0044424Y0127792D01*
X0043966Y0127915D01*
X0040961Y0127915D01*
X0040961Y0123740D01*
X0045476Y0123740D01*
X0045476Y0123681D01*
X0046413Y0122743D01*
X0051675Y0122743D01*
X0052391Y0123459D01*
X0053106Y0122743D01*
X0053337Y0122743D01*
X0053337Y0122332D01*
X0053085Y0122477D01*
X0052628Y0122600D01*
X0050606Y0122600D01*
X0050606Y0118819D01*
X0050238Y0118819D01*
X0050238Y0122600D01*
X0048217Y0122600D01*
X0047759Y0122477D01*
X0047348Y0122240D01*
X0047013Y0121905D01*
X0046776Y0121495D01*
X0046654Y0121037D01*
X0046654Y0118819D01*
X0050238Y0118819D01*
X0050238Y0118450D01*
X0046654Y0118450D01*
X0046654Y0116232D01*
X0046776Y0115775D01*
X0047013Y0115364D01*
X0047230Y0115147D01*
X0046854Y0114770D01*
X0046854Y0114342D01*
X0045329Y0114342D01*
X0045329Y0115754D01*
X0044392Y0116691D01*
X0035980Y0116691D01*
X0035043Y0115754D01*
X0035043Y0114342D01*
X0031134Y0114342D01*
X0029095Y0116381D01*
X0025450Y0116381D01*
X0022872Y0113804D01*
X0022872Y0110159D01*
X0025450Y0107581D01*
X0029095Y0107581D01*
X0031056Y0109542D01*
X0035043Y0109542D01*
X0035043Y0108129D01*
X0035980Y0107192D01*
X0044392Y0107192D01*
X0045329Y0108129D01*
X0045329Y0109542D01*
X0046854Y0109542D01*
X0046854Y0109114D01*
X0047791Y0108176D01*
X0048022Y0108176D01*
X0048022Y0106740D01*
X0048387Y0105858D01*
X0049063Y0105183D01*
X0058258Y0095987D01*
X0058258Y0095098D01*
X0055016Y0098341D01*
X0054341Y0099016D01*
X0053991Y0099161D01*
X0053991Y0100203D01*
X0053053Y0101140D01*
X0047791Y0101140D01*
X0046854Y0100203D01*
X0046854Y0099775D01*
X0045329Y0099775D01*
X0045329Y0101187D01*
X0044392Y0102124D01*
X0035980Y0102124D01*
X0035043Y0101187D01*
X0035043Y0099775D01*
X0032189Y0099775D01*
X0031307Y0099409D01*
X0028278Y0096381D01*
X0025450Y0096381D01*
X0022872Y0093804D01*
X0022872Y0090159D01*
X0025450Y0087581D01*
X0029095Y0087581D01*
X0031672Y0090159D01*
X0031672Y0092987D01*
X0033660Y0094975D01*
X0035043Y0094975D01*
X0035043Y0093562D01*
X0035980Y0092625D01*
X0044392Y0092625D01*
X0045329Y0093562D01*
X0045329Y0094975D01*
X0046854Y0094975D01*
X0046854Y0094547D01*
X0047230Y0094170D01*
X0047013Y0093952D01*
X0046776Y0093542D01*
X0046654Y0093084D01*
X0046654Y0090866D01*
X0050238Y0090866D01*
X0050238Y0090498D01*
X0046654Y0090498D01*
X0046654Y0088280D01*
X0046776Y0087822D01*
X0047013Y0087411D01*
X0047348Y0087076D01*
X0047759Y0086839D01*
X0048217Y0086717D01*
X0050238Y0086717D01*
X0050238Y0090498D01*
X0050606Y0090498D01*
X0050606Y0090866D01*
X0054191Y0090866D01*
X0054191Y0092378D01*
X0058347Y0088221D01*
X0054968Y0084842D01*
X0054293Y0084167D01*
X0053928Y0083285D01*
X0053928Y0080077D01*
X0053499Y0080077D01*
X0053123Y0079700D01*
X0052905Y0079918D01*
X0052495Y0080154D01*
X0052037Y0080277D01*
X0049819Y0080277D01*
X0049819Y0076693D01*
X0049450Y0076693D01*
X0049450Y0076324D01*
X0049819Y0076324D01*
X0049819Y0072740D01*
X0052037Y0072740D01*
X0052495Y0072863D01*
X0052905Y0073100D01*
X0053123Y0073317D01*
X0053499Y0072940D01*
X0053928Y0072940D01*
X0053928Y0071022D01*
X0052515Y0071022D01*
X0051578Y0070085D01*
X0051578Y0061673D01*
X0052515Y0060735D01*
X0060140Y0060735D01*
X0060978Y0061574D01*
X0064584Y0057968D01*
X0057318Y0057968D01*
X0056381Y0057031D01*
X0056381Y0053506D01*
X0057118Y0052768D01*
X0056381Y0052031D01*
X0056381Y0048506D01*
X0057118Y0047768D01*
X0056381Y0047031D01*
X0056381Y0043506D01*
X0057118Y0042768D01*
X0056381Y0042031D01*
X0056381Y0038506D01*
X0057318Y0037569D01*
X0067244Y0037569D01*
X0068181Y0038506D01*
X0068181Y0042031D01*
X0067444Y0042768D01*
X0067544Y0042869D01*
X0068872Y0042869D01*
X0069685Y0043205D01*
X0069685Y0041260D01*
X0073269Y0041260D01*
X0073269Y0040891D01*
X0073638Y0040891D01*
X0073638Y0037110D01*
X0075659Y0037110D01*
X0076117Y0037233D01*
X0076527Y0037470D01*
X0076862Y0037805D01*
X0077099Y0038215D01*
X0077222Y0038673D01*
X0077222Y0040891D01*
X0073638Y0040891D01*
X0073638Y0041260D01*
X0077222Y0041260D01*
X0077222Y0043478D01*
X0077099Y0043936D01*
X0076862Y0044346D01*
X0076645Y0044563D01*
X0077022Y0044940D01*
X0077022Y0050597D01*
X0076085Y0051534D01*
X0075854Y0051534D01*
X0075854Y0052970D01*
X0075488Y0053852D01*
X0062102Y0067238D01*
X0061427Y0067913D01*
X0061077Y0068058D01*
X0061077Y0070085D01*
X0060140Y0071022D01*
X0058728Y0071022D01*
X0058728Y0072940D01*
X0059156Y0072940D01*
X0060093Y0073877D01*
X0060093Y0079140D01*
X0059156Y0080077D01*
X0058728Y0080077D01*
X0058728Y0081814D01*
X0061259Y0084345D01*
X0063095Y0084345D01*
X0063145Y0084295D01*
X0070271Y0084295D01*
X0070321Y0084345D01*
X0071372Y0084345D01*
X0072254Y0084710D01*
X0082125Y0094581D01*
X0106408Y0094581D01*
X0106408Y0085232D01*
X0107345Y0084295D01*
X0114471Y0084295D01*
X0115408Y0085232D01*
X0115408Y0085491D01*
X0117285Y0083614D01*
X0117960Y0082939D01*
X0118507Y0082712D01*
X0118507Y0082145D01*
X0118884Y0081768D01*
X0118667Y0081551D01*
X0118430Y0081140D01*
X0118307Y0080683D01*
X0118307Y0078465D01*
X0121891Y0078465D01*
X0121891Y0078096D01*
X0118307Y0078096D01*
X0118307Y0075878D01*
X0118430Y0075420D01*
X0118667Y0075010D01*
X0119002Y0074675D01*
X0119412Y0074438D01*
X0119870Y0074315D01*
X0121891Y0074315D01*
X0121891Y0078096D01*
X0122260Y0078096D01*
X0122260Y0078465D01*
X0125844Y0078465D01*
X0125844Y0080683D01*
X0125721Y0081140D01*
X0125484Y0081551D01*
X0125267Y0081768D01*
X0125644Y0082145D01*
X0125644Y0082573D01*
X0126810Y0082573D01*
X0127613Y0081770D01*
X0129001Y0081195D01*
X0130137Y0081195D01*
X0130277Y0081055D01*
X0130277Y0081055D01*
X0130952Y0080380D01*
X0131834Y0080014D01*
X0132287Y0080014D01*
X0132287Y0078208D01*
X0133224Y0077271D01*
X0140849Y0077271D01*
X0141786Y0078208D01*
X0141786Y0086620D01*
X0140849Y0087557D01*
X0133224Y0087557D01*
X0132868Y0087201D01*
X0131893Y0088176D01*
X0131308Y0088418D01*
X0131893Y0088660D01*
X0132868Y0089635D01*
X0133224Y0089279D01*
X0140849Y0089279D01*
X0141786Y0090216D01*
X0141786Y0098628D01*
X0140849Y0099565D01*
X0133224Y0099565D01*
X0132287Y0098628D01*
X0132287Y0096822D01*
X0131834Y0096822D01*
X0130952Y0096457D01*
X0130137Y0095641D01*
X0129001Y0095641D01*
X0127613Y0095066D01*
X0126810Y0094263D01*
X0125841Y0094263D01*
X0125841Y0094691D01*
X0125464Y0095068D01*
X0125681Y0095285D01*
X0125918Y0095696D01*
X0126041Y0096154D01*
X0126041Y0098372D01*
X0122457Y0098372D01*
X0122457Y0098740D01*
X0126041Y0098740D01*
X0126041Y0100958D01*
X0125918Y0101416D01*
X0125681Y0101826D01*
X0125346Y0102162D01*
X0125179Y0102258D01*
X0166447Y0102258D01*
X0169124Y0099581D01*
X0169124Y0054905D01*
X0166924Y0052705D01*
X0166924Y0048895D01*
X0169619Y0046200D01*
X0173430Y0046200D01*
X0176124Y0048895D01*
X0176124Y0052705D01*
X0173924Y0054905D01*
X0173924Y0098181D01*
X0179124Y0092981D01*
X0179124Y0054905D01*
X0176924Y0052705D01*
X0176924Y0048895D01*
X0179619Y0046200D01*
X0183430Y0046200D01*
X0186124Y0048895D01*
X0186124Y0052705D01*
X0183924Y0054905D01*
X0183924Y0091713D01*
X0189124Y0086513D01*
X0189124Y0054905D01*
X0186924Y0052705D01*
X0186924Y0048895D01*
X0189619Y0046200D01*
X0193430Y0046200D01*
X0196124Y0048895D01*
X0196124Y0052705D01*
X0193924Y0054905D01*
X0193924Y0085111D01*
X0199124Y0079911D01*
X0199124Y0054905D01*
X0196924Y0052705D01*
X0196924Y0048895D01*
X0199619Y0046200D01*
X0203430Y0046200D01*
X0206124Y0048895D01*
X0206124Y0052705D01*
X0203924Y0054905D01*
X0203924Y0078572D01*
X0209124Y0073372D01*
X0209124Y0054905D01*
X0206924Y0052705D01*
X0206924Y0048895D01*
X0209619Y0046200D01*
X0213430Y0046200D01*
X0216124Y0048895D01*
X0216124Y0052705D01*
X0213924Y0054905D01*
X0213924Y0072103D01*
X0219085Y0066943D01*
X0219085Y0054866D01*
X0216924Y0052705D01*
X0216924Y0048895D01*
X0219619Y0046200D01*
X0223430Y0046200D01*
X0226124Y0048895D01*
X0226124Y0052705D01*
X0223885Y0054945D01*
X0223885Y0065546D01*
X0229124Y0060307D01*
X0229124Y0054905D01*
X0226924Y0052705D01*
X0226924Y0048895D01*
X0229619Y0046200D01*
X0233430Y0046200D01*
X0236124Y0048895D01*
X0236124Y0052705D01*
X0233924Y0054905D01*
X0233924Y0059116D01*
X0238630Y0054411D01*
X0236924Y0052705D01*
X0236924Y0048895D01*
X0239619Y0046200D01*
X0243430Y0046200D01*
X0246124Y0048895D01*
X0246124Y0052705D01*
X0243924Y0054905D01*
X0243924Y0055388D01*
X0243559Y0056270D01*
X0163102Y0136726D01*
X0162427Y0137402D01*
X0161545Y0137767D01*
X0113246Y0137767D01*
X0113246Y0139317D01*
X0109465Y0139317D01*
X0109465Y0139685D01*
X0113246Y0139685D01*
X0113246Y0141706D01*
X0113123Y0142164D01*
X0112886Y0142575D01*
X0112551Y0142910D01*
X0112140Y0143147D01*
X0111683Y0143269D01*
X0109465Y0143269D01*
X0109465Y0139685D01*
X0109096Y0139685D01*
X0109096Y0143269D01*
X0106878Y0143269D01*
X0106420Y0143147D01*
X0106010Y0142910D01*
X0105792Y0142692D01*
X0105415Y0143069D01*
X0104987Y0143069D01*
X0104987Y0144791D01*
X0106400Y0144791D01*
X0107337Y0145728D01*
X0107337Y0154140D01*
X0106400Y0155077D01*
X0098775Y0155077D01*
X0097838Y0154140D01*
X0097838Y0145728D01*
X0098775Y0144791D01*
X0100187Y0144791D01*
X0100187Y0143069D01*
X0099759Y0143069D01*
X0098822Y0142132D01*
X0098822Y0139326D01*
X0093767Y0134271D01*
X0093767Y0152286D01*
X0097479Y0155998D01*
X0123070Y0155998D01*
X0123873Y0155196D01*
X0125261Y0154620D01*
X0126764Y0154620D01*
X0128153Y0155196D01*
X0128955Y0155998D01*
X0131805Y0155998D01*
X0132687Y0156364D01*
X0133362Y0157039D01*
X0135499Y0159176D01*
X0140652Y0159176D01*
X0141589Y0160113D01*
X0141589Y0160676D01*
X0148625Y0160676D01*
X0148625Y0160113D01*
X0149562Y0159176D01*
X0157188Y0159176D01*
X0158125Y0160113D01*
X0158125Y0160676D01*
X0163585Y0160676D01*
X0163585Y0160113D01*
X0164523Y0159176D01*
X0172148Y0159176D01*
X0173085Y0160113D01*
X0173085Y0160676D01*
X0179333Y0160676D01*
X0179333Y0160113D01*
X0180271Y0159176D01*
X0187896Y0159176D01*
X0188833Y0160113D01*
X0188833Y0166038D01*
X0188796Y0166076D01*
X0188833Y0166113D01*
X0188833Y0172038D01*
X0187896Y0172976D01*
X0186483Y0172976D01*
X0186483Y0175318D01*
X0189071Y0177905D01*
X0189436Y0178787D01*
X0189436Y0182965D01*
X0190135Y0182266D01*
X0189459Y0182942D02*
X0189436Y0182942D01*
X0189436Y0179745D02*
X0247787Y0179745D01*
X0247787Y0178147D02*
X0189171Y0178147D01*
X0187714Y0176548D02*
X0247787Y0176548D01*
X0247787Y0174950D02*
X0186483Y0174950D01*
X0186483Y0173351D02*
X0247787Y0173351D01*
X0247787Y0171753D02*
X0188833Y0171753D01*
X0188833Y0170154D02*
X0247787Y0170154D01*
X0247787Y0168556D02*
X0188833Y0168556D01*
X0188833Y0166957D02*
X0247787Y0166957D01*
X0247787Y0165359D02*
X0188833Y0165359D01*
X0188833Y0163760D02*
X0247787Y0163760D01*
X0247787Y0162162D02*
X0188833Y0162162D01*
X0188833Y0160563D02*
X0247787Y0160563D01*
X0247787Y0158965D02*
X0135288Y0158965D01*
X0133689Y0157366D02*
X0247787Y0157366D01*
X0247787Y0155768D02*
X0128725Y0155768D01*
X0133362Y0157039D02*
X0133362Y0157039D01*
X0131328Y0158398D02*
X0126013Y0158398D01*
X0096485Y0158398D01*
X0091367Y0153280D01*
X0091367Y0124199D01*
X0093926Y0124199D02*
X0093926Y0127690D01*
X0096485Y0126994D02*
X0096485Y0126994D01*
X0096485Y0125396D02*
X0096485Y0125396D01*
X0096485Y0124199D02*
X0096485Y0128899D01*
X0096326Y0128899D01*
X0096326Y0130042D01*
X0102216Y0135932D01*
X0102346Y0135932D01*
X0097685Y0131271D01*
X0097009Y0130596D01*
X0096644Y0129713D01*
X0096644Y0128899D01*
X0096485Y0128899D01*
X0096485Y0124199D01*
X0096485Y0124199D01*
X0096485Y0119499D01*
X0096311Y0119499D01*
X0095961Y0118653D01*
X0095285Y0117978D01*
X0092726Y0115419D01*
X0091844Y0115054D01*
X0080653Y0115054D01*
X0079771Y0115419D01*
X0079096Y0116094D01*
X0076537Y0118653D01*
X0076187Y0119499D01*
X0076013Y0119499D01*
X0076013Y0120723D01*
X0076013Y0120723D01*
X0076013Y0119499D01*
X0074926Y0119499D01*
X0074733Y0119551D01*
X0074541Y0119499D01*
X0073454Y0119499D01*
X0073454Y0120723D01*
X0073453Y0120723D01*
X0073453Y0119499D01*
X0072367Y0119499D01*
X0071909Y0119622D01*
X0071498Y0119859D01*
X0071163Y0120194D01*
X0070926Y0120604D01*
X0070804Y0121062D01*
X0070804Y0124199D01*
X0073453Y0124199D01*
X0073453Y0124199D01*
X0070804Y0124199D01*
X0070804Y0127336D01*
X0070926Y0127794D01*
X0071163Y0128204D01*
X0071498Y0128540D01*
X0071909Y0128777D01*
X0072367Y0128899D01*
X0073453Y0128899D01*
X0073453Y0127675D01*
X0073454Y0127676D01*
X0073454Y0128899D01*
X0074541Y0128899D01*
X0074733Y0128848D01*
X0074926Y0128899D01*
X0076013Y0128899D01*
X0076013Y0127675D01*
X0076013Y0127676D01*
X0076013Y0128899D01*
X0076172Y0128899D01*
X0076172Y0130965D01*
X0076117Y0130934D01*
X0075659Y0130811D01*
X0073638Y0130811D01*
X0073638Y0134592D01*
X0073269Y0134592D01*
X0069685Y0134592D01*
X0069685Y0132374D01*
X0069808Y0131916D01*
X0070045Y0131506D01*
X0070380Y0131171D01*
X0070790Y0130934D01*
X0071248Y0130811D01*
X0073269Y0130811D01*
X0073269Y0134592D01*
X0073269Y0134961D01*
X0069685Y0134961D01*
X0069685Y0137179D01*
X0069808Y0137637D01*
X0070045Y0138047D01*
X0070262Y0138264D01*
X0069885Y0138641D01*
X0069885Y0139069D01*
X0059305Y0139069D01*
X0059305Y0136374D01*
X0061034Y0134646D01*
X0061709Y0133971D01*
X0062074Y0133088D01*
X0062074Y0117512D01*
X0062208Y0117378D01*
X0062208Y0118966D01*
X0063145Y0119904D01*
X0063573Y0119904D01*
X0063573Y0124747D01*
X0062770Y0125550D01*
X0062195Y0126938D01*
X0062195Y0128441D01*
X0062770Y0129830D01*
X0063833Y0130893D01*
X0065222Y0131468D01*
X0066725Y0131468D01*
X0068113Y0130893D01*
X0069176Y0129830D01*
X0069751Y0128441D01*
X0069751Y0126938D01*
X0069176Y0125550D01*
X0068373Y0124747D01*
X0068373Y0119904D01*
X0070271Y0119904D01*
X0071208Y0118966D01*
X0071208Y0111455D01*
X0071285Y0111321D01*
X0071408Y0110863D01*
X0071408Y0109776D01*
X0066708Y0109776D01*
X0066708Y0109776D01*
X0062008Y0109776D01*
X0062008Y0108689D01*
X0062131Y0108232D01*
X0062208Y0108098D01*
X0062208Y0098826D01*
X0052857Y0108176D01*
X0053053Y0108176D01*
X0053991Y0109114D01*
X0053991Y0114386D01*
X0057401Y0110976D01*
X0058076Y0110301D01*
X0058958Y0109935D01*
X0062008Y0109935D01*
X0062008Y0109776D01*
X0066708Y0109776D01*
X0066708Y0109776D01*
X0071408Y0109776D01*
X0071408Y0108689D01*
X0071285Y0108232D01*
X0071208Y0108098D01*
X0071208Y0090452D01*
X0079771Y0099016D01*
X0080653Y0099381D01*
X0106408Y0099381D01*
X0106408Y0113216D01*
X0106331Y0113350D01*
X0106208Y0113808D01*
X0106208Y0114894D01*
X0110908Y0114894D01*
X0110908Y0114895D01*
X0115608Y0114895D01*
X0115608Y0115054D01*
X0167443Y0115054D01*
X0167761Y0114735D01*
X0115608Y0114735D01*
X0115608Y0114894D01*
X0110908Y0114894D01*
X0110908Y0114895D01*
X0106208Y0114895D01*
X0106208Y0115981D01*
X0106331Y0116439D01*
X0106408Y0116573D01*
X0106408Y0118966D01*
X0107345Y0119904D01*
X0114471Y0119904D01*
X0114521Y0119854D01*
X0166174Y0119854D01*
X0158179Y0127849D01*
X0108337Y0127849D01*
X0106612Y0126124D01*
X0106612Y0120636D01*
X0105675Y0119699D01*
X0098164Y0119699D01*
X0098030Y0119622D01*
X0097572Y0119499D01*
X0096485Y0119499D01*
X0096485Y0124199D01*
X0096485Y0124199D01*
X0096485Y0123797D02*
X0096485Y0123797D01*
X0096485Y0122199D02*
X0096485Y0122199D01*
X0096485Y0120600D02*
X0096485Y0120600D01*
X0096105Y0119002D02*
X0106443Y0119002D01*
X0106408Y0117403D02*
X0094711Y0117403D01*
X0093112Y0115805D02*
X0106208Y0115805D01*
X0106208Y0114206D02*
X0071208Y0114206D01*
X0071208Y0112608D02*
X0106408Y0112608D01*
X0106408Y0111009D02*
X0071369Y0111009D01*
X0071408Y0109411D02*
X0106408Y0109411D01*
X0106408Y0107812D02*
X0071208Y0107812D01*
X0071208Y0106214D02*
X0106408Y0106214D01*
X0106408Y0104615D02*
X0071208Y0104615D01*
X0071208Y0103017D02*
X0106408Y0103017D01*
X0106408Y0101418D02*
X0071208Y0101418D01*
X0071208Y0099820D02*
X0106408Y0099820D01*
X0110908Y0096981D02*
X0081131Y0096981D01*
X0070894Y0086745D01*
X0066708Y0086745D01*
X0060265Y0086745D01*
X0056328Y0082808D01*
X0056328Y0076509D01*
X0056328Y0065879D01*
X0060068Y0065879D01*
X0073454Y0052493D01*
X0073454Y0047769D01*
X0070894Y0047769D01*
X0068394Y0045269D01*
X0062281Y0045269D01*
X0056623Y0042273D02*
X0049537Y0042273D01*
X0049421Y0042474D02*
X0049086Y0042809D01*
X0048958Y0042883D01*
X0049581Y0043506D01*
X0049581Y0047031D01*
X0048844Y0047769D01*
X0049581Y0048506D01*
X0049581Y0052031D01*
X0048844Y0052769D01*
X0049581Y0053506D01*
X0049581Y0057031D01*
X0048644Y0057968D01*
X0038718Y0057968D01*
X0037781Y0057031D01*
X0037781Y0053506D01*
X0038518Y0052769D01*
X0038418Y0052668D01*
X0034305Y0052668D01*
X0034305Y0053156D01*
X0033368Y0054093D01*
X0028106Y0054093D01*
X0027169Y0053156D01*
X0027169Y0052728D01*
X0024857Y0052728D01*
X0024857Y0054140D01*
X0023919Y0055077D01*
X0015507Y0055077D01*
X0014669Y0054239D01*
X0014436Y0054471D01*
X0014436Y0058312D01*
X0015367Y0057381D01*
X0017172Y0057381D01*
X0017172Y0061881D01*
X0017372Y0061881D01*
X0017372Y0057381D01*
X0019178Y0057381D01*
X0021872Y0060076D01*
X0021872Y0061881D01*
X0017373Y0061881D01*
X0017373Y0062081D01*
X0021872Y0062081D01*
X0021872Y0063886D01*
X0019178Y0066581D01*
X0017372Y0066581D01*
X0017372Y0062081D01*
X0017172Y0062081D01*
X0017172Y0066581D01*
X0015367Y0066581D01*
X0014436Y0065650D01*
X0014436Y0068312D01*
X0015367Y0067381D01*
X0017172Y0067381D01*
X0017172Y0071881D01*
X0017372Y0071881D01*
X0017372Y0067381D01*
X0019178Y0067381D01*
X0021872Y0070076D01*
X0021872Y0071881D01*
X0017373Y0071881D01*
X0017373Y0072081D01*
X0021872Y0072081D01*
X0021872Y0073886D01*
X0019178Y0076581D01*
X0017372Y0076581D01*
X0017372Y0072081D01*
X0017172Y0072081D01*
X0017172Y0076581D01*
X0015367Y0076581D01*
X0014436Y0075650D01*
X0014436Y0078595D01*
X0015450Y0077581D01*
X0019095Y0077581D01*
X0021672Y0080159D01*
X0021672Y0083804D01*
X0019095Y0086381D01*
X0015450Y0086381D01*
X0014436Y0085367D01*
X0014436Y0088595D01*
X0015450Y0087581D01*
X0019095Y0087581D01*
X0021672Y0090159D01*
X0021672Y0093804D01*
X0019095Y0096381D01*
X0015450Y0096381D01*
X0014436Y0095367D01*
X0014436Y0095751D01*
X0016267Y0097581D01*
X0019095Y0097581D01*
X0021672Y0100159D01*
X0021672Y0103804D01*
X0019095Y0106381D01*
X0015450Y0106381D01*
X0012872Y0103804D01*
X0012872Y0100975D01*
X0010002Y0098104D01*
X0009636Y0097222D01*
X0009636Y0053000D01*
X0010002Y0052118D01*
X0010677Y0051443D01*
X0013885Y0048234D01*
X0014570Y0047950D01*
X0014570Y0046515D01*
X0015507Y0045578D01*
X0023919Y0045578D01*
X0024857Y0046515D01*
X0024857Y0047869D01*
X0027169Y0047869D01*
X0027169Y0047499D01*
X0027545Y0047123D01*
X0027328Y0046905D01*
X0027091Y0046495D01*
X0026969Y0046037D01*
X0026968Y0043819D01*
X0030553Y0043819D01*
X0030553Y0043450D01*
X0030921Y0043450D01*
X0030921Y0039669D01*
X0032942Y0039669D01*
X0033400Y0039792D01*
X0033811Y0040029D01*
X0034146Y0040364D01*
X0034383Y0040775D01*
X0034505Y0041232D01*
X0034505Y0043450D01*
X0030921Y0043450D01*
X0030921Y0043819D01*
X0034505Y0043819D01*
X0034505Y0046037D01*
X0034383Y0046495D01*
X0034146Y0046905D01*
X0033929Y0047123D01*
X0034305Y0047499D01*
X0034305Y0047869D01*
X0038418Y0047869D01*
X0038518Y0047769D01*
X0037781Y0047031D01*
X0037781Y0043506D01*
X0038404Y0042883D01*
X0038276Y0042809D01*
X0037941Y0042474D01*
X0037704Y0042063D01*
X0037581Y0041605D01*
X0037581Y0040269D01*
X0043681Y0040269D01*
X0043681Y0040268D01*
X0043681Y0040268D01*
X0043681Y0037369D01*
X0039144Y0037369D01*
X0038686Y0037491D01*
X0038276Y0037728D01*
X0037941Y0038063D01*
X0037704Y0038474D01*
X0037581Y0038932D01*
X0037581Y0040268D01*
X0043681Y0040268D01*
X0043681Y0037369D01*
X0048218Y0037369D01*
X0048676Y0037491D01*
X0049086Y0037728D01*
X0049421Y0038063D01*
X0049658Y0038474D01*
X0049781Y0038932D01*
X0049781Y0040268D01*
X0043681Y0040268D01*
X0043681Y0040269D01*
X0049781Y0040269D01*
X0049781Y0041605D01*
X0049658Y0042063D01*
X0049421Y0042474D01*
X0049581Y0043872D02*
X0056381Y0043872D01*
X0056381Y0045470D02*
X0049581Y0045470D01*
X0049544Y0047069D02*
X0056419Y0047069D01*
X0056381Y0048667D02*
X0049581Y0048667D01*
X0049581Y0050266D02*
X0056381Y0050266D01*
X0056381Y0051864D02*
X0049581Y0051864D01*
X0049538Y0053463D02*
X0056424Y0053463D01*
X0056381Y0055061D02*
X0049581Y0055061D01*
X0049581Y0056660D02*
X0056381Y0056660D01*
X0060860Y0061455D02*
X0061097Y0061455D01*
X0062695Y0059857D02*
X0031654Y0059857D01*
X0031872Y0060076D02*
X0031872Y0061881D01*
X0027373Y0061881D01*
X0027373Y0062081D01*
X0031872Y0062081D01*
X0031872Y0063886D01*
X0029178Y0066581D01*
X0027372Y0066581D01*
X0027372Y0062081D01*
X0027172Y0062081D01*
X0027172Y0061881D01*
X0022672Y0061881D01*
X0022672Y0060076D01*
X0025367Y0057381D01*
X0027172Y0057381D01*
X0027172Y0061881D01*
X0027372Y0061881D01*
X0027372Y0057381D01*
X0029178Y0057381D01*
X0031872Y0060076D01*
X0031872Y0061455D02*
X0040584Y0061455D01*
X0040477Y0061641D02*
X0040714Y0061230D01*
X0041049Y0060895D01*
X0041460Y0060658D01*
X0041917Y0060535D01*
X0044529Y0060535D01*
X0044529Y0065104D01*
X0040354Y0065104D01*
X0040354Y0062098D01*
X0040477Y0061641D01*
X0040354Y0063054D02*
X0031872Y0063054D01*
X0031107Y0064652D02*
X0040354Y0064652D01*
X0040354Y0066654D02*
X0044529Y0066654D01*
X0044529Y0071222D01*
X0041917Y0071222D01*
X0041460Y0071099D01*
X0041049Y0070862D01*
X0040714Y0070527D01*
X0040477Y0070117D01*
X0040354Y0069659D01*
X0040354Y0066654D01*
X0040354Y0067849D02*
X0029646Y0067849D01*
X0029178Y0067381D02*
X0031872Y0070076D01*
X0031872Y0071881D01*
X0027373Y0071881D01*
X0027373Y0072081D01*
X0031872Y0072081D01*
X0031872Y0073886D01*
X0029178Y0076581D01*
X0027372Y0076581D01*
X0027372Y0072081D01*
X0027172Y0072081D01*
X0027172Y0071881D01*
X0022672Y0071881D01*
X0022672Y0070076D01*
X0025367Y0067381D01*
X0027172Y0067381D01*
X0027172Y0071881D01*
X0027372Y0071881D01*
X0027372Y0067381D01*
X0029178Y0067381D01*
X0029508Y0066251D02*
X0044529Y0066251D01*
X0044529Y0066654D02*
X0044529Y0065104D01*
X0046079Y0065104D01*
X0046079Y0066654D01*
X0044529Y0066654D01*
X0044529Y0067849D02*
X0046079Y0067849D01*
X0046079Y0066654D02*
X0046079Y0071222D01*
X0048691Y0071222D01*
X0049148Y0071099D01*
X0049559Y0070862D01*
X0049894Y0070527D01*
X0050131Y0070117D01*
X0050254Y0069659D01*
X0050254Y0066654D01*
X0046079Y0066654D01*
X0046079Y0066251D02*
X0051578Y0066251D01*
X0051578Y0067849D02*
X0050254Y0067849D01*
X0050254Y0069448D02*
X0051578Y0069448D01*
X0049240Y0071046D02*
X0053928Y0071046D01*
X0053928Y0072645D02*
X0031872Y0072645D01*
X0031872Y0071046D02*
X0041368Y0071046D01*
X0040354Y0069448D02*
X0031245Y0069448D01*
X0027372Y0069448D02*
X0027172Y0069448D01*
X0027172Y0071046D02*
X0027372Y0071046D01*
X0027172Y0072081D02*
X0022672Y0072081D01*
X0022672Y0073886D01*
X0025367Y0076581D01*
X0027172Y0076581D01*
X0027172Y0072081D01*
X0027172Y0072645D02*
X0027372Y0072645D01*
X0027372Y0074243D02*
X0027172Y0074243D01*
X0027172Y0075842D02*
X0027372Y0075842D01*
X0029095Y0077581D02*
X0025450Y0077581D01*
X0022872Y0080159D01*
X0022872Y0083804D01*
X0025450Y0086381D01*
X0029095Y0086381D01*
X0031672Y0083804D01*
X0031672Y0080159D01*
X0029095Y0077581D01*
X0029917Y0075842D02*
X0045669Y0075842D01*
X0045669Y0076324D02*
X0045669Y0074303D01*
X0045792Y0073845D01*
X0046029Y0073435D01*
X0046364Y0073100D01*
X0046775Y0072863D01*
X0047232Y0072740D01*
X0049450Y0072740D01*
X0049450Y0076324D01*
X0045669Y0076324D01*
X0045669Y0076693D02*
X0049450Y0076693D01*
X0049450Y0080277D01*
X0047232Y0080277D01*
X0046775Y0080154D01*
X0046364Y0079918D01*
X0046029Y0079582D01*
X0045792Y0079172D01*
X0045669Y0078714D01*
X0045669Y0076693D01*
X0045669Y0077440D02*
X0014436Y0077440D01*
X0014436Y0075842D02*
X0014628Y0075842D01*
X0017172Y0075842D02*
X0017372Y0075842D01*
X0017372Y0074243D02*
X0017172Y0074243D01*
X0017172Y0072645D02*
X0017372Y0072645D01*
X0017372Y0071046D02*
X0017172Y0071046D01*
X0017172Y0069448D02*
X0017372Y0069448D01*
X0017372Y0067849D02*
X0017172Y0067849D01*
X0017172Y0066251D02*
X0017372Y0066251D01*
X0017372Y0064652D02*
X0017172Y0064652D01*
X0017172Y0063054D02*
X0017372Y0063054D01*
X0017372Y0061455D02*
X0017172Y0061455D01*
X0017172Y0059857D02*
X0017372Y0059857D01*
X0017372Y0058258D02*
X0017172Y0058258D01*
X0014490Y0058258D02*
X0014436Y0058258D01*
X0014436Y0056660D02*
X0037781Y0056660D01*
X0037781Y0055061D02*
X0023935Y0055061D01*
X0024857Y0053463D02*
X0027476Y0053463D01*
X0030737Y0050328D02*
X0019713Y0050328D01*
X0015245Y0050269D02*
X0012036Y0053477D01*
X0012036Y0096745D01*
X0017272Y0101981D01*
X0012872Y0101418D02*
X0009233Y0101418D01*
X0009231Y0099820D02*
X0011717Y0099820D01*
X0010118Y0098221D02*
X0009230Y0098221D01*
X0009228Y0096623D02*
X0009636Y0096623D01*
X0009636Y0095024D02*
X0009226Y0095024D01*
X0009225Y0093426D02*
X0009636Y0093426D01*
X0009636Y0091827D02*
X0009223Y0091827D01*
X0009222Y0090229D02*
X0009636Y0090229D01*
X0009636Y0088630D02*
X0009220Y0088630D01*
X0009218Y0087032D02*
X0009636Y0087032D01*
X0009636Y0085433D02*
X0009217Y0085433D01*
X0009215Y0083835D02*
X0009636Y0083835D01*
X0009636Y0082236D02*
X0009213Y0082236D01*
X0009212Y0080637D02*
X0009636Y0080637D01*
X0009636Y0079039D02*
X0009210Y0079039D01*
X0009209Y0077440D02*
X0009636Y0077440D01*
X0009636Y0075842D02*
X0009207Y0075842D01*
X0009205Y0074243D02*
X0009636Y0074243D01*
X0009636Y0072645D02*
X0009204Y0072645D01*
X0009202Y0071046D02*
X0009636Y0071046D01*
X0009636Y0069448D02*
X0009201Y0069448D01*
X0009199Y0067849D02*
X0009636Y0067849D01*
X0009636Y0066251D02*
X0009197Y0066251D01*
X0009196Y0064652D02*
X0009636Y0064652D01*
X0009636Y0063054D02*
X0009194Y0063054D01*
X0009193Y0061455D02*
X0009636Y0061455D01*
X0009636Y0059857D02*
X0009191Y0059857D01*
X0009189Y0058258D02*
X0009636Y0058258D01*
X0009636Y0056660D02*
X0009188Y0056660D01*
X0009186Y0055061D02*
X0009636Y0055061D01*
X0009636Y0053463D02*
X0009185Y0053463D01*
X0009183Y0051864D02*
X0010255Y0051864D01*
X0009181Y0050266D02*
X0011853Y0050266D01*
X0013452Y0048667D02*
X0009180Y0048667D01*
X0009178Y0047069D02*
X0014570Y0047069D01*
X0015475Y0044131D02*
X0015065Y0043894D01*
X0014730Y0043559D01*
X0014493Y0043148D01*
X0014370Y0042691D01*
X0014370Y0040079D01*
X0018938Y0040079D01*
X0018938Y0038529D01*
X0014370Y0038529D01*
X0014370Y0035917D01*
X0014493Y0035460D01*
X0014730Y0035049D01*
X0015065Y0034714D01*
X0015475Y0034477D01*
X0015933Y0034354D01*
X0018939Y0034354D01*
X0018939Y0038529D01*
X0020488Y0038529D01*
X0020488Y0034354D01*
X0023494Y0034354D01*
X0023951Y0034477D01*
X0024362Y0034714D01*
X0024697Y0035049D01*
X0024934Y0035460D01*
X0025057Y0035917D01*
X0025057Y0038529D01*
X0020488Y0038529D01*
X0020488Y0040079D01*
X0018939Y0040079D01*
X0018939Y0044254D01*
X0015933Y0044254D01*
X0015475Y0044131D01*
X0015043Y0043872D02*
X0009175Y0043872D01*
X0009177Y0045470D02*
X0026969Y0045470D01*
X0026969Y0043872D02*
X0024384Y0043872D01*
X0024362Y0043894D02*
X0023951Y0044131D01*
X0023494Y0044254D01*
X0020488Y0044254D01*
X0020488Y0040079D01*
X0025057Y0040079D01*
X0025057Y0042691D01*
X0024934Y0043148D01*
X0024697Y0043559D01*
X0024362Y0043894D01*
X0025057Y0042273D02*
X0026969Y0042273D01*
X0026969Y0041232D02*
X0026969Y0043450D01*
X0030553Y0043450D01*
X0030553Y0039669D01*
X0028532Y0039669D01*
X0028074Y0039792D01*
X0027663Y0040029D01*
X0027328Y0040364D01*
X0027091Y0040775D01*
X0026969Y0041232D01*
X0027149Y0040675D02*
X0025057Y0040675D01*
X0025057Y0037478D02*
X0038737Y0037478D01*
X0037581Y0039076D02*
X0020488Y0039076D01*
X0018938Y0039076D02*
X0009170Y0039076D01*
X0009169Y0037478D02*
X0014370Y0037478D01*
X0014380Y0035879D02*
X0009167Y0035879D01*
X0009165Y0034281D02*
X0247787Y0034281D01*
X0247787Y0035879D02*
X0025046Y0035879D01*
X0020488Y0035879D02*
X0018939Y0035879D01*
X0018939Y0037478D02*
X0020488Y0037478D01*
X0020488Y0040675D02*
X0018939Y0040675D01*
X0018939Y0042273D02*
X0020488Y0042273D01*
X0020488Y0043872D02*
X0018939Y0043872D01*
X0014370Y0042273D02*
X0009173Y0042273D01*
X0009172Y0040675D02*
X0014370Y0040675D01*
X0015245Y0050269D02*
X0043681Y0050269D01*
X0030796Y0050269D01*
X0030737Y0050328D01*
X0027492Y0047069D02*
X0024857Y0047069D01*
X0030553Y0042273D02*
X0030921Y0042273D01*
X0030921Y0040675D02*
X0030553Y0040675D01*
X0034325Y0040675D02*
X0037581Y0040675D01*
X0037825Y0042273D02*
X0034505Y0042273D01*
X0034505Y0043872D02*
X0037781Y0043872D01*
X0037781Y0045470D02*
X0034505Y0045470D01*
X0033982Y0047069D02*
X0037819Y0047069D01*
X0037824Y0053463D02*
X0033998Y0053463D01*
X0030055Y0058258D02*
X0064294Y0058258D01*
X0067885Y0061455D02*
X0079010Y0061455D01*
X0077412Y0063054D02*
X0066287Y0063054D01*
X0064688Y0064652D02*
X0075813Y0064652D01*
X0074653Y0065813D02*
X0082117Y0058349D01*
X0082117Y0054905D01*
X0079917Y0052705D01*
X0079917Y0048895D01*
X0082611Y0046200D01*
X0086422Y0046200D01*
X0089117Y0048895D01*
X0089117Y0052705D01*
X0086917Y0054905D01*
X0086917Y0057208D01*
X0090668Y0053457D01*
X0089917Y0052705D01*
X0089917Y0048895D01*
X0092611Y0046200D01*
X0096422Y0046200D01*
X0099117Y0048895D01*
X0099117Y0052705D01*
X0097398Y0054424D01*
X0097499Y0054424D01*
X0099917Y0052006D01*
X0099917Y0048895D01*
X0102611Y0046200D01*
X0106422Y0046200D01*
X0109117Y0048895D01*
X0109117Y0052705D01*
X0106422Y0055400D01*
X0103311Y0055400D01*
X0101531Y0057180D01*
X0109676Y0057180D01*
X0112033Y0054822D01*
X0109917Y0052705D01*
X0109917Y0048895D01*
X0112611Y0046200D01*
X0116422Y0046200D01*
X0119117Y0048895D01*
X0119117Y0052705D01*
X0116917Y0054905D01*
X0116917Y0056211D01*
X0116551Y0057093D01*
X0113905Y0059739D01*
X0117322Y0059739D01*
X0122117Y0054944D01*
X0122117Y0054905D01*
X0119917Y0052705D01*
X0119917Y0048895D01*
X0122611Y0046200D01*
X0126422Y0046200D01*
X0129117Y0048895D01*
X0129117Y0052705D01*
X0126917Y0054905D01*
X0126917Y0056415D01*
X0126551Y0057298D01*
X0121551Y0062298D01*
X0124625Y0062298D01*
X0132067Y0054856D01*
X0129917Y0052705D01*
X0129917Y0048895D01*
X0132611Y0046200D01*
X0136422Y0046200D01*
X0139117Y0048895D01*
X0139117Y0052705D01*
X0136877Y0054945D01*
X0136877Y0056317D01*
X0136512Y0057199D01*
X0135837Y0057874D01*
X0128854Y0064857D01*
X0132108Y0064857D01*
X0142088Y0054877D01*
X0139917Y0052705D01*
X0139917Y0048895D01*
X0142611Y0046200D01*
X0146422Y0046200D01*
X0149117Y0048895D01*
X0149117Y0052705D01*
X0146917Y0054905D01*
X0146917Y0056320D01*
X0146551Y0057202D01*
X0145876Y0057877D01*
X0136338Y0067416D01*
X0139652Y0067416D01*
X0152140Y0054928D01*
X0149917Y0052705D01*
X0149917Y0048895D01*
X0152611Y0046200D01*
X0156422Y0046200D01*
X0159117Y0048895D01*
X0159117Y0052705D01*
X0156956Y0054866D01*
X0156956Y0056383D01*
X0156591Y0057266D01*
X0155915Y0057941D01*
X0142006Y0071850D01*
X0141124Y0072216D01*
X0104058Y0072216D01*
X0100775Y0075499D01*
X0105675Y0075499D01*
X0106612Y0076436D01*
X0106612Y0083562D01*
X0105675Y0084499D01*
X0087928Y0084499D01*
X0087794Y0084577D01*
X0087336Y0084699D01*
X0086249Y0084699D01*
X0086249Y0079999D01*
X0086249Y0075299D01*
X0086408Y0075299D01*
X0086408Y0072358D01*
X0086773Y0071476D01*
X0096269Y0061980D01*
X0096101Y0061980D01*
X0086090Y0071991D01*
X0086090Y0075299D01*
X0086249Y0075299D01*
X0086249Y0079999D01*
X0086249Y0079999D01*
X0086249Y0079999D01*
X0086249Y0084699D01*
X0085162Y0084699D01*
X0084704Y0084577D01*
X0084570Y0084499D01*
X0071941Y0084499D01*
X0071004Y0083562D01*
X0071004Y0076436D01*
X0071941Y0075499D01*
X0073613Y0075499D01*
X0073613Y0067370D01*
X0073978Y0066488D01*
X0074653Y0065813D01*
X0074653Y0065813D01*
X0074215Y0066251D02*
X0063090Y0066251D01*
X0061491Y0067849D02*
X0073613Y0067849D01*
X0073613Y0069448D02*
X0061077Y0069448D01*
X0058728Y0071046D02*
X0073613Y0071046D01*
X0073613Y0072645D02*
X0058728Y0072645D01*
X0060093Y0074243D02*
X0073613Y0074243D01*
X0071598Y0075842D02*
X0060093Y0075842D01*
X0060093Y0077440D02*
X0071004Y0077440D01*
X0071004Y0079039D02*
X0060093Y0079039D01*
X0058728Y0080637D02*
X0071004Y0080637D01*
X0071004Y0082236D02*
X0059150Y0082236D01*
X0060748Y0083835D02*
X0071276Y0083835D01*
X0072977Y0085433D02*
X0106408Y0085433D01*
X0106408Y0087032D02*
X0074575Y0087032D01*
X0076174Y0088630D02*
X0106408Y0088630D01*
X0106408Y0090229D02*
X0077772Y0090229D01*
X0079371Y0091827D02*
X0106408Y0091827D01*
X0106408Y0093426D02*
X0080969Y0093426D01*
X0077378Y0096623D02*
X0071208Y0096623D01*
X0071208Y0098221D02*
X0078977Y0098221D01*
X0075780Y0095024D02*
X0071208Y0095024D01*
X0071208Y0093426D02*
X0074181Y0093426D01*
X0072583Y0091827D02*
X0071208Y0091827D01*
X0066708Y0091863D02*
X0063217Y0091863D01*
X0060658Y0094422D01*
X0060658Y0096981D01*
X0050422Y0107217D01*
X0050422Y0111942D01*
X0040186Y0111942D01*
X0027272Y0111942D01*
X0027272Y0111981D01*
X0023620Y0109411D02*
X0020925Y0109411D01*
X0021672Y0110159D02*
X0019095Y0107581D01*
X0015450Y0107581D01*
X0012872Y0110159D01*
X0012872Y0113804D01*
X0015450Y0116381D01*
X0019095Y0116381D01*
X0021672Y0113804D01*
X0021672Y0110159D01*
X0021672Y0111009D02*
X0022872Y0111009D01*
X0022872Y0112608D02*
X0021672Y0112608D01*
X0021270Y0114206D02*
X0023275Y0114206D01*
X0024874Y0115805D02*
X0019671Y0115805D01*
X0019095Y0117581D02*
X0015450Y0117581D01*
X0012872Y0120159D01*
X0012872Y0123804D01*
X0015450Y0126381D01*
X0019095Y0126381D01*
X0021672Y0123804D01*
X0021672Y0120159D01*
X0019095Y0117581D01*
X0020516Y0119002D02*
X0024029Y0119002D01*
X0022872Y0120159D02*
X0025450Y0117581D01*
X0029095Y0117581D01*
X0031672Y0120159D01*
X0031672Y0123804D01*
X0029095Y0126381D01*
X0025450Y0126381D01*
X0022872Y0123804D01*
X0022872Y0120159D01*
X0022872Y0120600D02*
X0021672Y0120600D01*
X0021672Y0122199D02*
X0022872Y0122199D01*
X0022872Y0123797D02*
X0021672Y0123797D01*
X0020080Y0125396D02*
X0024465Y0125396D01*
X0024438Y0128593D02*
X0020107Y0128593D01*
X0019095Y0127581D02*
X0015450Y0127581D01*
X0012872Y0130159D01*
X0012872Y0133804D01*
X0015450Y0136381D01*
X0019095Y0136381D01*
X0021672Y0133804D01*
X0021672Y0130159D01*
X0019095Y0127581D01*
X0021672Y0130191D02*
X0022872Y0130191D01*
X0022872Y0131790D02*
X0021672Y0131790D01*
X0021672Y0133388D02*
X0022872Y0133388D01*
X0024056Y0134987D02*
X0020489Y0134987D01*
X0014056Y0134987D02*
X0009266Y0134987D01*
X0009268Y0136585D02*
X0045476Y0136585D01*
X0045476Y0134987D02*
X0030489Y0134987D01*
X0027272Y0131981D02*
X0048887Y0131981D01*
X0049044Y0131824D01*
X0049044Y0126509D01*
X0045476Y0126994D02*
X0045300Y0126994D01*
X0045476Y0128593D02*
X0030107Y0128593D01*
X0030080Y0125396D02*
X0034843Y0125396D01*
X0034843Y0126352D02*
X0034843Y0123740D01*
X0039411Y0123740D01*
X0039411Y0122191D01*
X0034843Y0122191D01*
X0034843Y0119579D01*
X0034965Y0119121D01*
X0035202Y0118711D01*
X0035537Y0118375D01*
X0035948Y0118138D01*
X0036406Y0118016D01*
X0039411Y0118016D01*
X0039411Y0122190D01*
X0040961Y0122190D01*
X0040961Y0118016D01*
X0043966Y0118016D01*
X0044424Y0118138D01*
X0044834Y0118375D01*
X0045169Y0118711D01*
X0045406Y0119121D01*
X0045529Y0119579D01*
X0045529Y0122191D01*
X0040961Y0122191D01*
X0040961Y0123740D01*
X0039411Y0123740D01*
X0039411Y0127915D01*
X0036406Y0127915D01*
X0035948Y0127792D01*
X0035537Y0127555D01*
X0035202Y0127220D01*
X0034965Y0126810D01*
X0034843Y0126352D01*
X0035072Y0126994D02*
X0009258Y0126994D01*
X0009257Y0125396D02*
X0014465Y0125396D01*
X0012872Y0123797D02*
X0009255Y0123797D01*
X0009254Y0122199D02*
X0012872Y0122199D01*
X0012872Y0120600D02*
X0009252Y0120600D01*
X0009250Y0119002D02*
X0014029Y0119002D01*
X0014874Y0115805D02*
X0009247Y0115805D01*
X0009249Y0117403D02*
X0046654Y0117403D01*
X0046654Y0119002D02*
X0045338Y0119002D01*
X0045529Y0120600D02*
X0046654Y0120600D01*
X0047307Y0122199D02*
X0040961Y0122199D01*
X0039411Y0122199D02*
X0031672Y0122199D01*
X0031672Y0123797D02*
X0034843Y0123797D01*
X0034843Y0120600D02*
X0031672Y0120600D01*
X0030516Y0119002D02*
X0035034Y0119002D01*
X0035093Y0115805D02*
X0029671Y0115805D01*
X0030925Y0109411D02*
X0035043Y0109411D01*
X0035360Y0107812D02*
X0029326Y0107812D01*
X0029095Y0106381D02*
X0025450Y0106381D01*
X0022872Y0103804D01*
X0022872Y0100159D01*
X0025450Y0097581D01*
X0029095Y0097581D01*
X0031672Y0100159D01*
X0031672Y0103804D01*
X0029095Y0106381D01*
X0029262Y0106214D02*
X0048240Y0106214D01*
X0048022Y0107812D02*
X0045012Y0107812D01*
X0045329Y0109411D02*
X0046854Y0109411D01*
X0049630Y0104615D02*
X0030861Y0104615D01*
X0031672Y0103017D02*
X0051229Y0103017D01*
X0052827Y0101418D02*
X0045098Y0101418D01*
X0045329Y0099820D02*
X0046854Y0099820D01*
X0050422Y0097375D02*
X0050816Y0096981D01*
X0052981Y0096981D01*
X0060658Y0089304D01*
X0066708Y0089304D01*
X0057938Y0088630D02*
X0054191Y0088630D01*
X0054191Y0088280D02*
X0054191Y0090498D01*
X0050606Y0090498D01*
X0050606Y0086717D01*
X0052628Y0086717D01*
X0053085Y0086839D01*
X0053496Y0087076D01*
X0053831Y0087411D01*
X0054068Y0087822D01*
X0054191Y0088280D01*
X0053418Y0087032D02*
X0057157Y0087032D01*
X0055559Y0085433D02*
X0045529Y0085433D01*
X0045529Y0085576D02*
X0045529Y0082965D01*
X0045406Y0082507D01*
X0045169Y0082096D01*
X0044834Y0081761D01*
X0044424Y0081524D01*
X0043966Y0081402D01*
X0040961Y0081402D01*
X0040961Y0085576D01*
X0040961Y0087126D01*
X0045529Y0087126D01*
X0045529Y0089738D01*
X0045406Y0090196D01*
X0045169Y0090606D01*
X0044834Y0090941D01*
X0044424Y0091178D01*
X0043966Y0091301D01*
X0040961Y0091301D01*
X0040961Y0087126D01*
X0039411Y0087126D01*
X0039411Y0085576D01*
X0040961Y0085576D01*
X0045529Y0085576D01*
X0045529Y0083835D02*
X0054155Y0083835D01*
X0053928Y0082236D02*
X0045250Y0082236D01*
X0045756Y0079039D02*
X0030553Y0079039D01*
X0031672Y0080637D02*
X0053928Y0080637D01*
X0049819Y0079039D02*
X0049450Y0079039D01*
X0049450Y0077440D02*
X0049819Y0077440D01*
X0049819Y0075842D02*
X0049450Y0075842D01*
X0049450Y0074243D02*
X0049819Y0074243D01*
X0045685Y0074243D02*
X0031515Y0074243D01*
X0024628Y0075842D02*
X0019917Y0075842D01*
X0021515Y0074243D02*
X0023029Y0074243D01*
X0022672Y0072645D02*
X0021872Y0072645D01*
X0021872Y0071046D02*
X0022672Y0071046D01*
X0023300Y0069448D02*
X0021245Y0069448D01*
X0019646Y0067849D02*
X0024899Y0067849D01*
X0025367Y0066581D02*
X0022672Y0063886D01*
X0022672Y0062081D01*
X0027172Y0062081D01*
X0027172Y0066581D01*
X0025367Y0066581D01*
X0025037Y0066251D02*
X0019508Y0066251D01*
X0021107Y0064652D02*
X0023438Y0064652D01*
X0022672Y0063054D02*
X0021872Y0063054D01*
X0021872Y0061455D02*
X0022672Y0061455D01*
X0022891Y0059857D02*
X0021654Y0059857D01*
X0020055Y0058258D02*
X0024490Y0058258D01*
X0027172Y0058258D02*
X0027372Y0058258D01*
X0027372Y0059857D02*
X0027172Y0059857D01*
X0027172Y0061455D02*
X0027372Y0061455D01*
X0027372Y0063054D02*
X0027172Y0063054D01*
X0027172Y0064652D02*
X0027372Y0064652D01*
X0027372Y0066251D02*
X0027172Y0066251D01*
X0027172Y0067849D02*
X0027372Y0067849D01*
X0023992Y0079039D02*
X0020553Y0079039D01*
X0021672Y0080637D02*
X0022872Y0080637D01*
X0022872Y0082236D02*
X0021672Y0082236D01*
X0021642Y0083835D02*
X0022903Y0083835D01*
X0024502Y0085433D02*
X0020043Y0085433D01*
X0020144Y0088630D02*
X0024401Y0088630D01*
X0022872Y0090229D02*
X0021672Y0090229D01*
X0021672Y0091827D02*
X0022872Y0091827D01*
X0022872Y0093426D02*
X0021672Y0093426D01*
X0020452Y0095024D02*
X0024093Y0095024D01*
X0024810Y0098221D02*
X0019735Y0098221D01*
X0021333Y0099820D02*
X0023211Y0099820D01*
X0022872Y0101418D02*
X0021672Y0101418D01*
X0021672Y0103017D02*
X0022872Y0103017D01*
X0023684Y0104615D02*
X0020861Y0104615D01*
X0019262Y0106214D02*
X0025282Y0106214D01*
X0025219Y0107812D02*
X0019326Y0107812D01*
X0015219Y0107812D02*
X0009239Y0107812D01*
X0009238Y0106214D02*
X0015282Y0106214D01*
X0013684Y0104615D02*
X0009236Y0104615D01*
X0009234Y0103017D02*
X0012872Y0103017D01*
X0015308Y0096623D02*
X0028520Y0096623D01*
X0029735Y0098221D02*
X0030118Y0098221D01*
X0031333Y0099820D02*
X0035043Y0099820D01*
X0035274Y0101418D02*
X0031672Y0101418D01*
X0032666Y0097375D02*
X0027272Y0091981D01*
X0027272Y0092060D01*
X0031672Y0091827D02*
X0046654Y0091827D01*
X0046654Y0090229D02*
X0045387Y0090229D01*
X0045529Y0088630D02*
X0046654Y0088630D01*
X0047426Y0087032D02*
X0040961Y0087032D01*
X0039411Y0087032D02*
X0014436Y0087032D01*
X0014436Y0085433D02*
X0014502Y0085433D01*
X0030043Y0085433D02*
X0034843Y0085433D01*
X0034843Y0085576D02*
X0034843Y0082965D01*
X0034965Y0082507D01*
X0035202Y0082096D01*
X0035537Y0081761D01*
X0035948Y0081524D01*
X0036406Y0081402D01*
X0039411Y0081402D01*
X0039411Y0085576D01*
X0034843Y0085576D01*
X0034843Y0087126D02*
X0039411Y0087126D01*
X0039411Y0091301D01*
X0036406Y0091301D01*
X0035948Y0091178D01*
X0035537Y0090941D01*
X0035202Y0090606D01*
X0034965Y0090196D01*
X0034843Y0089738D01*
X0034843Y0087126D01*
X0034843Y0088630D02*
X0030144Y0088630D01*
X0031672Y0090229D02*
X0034984Y0090229D01*
X0035179Y0093426D02*
X0032111Y0093426D01*
X0032666Y0097375D02*
X0040186Y0097375D01*
X0050422Y0097375D01*
X0053991Y0099820D02*
X0054426Y0099820D01*
X0055135Y0098221D02*
X0056024Y0098221D01*
X0056734Y0096623D02*
X0057623Y0096623D01*
X0061214Y0099820D02*
X0062208Y0099820D01*
X0062208Y0101418D02*
X0059615Y0101418D01*
X0058017Y0103017D02*
X0062208Y0103017D01*
X0062208Y0104615D02*
X0056418Y0104615D01*
X0054820Y0106214D02*
X0062208Y0106214D01*
X0062208Y0107812D02*
X0053221Y0107812D01*
X0053991Y0109411D02*
X0062008Y0109411D01*
X0062824Y0112335D02*
X0066708Y0112335D01*
X0059435Y0112335D01*
X0055737Y0116034D01*
X0055737Y0126509D01*
X0050606Y0122199D02*
X0050238Y0122199D01*
X0050238Y0120600D02*
X0050606Y0120600D01*
X0050606Y0119002D02*
X0050238Y0119002D01*
X0046768Y0115805D02*
X0045278Y0115805D01*
X0040961Y0119002D02*
X0039411Y0119002D01*
X0039411Y0120600D02*
X0040961Y0120600D01*
X0040961Y0123797D02*
X0039411Y0123797D01*
X0039411Y0125396D02*
X0040961Y0125396D01*
X0040961Y0126994D02*
X0039411Y0126994D01*
X0049044Y0131824D02*
X0049044Y0136548D01*
X0049044Y0140288D01*
X0050225Y0141469D01*
X0073454Y0141469D01*
X0076997Y0141469D01*
X0078572Y0139894D01*
X0078572Y0124199D01*
X0078572Y0120013D01*
X0081131Y0117454D01*
X0091367Y0117454D01*
X0093926Y0120013D01*
X0093926Y0124199D01*
X0093926Y0131036D01*
X0102391Y0139501D01*
X0102587Y0139501D01*
X0102587Y0149934D01*
X0097838Y0149373D02*
X0093767Y0149373D01*
X0093767Y0147775D02*
X0097838Y0147775D01*
X0097838Y0146176D02*
X0093767Y0146176D01*
X0093767Y0144578D02*
X0100187Y0144578D01*
X0099669Y0142979D02*
X0093767Y0142979D01*
X0093767Y0141381D02*
X0098822Y0141381D01*
X0098822Y0139782D02*
X0093767Y0139782D01*
X0093767Y0138184D02*
X0097680Y0138184D01*
X0096081Y0136585D02*
X0093767Y0136585D01*
X0093767Y0134987D02*
X0094483Y0134987D01*
X0098074Y0131790D02*
X0098204Y0131790D01*
X0096842Y0130191D02*
X0096475Y0130191D01*
X0096485Y0128593D02*
X0096485Y0128593D01*
X0099044Y0129236D02*
X0099044Y0124199D01*
X0101603Y0124199D02*
X0101603Y0128217D01*
X0106194Y0132808D01*
X0160018Y0132808D01*
X0231524Y0061301D01*
X0231524Y0050800D01*
X0236124Y0050266D02*
X0236924Y0050266D01*
X0236924Y0051864D02*
X0236124Y0051864D01*
X0235367Y0053463D02*
X0237682Y0053463D01*
X0237979Y0055061D02*
X0233924Y0055061D01*
X0233924Y0056660D02*
X0236381Y0056660D01*
X0234782Y0058258D02*
X0233924Y0058258D01*
X0238373Y0061455D02*
X0247787Y0061455D01*
X0247787Y0059857D02*
X0239972Y0059857D01*
X0241570Y0058258D02*
X0247787Y0058258D01*
X0247787Y0056660D02*
X0243169Y0056660D01*
X0243924Y0055061D02*
X0247787Y0055061D01*
X0247787Y0053463D02*
X0245367Y0053463D01*
X0246124Y0051864D02*
X0247787Y0051864D01*
X0247787Y0050266D02*
X0246124Y0050266D01*
X0245897Y0048667D02*
X0247787Y0048667D01*
X0247787Y0047069D02*
X0244299Y0047069D01*
X0243513Y0045600D02*
X0241724Y0045600D01*
X0241724Y0041000D01*
X0241324Y0041000D01*
X0241324Y0040600D01*
X0236724Y0040600D01*
X0236724Y0038812D01*
X0239536Y0036000D01*
X0241324Y0036000D01*
X0241324Y0040600D01*
X0241724Y0040600D01*
X0241724Y0036000D01*
X0243513Y0036000D01*
X0246324Y0038812D01*
X0246324Y0040600D01*
X0241724Y0040600D01*
X0241724Y0041000D01*
X0246324Y0041000D01*
X0246324Y0042788D01*
X0243513Y0045600D01*
X0243642Y0045470D02*
X0247787Y0045470D01*
X0247787Y0043872D02*
X0245241Y0043872D01*
X0246324Y0042273D02*
X0247787Y0042273D01*
X0247787Y0040675D02*
X0241724Y0040675D01*
X0241324Y0040675D02*
X0231724Y0040675D01*
X0231724Y0040600D02*
X0231724Y0041000D01*
X0231324Y0041000D01*
X0231324Y0040600D01*
X0226724Y0040600D01*
X0226724Y0038812D01*
X0229536Y0036000D01*
X0231324Y0036000D01*
X0231324Y0040600D01*
X0231724Y0040600D01*
X0231724Y0036000D01*
X0233513Y0036000D01*
X0236324Y0038812D01*
X0236324Y0040600D01*
X0231724Y0040600D01*
X0231724Y0041000D02*
X0236324Y0041000D01*
X0236324Y0042788D01*
X0233513Y0045600D01*
X0231724Y0045600D01*
X0231724Y0041000D01*
X0231324Y0041000D02*
X0231324Y0045600D01*
X0229536Y0045600D01*
X0226724Y0042788D01*
X0226724Y0041000D01*
X0231324Y0041000D01*
X0231324Y0040675D02*
X0221724Y0040675D01*
X0221724Y0040600D02*
X0221724Y0041000D01*
X0221324Y0041000D01*
X0221324Y0040600D01*
X0216724Y0040600D01*
X0216724Y0038812D01*
X0219536Y0036000D01*
X0221324Y0036000D01*
X0221324Y0040600D01*
X0221724Y0040600D01*
X0221724Y0036000D01*
X0223513Y0036000D01*
X0226324Y0038812D01*
X0226324Y0040600D01*
X0221724Y0040600D01*
X0221724Y0041000D02*
X0226324Y0041000D01*
X0226324Y0042788D01*
X0223513Y0045600D01*
X0221724Y0045600D01*
X0221724Y0041000D01*
X0221324Y0041000D02*
X0221324Y0045600D01*
X0219536Y0045600D01*
X0216724Y0042788D01*
X0216724Y0041000D01*
X0221324Y0041000D01*
X0221324Y0040675D02*
X0211724Y0040675D01*
X0211724Y0040600D02*
X0211724Y0041000D01*
X0211324Y0041000D01*
X0211324Y0040600D01*
X0206724Y0040600D01*
X0206724Y0038812D01*
X0209536Y0036000D01*
X0211324Y0036000D01*
X0211324Y0040600D01*
X0211724Y0040600D01*
X0211724Y0036000D01*
X0213513Y0036000D01*
X0216324Y0038812D01*
X0216324Y0040600D01*
X0211724Y0040600D01*
X0211724Y0041000D02*
X0216324Y0041000D01*
X0216324Y0042788D01*
X0213513Y0045600D01*
X0211724Y0045600D01*
X0211724Y0041000D01*
X0211324Y0041000D02*
X0211324Y0045600D01*
X0209536Y0045600D01*
X0206724Y0042788D01*
X0206724Y0041000D01*
X0211324Y0041000D01*
X0211324Y0040675D02*
X0201724Y0040675D01*
X0201724Y0040600D02*
X0201724Y0041000D01*
X0201324Y0041000D01*
X0201324Y0040600D01*
X0196724Y0040600D01*
X0196724Y0038812D01*
X0199536Y0036000D01*
X0201324Y0036000D01*
X0201324Y0040600D01*
X0201724Y0040600D01*
X0201724Y0036000D01*
X0203513Y0036000D01*
X0206324Y0038812D01*
X0206324Y0040600D01*
X0201724Y0040600D01*
X0201724Y0041000D02*
X0206324Y0041000D01*
X0206324Y0042788D01*
X0203513Y0045600D01*
X0201724Y0045600D01*
X0201724Y0041000D01*
X0201324Y0041000D02*
X0201324Y0045600D01*
X0199536Y0045600D01*
X0196724Y0042788D01*
X0196724Y0041000D01*
X0201324Y0041000D01*
X0201324Y0040675D02*
X0191724Y0040675D01*
X0191724Y0040600D02*
X0191724Y0041000D01*
X0191324Y0041000D01*
X0191324Y0040600D01*
X0186724Y0040600D01*
X0186724Y0038812D01*
X0189536Y0036000D01*
X0191324Y0036000D01*
X0191324Y0040600D01*
X0191724Y0040600D01*
X0191724Y0036000D01*
X0193513Y0036000D01*
X0196324Y0038812D01*
X0196324Y0040600D01*
X0191724Y0040600D01*
X0191724Y0041000D02*
X0196324Y0041000D01*
X0196324Y0042788D01*
X0193513Y0045600D01*
X0191724Y0045600D01*
X0191724Y0041000D01*
X0191324Y0041000D02*
X0191324Y0045600D01*
X0189536Y0045600D01*
X0186724Y0042788D01*
X0186724Y0041000D01*
X0191324Y0041000D01*
X0191324Y0040675D02*
X0181724Y0040675D01*
X0181724Y0040600D02*
X0181724Y0041000D01*
X0181324Y0041000D01*
X0181324Y0040600D01*
X0176724Y0040600D01*
X0176724Y0038812D01*
X0179536Y0036000D01*
X0181324Y0036000D01*
X0181324Y0040600D01*
X0181724Y0040600D01*
X0181724Y0036000D01*
X0183513Y0036000D01*
X0186324Y0038812D01*
X0186324Y0040600D01*
X0181724Y0040600D01*
X0181724Y0041000D02*
X0186324Y0041000D01*
X0186324Y0042788D01*
X0183513Y0045600D01*
X0181724Y0045600D01*
X0181724Y0041000D01*
X0181324Y0041000D02*
X0181324Y0045600D01*
X0179536Y0045600D01*
X0176724Y0042788D01*
X0176724Y0041000D01*
X0181324Y0041000D01*
X0181324Y0040675D02*
X0171724Y0040675D01*
X0171724Y0040600D02*
X0171724Y0041000D01*
X0171324Y0041000D01*
X0171324Y0040600D01*
X0166724Y0040600D01*
X0166724Y0038812D01*
X0169536Y0036000D01*
X0171324Y0036000D01*
X0171324Y0040600D01*
X0171724Y0040600D01*
X0171724Y0036000D01*
X0173513Y0036000D01*
X0176324Y0038812D01*
X0176324Y0040600D01*
X0171724Y0040600D01*
X0171724Y0041000D02*
X0176324Y0041000D01*
X0176324Y0042788D01*
X0173513Y0045600D01*
X0171724Y0045600D01*
X0171724Y0041000D01*
X0171324Y0041000D02*
X0171324Y0045600D01*
X0169536Y0045600D01*
X0166724Y0042788D01*
X0166724Y0041000D01*
X0171324Y0041000D01*
X0171324Y0040675D02*
X0154717Y0040675D01*
X0154717Y0040600D02*
X0154717Y0041000D01*
X0159317Y0041000D01*
X0159317Y0042788D01*
X0156505Y0045600D01*
X0154717Y0045600D01*
X0154717Y0041000D01*
X0154317Y0041000D01*
X0154317Y0045600D01*
X0152528Y0045600D01*
X0149717Y0042788D01*
X0149717Y0041000D01*
X0154316Y0041000D01*
X0154316Y0040600D01*
X0149717Y0040600D01*
X0149717Y0038812D01*
X0152528Y0036000D01*
X0154317Y0036000D01*
X0154317Y0040600D01*
X0154717Y0040600D01*
X0159317Y0040600D01*
X0159317Y0038812D01*
X0156505Y0036000D01*
X0154717Y0036000D01*
X0154717Y0040600D01*
X0154316Y0040675D02*
X0144717Y0040675D01*
X0144717Y0040600D02*
X0144717Y0041000D01*
X0149317Y0041000D01*
X0149317Y0042788D01*
X0146505Y0045600D01*
X0144717Y0045600D01*
X0144717Y0041000D01*
X0144317Y0041000D01*
X0144317Y0045600D01*
X0142528Y0045600D01*
X0139717Y0042788D01*
X0139717Y0041000D01*
X0144316Y0041000D01*
X0144316Y0040600D01*
X0139717Y0040600D01*
X0139717Y0038812D01*
X0142528Y0036000D01*
X0144317Y0036000D01*
X0144317Y0040600D01*
X0144717Y0040600D01*
X0149317Y0040600D01*
X0149317Y0038812D01*
X0146505Y0036000D01*
X0144717Y0036000D01*
X0144717Y0040600D01*
X0144316Y0040675D02*
X0134717Y0040675D01*
X0134717Y0040600D02*
X0134717Y0041000D01*
X0139317Y0041000D01*
X0139317Y0042788D01*
X0136505Y0045600D01*
X0134717Y0045600D01*
X0134717Y0041000D01*
X0134317Y0041000D01*
X0134317Y0045600D01*
X0132528Y0045600D01*
X0129717Y0042788D01*
X0129717Y0041000D01*
X0134316Y0041000D01*
X0134316Y0040600D01*
X0129717Y0040600D01*
X0129717Y0038812D01*
X0132528Y0036000D01*
X0134317Y0036000D01*
X0134317Y0040600D01*
X0134717Y0040600D01*
X0139317Y0040600D01*
X0139317Y0038812D01*
X0136505Y0036000D01*
X0134717Y0036000D01*
X0134717Y0040600D01*
X0134316Y0040675D02*
X0124717Y0040675D01*
X0124717Y0040600D02*
X0124717Y0041000D01*
X0129317Y0041000D01*
X0129317Y0042788D01*
X0126505Y0045600D01*
X0124717Y0045600D01*
X0124717Y0041000D01*
X0124317Y0041000D01*
X0124317Y0045600D01*
X0122528Y0045600D01*
X0119717Y0042788D01*
X0119717Y0041000D01*
X0124316Y0041000D01*
X0124316Y0040600D01*
X0119717Y0040600D01*
X0119717Y0038812D01*
X0122528Y0036000D01*
X0124317Y0036000D01*
X0124317Y0040600D01*
X0124717Y0040600D01*
X0129317Y0040600D01*
X0129317Y0038812D01*
X0126505Y0036000D01*
X0124717Y0036000D01*
X0124717Y0040600D01*
X0124316Y0040675D02*
X0114717Y0040675D01*
X0114717Y0040600D02*
X0114717Y0041000D01*
X0119317Y0041000D01*
X0119317Y0042788D01*
X0116505Y0045600D01*
X0114717Y0045600D01*
X0114717Y0041000D01*
X0114317Y0041000D01*
X0114317Y0045600D01*
X0112528Y0045600D01*
X0109717Y0042788D01*
X0109717Y0041000D01*
X0114316Y0041000D01*
X0114316Y0040600D01*
X0109717Y0040600D01*
X0109717Y0038812D01*
X0112528Y0036000D01*
X0114317Y0036000D01*
X0114317Y0040600D01*
X0114717Y0040600D01*
X0119317Y0040600D01*
X0119317Y0038812D01*
X0116505Y0036000D01*
X0114717Y0036000D01*
X0114717Y0040600D01*
X0114316Y0040675D02*
X0104717Y0040675D01*
X0104717Y0040600D02*
X0104717Y0041000D01*
X0109317Y0041000D01*
X0109317Y0042788D01*
X0106505Y0045600D01*
X0104717Y0045600D01*
X0104717Y0041000D01*
X0104317Y0041000D01*
X0104317Y0045600D01*
X0102528Y0045600D01*
X0099717Y0042788D01*
X0099717Y0041000D01*
X0104316Y0041000D01*
X0104316Y0040600D01*
X0099717Y0040600D01*
X0099717Y0038812D01*
X0102528Y0036000D01*
X0104317Y0036000D01*
X0104317Y0040600D01*
X0104717Y0040600D01*
X0109317Y0040600D01*
X0109317Y0038812D01*
X0106505Y0036000D01*
X0104717Y0036000D01*
X0104717Y0040600D01*
X0104316Y0040675D02*
X0094717Y0040675D01*
X0094717Y0040600D02*
X0094717Y0041000D01*
X0099317Y0041000D01*
X0099317Y0042788D01*
X0096505Y0045600D01*
X0094717Y0045600D01*
X0094717Y0041000D01*
X0094317Y0041000D01*
X0094317Y0045600D01*
X0092528Y0045600D01*
X0089717Y0042788D01*
X0089717Y0041000D01*
X0094316Y0041000D01*
X0094316Y0040600D01*
X0089717Y0040600D01*
X0089717Y0038812D01*
X0092528Y0036000D01*
X0094317Y0036000D01*
X0094317Y0040600D01*
X0094717Y0040600D01*
X0099317Y0040600D01*
X0099317Y0038812D01*
X0096505Y0036000D01*
X0094717Y0036000D01*
X0094717Y0040600D01*
X0094316Y0040675D02*
X0084717Y0040675D01*
X0084717Y0040600D02*
X0084717Y0041000D01*
X0089317Y0041000D01*
X0089317Y0042788D01*
X0086505Y0045600D01*
X0084717Y0045600D01*
X0084717Y0041000D01*
X0084317Y0041000D01*
X0084317Y0045600D01*
X0082528Y0045600D01*
X0079717Y0042788D01*
X0079717Y0041000D01*
X0084316Y0041000D01*
X0084316Y0040600D01*
X0079717Y0040600D01*
X0079717Y0038812D01*
X0082528Y0036000D01*
X0084317Y0036000D01*
X0084317Y0040600D01*
X0084717Y0040600D01*
X0089317Y0040600D01*
X0089317Y0038812D01*
X0086505Y0036000D01*
X0084717Y0036000D01*
X0084717Y0040600D01*
X0084316Y0040675D02*
X0077222Y0040675D01*
X0077222Y0042273D02*
X0079717Y0042273D01*
X0080800Y0043872D02*
X0077117Y0043872D01*
X0077022Y0045470D02*
X0082399Y0045470D01*
X0081742Y0047069D02*
X0077022Y0047069D01*
X0077022Y0048667D02*
X0080144Y0048667D01*
X0079917Y0050266D02*
X0077022Y0050266D01*
X0075854Y0051864D02*
X0079917Y0051864D01*
X0080674Y0053463D02*
X0075650Y0053463D01*
X0074279Y0055061D02*
X0082117Y0055061D01*
X0082117Y0056660D02*
X0072681Y0056660D01*
X0071082Y0058258D02*
X0082117Y0058258D01*
X0080609Y0059857D02*
X0069484Y0059857D01*
X0076013Y0067847D02*
X0076013Y0079999D01*
X0078572Y0079999D02*
X0078572Y0068947D01*
X0094517Y0053003D01*
X0094517Y0050800D01*
X0090662Y0053463D02*
X0088359Y0053463D01*
X0089064Y0055061D02*
X0086917Y0055061D01*
X0086917Y0056660D02*
X0087465Y0056660D01*
X0084517Y0059343D02*
X0084517Y0050800D01*
X0089117Y0050266D02*
X0089917Y0050266D01*
X0089917Y0051864D02*
X0089117Y0051864D01*
X0088889Y0048667D02*
X0090144Y0048667D01*
X0091742Y0047069D02*
X0087291Y0047069D01*
X0086634Y0045470D02*
X0092399Y0045470D01*
X0094317Y0045470D02*
X0094717Y0045470D01*
X0094717Y0043872D02*
X0094317Y0043872D01*
X0094317Y0042273D02*
X0094717Y0042273D01*
X0094717Y0039076D02*
X0094317Y0039076D01*
X0094317Y0037478D02*
X0094717Y0037478D01*
X0091051Y0037478D02*
X0087982Y0037478D01*
X0089317Y0039076D02*
X0089717Y0039076D01*
X0089717Y0042273D02*
X0089317Y0042273D01*
X0088233Y0043872D02*
X0090800Y0043872D01*
X0096634Y0045470D02*
X0102399Y0045470D01*
X0101742Y0047069D02*
X0097291Y0047069D01*
X0098889Y0048667D02*
X0100144Y0048667D01*
X0099917Y0050266D02*
X0099117Y0050266D01*
X0099117Y0051864D02*
X0099917Y0051864D01*
X0098460Y0053463D02*
X0098359Y0053463D01*
X0098493Y0056824D02*
X0104517Y0050800D01*
X0104556Y0050839D01*
X0109117Y0050266D02*
X0109917Y0050266D01*
X0109917Y0051864D02*
X0109117Y0051864D01*
X0108359Y0053463D02*
X0110674Y0053463D01*
X0111794Y0055061D02*
X0106761Y0055061D01*
X0110196Y0056660D02*
X0102051Y0056660D01*
X0098493Y0056824D02*
X0094320Y0056824D01*
X0081131Y0070013D01*
X0081131Y0079999D01*
X0083690Y0079999D02*
X0083690Y0070997D01*
X0095107Y0059580D01*
X0110670Y0059580D01*
X0114517Y0055733D01*
X0114517Y0050800D01*
X0119117Y0050266D02*
X0119917Y0050266D01*
X0119917Y0051864D02*
X0119117Y0051864D01*
X0118359Y0053463D02*
X0120674Y0053463D01*
X0121999Y0055061D02*
X0116917Y0055061D01*
X0116731Y0056660D02*
X0120401Y0056660D01*
X0118802Y0058258D02*
X0115386Y0058258D01*
X0118316Y0062139D02*
X0099504Y0062139D01*
X0088808Y0072835D01*
X0088808Y0079999D01*
X0091367Y0079999D02*
X0091367Y0074118D01*
X0100787Y0064698D01*
X0125619Y0064698D01*
X0134477Y0055839D01*
X0134477Y0050839D01*
X0134517Y0050800D01*
X0138359Y0053463D02*
X0140674Y0053463D01*
X0139917Y0051864D02*
X0139117Y0051864D01*
X0139117Y0050266D02*
X0139917Y0050266D01*
X0140144Y0048667D02*
X0138889Y0048667D01*
X0137291Y0047069D02*
X0141742Y0047069D01*
X0142399Y0045470D02*
X0136634Y0045470D01*
X0134717Y0045470D02*
X0134317Y0045470D01*
X0134317Y0043872D02*
X0134717Y0043872D01*
X0134717Y0042273D02*
X0134317Y0042273D01*
X0134317Y0039076D02*
X0134717Y0039076D01*
X0134717Y0037478D02*
X0134317Y0037478D01*
X0131051Y0037478D02*
X0127982Y0037478D01*
X0129317Y0039076D02*
X0129717Y0039076D01*
X0129717Y0042273D02*
X0129317Y0042273D01*
X0128233Y0043872D02*
X0130800Y0043872D01*
X0132399Y0045470D02*
X0126634Y0045470D01*
X0127291Y0047069D02*
X0131742Y0047069D01*
X0130144Y0048667D02*
X0128889Y0048667D01*
X0129117Y0050266D02*
X0129917Y0050266D01*
X0129917Y0051864D02*
X0129117Y0051864D01*
X0128359Y0053463D02*
X0130674Y0053463D01*
X0131861Y0055061D02*
X0126917Y0055061D01*
X0126815Y0056660D02*
X0130263Y0056660D01*
X0128664Y0058258D02*
X0125590Y0058258D01*
X0127066Y0059857D02*
X0123992Y0059857D01*
X0125467Y0061455D02*
X0122393Y0061455D01*
X0118316Y0062139D02*
X0124517Y0055938D01*
X0124517Y0050800D01*
X0121742Y0047069D02*
X0117291Y0047069D01*
X0116634Y0045470D02*
X0122399Y0045470D01*
X0124317Y0045470D02*
X0124717Y0045470D01*
X0124717Y0043872D02*
X0124317Y0043872D01*
X0124317Y0042273D02*
X0124717Y0042273D01*
X0124717Y0039076D02*
X0124317Y0039076D01*
X0124317Y0037478D02*
X0124717Y0037478D01*
X0121051Y0037478D02*
X0117982Y0037478D01*
X0119317Y0039076D02*
X0119717Y0039076D01*
X0119717Y0042273D02*
X0119317Y0042273D01*
X0118233Y0043872D02*
X0120800Y0043872D01*
X0120144Y0048667D02*
X0118889Y0048667D01*
X0114717Y0045470D02*
X0114317Y0045470D01*
X0114317Y0043872D02*
X0114717Y0043872D01*
X0114717Y0042273D02*
X0114317Y0042273D01*
X0114317Y0039076D02*
X0114717Y0039076D01*
X0114717Y0037478D02*
X0114317Y0037478D01*
X0111051Y0037478D02*
X0107982Y0037478D01*
X0109317Y0039076D02*
X0109717Y0039076D01*
X0109717Y0042273D02*
X0109317Y0042273D01*
X0108233Y0043872D02*
X0110800Y0043872D01*
X0112399Y0045470D02*
X0106634Y0045470D01*
X0107291Y0047069D02*
X0111742Y0047069D01*
X0110144Y0048667D02*
X0108889Y0048667D01*
X0104717Y0045470D02*
X0104317Y0045470D01*
X0104317Y0043872D02*
X0104717Y0043872D01*
X0104717Y0042273D02*
X0104317Y0042273D01*
X0104317Y0039076D02*
X0104717Y0039076D01*
X0104717Y0037478D02*
X0104317Y0037478D01*
X0101051Y0037478D02*
X0097982Y0037478D01*
X0099317Y0039076D02*
X0099717Y0039076D01*
X0099717Y0042273D02*
X0099317Y0042273D01*
X0098233Y0043872D02*
X0100800Y0043872D01*
X0084717Y0043872D02*
X0084317Y0043872D01*
X0084317Y0045470D02*
X0084717Y0045470D01*
X0084717Y0042273D02*
X0084317Y0042273D01*
X0084317Y0039076D02*
X0084717Y0039076D01*
X0084717Y0037478D02*
X0084317Y0037478D01*
X0081051Y0037478D02*
X0076535Y0037478D01*
X0077222Y0039076D02*
X0079717Y0039076D01*
X0073638Y0039076D02*
X0073269Y0039076D01*
X0073269Y0037478D02*
X0073638Y0037478D01*
X0073269Y0037110D02*
X0073269Y0040891D01*
X0069685Y0040891D01*
X0069685Y0038673D01*
X0069808Y0038215D01*
X0070045Y0037805D01*
X0070380Y0037470D01*
X0070790Y0037233D01*
X0071248Y0037110D01*
X0073269Y0037110D01*
X0070372Y0037478D02*
X0048626Y0037478D01*
X0049781Y0039076D02*
X0056381Y0039076D01*
X0056381Y0040675D02*
X0049781Y0040675D01*
X0043681Y0039076D02*
X0043681Y0039076D01*
X0043681Y0037478D02*
X0043681Y0037478D01*
X0068181Y0039076D02*
X0069685Y0039076D01*
X0069685Y0040675D02*
X0068181Y0040675D01*
X0067939Y0042273D02*
X0069685Y0042273D01*
X0073269Y0040675D02*
X0073638Y0040675D01*
X0084517Y0059343D02*
X0076013Y0067847D01*
X0086090Y0072645D02*
X0086408Y0072645D01*
X0086408Y0074243D02*
X0086090Y0074243D01*
X0086249Y0075842D02*
X0086249Y0075842D01*
X0086249Y0077440D02*
X0086249Y0077440D01*
X0086249Y0079039D02*
X0086249Y0079039D01*
X0086249Y0080637D02*
X0086249Y0080637D01*
X0086249Y0082236D02*
X0086249Y0082236D01*
X0086249Y0083835D02*
X0086249Y0083835D01*
X0093926Y0079999D02*
X0093926Y0075272D01*
X0101941Y0067257D01*
X0133103Y0067257D01*
X0144517Y0055843D01*
X0144517Y0050800D01*
X0148359Y0053463D02*
X0150674Y0053463D01*
X0149917Y0051864D02*
X0149117Y0051864D01*
X0149117Y0050266D02*
X0149917Y0050266D01*
X0150144Y0048667D02*
X0148889Y0048667D01*
X0147291Y0047069D02*
X0151742Y0047069D01*
X0152399Y0045470D02*
X0146634Y0045470D01*
X0144717Y0045470D02*
X0144317Y0045470D01*
X0144317Y0043872D02*
X0144717Y0043872D01*
X0144717Y0042273D02*
X0144317Y0042273D01*
X0144317Y0039076D02*
X0144717Y0039076D01*
X0144717Y0037478D02*
X0144317Y0037478D01*
X0147982Y0037478D02*
X0151051Y0037478D01*
X0149717Y0039076D02*
X0149317Y0039076D01*
X0149317Y0042273D02*
X0149717Y0042273D01*
X0150800Y0043872D02*
X0148233Y0043872D01*
X0154317Y0043872D02*
X0154717Y0043872D01*
X0154717Y0045470D02*
X0154317Y0045470D01*
X0156634Y0045470D02*
X0169406Y0045470D01*
X0168750Y0047069D02*
X0157291Y0047069D01*
X0158889Y0048667D02*
X0167152Y0048667D01*
X0166924Y0050266D02*
X0159117Y0050266D01*
X0159117Y0051864D02*
X0166924Y0051864D01*
X0167682Y0053463D02*
X0158359Y0053463D01*
X0156956Y0055061D02*
X0169124Y0055061D01*
X0169124Y0056660D02*
X0156841Y0056660D01*
X0155598Y0058258D02*
X0169124Y0058258D01*
X0169124Y0059857D02*
X0153999Y0059857D01*
X0152401Y0061455D02*
X0169124Y0061455D01*
X0169124Y0063054D02*
X0150802Y0063054D01*
X0149204Y0064652D02*
X0169124Y0064652D01*
X0169124Y0066251D02*
X0147605Y0066251D01*
X0146007Y0067849D02*
X0169124Y0067849D01*
X0169124Y0069448D02*
X0144408Y0069448D01*
X0142810Y0071046D02*
X0169124Y0071046D01*
X0169124Y0072645D02*
X0103629Y0072645D01*
X0102030Y0074243D02*
X0169124Y0074243D01*
X0169124Y0075842D02*
X0125834Y0075842D01*
X0125844Y0075878D02*
X0125844Y0078096D01*
X0122260Y0078096D01*
X0122260Y0074315D01*
X0124281Y0074315D01*
X0124739Y0074438D01*
X0125149Y0074675D01*
X0125484Y0075010D01*
X0125721Y0075420D01*
X0125844Y0075878D01*
X0125844Y0077440D02*
X0133054Y0077440D01*
X0132287Y0079039D02*
X0125844Y0079039D01*
X0125844Y0080637D02*
X0130694Y0080637D01*
X0132312Y0082414D02*
X0129753Y0084973D01*
X0122076Y0084973D01*
X0119320Y0084973D01*
X0114989Y0089304D01*
X0110908Y0089304D01*
X0115408Y0085433D02*
X0115466Y0085433D01*
X0117064Y0083835D02*
X0106340Y0083835D01*
X0106612Y0082236D02*
X0118507Y0082236D01*
X0118307Y0080637D02*
X0106612Y0080637D01*
X0106612Y0079039D02*
X0118307Y0079039D01*
X0118307Y0077440D02*
X0106612Y0077440D01*
X0106018Y0075842D02*
X0118317Y0075842D01*
X0121891Y0075842D02*
X0122260Y0075842D01*
X0122260Y0077440D02*
X0121891Y0077440D01*
X0125644Y0082236D02*
X0127147Y0082236D01*
X0132312Y0082414D02*
X0137036Y0082414D01*
X0141786Y0082236D02*
X0147285Y0082236D01*
X0147285Y0081639D02*
X0143110Y0081639D01*
X0143110Y0078634D01*
X0143233Y0078176D01*
X0143470Y0077766D01*
X0143805Y0077430D01*
X0144215Y0077194D01*
X0144673Y0077071D01*
X0147285Y0077071D01*
X0147285Y0081639D01*
X0148835Y0081639D01*
X0148835Y0083189D01*
X0153009Y0083189D01*
X0153009Y0086194D01*
X0152887Y0086652D01*
X0152650Y0087063D01*
X0152315Y0087398D01*
X0151904Y0087635D01*
X0151446Y0087757D01*
X0148835Y0087757D01*
X0148835Y0083189D01*
X0147285Y0083189D01*
X0147285Y0081639D01*
X0147285Y0080637D02*
X0148835Y0080637D01*
X0148835Y0081639D02*
X0148835Y0077071D01*
X0151446Y0077071D01*
X0151904Y0077194D01*
X0152315Y0077430D01*
X0152650Y0077766D01*
X0152887Y0078176D01*
X0153009Y0078634D01*
X0153009Y0081639D01*
X0148835Y0081639D01*
X0148835Y0082236D02*
X0169124Y0082236D01*
X0169124Y0080637D02*
X0153009Y0080637D01*
X0153009Y0079039D02*
X0169124Y0079039D01*
X0169124Y0077440D02*
X0152325Y0077440D01*
X0148835Y0077440D02*
X0147285Y0077440D01*
X0147285Y0079039D02*
X0148835Y0079039D01*
X0147285Y0083189D02*
X0143110Y0083189D01*
X0143110Y0086194D01*
X0143233Y0086652D01*
X0143470Y0087063D01*
X0143805Y0087398D01*
X0144215Y0087635D01*
X0144673Y0087757D01*
X0147285Y0087757D01*
X0147285Y0083189D01*
X0147285Y0083835D02*
X0148835Y0083835D01*
X0148835Y0085433D02*
X0147285Y0085433D01*
X0147285Y0087032D02*
X0148835Y0087032D01*
X0148835Y0089079D02*
X0151446Y0089079D01*
X0151904Y0089201D01*
X0152315Y0089438D01*
X0152650Y0089774D01*
X0152887Y0090184D01*
X0153009Y0090642D01*
X0153009Y0093647D01*
X0148835Y0093647D01*
X0148835Y0095197D01*
X0153009Y0095197D01*
X0153009Y0098202D01*
X0152887Y0098660D01*
X0152650Y0099071D01*
X0152315Y0099406D01*
X0151904Y0099643D01*
X0151446Y0099765D01*
X0148835Y0099765D01*
X0148835Y0095197D01*
X0147285Y0095197D01*
X0147285Y0099765D01*
X0144673Y0099765D01*
X0144215Y0099643D01*
X0143805Y0099406D01*
X0143470Y0099071D01*
X0143233Y0098660D01*
X0143110Y0098202D01*
X0143110Y0095197D01*
X0147285Y0095197D01*
X0147285Y0093647D01*
X0148835Y0093647D01*
X0148835Y0089079D01*
X0148835Y0090229D02*
X0147285Y0090229D01*
X0147285Y0089079D02*
X0144673Y0089079D01*
X0144215Y0089201D01*
X0143805Y0089438D01*
X0143470Y0089774D01*
X0143233Y0090184D01*
X0143110Y0090642D01*
X0143110Y0093647D01*
X0147285Y0093647D01*
X0147285Y0089079D01*
X0147285Y0091827D02*
X0148835Y0091827D01*
X0148835Y0093426D02*
X0147285Y0093426D01*
X0147285Y0095024D02*
X0141786Y0095024D01*
X0141786Y0093426D02*
X0143110Y0093426D01*
X0143110Y0091827D02*
X0141786Y0091827D01*
X0141786Y0090229D02*
X0143221Y0090229D01*
X0143452Y0087032D02*
X0141374Y0087032D01*
X0141786Y0085433D02*
X0143110Y0085433D01*
X0143110Y0083835D02*
X0141786Y0083835D01*
X0141786Y0080637D02*
X0143110Y0080637D01*
X0143110Y0079039D02*
X0141786Y0079039D01*
X0141018Y0077440D02*
X0143795Y0077440D01*
X0140646Y0069816D02*
X0154556Y0055906D01*
X0154556Y0050839D01*
X0154517Y0050800D01*
X0152007Y0055061D02*
X0146917Y0055061D01*
X0146776Y0056660D02*
X0150408Y0056660D01*
X0148810Y0058258D02*
X0145495Y0058258D01*
X0143897Y0059857D02*
X0147211Y0059857D01*
X0145613Y0061455D02*
X0142298Y0061455D01*
X0140700Y0063054D02*
X0144014Y0063054D01*
X0142415Y0064652D02*
X0139101Y0064652D01*
X0137503Y0066251D02*
X0140817Y0066251D01*
X0140646Y0069816D02*
X0103064Y0069816D01*
X0096485Y0076395D01*
X0096485Y0079999D01*
X0087202Y0071046D02*
X0087034Y0071046D01*
X0088633Y0069448D02*
X0088801Y0069448D01*
X0090231Y0067849D02*
X0090399Y0067849D01*
X0091830Y0066251D02*
X0091998Y0066251D01*
X0093428Y0064652D02*
X0093597Y0064652D01*
X0095027Y0063054D02*
X0095195Y0063054D01*
X0110908Y0091863D02*
X0129753Y0091863D01*
X0132312Y0094422D01*
X0137036Y0094422D01*
X0141786Y0096623D02*
X0143110Y0096623D01*
X0143115Y0098221D02*
X0141786Y0098221D01*
X0147285Y0098221D02*
X0148835Y0098221D01*
X0148835Y0096623D02*
X0147285Y0096623D01*
X0148835Y0095024D02*
X0169124Y0095024D01*
X0169124Y0093426D02*
X0153009Y0093426D01*
X0153009Y0091827D02*
X0169124Y0091827D01*
X0169124Y0090229D02*
X0152899Y0090229D01*
X0152668Y0087032D02*
X0169124Y0087032D01*
X0169124Y0088630D02*
X0131820Y0088630D01*
X0129753Y0091863D02*
X0122272Y0091863D01*
X0110908Y0091863D01*
X0115408Y0094263D02*
X0115408Y0102258D01*
X0119366Y0102258D01*
X0119199Y0102162D01*
X0118864Y0101826D01*
X0118627Y0101416D01*
X0118504Y0100958D01*
X0118504Y0098740D01*
X0122088Y0098740D01*
X0122088Y0098372D01*
X0118504Y0098372D01*
X0118504Y0096154D01*
X0118627Y0095696D01*
X0118864Y0095285D01*
X0119081Y0095068D01*
X0118704Y0094691D01*
X0118704Y0094263D01*
X0115408Y0094263D01*
X0115408Y0095024D02*
X0119037Y0095024D01*
X0118504Y0096623D02*
X0115408Y0096623D01*
X0115408Y0098221D02*
X0118504Y0098221D01*
X0118504Y0099820D02*
X0115408Y0099820D01*
X0115408Y0101418D02*
X0118628Y0101418D01*
X0125917Y0101418D02*
X0167287Y0101418D01*
X0168886Y0099820D02*
X0126041Y0099820D01*
X0126041Y0098221D02*
X0132287Y0098221D01*
X0131353Y0096623D02*
X0126041Y0096623D01*
X0125508Y0095024D02*
X0127571Y0095024D01*
X0110908Y0104658D02*
X0167441Y0104658D01*
X0171524Y0100575D01*
X0171524Y0050800D01*
X0176124Y0050266D02*
X0176924Y0050266D01*
X0176924Y0051864D02*
X0176124Y0051864D01*
X0175367Y0053463D02*
X0177682Y0053463D01*
X0179124Y0055061D02*
X0173924Y0055061D01*
X0173924Y0056660D02*
X0179124Y0056660D01*
X0179124Y0058258D02*
X0173924Y0058258D01*
X0173924Y0059857D02*
X0179124Y0059857D01*
X0179124Y0061455D02*
X0173924Y0061455D01*
X0173924Y0063054D02*
X0179124Y0063054D01*
X0179124Y0064652D02*
X0173924Y0064652D01*
X0173924Y0066251D02*
X0179124Y0066251D01*
X0179124Y0067849D02*
X0173924Y0067849D01*
X0173924Y0069448D02*
X0179124Y0069448D01*
X0179124Y0071046D02*
X0173924Y0071046D01*
X0173924Y0072645D02*
X0179124Y0072645D01*
X0179124Y0074243D02*
X0173924Y0074243D01*
X0173924Y0075842D02*
X0179124Y0075842D01*
X0179124Y0077440D02*
X0173924Y0077440D01*
X0173924Y0079039D02*
X0179124Y0079039D01*
X0179124Y0080637D02*
X0173924Y0080637D01*
X0173924Y0082236D02*
X0179124Y0082236D01*
X0179124Y0083835D02*
X0173924Y0083835D01*
X0173924Y0085433D02*
X0179124Y0085433D01*
X0179124Y0087032D02*
X0173924Y0087032D01*
X0173924Y0088630D02*
X0179124Y0088630D01*
X0179124Y0090229D02*
X0173924Y0090229D01*
X0173924Y0091827D02*
X0179124Y0091827D01*
X0178680Y0093426D02*
X0173924Y0093426D01*
X0173924Y0095024D02*
X0177082Y0095024D01*
X0175483Y0096623D02*
X0173924Y0096623D01*
X0169124Y0096623D02*
X0153009Y0096623D01*
X0153004Y0098221D02*
X0169124Y0098221D01*
X0168283Y0107217D02*
X0110908Y0107217D01*
X0110908Y0109776D02*
X0169255Y0109776D01*
X0191524Y0087507D01*
X0191524Y0050800D01*
X0187682Y0053463D02*
X0185367Y0053463D01*
X0186124Y0051864D02*
X0186924Y0051864D01*
X0186924Y0050266D02*
X0186124Y0050266D01*
X0185897Y0048667D02*
X0187152Y0048667D01*
X0188750Y0047069D02*
X0184299Y0047069D01*
X0183642Y0045470D02*
X0189406Y0045470D01*
X0191324Y0045470D02*
X0191724Y0045470D01*
X0191724Y0043872D02*
X0191324Y0043872D01*
X0191324Y0042273D02*
X0191724Y0042273D01*
X0191724Y0039076D02*
X0191324Y0039076D01*
X0191324Y0037478D02*
X0191724Y0037478D01*
X0194990Y0037478D02*
X0198059Y0037478D01*
X0196724Y0039076D02*
X0196324Y0039076D01*
X0196324Y0042273D02*
X0196724Y0042273D01*
X0197808Y0043872D02*
X0195241Y0043872D01*
X0193642Y0045470D02*
X0199406Y0045470D01*
X0198750Y0047069D02*
X0194299Y0047069D01*
X0195897Y0048667D02*
X0197152Y0048667D01*
X0196924Y0050266D02*
X0196124Y0050266D01*
X0196124Y0051864D02*
X0196924Y0051864D01*
X0197682Y0053463D02*
X0195367Y0053463D01*
X0193924Y0055061D02*
X0199124Y0055061D01*
X0199124Y0056660D02*
X0193924Y0056660D01*
X0193924Y0058258D02*
X0199124Y0058258D01*
X0199124Y0059857D02*
X0193924Y0059857D01*
X0193924Y0061455D02*
X0199124Y0061455D01*
X0199124Y0063054D02*
X0193924Y0063054D01*
X0193924Y0064652D02*
X0199124Y0064652D01*
X0199124Y0066251D02*
X0193924Y0066251D01*
X0193924Y0067849D02*
X0199124Y0067849D01*
X0199124Y0069448D02*
X0193924Y0069448D01*
X0193924Y0071046D02*
X0199124Y0071046D01*
X0199124Y0072645D02*
X0193924Y0072645D01*
X0193924Y0074243D02*
X0199124Y0074243D01*
X0199124Y0075842D02*
X0193924Y0075842D01*
X0193924Y0077440D02*
X0199124Y0077440D01*
X0199124Y0079039D02*
X0193924Y0079039D01*
X0193924Y0080637D02*
X0198398Y0080637D01*
X0196799Y0082236D02*
X0193924Y0082236D01*
X0193924Y0083835D02*
X0195201Y0083835D01*
X0189124Y0083835D02*
X0183924Y0083835D01*
X0183924Y0085433D02*
X0189124Y0085433D01*
X0188605Y0087032D02*
X0183924Y0087032D01*
X0183924Y0088630D02*
X0187007Y0088630D01*
X0185408Y0090229D02*
X0183924Y0090229D01*
X0181524Y0093976D02*
X0168283Y0107217D01*
X0170094Y0112335D02*
X0110908Y0112335D01*
X0110908Y0117454D02*
X0168437Y0117454D01*
X0211524Y0074366D01*
X0211524Y0050800D01*
X0215367Y0053463D02*
X0217682Y0053463D01*
X0216924Y0051864D02*
X0216124Y0051864D01*
X0216124Y0050266D02*
X0216924Y0050266D01*
X0217152Y0048667D02*
X0215897Y0048667D01*
X0214299Y0047069D02*
X0218750Y0047069D01*
X0219406Y0045470D02*
X0213642Y0045470D01*
X0211724Y0045470D02*
X0211324Y0045470D01*
X0211324Y0043872D02*
X0211724Y0043872D01*
X0211724Y0042273D02*
X0211324Y0042273D01*
X0211324Y0039076D02*
X0211724Y0039076D01*
X0211724Y0037478D02*
X0211324Y0037478D01*
X0214990Y0037478D02*
X0218059Y0037478D01*
X0216724Y0039076D02*
X0216324Y0039076D01*
X0216324Y0042273D02*
X0216724Y0042273D01*
X0217808Y0043872D02*
X0215241Y0043872D01*
X0209406Y0045470D02*
X0203642Y0045470D01*
X0204299Y0047069D02*
X0208750Y0047069D01*
X0207152Y0048667D02*
X0205897Y0048667D01*
X0206124Y0050266D02*
X0206924Y0050266D01*
X0206924Y0051864D02*
X0206124Y0051864D01*
X0205367Y0053463D02*
X0207682Y0053463D01*
X0209124Y0055061D02*
X0203924Y0055061D01*
X0203924Y0056660D02*
X0209124Y0056660D01*
X0209124Y0058258D02*
X0203924Y0058258D01*
X0203924Y0059857D02*
X0209124Y0059857D01*
X0209124Y0061455D02*
X0203924Y0061455D01*
X0203924Y0063054D02*
X0209124Y0063054D01*
X0209124Y0064652D02*
X0203924Y0064652D01*
X0203924Y0066251D02*
X0209124Y0066251D01*
X0209124Y0067849D02*
X0203924Y0067849D01*
X0203924Y0069448D02*
X0209124Y0069448D01*
X0209124Y0071046D02*
X0203924Y0071046D01*
X0203924Y0072645D02*
X0209124Y0072645D01*
X0208253Y0074243D02*
X0203924Y0074243D01*
X0203924Y0075842D02*
X0206654Y0075842D01*
X0205056Y0077440D02*
X0203924Y0077440D01*
X0201524Y0080905D02*
X0170094Y0112335D01*
X0165427Y0120600D02*
X0106576Y0120600D01*
X0106612Y0122199D02*
X0163829Y0122199D01*
X0162230Y0123797D02*
X0106612Y0123797D01*
X0106612Y0125396D02*
X0160632Y0125396D01*
X0159033Y0126994D02*
X0107482Y0126994D01*
X0107342Y0130249D02*
X0159173Y0130249D01*
X0221485Y0067937D01*
X0221485Y0050839D01*
X0221524Y0050800D01*
X0225367Y0053463D02*
X0227682Y0053463D01*
X0226924Y0051864D02*
X0226124Y0051864D01*
X0226124Y0050266D02*
X0226924Y0050266D01*
X0227152Y0048667D02*
X0225897Y0048667D01*
X0224299Y0047069D02*
X0228750Y0047069D01*
X0229406Y0045470D02*
X0223642Y0045470D01*
X0221724Y0045470D02*
X0221324Y0045470D01*
X0221324Y0043872D02*
X0221724Y0043872D01*
X0221724Y0042273D02*
X0221324Y0042273D01*
X0221324Y0039076D02*
X0221724Y0039076D01*
X0221724Y0037478D02*
X0221324Y0037478D01*
X0224990Y0037478D02*
X0228059Y0037478D01*
X0226724Y0039076D02*
X0226324Y0039076D01*
X0226324Y0042273D02*
X0226724Y0042273D01*
X0227808Y0043872D02*
X0225241Y0043872D01*
X0231324Y0043872D02*
X0231724Y0043872D01*
X0231724Y0045470D02*
X0231324Y0045470D01*
X0233642Y0045470D02*
X0239406Y0045470D01*
X0239536Y0045600D02*
X0236724Y0042788D01*
X0236724Y0041000D01*
X0241324Y0041000D01*
X0241324Y0045600D01*
X0239536Y0045600D01*
X0238750Y0047069D02*
X0234299Y0047069D01*
X0235897Y0048667D02*
X0237152Y0048667D01*
X0241524Y0050800D02*
X0241524Y0054910D01*
X0161068Y0135367D01*
X0105175Y0135367D01*
X0099044Y0129236D01*
X0099672Y0133388D02*
X0099802Y0133388D01*
X0101271Y0134987D02*
X0101401Y0134987D01*
X0107342Y0130249D02*
X0104162Y0127069D01*
X0104162Y0124199D01*
X0088808Y0124199D02*
X0088808Y0154319D01*
X0095447Y0160957D01*
X0110658Y0160957D01*
X0128145Y0178444D01*
X0131957Y0182257D01*
X0131957Y0186666D01*
X0134439Y0182926D02*
X0134439Y0172976D01*
X0133027Y0172976D01*
X0132089Y0172038D01*
X0132089Y0166113D01*
X0132127Y0166076D01*
X0132089Y0166038D01*
X0132089Y0162554D01*
X0130333Y0160798D01*
X0128955Y0160798D01*
X0128153Y0161601D01*
X0126764Y0162176D01*
X0125261Y0162176D01*
X0123873Y0161601D01*
X0123070Y0160798D01*
X0113893Y0160798D01*
X0129481Y0176386D01*
X0129537Y0176410D01*
X0130213Y0177085D01*
X0130236Y0177141D01*
X0133317Y0180222D01*
X0133992Y0180897D01*
X0134357Y0181779D01*
X0134357Y0182844D01*
X0134439Y0182926D01*
X0134439Y0181344D02*
X0134177Y0181344D01*
X0134439Y0179745D02*
X0132840Y0179745D01*
X0131242Y0178147D02*
X0134439Y0178147D01*
X0134439Y0176548D02*
X0129676Y0176548D01*
X0128045Y0174950D02*
X0134439Y0174950D01*
X0134439Y0173351D02*
X0126446Y0173351D01*
X0124848Y0171753D02*
X0132089Y0171753D01*
X0132089Y0170154D02*
X0123249Y0170154D01*
X0121650Y0168556D02*
X0132089Y0168556D01*
X0132089Y0166957D02*
X0120052Y0166957D01*
X0118453Y0165359D02*
X0132089Y0165359D01*
X0132089Y0163760D02*
X0116855Y0163760D01*
X0115256Y0162162D02*
X0125225Y0162162D01*
X0126800Y0162162D02*
X0131697Y0162162D01*
X0131328Y0158398D02*
X0136005Y0163076D01*
X0136839Y0163076D01*
X0153375Y0163076D01*
X0168335Y0163076D01*
X0184083Y0163076D01*
X0179333Y0160563D02*
X0173085Y0160563D01*
X0173085Y0166957D02*
X0179333Y0166957D01*
X0179333Y0168556D02*
X0173085Y0168556D01*
X0173085Y0170154D02*
X0179333Y0170154D01*
X0179333Y0171753D02*
X0173085Y0171753D01*
X0170735Y0173351D02*
X0181683Y0173351D01*
X0181683Y0174950D02*
X0170735Y0174950D01*
X0170735Y0176548D02*
X0181683Y0176548D01*
X0182524Y0178147D02*
X0170662Y0178147D01*
X0169477Y0179745D02*
X0184123Y0179745D01*
X0184636Y0181344D02*
X0169357Y0181344D01*
X0169357Y0182942D02*
X0169459Y0182942D01*
X0166957Y0178871D02*
X0168335Y0177493D01*
X0168335Y0169076D01*
X0168729Y0170603D01*
X0165935Y0173351D02*
X0155650Y0173351D01*
X0154391Y0174950D02*
X0165935Y0174950D01*
X0165886Y0176548D02*
X0152792Y0176548D01*
X0151194Y0178147D02*
X0164660Y0178147D01*
X0164557Y0179745D02*
X0149595Y0179745D01*
X0149279Y0181344D02*
X0164557Y0181344D01*
X0164557Y0182942D02*
X0164456Y0182942D01*
X0166957Y0178871D02*
X0166957Y0189501D01*
X0171957Y0194501D01*
X0171957Y0196666D01*
X0167557Y0197329D02*
X0166557Y0197329D01*
X0166557Y0196766D02*
X0166557Y0198572D01*
X0163863Y0201266D01*
X0162057Y0201266D01*
X0162057Y0196766D01*
X0161857Y0196766D01*
X0161857Y0196566D01*
X0157357Y0196566D01*
X0157357Y0194761D01*
X0160052Y0192066D01*
X0161857Y0192066D01*
X0161857Y0196566D01*
X0162057Y0196566D01*
X0162057Y0192066D01*
X0163863Y0192066D01*
X0166557Y0194761D01*
X0166557Y0196566D01*
X0162058Y0196566D01*
X0162058Y0196766D01*
X0166557Y0196766D01*
X0166557Y0195730D02*
X0167557Y0195730D01*
X0168194Y0194132D02*
X0165929Y0194132D01*
X0166596Y0192533D02*
X0164330Y0192533D01*
X0163911Y0190935D02*
X0164997Y0190935D01*
X0162057Y0192533D02*
X0161857Y0192533D01*
X0161857Y0194132D02*
X0162057Y0194132D01*
X0162057Y0195730D02*
X0161857Y0195730D01*
X0161857Y0196766D02*
X0157357Y0196766D01*
X0157357Y0198572D01*
X0160052Y0201266D01*
X0161857Y0201266D01*
X0161857Y0196766D01*
X0161857Y0197329D02*
X0162057Y0197329D01*
X0162057Y0198927D02*
X0161857Y0198927D01*
X0161857Y0200526D02*
X0162057Y0200526D01*
X0164603Y0200526D02*
X0169595Y0200526D01*
X0167996Y0198927D02*
X0166202Y0198927D01*
X0159312Y0200526D02*
X0154320Y0200526D01*
X0153780Y0201066D02*
X0156357Y0198489D01*
X0156357Y0194844D01*
X0153780Y0192266D01*
X0150135Y0192266D01*
X0147557Y0194844D01*
X0147557Y0198489D01*
X0150135Y0201066D01*
X0153780Y0201066D01*
X0155919Y0198927D02*
X0157713Y0198927D01*
X0157357Y0197329D02*
X0156357Y0197329D01*
X0156357Y0195730D02*
X0157357Y0195730D01*
X0157986Y0194132D02*
X0155646Y0194132D01*
X0154047Y0192533D02*
X0159585Y0192533D01*
X0160004Y0190935D02*
X0153911Y0190935D01*
X0155510Y0189336D02*
X0158405Y0189336D01*
X0157557Y0187738D02*
X0156357Y0187738D01*
X0156357Y0186139D02*
X0157557Y0186139D01*
X0157860Y0184541D02*
X0156055Y0184541D01*
X0154456Y0182942D02*
X0159459Y0182942D01*
X0149459Y0182942D02*
X0149279Y0182942D01*
X0146879Y0179068D02*
X0153375Y0172572D01*
X0153375Y0169076D01*
X0158125Y0168556D02*
X0163585Y0168556D01*
X0163585Y0170154D02*
X0158125Y0170154D01*
X0158125Y0171753D02*
X0163585Y0171753D01*
X0163585Y0166957D02*
X0158125Y0166957D01*
X0158125Y0160563D02*
X0163585Y0160563D01*
X0149577Y0172976D02*
X0149562Y0172976D01*
X0148625Y0172038D01*
X0148625Y0166113D01*
X0148662Y0166076D01*
X0148625Y0166038D01*
X0148625Y0165476D01*
X0141589Y0165476D01*
X0141589Y0166038D01*
X0141552Y0166076D01*
X0141589Y0166113D01*
X0141589Y0172038D01*
X0140652Y0172976D01*
X0139239Y0172976D01*
X0139239Y0182879D01*
X0140052Y0182066D01*
X0141857Y0182066D01*
X0141857Y0186566D01*
X0142057Y0186566D01*
X0142057Y0182066D01*
X0143863Y0182066D01*
X0144479Y0182682D01*
X0144479Y0178590D01*
X0144844Y0177708D01*
X0149577Y0172976D01*
X0149201Y0173351D02*
X0139239Y0173351D01*
X0139239Y0174950D02*
X0147603Y0174950D01*
X0146004Y0176548D02*
X0139239Y0176548D01*
X0139239Y0178147D02*
X0144663Y0178147D01*
X0144479Y0179745D02*
X0139239Y0179745D01*
X0139239Y0181344D02*
X0144479Y0181344D01*
X0142057Y0182942D02*
X0141857Y0182942D01*
X0141857Y0184541D02*
X0142057Y0184541D01*
X0142057Y0186139D02*
X0141857Y0186139D01*
X0139721Y0190935D02*
X0138406Y0190935D01*
X0139868Y0192533D02*
X0136807Y0192533D01*
X0135646Y0194132D02*
X0138269Y0194132D01*
X0137557Y0195730D02*
X0136357Y0195730D01*
X0136357Y0197329D02*
X0137557Y0197329D01*
X0137996Y0198927D02*
X0135919Y0198927D01*
X0134320Y0200526D02*
X0139595Y0200526D01*
X0141957Y0196666D02*
X0141957Y0193831D01*
X0146879Y0188910D01*
X0146879Y0179068D01*
X0148625Y0171753D02*
X0141589Y0171753D01*
X0141589Y0170154D02*
X0148625Y0170154D01*
X0148625Y0168556D02*
X0141589Y0168556D01*
X0141589Y0166957D02*
X0148625Y0166957D01*
X0148625Y0160563D02*
X0141589Y0160563D01*
X0136839Y0169076D02*
X0136839Y0189107D01*
X0131957Y0193989D01*
X0131957Y0196666D01*
X0127557Y0197329D02*
X0126357Y0197329D01*
X0126357Y0195730D02*
X0127557Y0195730D01*
X0128269Y0194132D02*
X0125646Y0194132D01*
X0126932Y0192533D02*
X0129868Y0192533D01*
X0130004Y0190935D02*
X0128531Y0190935D01*
X0126997Y0189075D02*
X0124405Y0191666D01*
X0116721Y0191666D01*
X0111957Y0186902D01*
X0111957Y0186666D01*
X0108405Y0189336D02*
X0105510Y0189336D01*
X0106357Y0188489D02*
X0103780Y0191066D01*
X0100135Y0191066D01*
X0097557Y0188489D01*
X0097557Y0184844D01*
X0100135Y0182266D01*
X0103780Y0182266D01*
X0106357Y0184844D01*
X0106357Y0188489D01*
X0106357Y0187738D02*
X0107557Y0187738D01*
X0107557Y0186139D02*
X0106357Y0186139D01*
X0106055Y0184541D02*
X0107860Y0184541D01*
X0109459Y0182942D02*
X0104456Y0182942D01*
X0099459Y0182942D02*
X0094456Y0182942D01*
X0093780Y0182266D02*
X0096357Y0184844D01*
X0096357Y0188489D01*
X0093780Y0191066D01*
X0090135Y0191066D01*
X0087557Y0188489D01*
X0087557Y0185660D01*
X0073373Y0171476D01*
X0073085Y0171476D01*
X0073085Y0172038D01*
X0072148Y0172976D01*
X0064523Y0172976D01*
X0063585Y0172038D01*
X0063585Y0166113D01*
X0063623Y0166076D01*
X0063585Y0166038D01*
X0063585Y0165476D01*
X0057731Y0165476D01*
X0057731Y0166038D01*
X0057694Y0166076D01*
X0057731Y0166113D01*
X0057731Y0172038D01*
X0056794Y0172976D01*
X0055598Y0172976D01*
X0056534Y0173912D01*
X0072081Y0173912D01*
X0072963Y0174277D01*
X0080952Y0182266D01*
X0083780Y0182266D01*
X0086357Y0184844D01*
X0086357Y0188489D01*
X0083780Y0191066D01*
X0080135Y0191066D01*
X0077557Y0188489D01*
X0077557Y0185660D01*
X0070609Y0178712D01*
X0067397Y0178712D01*
X0070952Y0182266D01*
X0073780Y0182266D01*
X0076357Y0184844D01*
X0076357Y0188489D01*
X0073780Y0191066D01*
X0070135Y0191066D01*
X0067557Y0188489D01*
X0067557Y0185660D01*
X0063168Y0181271D01*
X0051098Y0181271D01*
X0052093Y0182266D01*
X0053780Y0182266D01*
X0056357Y0184844D01*
X0056357Y0188489D01*
X0053780Y0191066D01*
X0050135Y0191066D01*
X0047557Y0188489D01*
X0047557Y0184844D01*
X0047720Y0184681D01*
X0046869Y0183830D01*
X0045344Y0183830D01*
X0046357Y0184844D01*
X0046357Y0188489D01*
X0043780Y0191066D01*
X0040135Y0191066D01*
X0037557Y0188489D01*
X0037557Y0184844D01*
X0038571Y0183830D01*
X0035344Y0183830D01*
X0036357Y0184844D01*
X0036357Y0188489D01*
X0033780Y0191066D01*
X0030135Y0191066D01*
X0027557Y0188489D01*
X0027557Y0184844D01*
X0028832Y0183569D01*
X0028580Y0183465D01*
X0027905Y0182789D01*
X0020913Y0175797D01*
X0020238Y0175122D01*
X0019872Y0174240D01*
X0019872Y0172976D01*
X0018460Y0172976D01*
X0017522Y0172038D01*
X0017522Y0166113D01*
X0017560Y0166076D01*
X0017522Y0166038D01*
X0017522Y0160113D01*
X0018460Y0159176D01*
X0026085Y0159176D01*
X0027022Y0160113D01*
X0027022Y0160676D01*
X0032877Y0160676D01*
X0032877Y0160113D01*
X0033814Y0159176D01*
X0041440Y0159176D01*
X0042377Y0160113D01*
X0042377Y0160676D01*
X0048231Y0160676D01*
X0048231Y0160113D01*
X0049168Y0159176D01*
X0056794Y0159176D01*
X0057731Y0160113D01*
X0057731Y0160676D01*
X0063585Y0160676D01*
X0063585Y0160113D01*
X0064523Y0159176D01*
X0072148Y0159176D01*
X0073085Y0160113D01*
X0073085Y0160676D01*
X0075778Y0160676D01*
X0076581Y0159873D01*
X0077970Y0159298D01*
X0079473Y0159298D01*
X0080861Y0159873D01*
X0081924Y0160936D01*
X0082499Y0162324D01*
X0082499Y0163827D01*
X0081924Y0165216D01*
X0080861Y0166278D01*
X0079473Y0166854D01*
X0077970Y0166854D01*
X0076581Y0166278D01*
X0075778Y0165476D01*
X0073085Y0165476D01*
X0073085Y0166038D01*
X0073048Y0166076D01*
X0073085Y0166113D01*
X0073085Y0166676D01*
X0074844Y0166676D01*
X0075726Y0167041D01*
X0090952Y0182266D01*
X0093780Y0182266D01*
X0096055Y0184541D02*
X0097860Y0184541D01*
X0097557Y0186139D02*
X0096357Y0186139D01*
X0096357Y0187738D02*
X0097557Y0187738D01*
X0098405Y0189336D02*
X0095510Y0189336D01*
X0093911Y0190935D02*
X0100004Y0190935D01*
X0100135Y0192266D02*
X0103780Y0192266D01*
X0106357Y0194844D01*
X0106357Y0198489D01*
X0103780Y0201066D01*
X0100135Y0201066D01*
X0097557Y0198489D01*
X0097557Y0194844D01*
X0100135Y0192266D01*
X0099868Y0192533D02*
X0094047Y0192533D01*
X0093780Y0192266D02*
X0096357Y0194844D01*
X0096357Y0198489D01*
X0093780Y0201066D01*
X0090135Y0201066D01*
X0087557Y0198489D01*
X0087557Y0194844D01*
X0090135Y0192266D01*
X0093780Y0192266D01*
X0095646Y0194132D02*
X0098269Y0194132D01*
X0097557Y0195730D02*
X0096357Y0195730D01*
X0096357Y0197329D02*
X0097557Y0197329D01*
X0097996Y0198927D02*
X0095919Y0198927D01*
X0094320Y0200526D02*
X0099595Y0200526D01*
X0104320Y0200526D02*
X0109312Y0200526D01*
X0110052Y0201266D02*
X0107357Y0198572D01*
X0107357Y0196766D01*
X0111857Y0196766D01*
X0111857Y0201266D01*
X0110052Y0201266D01*
X0111857Y0200526D02*
X0112057Y0200526D01*
X0112057Y0198927D02*
X0111857Y0198927D01*
X0111857Y0197329D02*
X0112057Y0197329D01*
X0112057Y0195730D02*
X0111857Y0195730D01*
X0111857Y0194132D02*
X0112057Y0194132D01*
X0112057Y0192533D02*
X0111857Y0192533D01*
X0109585Y0192533D02*
X0104047Y0192533D01*
X0103911Y0190935D02*
X0110004Y0190935D01*
X0107986Y0194132D02*
X0105646Y0194132D01*
X0106357Y0195730D02*
X0107357Y0195730D01*
X0107357Y0197329D02*
X0106357Y0197329D01*
X0105919Y0198927D02*
X0107713Y0198927D01*
X0114603Y0200526D02*
X0119595Y0200526D01*
X0117996Y0198927D02*
X0116202Y0198927D01*
X0116557Y0197329D02*
X0117557Y0197329D01*
X0117557Y0195730D02*
X0116557Y0195730D01*
X0115928Y0194132D02*
X0118269Y0194132D01*
X0117557Y0187738D02*
X0116357Y0187738D01*
X0116357Y0186139D02*
X0117557Y0186139D01*
X0117860Y0184541D02*
X0116055Y0184541D01*
X0114456Y0182942D02*
X0119459Y0182942D01*
X0118989Y0181344D02*
X0090029Y0181344D01*
X0088431Y0179745D02*
X0117390Y0179745D01*
X0115792Y0178147D02*
X0086832Y0178147D01*
X0085234Y0176548D02*
X0114193Y0176548D01*
X0112595Y0174950D02*
X0083635Y0174950D01*
X0082037Y0173351D02*
X0110996Y0173351D01*
X0109398Y0171753D02*
X0080438Y0171753D01*
X0078840Y0170154D02*
X0107799Y0170154D01*
X0106201Y0168556D02*
X0077241Y0168556D01*
X0075524Y0166957D02*
X0090669Y0166957D01*
X0089071Y0165359D02*
X0081781Y0165359D01*
X0082499Y0163760D02*
X0087472Y0163760D01*
X0085874Y0162162D02*
X0082432Y0162162D01*
X0081552Y0160563D02*
X0084275Y0160563D01*
X0082677Y0158965D02*
X0009290Y0158965D01*
X0009292Y0160563D02*
X0017522Y0160563D01*
X0017522Y0162162D02*
X0009294Y0162162D01*
X0009295Y0163760D02*
X0017522Y0163760D01*
X0017522Y0165359D02*
X0009297Y0165359D01*
X0009298Y0166957D02*
X0017522Y0166957D01*
X0017522Y0168556D02*
X0009300Y0168556D01*
X0009302Y0170154D02*
X0017522Y0170154D01*
X0017522Y0171753D02*
X0009303Y0171753D01*
X0009305Y0173351D02*
X0019872Y0173351D01*
X0020166Y0174950D02*
X0009306Y0174950D01*
X0009308Y0176548D02*
X0021664Y0176548D01*
X0020913Y0175797D02*
X0020913Y0175797D01*
X0022272Y0173763D02*
X0022272Y0169076D01*
X0022272Y0173763D02*
X0029939Y0181430D01*
X0047863Y0181430D01*
X0051957Y0185524D01*
X0051957Y0186666D01*
X0056357Y0186139D02*
X0057357Y0186139D01*
X0057357Y0186566D02*
X0057357Y0184761D01*
X0060052Y0182066D01*
X0061857Y0182066D01*
X0061857Y0186566D01*
X0057357Y0186566D01*
X0057357Y0186766D02*
X0061857Y0186766D01*
X0061857Y0186566D01*
X0062057Y0186566D01*
X0062057Y0182066D01*
X0063863Y0182066D01*
X0066557Y0184761D01*
X0066557Y0186566D01*
X0062058Y0186566D01*
X0062058Y0186766D01*
X0066557Y0186766D01*
X0066557Y0188572D01*
X0063863Y0191266D01*
X0062057Y0191266D01*
X0062057Y0186766D01*
X0061857Y0186766D01*
X0061857Y0191266D01*
X0060052Y0191266D01*
X0057357Y0188572D01*
X0057357Y0186766D01*
X0057357Y0187738D02*
X0056357Y0187738D01*
X0055510Y0189336D02*
X0058122Y0189336D01*
X0059721Y0190935D02*
X0053911Y0190935D01*
X0053780Y0192266D02*
X0056357Y0194844D01*
X0056357Y0198489D01*
X0053780Y0201066D01*
X0050135Y0201066D01*
X0047557Y0198489D01*
X0047557Y0194844D01*
X0050135Y0192266D01*
X0053780Y0192266D01*
X0054047Y0192533D02*
X0059868Y0192533D01*
X0060135Y0192266D02*
X0063780Y0192266D01*
X0066357Y0194844D01*
X0066357Y0198489D01*
X0063780Y0201066D01*
X0060135Y0201066D01*
X0057557Y0198489D01*
X0057557Y0194844D01*
X0060135Y0192266D01*
X0061857Y0190935D02*
X0062057Y0190935D01*
X0062057Y0189336D02*
X0061857Y0189336D01*
X0061857Y0187738D02*
X0062057Y0187738D01*
X0062057Y0186139D02*
X0061857Y0186139D01*
X0061857Y0184541D02*
X0062057Y0184541D01*
X0062057Y0182942D02*
X0061857Y0182942D01*
X0063241Y0181344D02*
X0051171Y0181344D01*
X0047580Y0184541D02*
X0046055Y0184541D01*
X0046357Y0186139D02*
X0047557Y0186139D01*
X0047557Y0187738D02*
X0046357Y0187738D01*
X0045510Y0189336D02*
X0048405Y0189336D01*
X0050004Y0190935D02*
X0043911Y0190935D01*
X0043863Y0192066D02*
X0046557Y0194761D01*
X0046557Y0196566D01*
X0042058Y0196566D01*
X0042058Y0196766D01*
X0046557Y0196766D01*
X0046557Y0198572D01*
X0043863Y0201266D01*
X0042057Y0201266D01*
X0042057Y0196766D01*
X0041857Y0196766D01*
X0041857Y0196566D01*
X0037357Y0196566D01*
X0037357Y0194761D01*
X0040052Y0192066D01*
X0041857Y0192066D01*
X0041857Y0196566D01*
X0042057Y0196566D01*
X0042057Y0192066D01*
X0043863Y0192066D01*
X0044330Y0192533D02*
X0049868Y0192533D01*
X0048269Y0194132D02*
X0045929Y0194132D01*
X0046557Y0195730D02*
X0047557Y0195730D01*
X0047557Y0197329D02*
X0046557Y0197329D01*
X0046202Y0198927D02*
X0047996Y0198927D01*
X0049595Y0200526D02*
X0044603Y0200526D01*
X0042057Y0200526D02*
X0041857Y0200526D01*
X0041857Y0201266D02*
X0040052Y0201266D01*
X0037357Y0198572D01*
X0037357Y0196766D01*
X0041857Y0196766D01*
X0041857Y0201266D01*
X0041857Y0198927D02*
X0042057Y0198927D01*
X0042057Y0197329D02*
X0041857Y0197329D01*
X0041857Y0195730D02*
X0042057Y0195730D01*
X0042057Y0194132D02*
X0041857Y0194132D01*
X0041857Y0192533D02*
X0042057Y0192533D01*
X0039585Y0192533D02*
X0034047Y0192533D01*
X0033780Y0192266D02*
X0036357Y0194844D01*
X0036357Y0198489D01*
X0033780Y0201066D01*
X0030135Y0201066D01*
X0027557Y0198489D01*
X0027557Y0194844D01*
X0030135Y0192266D01*
X0033780Y0192266D01*
X0033911Y0190935D02*
X0040004Y0190935D01*
X0038405Y0189336D02*
X0035510Y0189336D01*
X0036357Y0187738D02*
X0037557Y0187738D01*
X0037557Y0186139D02*
X0036357Y0186139D01*
X0036055Y0184541D02*
X0037860Y0184541D01*
X0039525Y0179030D02*
X0030934Y0179030D01*
X0024879Y0172976D01*
X0026085Y0172976D01*
X0027022Y0172038D01*
X0027022Y0166113D01*
X0026985Y0166076D01*
X0027022Y0166038D01*
X0027022Y0165476D01*
X0032877Y0165476D01*
X0032877Y0166038D01*
X0032914Y0166076D01*
X0032877Y0166113D01*
X0032877Y0172038D01*
X0033814Y0172976D01*
X0035227Y0172976D01*
X0035227Y0173260D01*
X0035227Y0174215D01*
X0035592Y0175097D01*
X0039525Y0179030D01*
X0038642Y0178147D02*
X0030050Y0178147D01*
X0028452Y0176548D02*
X0037043Y0176548D01*
X0035531Y0174950D02*
X0026853Y0174950D01*
X0025255Y0173351D02*
X0035227Y0173351D01*
X0037627Y0173738D02*
X0042760Y0178871D01*
X0064162Y0178871D01*
X0071957Y0186666D01*
X0076357Y0186139D02*
X0077557Y0186139D01*
X0077557Y0187738D02*
X0076357Y0187738D01*
X0075510Y0189336D02*
X0078405Y0189336D01*
X0080004Y0190935D02*
X0073911Y0190935D01*
X0073780Y0192266D02*
X0076357Y0194844D01*
X0076357Y0198489D01*
X0073780Y0201066D01*
X0070135Y0201066D01*
X0067557Y0198489D01*
X0067557Y0194844D01*
X0070135Y0192266D01*
X0073780Y0192266D01*
X0074047Y0192533D02*
X0079585Y0192533D01*
X0080052Y0192066D02*
X0077357Y0194761D01*
X0077357Y0196566D01*
X0081857Y0196566D01*
X0081857Y0196766D01*
X0077357Y0196766D01*
X0077357Y0198572D01*
X0080052Y0201266D01*
X0081857Y0201266D01*
X0081857Y0196766D01*
X0082057Y0196766D01*
X0082057Y0201266D01*
X0083863Y0201266D01*
X0086557Y0198572D01*
X0086557Y0196766D01*
X0082058Y0196766D01*
X0082058Y0196566D01*
X0086557Y0196566D01*
X0086557Y0194761D01*
X0083863Y0192066D01*
X0082057Y0192066D01*
X0082057Y0196566D01*
X0081857Y0196566D01*
X0081857Y0192066D01*
X0080052Y0192066D01*
X0081857Y0192533D02*
X0082057Y0192533D01*
X0082057Y0194132D02*
X0081857Y0194132D01*
X0081857Y0195730D02*
X0082057Y0195730D01*
X0082057Y0197329D02*
X0081857Y0197329D01*
X0081857Y0198927D02*
X0082057Y0198927D01*
X0082057Y0200526D02*
X0081857Y0200526D01*
X0079312Y0200526D02*
X0074320Y0200526D01*
X0075919Y0198927D02*
X0077713Y0198927D01*
X0077357Y0197329D02*
X0076357Y0197329D01*
X0076357Y0195730D02*
X0077357Y0195730D01*
X0077986Y0194132D02*
X0075646Y0194132D01*
X0069868Y0192533D02*
X0064047Y0192533D01*
X0064194Y0190935D02*
X0070004Y0190935D01*
X0068405Y0189336D02*
X0065793Y0189336D01*
X0066557Y0187738D02*
X0067557Y0187738D01*
X0067557Y0186139D02*
X0066557Y0186139D01*
X0066438Y0184541D02*
X0066337Y0184541D01*
X0064839Y0182942D02*
X0064739Y0182942D01*
X0068431Y0179745D02*
X0071642Y0179745D01*
X0073241Y0181344D02*
X0070029Y0181344D01*
X0074456Y0182942D02*
X0074839Y0182942D01*
X0076055Y0184541D02*
X0076438Y0184541D01*
X0080029Y0181344D02*
X0083241Y0181344D01*
X0084456Y0182942D02*
X0084839Y0182942D01*
X0086055Y0184541D02*
X0086438Y0184541D01*
X0086357Y0186139D02*
X0087557Y0186139D01*
X0087557Y0187738D02*
X0086357Y0187738D01*
X0085510Y0189336D02*
X0088405Y0189336D01*
X0090004Y0190935D02*
X0083911Y0190935D01*
X0084330Y0192533D02*
X0089868Y0192533D01*
X0088269Y0194132D02*
X0085929Y0194132D01*
X0086557Y0195730D02*
X0087557Y0195730D01*
X0087557Y0197329D02*
X0086557Y0197329D01*
X0086202Y0198927D02*
X0087996Y0198927D01*
X0089595Y0200526D02*
X0084603Y0200526D01*
X0069595Y0200526D02*
X0064320Y0200526D01*
X0065919Y0198927D02*
X0067996Y0198927D01*
X0067557Y0197329D02*
X0066357Y0197329D01*
X0066357Y0195730D02*
X0067557Y0195730D01*
X0068269Y0194132D02*
X0065646Y0194132D01*
X0058269Y0194132D02*
X0055646Y0194132D01*
X0056357Y0195730D02*
X0057557Y0195730D01*
X0057557Y0197329D02*
X0056357Y0197329D01*
X0055919Y0198927D02*
X0057996Y0198927D01*
X0059595Y0200526D02*
X0054320Y0200526D01*
X0039312Y0200526D02*
X0034320Y0200526D01*
X0035919Y0198927D02*
X0037713Y0198927D01*
X0037357Y0197329D02*
X0036357Y0197329D01*
X0036357Y0195730D02*
X0037357Y0195730D01*
X0037986Y0194132D02*
X0035646Y0194132D01*
X0029868Y0192533D02*
X0024047Y0192533D01*
X0023780Y0192266D02*
X0026357Y0194844D01*
X0026357Y0198489D01*
X0023780Y0201066D01*
X0020135Y0201066D01*
X0017557Y0198489D01*
X0017557Y0194844D01*
X0020135Y0192266D01*
X0023780Y0192266D01*
X0023150Y0190935D02*
X0030004Y0190935D01*
X0028405Y0189336D02*
X0025510Y0189336D01*
X0025688Y0189159D02*
X0024450Y0190396D01*
X0022833Y0191066D01*
X0021082Y0191066D01*
X0019465Y0190396D01*
X0018227Y0189159D01*
X0017557Y0187541D01*
X0017557Y0185791D01*
X0018227Y0184174D01*
X0019465Y0182936D01*
X0021082Y0182266D01*
X0022833Y0182266D01*
X0024450Y0182936D01*
X0025688Y0184174D01*
X0026357Y0185791D01*
X0026357Y0187541D01*
X0025688Y0189159D01*
X0026276Y0187738D02*
X0027557Y0187738D01*
X0027557Y0186139D02*
X0026357Y0186139D01*
X0025840Y0184541D02*
X0027860Y0184541D01*
X0028058Y0182942D02*
X0024456Y0182942D01*
X0026459Y0181344D02*
X0009313Y0181344D01*
X0009314Y0182942D02*
X0019459Y0182942D01*
X0018075Y0184541D02*
X0009316Y0184541D01*
X0009318Y0186139D02*
X0017557Y0186139D01*
X0017639Y0187738D02*
X0009319Y0187738D01*
X0009321Y0189336D02*
X0018405Y0189336D01*
X0020765Y0190935D02*
X0009322Y0190935D01*
X0009324Y0192533D02*
X0019868Y0192533D01*
X0018269Y0194132D02*
X0009326Y0194132D01*
X0009327Y0195730D02*
X0017557Y0195730D01*
X0017557Y0197329D02*
X0009329Y0197329D01*
X0009330Y0198927D02*
X0017996Y0198927D01*
X0019595Y0200526D02*
X0009332Y0200526D01*
X0024320Y0200526D02*
X0029595Y0200526D01*
X0027996Y0198927D02*
X0025919Y0198927D01*
X0026357Y0197329D02*
X0027557Y0197329D01*
X0027557Y0195730D02*
X0026357Y0195730D01*
X0025646Y0194132D02*
X0028269Y0194132D01*
X0027905Y0182789D02*
X0027905Y0182789D01*
X0024861Y0179745D02*
X0009311Y0179745D01*
X0009310Y0178147D02*
X0023262Y0178147D01*
X0027022Y0171753D02*
X0032877Y0171753D01*
X0032877Y0170154D02*
X0027022Y0170154D01*
X0027022Y0168556D02*
X0032877Y0168556D01*
X0032877Y0166957D02*
X0027022Y0166957D01*
X0022272Y0163076D02*
X0037627Y0163076D01*
X0052981Y0163076D01*
X0068335Y0163076D01*
X0078721Y0163076D01*
X0078769Y0163123D01*
X0075891Y0160563D02*
X0073085Y0160563D01*
X0069150Y0155768D02*
X0067016Y0155768D01*
X0067020Y0155763D02*
X0066685Y0156099D01*
X0066274Y0156336D01*
X0065816Y0156458D01*
X0063205Y0156458D01*
X0063205Y0151890D01*
X0067380Y0151890D01*
X0067380Y0154895D01*
X0067257Y0155353D01*
X0067020Y0155763D01*
X0067380Y0154169D02*
X0068704Y0154169D01*
X0068704Y0152570D02*
X0067380Y0152570D01*
X0068704Y0150972D02*
X0063205Y0150972D01*
X0063205Y0150340D02*
X0063205Y0151890D01*
X0061655Y0151890D01*
X0061655Y0156458D01*
X0059043Y0156458D01*
X0058586Y0156336D01*
X0058175Y0156099D01*
X0057840Y0155763D01*
X0057603Y0155353D01*
X0057480Y0154895D01*
X0057480Y0151890D01*
X0061655Y0151890D01*
X0061655Y0150340D01*
X0063205Y0150340D01*
X0067380Y0150340D01*
X0067380Y0147335D01*
X0067257Y0146877D01*
X0067020Y0146466D01*
X0066685Y0146131D01*
X0066274Y0145894D01*
X0065816Y0145772D01*
X0063205Y0145772D01*
X0063205Y0150340D01*
X0063205Y0149373D02*
X0061655Y0149373D01*
X0061655Y0150340D02*
X0061655Y0145772D01*
X0059043Y0145772D01*
X0058586Y0145894D01*
X0058175Y0146131D01*
X0057840Y0146466D01*
X0057603Y0146877D01*
X0057480Y0147335D01*
X0057480Y0150340D01*
X0061655Y0150340D01*
X0061655Y0150972D02*
X0009282Y0150972D01*
X0009284Y0152570D02*
X0057480Y0152570D01*
X0057480Y0154169D02*
X0009286Y0154169D01*
X0009287Y0155768D02*
X0057844Y0155768D01*
X0061655Y0155768D02*
X0063205Y0155768D01*
X0063205Y0154169D02*
X0061655Y0154169D01*
X0061655Y0152570D02*
X0063205Y0152570D01*
X0063205Y0147775D02*
X0061655Y0147775D01*
X0061655Y0146176D02*
X0063205Y0146176D01*
X0066730Y0146176D02*
X0069436Y0146176D01*
X0070166Y0144578D02*
X0009276Y0144578D01*
X0009278Y0146176D02*
X0058130Y0146176D01*
X0057480Y0147775D02*
X0009279Y0147775D01*
X0009281Y0149373D02*
X0057480Y0149373D01*
X0067380Y0149373D02*
X0068704Y0149373D01*
X0068704Y0147775D02*
X0067380Y0147775D01*
X0073454Y0151115D02*
X0073454Y0141469D01*
X0074044Y0140288D01*
X0070182Y0138184D02*
X0059305Y0138184D01*
X0059305Y0136585D02*
X0069685Y0136585D01*
X0069685Y0134987D02*
X0060692Y0134987D01*
X0061950Y0133388D02*
X0069685Y0133388D01*
X0069881Y0131790D02*
X0062074Y0131790D01*
X0062074Y0130191D02*
X0063132Y0130191D01*
X0062258Y0128593D02*
X0062074Y0128593D01*
X0062074Y0126994D02*
X0062195Y0126994D01*
X0062074Y0125396D02*
X0062924Y0125396D01*
X0063573Y0123797D02*
X0062074Y0123797D01*
X0062074Y0122199D02*
X0063573Y0122199D01*
X0063573Y0120600D02*
X0062074Y0120600D01*
X0062074Y0119002D02*
X0062243Y0119002D01*
X0062208Y0117403D02*
X0062183Y0117403D01*
X0061297Y0114894D02*
X0066708Y0114894D01*
X0065973Y0117847D02*
X0065973Y0127690D01*
X0068814Y0130191D02*
X0076172Y0130191D01*
X0076013Y0128593D02*
X0076013Y0128593D01*
X0073454Y0128593D02*
X0073453Y0128593D01*
X0071591Y0128593D02*
X0069688Y0128593D01*
X0069751Y0126994D02*
X0070804Y0126994D01*
X0070804Y0125396D02*
X0069022Y0125396D01*
X0068373Y0123797D02*
X0070804Y0123797D01*
X0070804Y0122199D02*
X0068373Y0122199D01*
X0068373Y0120600D02*
X0070929Y0120600D01*
X0071172Y0119002D02*
X0076393Y0119002D01*
X0076013Y0120600D02*
X0076013Y0120600D01*
X0073454Y0120600D02*
X0073453Y0120600D01*
X0071208Y0117403D02*
X0077787Y0117403D01*
X0079385Y0115805D02*
X0071208Y0115805D01*
X0073454Y0124199D02*
X0073454Y0124199D01*
X0076012Y0124199D01*
X0076012Y0124199D01*
X0073454Y0124199D01*
X0073269Y0131790D02*
X0073638Y0131790D01*
X0073638Y0133388D02*
X0073269Y0133388D01*
X0081131Y0124199D02*
X0081131Y0154024D01*
X0093182Y0166076D01*
X0107115Y0166076D01*
X0121957Y0180918D01*
X0121957Y0186666D01*
X0126997Y0189075D02*
X0126997Y0181627D01*
X0108887Y0163517D01*
X0094327Y0163517D01*
X0086249Y0155438D01*
X0086249Y0124199D01*
X0105505Y0142979D02*
X0106131Y0142979D01*
X0104987Y0144578D02*
X0247787Y0144578D01*
X0247787Y0146176D02*
X0118561Y0146176D01*
X0118561Y0146154D02*
X0118561Y0149159D01*
X0114386Y0149159D01*
X0114386Y0150709D01*
X0112836Y0150709D01*
X0112836Y0155277D01*
X0110224Y0155277D01*
X0109767Y0155154D01*
X0109356Y0154918D01*
X0109021Y0154582D01*
X0108784Y0154172D01*
X0108661Y0153714D01*
X0108661Y0150709D01*
X0112836Y0150709D01*
X0112836Y0149159D01*
X0108661Y0149159D01*
X0108661Y0146154D01*
X0108784Y0145696D01*
X0109021Y0145285D01*
X0109356Y0144950D01*
X0109767Y0144713D01*
X0110224Y0144591D01*
X0112836Y0144591D01*
X0112836Y0149159D01*
X0114386Y0149159D01*
X0114386Y0144591D01*
X0116998Y0144591D01*
X0117455Y0144713D01*
X0117866Y0144950D01*
X0118201Y0145285D01*
X0118438Y0145696D01*
X0118561Y0146154D01*
X0118561Y0147775D02*
X0247787Y0147775D01*
X0247787Y0149373D02*
X0114386Y0149373D01*
X0114386Y0150709D02*
X0118561Y0150709D01*
X0118561Y0153714D01*
X0118438Y0154172D01*
X0118201Y0154582D01*
X0117866Y0154918D01*
X0117455Y0155154D01*
X0116998Y0155277D01*
X0114386Y0155277D01*
X0114386Y0150709D01*
X0114386Y0150972D02*
X0112836Y0150972D01*
X0112836Y0152570D02*
X0114386Y0152570D01*
X0114386Y0154169D02*
X0112836Y0154169D01*
X0108783Y0154169D02*
X0107308Y0154169D01*
X0107337Y0152570D02*
X0108661Y0152570D01*
X0108661Y0150972D02*
X0107337Y0150972D01*
X0107337Y0149373D02*
X0112836Y0149373D01*
X0112836Y0147775D02*
X0114386Y0147775D01*
X0114386Y0146176D02*
X0112836Y0146176D01*
X0112430Y0142979D02*
X0247787Y0142979D01*
X0247787Y0141381D02*
X0113246Y0141381D01*
X0113246Y0139782D02*
X0247787Y0139782D01*
X0247787Y0138184D02*
X0113246Y0138184D01*
X0109465Y0139782D02*
X0109096Y0139782D01*
X0109096Y0141381D02*
X0109465Y0141381D01*
X0109465Y0142979D02*
X0109096Y0142979D01*
X0108661Y0146176D02*
X0107337Y0146176D01*
X0107337Y0147775D02*
X0108661Y0147775D01*
X0118561Y0150972D02*
X0247787Y0150972D01*
X0247787Y0152570D02*
X0118561Y0152570D01*
X0118439Y0154169D02*
X0247787Y0154169D01*
X0247787Y0136585D02*
X0163243Y0136585D01*
X0164842Y0134987D02*
X0247787Y0134987D01*
X0247787Y0133388D02*
X0166440Y0133388D01*
X0168039Y0131790D02*
X0247787Y0131790D01*
X0247787Y0130191D02*
X0169637Y0130191D01*
X0171236Y0128593D02*
X0247787Y0128593D01*
X0247787Y0126994D02*
X0172834Y0126994D01*
X0174433Y0125396D02*
X0247787Y0125396D01*
X0247787Y0123797D02*
X0176031Y0123797D01*
X0177630Y0122199D02*
X0247787Y0122199D01*
X0247787Y0120600D02*
X0179228Y0120600D01*
X0180827Y0119002D02*
X0247787Y0119002D01*
X0247787Y0117403D02*
X0182425Y0117403D01*
X0184024Y0115805D02*
X0247787Y0115805D01*
X0247787Y0114206D02*
X0185623Y0114206D01*
X0187221Y0112608D02*
X0247787Y0112608D01*
X0247787Y0111009D02*
X0188820Y0111009D01*
X0190418Y0109411D02*
X0247787Y0109411D01*
X0247787Y0107812D02*
X0192017Y0107812D01*
X0193615Y0106214D02*
X0247787Y0106214D01*
X0247787Y0104615D02*
X0195214Y0104615D01*
X0196812Y0103017D02*
X0247787Y0103017D01*
X0247787Y0101418D02*
X0198411Y0101418D01*
X0200009Y0099820D02*
X0247787Y0099820D01*
X0247787Y0098221D02*
X0201608Y0098221D01*
X0203206Y0096623D02*
X0247787Y0096623D01*
X0247787Y0095024D02*
X0204805Y0095024D01*
X0206403Y0093426D02*
X0247787Y0093426D01*
X0247787Y0091827D02*
X0208002Y0091827D01*
X0209600Y0090229D02*
X0247787Y0090229D01*
X0247787Y0088630D02*
X0211199Y0088630D01*
X0212797Y0087032D02*
X0247787Y0087032D01*
X0247787Y0085433D02*
X0214396Y0085433D01*
X0215994Y0083835D02*
X0247787Y0083835D01*
X0247787Y0082236D02*
X0217593Y0082236D01*
X0219191Y0080637D02*
X0247787Y0080637D01*
X0247787Y0079039D02*
X0220790Y0079039D01*
X0222388Y0077440D02*
X0247787Y0077440D01*
X0247787Y0075842D02*
X0223987Y0075842D01*
X0225585Y0074243D02*
X0247787Y0074243D01*
X0247787Y0072645D02*
X0227184Y0072645D01*
X0228782Y0071046D02*
X0247787Y0071046D01*
X0247787Y0069448D02*
X0230381Y0069448D01*
X0231979Y0067849D02*
X0247787Y0067849D01*
X0247787Y0066251D02*
X0233578Y0066251D01*
X0235176Y0064652D02*
X0247787Y0064652D01*
X0247787Y0063054D02*
X0236775Y0063054D01*
X0229124Y0059857D02*
X0223885Y0059857D01*
X0223885Y0061455D02*
X0227976Y0061455D01*
X0226377Y0063054D02*
X0223885Y0063054D01*
X0223885Y0064652D02*
X0224779Y0064652D01*
X0219085Y0064652D02*
X0213924Y0064652D01*
X0213924Y0063054D02*
X0219085Y0063054D01*
X0219085Y0061455D02*
X0213924Y0061455D01*
X0213924Y0059857D02*
X0219085Y0059857D01*
X0219085Y0058258D02*
X0213924Y0058258D01*
X0213924Y0056660D02*
X0219085Y0056660D01*
X0219085Y0055061D02*
X0213924Y0055061D01*
X0223885Y0055061D02*
X0229124Y0055061D01*
X0229124Y0056660D02*
X0223885Y0056660D01*
X0223885Y0058258D02*
X0229124Y0058258D01*
X0219085Y0066251D02*
X0213924Y0066251D01*
X0213924Y0067849D02*
X0218178Y0067849D01*
X0216580Y0069448D02*
X0213924Y0069448D01*
X0213924Y0071046D02*
X0214981Y0071046D01*
X0201524Y0080905D02*
X0201524Y0050800D01*
X0201324Y0045470D02*
X0201724Y0045470D01*
X0201724Y0043872D02*
X0201324Y0043872D01*
X0201324Y0042273D02*
X0201724Y0042273D01*
X0201724Y0039076D02*
X0201324Y0039076D01*
X0201324Y0037478D02*
X0201724Y0037478D01*
X0204990Y0037478D02*
X0208059Y0037478D01*
X0206724Y0039076D02*
X0206324Y0039076D01*
X0206324Y0042273D02*
X0206724Y0042273D01*
X0207808Y0043872D02*
X0205241Y0043872D01*
X0187808Y0043872D02*
X0185241Y0043872D01*
X0186324Y0042273D02*
X0186724Y0042273D01*
X0186724Y0039076D02*
X0186324Y0039076D01*
X0184990Y0037478D02*
X0188059Y0037478D01*
X0181724Y0037478D02*
X0181324Y0037478D01*
X0181324Y0039076D02*
X0181724Y0039076D01*
X0181724Y0042273D02*
X0181324Y0042273D01*
X0181324Y0043872D02*
X0181724Y0043872D01*
X0181724Y0045470D02*
X0181324Y0045470D01*
X0179406Y0045470D02*
X0173642Y0045470D01*
X0174299Y0047069D02*
X0178750Y0047069D01*
X0177152Y0048667D02*
X0175897Y0048667D01*
X0175241Y0043872D02*
X0177808Y0043872D01*
X0176724Y0042273D02*
X0176324Y0042273D01*
X0176324Y0039076D02*
X0176724Y0039076D01*
X0178059Y0037478D02*
X0174990Y0037478D01*
X0171724Y0037478D02*
X0171324Y0037478D01*
X0171324Y0039076D02*
X0171724Y0039076D01*
X0171724Y0042273D02*
X0171324Y0042273D01*
X0171324Y0043872D02*
X0171724Y0043872D01*
X0171724Y0045470D02*
X0171324Y0045470D01*
X0167808Y0043872D02*
X0158233Y0043872D01*
X0159317Y0042273D02*
X0166724Y0042273D01*
X0166724Y0039076D02*
X0159317Y0039076D01*
X0157982Y0037478D02*
X0168059Y0037478D01*
X0154717Y0037478D02*
X0154317Y0037478D01*
X0154317Y0039076D02*
X0154717Y0039076D01*
X0154717Y0042273D02*
X0154317Y0042273D01*
X0140800Y0043872D02*
X0138233Y0043872D01*
X0139317Y0042273D02*
X0139717Y0042273D01*
X0139717Y0039076D02*
X0139317Y0039076D01*
X0137982Y0037478D02*
X0141051Y0037478D01*
X0141904Y0055061D02*
X0136877Y0055061D01*
X0136735Y0056660D02*
X0140305Y0056660D01*
X0138707Y0058258D02*
X0135452Y0058258D01*
X0133854Y0059857D02*
X0137108Y0059857D01*
X0135510Y0061455D02*
X0132255Y0061455D01*
X0130657Y0063054D02*
X0133911Y0063054D01*
X0132313Y0064652D02*
X0129058Y0064652D01*
X0153009Y0083835D02*
X0169124Y0083835D01*
X0169124Y0085433D02*
X0153009Y0085433D01*
X0181524Y0093976D02*
X0181524Y0050800D01*
X0183924Y0055061D02*
X0189124Y0055061D01*
X0189124Y0056660D02*
X0183924Y0056660D01*
X0183924Y0058258D02*
X0189124Y0058258D01*
X0189124Y0059857D02*
X0183924Y0059857D01*
X0183924Y0061455D02*
X0189124Y0061455D01*
X0189124Y0063054D02*
X0183924Y0063054D01*
X0183924Y0064652D02*
X0189124Y0064652D01*
X0189124Y0066251D02*
X0183924Y0066251D01*
X0183924Y0067849D02*
X0189124Y0067849D01*
X0189124Y0069448D02*
X0183924Y0069448D01*
X0183924Y0071046D02*
X0189124Y0071046D01*
X0189124Y0072645D02*
X0183924Y0072645D01*
X0183924Y0074243D02*
X0189124Y0074243D01*
X0189124Y0075842D02*
X0183924Y0075842D01*
X0183924Y0077440D02*
X0189124Y0077440D01*
X0189124Y0079039D02*
X0183924Y0079039D01*
X0183924Y0080637D02*
X0189124Y0080637D01*
X0189124Y0082236D02*
X0183924Y0082236D01*
X0231324Y0042273D02*
X0231724Y0042273D01*
X0231724Y0039076D02*
X0231324Y0039076D01*
X0231324Y0037478D02*
X0231724Y0037478D01*
X0234990Y0037478D02*
X0238059Y0037478D01*
X0236724Y0039076D02*
X0236324Y0039076D01*
X0236324Y0042273D02*
X0236724Y0042273D01*
X0237808Y0043872D02*
X0235241Y0043872D01*
X0241324Y0043872D02*
X0241724Y0043872D01*
X0241724Y0045470D02*
X0241324Y0045470D01*
X0241324Y0042273D02*
X0241724Y0042273D01*
X0241724Y0039076D02*
X0241324Y0039076D01*
X0241324Y0037478D02*
X0241724Y0037478D01*
X0244990Y0037478D02*
X0247787Y0037478D01*
X0247787Y0039076D02*
X0246324Y0039076D01*
X0123301Y0155768D02*
X0097248Y0155768D01*
X0097867Y0154169D02*
X0095650Y0154169D01*
X0094051Y0152570D02*
X0097838Y0152570D01*
X0097838Y0150972D02*
X0093767Y0150972D01*
X0081078Y0157366D02*
X0009289Y0157366D01*
X0009274Y0142979D02*
X0048341Y0142979D01*
X0046899Y0141381D02*
X0009273Y0141381D01*
X0009271Y0139782D02*
X0045882Y0139782D01*
X0045476Y0138184D02*
X0009270Y0138184D01*
X0009265Y0133388D02*
X0012872Y0133388D01*
X0012872Y0131790D02*
X0009263Y0131790D01*
X0009262Y0130191D02*
X0012872Y0130191D01*
X0014438Y0128593D02*
X0009260Y0128593D01*
X0009246Y0114206D02*
X0013275Y0114206D01*
X0012872Y0112608D02*
X0009244Y0112608D01*
X0009242Y0111009D02*
X0012872Y0111009D01*
X0013620Y0109411D02*
X0009241Y0109411D01*
X0031642Y0083835D02*
X0034843Y0083835D01*
X0035122Y0082236D02*
X0031672Y0082236D01*
X0039411Y0082236D02*
X0040961Y0082236D01*
X0040961Y0083835D02*
X0039411Y0083835D01*
X0039411Y0085433D02*
X0040961Y0085433D01*
X0040961Y0088630D02*
X0039411Y0088630D01*
X0039411Y0090229D02*
X0040961Y0090229D01*
X0045192Y0093426D02*
X0046745Y0093426D01*
X0050238Y0090229D02*
X0050606Y0090229D01*
X0050606Y0088630D02*
X0050238Y0088630D01*
X0050238Y0087032D02*
X0050606Y0087032D01*
X0054191Y0090229D02*
X0056340Y0090229D01*
X0054741Y0091827D02*
X0054191Y0091827D01*
X0053991Y0111009D02*
X0057368Y0111009D01*
X0055769Y0112608D02*
X0053991Y0112608D01*
X0053991Y0114206D02*
X0054171Y0114206D01*
X0059674Y0116518D02*
X0061297Y0114894D01*
X0059674Y0116518D02*
X0059674Y0132611D01*
X0055737Y0136548D01*
X0076741Y0144578D02*
X0078731Y0144578D01*
X0078731Y0146176D02*
X0077471Y0146176D01*
X0078203Y0147775D02*
X0078731Y0147775D01*
X0078731Y0149373D02*
X0078203Y0149373D01*
X0078203Y0150972D02*
X0078731Y0150972D01*
X0078731Y0152570D02*
X0078203Y0152570D01*
X0078203Y0154169D02*
X0078731Y0154169D01*
X0079480Y0155768D02*
X0077757Y0155768D01*
X0079771Y0156059D02*
X0079771Y0156059D01*
X0074367Y0169076D02*
X0068335Y0169076D01*
X0063585Y0168556D02*
X0057731Y0168556D01*
X0057731Y0170154D02*
X0063585Y0170154D01*
X0063585Y0171753D02*
X0057731Y0171753D01*
X0055974Y0173351D02*
X0075248Y0173351D01*
X0073650Y0171753D02*
X0073085Y0171753D01*
X0074367Y0169076D02*
X0091957Y0186666D01*
X0081957Y0186666D02*
X0071603Y0176312D01*
X0055540Y0176312D01*
X0052981Y0173753D01*
X0052981Y0169076D01*
X0050581Y0172976D02*
X0050581Y0173275D01*
X0050581Y0174230D01*
X0050946Y0175112D01*
X0052305Y0176471D01*
X0043754Y0176471D01*
X0040259Y0172976D01*
X0041440Y0172976D01*
X0042377Y0172038D01*
X0042377Y0166113D01*
X0042339Y0166076D01*
X0042377Y0166038D01*
X0042377Y0165476D01*
X0048231Y0165476D01*
X0048231Y0166038D01*
X0048268Y0166076D01*
X0048231Y0166113D01*
X0048231Y0172038D01*
X0049168Y0172976D01*
X0050581Y0172976D01*
X0050581Y0173351D02*
X0040634Y0173351D01*
X0042233Y0174950D02*
X0050879Y0174950D01*
X0048231Y0171753D02*
X0042377Y0171753D01*
X0042377Y0170154D02*
X0048231Y0170154D01*
X0048231Y0168556D02*
X0042377Y0168556D01*
X0042377Y0166957D02*
X0048231Y0166957D01*
X0048231Y0160563D02*
X0042377Y0160563D01*
X0037627Y0169076D02*
X0037627Y0173738D01*
X0032877Y0160563D02*
X0027022Y0160563D01*
X0054456Y0182942D02*
X0059176Y0182942D01*
X0057578Y0184541D02*
X0056055Y0184541D01*
X0073635Y0174950D02*
X0076847Y0174950D01*
X0078445Y0176548D02*
X0075234Y0176548D01*
X0076832Y0178147D02*
X0080044Y0178147D01*
X0081642Y0179745D02*
X0078431Y0179745D01*
X0063585Y0166957D02*
X0057731Y0166957D01*
X0057731Y0160563D02*
X0063585Y0160563D01*
X0124320Y0200526D02*
X0129595Y0200526D01*
X0127996Y0198927D02*
X0125919Y0198927D01*
X0144320Y0200526D02*
X0149595Y0200526D01*
X0147996Y0198927D02*
X0145919Y0198927D01*
X0146357Y0197329D02*
X0147557Y0197329D01*
X0147557Y0195730D02*
X0146357Y0195730D01*
X0145646Y0194132D02*
X0148269Y0194132D01*
X0149868Y0192533D02*
X0146650Y0192533D01*
X0148248Y0190935D02*
X0150004Y0190935D01*
X0173911Y0190935D02*
X0180004Y0190935D01*
X0180052Y0192066D02*
X0181857Y0192066D01*
X0181857Y0196566D01*
X0177357Y0196566D01*
X0177357Y0194761D01*
X0180052Y0192066D01*
X0179585Y0192533D02*
X0174047Y0192533D01*
X0175646Y0194132D02*
X0177986Y0194132D01*
X0177357Y0195730D02*
X0176357Y0195730D01*
X0177357Y0196766D02*
X0177357Y0198572D01*
X0180052Y0201266D01*
X0181857Y0201266D01*
X0181857Y0196766D01*
X0181857Y0196566D01*
X0182057Y0196566D01*
X0182057Y0192066D01*
X0183863Y0192066D01*
X0186557Y0194761D01*
X0186557Y0196566D01*
X0182058Y0196566D01*
X0182058Y0196766D01*
X0186557Y0196766D01*
X0186557Y0198572D01*
X0183863Y0201266D01*
X0182057Y0201266D01*
X0182057Y0196766D01*
X0181857Y0196766D01*
X0177357Y0196766D01*
X0177357Y0197329D02*
X0176357Y0197329D01*
X0175919Y0198927D02*
X0177713Y0198927D01*
X0179312Y0200526D02*
X0174320Y0200526D01*
X0181857Y0200526D02*
X0182057Y0200526D01*
X0182057Y0198927D02*
X0181857Y0198927D01*
X0181857Y0197329D02*
X0182057Y0197329D01*
X0182057Y0195730D02*
X0181857Y0195730D01*
X0181857Y0194132D02*
X0182057Y0194132D01*
X0182057Y0192533D02*
X0181857Y0192533D01*
X0184330Y0192533D02*
X0186478Y0192533D01*
X0185929Y0194132D02*
X0188076Y0194132D01*
X0187557Y0195730D02*
X0186557Y0195730D01*
X0186557Y0197329D02*
X0187557Y0197329D01*
X0187996Y0198927D02*
X0186202Y0198927D01*
X0184603Y0200526D02*
X0189595Y0200526D01*
X0191957Y0196666D02*
X0191957Y0194619D01*
X0187036Y0189698D01*
X0187036Y0179265D01*
X0184083Y0176312D01*
X0184083Y0169076D01*
X0184456Y0182942D02*
X0184636Y0182942D01*
X0179459Y0182942D02*
X0174456Y0182942D01*
X0176055Y0184541D02*
X0177860Y0184541D01*
X0177557Y0186139D02*
X0176357Y0186139D01*
X0176357Y0187738D02*
X0177557Y0187738D01*
X0178405Y0189336D02*
X0175510Y0189336D01*
X0183911Y0190935D02*
X0184951Y0190935D01*
X0193911Y0190935D02*
X0200004Y0190935D01*
X0200135Y0191066D02*
X0197557Y0188489D01*
X0197557Y0184844D01*
X0200135Y0182266D01*
X0203780Y0182266D01*
X0206357Y0184844D01*
X0206357Y0188489D01*
X0203780Y0191066D01*
X0200135Y0191066D01*
X0200135Y0192266D02*
X0203780Y0192266D01*
X0206357Y0194844D01*
X0206357Y0198489D01*
X0203780Y0201066D01*
X0200135Y0201066D01*
X0197557Y0198489D01*
X0197557Y0194844D01*
X0200135Y0192266D01*
X0199868Y0192533D02*
X0194047Y0192533D01*
X0195646Y0194132D02*
X0198269Y0194132D01*
X0197557Y0195730D02*
X0196357Y0195730D01*
X0196357Y0197329D02*
X0197557Y0197329D01*
X0197996Y0198927D02*
X0195919Y0198927D01*
X0194320Y0200526D02*
X0199595Y0200526D01*
X0204320Y0200526D02*
X0209595Y0200526D01*
X0207996Y0198927D02*
X0205919Y0198927D01*
X0206357Y0197329D02*
X0207557Y0197329D01*
X0207557Y0195730D02*
X0206357Y0195730D01*
X0205646Y0194132D02*
X0208269Y0194132D01*
X0209868Y0192533D02*
X0204047Y0192533D01*
X0203911Y0190935D02*
X0209721Y0190935D01*
X0208122Y0189336D02*
X0205510Y0189336D01*
X0206357Y0187738D02*
X0207357Y0187738D01*
X0207357Y0186139D02*
X0206357Y0186139D01*
X0206055Y0184541D02*
X0207578Y0184541D01*
X0209176Y0182942D02*
X0204456Y0182942D01*
X0199459Y0182942D02*
X0194456Y0182942D01*
X0196055Y0184541D02*
X0197860Y0184541D01*
X0197557Y0186139D02*
X0196357Y0186139D01*
X0196357Y0187738D02*
X0197557Y0187738D01*
X0198405Y0189336D02*
X0195510Y0189336D01*
X0215793Y0189336D02*
X0247787Y0189336D01*
X0247787Y0187738D02*
X0216557Y0187738D01*
X0216557Y0186139D02*
X0247787Y0186139D01*
X0247787Y0184541D02*
X0216337Y0184541D01*
X0212024Y0219708D02*
X0247787Y0219708D01*
X0128178Y0178444D02*
X0128145Y0178444D01*
X0046079Y0071046D02*
X0044529Y0071046D01*
X0044529Y0069448D02*
X0046079Y0069448D01*
X0046079Y0065104D02*
X0050254Y0065104D01*
X0050254Y0062098D01*
X0050131Y0061641D01*
X0049894Y0061230D01*
X0049559Y0060895D01*
X0049148Y0060658D01*
X0048691Y0060535D01*
X0046079Y0060535D01*
X0046079Y0065104D01*
X0046079Y0064652D02*
X0044529Y0064652D01*
X0044529Y0063054D02*
X0046079Y0063054D01*
X0046079Y0061455D02*
X0044529Y0061455D01*
X0050024Y0061455D02*
X0051795Y0061455D01*
X0051578Y0063054D02*
X0050254Y0063054D01*
X0050254Y0064652D02*
X0051578Y0064652D01*
X0015491Y0055061D02*
X0014436Y0055061D01*
X0014436Y0066251D02*
X0015037Y0066251D01*
X0014899Y0067849D02*
X0014436Y0067849D01*
D22*
X0065776Y0068831D03*
X0126013Y0123753D03*
X0126013Y0148162D03*
X0126013Y0158398D03*
X0126013Y0166076D03*
X0160461Y0148162D03*
X0160461Y0094422D03*
X0160461Y0068831D03*
X0129753Y0084973D03*
X0129753Y0091863D03*
X0065973Y0127690D03*
X0045304Y0148162D03*
X0029950Y0148162D03*
X0029950Y0173753D03*
X0045304Y0173753D03*
X0078721Y0163076D03*
D23*
X0066708Y0117454D02*
X0065776Y0117454D01*
D24*
X0065973Y0117847D01*
M02*
