G75*
%MOIN*%
%OFA0B0*%
%FSLAX25Y25*%
%IPPOS*%
%LPD*%
%AMOC8*
5,1,8,0,0,1.08239X$1,22.5*
%
%ADD10OC8,0.06000*%
%ADD11OC8,0.05600*%
%ADD12C,0.05600*%
%ADD13C,0.01600*%
%ADD14C,0.04356*%
%ADD15C,0.05000*%
D10*
X0084517Y0040800D03*
X0094517Y0040800D03*
X0104517Y0040800D03*
X0114517Y0040800D03*
X0124517Y0040800D03*
X0134517Y0040800D03*
X0144517Y0040800D03*
X0154517Y0040800D03*
X0154517Y0050800D03*
X0144517Y0050800D03*
X0134517Y0050800D03*
X0124517Y0050800D03*
X0114517Y0050800D03*
X0104517Y0050800D03*
X0094517Y0050800D03*
X0084517Y0050800D03*
X0171524Y0050800D03*
X0181524Y0050800D03*
X0191524Y0050800D03*
X0201524Y0050800D03*
X0211524Y0050800D03*
X0221524Y0050800D03*
X0231524Y0050800D03*
X0241524Y0050800D03*
X0241524Y0040800D03*
X0231524Y0040800D03*
X0221524Y0040800D03*
X0211524Y0040800D03*
X0201524Y0040800D03*
X0191524Y0040800D03*
X0181524Y0040800D03*
X0171524Y0040800D03*
D11*
X0027272Y0061981D03*
X0017272Y0061981D03*
X0017272Y0071981D03*
X0017272Y0081981D03*
X0027272Y0081981D03*
X0027272Y0071981D03*
X0027272Y0091981D03*
X0017272Y0091981D03*
X0017272Y0101981D03*
X0017272Y0111981D03*
X0027272Y0111981D03*
X0027272Y0101981D03*
X0027272Y0121981D03*
X0017272Y0121981D03*
X0017272Y0131981D03*
X0027272Y0131981D03*
X0031957Y0186666D03*
X0031957Y0196666D03*
X0021957Y0196666D03*
X0041957Y0196666D03*
X0041957Y0186666D03*
X0051957Y0186666D03*
X0051957Y0196666D03*
X0061957Y0196666D03*
X0061957Y0186666D03*
X0071957Y0186666D03*
X0081957Y0186666D03*
X0081957Y0196666D03*
X0071957Y0196666D03*
X0091957Y0196666D03*
X0091957Y0186666D03*
X0101957Y0186666D03*
X0101957Y0196666D03*
X0111957Y0196666D03*
X0111957Y0186666D03*
X0121957Y0186666D03*
X0121957Y0196666D03*
X0131957Y0196666D03*
X0131957Y0186666D03*
X0141957Y0186666D03*
X0141957Y0196666D03*
X0151957Y0196666D03*
X0151957Y0186666D03*
X0161957Y0186666D03*
X0171957Y0186666D03*
X0171957Y0196666D03*
X0161957Y0196666D03*
X0181957Y0196666D03*
X0181957Y0186666D03*
X0191957Y0186666D03*
X0191957Y0196666D03*
X0201957Y0196666D03*
X0201957Y0186666D03*
X0211957Y0186666D03*
X0211957Y0196666D03*
D12*
X0021957Y0186666D03*
D13*
X0009351Y0219547D02*
X0009164Y0032687D01*
X0247787Y0032687D01*
X0247787Y0219736D01*
X0009351Y0219547D01*
X0009350Y0218109D02*
X0247787Y0218109D01*
X0247787Y0216511D02*
X0009348Y0216511D01*
X0009346Y0214912D02*
X0247787Y0214912D01*
X0247787Y0213314D02*
X0009345Y0213314D01*
X0009343Y0211715D02*
X0247787Y0211715D01*
X0247787Y0210117D02*
X0009342Y0210117D01*
X0009340Y0208518D02*
X0247787Y0208518D01*
X0247787Y0206920D02*
X0009338Y0206920D01*
X0009337Y0205321D02*
X0247787Y0205321D01*
X0247787Y0203723D02*
X0009335Y0203723D01*
X0009334Y0202124D02*
X0247787Y0202124D01*
X0247787Y0200526D02*
X0214320Y0200526D01*
X0213780Y0201066D02*
X0210135Y0201066D01*
X0207557Y0198489D01*
X0207557Y0194844D01*
X0210135Y0192266D01*
X0213780Y0192266D01*
X0216357Y0194844D01*
X0216357Y0198489D01*
X0213780Y0201066D01*
X0215919Y0198927D02*
X0247787Y0198927D01*
X0247787Y0197329D02*
X0216357Y0197329D01*
X0216357Y0195730D02*
X0247787Y0195730D01*
X0247787Y0194132D02*
X0215646Y0194132D01*
X0214047Y0192533D02*
X0247787Y0192533D01*
X0247787Y0190935D02*
X0214194Y0190935D01*
X0213863Y0191266D02*
X0212057Y0191266D01*
X0212057Y0186766D01*
X0211857Y0186766D01*
X0211857Y0186566D01*
X0207357Y0186566D01*
X0207357Y0184761D01*
X0210052Y0182066D01*
X0211857Y0182066D01*
X0211857Y0186566D01*
X0212057Y0186566D01*
X0212057Y0182066D01*
X0213863Y0182066D01*
X0216557Y0184761D01*
X0216557Y0186566D01*
X0212058Y0186566D01*
X0212058Y0186766D01*
X0216557Y0186766D01*
X0216557Y0188572D01*
X0213863Y0191266D01*
X0212057Y0190935D02*
X0211857Y0190935D01*
X0211857Y0191266D02*
X0210052Y0191266D01*
X0207357Y0188572D01*
X0207357Y0186766D01*
X0211857Y0186766D01*
X0211857Y0191266D01*
X0211857Y0189336D02*
X0212057Y0189336D01*
X0212057Y0187738D02*
X0211857Y0187738D01*
X0211857Y0186139D02*
X0212057Y0186139D01*
X0212057Y0184541D02*
X0211857Y0184541D01*
X0211857Y0182942D02*
X0212057Y0182942D01*
X0214739Y0182942D02*
X0247787Y0182942D01*
X0247787Y0181344D02*
X0099278Y0181344D01*
X0099279Y0181346D02*
X0099279Y0183122D01*
X0100135Y0182266D01*
X0103780Y0182266D01*
X0106357Y0184844D01*
X0106357Y0188489D01*
X0103780Y0191066D01*
X0100135Y0191066D01*
X0099279Y0190210D01*
X0099279Y0190593D01*
X0100952Y0192266D01*
X0103780Y0192266D01*
X0106357Y0194844D01*
X0106357Y0198489D01*
X0103780Y0201066D01*
X0100135Y0201066D01*
X0097557Y0198489D01*
X0097557Y0195660D01*
X0094844Y0192947D01*
X0094479Y0192065D01*
X0094479Y0190367D01*
X0093780Y0191066D01*
X0090135Y0191066D01*
X0087557Y0188489D01*
X0087557Y0184844D01*
X0090135Y0182266D01*
X0093780Y0182266D01*
X0094479Y0182965D01*
X0094479Y0182818D01*
X0085255Y0173594D01*
X0076765Y0173594D01*
X0075882Y0173228D01*
X0075207Y0172553D01*
X0063939Y0161284D01*
X0063573Y0160402D01*
X0063573Y0130633D01*
X0062770Y0129830D01*
X0062195Y0128441D01*
X0062195Y0126938D01*
X0062770Y0125550D01*
X0063833Y0124487D01*
X0065222Y0123912D01*
X0066725Y0123912D01*
X0068113Y0124487D01*
X0069176Y0125550D01*
X0069751Y0126938D01*
X0069751Y0128441D01*
X0069176Y0129830D01*
X0068373Y0130633D01*
X0068373Y0158931D01*
X0078236Y0168794D01*
X0086726Y0168794D01*
X0087608Y0169159D01*
X0098238Y0179789D01*
X0098913Y0180464D01*
X0099279Y0181346D01*
X0099279Y0182942D02*
X0099459Y0182942D01*
X0096879Y0181824D02*
X0096879Y0191587D01*
X0101957Y0196666D01*
X0097996Y0198927D02*
X0095919Y0198927D01*
X0096357Y0198489D02*
X0093780Y0201066D01*
X0090135Y0201066D01*
X0087557Y0198489D01*
X0087557Y0194844D01*
X0090135Y0192266D01*
X0093780Y0192266D01*
X0096357Y0194844D01*
X0096357Y0198489D01*
X0096357Y0197329D02*
X0097557Y0197329D01*
X0097557Y0195730D02*
X0096357Y0195730D01*
X0096029Y0194132D02*
X0095646Y0194132D01*
X0094673Y0192533D02*
X0094047Y0192533D01*
X0093911Y0190935D02*
X0094479Y0190935D01*
X0090004Y0190935D02*
X0083911Y0190935D01*
X0083780Y0191066D02*
X0080135Y0191066D01*
X0077557Y0188489D01*
X0077557Y0184844D01*
X0080135Y0182266D01*
X0083780Y0182266D01*
X0086357Y0184844D01*
X0086357Y0188489D01*
X0083780Y0191066D01*
X0083863Y0192066D02*
X0086557Y0194761D01*
X0086557Y0196566D01*
X0082058Y0196566D01*
X0082058Y0196766D01*
X0086557Y0196766D01*
X0086557Y0198572D01*
X0083863Y0201266D01*
X0082057Y0201266D01*
X0082057Y0196766D01*
X0081857Y0196766D01*
X0081857Y0196566D01*
X0077357Y0196566D01*
X0077357Y0194761D01*
X0080052Y0192066D01*
X0081857Y0192066D01*
X0081857Y0196566D01*
X0082057Y0196566D01*
X0082057Y0192066D01*
X0083863Y0192066D01*
X0084330Y0192533D02*
X0089868Y0192533D01*
X0088269Y0194132D02*
X0085929Y0194132D01*
X0086557Y0195730D02*
X0087557Y0195730D01*
X0087557Y0197329D02*
X0086557Y0197329D01*
X0086202Y0198927D02*
X0087996Y0198927D01*
X0089595Y0200526D02*
X0084603Y0200526D01*
X0082057Y0200526D02*
X0081857Y0200526D01*
X0081857Y0201266D02*
X0080052Y0201266D01*
X0077357Y0198572D01*
X0077357Y0196766D01*
X0081857Y0196766D01*
X0081857Y0201266D01*
X0081857Y0198927D02*
X0082057Y0198927D01*
X0082057Y0197329D02*
X0081857Y0197329D01*
X0081857Y0195730D02*
X0082057Y0195730D01*
X0082057Y0194132D02*
X0081857Y0194132D01*
X0081857Y0192533D02*
X0082057Y0192533D01*
X0079585Y0192533D02*
X0074047Y0192533D01*
X0073780Y0192266D02*
X0076357Y0194844D01*
X0076357Y0198489D01*
X0073780Y0201066D01*
X0070135Y0201066D01*
X0067557Y0198489D01*
X0067557Y0194844D01*
X0070135Y0192266D01*
X0073780Y0192266D01*
X0073780Y0191066D02*
X0070135Y0191066D01*
X0067557Y0188489D01*
X0067557Y0184844D01*
X0070135Y0182266D01*
X0073780Y0182266D01*
X0076357Y0184844D01*
X0076357Y0188489D01*
X0073780Y0191066D01*
X0073911Y0190935D02*
X0080004Y0190935D01*
X0078405Y0189336D02*
X0075510Y0189336D01*
X0076357Y0187738D02*
X0077557Y0187738D01*
X0077557Y0186139D02*
X0076357Y0186139D01*
X0076055Y0184541D02*
X0077860Y0184541D01*
X0079459Y0182942D02*
X0074456Y0182942D01*
X0069459Y0182942D02*
X0064739Y0182942D01*
X0063863Y0182066D02*
X0066557Y0184761D01*
X0066557Y0186566D01*
X0062058Y0186566D01*
X0062058Y0186766D01*
X0066557Y0186766D01*
X0066557Y0188572D01*
X0063863Y0191266D01*
X0062057Y0191266D01*
X0062057Y0186766D01*
X0061857Y0186766D01*
X0061857Y0186566D01*
X0057357Y0186566D01*
X0057357Y0184761D01*
X0060052Y0182066D01*
X0061857Y0182066D01*
X0061857Y0186566D01*
X0062057Y0186566D01*
X0062057Y0182066D01*
X0063863Y0182066D01*
X0062057Y0182942D02*
X0061857Y0182942D01*
X0061857Y0184541D02*
X0062057Y0184541D01*
X0062057Y0186139D02*
X0061857Y0186139D01*
X0061857Y0186766D02*
X0057357Y0186766D01*
X0057357Y0188572D01*
X0060052Y0191266D01*
X0061857Y0191266D01*
X0061857Y0186766D01*
X0061857Y0187738D02*
X0062057Y0187738D01*
X0062057Y0189336D02*
X0061857Y0189336D01*
X0061857Y0190935D02*
X0062057Y0190935D01*
X0064194Y0190935D02*
X0070004Y0190935D01*
X0069868Y0192533D02*
X0064047Y0192533D01*
X0063780Y0192266D02*
X0066357Y0194844D01*
X0066357Y0198489D01*
X0063780Y0201066D01*
X0060135Y0201066D01*
X0057557Y0198489D01*
X0057557Y0194844D01*
X0060135Y0192266D01*
X0063780Y0192266D01*
X0065646Y0194132D02*
X0068269Y0194132D01*
X0067557Y0195730D02*
X0066357Y0195730D01*
X0066357Y0197329D02*
X0067557Y0197329D01*
X0067996Y0198927D02*
X0065919Y0198927D01*
X0064320Y0200526D02*
X0069595Y0200526D01*
X0074320Y0200526D02*
X0079312Y0200526D01*
X0077713Y0198927D02*
X0075919Y0198927D01*
X0076357Y0197329D02*
X0077357Y0197329D01*
X0077357Y0195730D02*
X0076357Y0195730D01*
X0075646Y0194132D02*
X0077986Y0194132D01*
X0085510Y0189336D02*
X0088405Y0189336D01*
X0087557Y0187738D02*
X0086357Y0187738D01*
X0086357Y0186139D02*
X0087557Y0186139D01*
X0087860Y0184541D02*
X0086055Y0184541D01*
X0084456Y0182942D02*
X0089459Y0182942D01*
X0091406Y0179745D02*
X0009311Y0179745D01*
X0009310Y0178147D02*
X0089808Y0178147D01*
X0088209Y0176548D02*
X0009308Y0176548D01*
X0009306Y0174950D02*
X0086611Y0174950D01*
X0086249Y0171194D02*
X0096879Y0181824D01*
X0098194Y0179745D02*
X0247787Y0179745D01*
X0247787Y0178147D02*
X0096596Y0178147D01*
X0094997Y0176548D02*
X0247787Y0176548D01*
X0247787Y0174950D02*
X0093399Y0174950D01*
X0091800Y0173351D02*
X0247787Y0173351D01*
X0247787Y0171753D02*
X0090202Y0171753D01*
X0088603Y0170154D02*
X0247787Y0170154D01*
X0247787Y0168556D02*
X0077998Y0168556D01*
X0077970Y0166854D02*
X0076581Y0166278D01*
X0075518Y0165216D01*
X0074943Y0163827D01*
X0074943Y0162324D01*
X0075518Y0160936D01*
X0076581Y0159873D01*
X0077970Y0159298D01*
X0079473Y0159298D01*
X0080861Y0159873D01*
X0081664Y0160676D01*
X0120341Y0160676D01*
X0122235Y0158782D01*
X0122235Y0157647D01*
X0122810Y0156258D01*
X0123873Y0155196D01*
X0125261Y0154620D01*
X0126764Y0154620D01*
X0128153Y0155196D01*
X0129215Y0156258D01*
X0129791Y0157647D01*
X0129791Y0159150D01*
X0129215Y0160538D01*
X0128153Y0161601D01*
X0126764Y0162176D01*
X0125629Y0162176D01*
X0122695Y0165110D01*
X0121813Y0165476D01*
X0081664Y0165476D01*
X0080861Y0166278D01*
X0079473Y0166854D01*
X0077970Y0166854D01*
X0076399Y0166957D02*
X0247787Y0166957D01*
X0247787Y0165359D02*
X0122095Y0165359D01*
X0121335Y0163076D02*
X0126013Y0158398D01*
X0129674Y0157366D02*
X0247787Y0157366D01*
X0247787Y0155768D02*
X0128725Y0155768D01*
X0129791Y0158965D02*
X0247787Y0158965D01*
X0247787Y0160563D02*
X0129191Y0160563D01*
X0126800Y0162162D02*
X0247787Y0162162D01*
X0247787Y0163760D02*
X0124045Y0163760D01*
X0121335Y0163076D02*
X0078721Y0163076D01*
X0075891Y0160563D02*
X0070005Y0160563D01*
X0068407Y0158965D02*
X0122052Y0158965D01*
X0122351Y0157366D02*
X0068373Y0157366D01*
X0068373Y0155768D02*
X0123301Y0155768D01*
X0120454Y0160563D02*
X0081552Y0160563D01*
X0075011Y0162162D02*
X0071604Y0162162D01*
X0073202Y0163760D02*
X0074943Y0163760D01*
X0074801Y0165359D02*
X0075661Y0165359D01*
X0071210Y0168556D02*
X0009300Y0168556D01*
X0009302Y0170154D02*
X0072808Y0170154D01*
X0074407Y0171753D02*
X0009303Y0171753D01*
X0009305Y0173351D02*
X0076179Y0173351D01*
X0077242Y0171194D02*
X0086249Y0171194D01*
X0077242Y0171194D02*
X0065973Y0159925D01*
X0065973Y0127690D01*
X0063132Y0130191D02*
X0031672Y0130191D01*
X0031672Y0130159D02*
X0031672Y0133804D01*
X0029095Y0136381D01*
X0025450Y0136381D01*
X0025150Y0136081D01*
X0019395Y0136081D01*
X0019095Y0136381D01*
X0015450Y0136381D01*
X0012872Y0133804D01*
X0012872Y0130159D01*
X0013054Y0129977D01*
X0013054Y0123986D01*
X0012872Y0123804D01*
X0012872Y0120159D01*
X0015450Y0117581D01*
X0019095Y0117581D01*
X0019395Y0117881D01*
X0025150Y0117881D01*
X0025450Y0117581D01*
X0029095Y0117581D01*
X0031672Y0120159D01*
X0031672Y0123804D01*
X0031372Y0124104D01*
X0031372Y0129859D01*
X0031672Y0130159D01*
X0031372Y0128593D02*
X0062258Y0128593D01*
X0062195Y0126994D02*
X0031372Y0126994D01*
X0031372Y0125396D02*
X0062924Y0125396D01*
X0069022Y0125396D02*
X0247787Y0125396D01*
X0247787Y0126994D02*
X0069751Y0126994D01*
X0069688Y0128593D02*
X0247787Y0128593D01*
X0247787Y0130191D02*
X0068814Y0130191D01*
X0068373Y0131790D02*
X0247787Y0131790D01*
X0247787Y0133388D02*
X0068373Y0133388D01*
X0068373Y0134987D02*
X0247787Y0134987D01*
X0247787Y0136585D02*
X0068373Y0136585D01*
X0068373Y0138184D02*
X0247787Y0138184D01*
X0247787Y0139782D02*
X0068373Y0139782D01*
X0068373Y0141381D02*
X0247787Y0141381D01*
X0247787Y0142979D02*
X0068373Y0142979D01*
X0068373Y0144578D02*
X0247787Y0144578D01*
X0247787Y0146176D02*
X0068373Y0146176D01*
X0068373Y0147775D02*
X0247787Y0147775D01*
X0247787Y0149373D02*
X0068373Y0149373D01*
X0068373Y0150972D02*
X0247787Y0150972D01*
X0247787Y0152570D02*
X0068373Y0152570D01*
X0068373Y0154169D02*
X0247787Y0154169D01*
X0247787Y0184541D02*
X0216337Y0184541D01*
X0216557Y0186139D02*
X0247787Y0186139D01*
X0247787Y0187738D02*
X0216557Y0187738D01*
X0215793Y0189336D02*
X0247787Y0189336D01*
X0247787Y0219708D02*
X0212024Y0219708D01*
X0209595Y0200526D02*
X0204320Y0200526D01*
X0203780Y0201066D02*
X0200135Y0201066D01*
X0197557Y0198489D01*
X0197557Y0194844D01*
X0200135Y0192266D01*
X0203780Y0192266D01*
X0206357Y0194844D01*
X0206357Y0198489D01*
X0203780Y0201066D01*
X0205919Y0198927D02*
X0207996Y0198927D01*
X0207557Y0197329D02*
X0206357Y0197329D01*
X0206357Y0195730D02*
X0207557Y0195730D01*
X0208269Y0194132D02*
X0205646Y0194132D01*
X0204047Y0192533D02*
X0209868Y0192533D01*
X0209721Y0190935D02*
X0203911Y0190935D01*
X0203780Y0191066D02*
X0200135Y0191066D01*
X0197557Y0188489D01*
X0197557Y0184844D01*
X0200135Y0182266D01*
X0203780Y0182266D01*
X0206357Y0184844D01*
X0206357Y0188489D01*
X0203780Y0191066D01*
X0205510Y0189336D02*
X0208122Y0189336D01*
X0207357Y0187738D02*
X0206357Y0187738D01*
X0206357Y0186139D02*
X0207357Y0186139D01*
X0207578Y0184541D02*
X0206055Y0184541D01*
X0204456Y0182942D02*
X0209176Y0182942D01*
X0199459Y0182942D02*
X0194456Y0182942D01*
X0193780Y0182266D02*
X0196357Y0184844D01*
X0196357Y0188489D01*
X0193780Y0191066D01*
X0190135Y0191066D01*
X0187557Y0188489D01*
X0187557Y0184844D01*
X0190135Y0182266D01*
X0193780Y0182266D01*
X0196055Y0184541D02*
X0197860Y0184541D01*
X0197557Y0186139D02*
X0196357Y0186139D01*
X0196357Y0187738D02*
X0197557Y0187738D01*
X0198405Y0189336D02*
X0195510Y0189336D01*
X0193911Y0190935D02*
X0200004Y0190935D01*
X0199868Y0192533D02*
X0194047Y0192533D01*
X0193780Y0192266D02*
X0196357Y0194844D01*
X0196357Y0198489D01*
X0193780Y0201066D01*
X0190135Y0201066D01*
X0187557Y0198489D01*
X0187557Y0194844D01*
X0190135Y0192266D01*
X0193780Y0192266D01*
X0195646Y0194132D02*
X0198269Y0194132D01*
X0197557Y0195730D02*
X0196357Y0195730D01*
X0196357Y0197329D02*
X0197557Y0197329D01*
X0197996Y0198927D02*
X0195919Y0198927D01*
X0194320Y0200526D02*
X0199595Y0200526D01*
X0189595Y0200526D02*
X0184603Y0200526D01*
X0183863Y0201266D02*
X0182057Y0201266D01*
X0182057Y0196766D01*
X0181857Y0196766D01*
X0181857Y0196566D01*
X0177357Y0196566D01*
X0177357Y0194761D01*
X0180052Y0192066D01*
X0181857Y0192066D01*
X0181857Y0196566D01*
X0182057Y0196566D01*
X0182057Y0192066D01*
X0183863Y0192066D01*
X0186557Y0194761D01*
X0186557Y0196566D01*
X0182058Y0196566D01*
X0182058Y0196766D01*
X0186557Y0196766D01*
X0186557Y0198572D01*
X0183863Y0201266D01*
X0182057Y0200526D02*
X0181857Y0200526D01*
X0181857Y0201266D02*
X0180052Y0201266D01*
X0177357Y0198572D01*
X0177357Y0196766D01*
X0181857Y0196766D01*
X0181857Y0201266D01*
X0181857Y0198927D02*
X0182057Y0198927D01*
X0182057Y0197329D02*
X0181857Y0197329D01*
X0181857Y0195730D02*
X0182057Y0195730D01*
X0182057Y0194132D02*
X0181857Y0194132D01*
X0181857Y0192533D02*
X0182057Y0192533D01*
X0183780Y0191066D02*
X0180135Y0191066D01*
X0177557Y0188489D01*
X0177557Y0184844D01*
X0180135Y0182266D01*
X0183780Y0182266D01*
X0186357Y0184844D01*
X0186357Y0188489D01*
X0183780Y0191066D01*
X0183911Y0190935D02*
X0190004Y0190935D01*
X0189868Y0192533D02*
X0184330Y0192533D01*
X0185929Y0194132D02*
X0188269Y0194132D01*
X0187557Y0195730D02*
X0186557Y0195730D01*
X0186557Y0197329D02*
X0187557Y0197329D01*
X0187996Y0198927D02*
X0186202Y0198927D01*
X0179312Y0200526D02*
X0174320Y0200526D01*
X0173780Y0201066D02*
X0170135Y0201066D01*
X0167557Y0198489D01*
X0167557Y0194844D01*
X0170135Y0192266D01*
X0173780Y0192266D01*
X0176357Y0194844D01*
X0176357Y0198489D01*
X0173780Y0201066D01*
X0175919Y0198927D02*
X0177713Y0198927D01*
X0177357Y0197329D02*
X0176357Y0197329D01*
X0176357Y0195730D02*
X0177357Y0195730D01*
X0177986Y0194132D02*
X0175646Y0194132D01*
X0174047Y0192533D02*
X0179585Y0192533D01*
X0180004Y0190935D02*
X0173911Y0190935D01*
X0173780Y0191066D02*
X0170135Y0191066D01*
X0167557Y0188489D01*
X0167557Y0184844D01*
X0170135Y0182266D01*
X0173780Y0182266D01*
X0176357Y0184844D01*
X0176357Y0188489D01*
X0173780Y0191066D01*
X0175510Y0189336D02*
X0178405Y0189336D01*
X0177557Y0187738D02*
X0176357Y0187738D01*
X0176357Y0186139D02*
X0177557Y0186139D01*
X0177860Y0184541D02*
X0176055Y0184541D01*
X0174456Y0182942D02*
X0179459Y0182942D01*
X0184456Y0182942D02*
X0189459Y0182942D01*
X0187860Y0184541D02*
X0186055Y0184541D01*
X0186357Y0186139D02*
X0187557Y0186139D01*
X0187557Y0187738D02*
X0186357Y0187738D01*
X0185510Y0189336D02*
X0188405Y0189336D01*
X0170004Y0190935D02*
X0163911Y0190935D01*
X0163780Y0191066D02*
X0160135Y0191066D01*
X0157557Y0188489D01*
X0157557Y0184844D01*
X0160135Y0182266D01*
X0163780Y0182266D01*
X0166357Y0184844D01*
X0166357Y0188489D01*
X0163780Y0191066D01*
X0163863Y0192066D02*
X0166557Y0194761D01*
X0166557Y0196566D01*
X0162058Y0196566D01*
X0162058Y0196766D01*
X0166557Y0196766D01*
X0166557Y0198572D01*
X0163863Y0201266D01*
X0162057Y0201266D01*
X0162057Y0196766D01*
X0161857Y0196766D01*
X0161857Y0196566D01*
X0157357Y0196566D01*
X0157357Y0194761D01*
X0160052Y0192066D01*
X0161857Y0192066D01*
X0161857Y0196566D01*
X0162057Y0196566D01*
X0162057Y0192066D01*
X0163863Y0192066D01*
X0164330Y0192533D02*
X0169868Y0192533D01*
X0168269Y0194132D02*
X0165929Y0194132D01*
X0166557Y0195730D02*
X0167557Y0195730D01*
X0167557Y0197329D02*
X0166557Y0197329D01*
X0166202Y0198927D02*
X0167996Y0198927D01*
X0169595Y0200526D02*
X0164603Y0200526D01*
X0162057Y0200526D02*
X0161857Y0200526D01*
X0161857Y0201266D02*
X0160052Y0201266D01*
X0157357Y0198572D01*
X0157357Y0196766D01*
X0161857Y0196766D01*
X0161857Y0201266D01*
X0161857Y0198927D02*
X0162057Y0198927D01*
X0162057Y0197329D02*
X0161857Y0197329D01*
X0161857Y0195730D02*
X0162057Y0195730D01*
X0162057Y0194132D02*
X0161857Y0194132D01*
X0161857Y0192533D02*
X0162057Y0192533D01*
X0159585Y0192533D02*
X0154047Y0192533D01*
X0153780Y0192266D02*
X0156357Y0194844D01*
X0156357Y0198489D01*
X0153780Y0201066D01*
X0150135Y0201066D01*
X0147557Y0198489D01*
X0147557Y0194844D01*
X0150135Y0192266D01*
X0153780Y0192266D01*
X0153780Y0191066D02*
X0150135Y0191066D01*
X0147557Y0188489D01*
X0147557Y0184844D01*
X0150135Y0182266D01*
X0153780Y0182266D01*
X0156357Y0184844D01*
X0156357Y0188489D01*
X0153780Y0191066D01*
X0153911Y0190935D02*
X0160004Y0190935D01*
X0158405Y0189336D02*
X0155510Y0189336D01*
X0156357Y0187738D02*
X0157557Y0187738D01*
X0157557Y0186139D02*
X0156357Y0186139D01*
X0156055Y0184541D02*
X0157860Y0184541D01*
X0159459Y0182942D02*
X0154456Y0182942D01*
X0149459Y0182942D02*
X0144739Y0182942D01*
X0143863Y0182066D02*
X0146557Y0184761D01*
X0146557Y0186566D01*
X0142058Y0186566D01*
X0142058Y0186766D01*
X0146557Y0186766D01*
X0146557Y0188572D01*
X0143863Y0191266D01*
X0142057Y0191266D01*
X0142057Y0186766D01*
X0141857Y0186766D01*
X0141857Y0186566D01*
X0137357Y0186566D01*
X0137357Y0184761D01*
X0140052Y0182066D01*
X0141857Y0182066D01*
X0141857Y0186566D01*
X0142057Y0186566D01*
X0142057Y0182066D01*
X0143863Y0182066D01*
X0142057Y0182942D02*
X0141857Y0182942D01*
X0141857Y0184541D02*
X0142057Y0184541D01*
X0142057Y0186139D02*
X0141857Y0186139D01*
X0141857Y0186766D02*
X0137357Y0186766D01*
X0137357Y0188572D01*
X0140052Y0191266D01*
X0141857Y0191266D01*
X0141857Y0186766D01*
X0141857Y0187738D02*
X0142057Y0187738D01*
X0142057Y0189336D02*
X0141857Y0189336D01*
X0141857Y0190935D02*
X0142057Y0190935D01*
X0144194Y0190935D02*
X0150004Y0190935D01*
X0149868Y0192533D02*
X0144047Y0192533D01*
X0143780Y0192266D02*
X0146357Y0194844D01*
X0146357Y0198489D01*
X0143780Y0201066D01*
X0140135Y0201066D01*
X0137557Y0198489D01*
X0137557Y0194844D01*
X0140135Y0192266D01*
X0143780Y0192266D01*
X0145646Y0194132D02*
X0148269Y0194132D01*
X0147557Y0195730D02*
X0146357Y0195730D01*
X0146357Y0197329D02*
X0147557Y0197329D01*
X0147996Y0198927D02*
X0145919Y0198927D01*
X0144320Y0200526D02*
X0149595Y0200526D01*
X0154320Y0200526D02*
X0159312Y0200526D01*
X0157713Y0198927D02*
X0155919Y0198927D01*
X0156357Y0197329D02*
X0157357Y0197329D01*
X0157357Y0195730D02*
X0156357Y0195730D01*
X0155646Y0194132D02*
X0157986Y0194132D01*
X0165510Y0189336D02*
X0168405Y0189336D01*
X0167557Y0187738D02*
X0166357Y0187738D01*
X0166357Y0186139D02*
X0167557Y0186139D01*
X0167860Y0184541D02*
X0166055Y0184541D01*
X0164456Y0182942D02*
X0169459Y0182942D01*
X0147860Y0184541D02*
X0146337Y0184541D01*
X0146557Y0186139D02*
X0147557Y0186139D01*
X0147557Y0187738D02*
X0146557Y0187738D01*
X0145793Y0189336D02*
X0148405Y0189336D01*
X0139721Y0190935D02*
X0133911Y0190935D01*
X0133780Y0191066D02*
X0130135Y0191066D01*
X0127557Y0188489D01*
X0127557Y0184844D01*
X0130135Y0182266D01*
X0133780Y0182266D01*
X0136357Y0184844D01*
X0136357Y0188489D01*
X0133780Y0191066D01*
X0133780Y0192266D02*
X0136357Y0194844D01*
X0136357Y0198489D01*
X0133780Y0201066D01*
X0130135Y0201066D01*
X0127557Y0198489D01*
X0127557Y0194844D01*
X0130135Y0192266D01*
X0133780Y0192266D01*
X0134047Y0192533D02*
X0139868Y0192533D01*
X0138269Y0194132D02*
X0135646Y0194132D01*
X0136357Y0195730D02*
X0137557Y0195730D01*
X0137557Y0197329D02*
X0136357Y0197329D01*
X0135919Y0198927D02*
X0137996Y0198927D01*
X0139595Y0200526D02*
X0134320Y0200526D01*
X0129595Y0200526D02*
X0124320Y0200526D01*
X0123780Y0201066D02*
X0120135Y0201066D01*
X0117557Y0198489D01*
X0117557Y0194844D01*
X0120135Y0192266D01*
X0123780Y0192266D01*
X0126357Y0194844D01*
X0126357Y0198489D01*
X0123780Y0201066D01*
X0125919Y0198927D02*
X0127996Y0198927D01*
X0127557Y0197329D02*
X0126357Y0197329D01*
X0126357Y0195730D02*
X0127557Y0195730D01*
X0128269Y0194132D02*
X0125646Y0194132D01*
X0124047Y0192533D02*
X0129868Y0192533D01*
X0130004Y0190935D02*
X0123911Y0190935D01*
X0123780Y0191066D02*
X0120135Y0191066D01*
X0117557Y0188489D01*
X0117557Y0184844D01*
X0120135Y0182266D01*
X0123780Y0182266D01*
X0126357Y0184844D01*
X0126357Y0188489D01*
X0123780Y0191066D01*
X0125510Y0189336D02*
X0128405Y0189336D01*
X0127557Y0187738D02*
X0126357Y0187738D01*
X0126357Y0186139D02*
X0127557Y0186139D01*
X0127860Y0184541D02*
X0126055Y0184541D01*
X0124456Y0182942D02*
X0129459Y0182942D01*
X0134456Y0182942D02*
X0139176Y0182942D01*
X0137578Y0184541D02*
X0136055Y0184541D01*
X0136357Y0186139D02*
X0137357Y0186139D01*
X0137357Y0187738D02*
X0136357Y0187738D01*
X0135510Y0189336D02*
X0138122Y0189336D01*
X0120004Y0190935D02*
X0113911Y0190935D01*
X0113780Y0191066D02*
X0110135Y0191066D01*
X0107557Y0188489D01*
X0107557Y0184844D01*
X0110135Y0182266D01*
X0113780Y0182266D01*
X0116357Y0184844D01*
X0116357Y0188489D01*
X0113780Y0191066D01*
X0113863Y0192066D02*
X0116557Y0194761D01*
X0116557Y0196566D01*
X0112058Y0196566D01*
X0112058Y0196766D01*
X0116557Y0196766D01*
X0116557Y0198572D01*
X0113863Y0201266D01*
X0112057Y0201266D01*
X0112057Y0196766D01*
X0111857Y0196766D01*
X0111857Y0196566D01*
X0107357Y0196566D01*
X0107357Y0194761D01*
X0110052Y0192066D01*
X0111857Y0192066D01*
X0111857Y0196566D01*
X0112057Y0196566D01*
X0112057Y0192066D01*
X0113863Y0192066D01*
X0114330Y0192533D02*
X0119868Y0192533D01*
X0118269Y0194132D02*
X0115929Y0194132D01*
X0116557Y0195730D02*
X0117557Y0195730D01*
X0117557Y0197329D02*
X0116557Y0197329D01*
X0116202Y0198927D02*
X0117996Y0198927D01*
X0119595Y0200526D02*
X0114603Y0200526D01*
X0112057Y0200526D02*
X0111857Y0200526D01*
X0111857Y0201266D02*
X0110052Y0201266D01*
X0107357Y0198572D01*
X0107357Y0196766D01*
X0111857Y0196766D01*
X0111857Y0201266D01*
X0111857Y0198927D02*
X0112057Y0198927D01*
X0112057Y0197329D02*
X0111857Y0197329D01*
X0111857Y0195730D02*
X0112057Y0195730D01*
X0112057Y0194132D02*
X0111857Y0194132D01*
X0111857Y0192533D02*
X0112057Y0192533D01*
X0109585Y0192533D02*
X0104047Y0192533D01*
X0103911Y0190935D02*
X0110004Y0190935D01*
X0108405Y0189336D02*
X0105510Y0189336D01*
X0106357Y0187738D02*
X0107557Y0187738D01*
X0107557Y0186139D02*
X0106357Y0186139D01*
X0106055Y0184541D02*
X0107860Y0184541D01*
X0109459Y0182942D02*
X0104456Y0182942D01*
X0100004Y0190935D02*
X0099620Y0190935D01*
X0105646Y0194132D02*
X0107986Y0194132D01*
X0107357Y0195730D02*
X0106357Y0195730D01*
X0106357Y0197329D02*
X0107357Y0197329D01*
X0107713Y0198927D02*
X0105919Y0198927D01*
X0104320Y0200526D02*
X0109312Y0200526D01*
X0099595Y0200526D02*
X0094320Y0200526D01*
X0094456Y0182942D02*
X0094479Y0182942D01*
X0093005Y0181344D02*
X0009313Y0181344D01*
X0009314Y0182942D02*
X0019459Y0182942D01*
X0019465Y0182936D02*
X0021082Y0182266D01*
X0022833Y0182266D01*
X0024450Y0182936D01*
X0025688Y0184174D01*
X0026357Y0185791D01*
X0026357Y0187541D01*
X0025688Y0189159D01*
X0024450Y0190396D01*
X0022833Y0191066D01*
X0021082Y0191066D01*
X0019465Y0190396D01*
X0018227Y0189159D01*
X0017557Y0187541D01*
X0017557Y0185791D01*
X0018227Y0184174D01*
X0019465Y0182936D01*
X0018075Y0184541D02*
X0009316Y0184541D01*
X0009318Y0186139D02*
X0017557Y0186139D01*
X0017639Y0187738D02*
X0009319Y0187738D01*
X0009321Y0189336D02*
X0018405Y0189336D01*
X0020765Y0190935D02*
X0009322Y0190935D01*
X0009324Y0192533D02*
X0019868Y0192533D01*
X0020135Y0192266D02*
X0023780Y0192266D01*
X0026357Y0194844D01*
X0026357Y0198489D01*
X0023780Y0201066D01*
X0020135Y0201066D01*
X0017557Y0198489D01*
X0017557Y0194844D01*
X0020135Y0192266D01*
X0018269Y0194132D02*
X0009326Y0194132D01*
X0009327Y0195730D02*
X0017557Y0195730D01*
X0017557Y0197329D02*
X0009329Y0197329D01*
X0009330Y0198927D02*
X0017996Y0198927D01*
X0019595Y0200526D02*
X0009332Y0200526D01*
X0024320Y0200526D02*
X0029595Y0200526D01*
X0030135Y0201066D02*
X0027557Y0198489D01*
X0027557Y0194844D01*
X0030135Y0192266D01*
X0033780Y0192266D01*
X0036357Y0194844D01*
X0036357Y0198489D01*
X0033780Y0201066D01*
X0030135Y0201066D01*
X0027996Y0198927D02*
X0025919Y0198927D01*
X0026357Y0197329D02*
X0027557Y0197329D01*
X0027557Y0195730D02*
X0026357Y0195730D01*
X0025646Y0194132D02*
X0028269Y0194132D01*
X0029868Y0192533D02*
X0024047Y0192533D01*
X0023150Y0190935D02*
X0030004Y0190935D01*
X0030135Y0191066D02*
X0027557Y0188489D01*
X0027557Y0184844D01*
X0030135Y0182266D01*
X0033780Y0182266D01*
X0036357Y0184844D01*
X0036357Y0188489D01*
X0033780Y0191066D01*
X0030135Y0191066D01*
X0028405Y0189336D02*
X0025510Y0189336D01*
X0026276Y0187738D02*
X0027557Y0187738D01*
X0027557Y0186139D02*
X0026357Y0186139D01*
X0025840Y0184541D02*
X0027860Y0184541D01*
X0029459Y0182942D02*
X0024456Y0182942D01*
X0034456Y0182942D02*
X0039459Y0182942D01*
X0040135Y0182266D02*
X0043780Y0182266D01*
X0046357Y0184844D01*
X0046357Y0188489D01*
X0043780Y0191066D01*
X0040135Y0191066D01*
X0037557Y0188489D01*
X0037557Y0184844D01*
X0040135Y0182266D01*
X0037860Y0184541D02*
X0036055Y0184541D01*
X0036357Y0186139D02*
X0037557Y0186139D01*
X0037557Y0187738D02*
X0036357Y0187738D01*
X0035510Y0189336D02*
X0038405Y0189336D01*
X0040004Y0190935D02*
X0033911Y0190935D01*
X0034047Y0192533D02*
X0039585Y0192533D01*
X0040052Y0192066D02*
X0041857Y0192066D01*
X0041857Y0196566D01*
X0037357Y0196566D01*
X0037357Y0194761D01*
X0040052Y0192066D01*
X0041857Y0192533D02*
X0042057Y0192533D01*
X0042057Y0192066D02*
X0043863Y0192066D01*
X0046557Y0194761D01*
X0046557Y0196566D01*
X0042058Y0196566D01*
X0042058Y0196766D01*
X0046557Y0196766D01*
X0046557Y0198572D01*
X0043863Y0201266D01*
X0042057Y0201266D01*
X0042057Y0196766D01*
X0041857Y0196766D01*
X0041857Y0196566D01*
X0042057Y0196566D01*
X0042057Y0192066D01*
X0042057Y0194132D02*
X0041857Y0194132D01*
X0041857Y0195730D02*
X0042057Y0195730D01*
X0041857Y0196766D02*
X0037357Y0196766D01*
X0037357Y0198572D01*
X0040052Y0201266D01*
X0041857Y0201266D01*
X0041857Y0196766D01*
X0041857Y0197329D02*
X0042057Y0197329D01*
X0042057Y0198927D02*
X0041857Y0198927D01*
X0041857Y0200526D02*
X0042057Y0200526D01*
X0044603Y0200526D02*
X0049595Y0200526D01*
X0050135Y0201066D02*
X0047557Y0198489D01*
X0047557Y0194844D01*
X0050135Y0192266D01*
X0053780Y0192266D01*
X0056357Y0194844D01*
X0056357Y0198489D01*
X0053780Y0201066D01*
X0050135Y0201066D01*
X0047996Y0198927D02*
X0046202Y0198927D01*
X0046557Y0197329D02*
X0047557Y0197329D01*
X0047557Y0195730D02*
X0046557Y0195730D01*
X0045929Y0194132D02*
X0048269Y0194132D01*
X0049868Y0192533D02*
X0044330Y0192533D01*
X0043911Y0190935D02*
X0050004Y0190935D01*
X0050135Y0191066D02*
X0047557Y0188489D01*
X0047557Y0184844D01*
X0050135Y0182266D01*
X0053780Y0182266D01*
X0056357Y0184844D01*
X0056357Y0188489D01*
X0053780Y0191066D01*
X0050135Y0191066D01*
X0048405Y0189336D02*
X0045510Y0189336D01*
X0046357Y0187738D02*
X0047557Y0187738D01*
X0047557Y0186139D02*
X0046357Y0186139D01*
X0046055Y0184541D02*
X0047860Y0184541D01*
X0049459Y0182942D02*
X0044456Y0182942D01*
X0054456Y0182942D02*
X0059176Y0182942D01*
X0057578Y0184541D02*
X0056055Y0184541D01*
X0056357Y0186139D02*
X0057357Y0186139D01*
X0057357Y0187738D02*
X0056357Y0187738D01*
X0055510Y0189336D02*
X0058122Y0189336D01*
X0059721Y0190935D02*
X0053911Y0190935D01*
X0054047Y0192533D02*
X0059868Y0192533D01*
X0058269Y0194132D02*
X0055646Y0194132D01*
X0056357Y0195730D02*
X0057557Y0195730D01*
X0057557Y0197329D02*
X0056357Y0197329D01*
X0055919Y0198927D02*
X0057996Y0198927D01*
X0059595Y0200526D02*
X0054320Y0200526D01*
X0065793Y0189336D02*
X0068405Y0189336D01*
X0067557Y0187738D02*
X0066557Y0187738D01*
X0066557Y0186139D02*
X0067557Y0186139D01*
X0067860Y0184541D02*
X0066337Y0184541D01*
X0069611Y0166957D02*
X0009298Y0166957D01*
X0009297Y0165359D02*
X0068013Y0165359D01*
X0066414Y0163760D02*
X0009295Y0163760D01*
X0009294Y0162162D02*
X0064816Y0162162D01*
X0063640Y0160563D02*
X0009292Y0160563D01*
X0009290Y0158965D02*
X0063573Y0158965D01*
X0063573Y0157366D02*
X0009289Y0157366D01*
X0009287Y0155768D02*
X0063573Y0155768D01*
X0063573Y0154169D02*
X0009286Y0154169D01*
X0009284Y0152570D02*
X0063573Y0152570D01*
X0063573Y0150972D02*
X0009282Y0150972D01*
X0009281Y0149373D02*
X0063573Y0149373D01*
X0063573Y0147775D02*
X0009279Y0147775D01*
X0009278Y0146176D02*
X0063573Y0146176D01*
X0063573Y0144578D02*
X0009276Y0144578D01*
X0009274Y0142979D02*
X0063573Y0142979D01*
X0063573Y0141381D02*
X0009273Y0141381D01*
X0009271Y0139782D02*
X0063573Y0139782D01*
X0063573Y0138184D02*
X0009270Y0138184D01*
X0009268Y0136585D02*
X0063573Y0136585D01*
X0063573Y0134987D02*
X0030489Y0134987D01*
X0031672Y0133388D02*
X0063573Y0133388D01*
X0063573Y0131790D02*
X0031672Y0131790D01*
X0027272Y0131981D02*
X0017272Y0131981D01*
X0014056Y0134987D02*
X0009266Y0134987D01*
X0009265Y0133388D02*
X0012872Y0133388D01*
X0012872Y0131790D02*
X0009263Y0131790D01*
X0009262Y0130191D02*
X0012872Y0130191D01*
X0013054Y0128593D02*
X0009260Y0128593D01*
X0009258Y0126994D02*
X0013054Y0126994D01*
X0013054Y0125396D02*
X0009257Y0125396D01*
X0009255Y0123797D02*
X0012872Y0123797D01*
X0012872Y0122199D02*
X0009254Y0122199D01*
X0009252Y0120600D02*
X0012872Y0120600D01*
X0014029Y0119002D02*
X0009250Y0119002D01*
X0009249Y0117403D02*
X0247787Y0117403D01*
X0247787Y0115805D02*
X0029671Y0115805D01*
X0029095Y0116381D02*
X0025450Y0116381D01*
X0025150Y0116081D01*
X0019395Y0116081D01*
X0019095Y0116381D01*
X0015450Y0116381D01*
X0012872Y0113804D01*
X0012872Y0110159D01*
X0013054Y0109977D01*
X0013054Y0103986D01*
X0012872Y0103804D01*
X0012872Y0100159D01*
X0015450Y0097581D01*
X0019095Y0097581D01*
X0019395Y0097881D01*
X0025150Y0097881D01*
X0025450Y0097581D01*
X0029095Y0097581D01*
X0031672Y0100159D01*
X0031672Y0103804D01*
X0031372Y0104104D01*
X0031372Y0109542D01*
X0040176Y0109542D01*
X0038826Y0108192D01*
X0038151Y0107517D01*
X0037786Y0106635D01*
X0037786Y0097975D01*
X0034074Y0094263D01*
X0031213Y0094263D01*
X0029095Y0096381D01*
X0025450Y0096381D01*
X0025150Y0096081D01*
X0019395Y0096081D01*
X0019095Y0096381D01*
X0015450Y0096381D01*
X0012872Y0093804D01*
X0012872Y0090159D01*
X0013172Y0089859D01*
X0013172Y0084104D01*
X0012872Y0083804D01*
X0012872Y0080159D01*
X0015450Y0077581D01*
X0019095Y0077581D01*
X0019395Y0077881D01*
X0025150Y0077881D01*
X0025450Y0077581D01*
X0029095Y0077581D01*
X0031672Y0080159D01*
X0031672Y0083804D01*
X0031491Y0083986D01*
X0031491Y0089463D01*
X0035545Y0089463D01*
X0036427Y0089828D01*
X0037102Y0090503D01*
X0042220Y0095622D01*
X0042586Y0096504D01*
X0042586Y0105163D01*
X0044169Y0106747D01*
X0116593Y0106747D01*
X0127353Y0095987D01*
X0127353Y0094806D01*
X0126550Y0094003D01*
X0125975Y0092614D01*
X0125975Y0091112D01*
X0126550Y0089723D01*
X0127613Y0088660D01*
X0128197Y0088418D01*
X0127613Y0088176D01*
X0126550Y0087113D01*
X0125975Y0085725D01*
X0125975Y0084222D01*
X0126550Y0082833D01*
X0127613Y0081770D01*
X0129001Y0081195D01*
X0130504Y0081195D01*
X0131893Y0081770D01*
X0132696Y0082573D01*
X0133577Y0082573D01*
X0134459Y0082939D01*
X0136905Y0085385D01*
X0137271Y0086267D01*
X0137271Y0096145D01*
X0136905Y0097027D01*
X0119956Y0113976D01*
X0119074Y0114342D01*
X0031134Y0114342D01*
X0029095Y0116381D01*
X0030516Y0119002D02*
X0247787Y0119002D01*
X0247787Y0120600D02*
X0031672Y0120600D01*
X0031672Y0122199D02*
X0247787Y0122199D01*
X0247787Y0123797D02*
X0031672Y0123797D01*
X0027272Y0111981D02*
X0027272Y0111942D01*
X0118597Y0111942D01*
X0134871Y0095668D01*
X0134871Y0086745D01*
X0133099Y0084973D01*
X0129753Y0084973D01*
X0126135Y0083835D02*
X0031642Y0083835D01*
X0031672Y0082236D02*
X0127147Y0082236D01*
X0125975Y0085433D02*
X0031491Y0085433D01*
X0031491Y0087032D02*
X0126516Y0087032D01*
X0127686Y0088630D02*
X0031491Y0088630D01*
X0035068Y0091863D02*
X0027391Y0091863D01*
X0027272Y0091981D01*
X0027391Y0091981D01*
X0030452Y0095024D02*
X0034835Y0095024D01*
X0036433Y0096623D02*
X0009228Y0096623D01*
X0009230Y0098221D02*
X0014810Y0098221D01*
X0013211Y0099820D02*
X0009231Y0099820D01*
X0009233Y0101418D02*
X0012872Y0101418D01*
X0012872Y0103017D02*
X0009234Y0103017D01*
X0009236Y0104615D02*
X0013054Y0104615D01*
X0013054Y0106214D02*
X0009238Y0106214D01*
X0009239Y0107812D02*
X0013054Y0107812D01*
X0013054Y0109411D02*
X0009241Y0109411D01*
X0009242Y0111009D02*
X0012872Y0111009D01*
X0012872Y0112608D02*
X0009244Y0112608D01*
X0009246Y0114206D02*
X0013275Y0114206D01*
X0014874Y0115805D02*
X0009247Y0115805D01*
X0017272Y0111981D02*
X0027272Y0111981D01*
X0031372Y0109411D02*
X0040045Y0109411D01*
X0038447Y0107812D02*
X0031372Y0107812D01*
X0031372Y0106214D02*
X0037786Y0106214D01*
X0037786Y0104615D02*
X0031372Y0104615D01*
X0031672Y0103017D02*
X0037786Y0103017D01*
X0037786Y0101418D02*
X0031672Y0101418D01*
X0031333Y0099820D02*
X0037786Y0099820D01*
X0037786Y0098221D02*
X0029735Y0098221D01*
X0035068Y0091863D02*
X0040186Y0096981D01*
X0040186Y0106157D01*
X0043175Y0109147D01*
X0117587Y0109147D01*
X0129753Y0096981D01*
X0129753Y0091863D01*
X0129753Y0095921D01*
X0127353Y0095024D02*
X0041623Y0095024D01*
X0042586Y0096623D02*
X0126717Y0096623D01*
X0125119Y0098221D02*
X0042586Y0098221D01*
X0042586Y0099820D02*
X0123520Y0099820D01*
X0121922Y0101418D02*
X0042586Y0101418D01*
X0042586Y0103017D02*
X0120323Y0103017D01*
X0118725Y0104615D02*
X0042586Y0104615D01*
X0043636Y0106214D02*
X0117126Y0106214D01*
X0122923Y0111009D02*
X0247787Y0111009D01*
X0247787Y0109411D02*
X0124522Y0109411D01*
X0126120Y0107812D02*
X0247787Y0107812D01*
X0247787Y0106214D02*
X0127719Y0106214D01*
X0129317Y0104615D02*
X0247787Y0104615D01*
X0247787Y0103017D02*
X0130916Y0103017D01*
X0132514Y0101418D02*
X0247787Y0101418D01*
X0247787Y0099820D02*
X0134113Y0099820D01*
X0135711Y0098221D02*
X0247787Y0098221D01*
X0247787Y0096623D02*
X0137073Y0096623D01*
X0137271Y0095024D02*
X0247787Y0095024D01*
X0247787Y0093426D02*
X0137271Y0093426D01*
X0137271Y0091827D02*
X0247787Y0091827D01*
X0247787Y0090229D02*
X0137271Y0090229D01*
X0137271Y0088630D02*
X0247787Y0088630D01*
X0247787Y0087032D02*
X0137271Y0087032D01*
X0136925Y0085433D02*
X0247787Y0085433D01*
X0247787Y0083835D02*
X0135355Y0083835D01*
X0132358Y0082236D02*
X0247787Y0082236D01*
X0247787Y0080637D02*
X0031672Y0080637D01*
X0030553Y0079039D02*
X0247787Y0079039D01*
X0247787Y0077440D02*
X0009209Y0077440D01*
X0009207Y0075842D02*
X0014628Y0075842D01*
X0015367Y0076581D02*
X0012672Y0073886D01*
X0012672Y0072081D01*
X0017172Y0072081D01*
X0017172Y0071881D01*
X0012672Y0071881D01*
X0012672Y0070076D01*
X0015367Y0067381D01*
X0017172Y0067381D01*
X0017172Y0071881D01*
X0017372Y0071881D01*
X0017372Y0067381D01*
X0019178Y0067381D01*
X0021872Y0070076D01*
X0021872Y0071881D01*
X0017373Y0071881D01*
X0017373Y0072081D01*
X0021872Y0072081D01*
X0021872Y0073886D01*
X0019178Y0076581D01*
X0017372Y0076581D01*
X0017372Y0072081D01*
X0017172Y0072081D01*
X0017172Y0076581D01*
X0015367Y0076581D01*
X0017172Y0075842D02*
X0017372Y0075842D01*
X0017372Y0074243D02*
X0017172Y0074243D01*
X0017172Y0072645D02*
X0017372Y0072645D01*
X0017372Y0071046D02*
X0017172Y0071046D01*
X0017172Y0069448D02*
X0017372Y0069448D01*
X0017372Y0067849D02*
X0017172Y0067849D01*
X0017172Y0066581D02*
X0015367Y0066581D01*
X0012672Y0063886D01*
X0012672Y0062081D01*
X0017172Y0062081D01*
X0017172Y0061881D01*
X0012672Y0061881D01*
X0012672Y0060076D01*
X0015367Y0057381D01*
X0017172Y0057381D01*
X0017172Y0061881D01*
X0017372Y0061881D01*
X0017372Y0057381D01*
X0019178Y0057381D01*
X0021872Y0060076D01*
X0021872Y0061881D01*
X0017373Y0061881D01*
X0017373Y0062081D01*
X0021872Y0062081D01*
X0021872Y0063886D01*
X0019178Y0066581D01*
X0017372Y0066581D01*
X0017372Y0062081D01*
X0017172Y0062081D01*
X0017172Y0066581D01*
X0017172Y0066251D02*
X0017372Y0066251D01*
X0017372Y0064652D02*
X0017172Y0064652D01*
X0017172Y0063054D02*
X0017372Y0063054D01*
X0017372Y0061455D02*
X0017172Y0061455D01*
X0017172Y0059857D02*
X0017372Y0059857D01*
X0017372Y0058258D02*
X0017172Y0058258D01*
X0014490Y0058258D02*
X0009189Y0058258D01*
X0009188Y0056660D02*
X0247787Y0056660D01*
X0247787Y0058258D02*
X0030055Y0058258D01*
X0029178Y0057381D02*
X0031872Y0060076D01*
X0031872Y0061881D01*
X0027373Y0061881D01*
X0027373Y0062081D01*
X0031872Y0062081D01*
X0031872Y0063886D01*
X0029178Y0066581D01*
X0027372Y0066581D01*
X0027372Y0062081D01*
X0027172Y0062081D01*
X0027172Y0061881D01*
X0022672Y0061881D01*
X0022672Y0060076D01*
X0025367Y0057381D01*
X0027172Y0057381D01*
X0027172Y0061881D01*
X0027372Y0061881D01*
X0027372Y0057381D01*
X0029178Y0057381D01*
X0027372Y0058258D02*
X0027172Y0058258D01*
X0027172Y0059857D02*
X0027372Y0059857D01*
X0027372Y0061455D02*
X0027172Y0061455D01*
X0027172Y0062081D02*
X0022672Y0062081D01*
X0022672Y0063886D01*
X0025367Y0066581D01*
X0027172Y0066581D01*
X0027172Y0062081D01*
X0027172Y0063054D02*
X0027372Y0063054D01*
X0027372Y0064652D02*
X0027172Y0064652D01*
X0027172Y0066251D02*
X0027372Y0066251D01*
X0027372Y0067381D02*
X0029178Y0067381D01*
X0031872Y0070076D01*
X0031872Y0071881D01*
X0027373Y0071881D01*
X0027373Y0072081D01*
X0031872Y0072081D01*
X0031872Y0073886D01*
X0029178Y0076581D01*
X0027372Y0076581D01*
X0027372Y0072081D01*
X0027172Y0072081D01*
X0027172Y0071881D01*
X0022672Y0071881D01*
X0022672Y0070076D01*
X0025367Y0067381D01*
X0027172Y0067381D01*
X0027172Y0071881D01*
X0027372Y0071881D01*
X0027372Y0067381D01*
X0027372Y0067849D02*
X0027172Y0067849D01*
X0027172Y0069448D02*
X0027372Y0069448D01*
X0027372Y0071046D02*
X0027172Y0071046D01*
X0027172Y0072081D02*
X0022672Y0072081D01*
X0022672Y0073886D01*
X0025367Y0076581D01*
X0027172Y0076581D01*
X0027172Y0072081D01*
X0027172Y0072645D02*
X0027372Y0072645D01*
X0027372Y0074243D02*
X0027172Y0074243D01*
X0027172Y0075842D02*
X0027372Y0075842D01*
X0029917Y0075842D02*
X0247787Y0075842D01*
X0247787Y0074243D02*
X0031515Y0074243D01*
X0031872Y0072645D02*
X0247787Y0072645D01*
X0247787Y0071046D02*
X0031872Y0071046D01*
X0031245Y0069448D02*
X0247787Y0069448D01*
X0247787Y0067849D02*
X0029646Y0067849D01*
X0029508Y0066251D02*
X0247787Y0066251D01*
X0247787Y0064652D02*
X0031107Y0064652D01*
X0031872Y0063054D02*
X0247787Y0063054D01*
X0247787Y0061455D02*
X0031872Y0061455D01*
X0031654Y0059857D02*
X0247787Y0059857D01*
X0247787Y0055061D02*
X0243768Y0055061D01*
X0243430Y0055400D02*
X0239619Y0055400D01*
X0236924Y0052705D01*
X0236924Y0048895D01*
X0239619Y0046200D01*
X0243430Y0046200D01*
X0246124Y0048895D01*
X0246124Y0052705D01*
X0243430Y0055400D01*
X0245367Y0053463D02*
X0247787Y0053463D01*
X0247787Y0051864D02*
X0246124Y0051864D01*
X0246124Y0050266D02*
X0247787Y0050266D01*
X0247787Y0048667D02*
X0245897Y0048667D01*
X0244299Y0047069D02*
X0247787Y0047069D01*
X0247787Y0045470D02*
X0243642Y0045470D01*
X0243513Y0045600D02*
X0241724Y0045600D01*
X0241724Y0041000D01*
X0241324Y0041000D01*
X0241324Y0040600D01*
X0236724Y0040600D01*
X0236724Y0038812D01*
X0239536Y0036000D01*
X0241324Y0036000D01*
X0241324Y0040600D01*
X0241724Y0040600D01*
X0241724Y0036000D01*
X0243513Y0036000D01*
X0246324Y0038812D01*
X0246324Y0040600D01*
X0241724Y0040600D01*
X0241724Y0041000D01*
X0246324Y0041000D01*
X0246324Y0042788D01*
X0243513Y0045600D01*
X0241724Y0045470D02*
X0241324Y0045470D01*
X0241324Y0045600D02*
X0239536Y0045600D01*
X0236724Y0042788D01*
X0236724Y0041000D01*
X0241324Y0041000D01*
X0241324Y0045600D01*
X0241324Y0043872D02*
X0241724Y0043872D01*
X0241724Y0042273D02*
X0241324Y0042273D01*
X0241324Y0040675D02*
X0231724Y0040675D01*
X0231724Y0040600D02*
X0231724Y0041000D01*
X0231324Y0041000D01*
X0231324Y0040600D01*
X0226724Y0040600D01*
X0226724Y0038812D01*
X0229536Y0036000D01*
X0231324Y0036000D01*
X0231324Y0040600D01*
X0231724Y0040600D01*
X0231724Y0036000D01*
X0233513Y0036000D01*
X0236324Y0038812D01*
X0236324Y0040600D01*
X0231724Y0040600D01*
X0231724Y0041000D02*
X0236324Y0041000D01*
X0236324Y0042788D01*
X0233513Y0045600D01*
X0231724Y0045600D01*
X0231724Y0041000D01*
X0231324Y0041000D02*
X0231324Y0045600D01*
X0229536Y0045600D01*
X0226724Y0042788D01*
X0226724Y0041000D01*
X0231324Y0041000D01*
X0231324Y0040675D02*
X0221724Y0040675D01*
X0221724Y0040600D02*
X0221724Y0041000D01*
X0221324Y0041000D01*
X0221324Y0040600D01*
X0216724Y0040600D01*
X0216724Y0038812D01*
X0219536Y0036000D01*
X0221324Y0036000D01*
X0221324Y0040600D01*
X0221724Y0040600D01*
X0221724Y0036000D01*
X0223513Y0036000D01*
X0226324Y0038812D01*
X0226324Y0040600D01*
X0221724Y0040600D01*
X0221724Y0041000D02*
X0226324Y0041000D01*
X0226324Y0042788D01*
X0223513Y0045600D01*
X0221724Y0045600D01*
X0221724Y0041000D01*
X0221324Y0041000D02*
X0221324Y0045600D01*
X0219536Y0045600D01*
X0216724Y0042788D01*
X0216724Y0041000D01*
X0221324Y0041000D01*
X0221324Y0040675D02*
X0211724Y0040675D01*
X0211724Y0040600D02*
X0211724Y0041000D01*
X0211324Y0041000D01*
X0211324Y0040600D01*
X0206724Y0040600D01*
X0206724Y0038812D01*
X0209536Y0036000D01*
X0211324Y0036000D01*
X0211324Y0040600D01*
X0211724Y0040600D01*
X0211724Y0036000D01*
X0213513Y0036000D01*
X0216324Y0038812D01*
X0216324Y0040600D01*
X0211724Y0040600D01*
X0211724Y0041000D02*
X0216324Y0041000D01*
X0216324Y0042788D01*
X0213513Y0045600D01*
X0211724Y0045600D01*
X0211724Y0041000D01*
X0211324Y0041000D02*
X0211324Y0045600D01*
X0209536Y0045600D01*
X0206724Y0042788D01*
X0206724Y0041000D01*
X0211324Y0041000D01*
X0211324Y0040675D02*
X0201724Y0040675D01*
X0201724Y0040600D02*
X0201724Y0041000D01*
X0201324Y0041000D01*
X0201324Y0040600D01*
X0196724Y0040600D01*
X0196724Y0038812D01*
X0199536Y0036000D01*
X0201324Y0036000D01*
X0201324Y0040600D01*
X0201724Y0040600D01*
X0201724Y0036000D01*
X0203513Y0036000D01*
X0206324Y0038812D01*
X0206324Y0040600D01*
X0201724Y0040600D01*
X0201724Y0041000D02*
X0206324Y0041000D01*
X0206324Y0042788D01*
X0203513Y0045600D01*
X0201724Y0045600D01*
X0201724Y0041000D01*
X0201324Y0041000D02*
X0201324Y0045600D01*
X0199536Y0045600D01*
X0196724Y0042788D01*
X0196724Y0041000D01*
X0201324Y0041000D01*
X0201324Y0040675D02*
X0191724Y0040675D01*
X0191724Y0040600D02*
X0191724Y0041000D01*
X0191324Y0041000D01*
X0191324Y0040600D01*
X0186724Y0040600D01*
X0186724Y0038812D01*
X0189536Y0036000D01*
X0191324Y0036000D01*
X0191324Y0040600D01*
X0191724Y0040600D01*
X0191724Y0036000D01*
X0193513Y0036000D01*
X0196324Y0038812D01*
X0196324Y0040600D01*
X0191724Y0040600D01*
X0191724Y0041000D02*
X0196324Y0041000D01*
X0196324Y0042788D01*
X0193513Y0045600D01*
X0191724Y0045600D01*
X0191724Y0041000D01*
X0191324Y0041000D02*
X0191324Y0045600D01*
X0189536Y0045600D01*
X0186724Y0042788D01*
X0186724Y0041000D01*
X0191324Y0041000D01*
X0191324Y0040675D02*
X0181724Y0040675D01*
X0181724Y0040600D02*
X0181724Y0041000D01*
X0181324Y0041000D01*
X0181324Y0040600D01*
X0176724Y0040600D01*
X0176724Y0038812D01*
X0179536Y0036000D01*
X0181324Y0036000D01*
X0181324Y0040600D01*
X0181724Y0040600D01*
X0181724Y0036000D01*
X0183513Y0036000D01*
X0186324Y0038812D01*
X0186324Y0040600D01*
X0181724Y0040600D01*
X0181724Y0041000D02*
X0186324Y0041000D01*
X0186324Y0042788D01*
X0183513Y0045600D01*
X0181724Y0045600D01*
X0181724Y0041000D01*
X0181324Y0041000D02*
X0181324Y0045600D01*
X0179536Y0045600D01*
X0176724Y0042788D01*
X0176724Y0041000D01*
X0181324Y0041000D01*
X0181324Y0040675D02*
X0171724Y0040675D01*
X0171724Y0040600D02*
X0171724Y0041000D01*
X0171324Y0041000D01*
X0171324Y0040600D01*
X0166724Y0040600D01*
X0166724Y0038812D01*
X0169536Y0036000D01*
X0171324Y0036000D01*
X0171324Y0040600D01*
X0171724Y0040600D01*
X0171724Y0036000D01*
X0173513Y0036000D01*
X0176324Y0038812D01*
X0176324Y0040600D01*
X0171724Y0040600D01*
X0171724Y0041000D02*
X0176324Y0041000D01*
X0176324Y0042788D01*
X0173513Y0045600D01*
X0171724Y0045600D01*
X0171724Y0041000D01*
X0171324Y0041000D02*
X0171324Y0045600D01*
X0169536Y0045600D01*
X0166724Y0042788D01*
X0166724Y0041000D01*
X0171324Y0041000D01*
X0171324Y0040675D02*
X0154717Y0040675D01*
X0154717Y0040600D02*
X0154717Y0041000D01*
X0159317Y0041000D01*
X0159317Y0042788D01*
X0156505Y0045600D01*
X0154717Y0045600D01*
X0154717Y0041000D01*
X0154317Y0041000D01*
X0154317Y0045600D01*
X0152528Y0045600D01*
X0149717Y0042788D01*
X0149717Y0041000D01*
X0154316Y0041000D01*
X0154316Y0040600D01*
X0149717Y0040600D01*
X0149717Y0038812D01*
X0152528Y0036000D01*
X0154317Y0036000D01*
X0154317Y0040600D01*
X0154717Y0040600D01*
X0159317Y0040600D01*
X0159317Y0038812D01*
X0156505Y0036000D01*
X0154717Y0036000D01*
X0154717Y0040600D01*
X0154316Y0040675D02*
X0144717Y0040675D01*
X0144717Y0040600D02*
X0144717Y0041000D01*
X0149317Y0041000D01*
X0149317Y0042788D01*
X0146505Y0045600D01*
X0144717Y0045600D01*
X0144717Y0041000D01*
X0144317Y0041000D01*
X0144317Y0045600D01*
X0142528Y0045600D01*
X0139717Y0042788D01*
X0139717Y0041000D01*
X0144316Y0041000D01*
X0144316Y0040600D01*
X0139717Y0040600D01*
X0139717Y0038812D01*
X0142528Y0036000D01*
X0144317Y0036000D01*
X0144317Y0040600D01*
X0144717Y0040600D01*
X0149317Y0040600D01*
X0149317Y0038812D01*
X0146505Y0036000D01*
X0144717Y0036000D01*
X0144717Y0040600D01*
X0144316Y0040675D02*
X0134717Y0040675D01*
X0134717Y0040600D02*
X0134717Y0041000D01*
X0139317Y0041000D01*
X0139317Y0042788D01*
X0136505Y0045600D01*
X0134717Y0045600D01*
X0134717Y0041000D01*
X0134317Y0041000D01*
X0134317Y0045600D01*
X0132528Y0045600D01*
X0129717Y0042788D01*
X0129717Y0041000D01*
X0134316Y0041000D01*
X0134316Y0040600D01*
X0129717Y0040600D01*
X0129717Y0038812D01*
X0132528Y0036000D01*
X0134317Y0036000D01*
X0134317Y0040600D01*
X0134717Y0040600D01*
X0139317Y0040600D01*
X0139317Y0038812D01*
X0136505Y0036000D01*
X0134717Y0036000D01*
X0134717Y0040600D01*
X0134316Y0040675D02*
X0124717Y0040675D01*
X0124717Y0040600D02*
X0124717Y0041000D01*
X0129317Y0041000D01*
X0129317Y0042788D01*
X0126505Y0045600D01*
X0124717Y0045600D01*
X0124717Y0041000D01*
X0124317Y0041000D01*
X0124317Y0045600D01*
X0122528Y0045600D01*
X0119717Y0042788D01*
X0119717Y0041000D01*
X0124316Y0041000D01*
X0124316Y0040600D01*
X0119717Y0040600D01*
X0119717Y0038812D01*
X0122528Y0036000D01*
X0124317Y0036000D01*
X0124317Y0040600D01*
X0124717Y0040600D01*
X0129317Y0040600D01*
X0129317Y0038812D01*
X0126505Y0036000D01*
X0124717Y0036000D01*
X0124717Y0040600D01*
X0124316Y0040675D02*
X0114717Y0040675D01*
X0114717Y0040600D02*
X0114717Y0041000D01*
X0119317Y0041000D01*
X0119317Y0042788D01*
X0116505Y0045600D01*
X0114717Y0045600D01*
X0114717Y0041000D01*
X0114317Y0041000D01*
X0114317Y0045600D01*
X0112528Y0045600D01*
X0109717Y0042788D01*
X0109717Y0041000D01*
X0114316Y0041000D01*
X0114316Y0040600D01*
X0109717Y0040600D01*
X0109717Y0038812D01*
X0112528Y0036000D01*
X0114317Y0036000D01*
X0114317Y0040600D01*
X0114717Y0040600D01*
X0119317Y0040600D01*
X0119317Y0038812D01*
X0116505Y0036000D01*
X0114717Y0036000D01*
X0114717Y0040600D01*
X0114316Y0040675D02*
X0104717Y0040675D01*
X0104717Y0040600D02*
X0104717Y0041000D01*
X0109317Y0041000D01*
X0109317Y0042788D01*
X0106505Y0045600D01*
X0104717Y0045600D01*
X0104717Y0041000D01*
X0104317Y0041000D01*
X0104317Y0045600D01*
X0102528Y0045600D01*
X0099717Y0042788D01*
X0099717Y0041000D01*
X0104316Y0041000D01*
X0104316Y0040600D01*
X0099717Y0040600D01*
X0099717Y0038812D01*
X0102528Y0036000D01*
X0104317Y0036000D01*
X0104317Y0040600D01*
X0104717Y0040600D01*
X0109317Y0040600D01*
X0109317Y0038812D01*
X0106505Y0036000D01*
X0104717Y0036000D01*
X0104717Y0040600D01*
X0104316Y0040675D02*
X0094717Y0040675D01*
X0094717Y0040600D02*
X0094717Y0041000D01*
X0099317Y0041000D01*
X0099317Y0042788D01*
X0096505Y0045600D01*
X0094717Y0045600D01*
X0094717Y0041000D01*
X0094317Y0041000D01*
X0094317Y0045600D01*
X0092528Y0045600D01*
X0089717Y0042788D01*
X0089717Y0041000D01*
X0094316Y0041000D01*
X0094316Y0040600D01*
X0089717Y0040600D01*
X0089717Y0038812D01*
X0092528Y0036000D01*
X0094317Y0036000D01*
X0094317Y0040600D01*
X0094717Y0040600D01*
X0099317Y0040600D01*
X0099317Y0038812D01*
X0096505Y0036000D01*
X0094717Y0036000D01*
X0094717Y0040600D01*
X0094316Y0040675D02*
X0084717Y0040675D01*
X0084717Y0040600D02*
X0084717Y0041000D01*
X0089317Y0041000D01*
X0089317Y0042788D01*
X0086505Y0045600D01*
X0084717Y0045600D01*
X0084717Y0041000D01*
X0084317Y0041000D01*
X0084317Y0045600D01*
X0082528Y0045600D01*
X0079717Y0042788D01*
X0079717Y0041000D01*
X0084316Y0041000D01*
X0084316Y0040600D01*
X0079717Y0040600D01*
X0079717Y0038812D01*
X0082528Y0036000D01*
X0084317Y0036000D01*
X0084317Y0040600D01*
X0084717Y0040600D01*
X0089317Y0040600D01*
X0089317Y0038812D01*
X0086505Y0036000D01*
X0084717Y0036000D01*
X0084717Y0040600D01*
X0084316Y0040675D02*
X0009172Y0040675D01*
X0009173Y0042273D02*
X0079717Y0042273D01*
X0080800Y0043872D02*
X0009175Y0043872D01*
X0009177Y0045470D02*
X0082399Y0045470D01*
X0082611Y0046200D02*
X0086422Y0046200D01*
X0089117Y0048895D01*
X0089117Y0052705D01*
X0086422Y0055400D01*
X0082611Y0055400D01*
X0079917Y0052705D01*
X0079917Y0048895D01*
X0082611Y0046200D01*
X0081742Y0047069D02*
X0009178Y0047069D01*
X0009180Y0048667D02*
X0080144Y0048667D01*
X0079917Y0050266D02*
X0009181Y0050266D01*
X0009183Y0051864D02*
X0079917Y0051864D01*
X0080674Y0053463D02*
X0009185Y0053463D01*
X0009186Y0055061D02*
X0082272Y0055061D01*
X0086761Y0055061D02*
X0092272Y0055061D01*
X0092611Y0055400D02*
X0089917Y0052705D01*
X0089917Y0048895D01*
X0092611Y0046200D01*
X0096422Y0046200D01*
X0099117Y0048895D01*
X0099117Y0052705D01*
X0096422Y0055400D01*
X0092611Y0055400D01*
X0090674Y0053463D02*
X0088359Y0053463D01*
X0089117Y0051864D02*
X0089917Y0051864D01*
X0089917Y0050266D02*
X0089117Y0050266D01*
X0088889Y0048667D02*
X0090144Y0048667D01*
X0091742Y0047069D02*
X0087291Y0047069D01*
X0086634Y0045470D02*
X0092399Y0045470D01*
X0094317Y0045470D02*
X0094717Y0045470D01*
X0094717Y0043872D02*
X0094317Y0043872D01*
X0094317Y0042273D02*
X0094717Y0042273D01*
X0094717Y0039076D02*
X0094317Y0039076D01*
X0094317Y0037478D02*
X0094717Y0037478D01*
X0091051Y0037478D02*
X0087982Y0037478D01*
X0089317Y0039076D02*
X0089717Y0039076D01*
X0089717Y0042273D02*
X0089317Y0042273D01*
X0088233Y0043872D02*
X0090800Y0043872D01*
X0096634Y0045470D02*
X0102399Y0045470D01*
X0102611Y0046200D02*
X0106422Y0046200D01*
X0109117Y0048895D01*
X0109117Y0052705D01*
X0106422Y0055400D01*
X0102611Y0055400D01*
X0099917Y0052705D01*
X0099917Y0048895D01*
X0102611Y0046200D01*
X0101742Y0047069D02*
X0097291Y0047069D01*
X0098889Y0048667D02*
X0100144Y0048667D01*
X0099917Y0050266D02*
X0099117Y0050266D01*
X0099117Y0051864D02*
X0099917Y0051864D01*
X0100674Y0053463D02*
X0098359Y0053463D01*
X0096761Y0055061D02*
X0102272Y0055061D01*
X0106761Y0055061D02*
X0112272Y0055061D01*
X0112611Y0055400D02*
X0109917Y0052705D01*
X0109917Y0048895D01*
X0112611Y0046200D01*
X0116422Y0046200D01*
X0119117Y0048895D01*
X0119117Y0052705D01*
X0116422Y0055400D01*
X0112611Y0055400D01*
X0110674Y0053463D02*
X0108359Y0053463D01*
X0109117Y0051864D02*
X0109917Y0051864D01*
X0109917Y0050266D02*
X0109117Y0050266D01*
X0108889Y0048667D02*
X0110144Y0048667D01*
X0111742Y0047069D02*
X0107291Y0047069D01*
X0106634Y0045470D02*
X0112399Y0045470D01*
X0114317Y0045470D02*
X0114717Y0045470D01*
X0114717Y0043872D02*
X0114317Y0043872D01*
X0114317Y0042273D02*
X0114717Y0042273D01*
X0114717Y0039076D02*
X0114317Y0039076D01*
X0114317Y0037478D02*
X0114717Y0037478D01*
X0117982Y0037478D02*
X0121051Y0037478D01*
X0119717Y0039076D02*
X0119317Y0039076D01*
X0119317Y0042273D02*
X0119717Y0042273D01*
X0120800Y0043872D02*
X0118233Y0043872D01*
X0116634Y0045470D02*
X0122399Y0045470D01*
X0122611Y0046200D02*
X0126422Y0046200D01*
X0129117Y0048895D01*
X0129117Y0052705D01*
X0126422Y0055400D01*
X0122611Y0055400D01*
X0119917Y0052705D01*
X0119917Y0048895D01*
X0122611Y0046200D01*
X0121742Y0047069D02*
X0117291Y0047069D01*
X0118889Y0048667D02*
X0120144Y0048667D01*
X0119917Y0050266D02*
X0119117Y0050266D01*
X0119117Y0051864D02*
X0119917Y0051864D01*
X0120674Y0053463D02*
X0118359Y0053463D01*
X0116761Y0055061D02*
X0122272Y0055061D01*
X0126761Y0055061D02*
X0132272Y0055061D01*
X0132611Y0055400D02*
X0129917Y0052705D01*
X0129917Y0048895D01*
X0132611Y0046200D01*
X0136422Y0046200D01*
X0139117Y0048895D01*
X0139117Y0052705D01*
X0136422Y0055400D01*
X0132611Y0055400D01*
X0130674Y0053463D02*
X0128359Y0053463D01*
X0129117Y0051864D02*
X0129917Y0051864D01*
X0129917Y0050266D02*
X0129117Y0050266D01*
X0128889Y0048667D02*
X0130144Y0048667D01*
X0131742Y0047069D02*
X0127291Y0047069D01*
X0126634Y0045470D02*
X0132399Y0045470D01*
X0134317Y0045470D02*
X0134717Y0045470D01*
X0134717Y0043872D02*
X0134317Y0043872D01*
X0134317Y0042273D02*
X0134717Y0042273D01*
X0134717Y0039076D02*
X0134317Y0039076D01*
X0134317Y0037478D02*
X0134717Y0037478D01*
X0137982Y0037478D02*
X0141051Y0037478D01*
X0139717Y0039076D02*
X0139317Y0039076D01*
X0139317Y0042273D02*
X0139717Y0042273D01*
X0140800Y0043872D02*
X0138233Y0043872D01*
X0136634Y0045470D02*
X0142399Y0045470D01*
X0142611Y0046200D02*
X0146422Y0046200D01*
X0149117Y0048895D01*
X0149117Y0052705D01*
X0146422Y0055400D01*
X0142611Y0055400D01*
X0139917Y0052705D01*
X0139917Y0048895D01*
X0142611Y0046200D01*
X0141742Y0047069D02*
X0137291Y0047069D01*
X0138889Y0048667D02*
X0140144Y0048667D01*
X0139917Y0050266D02*
X0139117Y0050266D01*
X0139117Y0051864D02*
X0139917Y0051864D01*
X0140674Y0053463D02*
X0138359Y0053463D01*
X0136761Y0055061D02*
X0142272Y0055061D01*
X0146761Y0055061D02*
X0152272Y0055061D01*
X0152611Y0055400D02*
X0149917Y0052705D01*
X0149917Y0048895D01*
X0152611Y0046200D01*
X0156422Y0046200D01*
X0159117Y0048895D01*
X0159117Y0052705D01*
X0156422Y0055400D01*
X0152611Y0055400D01*
X0150674Y0053463D02*
X0148359Y0053463D01*
X0149117Y0051864D02*
X0149917Y0051864D01*
X0149917Y0050266D02*
X0149117Y0050266D01*
X0148889Y0048667D02*
X0150144Y0048667D01*
X0151742Y0047069D02*
X0147291Y0047069D01*
X0146634Y0045470D02*
X0152399Y0045470D01*
X0154317Y0045470D02*
X0154717Y0045470D01*
X0154717Y0043872D02*
X0154317Y0043872D01*
X0154317Y0042273D02*
X0154717Y0042273D01*
X0154717Y0039076D02*
X0154317Y0039076D01*
X0154317Y0037478D02*
X0154717Y0037478D01*
X0157982Y0037478D02*
X0168059Y0037478D01*
X0166724Y0039076D02*
X0159317Y0039076D01*
X0159317Y0042273D02*
X0166724Y0042273D01*
X0167808Y0043872D02*
X0158233Y0043872D01*
X0156634Y0045470D02*
X0169406Y0045470D01*
X0169619Y0046200D02*
X0173430Y0046200D01*
X0176124Y0048895D01*
X0176124Y0052705D01*
X0173430Y0055400D01*
X0169619Y0055400D01*
X0166924Y0052705D01*
X0166924Y0048895D01*
X0169619Y0046200D01*
X0168750Y0047069D02*
X0157291Y0047069D01*
X0158889Y0048667D02*
X0167152Y0048667D01*
X0166924Y0050266D02*
X0159117Y0050266D01*
X0159117Y0051864D02*
X0166924Y0051864D01*
X0167682Y0053463D02*
X0158359Y0053463D01*
X0156761Y0055061D02*
X0169280Y0055061D01*
X0173768Y0055061D02*
X0179280Y0055061D01*
X0179619Y0055400D02*
X0176924Y0052705D01*
X0176924Y0048895D01*
X0179619Y0046200D01*
X0183430Y0046200D01*
X0186124Y0048895D01*
X0186124Y0052705D01*
X0183430Y0055400D01*
X0179619Y0055400D01*
X0177682Y0053463D02*
X0175367Y0053463D01*
X0176124Y0051864D02*
X0176924Y0051864D01*
X0176924Y0050266D02*
X0176124Y0050266D01*
X0175897Y0048667D02*
X0177152Y0048667D01*
X0178750Y0047069D02*
X0174299Y0047069D01*
X0173642Y0045470D02*
X0179406Y0045470D01*
X0181324Y0045470D02*
X0181724Y0045470D01*
X0181724Y0043872D02*
X0181324Y0043872D01*
X0181324Y0042273D02*
X0181724Y0042273D01*
X0181724Y0039076D02*
X0181324Y0039076D01*
X0181324Y0037478D02*
X0181724Y0037478D01*
X0184990Y0037478D02*
X0188059Y0037478D01*
X0186724Y0039076D02*
X0186324Y0039076D01*
X0186324Y0042273D02*
X0186724Y0042273D01*
X0187808Y0043872D02*
X0185241Y0043872D01*
X0183642Y0045470D02*
X0189406Y0045470D01*
X0189619Y0046200D02*
X0193430Y0046200D01*
X0196124Y0048895D01*
X0196124Y0052705D01*
X0193430Y0055400D01*
X0189619Y0055400D01*
X0186924Y0052705D01*
X0186924Y0048895D01*
X0189619Y0046200D01*
X0188750Y0047069D02*
X0184299Y0047069D01*
X0185897Y0048667D02*
X0187152Y0048667D01*
X0186924Y0050266D02*
X0186124Y0050266D01*
X0186124Y0051864D02*
X0186924Y0051864D01*
X0187682Y0053463D02*
X0185367Y0053463D01*
X0183768Y0055061D02*
X0189280Y0055061D01*
X0193768Y0055061D02*
X0199280Y0055061D01*
X0199619Y0055400D02*
X0196924Y0052705D01*
X0196924Y0048895D01*
X0199619Y0046200D01*
X0203430Y0046200D01*
X0206124Y0048895D01*
X0206124Y0052705D01*
X0203430Y0055400D01*
X0199619Y0055400D01*
X0197682Y0053463D02*
X0195367Y0053463D01*
X0196124Y0051864D02*
X0196924Y0051864D01*
X0196924Y0050266D02*
X0196124Y0050266D01*
X0195897Y0048667D02*
X0197152Y0048667D01*
X0198750Y0047069D02*
X0194299Y0047069D01*
X0193642Y0045470D02*
X0199406Y0045470D01*
X0201324Y0045470D02*
X0201724Y0045470D01*
X0201724Y0043872D02*
X0201324Y0043872D01*
X0201324Y0042273D02*
X0201724Y0042273D01*
X0201724Y0039076D02*
X0201324Y0039076D01*
X0201324Y0037478D02*
X0201724Y0037478D01*
X0204990Y0037478D02*
X0208059Y0037478D01*
X0206724Y0039076D02*
X0206324Y0039076D01*
X0206324Y0042273D02*
X0206724Y0042273D01*
X0207808Y0043872D02*
X0205241Y0043872D01*
X0203642Y0045470D02*
X0209406Y0045470D01*
X0209619Y0046200D02*
X0213430Y0046200D01*
X0216124Y0048895D01*
X0216124Y0052705D01*
X0213430Y0055400D01*
X0209619Y0055400D01*
X0206924Y0052705D01*
X0206924Y0048895D01*
X0209619Y0046200D01*
X0208750Y0047069D02*
X0204299Y0047069D01*
X0205897Y0048667D02*
X0207152Y0048667D01*
X0206924Y0050266D02*
X0206124Y0050266D01*
X0206124Y0051864D02*
X0206924Y0051864D01*
X0207682Y0053463D02*
X0205367Y0053463D01*
X0203768Y0055061D02*
X0209280Y0055061D01*
X0213768Y0055061D02*
X0219280Y0055061D01*
X0219619Y0055400D02*
X0216924Y0052705D01*
X0216924Y0048895D01*
X0219619Y0046200D01*
X0223430Y0046200D01*
X0226124Y0048895D01*
X0226124Y0052705D01*
X0223430Y0055400D01*
X0219619Y0055400D01*
X0217682Y0053463D02*
X0215367Y0053463D01*
X0216124Y0051864D02*
X0216924Y0051864D01*
X0216924Y0050266D02*
X0216124Y0050266D01*
X0215897Y0048667D02*
X0217152Y0048667D01*
X0218750Y0047069D02*
X0214299Y0047069D01*
X0213642Y0045470D02*
X0219406Y0045470D01*
X0221324Y0045470D02*
X0221724Y0045470D01*
X0221724Y0043872D02*
X0221324Y0043872D01*
X0221324Y0042273D02*
X0221724Y0042273D01*
X0221724Y0039076D02*
X0221324Y0039076D01*
X0221324Y0037478D02*
X0221724Y0037478D01*
X0224990Y0037478D02*
X0228059Y0037478D01*
X0226724Y0039076D02*
X0226324Y0039076D01*
X0226324Y0042273D02*
X0226724Y0042273D01*
X0227808Y0043872D02*
X0225241Y0043872D01*
X0223642Y0045470D02*
X0229406Y0045470D01*
X0229619Y0046200D02*
X0233430Y0046200D01*
X0236124Y0048895D01*
X0236124Y0052705D01*
X0233430Y0055400D01*
X0229619Y0055400D01*
X0226924Y0052705D01*
X0226924Y0048895D01*
X0229619Y0046200D01*
X0228750Y0047069D02*
X0224299Y0047069D01*
X0225897Y0048667D02*
X0227152Y0048667D01*
X0226924Y0050266D02*
X0226124Y0050266D01*
X0226124Y0051864D02*
X0226924Y0051864D01*
X0227682Y0053463D02*
X0225367Y0053463D01*
X0223768Y0055061D02*
X0229280Y0055061D01*
X0233768Y0055061D02*
X0239280Y0055061D01*
X0237682Y0053463D02*
X0235367Y0053463D01*
X0236124Y0051864D02*
X0236924Y0051864D01*
X0236924Y0050266D02*
X0236124Y0050266D01*
X0235897Y0048667D02*
X0237152Y0048667D01*
X0238750Y0047069D02*
X0234299Y0047069D01*
X0233642Y0045470D02*
X0239406Y0045470D01*
X0237808Y0043872D02*
X0235241Y0043872D01*
X0236324Y0042273D02*
X0236724Y0042273D01*
X0236724Y0039076D02*
X0236324Y0039076D01*
X0234990Y0037478D02*
X0238059Y0037478D01*
X0241324Y0037478D02*
X0241724Y0037478D01*
X0241724Y0039076D02*
X0241324Y0039076D01*
X0241724Y0040675D02*
X0247787Y0040675D01*
X0247787Y0042273D02*
X0246324Y0042273D01*
X0245241Y0043872D02*
X0247787Y0043872D01*
X0247787Y0039076D02*
X0246324Y0039076D01*
X0244990Y0037478D02*
X0247787Y0037478D01*
X0247787Y0035879D02*
X0009167Y0035879D01*
X0009165Y0034281D02*
X0247787Y0034281D01*
X0231724Y0037478D02*
X0231324Y0037478D01*
X0231324Y0039076D02*
X0231724Y0039076D01*
X0231724Y0042273D02*
X0231324Y0042273D01*
X0231324Y0043872D02*
X0231724Y0043872D01*
X0231724Y0045470D02*
X0231324Y0045470D01*
X0217808Y0043872D02*
X0215241Y0043872D01*
X0216324Y0042273D02*
X0216724Y0042273D01*
X0216724Y0039076D02*
X0216324Y0039076D01*
X0214990Y0037478D02*
X0218059Y0037478D01*
X0211724Y0037478D02*
X0211324Y0037478D01*
X0211324Y0039076D02*
X0211724Y0039076D01*
X0211724Y0042273D02*
X0211324Y0042273D01*
X0211324Y0043872D02*
X0211724Y0043872D01*
X0211724Y0045470D02*
X0211324Y0045470D01*
X0198059Y0037478D02*
X0194990Y0037478D01*
X0196324Y0039076D02*
X0196724Y0039076D01*
X0196724Y0042273D02*
X0196324Y0042273D01*
X0195241Y0043872D02*
X0197808Y0043872D01*
X0191724Y0043872D02*
X0191324Y0043872D01*
X0191324Y0045470D02*
X0191724Y0045470D01*
X0191724Y0042273D02*
X0191324Y0042273D01*
X0191324Y0039076D02*
X0191724Y0039076D01*
X0191724Y0037478D02*
X0191324Y0037478D01*
X0178059Y0037478D02*
X0174990Y0037478D01*
X0176324Y0039076D02*
X0176724Y0039076D01*
X0176724Y0042273D02*
X0176324Y0042273D01*
X0175241Y0043872D02*
X0177808Y0043872D01*
X0171724Y0043872D02*
X0171324Y0043872D01*
X0171324Y0045470D02*
X0171724Y0045470D01*
X0171724Y0042273D02*
X0171324Y0042273D01*
X0171324Y0039076D02*
X0171724Y0039076D01*
X0171724Y0037478D02*
X0171324Y0037478D01*
X0151051Y0037478D02*
X0147982Y0037478D01*
X0149317Y0039076D02*
X0149717Y0039076D01*
X0149717Y0042273D02*
X0149317Y0042273D01*
X0148233Y0043872D02*
X0150800Y0043872D01*
X0144717Y0043872D02*
X0144317Y0043872D01*
X0144317Y0045470D02*
X0144717Y0045470D01*
X0144717Y0042273D02*
X0144317Y0042273D01*
X0144317Y0039076D02*
X0144717Y0039076D01*
X0144717Y0037478D02*
X0144317Y0037478D01*
X0131051Y0037478D02*
X0127982Y0037478D01*
X0129317Y0039076D02*
X0129717Y0039076D01*
X0129717Y0042273D02*
X0129317Y0042273D01*
X0128233Y0043872D02*
X0130800Y0043872D01*
X0124717Y0043872D02*
X0124317Y0043872D01*
X0124317Y0045470D02*
X0124717Y0045470D01*
X0124717Y0042273D02*
X0124317Y0042273D01*
X0124317Y0039076D02*
X0124717Y0039076D01*
X0124717Y0037478D02*
X0124317Y0037478D01*
X0111051Y0037478D02*
X0107982Y0037478D01*
X0109317Y0039076D02*
X0109717Y0039076D01*
X0109717Y0042273D02*
X0109317Y0042273D01*
X0108233Y0043872D02*
X0110800Y0043872D01*
X0104717Y0043872D02*
X0104317Y0043872D01*
X0104317Y0045470D02*
X0104717Y0045470D01*
X0104717Y0042273D02*
X0104317Y0042273D01*
X0104317Y0039076D02*
X0104717Y0039076D01*
X0104717Y0037478D02*
X0104317Y0037478D01*
X0101051Y0037478D02*
X0097982Y0037478D01*
X0099317Y0039076D02*
X0099717Y0039076D01*
X0099717Y0042273D02*
X0099317Y0042273D01*
X0098233Y0043872D02*
X0100800Y0043872D01*
X0084717Y0043872D02*
X0084317Y0043872D01*
X0084317Y0045470D02*
X0084717Y0045470D01*
X0084717Y0042273D02*
X0084317Y0042273D01*
X0084317Y0039076D02*
X0084717Y0039076D01*
X0084717Y0037478D02*
X0084317Y0037478D01*
X0081051Y0037478D02*
X0009169Y0037478D01*
X0009170Y0039076D02*
X0079717Y0039076D01*
X0027272Y0081627D02*
X0027272Y0081981D01*
X0024628Y0075842D02*
X0019917Y0075842D01*
X0021515Y0074243D02*
X0023029Y0074243D01*
X0022672Y0072645D02*
X0021872Y0072645D01*
X0021872Y0071046D02*
X0022672Y0071046D01*
X0023300Y0069448D02*
X0021245Y0069448D01*
X0019646Y0067849D02*
X0024899Y0067849D01*
X0025037Y0066251D02*
X0019508Y0066251D01*
X0021107Y0064652D02*
X0023438Y0064652D01*
X0022672Y0063054D02*
X0021872Y0063054D01*
X0021872Y0061455D02*
X0022672Y0061455D01*
X0022891Y0059857D02*
X0021654Y0059857D01*
X0020055Y0058258D02*
X0024490Y0058258D01*
X0012891Y0059857D02*
X0009191Y0059857D01*
X0009193Y0061455D02*
X0012672Y0061455D01*
X0012672Y0063054D02*
X0009194Y0063054D01*
X0009196Y0064652D02*
X0013438Y0064652D01*
X0015037Y0066251D02*
X0009197Y0066251D01*
X0009199Y0067849D02*
X0014899Y0067849D01*
X0013300Y0069448D02*
X0009201Y0069448D01*
X0009202Y0071046D02*
X0012672Y0071046D01*
X0012672Y0072645D02*
X0009204Y0072645D01*
X0009205Y0074243D02*
X0013029Y0074243D01*
X0013992Y0079039D02*
X0009210Y0079039D01*
X0009212Y0080637D02*
X0012872Y0080637D01*
X0012872Y0082236D02*
X0009213Y0082236D01*
X0009215Y0083835D02*
X0012903Y0083835D01*
X0013172Y0085433D02*
X0009217Y0085433D01*
X0009218Y0087032D02*
X0013172Y0087032D01*
X0013172Y0088630D02*
X0009220Y0088630D01*
X0009222Y0090229D02*
X0012872Y0090229D01*
X0012872Y0091827D02*
X0009223Y0091827D01*
X0009225Y0093426D02*
X0012872Y0093426D01*
X0014093Y0095024D02*
X0009226Y0095024D01*
X0036827Y0090229D02*
X0126341Y0090229D01*
X0125975Y0091827D02*
X0038426Y0091827D01*
X0040024Y0093426D02*
X0126311Y0093426D01*
X0121325Y0112608D02*
X0247787Y0112608D01*
X0247787Y0114206D02*
X0119401Y0114206D01*
X0119459Y0182942D02*
X0114456Y0182942D01*
X0116055Y0184541D02*
X0117860Y0184541D01*
X0117557Y0186139D02*
X0116357Y0186139D01*
X0116357Y0187738D02*
X0117557Y0187738D01*
X0118405Y0189336D02*
X0115510Y0189336D01*
X0039312Y0200526D02*
X0034320Y0200526D01*
X0035919Y0198927D02*
X0037713Y0198927D01*
X0037357Y0197329D02*
X0036357Y0197329D01*
X0036357Y0195730D02*
X0037357Y0195730D01*
X0037986Y0194132D02*
X0035646Y0194132D01*
D14*
X0029950Y0173753D03*
X0045304Y0173753D03*
X0045304Y0148162D03*
X0029950Y0148162D03*
X0065973Y0127690D03*
X0078721Y0163076D03*
X0126013Y0166076D03*
X0126013Y0158398D03*
X0126013Y0148162D03*
X0126013Y0123753D03*
X0129753Y0091863D03*
X0129753Y0084973D03*
X0160461Y0094422D03*
X0160461Y0068831D03*
X0160461Y0148162D03*
X0065776Y0068831D03*
D15*
X0027391Y0082020D02*
X0027391Y0091981D01*
X0027272Y0091981D02*
X0017272Y0091981D01*
X0017272Y0081981D01*
X0027272Y0081981D01*
X0027272Y0101981D02*
X0017272Y0101981D01*
X0017154Y0102099D02*
X0017154Y0111981D01*
X0027272Y0111981D01*
X0027272Y0101981D01*
X0027272Y0121981D02*
X0017272Y0121981D01*
X0017154Y0122572D02*
X0017154Y0131981D01*
X0027272Y0131981D01*
X0027272Y0121981D01*
M02*
