%
M48
M72
T01C0.02756
T02C0.03600
T03C0.04000
%
T01
X86246Y77296
X123450Y108595
X145498Y107808
X166561Y124343
X181915Y103280
X174435Y85957
X176797Y66272
X188411Y66272
X148647Y66272
X137230Y66272
X147466Y85957
X119710Y132414
X111639Y137926
X127387Y158005
X147072Y146587
X98057Y164304
X89198Y164304
X78521Y157957
X45104Y168635
X29750Y168635
X206324Y113123
T02
X17072Y56863
X17072Y66863
X27072Y66863
X27072Y56863
X27072Y76863
X17072Y76863
X17072Y86863
X27072Y86863
X27072Y96863
X17072Y96863
X17072Y106863
X27072Y106863
X27072Y116863
X17072Y116863
X17072Y126863
X27072Y126863
X31757Y181548
X21757Y181548
X21757Y191548
X31757Y191548
X41757Y191548
X41757Y181548
X51757Y181548
X51757Y191548
X61757Y191548
X71757Y191548
X71757Y181548
X61757Y181548
X81757Y181548
X81757Y191548
X91757Y191548
X91757Y181548
X101757Y181548
X101757Y191548
X111757Y191548
X111757Y181548
X121757Y181548
X121757Y191548
X131757Y191548
X131757Y181548
X141757Y181548
X141757Y191548
X151757Y191548
X151757Y181548
X161757Y181548
X171757Y181548
X171757Y191548
X161757Y191548
X181757Y191548
X181757Y181548
X191757Y181548
X191757Y191548
X201757Y191548
X201757Y181548
X211757Y181548
X211757Y191548
T03
X211324Y50800
X201324Y50800
X191324Y50800
X181324Y50800
X171324Y50800
X171324Y40800
X181324Y40800
X191324Y40800
X201324Y40800
X211324Y40800
X221324Y40800
X221324Y50800
X231324Y50800
X231324Y40800
X241324Y40800
X241324Y50800
X154317Y50800
X154317Y40800
X144317Y40800
X144317Y50800
X134317Y50800
X134317Y40800
X124317Y40800
X124317Y50800
X114317Y50800
X114317Y40800
X104317Y40800
X104317Y50800
X94317Y50800
X94317Y40800
X84317Y40800
X84317Y50800
M30
