G75*
%MOIN*%
%OFA0B0*%
%FSLAX25Y25*%
%IPPOS*%
%LPD*%
%AMOC8*
5,1,8,0,0,1.08239X$1,22.5*
%
%ADD10C,0.00000*%
%ADD11C,0.00400*%
%ADD12C,0.00600*%
%ADD13C,0.00500*%
%ADD14C,0.00300*%
%ADD15C,0.02600*%
%ADD16R,0.02600X0.03000*%
%ADD17R,0.02600X0.02600*%
%ADD18R,0.02600X0.03200*%
%ADD19C,0.00800*%
D10*
X0004159Y0022769D02*
X0004356Y0219225D01*
X0252387Y0219422D01*
X0252387Y0022769D01*
X0004159Y0022769D01*
D11*
X0024709Y0031853D02*
X0025477Y0031086D01*
X0028546Y0031086D01*
X0029313Y0031853D01*
X0029313Y0033388D01*
X0028546Y0034155D01*
X0029313Y0035690D02*
X0029313Y0038759D01*
X0029313Y0037224D02*
X0024709Y0037224D01*
X0026244Y0035690D01*
X0025477Y0034155D02*
X0024709Y0033388D01*
X0024709Y0031853D01*
X0033233Y0031519D02*
X0034000Y0030751D01*
X0037070Y0030751D01*
X0037837Y0031519D01*
X0037837Y0033053D01*
X0037070Y0033820D01*
X0037837Y0035355D02*
X0037837Y0038424D01*
X0037837Y0036890D02*
X0033233Y0036890D01*
X0034768Y0035355D01*
X0034000Y0033820D02*
X0033233Y0033053D01*
X0033233Y0031519D01*
X0034000Y0039959D02*
X0033233Y0040726D01*
X0033233Y0042261D01*
X0034000Y0043028D01*
X0034768Y0043028D01*
X0035535Y0042261D01*
X0036302Y0043028D01*
X0037070Y0043028D01*
X0037837Y0042261D01*
X0037837Y0040726D01*
X0037070Y0039959D01*
X0035535Y0041494D02*
X0035535Y0042261D01*
X0029313Y0042596D02*
X0024709Y0042596D01*
X0027011Y0040294D01*
X0027011Y0043363D01*
X0058795Y0061315D02*
X0059563Y0060547D01*
X0061097Y0060547D01*
X0061865Y0061315D01*
X0063399Y0060547D02*
X0066468Y0060547D01*
X0064934Y0060547D02*
X0064934Y0065151D01*
X0063399Y0063617D01*
X0061865Y0064384D02*
X0061097Y0065151D01*
X0059563Y0065151D01*
X0058795Y0064384D01*
X0058795Y0061315D01*
X0059897Y0053005D02*
X0059130Y0052238D01*
X0059130Y0049169D01*
X0059897Y0048402D01*
X0061432Y0048402D01*
X0062199Y0049169D01*
X0063734Y0048402D02*
X0066803Y0048402D01*
X0065268Y0048402D02*
X0065268Y0053005D01*
X0063734Y0051471D01*
X0062199Y0052238D02*
X0061432Y0053005D01*
X0059897Y0053005D01*
X0068338Y0053005D02*
X0071407Y0053005D01*
X0071407Y0052238D01*
X0068338Y0049169D01*
X0068338Y0048402D01*
X0075950Y0038107D02*
X0075950Y0035038D01*
X0078252Y0035038D01*
X0077484Y0036572D01*
X0077484Y0037340D01*
X0078252Y0038107D01*
X0079786Y0038107D01*
X0080554Y0037340D01*
X0080554Y0035805D01*
X0079786Y0035038D01*
X0080554Y0033503D02*
X0080554Y0030434D01*
X0080554Y0031968D02*
X0075950Y0031968D01*
X0077484Y0030434D01*
X0076717Y0028899D02*
X0075950Y0028132D01*
X0075950Y0026597D01*
X0076717Y0025830D01*
X0079786Y0025830D01*
X0080554Y0026597D01*
X0080554Y0028132D01*
X0079786Y0028899D01*
X0070305Y0060547D02*
X0068770Y0060547D01*
X0068003Y0061315D01*
X0068003Y0062849D01*
X0070305Y0062849D01*
X0071072Y0062082D01*
X0071072Y0061315D01*
X0070305Y0060547D01*
X0068003Y0062849D02*
X0069538Y0064384D01*
X0071072Y0065151D01*
X0070092Y0069996D02*
X0070092Y0074600D01*
X0072394Y0074600D01*
X0073161Y0073833D01*
X0073161Y0072298D01*
X0072394Y0071531D01*
X0070092Y0071531D01*
X0071627Y0071531D02*
X0073161Y0069996D01*
X0074696Y0070763D02*
X0075463Y0069996D01*
X0076998Y0069996D01*
X0077765Y0070763D01*
X0077765Y0072298D01*
X0076998Y0073065D01*
X0076231Y0073065D01*
X0074696Y0072298D01*
X0074696Y0074600D01*
X0077765Y0074600D01*
X0097622Y0104524D02*
X0100692Y0104524D01*
X0101459Y0105291D01*
X0101459Y0106826D01*
X0100692Y0107593D01*
X0101459Y0109128D02*
X0098390Y0112197D01*
X0097622Y0112197D01*
X0096855Y0111430D01*
X0096855Y0109895D01*
X0097622Y0109128D01*
X0097622Y0107593D02*
X0096855Y0106826D01*
X0096855Y0105291D01*
X0097622Y0104524D01*
X0101459Y0109128D02*
X0101459Y0112197D01*
X0105517Y0110662D02*
X0107051Y0109128D01*
X0106284Y0107593D02*
X0105517Y0106826D01*
X0105517Y0105291D01*
X0106284Y0104524D01*
X0109353Y0104524D01*
X0110120Y0105291D01*
X0110120Y0106826D01*
X0109353Y0107593D01*
X0110120Y0109128D02*
X0110120Y0112197D01*
X0110120Y0110662D02*
X0105517Y0110662D01*
X0168706Y0146630D02*
X0169473Y0145862D01*
X0172542Y0145862D01*
X0173309Y0146630D01*
X0173309Y0148164D01*
X0172542Y0148931D01*
X0173309Y0150466D02*
X0173309Y0153535D01*
X0173309Y0152001D02*
X0168706Y0152001D01*
X0170240Y0150466D01*
X0169473Y0148931D02*
X0168706Y0148164D01*
X0168706Y0146630D01*
X0170240Y0155070D02*
X0168706Y0156605D01*
X0173309Y0156605D01*
X0173309Y0158139D02*
X0173309Y0155070D01*
X0186225Y0155837D02*
X0186225Y0157372D01*
X0186993Y0158139D01*
X0190062Y0155070D01*
X0190829Y0155837D01*
X0190829Y0157372D01*
X0190062Y0158139D01*
X0186993Y0158139D01*
X0186225Y0155837D02*
X0186993Y0155070D01*
X0190062Y0155070D01*
X0190829Y0153535D02*
X0190829Y0150466D01*
X0190829Y0152001D02*
X0186225Y0152001D01*
X0187760Y0150466D01*
X0186993Y0148931D02*
X0186225Y0148164D01*
X0186225Y0146630D01*
X0186993Y0145862D01*
X0190062Y0145862D01*
X0190829Y0146630D01*
X0190829Y0148164D01*
X0190062Y0148931D01*
X0214261Y0136962D02*
X0214261Y0132358D01*
X0214261Y0133893D02*
X0216563Y0133893D01*
X0217330Y0134660D01*
X0217330Y0136195D01*
X0216563Y0136962D01*
X0214261Y0136962D01*
X0215795Y0133893D02*
X0217330Y0132358D01*
X0218865Y0132358D02*
X0221934Y0132358D01*
X0220399Y0132358D02*
X0220399Y0136962D01*
X0218865Y0135428D01*
X0219632Y0128694D02*
X0221167Y0128694D01*
X0221934Y0127927D01*
X0221934Y0127160D01*
X0221167Y0126393D01*
X0221934Y0125625D01*
X0221934Y0124858D01*
X0221167Y0124091D01*
X0219632Y0124091D01*
X0218865Y0124858D01*
X0217330Y0124091D02*
X0215795Y0125625D01*
X0216563Y0125625D02*
X0214261Y0125625D01*
X0214261Y0124091D02*
X0214261Y0128694D01*
X0216563Y0128694D01*
X0217330Y0127927D01*
X0217330Y0126393D01*
X0216563Y0125625D01*
X0218865Y0127927D02*
X0219632Y0128694D01*
X0220399Y0126393D02*
X0221167Y0126393D01*
X0216191Y0110427D02*
X0216191Y0105823D01*
X0214657Y0105823D02*
X0217726Y0105823D01*
X0214657Y0108892D02*
X0216191Y0110427D01*
X0213122Y0109659D02*
X0212355Y0110427D01*
X0210820Y0110427D01*
X0210053Y0109659D01*
X0208518Y0109659D02*
X0207751Y0110427D01*
X0206216Y0110427D01*
X0205449Y0109659D01*
X0205449Y0106590D01*
X0206216Y0105823D01*
X0207751Y0105823D01*
X0208518Y0106590D01*
X0210053Y0105823D02*
X0213122Y0108892D01*
X0213122Y0109659D01*
X0213122Y0105823D02*
X0210053Y0105823D01*
X0205324Y0102376D02*
X0204557Y0103143D01*
X0203022Y0103143D01*
X0202255Y0102376D01*
X0202255Y0101609D01*
X0203022Y0100841D01*
X0205324Y0100841D01*
X0205324Y0099307D02*
X0205324Y0102376D01*
X0205324Y0099307D02*
X0204557Y0098539D01*
X0203022Y0098539D01*
X0202255Y0099307D01*
X0200720Y0099307D02*
X0199953Y0098539D01*
X0198419Y0098539D01*
X0197651Y0099307D01*
X0197651Y0102376D01*
X0198419Y0103143D01*
X0199953Y0103143D01*
X0200720Y0102376D01*
D12*
X0194720Y0102658D02*
X0194720Y0104158D01*
X0190820Y0104158D01*
X0190820Y0102658D01*
X0194720Y0102658D01*
X0194720Y0101558D02*
X0190820Y0101558D01*
X0190820Y0100058D01*
X0194720Y0100058D01*
X0194720Y0101558D01*
X0194720Y0099058D02*
X0190820Y0099058D01*
X0190820Y0097558D01*
X0194720Y0097558D01*
X0194720Y0099058D01*
X0194720Y0096458D02*
X0190820Y0096458D01*
X0190820Y0094958D01*
X0194720Y0094958D01*
X0194720Y0096458D01*
X0194720Y0093858D02*
X0190820Y0093858D01*
X0190820Y0092358D01*
X0194720Y0092358D01*
X0194720Y0093858D01*
X0194720Y0091358D02*
X0190820Y0091358D01*
X0190820Y0089858D01*
X0194720Y0089858D01*
X0194720Y0091358D01*
X0194720Y0088758D02*
X0190820Y0088758D01*
X0190820Y0087258D01*
X0194720Y0087258D01*
X0194720Y0088758D01*
X0194720Y0086258D02*
X0190820Y0086258D01*
X0190820Y0084758D01*
X0194720Y0084758D01*
X0194720Y0086258D01*
X0194720Y0083658D02*
X0190820Y0083658D01*
X0190820Y0082158D01*
X0194720Y0082158D01*
X0194720Y0083658D01*
X0194720Y0081058D02*
X0190820Y0081058D01*
X0190820Y0079558D01*
X0194720Y0079558D01*
X0194720Y0081058D01*
X0190820Y0076658D02*
X0134820Y0076658D01*
X0134820Y0132658D01*
X0190820Y0132658D01*
X0190820Y0076658D01*
X0187920Y0076658D02*
X0187920Y0072758D01*
X0186420Y0072758D01*
X0186420Y0076658D01*
X0187920Y0076658D01*
X0185320Y0076658D02*
X0185320Y0072758D01*
X0183820Y0072758D01*
X0183820Y0076658D01*
X0185320Y0076658D01*
X0182720Y0076658D02*
X0182720Y0072758D01*
X0181220Y0072758D01*
X0181220Y0076658D01*
X0182720Y0076658D01*
X0180220Y0076658D02*
X0180220Y0072758D01*
X0178720Y0072758D01*
X0178720Y0076658D01*
X0180220Y0076658D01*
X0177620Y0076658D02*
X0177620Y0072758D01*
X0176120Y0072758D01*
X0176120Y0076658D01*
X0177620Y0076658D01*
X0175120Y0076658D02*
X0175120Y0072758D01*
X0173620Y0072758D01*
X0173620Y0076658D01*
X0175120Y0076658D01*
X0172520Y0076658D02*
X0172520Y0072758D01*
X0171020Y0072758D01*
X0171020Y0076658D01*
X0172520Y0076658D01*
X0169920Y0076658D02*
X0169920Y0072758D01*
X0168420Y0072758D01*
X0168420Y0076658D01*
X0169920Y0076658D01*
X0167420Y0076658D02*
X0167420Y0072758D01*
X0165920Y0072758D01*
X0165920Y0076658D01*
X0167420Y0076658D01*
X0164820Y0076658D02*
X0164820Y0072758D01*
X0163320Y0072758D01*
X0163320Y0076658D01*
X0164820Y0076658D01*
X0162320Y0076658D02*
X0162320Y0072758D01*
X0160820Y0072758D01*
X0160820Y0076658D01*
X0162320Y0076658D01*
X0159720Y0076658D02*
X0159720Y0072758D01*
X0158220Y0072758D01*
X0158220Y0076658D01*
X0159720Y0076658D01*
X0157220Y0076658D02*
X0157220Y0072758D01*
X0155720Y0072758D01*
X0155720Y0076658D01*
X0157220Y0076658D01*
X0154620Y0076658D02*
X0154620Y0072758D01*
X0153120Y0072758D01*
X0153120Y0076658D01*
X0154620Y0076658D01*
X0152020Y0076658D02*
X0152020Y0072758D01*
X0150520Y0072758D01*
X0150520Y0076658D01*
X0152020Y0076658D01*
X0149520Y0076658D02*
X0149520Y0072758D01*
X0148020Y0072758D01*
X0148020Y0076658D01*
X0149520Y0076658D01*
X0146920Y0076658D02*
X0146920Y0072758D01*
X0145420Y0072758D01*
X0145420Y0076658D01*
X0146920Y0076658D01*
X0144420Y0076658D02*
X0144420Y0072758D01*
X0142920Y0072758D01*
X0142920Y0076658D01*
X0144420Y0076658D01*
X0141820Y0076658D02*
X0141820Y0072758D01*
X0140320Y0072758D01*
X0140320Y0076658D01*
X0141820Y0076658D01*
X0139820Y0076658D02*
X0134820Y0081658D01*
X0134820Y0082158D02*
X0130920Y0082158D01*
X0130920Y0083658D01*
X0134820Y0083658D01*
X0134820Y0082158D01*
X0134820Y0081058D02*
X0130920Y0081058D01*
X0130920Y0079558D01*
X0134820Y0079558D01*
X0134820Y0081058D01*
X0134820Y0084758D02*
X0130920Y0084758D01*
X0130920Y0086258D01*
X0134820Y0086258D01*
X0134820Y0084758D01*
X0134820Y0087258D02*
X0130920Y0087258D01*
X0130920Y0088758D01*
X0134820Y0088758D01*
X0134820Y0087258D01*
X0134820Y0089858D02*
X0130920Y0089858D01*
X0130920Y0091358D01*
X0134820Y0091358D01*
X0134820Y0089858D01*
X0134820Y0092358D02*
X0130920Y0092358D01*
X0130920Y0093858D01*
X0134820Y0093858D01*
X0134820Y0092358D01*
X0134820Y0094958D02*
X0130920Y0094958D01*
X0130920Y0096458D01*
X0134820Y0096458D01*
X0134820Y0094958D01*
X0134820Y0097558D02*
X0130920Y0097558D01*
X0130920Y0099058D01*
X0134820Y0099058D01*
X0134820Y0097558D01*
X0134820Y0100058D02*
X0130920Y0100058D01*
X0130920Y0101558D01*
X0134820Y0101558D01*
X0134820Y0100058D01*
X0134820Y0102658D02*
X0130920Y0102658D01*
X0130920Y0104158D01*
X0134820Y0104158D01*
X0134820Y0102658D01*
X0134820Y0105158D02*
X0130920Y0105158D01*
X0130920Y0106658D01*
X0134820Y0106658D01*
X0134820Y0105158D01*
X0134820Y0107758D02*
X0130920Y0107758D01*
X0130920Y0109258D01*
X0134820Y0109258D01*
X0134820Y0107758D01*
X0134820Y0110258D02*
X0130920Y0110258D01*
X0130920Y0111758D01*
X0134820Y0111758D01*
X0134820Y0110258D01*
X0134820Y0112858D02*
X0130920Y0112858D01*
X0130920Y0114358D01*
X0134820Y0114358D01*
X0134820Y0112858D01*
X0134820Y0115458D02*
X0130920Y0115458D01*
X0130920Y0116958D01*
X0134820Y0116958D01*
X0134820Y0115458D01*
X0134820Y0117958D02*
X0130920Y0117958D01*
X0130920Y0119458D01*
X0134820Y0119458D01*
X0134820Y0117958D01*
X0134820Y0120558D02*
X0130920Y0120558D01*
X0130920Y0122058D01*
X0134820Y0122058D01*
X0134820Y0120558D01*
X0134820Y0123058D02*
X0130920Y0123058D01*
X0130920Y0124558D01*
X0134820Y0124558D01*
X0134820Y0123058D01*
X0134820Y0125658D02*
X0130920Y0125658D01*
X0130920Y0127158D01*
X0134820Y0127158D01*
X0134820Y0125658D01*
X0134820Y0128258D02*
X0130920Y0128258D01*
X0130920Y0129758D01*
X0134820Y0129758D01*
X0134820Y0128258D01*
X0137720Y0132658D02*
X0137720Y0136558D01*
X0139220Y0136558D01*
X0139220Y0132658D01*
X0137720Y0132658D01*
X0140320Y0132658D02*
X0140320Y0136558D01*
X0141820Y0136558D01*
X0141820Y0132658D01*
X0140320Y0132658D01*
X0142920Y0132658D02*
X0142920Y0136558D01*
X0144420Y0136558D01*
X0144420Y0132658D01*
X0142920Y0132658D01*
X0145420Y0132658D02*
X0145420Y0136558D01*
X0146920Y0136558D01*
X0146920Y0132658D01*
X0145420Y0132658D01*
X0148020Y0132658D02*
X0148020Y0136558D01*
X0149520Y0136558D01*
X0149520Y0132658D01*
X0148020Y0132658D01*
X0150520Y0132658D02*
X0150520Y0136558D01*
X0152020Y0136558D01*
X0152020Y0132658D01*
X0150520Y0132658D01*
X0153120Y0132658D02*
X0153120Y0136558D01*
X0154620Y0136558D01*
X0154620Y0132658D01*
X0153120Y0132658D01*
X0155720Y0132658D02*
X0155720Y0136558D01*
X0157220Y0136558D01*
X0157220Y0132658D01*
X0155720Y0132658D01*
X0158220Y0132658D02*
X0158220Y0136558D01*
X0159720Y0136558D01*
X0159720Y0132658D01*
X0158220Y0132658D01*
X0160820Y0132658D02*
X0160820Y0136558D01*
X0162320Y0136558D01*
X0162320Y0132658D01*
X0160820Y0132658D01*
X0163320Y0132658D02*
X0163320Y0136558D01*
X0164820Y0136558D01*
X0164820Y0132658D01*
X0163320Y0132658D01*
X0165920Y0132658D02*
X0165920Y0136558D01*
X0167420Y0136558D01*
X0167420Y0132658D01*
X0165920Y0132658D01*
X0168420Y0132658D02*
X0168420Y0136558D01*
X0169920Y0136558D01*
X0169920Y0132658D01*
X0168420Y0132658D01*
X0171020Y0132658D02*
X0171020Y0136558D01*
X0172520Y0136558D01*
X0172520Y0132658D01*
X0171020Y0132658D01*
X0173620Y0132658D02*
X0173620Y0136558D01*
X0175120Y0136558D01*
X0175120Y0132658D01*
X0173620Y0132658D01*
X0176120Y0132658D02*
X0176120Y0136558D01*
X0177620Y0136558D01*
X0177620Y0132658D01*
X0176120Y0132658D01*
X0178720Y0132658D02*
X0178720Y0136558D01*
X0180220Y0136558D01*
X0180220Y0132658D01*
X0178720Y0132658D01*
X0181220Y0132658D02*
X0181220Y0136558D01*
X0182720Y0136558D01*
X0182720Y0132658D01*
X0181220Y0132658D01*
X0183820Y0132658D02*
X0183820Y0136558D01*
X0185320Y0136558D01*
X0185320Y0132658D01*
X0183820Y0132658D01*
X0186420Y0132658D02*
X0186420Y0136558D01*
X0187920Y0136558D01*
X0187920Y0132658D01*
X0186420Y0132658D01*
X0190820Y0129758D02*
X0194720Y0129758D01*
X0194720Y0128258D01*
X0190820Y0128258D01*
X0190820Y0129758D01*
X0190820Y0127158D02*
X0194720Y0127158D01*
X0194720Y0125658D01*
X0190820Y0125658D01*
X0190820Y0127158D01*
X0190820Y0124558D02*
X0194720Y0124558D01*
X0194720Y0123058D01*
X0190820Y0123058D01*
X0190820Y0124558D01*
X0190820Y0122058D02*
X0194720Y0122058D01*
X0194720Y0120558D01*
X0190820Y0120558D01*
X0190820Y0122058D01*
X0190820Y0119458D02*
X0194720Y0119458D01*
X0194720Y0117958D01*
X0190820Y0117958D01*
X0190820Y0119458D01*
X0190820Y0116958D02*
X0194720Y0116958D01*
X0194720Y0115458D01*
X0190820Y0115458D01*
X0190820Y0116958D01*
X0190820Y0114358D02*
X0194720Y0114358D01*
X0194720Y0112858D01*
X0190820Y0112858D01*
X0190820Y0114358D01*
X0190820Y0111758D02*
X0194720Y0111758D01*
X0194720Y0110258D01*
X0190820Y0110258D01*
X0190820Y0111758D01*
X0190820Y0109258D02*
X0194720Y0109258D01*
X0194720Y0107758D01*
X0190820Y0107758D01*
X0190820Y0109258D01*
X0190820Y0106658D02*
X0194720Y0106658D01*
X0194720Y0105158D01*
X0190820Y0105158D01*
X0190820Y0106658D01*
X0139220Y0076658D02*
X0139220Y0072758D01*
X0137720Y0072758D01*
X0137720Y0076658D01*
X0139220Y0076658D01*
X0139317Y0034800D02*
X0129317Y0034800D01*
X0129317Y0023800D01*
X0139317Y0023800D01*
X0149317Y0023800D01*
X0159317Y0023800D01*
X0159317Y0034800D01*
X0149317Y0034800D01*
X0139317Y0034800D01*
X0139317Y0023800D01*
X0149317Y0023800D02*
X0149317Y0034800D01*
X0166324Y0034800D02*
X0166324Y0023800D01*
X0176324Y0023800D01*
X0186324Y0023800D01*
X0196324Y0023800D01*
X0206324Y0023800D01*
X0216324Y0023800D01*
X0226324Y0023800D01*
X0236324Y0023800D01*
X0246324Y0023800D01*
X0246324Y0034800D01*
X0236324Y0034800D01*
X0226324Y0034800D01*
X0226324Y0023800D01*
X0216324Y0023800D02*
X0216324Y0034800D01*
X0226324Y0034800D01*
X0216324Y0034800D02*
X0206324Y0034800D01*
X0206324Y0023800D01*
X0196324Y0023800D02*
X0196324Y0034800D01*
X0206324Y0034800D01*
X0196324Y0034800D02*
X0186324Y0034800D01*
X0176324Y0034800D01*
X0176324Y0023800D01*
X0186324Y0023800D02*
X0186324Y0034800D01*
X0176324Y0034800D02*
X0166324Y0034800D01*
X0129317Y0034800D02*
X0119317Y0034800D01*
X0119317Y0023800D01*
X0109317Y0023800D01*
X0109317Y0034800D01*
X0119317Y0034800D01*
X0109317Y0034800D02*
X0099317Y0034800D01*
X0089317Y0034800D01*
X0089317Y0023800D01*
X0099317Y0023800D01*
X0109317Y0023800D01*
X0119317Y0023800D02*
X0129317Y0023800D01*
X0099317Y0023800D02*
X0099317Y0034800D01*
X0089317Y0034800D02*
X0079317Y0034800D01*
X0079317Y0023800D01*
X0089317Y0023800D01*
X0064981Y0034150D02*
X0064981Y0036150D01*
X0060581Y0036150D01*
X0060581Y0034150D01*
X0064981Y0034150D01*
X0060581Y0032850D02*
X0060581Y0052450D01*
X0051581Y0052450D01*
X0044981Y0052450D01*
X0044981Y0032850D01*
X0060581Y0032850D01*
X0060581Y0039150D02*
X0064981Y0039150D01*
X0064981Y0041150D01*
X0060581Y0041150D01*
X0060581Y0039150D01*
X0060581Y0044150D02*
X0064981Y0044150D01*
X0064981Y0046150D01*
X0060581Y0046150D01*
X0060581Y0044150D01*
X0060581Y0049150D02*
X0064981Y0049150D01*
X0064981Y0051150D01*
X0060581Y0051150D01*
X0060581Y0049150D01*
X0053981Y0052550D02*
X0053982Y0052481D01*
X0053979Y0052413D01*
X0053972Y0052345D01*
X0053961Y0052277D01*
X0053946Y0052210D01*
X0053928Y0052144D01*
X0053906Y0052079D01*
X0053880Y0052015D01*
X0053850Y0051953D01*
X0053818Y0051893D01*
X0053781Y0051835D01*
X0053742Y0051779D01*
X0053699Y0051725D01*
X0053653Y0051674D01*
X0053605Y0051626D01*
X0053553Y0051580D01*
X0053500Y0051538D01*
X0053443Y0051498D01*
X0053385Y0051462D01*
X0053325Y0051429D01*
X0053263Y0051400D01*
X0053199Y0051374D01*
X0053134Y0051352D01*
X0053068Y0051334D01*
X0053001Y0051319D01*
X0052934Y0051309D01*
X0052865Y0051302D01*
X0052797Y0051299D01*
X0052728Y0051300D01*
X0052660Y0051305D01*
X0052592Y0051314D01*
X0052524Y0051327D01*
X0052458Y0051343D01*
X0052392Y0051364D01*
X0052328Y0051388D01*
X0052265Y0051415D01*
X0052204Y0051447D01*
X0052145Y0051481D01*
X0052088Y0051519D01*
X0052033Y0051560D01*
X0051981Y0051605D01*
X0051931Y0051652D01*
X0051884Y0051702D01*
X0051840Y0051754D01*
X0051799Y0051809D01*
X0051761Y0051866D01*
X0051726Y0051926D01*
X0051695Y0051987D01*
X0051668Y0052050D01*
X0051644Y0052114D01*
X0051624Y0052180D01*
X0051607Y0052246D01*
X0051595Y0052314D01*
X0051586Y0052382D01*
X0051581Y0052450D01*
X0044981Y0051150D02*
X0044981Y0049150D01*
X0040581Y0049150D01*
X0040581Y0051150D01*
X0044981Y0051150D01*
X0044981Y0046150D02*
X0040581Y0046150D01*
X0040581Y0044150D01*
X0044981Y0044150D01*
X0044981Y0046150D01*
X0044981Y0041150D02*
X0040581Y0041150D01*
X0040581Y0039150D01*
X0044981Y0039150D01*
X0044981Y0041150D01*
X0044981Y0036150D02*
X0040581Y0036150D01*
X0040581Y0034150D01*
X0044981Y0034150D01*
X0044981Y0036150D01*
X0031572Y0051863D02*
X0012572Y0051863D01*
X0012474Y0051865D01*
X0012376Y0051871D01*
X0012278Y0051880D01*
X0012181Y0051894D01*
X0012084Y0051911D01*
X0011988Y0051932D01*
X0011893Y0051957D01*
X0011799Y0051985D01*
X0011707Y0052018D01*
X0011615Y0052053D01*
X0011525Y0052093D01*
X0011437Y0052135D01*
X0011350Y0052182D01*
X0011266Y0052231D01*
X0011183Y0052284D01*
X0011103Y0052340D01*
X0011024Y0052400D01*
X0010948Y0052462D01*
X0010875Y0052527D01*
X0010804Y0052595D01*
X0010736Y0052666D01*
X0010671Y0052739D01*
X0010609Y0052815D01*
X0010549Y0052894D01*
X0010493Y0052974D01*
X0010440Y0053057D01*
X0010391Y0053141D01*
X0010344Y0053228D01*
X0010302Y0053316D01*
X0010262Y0053406D01*
X0010227Y0053498D01*
X0010194Y0053590D01*
X0010166Y0053684D01*
X0010141Y0053779D01*
X0010120Y0053875D01*
X0010103Y0053972D01*
X0010089Y0054069D01*
X0010080Y0054167D01*
X0010074Y0054265D01*
X0010072Y0054363D01*
X0010072Y0129363D01*
X0010074Y0129461D01*
X0010080Y0129559D01*
X0010089Y0129657D01*
X0010103Y0129754D01*
X0010120Y0129851D01*
X0010141Y0129947D01*
X0010166Y0130042D01*
X0010194Y0130136D01*
X0010227Y0130228D01*
X0010262Y0130320D01*
X0010302Y0130410D01*
X0010344Y0130498D01*
X0010391Y0130585D01*
X0010440Y0130669D01*
X0010493Y0130752D01*
X0010549Y0130832D01*
X0010609Y0130911D01*
X0010671Y0130987D01*
X0010736Y0131060D01*
X0010804Y0131131D01*
X0010875Y0131199D01*
X0010948Y0131264D01*
X0011024Y0131326D01*
X0011103Y0131386D01*
X0011183Y0131442D01*
X0011266Y0131495D01*
X0011350Y0131544D01*
X0011437Y0131591D01*
X0011525Y0131633D01*
X0011615Y0131673D01*
X0011707Y0131708D01*
X0011799Y0131741D01*
X0011893Y0131769D01*
X0011988Y0131794D01*
X0012084Y0131815D01*
X0012181Y0131832D01*
X0012278Y0131846D01*
X0012376Y0131855D01*
X0012474Y0131861D01*
X0012572Y0131863D01*
X0031572Y0131863D01*
X0031670Y0131861D01*
X0031768Y0131855D01*
X0031866Y0131846D01*
X0031963Y0131832D01*
X0032060Y0131815D01*
X0032156Y0131794D01*
X0032251Y0131769D01*
X0032345Y0131741D01*
X0032437Y0131708D01*
X0032529Y0131673D01*
X0032619Y0131633D01*
X0032707Y0131591D01*
X0032794Y0131544D01*
X0032878Y0131495D01*
X0032961Y0131442D01*
X0033041Y0131386D01*
X0033120Y0131326D01*
X0033196Y0131264D01*
X0033269Y0131199D01*
X0033340Y0131131D01*
X0033408Y0131060D01*
X0033473Y0130987D01*
X0033535Y0130911D01*
X0033595Y0130832D01*
X0033651Y0130752D01*
X0033704Y0130669D01*
X0033753Y0130585D01*
X0033800Y0130498D01*
X0033842Y0130410D01*
X0033882Y0130320D01*
X0033917Y0130228D01*
X0033950Y0130136D01*
X0033978Y0130042D01*
X0034003Y0129947D01*
X0034024Y0129851D01*
X0034041Y0129754D01*
X0034055Y0129657D01*
X0034064Y0129559D01*
X0034070Y0129461D01*
X0034072Y0129363D01*
X0034072Y0054363D01*
X0034070Y0054265D01*
X0034064Y0054167D01*
X0034055Y0054069D01*
X0034041Y0053972D01*
X0034024Y0053875D01*
X0034003Y0053779D01*
X0033978Y0053684D01*
X0033950Y0053590D01*
X0033917Y0053498D01*
X0033882Y0053406D01*
X0033842Y0053316D01*
X0033800Y0053228D01*
X0033753Y0053141D01*
X0033704Y0053057D01*
X0033651Y0052974D01*
X0033595Y0052894D01*
X0033535Y0052815D01*
X0033473Y0052739D01*
X0033408Y0052666D01*
X0033340Y0052595D01*
X0033269Y0052527D01*
X0033196Y0052462D01*
X0033120Y0052400D01*
X0033041Y0052340D01*
X0032961Y0052284D01*
X0032878Y0052231D01*
X0032794Y0052182D01*
X0032707Y0052135D01*
X0032619Y0052093D01*
X0032529Y0052053D01*
X0032437Y0052018D01*
X0032345Y0051985D01*
X0032251Y0051957D01*
X0032156Y0051932D01*
X0032060Y0051911D01*
X0031963Y0051894D01*
X0031866Y0051880D01*
X0031768Y0051871D01*
X0031670Y0051865D01*
X0031572Y0051863D01*
X0100503Y0130967D02*
X0102303Y0130967D01*
X0104103Y0134767D02*
X0104103Y0135967D01*
X0102303Y0139767D02*
X0100503Y0139767D01*
X0072135Y0155457D02*
X0072135Y0166457D01*
X0072133Y0166517D01*
X0072128Y0166578D01*
X0072119Y0166637D01*
X0072106Y0166696D01*
X0072090Y0166755D01*
X0072070Y0166812D01*
X0072047Y0166867D01*
X0072020Y0166922D01*
X0071991Y0166974D01*
X0071958Y0167025D01*
X0071922Y0167074D01*
X0071884Y0167120D01*
X0071842Y0167164D01*
X0071798Y0167206D01*
X0071752Y0167244D01*
X0071703Y0167280D01*
X0071652Y0167313D01*
X0071600Y0167342D01*
X0071545Y0167369D01*
X0071490Y0167392D01*
X0071433Y0167412D01*
X0071374Y0167428D01*
X0071315Y0167441D01*
X0071256Y0167450D01*
X0071195Y0167455D01*
X0071135Y0167457D01*
X0065135Y0167457D01*
X0065075Y0167455D01*
X0065014Y0167450D01*
X0064955Y0167441D01*
X0064896Y0167428D01*
X0064837Y0167412D01*
X0064780Y0167392D01*
X0064725Y0167369D01*
X0064670Y0167342D01*
X0064618Y0167313D01*
X0064567Y0167280D01*
X0064518Y0167244D01*
X0064472Y0167206D01*
X0064428Y0167164D01*
X0064386Y0167120D01*
X0064348Y0167074D01*
X0064312Y0167025D01*
X0064279Y0166974D01*
X0064250Y0166922D01*
X0064223Y0166867D01*
X0064200Y0166812D01*
X0064180Y0166755D01*
X0064164Y0166696D01*
X0064151Y0166637D01*
X0064142Y0166578D01*
X0064137Y0166517D01*
X0064135Y0166457D01*
X0064135Y0155457D01*
X0064137Y0155397D01*
X0064142Y0155336D01*
X0064151Y0155277D01*
X0064164Y0155218D01*
X0064180Y0155159D01*
X0064200Y0155102D01*
X0064223Y0155047D01*
X0064250Y0154992D01*
X0064279Y0154940D01*
X0064312Y0154889D01*
X0064348Y0154840D01*
X0064386Y0154794D01*
X0064428Y0154750D01*
X0064472Y0154708D01*
X0064518Y0154670D01*
X0064567Y0154634D01*
X0064618Y0154601D01*
X0064670Y0154572D01*
X0064725Y0154545D01*
X0064780Y0154522D01*
X0064837Y0154502D01*
X0064896Y0154486D01*
X0064955Y0154473D01*
X0065014Y0154464D01*
X0065075Y0154459D01*
X0065135Y0154457D01*
X0071135Y0154457D01*
X0071195Y0154459D01*
X0071256Y0154464D01*
X0071315Y0154473D01*
X0071374Y0154486D01*
X0071433Y0154502D01*
X0071490Y0154522D01*
X0071545Y0154545D01*
X0071600Y0154572D01*
X0071652Y0154601D01*
X0071703Y0154634D01*
X0071752Y0154670D01*
X0071798Y0154708D01*
X0071842Y0154750D01*
X0071884Y0154794D01*
X0071922Y0154840D01*
X0071958Y0154889D01*
X0071991Y0154940D01*
X0072020Y0154992D01*
X0072047Y0155047D01*
X0072070Y0155102D01*
X0072090Y0155159D01*
X0072106Y0155218D01*
X0072119Y0155277D01*
X0072128Y0155336D01*
X0072133Y0155397D01*
X0072135Y0155457D01*
X0056781Y0155457D02*
X0056781Y0166457D01*
X0056779Y0166517D01*
X0056774Y0166578D01*
X0056765Y0166637D01*
X0056752Y0166696D01*
X0056736Y0166755D01*
X0056716Y0166812D01*
X0056693Y0166867D01*
X0056666Y0166922D01*
X0056637Y0166974D01*
X0056604Y0167025D01*
X0056568Y0167074D01*
X0056530Y0167120D01*
X0056488Y0167164D01*
X0056444Y0167206D01*
X0056398Y0167244D01*
X0056349Y0167280D01*
X0056298Y0167313D01*
X0056246Y0167342D01*
X0056191Y0167369D01*
X0056136Y0167392D01*
X0056079Y0167412D01*
X0056020Y0167428D01*
X0055961Y0167441D01*
X0055902Y0167450D01*
X0055841Y0167455D01*
X0055781Y0167457D01*
X0049781Y0167457D01*
X0049721Y0167455D01*
X0049660Y0167450D01*
X0049601Y0167441D01*
X0049542Y0167428D01*
X0049483Y0167412D01*
X0049426Y0167392D01*
X0049371Y0167369D01*
X0049316Y0167342D01*
X0049264Y0167313D01*
X0049213Y0167280D01*
X0049164Y0167244D01*
X0049118Y0167206D01*
X0049074Y0167164D01*
X0049032Y0167120D01*
X0048994Y0167074D01*
X0048958Y0167025D01*
X0048925Y0166974D01*
X0048896Y0166922D01*
X0048869Y0166867D01*
X0048846Y0166812D01*
X0048826Y0166755D01*
X0048810Y0166696D01*
X0048797Y0166637D01*
X0048788Y0166578D01*
X0048783Y0166517D01*
X0048781Y0166457D01*
X0048781Y0155457D01*
X0048783Y0155397D01*
X0048788Y0155336D01*
X0048797Y0155277D01*
X0048810Y0155218D01*
X0048826Y0155159D01*
X0048846Y0155102D01*
X0048869Y0155047D01*
X0048896Y0154992D01*
X0048925Y0154940D01*
X0048958Y0154889D01*
X0048994Y0154840D01*
X0049032Y0154794D01*
X0049074Y0154750D01*
X0049118Y0154708D01*
X0049164Y0154670D01*
X0049213Y0154634D01*
X0049264Y0154601D01*
X0049316Y0154572D01*
X0049371Y0154545D01*
X0049426Y0154522D01*
X0049483Y0154502D01*
X0049542Y0154486D01*
X0049601Y0154473D01*
X0049660Y0154464D01*
X0049721Y0154459D01*
X0049781Y0154457D01*
X0055781Y0154457D01*
X0055841Y0154459D01*
X0055902Y0154464D01*
X0055961Y0154473D01*
X0056020Y0154486D01*
X0056079Y0154502D01*
X0056136Y0154522D01*
X0056191Y0154545D01*
X0056246Y0154572D01*
X0056298Y0154601D01*
X0056349Y0154634D01*
X0056398Y0154670D01*
X0056444Y0154708D01*
X0056488Y0154750D01*
X0056530Y0154794D01*
X0056568Y0154840D01*
X0056604Y0154889D01*
X0056637Y0154940D01*
X0056666Y0154992D01*
X0056693Y0155047D01*
X0056716Y0155102D01*
X0056736Y0155159D01*
X0056752Y0155218D01*
X0056765Y0155277D01*
X0056774Y0155336D01*
X0056779Y0155397D01*
X0056781Y0155457D01*
X0041427Y0155457D02*
X0041427Y0166457D01*
X0041425Y0166517D01*
X0041420Y0166578D01*
X0041411Y0166637D01*
X0041398Y0166696D01*
X0041382Y0166755D01*
X0041362Y0166812D01*
X0041339Y0166867D01*
X0041312Y0166922D01*
X0041283Y0166974D01*
X0041250Y0167025D01*
X0041214Y0167074D01*
X0041176Y0167120D01*
X0041134Y0167164D01*
X0041090Y0167206D01*
X0041044Y0167244D01*
X0040995Y0167280D01*
X0040944Y0167313D01*
X0040892Y0167342D01*
X0040837Y0167369D01*
X0040782Y0167392D01*
X0040725Y0167412D01*
X0040666Y0167428D01*
X0040607Y0167441D01*
X0040548Y0167450D01*
X0040487Y0167455D01*
X0040427Y0167457D01*
X0034427Y0167457D01*
X0034367Y0167455D01*
X0034306Y0167450D01*
X0034247Y0167441D01*
X0034188Y0167428D01*
X0034129Y0167412D01*
X0034072Y0167392D01*
X0034017Y0167369D01*
X0033962Y0167342D01*
X0033910Y0167313D01*
X0033859Y0167280D01*
X0033810Y0167244D01*
X0033764Y0167206D01*
X0033720Y0167164D01*
X0033678Y0167120D01*
X0033640Y0167074D01*
X0033604Y0167025D01*
X0033571Y0166974D01*
X0033542Y0166922D01*
X0033515Y0166867D01*
X0033492Y0166812D01*
X0033472Y0166755D01*
X0033456Y0166696D01*
X0033443Y0166637D01*
X0033434Y0166578D01*
X0033429Y0166517D01*
X0033427Y0166457D01*
X0033427Y0155457D01*
X0033429Y0155397D01*
X0033434Y0155336D01*
X0033443Y0155277D01*
X0033456Y0155218D01*
X0033472Y0155159D01*
X0033492Y0155102D01*
X0033515Y0155047D01*
X0033542Y0154992D01*
X0033571Y0154940D01*
X0033604Y0154889D01*
X0033640Y0154840D01*
X0033678Y0154794D01*
X0033720Y0154750D01*
X0033764Y0154708D01*
X0033810Y0154670D01*
X0033859Y0154634D01*
X0033910Y0154601D01*
X0033962Y0154572D01*
X0034017Y0154545D01*
X0034072Y0154522D01*
X0034129Y0154502D01*
X0034188Y0154486D01*
X0034247Y0154473D01*
X0034306Y0154464D01*
X0034367Y0154459D01*
X0034427Y0154457D01*
X0040427Y0154457D01*
X0040487Y0154459D01*
X0040548Y0154464D01*
X0040607Y0154473D01*
X0040666Y0154486D01*
X0040725Y0154502D01*
X0040782Y0154522D01*
X0040837Y0154545D01*
X0040892Y0154572D01*
X0040944Y0154601D01*
X0040995Y0154634D01*
X0041044Y0154670D01*
X0041090Y0154708D01*
X0041134Y0154750D01*
X0041176Y0154794D01*
X0041214Y0154840D01*
X0041250Y0154889D01*
X0041283Y0154940D01*
X0041312Y0154992D01*
X0041339Y0155047D01*
X0041362Y0155102D01*
X0041382Y0155159D01*
X0041398Y0155218D01*
X0041411Y0155277D01*
X0041420Y0155336D01*
X0041425Y0155397D01*
X0041427Y0155457D01*
X0026072Y0155457D02*
X0026072Y0166457D01*
X0026070Y0166517D01*
X0026065Y0166578D01*
X0026056Y0166637D01*
X0026043Y0166696D01*
X0026027Y0166755D01*
X0026007Y0166812D01*
X0025984Y0166867D01*
X0025957Y0166922D01*
X0025928Y0166974D01*
X0025895Y0167025D01*
X0025859Y0167074D01*
X0025821Y0167120D01*
X0025779Y0167164D01*
X0025735Y0167206D01*
X0025689Y0167244D01*
X0025640Y0167280D01*
X0025589Y0167313D01*
X0025537Y0167342D01*
X0025482Y0167369D01*
X0025427Y0167392D01*
X0025370Y0167412D01*
X0025311Y0167428D01*
X0025252Y0167441D01*
X0025193Y0167450D01*
X0025132Y0167455D01*
X0025072Y0167457D01*
X0019072Y0167457D01*
X0019012Y0167455D01*
X0018951Y0167450D01*
X0018892Y0167441D01*
X0018833Y0167428D01*
X0018774Y0167412D01*
X0018717Y0167392D01*
X0018662Y0167369D01*
X0018607Y0167342D01*
X0018555Y0167313D01*
X0018504Y0167280D01*
X0018455Y0167244D01*
X0018409Y0167206D01*
X0018365Y0167164D01*
X0018323Y0167120D01*
X0018285Y0167074D01*
X0018249Y0167025D01*
X0018216Y0166974D01*
X0018187Y0166922D01*
X0018160Y0166867D01*
X0018137Y0166812D01*
X0018117Y0166755D01*
X0018101Y0166696D01*
X0018088Y0166637D01*
X0018079Y0166578D01*
X0018074Y0166517D01*
X0018072Y0166457D01*
X0018072Y0155457D01*
X0018074Y0155397D01*
X0018079Y0155336D01*
X0018088Y0155277D01*
X0018101Y0155218D01*
X0018117Y0155159D01*
X0018137Y0155102D01*
X0018160Y0155047D01*
X0018187Y0154992D01*
X0018216Y0154940D01*
X0018249Y0154889D01*
X0018285Y0154840D01*
X0018323Y0154794D01*
X0018365Y0154750D01*
X0018409Y0154708D01*
X0018455Y0154670D01*
X0018504Y0154634D01*
X0018555Y0154601D01*
X0018607Y0154572D01*
X0018662Y0154545D01*
X0018717Y0154522D01*
X0018774Y0154502D01*
X0018833Y0154486D01*
X0018892Y0154473D01*
X0018951Y0154464D01*
X0019012Y0154459D01*
X0019072Y0154457D01*
X0025072Y0154457D01*
X0025132Y0154459D01*
X0025193Y0154464D01*
X0025252Y0154473D01*
X0025311Y0154486D01*
X0025370Y0154502D01*
X0025427Y0154522D01*
X0025482Y0154545D01*
X0025537Y0154572D01*
X0025589Y0154601D01*
X0025640Y0154634D01*
X0025689Y0154670D01*
X0025735Y0154708D01*
X0025779Y0154750D01*
X0025821Y0154794D01*
X0025859Y0154840D01*
X0025895Y0154889D01*
X0025928Y0154940D01*
X0025957Y0154992D01*
X0025984Y0155047D01*
X0026007Y0155102D01*
X0026027Y0155159D01*
X0026043Y0155218D01*
X0026056Y0155277D01*
X0026065Y0155336D01*
X0026070Y0155397D01*
X0026072Y0155457D01*
X0132639Y0155457D02*
X0132639Y0166457D01*
X0132641Y0166517D01*
X0132646Y0166578D01*
X0132655Y0166637D01*
X0132668Y0166696D01*
X0132684Y0166755D01*
X0132704Y0166812D01*
X0132727Y0166867D01*
X0132754Y0166922D01*
X0132783Y0166974D01*
X0132816Y0167025D01*
X0132852Y0167074D01*
X0132890Y0167120D01*
X0132932Y0167164D01*
X0132976Y0167206D01*
X0133022Y0167244D01*
X0133071Y0167280D01*
X0133122Y0167313D01*
X0133174Y0167342D01*
X0133229Y0167369D01*
X0133284Y0167392D01*
X0133341Y0167412D01*
X0133400Y0167428D01*
X0133459Y0167441D01*
X0133518Y0167450D01*
X0133579Y0167455D01*
X0133639Y0167457D01*
X0139639Y0167457D01*
X0139699Y0167455D01*
X0139760Y0167450D01*
X0139819Y0167441D01*
X0139878Y0167428D01*
X0139937Y0167412D01*
X0139994Y0167392D01*
X0140049Y0167369D01*
X0140104Y0167342D01*
X0140156Y0167313D01*
X0140207Y0167280D01*
X0140256Y0167244D01*
X0140302Y0167206D01*
X0140346Y0167164D01*
X0140388Y0167120D01*
X0140426Y0167074D01*
X0140462Y0167025D01*
X0140495Y0166974D01*
X0140524Y0166922D01*
X0140551Y0166867D01*
X0140574Y0166812D01*
X0140594Y0166755D01*
X0140610Y0166696D01*
X0140623Y0166637D01*
X0140632Y0166578D01*
X0140637Y0166517D01*
X0140639Y0166457D01*
X0140639Y0155457D01*
X0140637Y0155397D01*
X0140632Y0155336D01*
X0140623Y0155277D01*
X0140610Y0155218D01*
X0140594Y0155159D01*
X0140574Y0155102D01*
X0140551Y0155047D01*
X0140524Y0154992D01*
X0140495Y0154940D01*
X0140462Y0154889D01*
X0140426Y0154840D01*
X0140388Y0154794D01*
X0140346Y0154750D01*
X0140302Y0154708D01*
X0140256Y0154670D01*
X0140207Y0154634D01*
X0140156Y0154601D01*
X0140104Y0154572D01*
X0140049Y0154545D01*
X0139994Y0154522D01*
X0139937Y0154502D01*
X0139878Y0154486D01*
X0139819Y0154473D01*
X0139760Y0154464D01*
X0139699Y0154459D01*
X0139639Y0154457D01*
X0133639Y0154457D01*
X0133579Y0154459D01*
X0133518Y0154464D01*
X0133459Y0154473D01*
X0133400Y0154486D01*
X0133341Y0154502D01*
X0133284Y0154522D01*
X0133229Y0154545D01*
X0133174Y0154572D01*
X0133122Y0154601D01*
X0133071Y0154634D01*
X0133022Y0154670D01*
X0132976Y0154708D01*
X0132932Y0154750D01*
X0132890Y0154794D01*
X0132852Y0154840D01*
X0132816Y0154889D01*
X0132783Y0154940D01*
X0132754Y0154992D01*
X0132727Y0155047D01*
X0132704Y0155102D01*
X0132684Y0155159D01*
X0132668Y0155218D01*
X0132655Y0155277D01*
X0132646Y0155336D01*
X0132641Y0155397D01*
X0132639Y0155457D01*
X0149175Y0155457D02*
X0149175Y0166457D01*
X0149177Y0166517D01*
X0149182Y0166578D01*
X0149191Y0166637D01*
X0149204Y0166696D01*
X0149220Y0166755D01*
X0149240Y0166812D01*
X0149263Y0166867D01*
X0149290Y0166922D01*
X0149319Y0166974D01*
X0149352Y0167025D01*
X0149388Y0167074D01*
X0149426Y0167120D01*
X0149468Y0167164D01*
X0149512Y0167206D01*
X0149558Y0167244D01*
X0149607Y0167280D01*
X0149658Y0167313D01*
X0149710Y0167342D01*
X0149765Y0167369D01*
X0149820Y0167392D01*
X0149877Y0167412D01*
X0149936Y0167428D01*
X0149995Y0167441D01*
X0150054Y0167450D01*
X0150115Y0167455D01*
X0150175Y0167457D01*
X0156175Y0167457D01*
X0156235Y0167455D01*
X0156296Y0167450D01*
X0156355Y0167441D01*
X0156414Y0167428D01*
X0156473Y0167412D01*
X0156530Y0167392D01*
X0156585Y0167369D01*
X0156640Y0167342D01*
X0156692Y0167313D01*
X0156743Y0167280D01*
X0156792Y0167244D01*
X0156838Y0167206D01*
X0156882Y0167164D01*
X0156924Y0167120D01*
X0156962Y0167074D01*
X0156998Y0167025D01*
X0157031Y0166974D01*
X0157060Y0166922D01*
X0157087Y0166867D01*
X0157110Y0166812D01*
X0157130Y0166755D01*
X0157146Y0166696D01*
X0157159Y0166637D01*
X0157168Y0166578D01*
X0157173Y0166517D01*
X0157175Y0166457D01*
X0157175Y0155457D01*
X0157173Y0155397D01*
X0157168Y0155336D01*
X0157159Y0155277D01*
X0157146Y0155218D01*
X0157130Y0155159D01*
X0157110Y0155102D01*
X0157087Y0155047D01*
X0157060Y0154992D01*
X0157031Y0154940D01*
X0156998Y0154889D01*
X0156962Y0154840D01*
X0156924Y0154794D01*
X0156882Y0154750D01*
X0156838Y0154708D01*
X0156792Y0154670D01*
X0156743Y0154634D01*
X0156692Y0154601D01*
X0156640Y0154572D01*
X0156585Y0154545D01*
X0156530Y0154522D01*
X0156473Y0154502D01*
X0156414Y0154486D01*
X0156355Y0154473D01*
X0156296Y0154464D01*
X0156235Y0154459D01*
X0156175Y0154457D01*
X0150175Y0154457D01*
X0150115Y0154459D01*
X0150054Y0154464D01*
X0149995Y0154473D01*
X0149936Y0154486D01*
X0149877Y0154502D01*
X0149820Y0154522D01*
X0149765Y0154545D01*
X0149710Y0154572D01*
X0149658Y0154601D01*
X0149607Y0154634D01*
X0149558Y0154670D01*
X0149512Y0154708D01*
X0149468Y0154750D01*
X0149426Y0154794D01*
X0149388Y0154840D01*
X0149352Y0154889D01*
X0149319Y0154940D01*
X0149290Y0154992D01*
X0149263Y0155047D01*
X0149240Y0155102D01*
X0149220Y0155159D01*
X0149204Y0155218D01*
X0149191Y0155277D01*
X0149182Y0155336D01*
X0149177Y0155397D01*
X0149175Y0155457D01*
X0164135Y0155457D02*
X0164135Y0166457D01*
X0164137Y0166517D01*
X0164142Y0166578D01*
X0164151Y0166637D01*
X0164164Y0166696D01*
X0164180Y0166755D01*
X0164200Y0166812D01*
X0164223Y0166867D01*
X0164250Y0166922D01*
X0164279Y0166974D01*
X0164312Y0167025D01*
X0164348Y0167074D01*
X0164386Y0167120D01*
X0164428Y0167164D01*
X0164472Y0167206D01*
X0164518Y0167244D01*
X0164567Y0167280D01*
X0164618Y0167313D01*
X0164670Y0167342D01*
X0164725Y0167369D01*
X0164780Y0167392D01*
X0164837Y0167412D01*
X0164896Y0167428D01*
X0164955Y0167441D01*
X0165014Y0167450D01*
X0165075Y0167455D01*
X0165135Y0167457D01*
X0171135Y0167457D01*
X0171195Y0167455D01*
X0171256Y0167450D01*
X0171315Y0167441D01*
X0171374Y0167428D01*
X0171433Y0167412D01*
X0171490Y0167392D01*
X0171545Y0167369D01*
X0171600Y0167342D01*
X0171652Y0167313D01*
X0171703Y0167280D01*
X0171752Y0167244D01*
X0171798Y0167206D01*
X0171842Y0167164D01*
X0171884Y0167120D01*
X0171922Y0167074D01*
X0171958Y0167025D01*
X0171991Y0166974D01*
X0172020Y0166922D01*
X0172047Y0166867D01*
X0172070Y0166812D01*
X0172090Y0166755D01*
X0172106Y0166696D01*
X0172119Y0166637D01*
X0172128Y0166578D01*
X0172133Y0166517D01*
X0172135Y0166457D01*
X0172135Y0155457D01*
X0172133Y0155397D01*
X0172128Y0155336D01*
X0172119Y0155277D01*
X0172106Y0155218D01*
X0172090Y0155159D01*
X0172070Y0155102D01*
X0172047Y0155047D01*
X0172020Y0154992D01*
X0171991Y0154940D01*
X0171958Y0154889D01*
X0171922Y0154840D01*
X0171884Y0154794D01*
X0171842Y0154750D01*
X0171798Y0154708D01*
X0171752Y0154670D01*
X0171703Y0154634D01*
X0171652Y0154601D01*
X0171600Y0154572D01*
X0171545Y0154545D01*
X0171490Y0154522D01*
X0171433Y0154502D01*
X0171374Y0154486D01*
X0171315Y0154473D01*
X0171256Y0154464D01*
X0171195Y0154459D01*
X0171135Y0154457D01*
X0165135Y0154457D01*
X0165075Y0154459D01*
X0165014Y0154464D01*
X0164955Y0154473D01*
X0164896Y0154486D01*
X0164837Y0154502D01*
X0164780Y0154522D01*
X0164725Y0154545D01*
X0164670Y0154572D01*
X0164618Y0154601D01*
X0164567Y0154634D01*
X0164518Y0154670D01*
X0164472Y0154708D01*
X0164428Y0154750D01*
X0164386Y0154794D01*
X0164348Y0154840D01*
X0164312Y0154889D01*
X0164279Y0154940D01*
X0164250Y0154992D01*
X0164223Y0155047D01*
X0164200Y0155102D01*
X0164180Y0155159D01*
X0164164Y0155218D01*
X0164151Y0155277D01*
X0164142Y0155336D01*
X0164137Y0155397D01*
X0164135Y0155457D01*
X0179883Y0155457D02*
X0179883Y0166457D01*
X0179885Y0166517D01*
X0179890Y0166578D01*
X0179899Y0166637D01*
X0179912Y0166696D01*
X0179928Y0166755D01*
X0179948Y0166812D01*
X0179971Y0166867D01*
X0179998Y0166922D01*
X0180027Y0166974D01*
X0180060Y0167025D01*
X0180096Y0167074D01*
X0180134Y0167120D01*
X0180176Y0167164D01*
X0180220Y0167206D01*
X0180266Y0167244D01*
X0180315Y0167280D01*
X0180366Y0167313D01*
X0180418Y0167342D01*
X0180473Y0167369D01*
X0180528Y0167392D01*
X0180585Y0167412D01*
X0180644Y0167428D01*
X0180703Y0167441D01*
X0180762Y0167450D01*
X0180823Y0167455D01*
X0180883Y0167457D01*
X0186883Y0167457D01*
X0186943Y0167455D01*
X0187004Y0167450D01*
X0187063Y0167441D01*
X0187122Y0167428D01*
X0187181Y0167412D01*
X0187238Y0167392D01*
X0187293Y0167369D01*
X0187348Y0167342D01*
X0187400Y0167313D01*
X0187451Y0167280D01*
X0187500Y0167244D01*
X0187546Y0167206D01*
X0187590Y0167164D01*
X0187632Y0167120D01*
X0187670Y0167074D01*
X0187706Y0167025D01*
X0187739Y0166974D01*
X0187768Y0166922D01*
X0187795Y0166867D01*
X0187818Y0166812D01*
X0187838Y0166755D01*
X0187854Y0166696D01*
X0187867Y0166637D01*
X0187876Y0166578D01*
X0187881Y0166517D01*
X0187883Y0166457D01*
X0187883Y0155457D01*
X0187881Y0155397D01*
X0187876Y0155336D01*
X0187867Y0155277D01*
X0187854Y0155218D01*
X0187838Y0155159D01*
X0187818Y0155102D01*
X0187795Y0155047D01*
X0187768Y0154992D01*
X0187739Y0154940D01*
X0187706Y0154889D01*
X0187670Y0154840D01*
X0187632Y0154794D01*
X0187590Y0154750D01*
X0187546Y0154708D01*
X0187500Y0154670D01*
X0187451Y0154634D01*
X0187400Y0154601D01*
X0187348Y0154572D01*
X0187293Y0154545D01*
X0187238Y0154522D01*
X0187181Y0154502D01*
X0187122Y0154486D01*
X0187063Y0154473D01*
X0187004Y0154464D01*
X0186943Y0154459D01*
X0186883Y0154457D01*
X0180883Y0154457D01*
X0180823Y0154459D01*
X0180762Y0154464D01*
X0180703Y0154473D01*
X0180644Y0154486D01*
X0180585Y0154502D01*
X0180528Y0154522D01*
X0180473Y0154545D01*
X0180418Y0154572D01*
X0180366Y0154601D01*
X0180315Y0154634D01*
X0180266Y0154670D01*
X0180220Y0154708D01*
X0180176Y0154750D01*
X0180134Y0154794D01*
X0180096Y0154840D01*
X0180060Y0154889D01*
X0180027Y0154940D01*
X0179998Y0154992D01*
X0179971Y0155047D01*
X0179948Y0155102D01*
X0179928Y0155159D01*
X0179912Y0155218D01*
X0179899Y0155277D01*
X0179890Y0155336D01*
X0179885Y0155397D01*
X0179883Y0155457D01*
X0236324Y0034800D02*
X0236324Y0023800D01*
D13*
X0239821Y0027446D02*
X0239071Y0028197D01*
X0239071Y0029698D01*
X0239821Y0030449D01*
X0240572Y0030449D01*
X0243574Y0027446D01*
X0243574Y0030449D01*
X0233574Y0029698D02*
X0229071Y0029698D01*
X0231322Y0027446D01*
X0231322Y0030449D01*
X0223574Y0029698D02*
X0223574Y0028197D01*
X0222824Y0027446D01*
X0221322Y0027446D01*
X0221322Y0029698D01*
X0222073Y0030449D01*
X0222824Y0030449D01*
X0223574Y0029698D01*
X0221322Y0027446D02*
X0219821Y0028947D01*
X0219071Y0030449D01*
X0213574Y0029698D02*
X0213574Y0028197D01*
X0212824Y0027446D01*
X0212073Y0027446D01*
X0211322Y0028197D01*
X0211322Y0029698D01*
X0212073Y0030449D01*
X0212824Y0030449D01*
X0213574Y0029698D01*
X0211322Y0029698D02*
X0210572Y0030449D01*
X0209821Y0030449D01*
X0209071Y0029698D01*
X0209071Y0028197D01*
X0209821Y0027446D01*
X0210572Y0027446D01*
X0211322Y0028197D01*
X0203574Y0027345D02*
X0203574Y0024342D01*
X0203574Y0025843D02*
X0199071Y0025843D01*
X0200572Y0024342D01*
X0199821Y0028946D02*
X0199071Y0029697D01*
X0199071Y0031198D01*
X0199821Y0031949D01*
X0202824Y0028946D01*
X0203574Y0029697D01*
X0203574Y0031198D01*
X0202824Y0031949D01*
X0199821Y0031949D01*
X0199821Y0028946D02*
X0202824Y0028946D01*
X0193574Y0028946D02*
X0190572Y0031949D01*
X0189821Y0031949D01*
X0189071Y0031198D01*
X0189071Y0029697D01*
X0189821Y0028946D01*
X0189071Y0025843D02*
X0193574Y0025843D01*
X0193574Y0024342D02*
X0193574Y0027345D01*
X0193574Y0028946D02*
X0193574Y0031949D01*
X0189071Y0025843D02*
X0190572Y0024342D01*
X0183574Y0024342D02*
X0183574Y0027345D01*
X0183574Y0025843D02*
X0179071Y0025843D01*
X0180572Y0024342D01*
X0181322Y0028946D02*
X0181322Y0031949D01*
X0179071Y0031198D02*
X0181322Y0028946D01*
X0183574Y0031198D02*
X0179071Y0031198D01*
X0173574Y0031198D02*
X0172824Y0031949D01*
X0172073Y0031949D01*
X0171322Y0031198D01*
X0171322Y0028946D01*
X0172824Y0028946D01*
X0173574Y0029697D01*
X0173574Y0031198D01*
X0171322Y0028946D02*
X0169821Y0030447D01*
X0169071Y0031949D01*
X0173574Y0027345D02*
X0173574Y0024342D01*
X0173574Y0025843D02*
X0169071Y0025843D01*
X0170572Y0024342D01*
X0156567Y0027446D02*
X0153564Y0030449D01*
X0152813Y0030449D01*
X0152063Y0029698D01*
X0152063Y0028197D01*
X0152813Y0027446D01*
X0156567Y0027446D02*
X0156567Y0030449D01*
X0146567Y0029698D02*
X0142063Y0029698D01*
X0144315Y0027446D01*
X0144315Y0030449D01*
X0136567Y0029698D02*
X0136567Y0028197D01*
X0135816Y0027446D01*
X0134315Y0027446D01*
X0134315Y0029698D01*
X0135065Y0030449D01*
X0135816Y0030449D01*
X0136567Y0029698D01*
X0134315Y0027446D02*
X0132813Y0028947D01*
X0132063Y0030449D01*
X0126567Y0029698D02*
X0126567Y0028197D01*
X0125816Y0027446D01*
X0125065Y0027446D01*
X0124315Y0028197D01*
X0124315Y0029698D01*
X0125065Y0030449D01*
X0125816Y0030449D01*
X0126567Y0029698D01*
X0124315Y0029698D02*
X0123564Y0030449D01*
X0122813Y0030449D01*
X0122063Y0029698D01*
X0122063Y0028197D01*
X0122813Y0027446D01*
X0123564Y0027446D01*
X0124315Y0028197D01*
X0116567Y0027345D02*
X0116567Y0024342D01*
X0116567Y0025843D02*
X0112063Y0025843D01*
X0113564Y0024342D01*
X0112813Y0028946D02*
X0112063Y0029697D01*
X0112063Y0031198D01*
X0112813Y0031949D01*
X0115816Y0028946D01*
X0116567Y0029697D01*
X0116567Y0031198D01*
X0115816Y0031949D01*
X0112813Y0031949D01*
X0112813Y0028946D02*
X0115816Y0028946D01*
X0106567Y0028946D02*
X0103564Y0031949D01*
X0102813Y0031949D01*
X0102063Y0031198D01*
X0102063Y0029697D01*
X0102813Y0028946D01*
X0102063Y0025843D02*
X0106567Y0025843D01*
X0106567Y0024342D02*
X0106567Y0027345D01*
X0106567Y0028946D02*
X0106567Y0031949D01*
X0102063Y0025843D02*
X0103564Y0024342D01*
X0096567Y0024342D02*
X0096567Y0027345D01*
X0096567Y0025843D02*
X0092063Y0025843D01*
X0093564Y0024342D01*
X0094315Y0028946D02*
X0094315Y0031949D01*
X0096567Y0031198D02*
X0092063Y0031198D01*
X0094315Y0028946D01*
X0086567Y0029697D02*
X0085816Y0028946D01*
X0084315Y0028946D01*
X0084315Y0031198D01*
X0085065Y0031949D01*
X0085816Y0031949D01*
X0086567Y0031198D01*
X0086567Y0029697D01*
X0086567Y0027345D02*
X0086567Y0024342D01*
X0086567Y0025843D02*
X0082063Y0025843D01*
X0083564Y0024342D01*
X0084315Y0028946D02*
X0082813Y0030447D01*
X0082063Y0031949D01*
X0145755Y0056801D02*
X0146505Y0056050D01*
X0148007Y0056050D01*
X0148757Y0056801D01*
X0148757Y0057551D01*
X0148007Y0058302D01*
X0146505Y0058302D01*
X0145755Y0059053D01*
X0145755Y0059803D01*
X0146505Y0060554D01*
X0148007Y0060554D01*
X0148757Y0059803D01*
X0150359Y0060554D02*
X0150359Y0057551D01*
X0151860Y0056050D01*
X0153361Y0057551D01*
X0153361Y0060554D01*
X0154963Y0058302D02*
X0157215Y0058302D01*
X0157965Y0057551D01*
X0157965Y0056801D01*
X0157215Y0056050D01*
X0155713Y0056050D01*
X0154963Y0056801D01*
X0154963Y0058302D01*
X0156464Y0059803D01*
X0157965Y0060554D01*
X0232763Y0059803D02*
X0232763Y0059053D01*
X0233513Y0058302D01*
X0235015Y0058302D01*
X0235765Y0057551D01*
X0235765Y0056801D01*
X0235015Y0056050D01*
X0233513Y0056050D01*
X0232763Y0056801D01*
X0232763Y0059803D02*
X0233513Y0060554D01*
X0235015Y0060554D01*
X0235765Y0059803D01*
X0237367Y0060554D02*
X0237367Y0057551D01*
X0238868Y0056050D01*
X0240369Y0057551D01*
X0240369Y0060554D01*
X0241970Y0058302D02*
X0244973Y0058302D01*
X0244222Y0056050D02*
X0244222Y0060554D01*
X0241970Y0058302D01*
X0192383Y0153896D02*
X0193133Y0154646D01*
X0193133Y0156148D01*
X0192383Y0156898D01*
X0191632Y0156898D01*
X0190882Y0156148D01*
X0190882Y0154646D01*
X0190131Y0153896D01*
X0189380Y0153896D01*
X0188630Y0154646D01*
X0188630Y0156148D01*
X0189380Y0156898D01*
X0188630Y0160001D02*
X0188630Y0161502D01*
X0188630Y0160752D02*
X0192383Y0160752D01*
X0193133Y0160001D01*
X0193133Y0159250D01*
X0192383Y0158500D01*
X0193133Y0163104D02*
X0193133Y0166106D01*
X0193133Y0164605D02*
X0188630Y0164605D01*
X0190131Y0163104D01*
X0177385Y0163104D02*
X0174383Y0166106D01*
X0173632Y0166106D01*
X0172882Y0165355D01*
X0172882Y0163854D01*
X0173632Y0163104D01*
X0172882Y0161502D02*
X0172882Y0160001D01*
X0172882Y0160752D02*
X0176635Y0160752D01*
X0177385Y0160001D01*
X0177385Y0159250D01*
X0176635Y0158500D01*
X0176635Y0156898D02*
X0177385Y0156148D01*
X0177385Y0154646D01*
X0176635Y0153896D01*
X0175134Y0154646D02*
X0175134Y0156148D01*
X0175884Y0156898D01*
X0176635Y0156898D01*
X0175134Y0154646D02*
X0174383Y0153896D01*
X0173632Y0153896D01*
X0172882Y0154646D01*
X0172882Y0156148D01*
X0173632Y0156898D01*
X0177385Y0163104D02*
X0177385Y0166106D01*
X0162425Y0165355D02*
X0162425Y0163854D01*
X0161674Y0163104D01*
X0160173Y0164605D02*
X0160173Y0165355D01*
X0160924Y0166106D01*
X0161674Y0166106D01*
X0162425Y0165355D01*
X0160173Y0165355D02*
X0159422Y0166106D01*
X0158672Y0166106D01*
X0157921Y0165355D01*
X0157921Y0163854D01*
X0158672Y0163104D01*
X0157921Y0161502D02*
X0157921Y0160001D01*
X0157921Y0160752D02*
X0161674Y0160752D01*
X0162425Y0160001D01*
X0162425Y0159250D01*
X0161674Y0158500D01*
X0161674Y0156898D02*
X0162425Y0156148D01*
X0162425Y0154646D01*
X0161674Y0153896D01*
X0160173Y0154646D02*
X0160173Y0156148D01*
X0160924Y0156898D01*
X0161674Y0156898D01*
X0160173Y0154646D02*
X0159422Y0153896D01*
X0158672Y0153896D01*
X0157921Y0154646D01*
X0157921Y0156148D01*
X0158672Y0156898D01*
X0145889Y0156148D02*
X0145889Y0154646D01*
X0145139Y0153896D01*
X0143637Y0154646D02*
X0143637Y0156148D01*
X0144388Y0156898D01*
X0145139Y0156898D01*
X0145889Y0156148D01*
X0145139Y0158500D02*
X0145889Y0159250D01*
X0145889Y0160001D01*
X0145139Y0160752D01*
X0141386Y0160752D01*
X0141386Y0161502D02*
X0141386Y0160001D01*
X0142136Y0156898D02*
X0141386Y0156148D01*
X0141386Y0154646D01*
X0142136Y0153896D01*
X0142887Y0153896D01*
X0143637Y0154646D01*
X0143637Y0163104D02*
X0143637Y0166106D01*
X0141386Y0165355D02*
X0143637Y0163104D01*
X0141386Y0165355D02*
X0145889Y0165355D01*
X0077385Y0165355D02*
X0077385Y0163854D01*
X0076635Y0163104D01*
X0075134Y0163104D02*
X0074383Y0164605D01*
X0074383Y0165355D01*
X0075134Y0166106D01*
X0076635Y0166106D01*
X0077385Y0165355D01*
X0075134Y0163104D02*
X0072882Y0163104D01*
X0072882Y0166106D01*
X0072882Y0161502D02*
X0072882Y0160001D01*
X0072882Y0160752D02*
X0076635Y0160752D01*
X0077385Y0160001D01*
X0077385Y0159250D01*
X0076635Y0158500D01*
X0076635Y0156898D02*
X0077385Y0156148D01*
X0077385Y0154646D01*
X0076635Y0153896D01*
X0075134Y0154646D02*
X0075134Y0156148D01*
X0075884Y0156898D01*
X0076635Y0156898D01*
X0075134Y0154646D02*
X0074383Y0153896D01*
X0073632Y0153896D01*
X0072882Y0154646D01*
X0072882Y0156148D01*
X0073632Y0156898D01*
X0062031Y0156148D02*
X0062031Y0154646D01*
X0061280Y0153896D01*
X0059779Y0154646D02*
X0059029Y0153896D01*
X0058278Y0153896D01*
X0057527Y0154646D01*
X0057527Y0156148D01*
X0058278Y0156898D01*
X0059779Y0156148D02*
X0060530Y0156898D01*
X0061280Y0156898D01*
X0062031Y0156148D01*
X0059779Y0156148D02*
X0059779Y0154646D01*
X0061280Y0158500D02*
X0062031Y0159250D01*
X0062031Y0160001D01*
X0061280Y0160752D01*
X0057527Y0160752D01*
X0057527Y0161502D02*
X0057527Y0160001D01*
X0059779Y0163104D02*
X0059779Y0165355D01*
X0060530Y0166106D01*
X0061280Y0166106D01*
X0062031Y0165355D01*
X0062031Y0163854D01*
X0061280Y0163104D01*
X0059779Y0163104D01*
X0058278Y0164605D01*
X0057527Y0166106D01*
X0046677Y0163104D02*
X0045926Y0163104D01*
X0042924Y0166106D01*
X0042173Y0166106D01*
X0042173Y0163104D01*
X0042173Y0161502D02*
X0042173Y0160001D01*
X0042173Y0160752D02*
X0045926Y0160752D01*
X0046677Y0160001D01*
X0046677Y0159250D01*
X0045926Y0158500D01*
X0045926Y0156898D02*
X0046677Y0156148D01*
X0046677Y0154646D01*
X0045926Y0153896D01*
X0044425Y0154646D02*
X0043674Y0153896D01*
X0042924Y0153896D01*
X0042173Y0154646D01*
X0042173Y0156148D01*
X0042924Y0156898D01*
X0044425Y0156148D02*
X0045175Y0156898D01*
X0045926Y0156898D01*
X0044425Y0156148D02*
X0044425Y0154646D01*
X0031322Y0154646D02*
X0030572Y0153896D01*
X0031322Y0154646D02*
X0031322Y0156148D01*
X0030572Y0156898D01*
X0029821Y0156898D01*
X0029071Y0156148D01*
X0029071Y0154646D01*
X0028320Y0153896D01*
X0027569Y0153896D01*
X0026819Y0154646D01*
X0026819Y0156148D01*
X0027569Y0156898D01*
X0026819Y0160001D02*
X0026819Y0161502D01*
X0026819Y0160752D02*
X0030572Y0160752D01*
X0031322Y0160001D01*
X0031322Y0159250D01*
X0030572Y0158500D01*
X0030572Y0163104D02*
X0029821Y0163104D01*
X0029071Y0163854D01*
X0029071Y0165355D01*
X0029821Y0166106D01*
X0030572Y0166106D01*
X0031322Y0165355D01*
X0031322Y0163854D01*
X0030572Y0163104D01*
X0029071Y0163854D02*
X0028320Y0163104D01*
X0027569Y0163104D01*
X0026819Y0163854D01*
X0026819Y0165355D01*
X0027569Y0166106D01*
X0028320Y0166106D01*
X0029071Y0165355D01*
X0040322Y0127012D02*
X0040322Y0124009D01*
X0040322Y0125510D02*
X0035819Y0125510D01*
X0037320Y0124009D01*
X0037320Y0110512D02*
X0038071Y0109761D01*
X0038821Y0110512D01*
X0039572Y0110512D01*
X0040322Y0109761D01*
X0040322Y0108260D01*
X0039572Y0107509D01*
X0038821Y0105908D02*
X0035819Y0105908D01*
X0036569Y0107509D02*
X0035819Y0108260D01*
X0035819Y0109761D01*
X0036569Y0110512D01*
X0037320Y0110512D01*
X0038071Y0109761D02*
X0038071Y0109010D01*
X0038821Y0105908D02*
X0040322Y0104406D01*
X0038821Y0102905D01*
X0035819Y0102905D01*
X0036569Y0101304D02*
X0035819Y0100553D01*
X0035819Y0099052D01*
X0036569Y0098301D01*
X0037320Y0098301D01*
X0038071Y0099052D01*
X0038071Y0100553D01*
X0038821Y0101304D01*
X0039572Y0101304D01*
X0040322Y0100553D01*
X0040322Y0099052D01*
X0039572Y0098301D01*
X0007572Y0059012D02*
X0006821Y0059012D01*
X0006071Y0058261D01*
X0006071Y0056009D01*
X0007572Y0056009D01*
X0008322Y0056760D01*
X0008322Y0058261D01*
X0007572Y0059012D01*
X0004569Y0057510D02*
X0006071Y0056009D01*
X0004569Y0057510D02*
X0003819Y0059012D01*
X0008322Y0054408D02*
X0008322Y0051405D01*
X0008322Y0052906D02*
X0003819Y0052906D01*
X0005320Y0051405D01*
D14*
X0040331Y0052784D02*
X0043467Y0055920D01*
X0043467Y0054352D02*
X0040331Y0054352D01*
X0040331Y0055920D02*
X0043467Y0052784D01*
X0041899Y0052784D02*
X0041899Y0055920D01*
X0041631Y0045004D02*
X0041631Y0041084D01*
X0042415Y0040300D01*
X0043983Y0040300D01*
X0044767Y0041084D01*
X0044767Y0045004D01*
X0046235Y0044220D02*
X0047019Y0045004D01*
X0048587Y0045004D01*
X0049371Y0044220D01*
X0049371Y0043436D01*
X0046235Y0040300D01*
X0049371Y0040300D01*
X0134150Y0066708D02*
X0137286Y0069844D01*
X0135718Y0069844D02*
X0135718Y0066708D01*
X0137286Y0066708D02*
X0134150Y0069844D01*
X0134150Y0068276D02*
X0137286Y0068276D01*
X0160466Y0093508D02*
X0164386Y0093508D01*
X0165170Y0094292D01*
X0165170Y0095860D01*
X0164386Y0096644D01*
X0160466Y0096644D01*
X0161250Y0098112D02*
X0160466Y0098896D01*
X0160466Y0100464D01*
X0161250Y0101248D01*
X0162034Y0101248D01*
X0162818Y0100464D01*
X0163602Y0101248D01*
X0164386Y0101248D01*
X0165170Y0100464D01*
X0165170Y0098896D01*
X0164386Y0098112D01*
X0162818Y0099680D02*
X0162818Y0100464D01*
X0097589Y0139701D02*
X0094453Y0142837D01*
X0094453Y0141269D02*
X0097589Y0141269D01*
X0097589Y0142837D02*
X0094453Y0139701D01*
X0096021Y0139701D02*
X0096021Y0142837D01*
D15*
X0094317Y0020800D02*
X0094317Y0002300D01*
X0104317Y0002300D02*
X0104317Y0020800D01*
X0114317Y0020800D02*
X0114317Y0002300D01*
X0124317Y0002300D02*
X0124317Y0020800D01*
X0134317Y0020800D02*
X0134317Y0002300D01*
X0144317Y0002300D02*
X0144317Y0020800D01*
X0154317Y0020800D02*
X0154317Y0002300D01*
X0171324Y0002300D02*
X0171324Y0020800D01*
X0181324Y0020800D02*
X0181324Y0002300D01*
X0191324Y0002300D02*
X0191324Y0020800D01*
X0201324Y0020800D02*
X0201324Y0002300D01*
X0211324Y0002300D02*
X0211324Y0020800D01*
X0221324Y0020800D02*
X0221324Y0002300D01*
X0231324Y0002300D02*
X0231324Y0020800D01*
X0241324Y0020800D02*
X0241324Y0002300D01*
X0084317Y0002300D02*
X0084317Y0020800D01*
D16*
X0084317Y0022300D03*
X0094317Y0022300D03*
X0104317Y0022300D03*
X0114317Y0022300D03*
X0124317Y0022300D03*
X0134317Y0022300D03*
X0144317Y0022300D03*
X0154317Y0022300D03*
X0171324Y0022300D03*
X0181324Y0022300D03*
X0191324Y0022300D03*
X0201324Y0022300D03*
X0211324Y0022300D03*
X0221324Y0022300D03*
X0231324Y0022300D03*
X0241324Y0022300D03*
D17*
X0241324Y0036100D03*
X0231324Y0036100D03*
X0221324Y0036100D03*
X0211324Y0036100D03*
X0201324Y0036100D03*
X0191324Y0036100D03*
X0181324Y0036100D03*
X0171324Y0036100D03*
X0154317Y0036100D03*
X0144317Y0036100D03*
X0134317Y0036100D03*
X0124317Y0036100D03*
X0114317Y0036100D03*
X0104317Y0036100D03*
X0094317Y0036100D03*
X0084317Y0036100D03*
D18*
X0084317Y0045800D03*
X0094317Y0045800D03*
X0104317Y0045800D03*
X0114317Y0045800D03*
X0124317Y0045800D03*
X0134317Y0045800D03*
X0144317Y0045800D03*
X0154317Y0045800D03*
X0171324Y0045800D03*
X0181324Y0045800D03*
X0191324Y0045800D03*
X0201324Y0045800D03*
X0211324Y0045800D03*
X0221324Y0045800D03*
X0231324Y0045800D03*
X0241324Y0045800D03*
D19*
X0100691Y0145767D02*
X0095754Y0145767D01*
X0098222Y0145767D02*
X0098222Y0153173D01*
X0095754Y0150704D01*
X0093141Y0153173D02*
X0093141Y0147001D01*
X0091906Y0145767D01*
X0089438Y0145767D01*
X0088203Y0147001D01*
X0088203Y0153173D01*
M02*
