G75*
%MOIN*%
%OFA0B0*%
%FSLAX25Y25*%
%IPPOS*%
%LPD*%
%AMOC8*
5,1,8,0,0,1.08239X$1,22.5*
%
%ADD10R,0.04737X0.05131*%
%ADD11OC8,0.06200*%
%ADD12R,0.07100X0.05400*%
%ADD13R,0.07200X0.00600*%
%ADD14R,0.09400X0.03000*%
%ADD15R,0.07887X0.07099*%
%ADD16R,0.05131X0.04737*%
%ADD17R,0.07099X0.07887*%
%ADD18C,0.06200*%
%ADD19R,0.02500X0.07400*%
%ADD20R,0.07400X0.02500*%
%ADD21OC8,0.06800*%
%ADD22R,0.05400X0.02200*%
%ADD23C,0.04934*%
D10*
X0030537Y0038517D03*
X0030537Y0045209D03*
X0073254Y0040288D03*
X0073254Y0033595D03*
X0073254Y0077296D03*
X0079946Y0077296D03*
X0104159Y0103477D03*
X0104159Y0110170D03*
X0112820Y0110170D03*
X0112820Y0103477D03*
X0176009Y0144816D03*
X0176009Y0151509D03*
X0193529Y0151509D03*
X0193529Y0144816D03*
X0213214Y0129658D03*
X0219907Y0129658D03*
X0219907Y0121391D03*
X0213214Y0121391D03*
D11*
X0211757Y0181548D03*
X0201757Y0181548D03*
X0191757Y0181548D03*
X0181757Y0181548D03*
X0171757Y0181548D03*
X0161757Y0181548D03*
X0151757Y0181548D03*
X0141757Y0181548D03*
X0131757Y0181548D03*
X0121757Y0181548D03*
X0111757Y0181548D03*
X0101757Y0181548D03*
X0091757Y0181548D03*
X0081757Y0181548D03*
X0071757Y0181548D03*
X0061757Y0181548D03*
X0051757Y0181548D03*
X0041757Y0181548D03*
X0031757Y0181548D03*
X0031757Y0191548D03*
X0021757Y0191548D03*
X0041757Y0191548D03*
X0051757Y0191548D03*
X0061757Y0191548D03*
X0071757Y0191548D03*
X0081757Y0191548D03*
X0091757Y0191548D03*
X0101757Y0191548D03*
X0111757Y0191548D03*
X0121757Y0191548D03*
X0131757Y0191548D03*
X0141757Y0191548D03*
X0151757Y0191548D03*
X0161757Y0191548D03*
X0171757Y0191548D03*
X0181757Y0191548D03*
X0191757Y0191548D03*
X0201757Y0191548D03*
X0211757Y0191548D03*
X0027072Y0126863D03*
X0017072Y0126863D03*
X0017072Y0116863D03*
X0027072Y0116863D03*
X0027072Y0106863D03*
X0017072Y0106863D03*
X0017072Y0096863D03*
X0027072Y0096863D03*
X0027072Y0086863D03*
X0017072Y0086863D03*
X0017072Y0076863D03*
X0027072Y0076863D03*
X0027072Y0066863D03*
X0017072Y0066863D03*
X0017072Y0056863D03*
X0027072Y0056863D03*
D12*
X0022072Y0157957D03*
X0022072Y0163957D03*
X0037427Y0163957D03*
X0037427Y0157957D03*
X0052781Y0157957D03*
X0052781Y0163957D03*
X0068135Y0163957D03*
X0068135Y0157957D03*
X0136639Y0157957D03*
X0136639Y0163957D03*
X0153175Y0163957D03*
X0153175Y0157957D03*
X0168135Y0157957D03*
X0168135Y0163957D03*
X0183883Y0163957D03*
X0183883Y0157957D03*
D13*
X0183883Y0160957D03*
X0168135Y0160957D03*
X0153175Y0160957D03*
X0136639Y0160957D03*
X0068135Y0160957D03*
X0052781Y0160957D03*
X0037427Y0160957D03*
X0022072Y0160957D03*
D14*
X0043481Y0050150D03*
X0043481Y0045150D03*
X0043481Y0040150D03*
X0043481Y0035150D03*
X0062081Y0035150D03*
X0062081Y0040150D03*
X0062081Y0045150D03*
X0062081Y0050150D03*
D15*
X0019513Y0034186D03*
X0019513Y0045209D03*
D16*
X0066561Y0067847D03*
X0073254Y0067847D03*
X0200813Y0105839D03*
X0207506Y0105839D03*
X0213214Y0113123D03*
X0219907Y0113123D03*
D17*
X0073254Y0058202D03*
X0062230Y0058202D03*
D18*
X0021757Y0181548D03*
D19*
X0138509Y0134658D03*
X0141069Y0134658D03*
X0143628Y0134658D03*
X0146187Y0134658D03*
X0148746Y0134658D03*
X0151305Y0134658D03*
X0153864Y0134658D03*
X0156423Y0134658D03*
X0158982Y0134658D03*
X0161541Y0134658D03*
X0164100Y0134658D03*
X0166659Y0134658D03*
X0169218Y0134658D03*
X0171777Y0134658D03*
X0174336Y0134658D03*
X0176895Y0134658D03*
X0179454Y0134658D03*
X0182013Y0134658D03*
X0184572Y0134658D03*
X0187131Y0134658D03*
X0187131Y0074658D03*
X0184572Y0074658D03*
X0182013Y0074658D03*
X0179454Y0074658D03*
X0176895Y0074658D03*
X0174336Y0074658D03*
X0171777Y0074658D03*
X0169218Y0074658D03*
X0166659Y0074658D03*
X0164100Y0074658D03*
X0161541Y0074658D03*
X0158982Y0074658D03*
X0156423Y0074658D03*
X0153864Y0074658D03*
X0151305Y0074658D03*
X0148746Y0074658D03*
X0146187Y0074658D03*
X0143628Y0074658D03*
X0141069Y0074658D03*
X0138509Y0074658D03*
D20*
X0132820Y0080347D03*
X0132820Y0082906D03*
X0132820Y0085465D03*
X0132820Y0088024D03*
X0132820Y0090583D03*
X0132820Y0093143D03*
X0132820Y0095702D03*
X0132820Y0098261D03*
X0132820Y0100820D03*
X0132820Y0103379D03*
X0132820Y0105938D03*
X0132820Y0108497D03*
X0132820Y0111056D03*
X0132820Y0113615D03*
X0132820Y0116174D03*
X0132820Y0118733D03*
X0132820Y0121292D03*
X0132820Y0123851D03*
X0132820Y0126410D03*
X0132820Y0128969D03*
X0192820Y0128969D03*
X0192820Y0126410D03*
X0192820Y0123851D03*
X0192820Y0121292D03*
X0192820Y0118733D03*
X0192820Y0116174D03*
X0192820Y0113615D03*
X0192820Y0111056D03*
X0192820Y0108497D03*
X0192820Y0105938D03*
X0192820Y0103379D03*
X0192820Y0100820D03*
X0192820Y0098261D03*
X0192820Y0095702D03*
X0192820Y0093143D03*
X0192820Y0090583D03*
X0192820Y0088024D03*
X0192820Y0085465D03*
X0192820Y0082906D03*
X0192820Y0080347D03*
D21*
X0191324Y0050800D03*
X0181324Y0050800D03*
X0171324Y0050800D03*
X0171324Y0040800D03*
X0181324Y0040800D03*
X0191324Y0040800D03*
X0201324Y0040800D03*
X0201324Y0050800D03*
X0211324Y0050800D03*
X0211324Y0040800D03*
X0221324Y0040800D03*
X0221324Y0050800D03*
X0231324Y0050800D03*
X0231324Y0040800D03*
X0241324Y0040800D03*
X0241324Y0050800D03*
X0154317Y0050800D03*
X0154317Y0040800D03*
X0144317Y0040800D03*
X0144317Y0050800D03*
X0134317Y0050800D03*
X0134317Y0040800D03*
X0124317Y0040800D03*
X0124317Y0050800D03*
X0114317Y0050800D03*
X0114317Y0040800D03*
X0104317Y0040800D03*
X0104317Y0050800D03*
X0094317Y0050800D03*
X0094317Y0040800D03*
X0084317Y0040800D03*
X0084317Y0050800D03*
D22*
X0097603Y0132767D03*
X0097603Y0135367D03*
X0097603Y0137967D03*
X0105203Y0137967D03*
X0105203Y0132767D03*
D23*
X0111639Y0137926D03*
X0119710Y0132414D03*
X0123450Y0108595D03*
X0145498Y0107808D03*
X0166561Y0124343D03*
X0181915Y0103280D03*
X0174435Y0085957D03*
X0176797Y0066272D03*
X0188411Y0066272D03*
X0148647Y0066272D03*
X0137230Y0066272D03*
X0147466Y0085957D03*
X0206324Y0113123D03*
X0147072Y0146587D03*
X0127387Y0158005D03*
X0098057Y0164304D03*
X0089198Y0164304D03*
X0078521Y0157957D03*
X0045104Y0168635D03*
X0029750Y0168635D03*
X0086246Y0077296D03*
M02*
