G75*
%MOIN*%
%OFA0B0*%
%FSLAX25Y25*%
%IPPOS*%
%LPD*%
%AMOC8*
5,1,8,0,0,1.08239X$1,22.5*
%
%ADD10OC8,0.06200*%
%ADD11C,0.06200*%
%ADD12OC8,0.06800*%
%ADD13R,0.04737X0.05131*%
%ADD14R,0.05131X0.04737*%
%ADD15C,0.04934*%
D10*
X0017072Y0056863D03*
X0017072Y0066863D03*
X0027072Y0066863D03*
X0027072Y0056863D03*
X0027072Y0076863D03*
X0017072Y0076863D03*
X0017072Y0086863D03*
X0027072Y0086863D03*
X0027072Y0096863D03*
X0017072Y0096863D03*
X0017072Y0106863D03*
X0027072Y0106863D03*
X0027072Y0116863D03*
X0017072Y0116863D03*
X0017072Y0126863D03*
X0027072Y0126863D03*
X0031757Y0181548D03*
X0031757Y0191548D03*
X0021757Y0191548D03*
X0041757Y0191548D03*
X0041757Y0181548D03*
X0051757Y0181548D03*
X0051757Y0191548D03*
X0061757Y0191548D03*
X0071757Y0191548D03*
X0071757Y0181548D03*
X0061757Y0181548D03*
X0081757Y0181548D03*
X0081757Y0191548D03*
X0091757Y0191548D03*
X0091757Y0181548D03*
X0101757Y0181548D03*
X0101757Y0191548D03*
X0111757Y0191548D03*
X0111757Y0181548D03*
X0121757Y0181548D03*
X0121757Y0191548D03*
X0131757Y0191548D03*
X0131757Y0181548D03*
X0141757Y0181548D03*
X0141757Y0191548D03*
X0151757Y0191548D03*
X0151757Y0181548D03*
X0161757Y0181548D03*
X0171757Y0181548D03*
X0171757Y0191548D03*
X0161757Y0191548D03*
X0181757Y0191548D03*
X0181757Y0181548D03*
X0191757Y0181548D03*
X0191757Y0191548D03*
X0201757Y0191548D03*
X0201757Y0181548D03*
X0211757Y0181548D03*
X0211757Y0191548D03*
D11*
X0021757Y0181548D03*
D12*
X0084317Y0050800D03*
X0094317Y0050800D03*
X0104317Y0050800D03*
X0114317Y0050800D03*
X0124317Y0050800D03*
X0134317Y0050800D03*
X0144317Y0050800D03*
X0154317Y0050800D03*
X0154317Y0040800D03*
X0144317Y0040800D03*
X0134317Y0040800D03*
X0124317Y0040800D03*
X0114317Y0040800D03*
X0104317Y0040800D03*
X0094317Y0040800D03*
X0084317Y0040800D03*
X0171324Y0040800D03*
X0171324Y0050800D03*
X0181324Y0050800D03*
X0181324Y0040800D03*
X0191324Y0040800D03*
X0191324Y0050800D03*
X0201324Y0050800D03*
X0201324Y0040800D03*
X0211324Y0040800D03*
X0211324Y0050800D03*
X0221324Y0050800D03*
X0221324Y0040800D03*
X0231324Y0040800D03*
X0231324Y0050800D03*
X0241324Y0050800D03*
X0241324Y0040800D03*
D13*
X0181128Y0085957D03*
X0181128Y0092650D03*
X0167939Y0092650D03*
X0167939Y0085957D03*
X0153962Y0085957D03*
X0153962Y0092650D03*
X0140970Y0092650D03*
X0140970Y0085957D03*
D14*
X0151797Y0101706D03*
X0158490Y0101706D03*
X0158490Y0113910D03*
X0151797Y0113910D03*
X0123450Y0115485D03*
X0116757Y0115485D03*
X0116757Y0101706D03*
X0123450Y0101706D03*
X0188805Y0098162D03*
X0195498Y0098162D03*
X0195498Y0108398D03*
X0188805Y0108398D03*
D15*
X0181915Y0103280D03*
X0174435Y0085957D03*
X0176797Y0066272D03*
X0188411Y0066272D03*
X0148647Y0066272D03*
X0137230Y0066272D03*
X0147466Y0085957D03*
X0145498Y0107808D03*
X0123450Y0108595D03*
X0119710Y0132414D03*
X0111639Y0137926D03*
X0127387Y0158005D03*
X0147072Y0146587D03*
X0166561Y0124343D03*
X0206324Y0113123D03*
X0098057Y0164304D03*
X0089198Y0164304D03*
X0078521Y0157957D03*
X0045104Y0168635D03*
X0029750Y0168635D03*
X0086246Y0077296D03*
M02*
